<?xml version="1.0" encoding="UTF-8"?>
<svg id="Calque_1" xmlns="http://www.w3.org/2000/svg" version="1.1" viewBox="0 0 300 40">
  <!-- Generator: Adobe Illustrator 29.3.0, SVG Export Plug-In . SVG Version: 2.1.0 Build 146)  -->
  <defs>
    <style>
      .st0 {
        fill: #013851;
      }

      .st1 {
        fill: #00bff0;
      }
    </style>
  </defs>
  <rect class="st0" y="1.1" width="3.9" height="37.2"/>
  <polygon class="st0" points="14.2 1.1 17.9 1.1 39.8 31 39.8 1.1 43.7 1.1 43.7 38.4 40.5 38.4 18 7.8 18 38.4 14.2 38.4 14.2 1.1"/>
  <polygon class="st0" points="53.6 1.1 57.2 1.1 79.2 31 79.2 1.1 83.1 1.1 83.1 38.4 79.9 38.4 57.4 7.8 57.4 38.4 53.6 38.4 53.6 1.1"/>
  <path class="st0" d="M91.4,19.9h0c0-10.4,7.2-19.4,17.9-19.4s17.8,8.9,17.8,19.1h0c0,10.4-7.2,19.4-17.9,19.4s-17.8-8.9-17.8-19.1M122.9,19.9h0c0-8.6-5.8-15.5-13.8-15.5s-13.7,6.8-13.7,15.3h0c0,8.6,5.8,15.5,13.8,15.5s13.7-6.8,13.7-15.3"/>
  <polygon class="st0" points="179.7 5.6 168 5.6 168 1.7 195.4 1.7 195.4 5.6 183.7 5.6 183.7 38.9 179.7 38.9 179.7 5.6"/>
  <polygon class="st0" points="213.7 24.2 199.2 1.7 204 1.7 215.7 20.3 227.6 1.7 232.2 1.7 217.7 24.1 217.7 38.9 213.7 38.9 213.7 24.2"/>
  <path class="st0" d="M238.5,1.7h15c4.3,0,7.7,1.4,9.9,3.7,1.7,1.8,2.7,4.4,2.7,7.3h0c0,6.3-4,9.9-9.5,11l10.7,15.2h-4.8l-10.1-14.5h-10v14.5h-3.9V1.7ZM253.1,20.7c5.2,0,9-2.9,9-7.7h0c0-4.7-3.3-7.4-8.9-7.4h-10.8v15.1h10.7Z"/>
  <polygon class="st0" points="274.5 1.7 299.7 1.7 299.7 5.5 278.5 5.5 278.5 18.2 297.5 18.2 297.5 22 278.5 22 278.5 35.1 300 35.1 300 38.9 274.5 38.9 274.5 1.7"/>
  <path class="st1" d="M135.1,33.5l2.5-3.1c3.7,3.5,7.2,5.3,12,5.3s7.8-2.7,7.8-6.4h0c0-3.6-1.8-5.6-9.1-7.2-8.1-1.9-11.8-4.6-11.8-10.8h0c0-6,4.9-10.3,11.5-10.3s8.8,1.5,12.3,4.6l-2.3,3.3c-3.3-2.8-6.5-4.1-10.1-4.1s-7.5,2.7-7.5,6h0c0,3.6,1.8,5.6,9.5,7.4,7.8,1.8,11.4,4.9,11.4,10.6h0c0,6.5-5,10.7-12,10.7s-10.1-2-14.3-6"/>
</svg>