<?xml version="1.0" encoding="UTF-8"?>
<svg id="Calque_1" xmlns="http://www.w3.org/2000/svg" version="1.1" viewBox="0 0 220 60">
  <!-- Generator: Adobe Illustrator 29.3.1, SVG Export Plug-In . SVG Version: 2.1.0 Build 151)  -->
  <defs>
    <style>
      .st0 {
        fill: #fff;
      }

      .st1 {
        fill: #00bff0;
      }
    </style>
  </defs>
  <rect class="st0" x="7.7" y="20.4" width="2.5" height="23.9"/>
  <polygon class="st0" points="16.8 20.4 19.2 20.4 33.3 39.5 33.3 20.4 35.7 20.4 35.7 44.3 33.7 44.3 19.3 24.7 19.3 44.3 16.8 44.3 16.8 20.4"/>
  <polygon class="st0" points="42 20.4 44.4 20.4 58.5 39.5 58.5 20.4 61 20.4 61 44.3 58.9 44.3 44.5 24.7 44.5 44.3 42 44.3 42 20.4"/>
  <path class="st0" d="M66.3,32.4h0c0-6.6,4.6-12.4,11.4-12.4s11.4,5.7,11.4,12.3h0c0,6.6-4.6,12.4-11.4,12.4s-11.4-5.7-11.4-12.3M86.5,32.4h0c0-5.5-3.7-9.9-8.8-9.9s-8.8,4.4-8.8,9.8h0c0,5.5,3.7,9.9,8.8,9.9s8.8-4.4,8.8-9.8"/>
  <polygon class="st0" points="122.9 23.2 115.4 23.2 115.4 20.7 133 20.7 133 23.2 125.4 23.2 125.4 44.6 122.9 44.6 122.9 23.2"/>
  <polygon class="st0" points="144.7 35.2 135.4 20.7 138.4 20.7 146 32.7 153.6 20.7 156.5 20.7 147.2 35.1 147.2 44.6 144.7 44.6 144.7 35.2"/>
  <path class="st0" d="M160.6,20.7h9.6c2.7,0,5,.9,6.4,2.4,1.1,1.2,1.7,2.8,1.7,4.7h0c0,4-2.6,6.3-6.1,7l6.9,9.8h-3.1l-6.5-9.3h-6.4v9.3h-2.5v-23.9h0ZM170,32.9c3.4,0,5.8-1.8,5.8-4.9h0c0-3-2.1-4.8-5.7-4.8h-6.9v9.7h6.9-.1Z"/>
  <polygon class="st0" points="183.7 20.7 199.8 20.7 199.8 23.2 186.2 23.2 186.2 31.4 198.4 31.4 198.4 33.8 186.2 33.8 186.2 42.2 200 42.2 200 44.6 183.7 44.6 183.7 20.7"/>
  <path class="st1" d="M94.3,41.2l1.6-2c2.3,2.3,4.6,3.4,7.7,3.4s5-1.7,5-4.1h0c0-2.3-1.1-3.6-5.8-4.6-5.2-1.2-7.5-3-7.5-6.9h0c0-3.8,3.1-6.6,7.4-6.6s5.6,1,7.9,2.9l-1.5,2.1c-2.1-1.8-4.2-2.6-6.5-2.6s-4.8,1.7-4.8,3.9h0c0,2.3,1.2,3.6,6.1,4.7,5,1.2,7.3,3.1,7.3,6.8h0c0,4.2-3.2,6.8-7.7,6.8s-6.5-1.3-9.2-3.8"/>
</svg>