<svg xmlns="http://www.w3.org/2000/svg" style="display:none;">
    <symbol id="link-cart-add" viewBox="0 0 37 37">
        <path d="M18.5,1.5c-9.4,0-17,7.6-17,17s7.6,17,17,17s17-7.6,17-17S27.9,1.5,18.5,1.5z M27.2,19.5h-7.8v7.8h-2v-7.8H9.8v-2h7.8V9.8h2v7.8h7.8v1.9H27.2z"/>
    </symbol>
    <symbol id="link-cart-remove" viewBox="0 0 37 37">
        <path d="M18.5,1.5c-9.4,0-17,7.6-17,17s7.6,17,17,17s17-7.6,17-17S27.9,1.5,18.5,1.5z M27.2,19.5H9.8v-2h17.5L27.2,19.5L27.2,19.5z"/>
    </symbol>
    <symbol id="link-cart-add-hover" viewBox="0 0 37 37">
        <path d="M18.5,1C8.9,1,1,8.9,1,18.5S8.9,36,18.5,36S36,28.1,36,18.5S28.1,1,18.5,1z M18.5,35C9.4,35,2,27.6,2,18.5S9.4,2,18.5,2S35,9.4,35,18.5S27.6,35,18.5,35z"/>
        <polygon points="19.5,9.8 17.5,9.8 17.5,17.5 9.8,17.5 9.8,19.5 17.5,19.5 17.5,27.2 19.5,27.2 19.5,19.5 27.3,19.5 27.3,17.5 19.5,17.5 "/>
    </symbol>
    <symbol id="link-cart-remove-hover" viewBox="0 0 37 37">
        <path d="M18.5,1C8.9,1,1,8.9,1,18.5S8.9,36,18.5,36S36,28.1,36,18.5S28.1,1,18.5,1z M18.5,35C9.4,35,2,27.6,2,18.5S9.4,2,18.5,2S35,9.4,35,18.5S27.6,35,18.5,35z"/>
        <rect x="9.7" y="17.5" width="17.5" height="2"/>
    </symbol>
    <symbol id="link-cart-info" viewBox="0 0 22 22">
        <path d="M11,2.4c4.7,0,8.6,3.8,8.6,8.6s-3.9,8.6-8.6,8.6S2.4,15.7,2.4,11S6.3,2.4,11,2.4 M11,1C5.5,1,1,5.5,1,11s4.5,10,10,10s10-4.5,10-10S16.5,1,11,1L11,1z"/>
        <path d="M10.3,6.7C10.1,6.5,10,6.2,10,6s0.1-0.5,0.3-0.7S10.7,5,11,5s0.5,0.1,0.7,0.3C11.9,5.5,12,5.7,12,6s-0.1,0.5-0.3,0.7S11.3,7,11,7S10.5,6.9,10.3,6.7z M10.2,8.6h1.5v8.3h-1.5V8.6z"/>
    </symbol>
</svg>
