<svg xmlns="http://www.w3.org/2000/svg" style="display:none;">
    <symbol id="grandvision-add" viewBox="0 0 24 24">
        <g transform="matrix(1.0416666666666667,0,0,1.0416666666666667,0,0)">
            <path d="M11.52,20.84c-5.14,0-9.32-4.18-9.32-9.32S6.38,2.2,11.52,2.2c5.14,0,9.32,4.18,9.32,9.32S16.66,20.84,11.52,20.84z
		 M11.52,3.55c-4.39,0-7.97,3.58-7.97,7.97s3.57,7.97,7.97,7.97c4.39,0,7.97-3.58,7.97-7.97S15.91,3.55,11.52,3.55z"/>
            <path d="M11.52,16.52c-0.37,0-0.68-0.3-0.68-0.68V7.2c0-0.37,0.3-0.68,0.68-0.68s0.68,0.3,0.68,0.68v8.65
		C12.2,16.22,11.89,16.52,11.52,16.52z"/>
            <path d="M15.84,12.2H7.2c-0.37,0-0.68-0.3-0.68-0.68c0-0.37,0.3-0.68,0.68-0.68h8.65c0.37,0,0.68,0.3,0.68,0.68
		C16.52,11.89,16.22,12.2,15.84,12.2z"/>
        </g>
    </symbol>
    <symbol id="grandvision-delete" viewBox="0 0 22 24">
        <g transform="matrix(1.0416666666666667,0,0,1.0416666666666667,0,0)">
            <path d="M16.7,22.34H4.42c-0.92,0-1.68-0.75-1.68-1.68V4.38c0-0.37,0.3-0.68,0.68-0.68S4.1,4.01,4.1,4.38v16.28
		c0,0.18,0.14,0.32,0.32,0.32H16.7c0.18,0,0.32-0.14,0.32-0.32V4.38c0-0.37,0.3-0.68,0.68-0.68s0.68,0.3,0.68,0.68v16.28
		C18.38,21.58,17.62,22.34,16.7,22.34z"/>
            <path d="M15.06,5.06c-0.37,0-0.68-0.3-0.68-0.68v-2c0-0.18-0.14-0.32-0.32-0.32h-7c-0.18,0-0.32,0.14-0.32,0.32v2
		c0,0.37-0.3,0.68-0.68,0.68s-0.68-0.3-0.68-0.68v-2c0-0.92,0.75-1.68,1.68-1.68h7c0.92,0,1.68,0.75,1.68,1.68v2
		C15.74,4.75,15.43,5.06,15.06,5.06z"/>
            <path d="M19.34,5.06H1.78c-0.37,0-0.68-0.3-0.68-0.68c0-0.37,0.3-0.68,0.68-0.68h17.56c0.37,0,0.68,0.3,0.68,0.68
		C20.02,4.75,19.71,5.06,19.34,5.06z"/>
            <path d="M7.42,17.84c-0.37,0-0.68-0.3-0.68-0.68V7.88c0-0.37,0.3-0.68,0.68-0.68c0.37,0,0.68,0.3,0.68,0.68v9.28
		C8.1,17.53,7.79,17.84,7.42,17.84z"/>
            <path d="M10.56,17.84c-0.37,0-0.68-0.3-0.68-0.68V7.88c0-0.37,0.3-0.68,0.68-0.68s0.68,0.3,0.68,0.68v9.28
		C11.24,17.53,10.93,17.84,10.56,17.84z"/>
            <path d="M13.7,17.84c-0.37,0-0.68-0.3-0.68-0.68V7.88c0-0.37,0.3-0.68,0.68-0.68s0.68,0.3,0.68,0.68v9.28
		C14.38,17.53,14.07,17.84,13.7,17.84z"/>
        </g>
    </symbol>
    <symbol id="grandvision-export" viewBox="0 0 24 24">
        <g transform="matrix(1.0416666666666667,0,0,1.0416666666666667,0,0)">
            <path d="M16.3,15.2c-0.15,0-0.29-0.06-0.4-0.18c-0.2-0.22-0.18-0.56,0.04-0.75l3.09-2.75l-3.09-2.75c-0.22-0.2-0.24-0.53-0.04-0.75
		c0.19-0.22,0.53-0.24,0.75-0.04l3.54,3.15c0.11,0.1,0.18,0.25,0.18,0.4s-0.07,0.3-0.18,0.4l-3.54,3.15
		C16.55,15.16,16.42,15.2,16.3,15.2z"/>
            <path d="M19.84,12.05H10c-0.29,0-0.53-0.24-0.53-0.53c0-0.29,0.24-0.53,0.53-0.53h9.84c0.29,0,0.53,0.24,0.53,0.53
		C20.37,11.81,20.13,12.05,19.84,12.05z"/>
        </g>
        <path d="M16.19,22H4.25c-0.81,0-1.47-0.67-1.47-1.5v-17C2.78,2.67,3.44,2,4.25,2h11.94c0.81,0,1.47,0.67,1.47,1.5v2.48
	c0,0.31-0.25,0.55-0.55,0.55s-0.55-0.25-0.55-0.55V3.5c0-0.21-0.17-0.39-0.36-0.39H4.25c-0.2,0-0.36,0.18-0.36,0.39v17
	c0,0.21,0.17,0.39,0.36,0.39h11.94c0.2,0,0.36-0.18,0.36-0.39v-2.36c0-0.31,0.25-0.55,0.55-0.55s0.55,0.25,0.55,0.55v2.36
	C17.66,21.33,17,22,16.19,22z"/>
    </symbol>
    <symbol id="grandvision-rename" viewBox="0 0 24 24">
        <g transform="matrix(1.0416666666666667,0,0,1.0416666666666667,0,0)">
            <path d="M9.67,22.7c-0.18,0-0.35-0.07-0.48-0.2C9.03,22.34,8.96,22.11,9,21.89l0.75-3.75c0.03-0.13,0.09-0.25,0.19-0.35l7.63-7.63
		c1.09-1.09,2.86-1.09,3.95,0c1.07,1.08,1.07,2.85,0.02,3.95c0,0-0.01,0.01-0.01,0.01l-7.63,7.63c-0.09,0.09-0.21,0.16-0.35,0.19
		L9.8,22.68C9.76,22.69,9.71,22.7,9.67,22.7z M11.04,18.6l-0.51,2.55l2.55-0.51l7.48-7.48c0.54-0.58,0.55-1.49,0-2.04
		c-0.57-0.57-1.48-0.57-2.04-0.01L11.04,18.6z M21.05,13.64L21.05,13.64L21.05,13.64z"/>
            <path d="M7.67,20.7H2.39c-0.92,0-1.68-0.75-1.68-1.68v-17c0-0.92,0.75-1.68,1.68-1.68H10c0.37,0,0.68,0.3,0.68,0.68
		S10.37,1.7,10,1.7H2.39c-0.18,0-0.32,0.14-0.32,0.32v17c0,0.18,0.14,0.32,0.32,0.32h5.28c0.37,0,0.68,0.3,0.68,0.68
		C8.34,20.39,8.04,20.7,7.67,20.7z"/>
            <path d="M15.67,9.2c-0.37,0-0.68-0.3-0.68-0.68v-6.5c0-0.18-0.14-0.32-0.32-0.32h-4.45c-0.37,0-0.68-0.3-0.68-0.68
		s0.3-0.68,0.68-0.68h4.45c0.92,0,1.68,0.75,1.68,1.68v6.5C16.34,8.89,16.04,9.2,15.67,9.2z"/>
        </g>
    </symbol>
    <symbol id="grandvision-adv" viewBox="0 0 294 294">
        <path d="M283.845,145.913c-1.985,0-4.016,0.536-6.03,1.593l-43.19,22.568c-0.496,0.26-0.625,0.558-1.625,0.874v-14.876
	c0-8.284-6.382-15-14.667-15h-9.305c13.976-13.341,22.71-32.129,22.71-52.93c0-40.37-32.843-73.214-73.213-73.214
	c-32.474,0-60.062,21.259-69.618,50.585c-8.518-7.548-19.71-12.145-31.959-12.145c-26.607,0-48.255,21.646-48.255,48.253
	c0,16.289,8.122,30.709,20.519,39.451H15.333c-8.284,0-15.333,6.716-15.333,15v108c0,8.284,7.049,15,15.333,15h203
	c8.284,0,14.667-6.716,14.667-15v-14.448c1,0.316,1.128,0.614,1.623,0.874l43.106,22.568c2.015,1.057,4.09,1.593,6.074,1.593
	c5.977,0,10.197-4.678,10.197-11.375V157.288C294,150.59,289.821,145.913,283.845,145.913z M158.525,44.928
	c23.828,0,43.213,19.386,43.213,43.214s-19.385,43.213-43.213,43.213c-23.828,0-43.214-19.385-43.214-43.213
	S134.697,44.928,158.525,44.928z M108.022,141.072H84.683c4.951-3.491,9.218-7.884,12.558-12.945
	C100.333,132.849,103.954,137.189,108.022,141.072z M151,239.072c0,5.523-4.477,10-10,10H46c-5.523,0-10-4.477-10-10v-58
	c0-5.523,4.477-10,10-10h95c5.523,0,10,4.477,10,10V239.072z M181.391,210.285c-9.602,0-17.386-7.784-17.386-17.385
	c0-9.602,7.784-17.386,17.386-17.386c9.602,0,17.386,7.784,17.386,17.386C198.776,202.501,190.993,210.285,181.391,210.285z"/>
    </symbol>
    <symbol id="grandvision-mandatory" viewBox="0 0 329.942 329.942">
        <path d="M329.208,126.666c-1.765-5.431-6.459-9.389-12.109-10.209l-95.822-13.922l-42.854-86.837
	c-2.527-5.12-7.742-8.362-13.451-8.362c-5.71,0-10.925,3.242-13.451,8.362l-42.851,86.836l-95.825,13.922
	c-5.65,0.821-10.345,4.779-12.109,10.209c-1.764,5.431-0.293,11.392,3.796,15.377l69.339,67.582L57.496,305.07
	c-0.965,5.628,1.348,11.315,5.967,14.671c2.613,1.899,5.708,2.865,8.818,2.865c2.387,0,4.784-0.569,6.979-1.723l85.711-45.059
	l85.71,45.059c2.208,1.161,4.626,1.714,7.021,1.723c8.275-0.012,14.979-6.723,14.979-15c0-1.152-0.13-2.275-0.376-3.352
	l-16.233-94.629l69.339-67.583C329.501,138.057,330.972,132.096,329.208,126.666z"/>
    </symbol>
</svg>