<svg xmlns="http://www.w3.org/2000/svg" xmlns:xlink="http://www.w3.org/1999/xlink" style="display:none;">
    <symbol id="interface-loader" viewBox="0 0 48 48">
        <circle cx="24" cy="24" r="23"></circle>
        <circle class="animate" cx="24" cy="24" fill="none" stroke="currentColor" stroke-width="3" r="16"
                stroke-dasharray="80 80"
                transform="rotate(0 24 24)">
        </circle>
    </symbol>
    <symbol id="interface-chevron" viewBox="0 0 512 512">
        <path d="m342 179l-175-174-62 62 178 177-178 198 62 65 240-266z"/>
    </symbol>
    <symbol id="interface-close" viewBox="0 0 512 512">
        <path d="m512 63l-66-63-190 193-193-193-63 63 193 193-193 190 63 66 193-193 190 193 66-66-193-190z"/>
    </symbol>
    <symbol id="interface-menu" viewBox="0 0 512 512">
        <path d="m0 26l512 0 0 51-512 0z m0 204l512 0 0 52-512 0z m0 205l512 0 0 51-512 0z"/>
    </symbol>
    <symbol id="interface-next" viewBox="0 0 20 36.1">
        <path d="M19.8,17.4L2.5,0.2c-0.3-0.3-0.7-0.3-0.9,0L0.2,1.6c-0.3,0.3-0.3,0.7,0,0.9L15.8,18L0.3,33.5c-0.3,0.3-0.3,0.7,0,0.9
	l1.4,1.4c0.3,0.3,0.7,0.3,0.9,0l17.2-17.3c0.1-0.1,0.2-0.3,0.2-0.5C20,17.8,19.9,17.6,19.8,17.4z"/>
    </symbol>
    <symbol id="interface-prev" viewBox="0 0 20 36.1">
        <path d="M0,18c0,0.2,0.1,0.4,0.2,0.5l17.2,17.3c0.2,0.3,0.6,0.3,0.9,0l1.4-1.4c0.3-0.2,0.3-0.6,0-0.9L4.2,18L19.8,2.5
	c0.3-0.2,0.3-0.6,0-0.9l-1.4-1.4c-0.2-0.3-0.6-0.3-0.9,0L0.2,17.4C0.1,17.6,0,17.8,0,18z"/>
    </symbol>
    <symbol id="interface-last" viewBox="0 0 13.2 15">
        <path d="M11.2,15h2V0h-2V15z M8,6.5C7.9,6.5,7.9,6.5,8,6.5L1.7,0.2C1.4-0.1,1-0.1,0.8,0.2L0.2,0.7c-0.3,0.3-0.3,0.7,0,0.9L6,7.4
	l-5.8,5.9c-0.3,0.3-0.3,0.7,0,0.9l0.5,0.5C1,15,1.4,15,1.6,14.7l6.2-6.2c0,0,0.1,0,0.1-0.1l0.5-0.5c0.1-0.1,0.2-0.3,0.2-0.5
	S8.5,7.1,8.4,6.9L8,6.5z"/>
    </symbol>
    <symbol id="interface-first" viewBox="0 0 13.2 15">
        <rect y="0" width="2" height="15"/>
        <path d="M4.8,6.9C4.7,7.1,4.6,7.2,4.6,7.4s0.1,0.4,0.2,0.5l0.5,0.5c0,0.1,0.1,0.1,0.1,0.1l6.2,6.2c0.2,0.3,0.6,0.3,0.9,0l0.5-0.5
	c0.3-0.2,0.3-0.6,0-0.9L7.2,7.4L13,1.6c0.3-0.2,0.3-0.6,0-0.9l-0.6-0.5c-0.2-0.3-0.6-0.3-0.9,0L5.2,6.5c0.1,0,0.1,0,0,0L4.8,6.9z"/>
    </symbol>
    <symbol id="interface-minus" viewBox="0 0 50 50">
        <rect x="16.5" y="23.5" width="17" height="2.9"/>
    </symbol>
    <symbol id="icon-site" viewBox="0 0 25 25">
        <path d="M18.5,20.6H10c-0.4,0-0.7,0.3-0.7,0.7S9.6,22,10,22h8.5c0.4,0,0.7-0.3,0.7-0.7S18.9,20.6,18.5,20.6z"/>
        <path d="M21.8,3H5.4c-1.2,0-2.2,1-2.2,2.2v7.1c0,0.4,0.3,0.7,0.7,0.7s0.7-0.3,0.7-0.7V5.1c0-0.4,0.3-0.8,0.8-0.8h16.4
		c0.4,0,0.8,0.3,0.8,0.8V15h-11c-0.4,0-0.7,0.3-0.7,0.7s0.3,0.7,0.7,0.7h11v0.8c0,0.4-0.3,0.8-0.8,0.8H10.6c-0.4,0-0.7,0.3-0.7,0.7
		s0.3,0.7,0.7,0.7h11.2c1.2,0,2.2-1,2.2-2.2V5.1C23.9,3.9,22.9,3,21.8,3z"/>
        <path d="M11.5,10.2c-0.2-0.2-0.5-0.2-0.8-0.1L1.4,15c-0.3,0.1-0.4,0.4-0.4,0.7s0.2,0.5,0.5,0.6l1.9,0.5l-1.7,2.1
		c-0.2,0.3-0.2,0.7,0.1,1l1.7,1.5c0.1,0.1,0.3,0.2,0.5,0.2c0,0,0,0,0,0c0.2,0,0.4-0.1,0.5-0.3l1.7-2.1L7.2,21
		c0.1,0.3,0.4,0.4,0.7,0.4c0.3,0,0.5-0.2,0.6-0.5l3.3-10C11.8,10.6,11.7,10.3,11.5,10.2z M7.7,18.8l-0.5-1.1
		c-0.1-0.2-0.3-0.4-0.5-0.4c-0.2,0-0.5,0.1-0.6,0.2l-2,2.4l-0.7-0.6l2-2.4c0.2-0.2,0.2-0.4,0.1-0.7C5.4,16,5.2,15.8,5,15.8l-1.3-0.4
		l6.2-3.3L7.7,18.8z"/>
    </symbol>
    <symbol id="icon-video" viewBox="0 0 25 25">
        <g transform="matrix(1.6666666666666667,0,0,1.6666666666666667,0,0)">
            <path d="M11.5,12h-8c-1.2,0-2.2-1-2.2-2.2V5.2C1.4,4,2.3,3,3.5,3h8c1.2,0,2.2,1,2.2,2.2v4.6C13.6,11,12.7,12,11.5,12z M3.5,3.9
		c-0.7,0-1.3,0.6-1.3,1.3v4.6c0,0.7,0.6,1.3,1.3,1.3h8c0.7,0,1.3-0.6,1.3-1.3V5.2c0-0.7-0.6-1.3-1.3-1.3H3.5z"/>
            <path d="M6.2,9.9c-0.1,0-0.1,0-0.2-0.1C5.9,9.8,5.8,9.7,5.8,9.5V5.1c0-0.2,0.1-0.3,0.2-0.4c0.1-0.1,0.3-0.1,0.4,0l3.4,2.2
		C10,7,10.1,7.2,10.1,7.3c0,0.1-0.1,0.3-0.2,0.4L6.5,9.9C6.4,9.9,6.3,9.9,6.2,9.9z M6.7,5.9v2.9l2.2-1.4L6.7,5.9z"/>
        </g>
    </symbol>
    <symbol id="icon-link" viewBox="0 0 25 25">
        <g>
            <path d="M7.9,17.1c0.1,0.1,0.3,0.2,0.5,0.2s0.4-0.1,0.5-0.2l8.2-8.2c0.3-0.3,0.3-0.7,0-1c-0.3-0.3-0.7-0.3-1,0l-8.2,8.2
		C7.6,16.4,7.6,16.8,7.9,17.1z"/>
            <path d="M12.4,15.1c-0.4,0-0.7,0.4-0.7,0.7c0,0.8-0.3,1.6-0.8,2.1l-1.8,1.8c-1.1,1.1-2.9,1.1-4,0c-1.1-1.1-1.1-2.9,0-4L7,14
		c0.6-0.6,1.3-0.9,2.1-0.8c0.4,0,0.7-0.3,0.7-0.7c0-0.4-0.3-0.7-0.7-0.7C8,11.7,6.8,12.2,6,13l-1.8,1.8c-1.7,1.7-1.7,4.3,0,6
		C5,21.6,6.1,22,7.2,22c1.1,0,2.2-0.4,3-1.2L12,19c0.8-0.8,1.3-2,1.2-3.2C13.2,15.4,12.8,15.1,12.4,15.1z"/>
            <path d="M20.8,4.2c-1.7-1.7-4.3-1.7-6,0L13,6c-0.8,0.9-1.3,2-1.2,3.2c0,0.4,0.3,0.7,0.7,0.7c0.4,0,0.7-0.4,0.7-0.7
		c0-0.8,0.3-1.6,0.8-2.1l1.8-1.8c1.1-1.1,2.9-1.1,4,0c1.1,1.1,1.1,2.9,0,4L18,11c-0.6,0.6-1.4,0.9-2.1,0.8c-0.4,0-0.7,0.3-0.7,0.7
		s0.3,0.7,0.7,0.7c0.1,0,0.2,0,0.2,0c1.1,0,2.2-0.4,3-1.2l1.8-1.8C22.4,8.5,22.4,5.9,20.8,4.2z"/>
        </g>
    </symbol>
    <symbol id="icon-pdf" viewBox="0 0 25 25">
        <path d="M15.5,12.2c0,0.4,0.3,0.7,0.7,0.7s0.7-0.3,0.7-0.7V9.4c0-0.5-0.2-1-0.6-1.3l-4.7-4.7c-0.4-0.4-0.8-0.6-1.3-0.6H3.8
		c-1,0-1.9,0.9-1.9,1.9v15.6c0,1,0.9,1.9,1.9,1.9h1.1c0.4,0,0.7-0.3,0.7-0.7s-0.3-0.7-0.7-0.7H3.8c-0.3,0-0.5-0.2-0.5-0.5V4.7
		c0-0.3,0.2-0.5,0.5-0.5h6.3v3.6c0,1,0.8,1.8,1.8,1.8h3.6V12.2z M11.5,7.8V5.2l3,3h-2.6C11.7,8.2,11.5,8,11.5,7.8z"/>
        <path d="M8.6,13.5h-1c-0.4,0-0.7,0.3-0.7,0.7v7.3c0,0.4,0.3,0.7,0.7,0.7s0.7-0.3,0.7-0.7v-2.2h0.3c1.6,0,2.9-1.3,2.9-2.9
		S10.2,13.5,8.6,13.5z M8.6,17.9H8.2v-3h0.3c0.8,0,1.5,0.7,1.5,1.5S9.4,17.9,8.6,17.9z"/>
        <path d="M13.5,13.5c-0.4,0-0.7,0.3-0.7,0.7v7.3c0,0.4,0.3,0.7,0.7,0.7c2,0,3.7-1.6,3.7-3.6v-1.5C17.2,15.1,15.5,13.5,13.5,13.5z
		 M15.8,18.6c0,1-0.7,1.8-1.6,2.1V15c0.9,0.3,1.6,1.1,1.6,2.1V18.6z"/>
        <path d="M20.9,14.9h1.5c0.4,0,0.7-0.3,0.7-0.7s-0.3-0.7-0.7-0.7h-1.5c-1.2,0-2.2,1-2.2,2.2v5.9c0,0.4,0.3,0.7,0.7,0.7
		s0.7-0.3,0.7-0.7V19h1.7c0.4,0,0.7-0.3,0.7-0.7s-0.3-0.7-0.7-0.7h-1.7v-1.9C20.1,15.2,20.5,14.9,20.9,14.9z"/>
    </symbol>
    <symbol id="icon-qr" viewBox="0 0 25 25">
        <path d="M4.2,14.9h1.1c0.4,0,0.7-0.3,0.7-0.7s-0.3-0.7-0.7-0.7H5V13c0-0.4-0.3-0.7-0.7-0.7S3.5,12.7,3.5,13v1.1C3.5,14.5,3.9,14.9,4.2,14.9z"/>
        <path d="M8.6,3.5H4.2c-0.4,0-0.7,0.3-0.7,0.7v4.4c0,0.4,0.3,0.7,0.7,0.7h4.4C9,9.4,9.4,9,9.4,8.6V4.2C9.4,3.9,9,3.5,8.6,3.5zM7.9,7.9H5V5h3V7.9z"/>
        <path d="M20.8,3.5h-4.4c-0.4,0-0.7,0.3-0.7,0.7v4.4c0,0.4,0.3,0.7,0.7,0.7h4.4c0.4,0,0.7-0.3,0.7-0.7V4.2C21.5,3.9,21.1,3.5,20.8,3.5z M20,7.9h-3V5h3V7.9z"/>
        <path d="M8.6,15.6H4.2c-0.4,0-0.7,0.3-0.7,0.7v4.4c0,0.4,0.3,0.7,0.7,0.7h4.4c0.4,0,0.7-0.3,0.7-0.7v-4.4C9.4,16,9,15.6,8.6,15.6zM7.9,20H5v-3h3V20z"/>
        <path d="M12.5,5h1.7c0.4,0,0.7-0.3,0.7-0.7s-0.3-0.7-0.7-0.7h-1.7c-0.4,0-0.7,0.3-0.7,0.7S12.1,5,12.5,5z"/>
        <path d="M10.8,7.2c0.4,0,0.7-0.3,0.7-0.7V5.2c0-0.4-0.3-0.7-0.7-0.7s-0.7,0.3-0.7,0.7v1.2C10.1,6.8,10.5,7.2,10.8,7.2z"/>
        <path d="M10.8,9.4h3.3c0.4,0,0.7-0.3,0.7-0.7V7.4c0-0.4-0.3-0.7-0.7-0.7s-0.7,0.3-0.7,0.7v0.5h-2.6c-0.4,0-0.7,0.3-0.7,0.7S10.5,9.4,10.8,9.4z"/>
        <path d="M8.6,10.1H4.2c-0.4,0-0.7,0.3-0.7,0.7s0.3,0.7,0.7,0.7h3.7v0.4c0,0.4,0.3,0.7,0.7,0.7s0.7-0.3,0.7-0.7v-1.1C9.4,10.5,9,10.1,8.6,10.1z"/>
        <path d="M8.6,13.4H8.5c-0.4,0-0.7,0.3-0.7,0.7s0.3,0.7,0.7,0.7h0.1c0.4,0,0.7-0.3,0.7-0.7S9,13.4,8.6,13.4z"/>
        <path d="M20.8,15.6h-2.2c-0.4,0-0.7,0.3-0.7,0.7s0.3,0.7,0.7,0.7H20v0.8h-1.5c-0.4,0-0.7,0.3-0.7,0.7v2.2c0,0.4,0.3,0.7,0.7,0.7h2.2c0.4,0,0.7-0.3,0.7-0.7S21.1,20,20.8,20h-1.5v-0.8h1.5c0.4,0,0.7-0.3,0.7-0.7v-2.2C21.5,16,21.1,15.6,20.8,15.6z"/>
        <path d="M14.2,20h-2.6v-3.7c0-0.4-0.3-0.7-0.7-0.7s-0.7,0.3-0.7,0.7v4.4c0,0.4,0.3,0.7,0.7,0.7h3.3c0.4,0,0.7-0.3,0.7-0.7S14.5,20,14.2,20z"/>
        <path d="M16.4,15.6c-0.4,0-0.7,0.3-0.7,0.7v4.4c0,0.4,0.3,0.7,0.7,0.7s0.7-0.3,0.7-0.7v-4.4C17.1,16,16.7,15.6,16.4,15.6z"/>
        <path d="M14.2,15.6H13c-0.4,0-0.7,0.3-0.7,0.7s0.3,0.7,0.7,0.7h0.4v1.5c0,0.4,0.3,0.7,0.7,0.7s0.7-0.3,0.7-0.7v-2.2C14.9,16,14.5,15.6,14.2,15.6z"/>
        <path d="M10.8,14.9h1.1c0.4,0,0.7-0.3,0.7-0.7s-0.3-0.7-0.7-0.7h-1.1c-0.4,0-0.7,0.3-0.7,0.7S10.5,14.9,10.8,14.9z"/>
        <path d="M16,14.2v-2.2c0-0.4-0.3-0.7-0.7-0.7s-0.7,0.3-0.7,0.7v2.2c0,0.4,0.3,0.7,0.7,0.7S16,14.5,16,14.2z"/>
        <path d="M10.8,11.6h1.5v0.4c0,0.4,0.3,0.7,0.7,0.7c0.4,0,0.7-0.3,0.7-0.7v-1.1c0-0.4-0.3-0.7-0.7-0.7h-2.2c-0.4,0-0.7,0.3-0.7,0.7S10.5,11.6,10.8,11.6z"/>
        <path d="M20.8,10.1c-0.4,0-0.7,0.3-0.7,0.7v0.1c0,0.4,0.3,0.7,0.7,0.7s0.7-0.3,0.7-0.7v-0.1C21.5,10.5,21.1,10.1,20.8,10.1z"/>
        <path d="M20.8,12.9c-0.4,0-0.7,0.3-0.7,0.7v0.6c0,0.4,0.3,0.7,0.7,0.7s0.7-0.3,0.7-0.7v-0.6C21.5,13.2,21.1,12.9,20.8,12.9z"/>
        <path d="M18.6,14.9c0.4,0,0.7-0.3,0.7-0.7v-3.2c0-0.4-0.3-0.7-0.7-0.7s-0.7,0.3-0.7,0.7v3.2C17.8,14.5,18.2,14.9,18.6,14.9z"/>
    </symbol>
    <symbol id="icon-code" viewBox="0 0 25 25">
        <path d="M8.3,6.8c-0.3-0.3-0.7-0.3-1,0L2,12c-0.1,0.1-0.2,0.3-0.2,0.5S1.9,12.9,2,13l5.3,5.2c0.1,0.1,0.3,0.2,0.5,0.2c0.2,0,0.4-0.1,0.5-0.2c0.3-0.3,0.3-0.7,0-1l-4.8-4.7l4.8-4.7C8.6,7.5,8.6,7.1,8.3,6.8z"/>
        <path d="M23,12l-5.3-5.2c-0.3-0.3-0.7-0.3-1,0c-0.3,0.3-0.3,0.7,0,1l4.8,4.7l-4.8,4.7c-0.3,0.3-0.3,0.7,0,1c0.1,0.1,0.3,0.2,0.5,0.2c0.2,0,0.4-0.1,0.5-0.2L23,13c0.1-0.1,0.2-0.3,0.2-0.5S23.1,12.1,23,12z"/>
        <path d="M14.6,3.2c-0.4-0.1-0.8,0.2-0.8,0.5L9.9,21c-0.1,0.4,0.2,0.8,0.5,0.8c0.1,0,0.1,0,0.2,0c0.3,0,0.6-0.2,0.7-0.6L15.1,4C15.2,3.6,15,3.3,14.6,3.2z"/>
    </symbol>
    <symbol id="interface-next-simple" viewBox="0 0 12 22">
        <path d="M11.89,10.71L1.49,0.12c-0.15-0.15-0.4-0.15-0.55,0L0.13,0.95c-0.15,0.15-0.15,0.4,0,0.56l9.34,9.52
		l-9.35,9.54c-0.15,0.15-0.15,0.4,0,0.56l0.82,0.84c0.15,0.15,0.4,0.15,0.55,0l10.39-10.6c0.08-0.09,0.11-0.2,0.1-0.31
		C12,10.93,11.98,10.81,11.89,10.71z"/>
    </symbol>
    <symbol id="interface-previous-simple" viewBox="0 0 12 22">
        <path d="M2.53,11.05l9.35-9.54c0.15-0.15,0.15-0.4,0-0.56l-0.82-0.84c-0.15-0.15-0.4-0.15-0.55,0L0.13,10.71
		c-0.08,0.09-0.11,0.2-0.1,0.31C0,11.15,0.02,11.27,0.11,11.37l10.39,10.6c0.15,0.15,0.4,0.15,0.55,0l0.82-0.84
		c0.15-0.15,0.15-0.4,0-0.56L2.53,11.05z"/>
    </symbol>
    <symbol id="interface-plus" viewBox="0 0 50 50">
        <polygon
                points="33.5,23.5 26.5,23.5 26.5,16.5 23.5,16.5 23.5,23.5 16.5,23.5 16.5,26.5 23.5,26.5 23.5,33.5 26.5,33.5 26.5,26.5 33.5,26.5 "/>
    </symbol>
    <symbol id="notes-hide" viewBox="0 0 25 25">
        <path d="M12.5,18c-3.7,0-7.1-1.8-9.2-4.8c-0.2-0.2-0.2-0.6,0-0.8c2.1-3,5.6-4.8,9.2-4.8s7.1,1.8,9.2,4.8
	c0.2,0.2,0.2,0.6,0,0.8C19.6,16.2,16.2,18,12.5,18z M4.7,12.7c1.9,2.4,4.8,3.8,7.8,3.8s5.9-1.4,7.8-3.8C18.4,10.4,15.5,9,12.5,9
	S6.6,10.4,4.7,12.7z"/>
        <path d="M6.7,19c-0.2,0-0.4-0.1-0.5-0.2c-0.3-0.3-0.3-0.7,0-1L17.9,6.2c0.3-0.3,0.7-0.3,1,0c0.3,0.3,0.3,0.7,0,1
	L7.2,18.8C7,19,6.9,19,6.7,19z"/>
    </symbol>
    <symbol id="notes-add" viewBox="0 0 25 25">
        <path d="M12.5,24.2C6,24.2,0.8,19,0.8,12.5S6,0.8,12.5,0.8S24.2,6,24.2,12.5S19,24.2,12.5,24.2z M12.5,2.2
	C6.8,2.2,2.2,6.8,2.2,12.5s4.6,10.3,10.3,10.3s10.3-4.6,10.3-10.3S18.2,2.2,12.5,2.2z"/>
        <path d="M12.5,17.6c-0.4,0-0.7-0.3-0.7-0.7V8.1c0-0.4,0.3-0.7,0.7-0.7s0.7,0.3,0.7,0.7v8.8
	C13.2,17.3,12.9,17.6,12.5,17.6z"/>
        <path d="M16.9,13.2H8.1c-0.4,0-0.7-0.3-0.7-0.7s0.3-0.7,0.7-0.7h8.8c0.4,0,0.7,0.3,0.7,0.7S17.3,13.2,16.9,13.2z"/>
    </symbol>
    <symbol id="notes-overview" viewBox="0 0 25 25">
        <path d="M10.3,11.1H2.4c-0.5,0-0.9-0.4-0.9-0.9V2.4c0-0.5,0.4-0.9,0.9-0.9h7.9c0.5,0,0.9,0.4,0.9,0.9v7.7
	C11.3,10.7,10.8,11.1,10.3,11.1z M3.4,9.2h6V3.4h-6V9.2z"/>
        <path d="M22.6,11.1h-7.9c-0.5,0-0.9-0.4-0.9-0.9V2.4c0-0.5,0.4-0.9,0.9-0.9h7.9c0.5,0,0.9,0.4,0.9,0.9v7.7
	C23.5,10.7,23.1,11.1,22.6,11.1z M15.6,9.2h6V3.4h-6V9.2z"/>
        <path d="M10.3,23.5H2.4c-0.5,0-0.9-0.4-0.9-0.9v-7.7c0-0.5,0.4-0.9,0.9-0.9h7.9c0.5,0,0.9,0.4,0.9,0.9v7.7
	C11.3,23.1,10.8,23.5,10.3,23.5z M3.4,21.6h6v-5.9h-6V21.6z"/>
        <path d="M22.6,23.5h-7.9c-0.5,0-0.9-0.4-0.9-0.9v-7.7c0-0.5,0.4-0.9,0.9-0.9h7.9c0.5,0,0.9,0.4,0.9,0.9v7.7
	C23.5,23.1,23.1,23.5,22.6,23.5z M15.6,21.6h6v-5.9h-6V21.6z"/>
    </symbol>
    <symbol id="icon-eye" viewBox="0 0 23 23">
        <path d="M19.2,10.4c-1.8-1.9-4.7-4-7.6-4c-0.1,0-0.1,0-0.2,0c-2.9,0-5.8,2-7.6,4c-0.6,0.6-0.6,1.6,0,2.2c1.8,1.9,4.7,4,7.6,4
		c0.1,0,0.1,0,0.2,0c2.9,0,5.8-2,7.6-4C19.7,12,19.7,11,19.2,10.4z M18.4,11.9c-1.6,1.8-4.3,3.7-6.9,3.7h-0.1
		c-2.6,0-5.3-1.9-6.9-3.7c-0.2-0.2-0.2-0.6,0-0.8c1.6-1.8,4.3-3.7,6.9-3.7h0.1l0,0c2.6,0,5.3,1.9,7,3.7
		C18.7,11.3,18.7,11.7,18.4,11.9z"/>
        <path d="M11.5,8.4L11.5,8.4c-1.7,0-3,1.4-3,3c0,1.7,1.4,3,3,3c1.7,0,3-1.4,3-3l0,0C14.5,9.8,13.2,8.4,11.5,8.4z M11.5,13.5
		c-1.1,0-2-0.9-2-2s0.9-2,2-2l0,0c1.1,0,2,0.9,2,2S12.6,13.5,11.5,13.5z"/>
    </symbol>
    <symbol id="notes-handler" viewBox="0 0 11 11">
        <circle cx="10.1" cy="0.9" r="0.9"/>
        <circle cx="0.9" cy="10.1" r="0.9"/>
        <circle cx="4" cy="10.1" r="0.9"/>
        <circle cx="4" cy="7" r="0.9"/>
        <circle cx="7" cy="10.1" r="0.9"/>
        <circle cx="7" cy="7" r="0.9"/>
        <circle cx="7" cy="4" r="0.9"/>
        <circle cx="10.1" cy="10.1" r="0.9"/>
        <circle cx="10.1" cy="7" r="0.9"/>
        <circle cx="10.1" cy="4" r="0.9"/>
    </symbol>
    <symbol id="notes-unhide" viewBox="0 0 25 25">
        <path d="M12.5,18.6c-4.3,0-8.4-2.1-10.8-5.6c-0.2-0.3-0.2-0.7,0-1c2.5-3.5,6.5-5.6,10.8-5.6s8.4,2.1,10.8,5.6
	c0.2,0.3,0.2,0.7,0,1C20.9,16.5,16.8,18.6,12.5,18.6z M3.4,12.5c2.2,2.8,5.6,4.5,9.1,4.5s6.9-1.7,9.1-4.5C19.4,9.7,16.1,8,12.5,8
	S5.6,9.7,3.4,12.5z"/>
        <path d="M12.5,16.2c-2,0-3.7-1.6-3.7-3.7s1.6-3.7,3.7-3.7s3.7,1.6,3.7,3.7S14.5,16.2,12.5,16.2z M12.5,10.3
	c-1.2,0-2.2,1-2.2,2.2s1,2.2,2.2,2.2s2.2-1,2.2-2.2S13.7,10.3,12.5,10.3z"/>
    </symbol>
    <symbol id="bookmark-corner" viewBox="0 0 50 50">
        <path fill="currentColor" stroke="currentColor" d="M20.4,29.512c-0.213,0.21-0.488,0.356-0.799,0.407c-0.629,0.102-1.251-0.213-1.542-0.779l-3.212-6.252
	l-7.155,1.092c-0.629,0.096-1.249-0.225-1.535-0.793s-0.174-1.256,0.277-1.704l5.094-5.055l-3.17-6.178
	C8.067,9.682,8.182,8.997,8.635,8.547c0.002-0.002,0.003-0.003,0.005-0.005c0.451-0.447,1.131-0.563,1.697-0.272l6.236,3.161
	l5.052-5.02c0,0,0,0,0,0c0.524-0.446,1.112-0.53,1.678-0.242c0.565,0.288,0.871,0.919,0.773,1.546l-1.094,7.029l6.313,3.243
	c0.567,0.291,0.88,0.916,0.778,1.545c-0.102,0.63-0.6,1.122-1.23,1.219l-6.959,1.063l-1.065,6.879
	C20.77,29.011,20.619,29.296,20.4,29.512z"/>
        <path fill="$bookmark-color" d="M49.292,24.43L25.636,0.71C25.182,0.255,24.566,0,23.925,0H2.406C1.069,0,0,1.086,0,2.426v21.038
	c0,0.641,0.246,1.256,0.697,1.711l23.915,24.11C25.075,49.752,25.694,50,26.325,50c0.312,0,0.624-0.061,0.922-0.184
	c0.906-0.374,1.497-1.045,1.497-2.026L28.75,29h18.831c0.979,0,1.86-0.805,2.234-1.711C50.19,26.382,49.983,25.124,49.292,24.43z
	 M30.074,19.532c-0.102,0.63-0.6,1.122-1.23,1.219l-6.959,1.063l-1.065,6.879c-0.05,0.318-0.2,0.604-0.419,0.819
	c-0.213,0.21-0.488,0.356-0.799,0.407c-0.629,0.102-1.251-0.213-1.542-0.779l-3.212-6.252l-7.155,1.092
	c-0.629,0.096-1.249-0.225-1.535-0.793s-0.174-1.256,0.277-1.704l5.094-5.055l-3.17-6.178C8.067,9.682,8.182,8.997,8.635,8.547
	c0.002-0.002,0.003-0.003,0.005-0.005c0.451-0.447,1.131-0.563,1.697-0.272l6.236,3.161l5.052-5.02c0,0,0,0,0,0
	c0.524-0.446,1.112-0.53,1.678-0.242c0.565,0.288,0.871,0.919,0.773,1.546l-1.094,7.029l6.313,3.243
	C29.863,18.278,30.176,18.903,30.074,19.532z"/>
    </symbol>
    <symbol id="icon-article" viewBox="0 0 25 25">
        <path d="M19.2,11.7H5.8c-0.4,0-0.7-0.3-0.7-0.7V6.1c0-0.4,0.3-0.7,0.7-0.7h13.3c0.4,0,0.7,0.3,0.7,0.7V11
			C19.9,11.4,19.6,11.7,19.2,11.7z M6.5,10.3h11.9V6.8H6.5V10.3z"/>
        <path d="M19.2,14.6H5.8c-0.4,0-0.7-0.3-0.7-0.7s0.3-0.7,0.7-0.7h13.3c0.4,0,0.7,0.3,0.7,0.7S19.6,14.6,19.2,14.6z"/>
        <path d="M19.2,17.2H5.8c-0.4,0-0.7-0.3-0.7-0.7s0.3-0.7,0.7-0.7h13.3c0.4,0,0.7,0.3,0.7,0.7S19.6,17.2,19.2,17.2z"/>
        <path d="M13.1,19.7H5.8c-0.4,0-0.7-0.3-0.7-0.7s0.3-0.7,0.7-0.7h7.2c0.4,0,0.7,0.3,0.7,0.7S13.5,19.7,13.1,19.7z"/>
        <path d="M21.1,22.6H3.9c-0.9,0-1.6-0.7-1.6-1.6V4.1c0-0.9,0.7-1.6,1.6-1.6h17.2c0.9,0,1.6,0.7,1.6,1.6v16.9
		C22.7,21.8,22,22.6,21.1,22.6z M3.9,3.9c-0.1,0-0.2,0.1-0.2,0.2v16.9c0,0.1,0.1,0.2,0.2,0.2h17.2c0.1,0,0.2-0.1,0.2-0.2V4.1
		c0-0.1-0.1-0.2-0.2-0.2H3.9z"/>
    </symbol>
    <symbol id="nav-cart-caddie" viewBox="0 0 25 25">
        <path d="M19.9,15.2l2.6-6.9c0.1-0.2,0.1-0.5-0.1-0.7c-0.1-0.2-0.4-0.3-0.6-0.3H7.1L6.7,5.5C6.6,5.2,6.3,4.9,6,4.9H2.7
		c-0.4,0-0.8,0.3-0.8,0.8s0.3,0.8,0.8,0.8h2.7l2.8,11.7c-0.6,0.4-1,1.1-1,1.9c0,1.2,1,2.2,2.2,2.2s2.2-1,2.2-2.2
		c0-0.3-0.1-0.5-0.1-0.7h4c-0.1,0.2-0.1,0.5-0.1,0.7c0,1.2,1,2.2,2.2,2.2s2.2-1,2.2-2.2s-1-2.2-2.2-2.2h-8l-0.5-2.1h10
		C19.5,15.6,19.8,15.5,19.9,15.2z M10.2,20c0,0.4-0.3,0.7-0.7,0.7S8.8,20.4,8.8,20s0.3-0.7,0.7-0.7S10.2,19.6,10.2,20z M17.7,20.7
		c-0.4,0-0.7-0.3-0.7-0.7s0.3-0.7,0.7-0.7s0.7,0.3,0.7,0.7S18.1,20.7,17.7,20.7z M8.8,14.1L7.5,8.8h13.2l-2,5.4H8.8V14.1z"/>
    </symbol>
    <symbol id="nav-cart-wishlist" viewBox="0 0 25 25">
        <path d="M22,12.4c-0.3-1.1-1.2-2-2.3-2.3c-1.4-0.4-2.7,0.1-3.6,1.2c-0.8-1.1-2.2-1.5-3.6-1.2c-1.1,0.3-2,1.2-2.3,2.3
		c-0.5,2,0.8,3.2,1.9,4.2l0.4,0.4c1,0.9,2.6,2.5,3,2.9c0.1,0.1,0.3,0.2,0.5,0.2c0.2,0,0.4-0.1,0.5-0.2c0,0,1.9-1.9,3-3l0.4-0.4
		C21.3,15.6,22.6,14.5,22,12.4z M19.2,15.6L18.7,16c-0.8,0.7-1.9,1.8-2.6,2.5c-0.7-0.6-1.8-1.8-2.6-2.5l-0.4-0.4
		c-1.2-1.1-1.8-1.7-1.5-2.8c0.2-0.6,0.7-1.2,1.3-1.3c0.2-0.1,0.4-0.1,0.6-0.1c0.7,0,1.3,0.4,1.6,0.8c0.5,0.7,1.6,0.7,2.1,0
		c0.4-0.5,1.1-1,2.1-0.7c0.6,0.2,1.2,0.7,1.3,1.3C21,13.9,20.3,14.6,19.2,15.6z"/>
        <path d="M12.3,18.9h-8V6.1h9.6v2.1c0,0.4,0.3,0.7,0.7,0.7s0.7-0.3,0.7-0.7V5.4c0-0.4-0.3-0.7-0.7-0.7h-11
		C3.1,4.7,2.8,5,2.8,5.4v14.3c0,0.4,0.3,0.7,0.7,0.7h8.7c0.4,0,0.7-0.3,0.7-0.7S12.7,18.9,12.3,18.9z"/>
        <path d="M12.4,8.1c0-0.4-0.3-0.7-0.7-0.7H6.4C6,7.4,5.7,7.8,5.7,8.1S6,8.8,6.4,8.8h5.4C12.1,8.8,12.4,8.5,12.4,8.1z"/>
        <path d="M6.4,11.7h2.5c0.4,0,0.7-0.3,0.7-0.7s-0.3-0.7-0.7-0.7H6.4c-0.4,0-0.7,0.3-0.7,0.7S6,11.7,6.4,11.7z"/>
        <path d="M6.4,17.4h2.7c0.4,0,0.7-0.3,0.7-0.7S9.4,16,9.1,16H6.4c-0.4,0-0.7,0.3-0.7,0.7S6,17.4,6.4,17.4z"/>
        <path d="M6.4,14.6h1.8c0.4,0,0.7-0.3,0.7-0.7s-0.3-0.7-0.7-0.7H6.4c-0.4,0-0.7,0.3-0.7,0.7S6,14.6,6.4,14.6z"/>
    </symbol>
    <symbol id="help-mouse" viewBox="0 0 58 93">
        <path d="M41.3,92.8H16.7c-9,0-16.3-7.3-16.3-16.3v-60c0-9,7.3-16.3,16.3-16.3h24.6c9,0,16.3,7.3,16.3,16.3v60
		C57.6,85.5,50.3,92.8,41.3,92.8z M16.7,2.2C8.8,2.2,2.4,8.6,2.4,16.5v60c0,7.9,6.4,14.3,14.3,14.3h24.6c7.9,0,14.3-6.4,14.3-14.3
		v-60c0-7.9-6.4-14.3-14.3-14.3H16.7z"/>
        <path d="M29,39.8L29,39.8c-2.3,0-4.1-1.8-4.1-4.1V18c0-2.3,1.8-4.1,4.1-4.1h0c2.3,0,4.1,1.8,4.1,4.1v17.7
		C33.1,38,31.3,39.8,29,39.8z"/>
    </symbol>
    <symbol id="help-touch-zoom" viewBox="0 0 174 72">
        <path d="M34.6,66c-0.1,0-0.2,0-0.2,0l-15.8-4c-2.4-0.6-4.3-2.6-4.8-5c-0.3-1.7,0-3.4,1-4.8s2.4-2.4,4.1-2.7
			c0.5-0.1,0.9-0.1,1.4-0.1l2.8,0.1l-8.8-18.9c-0.7-1.5-0.7-3.1-0.2-4.6s1.7-2.7,3.1-3.4c1.5-0.7,3.1-0.7,4.6-0.2
			c1.5,0.5,2.7,1.7,3.4,3.1l6,12.8l5.7-1.6c5.2-1.4,10.6,1.1,12.9,6l5.9,12.7c0.2,0.5,0,1.1-0.5,1.3c-0.5,0.2-1.1,0-1.3-0.5
			l-5.9-12.7c-1.9-4-6.3-6.1-10.6-4.9l-6.5,1.8c-0.5,0.1-1-0.1-1.2-0.5l-6.3-13.6c-0.5-1-1.3-1.7-2.3-2.1c-1-0.4-2.1-0.3-3.1,0.1
			c-1,0.5-1.7,1.3-2.1,2.3c-0.4,1-0.3,2.1,0.1,3.1l9.5,20.4c0.1,0.3,0.1,0.7-0.1,1c-0.2,0.3-0.5,0.4-0.9,0.5l-4.4-0.1
			c-0.3,0-0.6,0-1,0.1c-1.2,0.2-2.2,0.9-2.8,1.9c-0.7,1-0.9,2.2-0.7,3.3c0.3,1.7,1.6,3.1,3.3,3.5l15.8,4c0.5,0.1,0.9,0.7,0.7,1.2
			C35.4,65.7,35,66,34.6,66z"/>
        <path d="M54.2,27.7v-1.1l1.4-1.4c3.4-3.2,4.9-4.9,4.9-6.9c0-1.3-0.6-2.6-2.6-2.6c-1.2,0-2.2,0.6-2.8,1.1l-0.6-1.3
						c0.9-0.8,2.2-1.3,3.7-1.3c2.8,0,4,1.9,4,3.8c0,2.4-1.8,4.4-4.5,7.1l-1.1,1v0h5.9v1.5H54.2z"/>
        <rect x="44.4" y="16.4" transform="matrix(0.7071 -0.7071 0.7071 0.7071 -2.1967 38.298)" width="1.5"
              height="10.8"/>
        <rect x="39.7" y="21" transform="matrix(0.7071 -0.7071 0.7071 0.7071 -2.1967 38.298)" width="10.8"
              height="1.5"/>
        <path d="M13,39.2c-0.1,0-0.2,0-0.3,0C8,37.8,4,34.5,2,30C-2,21.6,1.7,11.5,10.1,7.6C14.2,5.7,18.8,5.5,23,7
			c4.2,1.5,7.6,4.6,9.5,8.7c2.1,4.4,2.1,9.6,0.1,14.1c-0.2,0.5-0.8,0.7-1.3,0.5c-0.5-0.2-0.7-0.8-0.5-1.3c1.8-4,1.8-8.5-0.1-12.4
			c-1.7-3.6-4.7-6.3-8.4-7.7C18.6,7.5,14.6,7.7,11,9.4C3.5,12.9,0.3,21.7,3.8,29.2c1.8,4,5.3,6.9,9.5,8.1c0.5,0.1,0.8,0.7,0.7,1.2
			C13.9,38.9,13.5,39.2,13,39.2z"/>
        <path d="M152.6,61.3c-0.1,0-0.2,0-0.3-0.1L131,53.9c-2.6-0.9-4.1-3.7-3.3-6.4c0.7-2.4,3-4,5.5-3.7l7.8,0.7l-8.7-18.6
			c-1.3-2.9-0.3-6.4,2.3-7.9c1.5-0.9,3.2-1.1,4.8-0.6c1.6,0.5,2.9,1.7,3.7,3.2l6,12.8l5.7-1.6c5.2-1.4,10.6,1.1,12.9,6l5.9,12.7
			c0.2,0.5,0,1.1-0.5,1.3c-0.5,0.2-1.1,0-1.3-0.5l-5.9-12.7c-1.9-4-6.3-6.1-10.6-4.9l-6.5,1.8c-0.5,0.1-1-0.1-1.2-0.5l-6.3-13.6
			c-0.5-1-1.4-1.8-2.4-2.1c-1.1-0.3-2.2-0.2-3.2,0.4c-1.8,1-2.4,3.4-1.5,5.3l9.4,20.2c0.2,0.3,0.1,0.7-0.1,1
			c-0.2,0.3-0.6,0.5-0.9,0.4l-9.5-0.9c-1.5-0.2-3,0.8-3.4,2.3c-0.5,1.6,0.4,3.4,2,3.9l21.3,7.4c0.5,0.2,0.8,0.8,0.6,1.3
			C153.4,61.1,153,61.3,152.6,61.3z"/>
        <path d="M127.6,65.1c-0.3,0-0.7-0.2-0.9-0.5l-3.8-6.4c-0.3-0.5-0.1-1.1,0.4-1.4c0.5-0.3,1.1-0.1,1.4,0.4l3.3,5.6
			l5.6-3.3c0.5-0.3,1.1-0.1,1.4,0.4c0.3,0.5,0.1,1.1-0.4,1.4l-6.4,3.8C128,65.1,127.8,65.1,127.6,65.1z"/>
        <path d="M126,71.7c-0.3,0-0.7-0.2-0.9-0.5l-3.8-6.4c-0.3-0.5-0.1-1.1,0.4-1.4c0.5-0.3,1.1-0.1,1.4,0.4l3.3,5.6
			l5.6-3.3c0.5-0.3,1.1-0.1,1.4,0.4c0.3,0.5,0.1,1.1-0.4,1.4l-6.4,3.8C126.4,71.6,126.2,71.7,126,71.7z"/>
        <path d="M146,15.3c-0.3,0-0.7-0.2-0.9-0.5l-3.3-5.6l-5.6,3.3c-0.5,0.3-1.1,0.1-1.4-0.4c-0.3-0.5-0.1-1.1,0.4-1.4
			l6.4-3.8c0.2-0.1,0.5-0.2,0.8-0.1c0.3,0.1,0.5,0.2,0.6,0.5l3.8,6.4c0.3,0.5,0.1,1.1-0.4,1.4C146.3,15.3,146.1,15.3,146,15.3z"/>
        <path d="M147.6,8.8c-0.3,0-0.7-0.2-0.9-0.5l-3.3-5.6l-5.6,3.3c-0.5,0.3-1.1,0.1-1.4-0.4c-0.3-0.5-0.1-1.1,0.4-1.4
			l6.4-3.8c0.5-0.3,1.1-0.1,1.4,0.4l3.8,6.4c0.3,0.5,0.1,1.1-0.4,1.4C147.9,8.7,147.8,8.8,147.6,8.8z"/>
    </symbol>
    <symbol id="help-touch-scroll" viewBox="0 0 68 52">
        <path d="M13,36.3c-0.3,0-0.5-0.1-0.7-0.3L7,30.7c-0.4-0.4-0.4-1,0-1.4c0.4-0.4,1-0.4,1.4,0l4.5,4.6l4.6-4.5
				c0.4-0.4,1-0.4,1.4,0s0.4,1,0,1.4L13.7,36C13.5,36.2,13.2,36.3,13,36.3z"/>
        <path d="M13,43c-0.3,0-0.5-0.1-0.7-0.3l-5.2-5.3c-0.4-0.4-0.4-1,0-1.4c0.4-0.4,1-0.4,1.4,0l4.5,4.6l4.6-4.5
				c0.4-0.4,1-0.4,1.4,0c0.4,0.4,0.4,1,0,1.4l-5.3,5.2C13.5,42.9,13.3,43,13,43z"/>
        <path d="M35.7,51.6c-2,0-3.9-0.9-5.1-2.5c-1.1-1.4-1.5-3.1-1.3-4.8c0.2-1.7,1.1-3.2,2.4-4.3c0.4-0.3,0.8-0.5,1.2-0.7
			l2.5-1.2L19,25.3c-1.3-1-2.1-2.4-2.3-4c-0.2-1.6,0.2-3.2,1.2-4.4c1-1.3,2.4-2.1,4-2.3c1.6-0.2,3.2,0.2,4.4,1.2l11.2,8.7l4.3-4
			c4-3.7,10-3.9,14.2-0.6l11.1,8.6c0.4,0.3,0.5,1,0.2,1.4c-0.3,0.4-1,0.5-1.4,0.2l-11.1-8.6c-3.5-2.7-8.4-2.5-11.6,0.5l-5,4.6
			c-0.4,0.3-0.9,0.4-1.3,0.1l-11.8-9.2c-0.8-0.7-1.9-0.9-3-0.8c-1.1,0.1-2,0.7-2.7,1.5c-0.7,0.8-0.9,1.9-0.8,3
			c0.1,1.1,0.7,2,1.5,2.7L38,37.5c0.3,0.2,0.4,0.6,0.4,0.9c0,0.3-0.3,0.6-0.6,0.8l-4,1.9c-0.3,0.1-0.6,0.3-0.8,0.5
			c-0.9,0.7-1.5,1.8-1.7,3c-0.1,1.2,0.2,2.4,0.9,3.3c1.1,1.4,2.9,2,4.5,1.6l15.9-3.6c0.5-0.1,1.1,0.2,1.2,0.8
			c0.1,0.5-0.2,1.1-0.8,1.2l-15.9,3.6C36.7,51.6,36.2,51.6,35.7,51.6z"/>
        <path d="M13.3,26c-2.9,0-5.6-0.9-7.9-2.7c-2.7-2.1-4.4-5.1-4.8-8.5C0.2,11.4,1.1,8,3.2,5.3c4.4-5.6,12.4-6.6,18-2.2
			c2.3,1.8,4,4.4,4.6,7.3c0.1,0.5-0.2,1.1-0.8,1.2c-0.5,0.1-1.1-0.2-1.2-0.8C23.3,8.4,22,6.2,20,4.7C15.3,1,8.4,1.8,4.8,6.6
			c-1.8,2.3-2.6,5.1-2.2,8s1.8,5.4,4.1,7.2c2,1.5,4.5,2.4,7,2.3c0.5,0,1,0.4,1,1c0,0.6-0.4,1-1,1C13.6,26,13.4,26,13.3,26z"/>
    </symbol>
    <symbol id="help-touch-swipe" viewBox="0 0 72 62">
        <path d="M50.5,61.9c-0.1,0-0.2,0-0.2,0l-15.8-4c-2.4-0.6-4.3-2.6-4.8-5c-0.7-3.5,1.6-6.9,5.1-7.6
		c0.5-0.1,0.9-0.1,1.4-0.1l2.8,0.1l-8.8-18.9c-0.7-1.5-0.7-3.1-0.2-4.6c0.5-1.5,1.7-2.7,3.1-3.4c1.5-0.7,3.1-0.7,4.6-0.2
		c1.5,0.5,2.7,1.7,3.4,3.1l6,12.8l5.7-1.6c5.2-1.4,10.6,1.1,12.9,6l5.9,12.7c0.2,0.5,0,1.1-0.5,1.3c-0.5,0.2-1.1,0-1.3-0.5
		l-5.9-12.7c-1.9-4-6.3-6.1-10.6-4.9l-6.5,1.8c-0.5,0.1-1-0.1-1.2-0.5L39.1,22c-0.5-1-1.3-1.7-2.3-2.1c-1-0.4-2.1-0.3-3.1,0.1
		c-1,0.5-1.7,1.3-2.1,2.3c-0.4,1-0.3,2.1,0.1,3.1l9.5,20.4c0.1,0.3,0.1,0.7-0.1,1c-0.2,0.3-0.5,0.4-0.9,0.5l-4.4-0.1
		c-0.3,0-0.6,0-1,0.1c-1.2,0.2-2.2,0.9-2.8,1.9c-0.7,1-0.9,2.2-0.7,3.3c0.3,1.7,1.6,3.1,3.3,3.5l15.8,4c0.5,0.1,0.9,0.7,0.7,1.2
		C51.3,61.6,50.9,61.9,50.5,61.9z"/>
        <path d="M13.4,19c-0.3,0-0.5-0.1-0.7-0.3l-5.2-5.3c-0.4-0.4-0.4-1,0-1.4l5.3-5.2c0.4-0.4,1-0.4,1.4,0
				c0.4,0.4,0.4,1,0,1.4l-4.6,4.5l4.5,4.6c0.4,0.4,0.4,1,0,1.4C13.9,18.9,13.7,19,13.4,19z"/>
        <path d="M6.7,19c-0.3,0-0.5-0.1-0.7-0.3l-5.2-5.3c-0.4-0.4-0.4-1,0-1.4l5.3-5.2c0.4-0.4,1-0.4,1.4,0
				c0.4,0.4,0.4,1,0,1.4l-4.6,4.5l4.5,4.6c0.4,0.4,0.4,1,0,1.4C7.2,18.9,6.9,19,6.7,19z"/>
        <path d="M47.5,19c-0.3,0-0.5-0.1-0.7-0.3c-0.4-0.4-0.4-1,0-1.4l4.6-4.5l-4.5-4.6c-0.4-0.4-0.4-1,0-1.4
				c0.4-0.4,1-0.4,1.4,0l5.2,5.3c0.4,0.4,0.4,1,0,1.4l-5.3,5.2C48,18.9,47.8,19,47.5,19z"/>
        <path d="M54.3,19c-0.3,0-0.5-0.1-0.7-0.3c-0.4-0.4-0.4-1,0-1.4l4.6-4.5l-4.5-4.6c-0.4-0.4-0.4-1,0-1.4
				c0.4-0.4,1-0.4,1.4,0l5.2,5.3c0.4,0.4,0.4,1,0,1.4L55,18.7C54.8,18.9,54.5,19,54.3,19z"/>
        <path d="M25.5,24.6c-0.1,0-0.3,0-0.4-0.1c-2.7-1.3-4.9-3.5-6.2-6.2c-3-6.4-0.2-14.1,6.2-17c3.1-1.4,6.6-1.6,9.8-0.4
		c3.2,1.2,5.8,3.5,7.2,6.6c1.2,2.7,1.5,5.7,0.8,8.6c-0.1,0.5-0.7,0.9-1.2,0.7c-0.5-0.1-0.9-0.7-0.7-1.2c0.6-2.5,0.4-5-0.6-7.3
		c-1.2-2.6-3.4-4.6-6.1-5.6c-2.7-1-5.7-0.9-8.3,0.4c-2.6,1.2-4.6,3.4-5.6,6.1s-0.9,5.7,0.4,8.3c1.1,2.3,2.9,4.1,5.2,5.2
		c0.5,0.2,0.7,0.8,0.5,1.3C26.2,24.4,25.9,24.6,25.5,24.6z"/>
    </symbol>
    <symbol id="audiodescription-on" viewBox="0 0 52 52">
        <defs>
            <circle id="audiodescription-on-clip-circle" cx="26" cy="26" r="18"/>
        </defs>
        <clipPath id="audiodescription-on-clip">
            <use xlink:href="#audiodescription-on-clip-circle" style="overflow:visible;"/>
        </clipPath>
        <g>
            <path d="M26,45.1C15.5,45.1,6.9,36.5,6.9,26S15.5,6.9,26,6.9S45.1,15.5,45.1,26S36.5,45.1,26,45.1z M26,9.1
	C16.7,9.1,9.1,16.7,9.1,26c0,9.3,7.6,16.9,16.9,16.9c9.3,0,16.9-7.6,16.9-16.9C42.9,16.7,35.3,9.1,26,9.1z"/>
            <g style="clip-path:url(#audiodescription-on-clip);">
                <path d="M7.6,35.2c4.9,2.2,13.8,2,14.6,1.2c0.8-0.8,0.3-3.4,0.3-3.8c0-0.7,0.7-1.2,0.7-1.7c0-1.4-5.6-1.1-5.2-4
				c0.1-0.5,5.3-1.2,5.7-2.4c0.2-0.5-0.8-3-0.8-3l2.3-1.1c0,0,0.9-0.4,1-1.1c0.1-0.6-0.7-1.9-0.7-1.9L18.6,6.6l-18.1,6"/>
                <path d="M29.4,31.3l-1-1.1c0.9-0.8,1.4-1.9,1.4-3.1c0-1.2-0.5-2.3-1.4-3.1l1-1.1c1.2,1.1,1.8,2.6,1.8,4.1
				C31.2,28.8,30.6,30.3,29.4,31.3z"/>
                <path d="M31.6,33.6l-1-1c1-1,2.3-2.8,2.3-5.3c0-2-0.8-3.9-2.3-5.3l1-1.1c1.7,1.6,2.7,3.9,2.7,6.3C34.3,29.6,33.4,31.9,31.6,33.6z
				"/>
                <path d="M34.1,36l-1-1.1c2.1-2,3.3-4.8,3.3-7.8c0-2.9-1.2-5.7-3.3-7.8l1-1c2.4,2.4,3.7,5.6,3.7,8.8C37.8,30.6,36.5,33.7,34.1,36z
				"/>
            </g>
        </g>
    </symbol>
    <symbol id="audiodescription-off" viewBox="0 0 52 52">
        <path d="M26,45.1C15.5,45.1,6.9,36.5,6.9,26S15.5,6.9,26,6.9S45.1,15.5,45.1,26S36.5,45.1,26,45.1z M26,9.1
		C16.7,9.1,9.1,16.7,9.1,26c0,9.3,7.6,16.9,16.9,16.9c9.3,0,16.9-7.6,16.9-16.9C42.9,16.7,35.3,9.1,26,9.1z"/>
        <g>
            <defs>
                <circle id="audiodescription-off-clip-circle" cx="26" cy="26" r="18"/>
            </defs>
            <clipPath id="audiodescription-off-clip">
                <use xlink:href="#audiodescription-off-clip-circle" style="overflow:visible;"/>
            </clipPath>
            <g style="clip-path:url(#audiodescription-off-clip);">
                <path d="M7.6,35.2c4.9,2.2,13.8,2,14.6,1.2c0.8-0.8,0.3-3.4,0.3-3.8c0-0.7,0.7-1.2,0.7-1.7c0-1.4-5.6-1.1-5.2-4
					c0.1-0.5,5.3-1.2,5.7-2.4c0.2-0.5-0.8-3-0.8-3l2.3-1.1c0,0,0.9-0.4,1-1.1c0.1-0.6-0.7-1.9-0.7-1.9L18.6,6.6l-18.1,6"/>
            </g>
        </g>
        <rect x="32.6" y="21.7" transform="matrix(0.7071 -0.7071 0.7071 0.7071 -10.1163 31.7768)" width="1.5"
              height="12.7"/>
        <rect x="26.9" y="27.4" transform="matrix(0.7071 -0.7071 0.7071 0.7071 -10.1163 31.7768)" width="12.7"
              height="1.5"/>
    </symbol>
    <symbol id="icon-photo" viewBox="0 0 25 25">
        <g transform="matrix(1.3333333333333333,0,0,1.3333333333333333,0,0)">
            <path d="M10.8,14.1c-2.2,0-4-1.8-4-4s1.8-4,4-4s4,1.8,4,4S13,14.1,10.8,14.1z M10.8,7.1c-1.6,0-3,1.3-3,3s1.3,3,3,3
		s3-1.3,3-3S12.4,7.1,10.8,7.1z"/>
            <path d="M15.8,16.1h-13c-0.8,0-1.5-0.7-1.5-1.5v-8c0-0.8,0.7-1.5,1.5-1.5H7l0.6-1.2c0.3-0.5,0.8-0.8,1.4-0.8h3.8
		c0.6,0,1.1,0.3,1.4,0.8l0.6,1.2h1.2c0.8,0,1.5,0.7,1.5,1.5v8C17.3,15.4,16.6,16.1,15.8,16.1z M2.8,6.1c-0.3,0-0.5,0.2-0.5,0.5v8
		c0,0.3,0.2,0.5,0.5,0.5h13c0.3,0,0.5-0.2,0.5-0.5v-8c0-0.3-0.2-0.5-0.5-0.5h-1.5c-0.2,0-0.4-0.1-0.5-0.3l-0.7-1.4
		c-0.1-0.2-0.2-0.3-0.4-0.3H8.9c-0.2,0-0.3,0.1-0.4,0.3L7.8,5.8C7.7,6,7.5,6.1,7.3,6.1H2.8z"/>
            <path d="M4,8.6c-0.4,0-0.8-0.4-0.8-0.8c0-0.4,0.4-0.8,0.8-0.8s0.8,0.4,0.8,0.8C4.8,8.3,4.5,8.6,4,8.6z M4,7.6
		c-0.2,0-0.3,0.1-0.3,0.3C3.8,8,3.9,8.1,4,8.1S4.3,8,4.3,7.8C4.3,7.7,4.2,7.6,4,7.6z"/>
            <path d="M4.8,6.1c-0.3,0-0.5-0.2-0.5-0.5v-1c0-0.3,0.2-0.5,0.5-0.5c0.3,0,0.5,0.2,0.5,0.5v1C5.3,5.9,5.1,6.1,4.8,6.1z"
            />
        </g>
    </symbol>
    <symbol id="icon-360" viewBox="0 0 25 25">
        <path d="M10.4,10.9c-0.4,0-0.7-0.3-0.7-0.7V8c0-1.6,1.3-2.8,2.8-2.8c0.4,0,0.7,0.3,0.7,0.7s-0.3,0.7-0.7,0.7
			c-0.8,0-1.4,0.6-1.4,1.4v2.1C11.1,10.6,10.8,10.9,10.4,10.9z"/>
        <path d="M11.8,12.3c-1.2,0-2.1-1-2.1-2.1s1-2.1,2.1-2.1s2.1,1,2.1,2.1S13,12.3,11.8,12.3z M11.8,9.4
			c-0.4,0-0.7,0.3-0.7,0.7c0,0.4,0.3,0.7,0.7,0.7c0.4,0,0.7-0.3,0.7-0.7C12.5,9.8,12.2,9.4,11.8,9.4z"/>
        <path d="M6.8,12.3c-1,0-1.8-0.6-2-1.6C4.6,10.4,4.9,10,5.2,9.9C5.6,9.8,6,10,6.1,10.4c0.1,0.3,0.4,0.5,0.7,0.5
			c0.4,0,0.7-0.3,0.7-0.7c0-0.4-0.3-0.7-0.7-0.7c-0.4,0-0.7-0.3-0.7-0.7S6.4,8,6.8,8c0.3,0,0.6-0.2,0.7-0.5C7.6,7.1,7.4,6.7,7,6.6
			c-0.2,0-0.4,0-0.5,0.1C6.3,6.8,6.2,7,6.1,7.1C6,7.5,5.6,7.7,5.2,7.6C4.9,7.5,4.6,7.2,4.7,6.8c0.1-0.5,0.5-1,1-1.3
			c0.5-0.3,1.1-0.4,1.6-0.2c1.1,0.3,1.8,1.5,1.5,2.6C8.8,8.2,8.6,8.5,8.4,8.7c0.3,0.4,0.5,0.9,0.5,1.4C8.9,11.3,8,12.3,6.8,12.3z"/>
        <path d="M16.7,12.3c-1.2,0-2.1-1-2.1-2.1V7.3c0-1.2,1-2.1,2.1-2.1s2.1,1,2.1,2.1v2.8C18.8,11.3,17.8,12.3,16.7,12.3z
			 M16.7,6.6c-0.4,0-0.7,0.3-0.7,0.7v2.8c0,0.4,0.3,0.7,0.7,0.7c0.4,0,0.7-0.3,0.7-0.7V7.3C17.4,6.9,17.1,6.6,16.7,6.6z"/>
        <path d="M11.8,19C11.8,19,11.8,19,11.8,19l-1.1,0c-4.8-0.3-8.2-2.2-8.2-4.5c0-0.5,0.1-0.9,0.4-1.4
			c0.2-0.3,0.6-0.4,1-0.2c0.3,0.2,0.4,0.6,0.2,1c-0.1,0.2-0.2,0.4-0.2,0.6c0,1.3,2.6,2.8,6.9,3.1l1,0c0.4,0,0.7,0.3,0.7,0.7
			C12.5,18.7,12.2,19,11.8,19z"/>
        <path d="M15.5,18.8c-0.3,0-0.6-0.2-0.7-0.6c-0.1-0.4,0.2-0.7,0.6-0.8c3.3-0.6,5-1.9,5-2.9c0-0.2-0.1-0.4-0.2-0.6
			c-0.2-0.3-0.1-0.8,0.2-1c0.3-0.2,0.8-0.1,1,0.2c0.3,0.4,0.4,0.9,0.4,1.4c0,2-2.4,3.6-6.2,4.2C15.6,18.8,15.6,18.8,15.5,18.8z"/>
        <path d="M10.5,21.2c-0.2,0-0.4-0.1-0.5-0.2c-0.3-0.3-0.2-0.7,0.1-1l1.8-1.6L10,16.7c-0.3-0.3-0.3-0.7-0.1-1
			c0.3-0.3,0.7-0.3,1-0.1l2,1.8c0.3,0.2,0.4,0.6,0.4,0.9c0,0.3-0.1,0.7-0.4,0.9L11,21C10.8,21.1,10.7,21.2,10.5,21.2z"/>
        <path d="M20.8,8.5c-0.9,0-1.6-0.7-1.6-1.6s0.7-1.6,1.6-1.6s1.6,0.7,1.6,1.6S21.7,8.5,20.8,8.5z M20.8,6.6
		c-0.1,0-0.2,0.1-0.2,0.2c0,0.2,0.4,0.2,0.4,0C21,6.7,20.9,6.6,20.8,6.6z"/>
    </symbol>
    <symbol id="chevron-bold" viewBox="0 0 2.5 3.5">
        <polygon points="0.7,0 2.5,1.8 0.7,3.5 0,2.8 1.1,1.8 0,0.7"/>
    </symbol>
    <symbol id="audioplayer-play" viewBox="0 0 60 60">
        <path d="M43.3,29.1L23.7,17.9c-0.7-0.4-1.5,0.1-1.5,0.9v22.5c0,0.8,0.8,1.3,1.5,0.9l19.5-11.3
		C43.9,30.5,43.9,29.5,43.3,29.1z"/>
    </symbol>
    <symbol id="audioplayer-pause" viewBox="0 0 60 60">
        <path d="M26,19.2h-5c-0.6,0-1,0.4-1,1v19.5c0,0.6,0.4,1,1,1h5c0.6,0,1-0.4,1-1V20.2C27,19.8,26.6,19.2,26,19.2z"/>
        <path d="M39,19.2h-5c-0.6,0-1,0.4-1,1v19.5c0,0.6,0.4,1,1,1h5c0.6,0,1-0.4,1-1V20.2C40,19.8,39.6,19.2,39,19.2z"/>
    </symbol>
    <symbol id="icon-trashbin" viewBox="0 0 21 24">
        <path d="M16.9,23.3H4.1c-1,0-1.7-0.8-1.7-1.7v-17c0-0.4,0.3-0.7,0.7-0.7s0.7,0.3,0.7,0.7v17c0,0.2,0.2,0.3,0.3,0.3h12.8
	c0.2,0,0.3-0.2,0.3-0.3v-17c0-0.4,0.3-0.7,0.7-0.7s0.7,0.3,0.7,0.7v17C18.6,22.5,17.9,23.3,16.9,23.3z"/>
        <path d="M15.2,5.3c-0.4,0-0.7-0.3-0.7-0.7V2.5c0-0.2-0.2-0.3-0.3-0.3H6.9c-0.2,0-0.3,0.2-0.3,0.3v2.1c0,0.4-0.3,0.7-0.7,0.7
	S5.1,5,5.1,4.6V2.5c0-1,0.8-1.7,1.7-1.7h7.3c1,0,1.7,0.8,1.7,1.7v2.1C15.9,5,15.6,5.3,15.2,5.3z"/>
        <path d="M19.6,5.3H1.4C1,5.3,0.7,5,0.7,4.6S1,3.9,1.4,3.9h18.3c0.4,0,0.7,0.3,0.7,0.7S20,5.3,19.6,5.3z"/>
        <path d="M7.2,18.6c-0.4,0-0.7-0.3-0.7-0.7V8.2c0-0.4,0.3-0.7,0.7-0.7s0.7,0.3,0.7,0.7v9.7C7.9,18.3,7.6,18.6,7.2,18.6z"/>
        <path d="M10.5,18.6c-0.4,0-0.7-0.3-0.7-0.7V8.2c0-0.4,0.3-0.7,0.7-0.7s0.7,0.3,0.7,0.7v9.7C11.2,18.3,10.9,18.6,10.5,18.6z"/>
        <path d="M13.8,18.6c-0.4,0-0.7-0.3-0.7-0.7V8.2c0-0.4,0.3-0.7,0.7-0.7s0.7,0.3,0.7,0.7v9.7C14.5,18.3,14.2,18.6,13.8,18.6z"/>
    </symbol>

</svg>
