<?xml version="1.0" encoding="UTF-8"?>
<svg xmlns="http://www.w3.org/2000/svg" id="Calque_1" version="1.1" viewBox="0 0 504.5 96" preserveAspectRatio="none" width="504.5" height="96">
  <!-- Generator: Adobe Illustrator 29.3.1, SVG Export Plug-In . SVG Version: 2.1.0 Build 151)  -->
  <defs>
    <style>
      .st0 {
        fill: #41bfef;
      }

      .st1 {
        fill: #fff;
      }

      .st2 {
        fill: #013851;
      }
    </style>
  </defs>
  <rect class="st2" width="502" height="96"/>
  <rect class="st0" x="408.5" width="96" height="96"/>
  <g>
    <path class="st1" d="M49.6,61.9c-2.5-1.4-4.5-3.3-6-5.8s-2.2-5.2-2.2-8.3.7-5.8,2.2-8.3c1.4-2.4,3.4-4.4,6-5.8,2.5-1.4,5.4-2.1,8.5-2.1s4.7.4,6.8,1.2c2,.8,3.8,2,5.2,3.7l-2.9,2.8c-2.4-2.5-5.3-3.7-8.9-3.7s-4.5.5-6.3,1.6c-1.9,1.1-3.4,2.5-4.4,4.3s-1.6,3.9-1.6,6.2.5,4.3,1.6,6.2,2.5,3.3,4.4,4.3,4,1.6,6.3,1.6c3.5,0,6.5-1.3,8.9-3.8l2.9,2.8c-1.4,1.6-3.2,2.9-5.2,3.7-2.1.8-4.3,1.3-6.8,1.3s-6-.7-8.5-2.1Z"/>
    <path class="st1" d="M82.7,61.9c-2.6-1.4-4.6-3.3-6-5.8s-2.2-5.2-2.2-8.2.7-5.8,2.2-8.2c1.5-2.5,3.5-4.4,6-5.8,2.5-1.4,5.4-2.1,8.6-2.1s6,.7,8.6,2.1c2.5,1.4,4.5,3.3,6,5.8,1.4,2.4,2.2,5.2,2.2,8.3s-.7,5.8-2.2,8.3-3.4,4.4-6,5.8c-2.6,1.4-5.4,2.1-8.6,2.1s-6-.7-8.6-2.1ZM97.5,58.4c1.8-1,3.3-2.5,4.4-4.3,1.1-1.8,1.6-3.9,1.6-6.2s-.5-4.3-1.6-6.2c-1.1-1.8-2.5-3.3-4.4-4.3-1.8-1-3.9-1.6-6.2-1.6s-4.4.5-6.3,1.6c-1.9,1.1-3.3,2.5-4.4,4.3s-1.6,3.9-1.6,6.2.5,4.3,1.6,6.2,2.5,3.3,4.4,4.3c1.9,1,4,1.6,6.3,1.6s4.4-.5,6.2-1.6Z"/>
    <path class="st1" d="M145.2,63.6v-23s-11.4,19.1-11.4,19.1h-2.1l-11.4-19v22.8h-4.3v-31.5h3.7l13.1,22.1,13-22.1h3.7v31.5s-4.3,0-4.3,0Z"/>
    <path class="st1" d="M189.3,63.6v-23s-11.4,19.1-11.4,19.1h-2.1l-11.4-19v22.8h-4.3v-31.5h3.7l13.1,22.1,13-22.1h3.7v31.5s-4.3,0-4.3,0Z"/>
    <path class="st1" d="M227,59.7v3.9h-22.9v-31.5h22.2v3.9h-17.7v9.7h15.8v3.8h-15.8v10.2h18.4Z"/>
    <path class="st1" d="M262.5,32.1v31.5h-3.7l-18.9-23.5v23.5h-4.5v-31.5h3.7l18.9,23.5v-23.5h4.5Z"/>
    <path class="st1" d="M278.7,61.9c-2.5-1.4-4.5-3.3-6-5.8-1.4-2.4-2.2-5.2-2.2-8.3s.7-5.8,2.2-8.3c1.4-2.4,3.4-4.4,6-5.8,2.5-1.4,5.4-2.1,8.5-2.1s4.7.4,6.8,1.2,3.8,2,5.2,3.7l-2.9,2.8c-2.4-2.5-5.3-3.7-8.9-3.7s-4.5.5-6.3,1.6c-1.9,1.1-3.4,2.5-4.4,4.3-1.1,1.8-1.6,3.9-1.6,6.2s.5,4.3,1.6,6.2c1.1,1.8,2.5,3.3,4.4,4.3,1.9,1,4,1.6,6.3,1.6,3.5,0,6.5-1.3,8.9-3.8l2.9,2.8c-1.4,1.6-3.2,2.9-5.2,3.7-2.1.8-4.3,1.3-6.8,1.3s-6-.7-8.5-2.1Z"/>
    <path class="st1" d="M329.6,59.7v3.9h-22.9v-31.5h22.2v3.9h-17.7v9.7h15.8v3.8h-15.8v10.2h18.4Z"/>
    <path class="st1" d="M359.1,63.6l-6.8-9.7c-.8,0-1.5,0-2,0h-7.8v9.6h-4.5v-31.5h12.3c4.1,0,7.3,1,9.6,2.9,2.3,2,3.5,4.6,3.5,8.1s-.6,4.5-1.8,6.2-2.9,3-5.1,3.7l7.5,10.6h-4.9ZM356.7,48.4c1.5-1.2,2.2-3,2.2-5.3s-.8-4-2.2-5.2c-1.5-1.2-3.7-1.8-6.5-1.8h-7.7v14.2h7.7c2.8,0,5-.6,6.5-1.8Z"/>
  </g>
  <g>
    <rect class="st1" x="442" y="37.2" width="29" height="3.9" transform="translate(161.4 -311.3) rotate(45)"/>
    <rect class="st1" x="441.9" y="54.9" width="29" height="3.9" transform="translate(93.5 339.4) rotate(-45)"/>
  </g>
</svg>
