<?xml version="1.0" encoding="UTF-8"?>
<svg xmlns="http://www.w3.org/2000/svg" id="Calque_2" data-name="Calque 2" viewBox="0 0 535.75 263.62" preserveAspectRatio="none" width="535.75" height="263.62">
  <defs>
    <style>
      .cls-1 {
        fill: #4e4692;
      }

      .cls-2 {
        fill: #2a2f36;
      }

      .cls-3 {
        fill: #fff;
      }

      .cls-4 {
        fill: #a171aa;
      }

      .cls-5 {
        fill: #c2b2d6;
      }

      .cls-6 {
        fill: #d0a1c6;
      }

      .cls-7 {
        fill: #d0661c;
      }

      .cls-8 {
        fill: #2c354a;
      }

      .cls-9 {
        fill: #d5d783;
      }
    </style>
  </defs>
  <g id="Calque_1-2" data-name="Calque 1">
    <g>
      <rect class="cls-3" x="0" width="535.75" height="263.62"/>
      <rect class="cls-7" x="411.86" y="102.65" width="123.89" height="10.86"/>
      <rect class="cls-4" x="411.86" y="123.06" width="123.89" height="10.86"/>
      <rect class="cls-6" x="411.86" y="142.66" width="123.89" height="10.86"/>
      <rect class="cls-5" x="412.05" y="162.25" width="123.69" height="10.86"/>
      <rect class="cls-9" x="411.59" y="182.97" width="124.16" height="10.86"/>
      <rect class="cls-1" x="411.59" y="203.69" width="124.16" height="10.86"/>
      <g>
        <path class="cls-7" d="M186.77,115.61c3.74,0,6.77-3.03,6.77-6.78s-3.03-6.78-6.77-6.78-6.77,3.03-6.77,6.78,3.03,6.78,6.77,6.78"/>
        <path class="cls-4" d="M186.77,135.39c3.74,0,6.77-3.03,6.77-6.78s-3.03-6.78-6.77-6.78-6.77,3.03-6.77,6.78,3.03,6.78,6.77,6.78"/>
        <path class="cls-6" d="M186.77,154.9c3.74,0,6.77-3.03,6.77-6.78s-3.03-6.78-6.77-6.78-6.77,3.03-6.77,6.78,3.03,6.78,6.77,6.78"/>
        <path class="cls-5" d="M186.77,175.19c3.74,0,6.77-3.03,6.77-6.78s-3.03-6.78-6.77-6.78-6.77,3.03-6.77,6.78,3.03,6.78,6.77,6.78"/>
        <path class="cls-9" d="M186.77,195.47c3.74,0,6.77-3.03,6.77-6.78s-3.03-6.78-6.77-6.78-6.77,3.03-6.77,6.78,3.03,6.78,6.77,6.78"/>
        <path class="cls-1" d="M186.77,214.72c3.74,0,6.77-3.03,6.77-6.78s-3.03-6.78-6.77-6.78-6.77,3.03-6.77,6.78,3.03,6.78,6.77,6.78"/>
      </g>
      <polygon class="cls-8" points="33.09 63.93 33.09 68.81 15.87 68.81 15.87 39.79 21.87 39.79 21.87 63.93 33.09 63.93"/>
      <path class="cls-8" d="M61.77,54.29c0-2.28-.4-3.49-.6-4.09-.6-1.81-1.35-2.66-1.73-3.08-1.13-1.27-2.2-1.72-2.74-1.94-1.61-.67-2.97-.67-3.65-.67-2.04,0-3.12.45-3.66.67-1.62.67-2.37,1.52-2.75,1.94-1.13,1.27-1.53,2.48-1.73,3.08-.6,1.81-.6,3.33-.6,4.09,0,2.3.4,3.51.6,4.11.6,1.81,1.35,2.65,1.73,3.07,1.13,1.26,2.21,1.71,2.75,1.93,1.62.67,2.98.67,3.66.67,2.04,0,3.11-.45,3.65-.67,1.61-.67,2.36-1.51,2.74-1.93,1.13-1.26,1.53-2.47,1.73-3.07.6-1.81.6-3.34.6-4.11ZM67.91,54.29c0,3.18-.71,4.99-1.07,5.9-1.07,2.72-2.37,4.04-3.02,4.7-1.95,1.98-3.78,2.73-4.69,3.11-2.74,1.13-4.97,1.13-6.08,1.13-3.34,0-5.17-.75-6.08-1.13-2.74-1.13-4.05-2.45-4.7-3.11-1.96-1.98-2.67-3.79-3.03-4.7-1.07-2.72-1.07-4.84-1.07-5.9,0-3.18.71-4.99,1.07-5.89,1.07-2.71,2.38-4.03,3.03-4.69,1.96-1.98,3.79-2.73,4.7-3.11,2.74-1.13,4.97-1.13,6.08-1.13,3.34,0,5.17.75,6.08,1.13,2.74,1.13,4.04,2.46,4.69,3.12,1.95,1.99,2.66,3.8,3.02,4.7,1.07,2.71,1.07,4.82,1.07,5.87Z"/>
      <path class="cls-8" d="M96.07,61.67c.5,0,.73.24.84.36l2.38,2.54c-1.76,2.24-3.5,3.01-4.37,3.4-2.61,1.16-5.01,1.16-6.21,1.16-3.26,0-4.99-.74-5.86-1.11-2.6-1.11-3.81-2.43-4.42-3.09-1.82-1.98-2.47-3.79-2.8-4.7-.98-2.72-.98-4.87-.98-5.94,0-2.16.31-3.46.47-4.11.47-1.95,1.07-3.04,1.37-3.59.9-1.64,1.75-2.52,2.17-2.96,1.27-1.32,2.34-1.94,2.87-2.25,1.6-.93,2.86-1.26,3.49-1.42,1.89-.49,3.32-.49,4.03-.49,1.6,0,2.55.19,3.03.28,1.43.28,2.26.61,2.67.78,1.24.5,1.94.97,2.29,1.21,1.05.71,1.61,1.27,1.89,1.55l-2.02,2.76c-.18.26-.37.39-.46.46-.28.2-.6.2-.76.2-.48,0-.81-.23-.97-.34-.49-.34-.96-.62-1.2-.76-.71-.42-1.42-.65-1.78-.76-1.07-.34-2.16-.34-2.71-.34-1.82,0-2.83.44-3.34.66-1.52.66-2.25,1.49-2.61,1.91-1.09,1.25-1.49,2.46-1.69,3.07-.6,1.82-.6,3.37-.6,4.14,0,2.34.43,3.56.65,4.17.65,1.83,1.4,2.67,1.78,3.09,1.13,1.26,2.14,1.69,2.64,1.91,1.51.65,2.66.65,3.23.65,1.02,0,1.57-.07,1.85-.1.83-.1,1.3-.26,1.54-.34.71-.24,1.13-.49,1.34-.62.63-.38,1.06-.77,1.27-.96.22-.18.38-.26.46-.3.24-.12.43-.12.52-.12Z"/>
      <path class="cls-8" d="M132.07,68.81h-4.66c-.78,0-1.11-.25-1.27-.37-.49-.37-.65-.76-.73-.95l-1.96-5.54h-11.56l-1.96,5.54c-.2.5-.53.77-.7.91-.5.41-1.01.41-1.26.41h-4.7l11.34-29.02h6.14l11.32,29.02ZM121.99,57.79l-3.14-8.88c-.28-.7-.49-1.33-.59-1.64-.31-.94-.5-1.67-.59-2.04-.28,1.12-.49,1.75-.59,2.07-.31.95-.5,1.42-.59,1.65l-3.12,8.84h8.62Z"/>
      <polygon class="cls-8" points="155.97 63.93 155.97 68.81 138.75 68.81 138.75 39.79 144.75 39.79 144.75 63.93 155.97 63.93"/>
      <polygon class="cls-8" points="195.24 44.63 186.76 44.63 186.76 68.81 180.74 68.81 180.74 44.63 172.26 44.63 172.26 39.79 195.24 39.79 195.24 44.63"/>
      <polygon class="cls-8" points="208.9 44.49 208.9 51.95 218.58 51.95 218.58 56.49 208.9 56.49 208.9 64.11 221.34 64.11 221.34 68.81 202.86 68.81 202.86 39.79 221.34 39.79 221.34 44.49 208.9 44.49"/>
      <path class="cls-8" d="M248.98,61.67c.5,0,.73.24.84.36l2.38,2.54c-1.76,2.24-3.5,3.01-4.37,3.4-2.61,1.16-5.01,1.16-6.21,1.16-3.26,0-4.99-.74-5.86-1.11-2.6-1.11-3.81-2.43-4.42-3.09-1.82-1.98-2.47-3.79-2.8-4.7-.98-2.72-.98-4.87-.98-5.94,0-2.16.31-3.46.47-4.11.47-1.95,1.07-3.04,1.37-3.59.9-1.64,1.75-2.52,2.17-2.96,1.27-1.32,2.34-1.94,2.87-2.25,1.6-.93,2.86-1.26,3.49-1.42,1.89-.49,3.32-.49,4.03-.49,1.6,0,2.55.19,3.03.28,1.43.28,2.26.61,2.67.78,1.24.5,1.94.97,2.29,1.21,1.05.71,1.61,1.27,1.89,1.55l-2.02,2.76c-.18.26-.37.39-.46.46-.28.2-.6.2-.76.2-.48,0-.81-.23-.97-.34-.49-.34-.96-.62-1.2-.76-.71-.42-1.42-.65-1.78-.76-1.07-.34-2.16-.34-2.71-.34-1.82,0-2.83.44-3.34.66-1.52.66-2.25,1.49-2.61,1.91-1.09,1.25-1.49,2.46-1.69,3.07-.6,1.82-.6,3.37-.6,4.14,0,2.34.43,3.56.65,4.17.65,1.83,1.4,2.67,1.78,3.09,1.13,1.26,2.14,1.69,2.64,1.91,1.51.65,2.66.65,3.23.65,1.02,0,1.57-.07,1.85-.1.83-.1,1.3-.26,1.54-.34.71-.24,1.13-.49,1.34-.62.63-.38,1.06-.77,1.27-.96.22-.18.38-.26.46-.3.24-.12.43-.12.52-.12Z"/>
      <polygon class="cls-8" points="284.44 39.79 284.44 68.81 278.4 68.81 278.4 56.31 265.62 56.31 265.62 68.81 259.58 68.81 259.58 39.79 265.62 39.79 265.62 52.11 278.4 52.11 278.4 39.79 284.44 39.79"/>
      <path class="cls-8" d="M319.36,39.79v29.02h-3.1c-.7,0-1.02-.15-1.18-.23-.48-.23-.79-.6-.94-.79l-14.46-18.4c.06.7.08,1.15.09,1.38.03.68.03,1.07.03,1.26v16.78h-5.3v-29.02h3.16c.38,0,.56.02.65.03.27.03.42.1.49.14.22.11.35.23.42.29.2.18.36.38.44.48l14.56,18.48c-.08-.76-.11-1.23-.12-1.47-.04-.71-.04-1.14-.04-1.35v-16.6h5.3Z"/>
      <rect class="cls-8" x="329.42" y="39.79" width="6.04" height="29.02"/>
      <path class="cls-8" d="M375.16,74.37h-4.94c-1.08,0-1.65-.19-1.93-.28-.85-.28-1.33-.79-1.57-1.04l-3.94-4.38c-1.94.46-3.34.46-4.04.46-3.34,0-5.17-.75-6.08-1.13-2.74-1.13-4.05-2.45-4.7-3.11-1.96-1.98-2.67-3.79-3.03-4.7-1.07-2.72-1.07-4.84-1.07-5.9,0-3.18.71-4.99,1.07-5.89,1.07-2.71,2.38-4.03,3.03-4.69,1.96-1.98,3.79-2.73,4.7-3.11,2.74-1.13,4.97-1.13,6.08-1.13,3.34,0,5.17.75,6.08,1.13,2.74,1.13,4.04,2.46,4.69,3.12,1.95,1.99,2.66,3.8,3.02,4.7,1.07,2.71,1.07,4.82,1.07,5.87,0,1.92-.26,3.09-.39,3.67-.39,1.75-.88,2.77-1.13,3.28-.74,1.53-1.46,2.4-1.82,2.83-1.08,1.3-1.99,1.95-2.44,2.28l7.34,8.02ZM350,54.29c0,2.3.4,3.51.6,4.11.6,1.81,1.35,2.65,1.73,3.07,1.13,1.26,2.21,1.71,2.75,1.93,1.62.67,2.98.67,3.66.67,2.04,0,3.11-.45,3.65-.67,1.61-.67,2.36-1.51,2.74-1.93,1.13-1.26,1.53-2.47,1.73-3.07.6-1.81.6-3.34.6-4.11,0-2.28-.4-3.49-.6-4.09-.6-1.81-1.35-2.66-1.73-3.08-1.13-1.27-2.2-1.72-2.74-1.94-1.61-.67-2.97-.67-3.65-.67-2.04,0-3.12.45-3.66.67-1.62.67-2.37,1.52-2.75,1.94-1.13,1.27-1.53,2.48-1.73,3.08-.6,1.81-.6,3.33-.6,4.09Z"/>
      <path class="cls-8" d="M393.86,64.01c1.46,0,2.23-.33,2.62-.49,1.16-.49,1.69-1.09,1.96-1.39.8-.9,1.08-1.75,1.22-2.18.42-1.28.42-2.35.42-2.88v-17.28h6v17.28c0,2.64-.57,4.11-.85,4.85-.85,2.21-1.9,3.28-2.43,3.81-1.58,1.6-3.09,2.2-3.84,2.5-2.26.9-4.15.9-5.1.9-2.84,0-4.35-.6-5.11-.9-2.27-.9-3.32-1.97-3.85-2.5-1.58-1.6-2.15-3.07-2.43-3.81-.85-2.21-.85-3.97-.85-4.85v-17.28h6v17.28c0,1.6.28,2.45.42,2.88.42,1.28.95,1.88,1.22,2.18.8.9,1.57,1.23,1.96,1.39,1.16.49,2.15.49,2.64.49Z"/>
      <polygon class="cls-8" points="421.82 44.49 421.82 51.95 431.5 51.95 431.5 56.49 421.82 56.49 421.82 64.11 434.26 64.11 434.26 68.81 415.78 68.81 415.78 39.79 434.26 39.79 434.26 44.49 421.82 44.49"/>
      <path class="cls-2" d="M204.09,102.84c1.12,0,1.66.17,1.93.26.81.26,1.16.58,1.34.73.52.47.69.9.78,1.11.25.65.25,1.15.25,1.4,0,.8-.17,1.25-.26,1.47-.26.67-.62.99-.79,1.15-.53.48-1.07.66-1.34.75-.81.27-1.54.27-1.9.27h-1.42v3.74h-2.25v-10.88h3.67ZM204.09,108.25c1.06,0,1.39-.34,1.55-.51.49-.51.49-1.1.49-1.4,0-.41-.08-.63-.12-.74-.12-.33-.29-.49-.38-.57-.25-.24-.51-.32-.63-.36-.38-.13-.73-.13-.91-.13h-1.42v3.7h1.42Z"/>
      <path class="cls-2" d="M217.02,109.56v1.17c0,.16-.07.24-.11.28-.11.12-.24.12-.3.12h-.85v2.59h-1.8v-2.59h-4.49c-.2,0-.3-.08-.36-.12-.16-.12-.19-.25-.2-.32l-.22-1.03,5.1-6.83h1.96v6.73h1.26ZM213.96,109.56v-3.24c0-.26.01-.45.02-.54.02-.29.04-.5.06-.6l-3.15,4.39h3.08Z"/>
      <path class="cls-2" d="M225.19,112.2v1.52h-6.1v-1.52h2.16v-5.95c0-.2,0-.33,0-.4,0-.2.02-.34.02-.41l-1.42,1.18c-.15.11-.24.13-.29.14-.14.03-.23.01-.27,0-.13-.03-.19-.07-.23-.09-.1-.06-.13-.11-.15-.13l-.65-.88,3.35-2.84h1.7v9.37h1.88Z"/>
      <polygon class="cls-2" points="236.9 102.97 236.9 104.16 231.74 104.16 231.74 107.91 236.15 107.91 236.15 109.1 231.74 109.1 231.74 113.72 230.27 113.72 230.27 102.97 236.9 102.97"/>
      <rect class="cls-2" x="239.03" y="102.97" width="1.45" height="10.75"/>
      <polygon class="cls-2" points="244.82 112.5 249.47 112.5 249.47 113.72 243.37 113.72 243.37 102.97 244.82 102.97 244.82 112.5"/>
      <polygon class="cls-2" points="257.11 102.97 257.11 104.19 253.64 104.19 253.64 113.72 252.18 113.72 252.18 104.19 248.69 104.19 248.69 102.97 257.11 102.97"/>
      <path class="cls-2" d="M260.24,108.18h1.52c.64,0,.96-.1,1.12-.15.48-.15.7-.34.81-.43.33-.28.44-.54.49-.67.17-.39.17-.71.17-.86,0-.96-.42-1.29-.63-1.45-.63-.49-1.47-.49-1.89-.49h-1.59v4.06ZM260.24,109.23v4.48h-1.45v-10.75h3.04c1.02,0,1.52.14,1.76.21.74.21,1.07.47,1.23.6.48.39.64.76.72.94.23.55.23,1.01.23,1.23,0,.57-.12.9-.18,1.07-.18.49-.41.76-.52.89-.34.39-.67.58-.83.67-.49.28-.91.37-1.11.42.27.16.41.36.48.46l3.13,4.27h-1.29c-.4,0-.52-.21-.59-.31l-2.79-3.84c-.13-.18-.23-.23-.28-.26-.15-.08-.35-.08-.45-.08h-1.1Z"/>
      <polygon class="cls-2" points="274.92 102.97 274.92 104.16 269.76 104.16 269.76 107.73 273.94 107.73 273.94 108.87 269.76 108.87 269.76 112.53 274.92 112.53 274.92 113.72 268.3 113.72 268.3 102.97 274.92 102.97"/>
      <path class="cls-2" d="M282.52,104.65c-.07.11-.12.15-.14.17-.08.06-.15.06-.2.06-.13,0-.24-.08-.3-.13-.17-.13-.34-.23-.43-.28-.26-.15-.5-.24-.62-.28-.36-.13-.71-.13-.88-.13-.49,0-.74.09-.86.13-.38.13-.54.28-.63.36-.25.22-.34.43-.38.53-.13.3-.13.54-.13.66,0,.45.15.65.22.75.22.3.46.44.58.51.36.21.67.31.83.36.46.15.78.26.95.32.48.16.79.3.95.37.46.21.7.42.83.52.36.32.51.62.58.77.22.46.22.9.22,1.12,0,.71-.16,1.12-.24,1.32-.24.62-.55.92-.7,1.08-.46.46-.91.63-1.13.72-.67.26-1.24.26-1.53.26-1.04,0-1.61-.25-1.9-.38-.86-.38-1.26-.81-1.47-1.02l.42-.69c.06-.08.12-.12.15-.14.09-.06.16-.06.19-.06.16,0,.29.11.36.17.2.17.41.3.51.37.3.2.59.32.74.37.43.17.85.17,1.05.17.52,0,.79-.09.92-.14.4-.14.59-.32.69-.4.28-.26.38-.5.43-.62.15-.36.15-.66.15-.8,0-.49-.15-.7-.22-.8-.22-.31-.46-.45-.58-.52-.36-.21-.67-.31-.82-.36-.46-.15-.78-.25-.95-.3-.48-.15-.79-.29-.95-.36-.46-.2-.7-.42-.82-.52-.36-.32-.51-.65-.58-.81-.22-.48-.22-.96-.22-1.2,0-.57.15-.93.22-1.1.22-.53.5-.81.64-.95.42-.41.83-.58,1.04-.66.62-.25,1.15-.25,1.42-.25.9,0,1.4.19,1.64.28.74.29,1.11.65,1.3.83l-.35.69Z"/>
      <path class="cls-2" d="M204.09,122.84c1.12,0,1.66.17,1.93.26.81.26,1.16.58,1.34.73.52.47.69.9.78,1.11.25.65.25,1.15.25,1.4,0,.8-.17,1.25-.26,1.47-.26.67-.62.99-.79,1.15-.53.48-1.07.66-1.34.75-.81.27-1.54.27-1.9.27h-1.42v3.74h-2.25v-10.88h3.67ZM204.09,128.25c1.06,0,1.39-.34,1.55-.51.49-.51.49-1.1.49-1.4,0-.41-.08-.63-.12-.74-.12-.33-.29-.49-.38-.57-.25-.24-.51-.32-.63-.36-.38-.13-.73-.13-.91-.13h-1.42v3.7h1.42Z"/>
      <path class="cls-2" d="M217.02,129.56v1.17c0,.16-.07.24-.11.28-.11.12-.24.12-.3.12h-.85v2.59h-1.8v-2.59h-4.49c-.2,0-.3-.08-.36-.12-.16-.12-.19-.25-.2-.32l-.22-1.03,5.1-6.83h1.96v6.73h1.26ZM213.96,129.56v-3.24c0-.26.01-.45.02-.54.02-.29.04-.5.06-.6l-3.15,4.39h3.08Z"/>
      <path class="cls-2" d="M220.55,126.74c.34-.07.54-.09.65-.1.31-.03.51-.03.6-.03.85,0,1.29.17,1.51.26.66.26.95.56,1.1.71.45.45.6.86.67,1.06.22.61.22,1.07.22,1.3,0,.87-.2,1.35-.31,1.59-.31.72-.67,1.06-.85,1.23-.54.51-1.05.7-1.3.8-.75.28-1.35.28-1.65.28-.52,0-.83-.07-.99-.11-.47-.11-.74-.23-.88-.29-.41-.18-.64-.34-.76-.42-.35-.24-.54-.41-.63-.5l.64-.87c.2-.28.42-.28.53-.28.2,0,.33.08.4.12.2.12.36.22.44.27.25.15.47.23.58.27.33.12.65.12.8.12.49,0,.73-.11.85-.16.36-.16.52-.35.6-.44.24-.28.31-.54.35-.67.12-.39.12-.68.12-.83,0-.85-.32-1.16-.48-1.31-.48-.46-1.1-.46-1.41-.46-.76,0-1.27.19-1.52.29l-1.28-.36.91-5.35h5.46v.87c0,.22-.04.34-.06.39-.06.18-.16.26-.21.31-.15.13-.3.18-.38.2-.23.07-.45.07-.56.07h-2.81l-.35,2.05Z"/>
      <path class="cls-2" d="M231.87,128.54h1.73c.62,0,.94-.11,1.1-.17.48-.16.69-.36.8-.46.32-.3.43-.57.49-.71.17-.41.17-.74.17-.91,0-1.03-.42-1.41-.63-1.61-.63-.58-1.49-.58-1.92-.58h-1.73v4.42ZM231.87,129.7v4.02h-1.45v-10.75h3.17c1.02,0,1.52.16,1.77.24.75.24,1.08.53,1.25.67.49.43.66.85.74,1.05.24.61.24,1.12.24,1.37,0,.75-.18,1.16-.26,1.37-.26.62-.6.92-.77,1.07-.51.45-1.01.62-1.26.7-.75.25-1.4.25-1.72.25h-1.73Z"/>
      <path class="cls-2" d="M247.93,128.35c0-.99-.18-1.52-.27-1.78-.27-.79-.6-1.15-.77-1.33-.49-.54-.97-.74-1.2-.84-.71-.29-1.28-.29-1.58-.29-.86,0-1.33.2-1.57.29-.7.29-1.04.66-1.2.84-.5.54-.68,1.07-.77,1.33-.27.79-.27,1.45-.27,1.78,0,.99.18,1.51.27,1.77.27.78.6,1.15.77,1.33.5.54.97.74,1.2.83.71.29,1.28.29,1.57.29.87,0,1.34-.19,1.58-.29.71-.29,1.04-.65,1.2-.83.49-.54.67-1.07.77-1.33.27-.78.27-1.44.27-1.77ZM249.42,128.35c0,1.21-.25,1.88-.38,2.22-.38,1.01-.85,1.49-1.08,1.74-.7.73-1.35.99-1.68,1.13-.98.4-1.77.4-2.16.4-1.18,0-1.83-.27-2.16-.4-.98-.4-1.44-.89-1.67-1.13-.7-.73-.95-1.4-1.08-1.74-.38-1.01-.38-1.81-.38-2.22,0-1.21.26-1.88.38-2.22.38-1.01.85-1.5,1.08-1.74.7-.73,1.35-1,1.67-1.14.97-.4,1.77-.4,2.16-.4,1.18,0,1.84.27,2.16.4.98.41,1.44.89,1.68,1.14.7.73.95,1.4,1.08,1.74.38,1.01.38,1.81.38,2.22Z"/>
      <path class="cls-2" d="M256.7,129.83c.1.18.16.31.18.38.08.2.13.33.15.4.07-.21.13-.34.16-.4.08-.19.15-.32.19-.39l3.64-6.61c.1-.17.17-.2.2-.21.1-.04.23-.04.3-.04h1.07v10.75h-1.28v-7.9c0-.16,0-.28,0-.34,0-.18.02-.3.02-.37l-3.68,6.72c-.19.34-.41.34-.53.34h-.21c-.34,0-.46-.23-.52-.34l-3.77-6.74c.02.2.03.32.03.38.01.19.01.29.01.34v7.9h-1.27v-10.75h1.07c.2,0,.27.03.3.04.1.04.17.15.2.21l3.71,6.61Z"/>
      <path class="cls-2" d="M266.81,128.54h1.73c.62,0,.94-.11,1.1-.17.48-.16.69-.36.8-.46.32-.3.43-.57.49-.71.16-.41.16-.74.16-.91,0-1.03-.42-1.41-.63-1.61-.63-.58-1.49-.58-1.92-.58h-1.73v4.42ZM266.81,129.7v4.02h-1.45v-10.75h3.17c1.02,0,1.52.16,1.77.24.75.24,1.08.53,1.25.67.49.43.66.85.74,1.05.24.61.24,1.12.24,1.37,0,.75-.18,1.16-.26,1.37-.26.62-.6.92-.77,1.07-.51.45-1.01.62-1.26.7-.75.25-1.39.25-1.72.25h-1.73Z"/>
      <polygon class="cls-2" points="281 122.97 281 124.16 275.84 124.16 275.84 127.73 280.01 127.73 280.01 128.87 275.84 128.87 275.84 132.53 281 132.53 281 133.72 274.37 133.72 274.37 122.97 281 122.97"/>
      <path class="cls-2" d="M288.59,124.65c-.07.11-.12.15-.14.17-.08.06-.16.06-.2.06-.13,0-.24-.08-.3-.13-.17-.13-.34-.23-.43-.28-.26-.15-.5-.24-.62-.28-.36-.13-.71-.13-.88-.13-.49,0-.74.09-.86.13-.38.13-.54.28-.63.36-.25.22-.34.43-.38.53-.13.3-.13.54-.13.66,0,.45.15.65.22.75.22.3.46.44.58.51.36.21.67.31.83.36.46.15.78.26.95.32.48.16.79.3.95.37.46.21.7.42.83.52.36.32.51.62.58.77.22.46.22.9.22,1.12,0,.71-.16,1.12-.24,1.32-.24.62-.55.92-.7,1.08-.46.46-.91.63-1.13.72-.67.26-1.24.26-1.53.26-1.04,0-1.61-.25-1.9-.38-.86-.38-1.26-.81-1.47-1.02l.42-.69c.06-.08.12-.12.15-.14.09-.06.16-.06.19-.06.16,0,.29.11.36.17.2.17.4.3.51.37.3.2.59.32.73.37.43.17.85.17,1.05.17.52,0,.79-.09.92-.14.41-.14.59-.32.69-.4.28-.26.38-.5.43-.62.15-.36.15-.66.15-.8,0-.49-.15-.7-.22-.8-.22-.31-.46-.45-.58-.52-.36-.21-.67-.31-.82-.36-.46-.15-.78-.25-.95-.3-.48-.15-.79-.29-.95-.36-.46-.2-.7-.42-.82-.52-.36-.32-.51-.65-.58-.81-.22-.48-.22-.96-.22-1.2,0-.57.15-.93.22-1.1.22-.53.5-.81.64-.95.42-.41.83-.58,1.04-.66.62-.25,1.15-.25,1.42-.25.9,0,1.4.19,1.64.28.74.29,1.11.65,1.3.83l-.35.69Z"/>
      <path class="cls-2" d="M301.76,128.35c0-.99-.18-1.51-.27-1.77-.27-.78-.6-1.14-.76-1.32-.49-.54-.97-.73-1.2-.82-.71-.29-1.28-.29-1.57-.29h-2.56v8.39h2.56c.86,0,1.33-.19,1.57-.29.71-.28,1.03-.64,1.2-.82.49-.54.67-1.06.76-1.32.27-.78.27-1.44.27-1.77ZM303.25,128.35c0,1.21-.26,1.87-.38,2.2-.38.99-.85,1.46-1.08,1.7-.7.7-1.35.96-1.67,1.09-.97.39-1.76.39-2.16.39h-4.02v-10.75h4.02c1.18,0,1.84.26,2.16.39.98.39,1.44.86,1.67,1.1.7.71.95,1.37,1.08,1.7.38.99.38,1.79.38,2.2Z"/>
      <polygon class="cls-2" points="311.85 122.97 311.85 124.16 306.69 124.16 306.69 127.73 310.87 127.73 310.87 128.87 306.69 128.87 306.69 132.53 311.85 132.53 311.85 133.72 305.23 133.72 305.23 122.97 311.85 122.97"/>
      <polygon class="cls-2" points="323.46 122.97 323.46 124.16 318.3 124.16 318.3 127.91 322.71 127.91 322.71 129.1 318.3 129.1 318.3 133.72 316.84 133.72 316.84 122.97 323.46 122.97"/>
      <rect class="cls-2" x="325.6" y="122.97" width="1.45" height="10.75"/>
      <polygon class="cls-2" points="331.39 132.5 336.04 132.5 336.04 133.72 329.93 133.72 329.93 122.97 331.39 122.97 331.39 132.5"/>
      <polygon class="cls-2" points="343.67 122.97 343.67 124.19 340.2 124.19 340.2 133.72 338.75 133.72 338.75 124.19 335.26 124.19 335.26 122.97 343.67 122.97"/>
      <path class="cls-2" d="M346.8,128.18h1.52c.64,0,.96-.1,1.12-.15.48-.15.7-.34.81-.43.33-.28.44-.54.49-.67.16-.39.16-.71.16-.86,0-.96-.42-1.29-.63-1.45-.63-.49-1.47-.49-1.89-.49h-1.59v4.06ZM346.8,129.23v4.48h-1.45v-10.75h3.04c1.02,0,1.52.14,1.76.21.74.21,1.07.47,1.23.6.48.39.64.76.72.94.23.55.23,1.01.23,1.23,0,.57-.12.9-.18,1.07-.18.49-.41.76-.52.89-.34.39-.67.58-.83.67-.49.28-.91.37-1.11.42.27.16.41.36.48.46l3.13,4.27h-1.29c-.4,0-.52-.21-.59-.31l-2.79-3.84c-.13-.18-.23-.23-.28-.26-.15-.08-.35-.08-.45-.08h-1.1Z"/>
      <path class="cls-2" d="M356.66,129.73h4.01l-1.69-4.37c-.16-.41-.27-.81-.32-1.01-.08.31-.13.48-.16.57-.08.26-.13.39-.15.45l-1.69,4.36ZM363.71,133.72h-1.12c-.19,0-.28-.07-.31-.1-.12-.1-.16-.2-.18-.25l-1.01-2.6h-4.82l-1.01,2.6c-.05.13-.14.2-.18.24-.13.1-.25.1-.32.1h-1.12l4.3-10.75h1.48l4.3,10.75Z"/>
      <polygon class="cls-2" points="371.39 122.97 371.39 124.19 367.92 124.19 367.92 133.72 366.47 133.72 366.47 124.19 362.98 124.19 362.98 122.97 371.39 122.97"/>
      <rect class="cls-2" x="373.19" y="122.97" width="1.45" height="10.75"/>
      <path class="cls-2" d="M386.02,128.35c0-.99-.18-1.52-.27-1.78-.27-.79-.6-1.15-.77-1.33-.49-.54-.96-.74-1.2-.84-.7-.29-1.29-.29-1.57-.29-.86,0-1.33.2-1.57.29-.71.29-1.04.66-1.2.84-.5.54-.68,1.07-.77,1.33-.27.79-.27,1.45-.27,1.78,0,.99.18,1.51.27,1.77.27.78.6,1.15.77,1.33.5.54.97.74,1.2.83.7.29,1.28.29,1.57.29.87,0,1.34-.19,1.57-.29.7-.29,1.04-.65,1.2-.83.49-.54.68-1.07.77-1.33.27-.78.27-1.44.27-1.77ZM387.51,128.35c0,1.21-.26,1.88-.38,2.22-.38,1.01-.85,1.49-1.08,1.74-.7.73-1.35.99-1.68,1.13-.98.4-1.77.4-2.16.4-1.19,0-1.84-.27-2.16-.4-.97-.4-1.44-.89-1.67-1.13-.7-.73-.95-1.4-1.08-1.74-.38-1.01-.38-1.81-.38-2.22,0-1.21.26-1.88.38-2.22.38-1.01.85-1.5,1.08-1.74.7-.73,1.35-1,1.67-1.14.97-.4,1.77-.4,2.16-.4,1.18,0,1.84.27,2.16.4.98.41,1.44.89,1.68,1.14.7.73.95,1.4,1.08,1.74.38,1.01.38,1.81.38,2.22Z"/>
      <path class="cls-2" d="M390.25,122.97c.2,0,.26.03.29.05.09.05.17.15.21.2l6.22,8.1c-.02-.19-.03-.32-.03-.38,0-.18,0-.3,0-.36v-7.61h1.28v10.75h-.74c-.17,0-.25-.04-.29-.06-.12-.06-.19-.16-.23-.2l-6.22-8.09c.02.19.02.31.02.37,0,.18,0,.28,0,.33v7.66h-1.28v-10.75h.75Z"/>
      <path class="cls-2" d="M204.09,142.84c1.12,0,1.66.17,1.93.26.81.26,1.16.58,1.34.73.52.47.69.9.78,1.11.25.65.25,1.15.25,1.4,0,.8-.17,1.25-.26,1.47-.26.67-.62.99-.79,1.15-.53.48-1.07.66-1.34.75-.81.27-1.54.27-1.9.27h-1.42v3.74h-2.25v-10.88h3.67ZM204.09,148.25c1.06,0,1.39-.34,1.55-.51.49-.51.49-1.1.49-1.4,0-.41-.08-.63-.12-.74-.12-.33-.29-.49-.38-.57-.25-.24-.51-.32-.63-.36-.38-.13-.73-.13-.91-.13h-1.42v3.7h1.42Z"/>
      <path class="cls-2" d="M211.85,146.74c.34-.07.54-.09.65-.1.31-.03.51-.03.6-.03.85,0,1.29.17,1.51.26.66.26.95.56,1.1.71.45.45.6.86.67,1.06.23.61.23,1.07.23,1.3,0,.87-.21,1.35-.31,1.59-.31.72-.67,1.06-.85,1.23-.54.51-1.05.7-1.3.8-.75.28-1.35.28-1.65.28-.52,0-.83-.07-.99-.11-.47-.11-.74-.23-.88-.29-.41-.18-.64-.34-.76-.42-.35-.24-.54-.41-.63-.5l.64-.87c.2-.28.42-.28.53-.28.2,0,.33.08.4.12.2.12.36.22.44.27.25.15.47.23.58.27.33.12.65.12.8.12.49,0,.73-.11.85-.16.36-.16.52-.35.6-.44.24-.28.31-.54.35-.67.12-.39.12-.68.12-.83,0-.85-.32-1.16-.48-1.31-.48-.46-1.1-.46-1.41-.46-.76,0-1.27.19-1.52.29l-1.28-.36.91-5.35h5.46v.87c0,.22-.04.34-.06.39-.06.18-.16.26-.21.31-.15.13-.3.18-.38.2-.23.07-.45.07-.56.07h-2.81l-.35,2.05Z"/>
      <path class="cls-2" d="M225.19,152.2v1.52h-6.1v-1.52h2.16v-5.95c0-.2,0-.33,0-.4,0-.2.02-.34.02-.41l-1.42,1.18c-.15.11-.24.13-.29.14-.14.03-.23.01-.27,0-.13-.03-.19-.07-.23-.09-.1-.06-.13-.11-.15-.13l-.65-.88,3.35-2.84h1.7v9.37h1.88Z"/>
      <path class="cls-2" d="M237.85,151.5c.12,0,.18.06.22.1l.57.62c-.66.77-1.29,1.05-1.6,1.19-.94.43-1.83.43-2.27.43-1.16,0-1.79-.27-2.11-.4-.95-.4-1.39-.88-1.61-1.12-.67-.72-.91-1.4-1.03-1.74-.37-1.01-.37-1.82-.37-2.23,0-1.22.26-1.89.39-2.23.39-1.01.87-1.5,1.11-1.74.71-.73,1.38-.99,1.71-1.13.99-.4,1.79-.4,2.19-.4,1.19,0,1.76.24,2.04.37.86.37,1.3.79,1.53,1l-.47.67c-.05.08-.1.11-.12.12-.07.05-.15.05-.2.05-.1,0-.17-.05-.21-.07-.11-.07-.21-.14-.26-.18-.15-.11-.28-.18-.35-.23-.2-.12-.39-.19-.48-.22-.28-.11-.52-.15-.65-.18-.37-.07-.69-.07-.85-.07-.86,0-1.34.2-1.58.3-.72.3-1.06.66-1.23.84-.52.55-.71,1.07-.81,1.34-.29.79-.29,1.44-.29,1.76,0,1.01.19,1.53.29,1.79.29.79.62,1.15.79,1.33.5.54.95.73,1.18.83.68.28,1.21.28,1.47.28.48,0,.74-.04.86-.06.38-.06.6-.14.71-.18.33-.12.51-.24.61-.3.28-.18.47-.35.57-.44.13-.11.21-.11.25-.11Z"/>
      <polygon class="cls-2" points="249.26 153.72 247.8 153.72 247.8 148.83 242.01 148.83 242.01 153.72 240.55 153.72 240.55 142.97 242.01 142.97 242.01 147.76 247.8 147.76 247.8 142.97 249.26 142.97 249.26 153.72"/>
      <path class="cls-2" d="M253.69,149.73h4.01l-1.69-4.37c-.16-.41-.27-.81-.32-1.01-.08.31-.14.48-.16.57-.08.26-.13.39-.15.45l-1.69,4.36ZM260.73,153.72h-1.12c-.19,0-.27-.07-.31-.1-.12-.1-.16-.2-.18-.25l-1.01-2.6h-4.82l-1.01,2.6c-.05.13-.14.2-.18.24-.13.1-.25.1-.32.1h-1.12l4.3-10.75h1.48l4.3,10.75Z"/>
      <path class="cls-2" d="M263.69,148.18h1.52c.64,0,.96-.1,1.12-.15.48-.15.7-.34.81-.43.33-.28.44-.54.49-.67.16-.39.16-.71.16-.86,0-.96-.42-1.29-.63-1.45-.63-.49-1.47-.49-1.89-.49h-1.59v4.06ZM263.69,149.23v4.48h-1.45v-10.75h3.04c1.02,0,1.52.14,1.76.21.74.21,1.07.47,1.23.6.48.39.64.76.72.94.23.55.23,1.01.23,1.23,0,.57-.12.9-.18,1.07-.18.49-.41.76-.52.89-.34.39-.67.58-.83.67-.49.28-.91.37-1.11.42.27.16.41.36.48.46l3.14,4.27h-1.29c-.4,0-.52-.21-.59-.31l-2.79-3.84c-.13-.18-.23-.23-.28-.26-.15-.08-.35-.08-.45-.08h-1.1Z"/>
      <path class="cls-2" d="M276.2,152.66c.43,0,.68-.03.8-.04.36-.04.58-.1.69-.12.32-.08.51-.16.61-.2.28-.12.47-.22.57-.27v-2.37h-1.66c-.14,0-.2-.05-.23-.08-.09-.08-.09-.16-.09-.2v-.82h3.3v4.12c-.4.29-.7.44-.84.51-.44.22-.77.31-.94.36-.5.15-.88.19-1.07.22-.57.07-1.02.07-1.24.07-1.17,0-1.82-.27-2.15-.4-.97-.4-1.45-.88-1.68-1.12-.71-.72-.97-1.4-1.1-1.74-.39-1.01-.39-1.82-.39-2.23,0-1.23.26-1.91.39-2.24.39-1.01.86-1.49,1.1-1.74.72-.72,1.39-.99,1.73-1.12,1.02-.4,1.86-.4,2.28-.4.64,0,1,.06,1.18.09.55.09.86.21,1.02.27.47.18.73.34.87.43.4.25.63.46.74.57l-.41.66c-.13.2-.26.2-.33.2-.12,0-.22-.05-.26-.08-.19-.11-.34-.21-.42-.26-.23-.15-.46-.24-.57-.29-.33-.14-.64-.2-.79-.24-.45-.1-.87-.1-1.08-.1-.91,0-1.4.2-1.64.3-.73.3-1.08.66-1.25.85-.52.55-.7,1.07-.79,1.34-.28.78-.28,1.43-.28,1.76,0,1.02.19,1.55.29,1.82.29.8.64,1.17.81,1.35.53.55,1.01.75,1.24.85.72.29,1.3.29,1.59.29Z"/>
      <polygon class="cls-2" points="289.04 142.97 289.04 144.16 283.88 144.16 283.88 147.73 288.05 147.73 288.05 148.87 283.88 148.87 283.88 152.53 289.04 152.53 289.04 153.72 282.41 153.72 282.41 142.97 289.04 142.97"/>
      <polygon class="cls-2" points="300.65 142.97 300.65 144.16 295.49 144.16 295.49 147.91 299.9 147.91 299.9 149.1 295.49 149.1 295.49 153.72 294.02 153.72 294.02 142.97 300.65 142.97"/>
      <rect class="cls-2" x="302.78" y="142.97" width="1.45" height="10.75"/>
      <polygon class="cls-2" points="308.57 152.5 313.22 152.5 313.22 153.72 307.12 153.72 307.12 142.97 308.57 142.97 308.57 152.5"/>
      <polygon class="cls-2" points="320.86 142.97 320.86 144.19 317.39 144.19 317.39 153.72 315.93 153.72 315.93 144.19 312.44 144.19 312.44 142.97 320.86 142.97"/>
      <path class="cls-2" d="M323.99,148.18h1.52c.64,0,.96-.1,1.12-.15.48-.15.7-.34.81-.43.33-.28.44-.54.49-.67.16-.39.16-.71.16-.86,0-.96-.42-1.29-.63-1.45-.63-.49-1.47-.49-1.89-.49h-1.59v4.06ZM323.99,149.23v4.48h-1.45v-10.75h3.04c1.02,0,1.52.14,1.76.21.74.21,1.07.47,1.23.6.48.39.64.76.72.94.23.55.23,1.01.23,1.23,0,.57-.12.9-.18,1.07-.18.49-.41.76-.52.89-.34.39-.67.58-.83.67-.49.28-.91.37-1.11.42.27.16.41.36.48.46l3.14,4.27h-1.29c-.4,0-.52-.21-.59-.31l-2.79-3.84c-.13-.18-.23-.23-.28-.26-.15-.08-.35-.08-.45-.08h-1.1Z"/>
      <path class="cls-2" d="M333.85,149.73h4.01l-1.69-4.37c-.17-.41-.27-.81-.32-1.01-.08.31-.14.48-.16.57-.08.26-.13.39-.15.45l-1.69,4.36ZM340.89,153.72h-1.12c-.2,0-.27-.07-.32-.1-.12-.1-.16-.2-.18-.25l-1.01-2.6h-4.82l-1.01,2.6c-.05.13-.14.2-.18.24-.13.1-.25.1-.31.1h-1.12l4.3-10.75h1.48l4.3,10.75Z"/>
      <path class="cls-2" d="M343,142.97c.2,0,.26.03.29.05.09.05.17.15.21.2l6.22,8.1c-.02-.19-.03-.32-.03-.38,0-.18,0-.3,0-.36v-7.61h1.27v10.75h-.73c-.17,0-.25-.04-.29-.06-.12-.06-.19-.16-.23-.2l-6.22-8.09c.01.19.02.31.02.37,0,.18,0,.28,0,.33v7.66h-1.27v-10.75h.75Z"/>
      <polygon class="cls-2" points="360.91 142.97 360.91 144.19 357.44 144.19 357.44 153.72 355.98 153.72 355.98 144.19 352.49 144.19 352.49 142.97 360.91 142.97"/>
      <polygon class="cls-2" points="369.06 142.97 369.06 144.16 363.9 144.16 363.9 147.73 368.08 147.73 368.08 148.87 363.9 148.87 363.9 152.53 369.06 152.53 369.06 153.72 362.44 153.72 362.44 142.97 369.06 142.97"/>
      <path class="cls-2" d="M204.09,162.84c1.12,0,1.66.17,1.93.26.81.26,1.16.58,1.34.73.52.47.69.9.78,1.11.25.65.25,1.15.25,1.4,0,.8-.17,1.25-.26,1.47-.26.67-.62.99-.79,1.15-.53.48-1.07.66-1.34.75-.81.27-1.54.27-1.9.27h-1.42v3.74h-2.25v-10.88h3.67ZM204.09,168.25c1.06,0,1.39-.34,1.55-.51.49-.51.49-1.1.49-1.4,0-.41-.08-.63-.12-.74-.12-.33-.29-.49-.38-.57-.25-.24-.51-.32-.63-.36-.38-.13-.73-.13-.91-.13h-1.42v3.7h1.42Z"/>
      <path class="cls-2" d="M211.85,166.74c.34-.07.54-.09.65-.1.31-.03.51-.03.6-.03.85,0,1.29.17,1.51.26.66.26.95.56,1.1.71.45.45.6.86.67,1.06.23.61.23,1.07.23,1.3,0,.87-.21,1.35-.31,1.59-.31.72-.67,1.06-.85,1.23-.54.51-1.05.7-1.3.8-.75.28-1.35.28-1.65.28-.52,0-.83-.07-.99-.11-.47-.11-.74-.23-.88-.29-.41-.18-.64-.34-.76-.42-.35-.24-.54-.41-.63-.5l.64-.87c.2-.28.42-.28.53-.28.2,0,.33.08.4.12.2.12.36.22.44.27.25.15.47.23.58.27.33.12.65.12.8.12.49,0,.73-.11.85-.16.36-.16.52-.35.6-.44.24-.28.31-.54.35-.67.12-.39.12-.68.12-.83,0-.85-.32-1.16-.48-1.31-.48-.46-1.1-.46-1.41-.46-.76,0-1.27.19-1.52.29l-1.28-.36.91-5.35h5.46v.87c0,.22-.04.34-.06.39-.06.18-.16.26-.21.31-.15.13-.3.18-.38.2-.23.07-.45.07-.56.07h-2.81l-.35,2.05Z"/>
      <path class="cls-2" d="M218.12,165.9c.12-.79.34-1.2.45-1.4.33-.6.66-.86.83-1,.49-.4.92-.53,1.13-.6.63-.2,1.12-.2,1.37-.2.78,0,1.19.15,1.4.22.62.22.9.48,1.05.6.43.38.58.72.66.89.23.51.23.9.23,1.09,0,.52-.07.78-.11.91-.11.39-.25.59-.32.69-.21.29-.42.43-.52.5-.31.2-.58.29-.72.34,1.88.61,1.88,1.87,1.88,2.5,0,.83-.21,1.26-.31,1.47-.31.63-.65.92-.82,1.06-.52.43-.98.57-1.2.64-.69.21-1.19.21-1.44.21-.79,0-1.2-.12-1.4-.18-.61-.18-.91-.42-1.07-.54-.46-.36-.68-.72-.79-.9-.33-.54-.49-1.03-.58-1.27l.92-.38c.36-.15.57-.1.67-.08.31.07.4.24.45.33.15.29.26.45.32.53.17.24.31.36.38.42.21.18.39.24.48.27.27.1.5.1.61.1.43,0,.65-.09.76-.14.32-.14.47-.3.54-.37.22-.23.29-.42.33-.52.11-.29.11-.48.11-.57,0-.38-.05-.58-.07-.68-.07-.3-.23-.45-.31-.52-.24-.21-.56-.29-.72-.33-.48-.12-1.02-.12-1.29-.12v-1.45c.68,0,.97-.08,1.12-.11.43-.11.6-.25.68-.31.25-.2.31-.39.34-.49.09-.28.09-.51.09-.62,0-.71-.25-.96-.37-1.09-.37-.38-.83-.38-1.05-.38-.3,0-.47.06-.55.09-.25.09-.38.19-.45.24-.2.15-.29.28-.34.35-.14.2-.19.36-.21.44-.14.38-.29.46-.37.5-.23.12-.51.08-.65.06l-1.09-.2Z"/>
      <path class="cls-2" d="M237.85,171.5c.12,0,.18.06.22.1l.57.62c-.66.77-1.29,1.05-1.6,1.19-.94.43-1.83.43-2.27.43-1.16,0-1.79-.27-2.11-.4-.95-.4-1.39-.88-1.61-1.12-.67-.72-.91-1.4-1.03-1.74-.37-1.01-.37-1.82-.37-2.23,0-1.22.26-1.89.39-2.23.39-1.01.87-1.5,1.11-1.74.71-.73,1.38-.99,1.71-1.13.99-.4,1.79-.4,2.19-.4,1.19,0,1.76.24,2.04.37.86.37,1.3.79,1.53,1l-.47.67c-.05.08-.1.11-.12.12-.07.05-.15.05-.2.05-.1,0-.17-.05-.21-.07-.11-.07-.21-.14-.26-.18-.15-.11-.28-.18-.35-.23-.2-.12-.39-.19-.48-.22-.28-.11-.52-.15-.65-.18-.37-.07-.69-.07-.85-.07-.86,0-1.34.2-1.58.3-.72.3-1.06.66-1.23.84-.52.55-.71,1.07-.81,1.34-.29.79-.29,1.44-.29,1.76,0,1.01.19,1.53.29,1.79.29.79.62,1.15.79,1.33.5.54.95.73,1.18.83.68.28,1.21.28,1.47.28.48,0,.74-.04.86-.06.38-.06.6-.14.71-.18.33-.12.51-.24.61-.3.28-.18.47-.35.57-.44.13-.11.21-.11.25-.11Z"/>
      <path class="cls-2" d="M249.04,168.35c0-.99-.18-1.52-.27-1.78-.27-.79-.6-1.15-.77-1.33-.49-.54-.96-.74-1.2-.84-.7-.29-1.28-.29-1.57-.29-.86,0-1.33.2-1.57.29-.71.29-1.04.66-1.2.84-.5.54-.68,1.07-.77,1.33-.27.79-.27,1.45-.27,1.78,0,.99.18,1.51.27,1.77.27.78.6,1.15.77,1.33.5.54.97.74,1.2.83.7.29,1.28.29,1.57.29.87,0,1.34-.19,1.57-.29.71-.29,1.04-.65,1.2-.83.49-.54.67-1.07.77-1.33.27-.78.27-1.44.27-1.77ZM250.53,168.35c0,1.21-.26,1.88-.38,2.22-.38,1.01-.85,1.49-1.08,1.74-.7.73-1.35.99-1.68,1.13-.98.4-1.77.4-2.16.4-1.19,0-1.84-.27-2.16-.4-.97-.4-1.44-.89-1.67-1.13-.7-.73-.95-1.4-1.08-1.74-.38-1.01-.38-1.81-.38-2.22,0-1.21.26-1.88.38-2.22.38-1.01.85-1.5,1.08-1.74.7-.73,1.35-1,1.67-1.14.97-.4,1.77-.4,2.16-.4,1.18,0,1.84.27,2.16.4.98.41,1.44.89,1.68,1.14.7.73.95,1.4,1.08,1.74.38,1.01.38,1.81.38,2.22Z"/>
      <polygon class="cls-2" points="259.14 162.97 259.14 164.16 253.98 164.16 253.98 167.91 258.39 167.91 258.39 169.1 253.98 169.1 253.98 173.72 252.52 173.72 252.52 162.97 259.14 162.97"/>
      <polygon class="cls-2" points="267.63 162.97 267.63 164.16 262.47 164.16 262.47 167.91 266.88 167.91 266.88 169.1 262.47 169.1 262.47 173.72 261.01 173.72 261.01 162.97 267.63 162.97"/>
      <path class="cls-2" d="M271.1,168.18h1.52c.64,0,.96-.1,1.12-.15.48-.15.7-.34.81-.43.33-.28.44-.54.49-.67.16-.39.16-.71.16-.86,0-.96-.42-1.29-.63-1.45-.63-.49-1.47-.49-1.89-.49h-1.59v4.06ZM271.1,169.23v4.48h-1.45v-10.75h3.04c1.02,0,1.52.14,1.76.21.74.21,1.07.47,1.23.6.48.39.64.76.72.94.23.55.23,1.01.23,1.23,0,.57-.12.9-.18,1.07-.18.49-.41.76-.52.89-.34.39-.67.58-.83.67-.49.28-.91.37-1.11.42.27.16.41.36.48.46l3.14,4.27h-1.29c-.4,0-.52-.21-.58-.31l-2.79-3.84c-.13-.18-.23-.23-.28-.26-.15-.08-.35-.08-.45-.08h-1.1Z"/>
      <polygon class="cls-2" points="285.78 162.97 285.78 164.16 280.62 164.16 280.62 167.73 284.8 167.73 284.8 168.87 280.62 168.87 280.62 172.53 285.78 172.53 285.78 173.72 279.16 173.72 279.16 162.97 285.78 162.97"/>
      <polygon class="cls-2" points="295.19 162.97 295.19 164.19 291.72 164.19 291.72 173.72 290.27 173.72 290.27 164.19 286.78 164.19 286.78 162.97 295.19 162.97"/>
      <path class="cls-2" d="M302.23,164.65c-.07.11-.12.15-.14.17-.08.06-.16.06-.2.06-.13,0-.24-.08-.3-.13-.17-.13-.34-.23-.43-.28-.26-.15-.5-.24-.62-.28-.36-.13-.71-.13-.88-.13-.49,0-.74.09-.86.13-.38.13-.54.28-.63.36-.25.22-.34.43-.38.53-.13.3-.13.54-.13.66,0,.45.15.65.22.75.22.3.46.44.59.51.36.21.67.31.83.36.46.15.78.26.95.32.48.16.79.3.95.37.46.21.7.42.82.52.36.32.51.62.59.77.22.46.22.9.22,1.12,0,.71-.16,1.12-.24,1.32-.24.62-.55.92-.7,1.08-.46.46-.91.63-1.13.72-.67.26-1.24.26-1.53.26-1.04,0-1.62-.25-1.9-.38-.86-.38-1.26-.81-1.47-1.02l.42-.69c.06-.08.12-.12.15-.14.09-.06.16-.06.19-.06.16,0,.29.11.36.17.2.17.4.3.51.37.3.2.59.32.73.37.43.17.85.17,1.05.17.52,0,.79-.09.92-.14.41-.14.59-.32.69-.4.28-.26.38-.5.43-.62.15-.36.15-.66.15-.8,0-.49-.15-.7-.22-.8-.22-.31-.46-.45-.58-.52-.36-.21-.67-.31-.82-.36-.46-.15-.78-.25-.95-.3-.48-.15-.79-.29-.94-.36-.46-.2-.7-.42-.82-.52-.36-.32-.51-.65-.58-.81-.22-.48-.22-.96-.22-1.2,0-.57.15-.93.22-1.1.22-.53.5-.81.64-.95.42-.41.83-.58,1.04-.66.62-.25,1.15-.25,1.42-.25.9,0,1.4.19,1.64.28.74.29,1.11.65,1.3.83l-.35.69Z"/>
      <path class="cls-2" d="M313.53,160.35l-2.21,1.62c-.13.09-.19.11-.22.12-.1.03-.2.03-.26.03h-1.04l1.58-1.52c.08-.08.12-.1.14-.12.06-.04.11-.07.13-.08.07-.03.12-.04.15-.04.08-.01.17-.01.21-.01h1.51ZM314.19,162.97v1.18h-5.16v3.57h4.18v1.14h-4.18v3.67h5.16v1.18h-6.62v-10.75h6.62Z"/>
      <polygon class="cls-2" points="317.74 172.5 322.39 172.5 322.39 173.72 316.28 173.72 316.28 162.97 317.74 162.97 317.74 172.5"/>
      <polygon class="cls-2" points="330.62 162.97 330.62 164.16 325.46 164.16 325.46 167.73 329.63 167.73 329.63 168.87 325.46 168.87 325.46 172.53 330.62 172.53 330.62 173.72 323.99 173.72 323.99 162.97 330.62 162.97"/>
      <path class="cls-2" d="M340.28,171.5c.12,0,.18.06.22.1l.57.62c-.66.77-1.29,1.05-1.6,1.19-.94.43-1.83.43-2.27.43-1.16,0-1.79-.27-2.11-.4-.95-.4-1.39-.88-1.61-1.12-.67-.72-.91-1.4-1.03-1.74-.37-1.01-.37-1.82-.37-2.23,0-1.22.26-1.89.39-2.23.39-1.01.87-1.5,1.11-1.74.71-.73,1.38-.99,1.71-1.13.99-.4,1.79-.4,2.19-.4,1.18,0,1.76.24,2.04.37.86.37,1.3.79,1.53,1l-.47.67c-.05.08-.1.11-.12.12-.07.05-.15.05-.2.05-.1,0-.17-.05-.21-.07-.11-.07-.21-.14-.26-.18-.15-.11-.28-.18-.35-.23-.2-.12-.39-.19-.48-.22-.28-.11-.52-.15-.65-.18-.37-.07-.69-.07-.85-.07-.86,0-1.34.2-1.58.3-.72.3-1.06.66-1.23.84-.52.55-.71,1.07-.81,1.34-.29.79-.29,1.44-.29,1.76,0,1.01.19,1.53.29,1.79.29.79.62,1.15.79,1.33.5.54.95.73,1.18.83.68.28,1.21.28,1.47.28.48,0,.73-.04.86-.06.38-.06.6-.14.71-.18.33-.12.51-.24.61-.3.28-.18.47-.35.57-.44.13-.11.21-.11.25-.11Z"/>
      <polygon class="cls-2" points="350.3 162.97 350.3 164.19 346.83 164.19 346.83 173.72 345.38 173.72 345.38 164.19 341.89 164.19 341.89 162.97 350.3 162.97"/>
      <path class="cls-2" d="M353.43,168.18h1.52c.64,0,.96-.1,1.12-.15.48-.15.7-.34.81-.43.33-.28.44-.54.49-.67.17-.39.17-.71.17-.86,0-.96-.42-1.29-.63-1.45-.63-.49-1.47-.49-1.89-.49h-1.59v4.06ZM353.43,169.23v4.48h-1.45v-10.75h3.04c1.02,0,1.52.14,1.76.21.74.21,1.07.47,1.23.6.48.39.64.76.72.94.23.55.23,1.01.23,1.23,0,.57-.12.9-.18,1.07-.18.49-.41.76-.52.89-.34.39-.67.58-.83.67-.49.28-.91.37-1.11.42.27.16.41.36.48.46l3.14,4.27h-1.29c-.4,0-.52-.21-.58-.31l-2.79-3.84c-.13-.18-.23-.23-.28-.26-.15-.08-.35-.08-.45-.08h-1.1Z"/>
      <rect class="cls-2" x="361.76" y="162.97" width="1.46" height="10.75"/>
      <path class="cls-2" d="M374.59,168.35c0-.99-.18-1.52-.27-1.78-.27-.79-.6-1.15-.77-1.33-.49-.54-.96-.74-1.2-.84-.71-.29-1.29-.29-1.58-.29-.86,0-1.33.2-1.57.29-.7.29-1.04.66-1.2.84-.5.54-.68,1.07-.77,1.33-.27.79-.27,1.45-.27,1.78,0,.99.18,1.51.27,1.77.27.78.6,1.15.77,1.33.5.54.97.74,1.2.83.71.29,1.28.29,1.57.29.87,0,1.34-.19,1.58-.29.7-.29,1.03-.65,1.2-.83.49-.54.68-1.07.77-1.33.27-.78.27-1.44.27-1.77ZM376.08,168.35c0,.76-.1,1.21-.15,1.44-.15.68-.35,1.08-.45,1.27-.29.59-.57.91-.71,1.07-.42.48-.77.72-.94.83l2.76,2.98h-1.2c-.27,0-.41-.05-.48-.07-.21-.08-.32-.2-.38-.26l-1.89-2.05c-.43.14-.73.18-.89.21-.46.08-.8.08-.96.08-1.18,0-1.83-.27-2.16-.4-.98-.4-1.44-.89-1.67-1.13-.7-.73-.95-1.4-1.08-1.74-.38-1.01-.38-1.81-.38-2.22,0-1.21.26-1.88.38-2.22.38-1.01.85-1.5,1.08-1.74.7-.73,1.35-1,1.67-1.14.97-.4,1.77-.4,2.16-.4,1.19,0,1.84.27,2.16.4.98.41,1.44.89,1.68,1.14.7.73.95,1.4,1.08,1.74.38,1.01.38,1.81.38,2.22Z"/>
      <path class="cls-2" d="M382.25,172.56c.67,0,1.02-.15,1.19-.22.53-.22.77-.49.89-.63.36-.4.49-.78.55-.97.19-.56.19-1.01.19-1.24v-6.53h1.45v6.53c0,.93-.2,1.46-.3,1.73-.3.79-.66,1.18-.85,1.38-.55.58-1.08.8-1.35.91-.8.33-1.46.33-1.79.33-.99,0-1.52-.22-1.79-.33-.79-.33-1.16-.72-1.35-.91-.55-.58-.75-1.11-.85-1.38-.3-.79-.3-1.42-.3-1.73v-6.53h1.45v6.53c0,.67.13,1.05.19,1.24.19.56.43.83.55.97.36.41.72.56.89.63.53.23.97.23,1.2.23Z"/>
      <polygon class="cls-2" points="395.64 162.97 395.64 164.16 390.48 164.16 390.48 167.73 394.66 167.73 394.66 168.87 390.48 168.87 390.48 172.53 395.64 172.53 395.64 173.72 389.02 173.72 389.02 162.97 395.64 162.97"/>
      <path class="cls-2" d="M403.24,164.65c-.07.11-.12.15-.14.17-.07.06-.15.06-.19.06-.13,0-.24-.08-.3-.13-.17-.13-.34-.23-.43-.28-.26-.15-.5-.24-.62-.28-.36-.13-.71-.13-.88-.13-.49,0-.74.09-.86.13-.38.13-.54.28-.63.36-.25.22-.34.43-.38.53-.13.3-.13.54-.13.66,0,.45.15.65.22.75.22.3.46.44.58.51.36.21.67.31.82.36.46.15.78.26.95.32.48.16.79.3.94.37.46.21.7.42.83.52.36.32.51.62.58.77.22.46.22.9.22,1.12,0,.71-.16,1.12-.24,1.32-.24.62-.55.92-.7,1.08-.46.46-.91.63-1.13.72-.67.26-1.24.26-1.53.26-1.04,0-1.61-.25-1.9-.38-.86-.38-1.26-.81-1.47-1.02l.42-.69c.06-.08.12-.12.15-.14.09-.06.16-.06.19-.06.16,0,.29.11.36.17.2.17.41.3.51.37.3.2.59.32.74.37.43.17.85.17,1.05.17.52,0,.79-.09.92-.14.41-.14.59-.32.69-.4.28-.26.38-.5.43-.62.15-.36.15-.66.15-.8,0-.49-.15-.7-.22-.8-.22-.31-.46-.45-.58-.52-.36-.21-.67-.31-.82-.36-.46-.15-.78-.25-.95-.3-.48-.15-.79-.29-.94-.36-.46-.2-.7-.42-.82-.52-.36-.32-.51-.65-.58-.81-.22-.48-.22-.96-.22-1.2,0-.57.15-.93.22-1.1.22-.53.5-.81.64-.95.42-.41.83-.58,1.04-.66.62-.25,1.15-.25,1.42-.25.9,0,1.4.19,1.64.28.74.29,1.11.65,1.3.83l-.35.69Z"/>
      <path class="cls-2" d="M204.09,182.84c1.12,0,1.66.17,1.93.26.81.26,1.16.58,1.34.73.52.47.69.9.78,1.11.25.65.25,1.15.25,1.4,0,.8-.17,1.25-.26,1.47-.26.67-.62.99-.79,1.15-.53.48-1.07.66-1.34.75-.81.27-1.54.27-1.9.27h-1.42v3.74h-2.25v-10.88h3.67ZM204.09,188.25c1.06,0,1.39-.34,1.55-.51.49-.51.49-1.1.49-1.4,0-.41-.08-.63-.12-.74-.12-.33-.29-.49-.38-.57-.25-.24-.51-.32-.63-.36-.38-.13-.73-.13-.91-.13h-1.42v3.7h1.42Z"/>
      <path class="cls-2" d="M211.85,186.74c.34-.07.54-.09.65-.1.31-.03.51-.03.6-.03.85,0,1.29.17,1.51.26.66.26.95.56,1.1.71.45.45.6.86.67,1.06.23.61.23,1.07.23,1.3,0,.87-.21,1.35-.31,1.59-.31.72-.67,1.06-.85,1.23-.54.51-1.05.7-1.3.8-.75.28-1.35.28-1.65.28-.52,0-.83-.07-.99-.11-.47-.11-.74-.23-.88-.29-.41-.18-.64-.34-.76-.42-.35-.24-.54-.41-.63-.5l.64-.87c.2-.28.42-.28.53-.28.2,0,.33.08.4.12.2.12.36.22.44.27.25.15.47.23.58.27.33.12.65.12.8.12.49,0,.73-.11.85-.16.36-.16.52-.35.6-.44.24-.28.31-.54.35-.67.12-.39.12-.68.12-.83,0-.85-.32-1.16-.48-1.31-.48-.46-1.1-.46-1.41-.46-.76,0-1.27.19-1.52.29l-1.28-.36.91-5.35h5.46v.87c0,.22-.04.34-.06.39-.06.18-.16.26-.21.31-.15.13-.3.18-.38.2-.23.07-.45.07-.56.07h-2.81l-.35,2.05Z"/>
      <path class="cls-2" d="M220.55,186.74c.34-.07.54-.09.65-.1.31-.03.51-.03.6-.03.85,0,1.29.17,1.51.26.66.26.95.56,1.1.71.45.45.6.86.67,1.06.22.61.22,1.07.22,1.3,0,.87-.2,1.35-.31,1.59-.31.72-.67,1.06-.85,1.23-.54.51-1.05.7-1.3.8-.75.28-1.35.28-1.65.28-.52,0-.83-.07-.99-.11-.47-.11-.74-.23-.88-.29-.41-.18-.64-.34-.76-.42-.35-.24-.54-.41-.63-.5l.64-.87c.2-.28.42-.28.53-.28.2,0,.33.08.4.12.2.12.36.22.44.27.25.15.47.23.58.27.33.12.65.12.8.12.49,0,.73-.11.85-.16.36-.16.52-.35.6-.44.24-.28.31-.54.35-.67.12-.39.12-.68.12-.83,0-.85-.32-1.16-.48-1.31-.48-.46-1.1-.46-1.41-.46-.76,0-1.27.19-1.52.29l-1.28-.36.91-5.35h5.46v.87c0,.22-.04.34-.06.39-.06.18-.16.26-.21.31-.15.13-.3.18-.38.2-.23.07-.45.07-.56.07h-2.81l-.35,2.05Z"/>
      <path class="cls-2" d="M231.87,188.54h1.73c.62,0,.94-.11,1.1-.17.48-.16.69-.36.8-.46.32-.3.43-.57.49-.71.17-.41.17-.74.17-.91,0-1.03-.42-1.41-.63-1.61-.63-.58-1.49-.58-1.92-.58h-1.73v4.42ZM231.87,189.7v4.02h-1.45v-10.75h3.17c1.02,0,1.52.16,1.77.24.75.24,1.08.53,1.25.67.49.43.66.85.74,1.05.24.61.24,1.12.24,1.37,0,.75-.18,1.16-.26,1.37-.26.62-.6.92-.77,1.07-.51.45-1.01.62-1.26.7-.75.25-1.4.25-1.72.25h-1.73Z"/>
      <polygon class="cls-2" points="240.89 192.5 245.54 192.5 245.54 193.72 239.44 193.72 239.44 182.97 240.89 182.97 240.89 192.5"/>
      <path class="cls-2" d="M255.04,188.35c0-.99-.18-1.52-.27-1.78-.27-.79-.6-1.15-.77-1.33-.49-.54-.96-.74-1.2-.84-.7-.29-1.28-.29-1.57-.29-.86,0-1.33.2-1.57.29-.71.29-1.04.66-1.2.84-.5.54-.68,1.07-.77,1.33-.27.79-.27,1.45-.27,1.78,0,.99.18,1.51.27,1.77.27.78.6,1.15.77,1.33.5.54.97.74,1.2.83.7.29,1.28.29,1.57.29.87,0,1.34-.19,1.57-.29.71-.29,1.04-.65,1.2-.83.49-.54.67-1.07.77-1.33.27-.78.27-1.44.27-1.77ZM256.53,188.35c0,1.21-.26,1.88-.38,2.22-.38,1.01-.85,1.49-1.08,1.74-.7.73-1.35.99-1.68,1.13-.98.4-1.77.4-2.16.4-1.19,0-1.84-.27-2.16-.4-.97-.4-1.44-.89-1.67-1.13-.7-.73-.95-1.4-1.08-1.74-.38-1.01-.38-1.81-.38-2.22,0-1.21.26-1.88.38-2.22.38-1.01.85-1.5,1.08-1.74.7-.73,1.35-1,1.67-1.14.97-.4,1.77-.4,2.16-.4,1.18,0,1.84.27,2.16.4.98.41,1.44.89,1.68,1.14.7.73.95,1.4,1.08,1.74.38,1.01.38,1.81.38,2.22Z"/>
      <path class="cls-2" d="M263.81,189.83c.11.18.16.31.18.38.08.2.13.33.15.4.08-.21.13-.34.16-.4.08-.19.15-.32.19-.39l3.64-6.61c.1-.17.17-.2.2-.21.1-.04.23-.04.3-.04h1.07v10.75h-1.28v-7.9c0-.16,0-.28,0-.34,0-.18.02-.3.02-.37l-3.68,6.72c-.19.34-.41.34-.53.34h-.21c-.34,0-.46-.23-.53-.34l-3.77-6.74c.02.2.03.32.03.38.01.19.01.29.01.34v7.9h-1.27v-10.75h1.07c.2,0,.26.03.3.04.1.04.17.15.2.21l3.71,6.61Z"/>
      <path class="cls-2" d="M273.77,187.79h1.92c.61,0,.91-.09,1.07-.14.45-.14.65-.29.75-.38.3-.24.39-.47.44-.58.14-.34.14-.61.14-.75,0-.95-.38-1.24-.57-1.39-.57-.44-1.37-.44-1.77-.44h-1.97v3.67ZM273.77,188.82v3.74h2.33c.62,0,.92-.09,1.07-.14.45-.14.64-.32.73-.4.29-.26.38-.5.42-.61.14-.36.14-.64.14-.78,0-.83-.39-1.16-.59-1.32-.59-.48-1.38-.48-1.78-.48h-2.32ZM272.32,193.72v-10.75h3.43c.99,0,1.47.13,1.71.2.72.2,1.02.43,1.18.55.46.36.61.71.68.88.22.52.22.96.22,1.17,0,.4-.08.64-.12.77-.12.37-.29.58-.38.68-.25.32-.5.48-.63.56-.38.25-.72.35-.89.4,1.18.23,1.58.64,1.78.85.6.61.6,1.28.6,1.62,0,.68-.17,1.06-.25,1.24-.25.56-.57.83-.73.97-.48.4-.95.55-1.18.63-.7.22-1.3.22-1.6.22h-3.8Z"/>
      <polygon class="cls-2" points="288.65 182.97 288.65 184.16 283.49 184.16 283.49 187.73 287.66 187.73 287.66 188.87 283.49 188.87 283.49 192.53 288.65 192.53 288.65 193.72 282.02 193.72 282.02 182.97 288.65 182.97"/>
      <path class="cls-2" d="M292.34,188.18h1.52c.64,0,.96-.1,1.12-.15.48-.15.7-.34.81-.43.33-.28.44-.54.49-.67.16-.39.16-.71.16-.86,0-.96-.42-1.29-.63-1.45-.63-.49-1.47-.49-1.89-.49h-1.59v4.06ZM292.34,189.23v4.48h-1.45v-10.75h3.04c1.02,0,1.52.14,1.76.21.74.21,1.07.47,1.23.6.48.39.64.76.72.94.23.55.23,1.01.23,1.23,0,.57-.12.9-.18,1.07-.18.49-.41.76-.52.89-.34.39-.67.58-.83.67-.49.28-.91.37-1.11.42.27.16.41.36.48.46l3.14,4.27h-1.29c-.4,0-.52-.21-.59-.31l-2.79-3.84c-.13-.18-.23-.23-.28-.26-.15-.08-.35-.08-.45-.08h-1.1Z"/>
      <rect class="cls-2" x="300.67" y="182.97" width="1.46" height="10.75"/>
      <polygon class="cls-2" points="311.63 182.97 311.63 184.16 306.47 184.16 306.47 187.73 310.64 187.73 310.64 188.87 306.47 188.87 306.47 192.53 311.63 192.53 311.63 193.72 305 193.72 305 182.97 311.63 182.97"/>
      <path class="cls-2" d="M204.09,202.84c1.12,0,1.66.17,1.93.26.81.26,1.16.58,1.34.73.52.47.69.9.78,1.11.25.65.25,1.15.25,1.4,0,.8-.17,1.25-.26,1.47-.26.67-.62.99-.79,1.15-.53.48-1.07.66-1.34.75-.81.27-1.54.27-1.9.27h-1.42v3.74h-2.25v-10.88h3.67ZM204.09,208.25c1.06,0,1.39-.34,1.55-.51.49-.51.49-1.1.49-1.4,0-.41-.08-.63-.12-.74-.12-.33-.29-.49-.38-.57-.25-.24-.51-.32-.63-.36-.38-.13-.73-.13-.91-.13h-1.42v3.7h1.42Z"/>
      <path class="cls-2" d="M211.85,206.74c.34-.07.54-.09.65-.1.31-.03.51-.03.6-.03.85,0,1.29.17,1.51.26.66.26.95.56,1.1.71.45.45.6.86.67,1.06.23.61.23,1.07.23,1.3,0,.87-.21,1.35-.31,1.59-.31.72-.67,1.06-.85,1.23-.54.51-1.05.7-1.3.8-.75.28-1.35.28-1.65.28-.52,0-.83-.07-.99-.11-.47-.11-.74-.23-.88-.29-.41-.18-.64-.34-.76-.42-.35-.24-.54-.41-.63-.5l.64-.87c.2-.28.42-.28.53-.28.2,0,.33.08.4.12.2.12.36.22.44.27.25.15.47.23.58.27.33.12.65.12.8.12.49,0,.73-.11.85-.16.36-.16.52-.35.6-.44.24-.28.31-.54.35-.67.12-.39.12-.68.12-.83,0-.85-.32-1.16-.48-1.31-.48-.46-1.1-.46-1.41-.46-.76,0-1.27.19-1.52.29l-1.28-.36.91-5.35h5.46v.87c0,.22-.04.34-.06.39-.06.18-.16.26-.21.31-.15.13-.3.18-.38.2-.23.07-.45.07-.56.07h-2.81l-.35,2.05Z"/>
      <path class="cls-2" d="M222.18,209.54c.11-.14.18-.23.22-.28.1-.14.17-.22.21-.27-.36.21-.64.28-.78.32-.42.11-.74.11-.9.11-.55,0-.9-.13-1.08-.2-.54-.2-.82-.46-.96-.59-.43-.39-.6-.78-.69-.98-.26-.59-.26-1.12-.26-1.38,0-.73.18-1.16.27-1.38.27-.65.6-.97.77-1.13.49-.48.96-.67,1.19-.77.69-.28,1.26-.28,1.54-.28.86,0,1.31.18,1.54.27.68.27,1,.59,1.15.75.47.48.64.92.73,1.14.26.66.26,1.19.26,1.46,0,.52-.05.83-.08.98-.08.47-.19.75-.24.89-.16.42-.31.68-.38.82-.22.4-.41.65-.5.78l-2.42,3.46c-.15.2-.34.29-.43.33-.28.14-.52.14-.64.14h-1.91l3.41-4.18ZM220,206.13c0,.86.28,1.16.42,1.31.42.45.97.45,1.24.45.41,0,.63-.09.74-.13.33-.13.47-.29.54-.36.22-.23.29-.45.33-.55.12-.32.12-.58.12-.71,0-.43-.09-.64-.13-.75-.13-.33-.28-.48-.36-.55-.23-.22-.44-.3-.54-.34-.32-.12-.57-.12-.7-.12-.39,0-.6.09-.7.13-.31.13-.45.29-.53.37-.22.24-.29.45-.33.56-.12.32-.12.57-.12.7Z"/>
      <path class="cls-2" d="M239.43,208.35c0-.99-.18-1.52-.27-1.78-.27-.79-.6-1.15-.77-1.33-.49-.54-.97-.74-1.2-.84-.71-.29-1.28-.29-1.58-.29-.86,0-1.33.2-1.57.29-.7.29-1.04.66-1.2.84-.5.54-.68,1.07-.77,1.33-.27.79-.27,1.45-.27,1.78,0,.99.18,1.51.27,1.77.27.78.6,1.15.77,1.33.5.54.97.74,1.2.83.71.29,1.28.29,1.57.29.87,0,1.34-.19,1.58-.29.71-.29,1.03-.65,1.2-.83.49-.54.67-1.07.77-1.33.27-.78.27-1.44.27-1.77ZM240.92,208.35c0,1.21-.26,1.88-.38,2.22-.38,1.01-.85,1.49-1.08,1.74-.7.73-1.35.99-1.68,1.13-.98.4-1.77.4-2.16.4-1.18,0-1.83-.27-2.16-.4-.98-.4-1.44-.89-1.67-1.13-.7-.73-.95-1.4-1.08-1.74-.38-1.01-.38-1.81-.38-2.22,0-1.21.26-1.88.38-2.22.38-1.01.85-1.5,1.08-1.74.7-.73,1.35-1,1.67-1.14.97-.4,1.77-.4,2.16-.4,1.18,0,1.84.27,2.16.4.98.41,1.44.89,1.68,1.14.7.73.95,1.4,1.08,1.74.38,1.01.38,1.81.38,2.22Z"/>
      <path class="cls-2" d="M247.09,212.56c.67,0,1.02-.15,1.19-.22.52-.22.77-.49.89-.63.36-.4.49-.78.55-.97.19-.56.19-1.01.19-1.24v-6.53h1.45v6.53c0,.93-.2,1.46-.3,1.73-.3.79-.66,1.18-.85,1.38-.55.58-1.08.8-1.35.91-.79.33-1.46.33-1.78.33-.99,0-1.52-.22-1.79-.33-.79-.33-1.16-.72-1.35-.91-.55-.58-.75-1.11-.85-1.38-.3-.79-.3-1.42-.3-1.73v-6.53h1.45v6.53c0,.67.13,1.05.19,1.24.19.56.43.83.55.97.36.41.72.56.89.63.53.23.97.23,1.2.23Z"/>
      <polygon class="cls-2" points="261.18 202.97 261.18 204.19 257.71 204.19 257.71 213.72 256.25 213.72 256.25 204.19 252.77 204.19 252.77 202.97 261.18 202.97"/>
      <rect class="cls-2" x="262.98" y="202.97" width="1.46" height="10.75"/>
      <polygon class="cls-2" points="268.77 212.5 273.42 212.5 273.42 213.72 267.32 213.72 267.32 202.97 268.77 202.97 268.77 212.5"/>
      <polygon class="cls-2" points="276.48 212.5 281.13 212.5 281.13 213.72 275.03 213.72 275.03 202.97 276.48 202.97 276.48 212.5"/>
      <path class="cls-2" d="M284.54,209.73h4.01l-1.69-4.37c-.16-.41-.27-.81-.32-1.01-.08.31-.14.48-.16.57-.08.26-.13.39-.15.45l-1.69,4.36ZM291.58,213.72h-1.12c-.2,0-.28-.07-.32-.1-.12-.1-.16-.2-.18-.25l-1.01-2.6h-4.82l-1.01,2.6c-.05.13-.14.2-.18.24-.13.1-.25.1-.32.1h-1.12l4.3-10.75h1.48l4.3,10.75Z"/>
      <path class="cls-2" d="M297.41,212.66c.43,0,.68-.03.8-.04.36-.04.58-.1.69-.12.32-.08.51-.16.61-.2.29-.12.47-.22.57-.27v-2.37h-1.66c-.14,0-.2-.05-.23-.08-.09-.08-.09-.16-.09-.2v-.82h3.3v4.12c-.41.29-.7.44-.84.51-.44.22-.77.31-.94.36-.5.15-.88.19-1.07.22-.57.07-1.01.07-1.24.07-1.17,0-1.82-.27-2.14-.4-.98-.4-1.45-.88-1.68-1.12-.7-.72-.97-1.4-1.1-1.74-.39-1.01-.39-1.82-.39-2.23,0-1.23.26-1.91.39-2.24.39-1.01.86-1.49,1.1-1.74.72-.72,1.39-.99,1.73-1.12,1.02-.4,1.86-.4,2.28-.4.64,0,1,.06,1.18.09.55.09.86.21,1.02.27.47.18.73.34.87.43.4.25.63.46.74.57l-.41.66c-.13.2-.26.2-.33.2-.12,0-.21-.05-.26-.08-.19-.11-.34-.21-.42-.26-.23-.15-.46-.24-.57-.29-.33-.14-.64-.2-.79-.24-.45-.1-.87-.1-1.08-.1-.91,0-1.4.2-1.64.3-.73.3-1.08.66-1.25.85-.52.55-.7,1.07-.79,1.34-.28.78-.28,1.43-.28,1.76,0,1.02.19,1.55.29,1.82.29.8.64,1.17.81,1.35.53.55,1.01.75,1.24.85.72.29,1.3.29,1.59.29Z"/>
      <polygon class="cls-2" points="310.25 202.97 310.25 204.16 305.09 204.16 305.09 207.73 309.27 207.73 309.27 208.87 305.09 208.87 305.09 212.53 310.25 212.53 310.25 213.72 303.63 213.72 303.63 202.97 310.25 202.97"/>
    </g>
  </g>
</svg>
