<?xml version="1.0" encoding="UTF-8"?>
<svg xmlns="http://www.w3.org/2000/svg" id="Calque_2" data-name="Calque 2" viewBox="0 0 434.91 227.48" preserveAspectRatio="none" width="434.91" height="227.48">
  <defs>
    <style>
      .cls-1 {
        fill: #1f2b3e;
      }

      .cls-2 {
        fill: #2a2f36;
      }

      .cls-3 {
        fill: #fff;
      }

      .cls-4 {
        fill: #67b1c4;
      }

      .cls-5 {
        fill: #414a95;
      }

      .cls-6 {
        fill: #414a94;
      }

      .cls-7 {
        fill: #9ac181;
      }

      .cls-8 {
        fill: #83c1da;
      }

      .cls-9 {
        fill: #7cb8a0;
      }
    </style>
  </defs>
  <g id="Calque_1-2" data-name="Calque 1">
    <g>
      <rect class="cls-3" x="0" width="434.91" height="227.48"/>
      <path class="cls-1" d="M56.13,65.79h-5.42c-1.52,0-1.97-.77-2.2-1.16l-5.52-8.9c-.34-.52-.61-.68-.75-.76-.41-.24-.94-.24-1.21-.24h-2.04v11.06h-6v-29.02h9.12c3.04,0,4.48.42,5.2.63,2.16.63,3.08,1.38,3.54,1.75,1.38,1.12,1.81,2.15,2.02,2.67.64,1.55.64,2.79.64,3.41,0,1.44-.27,2.3-.41,2.73-.41,1.29-.93,2-1.19,2.35-.78,1.06-1.54,1.61-1.92,1.88-1.14.82-2.11,1.15-2.6,1.32.58.32.91.62,1.08.77.5.45.77.86.9,1.07l6.76,10.44ZM42.07,50.51c1.46,0,2.17-.25,2.52-.37,1.06-.37,1.51-.8,1.74-1.02.68-.65.89-1.24,1-1.53.32-.88.32-1.57.32-1.92,0-2.06-.91-2.82-1.37-3.2-1.37-1.14-3.24-1.14-4.17-1.14h-3.12v9.18h3.08Z"/>
      <polygon class="cls-1" points="68.99 41.47 68.99 48.93 78.67 48.93 78.67 53.47 68.99 53.47 68.99 61.09 81.43 61.09 81.43 65.79 62.95 65.79 62.95 36.77 81.43 36.77 81.43 41.47 68.99 41.47"/>
      <path class="cls-1" d="M115.31,36.77l-11.68,29.02h-5.44l-11.68-29.02h4.84c.78,0,1.11.25,1.27.37.49.37.65.76.73.95l6.28,16.72c.36.94.59,1.68.71,2.05.35,1.11.55,1.92.65,2.33.26-1.22.47-1.96.57-2.33.31-1.11.55-1.74.67-2.05l6.24-16.72c.2-.5.54-.77.71-.91.51-.41,1.02-.41,1.27-.41h4.86Z"/>
      <path class="cls-1" d="M138.99,34.79h-4c-.32,0-.63-.08-.79-.12-.47-.12-.8-.51-.97-.7l-1.36-1.88c-.1-.12-.15-.2-.17-.24-.07-.12-.12-.2-.15-.24-.08.12-.13.2-.15.24-.07.12-.14.2-.17.24l-1.36,1.88c-.5.58-.81.66-.97.7-.47.12-.68.12-.79.12h-3.82l4.84-5.52h5l4.86,5.52ZM128.03,41.47v7.46h9.68v4.54h-9.68v7.62h12.44v4.7h-18.48v-29.02h18.48v4.7h-12.44Z"/>
      <polygon class="cls-1" points="169.49 41.61 161.01 41.61 161.01 65.79 154.99 65.79 154.99 41.61 146.51 41.61 146.51 36.77 169.49 36.77 169.49 41.61"/>
      <polygon class="cls-1" points="183.15 41.47 183.15 48.93 192.83 48.93 192.83 53.47 183.15 53.47 183.15 61.09 195.59 61.09 195.59 65.79 177.11 65.79 177.11 36.77 195.59 36.77 195.59 41.47 183.15 41.47"/>
      <path class="cls-1" d="M236.07,36.77v29.02h-5.3v-17.82c0-.56.02-.99.03-1.2.03-.64.08-1.08.11-1.3l-8.3,15.74c-.68,1.3-1.63,1.3-2.1,1.3h-.84c-.7,0-1.06-.22-1.24-.33-.54-.33-.75-.76-.86-.97l-8.34-15.8c.06.7.09,1.13.1,1.35.04.65.04,1.02.04,1.21v17.82h-5.3v-29.02h4.56c.38,0,.58.01.68.02.3.02.45.08.53.11.23.09.36.22.42.28.19.19.31.42.37.53l8.12,15.48c.38.7.6,1.19.71,1.44.33.74.53,1.26.63,1.52.3-.8.52-1.31.63-1.56.33-.76.58-1.23.71-1.46l8.06-15.42c.18-.34.31-.47.38-.53.2-.19.35-.25.43-.28.23-.09.42-.1.52-.11.29-.02.56-.02.69-.02h4.56Z"/>
      <polygon class="cls-1" points="252.15 41.47 252.15 48.93 261.83 48.93 261.83 53.47 252.15 53.47 252.15 61.09 264.59 61.09 264.59 65.79 246.11 65.79 246.11 36.77 264.59 36.77 264.59 41.47 252.15 41.47"/>
      <path class="cls-1" d="M297.93,36.77v29.02h-3.1c-.7,0-1.02-.15-1.18-.23-.48-.23-.79-.6-.94-.79l-14.46-18.4c.06.7.08,1.15.09,1.38.03.68.03,1.07.03,1.26v16.78h-5.3v-29.02h3.16c.38,0,.56.02.65.03.27.03.42.1.49.14.22.11.35.23.42.29.2.18.36.38.44.48l14.56,18.48c-.08-.76-.11-1.23-.12-1.47-.04-.71-.04-1.14-.04-1.35v-16.6h5.3Z"/>
      <polygon class="cls-1" points="328.53 41.61 320.05 41.61 320.05 65.79 314.03 65.79 314.03 41.61 305.55 41.61 305.55 36.77 328.53 36.77 328.53 41.61"/>
      <rect class="cls-8" x="347.03" y="94.05" width="87.87" height="10.86"/>
      <rect class="cls-5" x="347.03" y="113.7" width="87.87" height="10.86"/>
      <rect class="cls-4" x="347.03" y="133.59" width="87.87" height="10.86"/>
      <rect class="cls-9" x="347.03" y="153.92" width="87.87" height="10.86"/>
      <rect class="cls-7" x="347.03" y="172.53" width="87.87" height="10.86"/>
      <path class="cls-2" d="M94.32,93.88c1.12,0,1.66.17,1.93.26.81.26,1.16.58,1.34.73.52.47.69.9.78,1.11.25.65.25,1.15.25,1.4,0,.8-.17,1.25-.26,1.47-.26.67-.62.99-.79,1.15-.53.48-1.07.66-1.34.75-.81.27-1.54.27-1.9.27h-1.42v3.74h-2.25v-10.88h3.67ZM94.32,99.3c1.06,0,1.39-.34,1.55-.51.49-.51.49-1.1.49-1.4,0-.41-.08-.63-.12-.74-.12-.33-.29-.49-.38-.57-.25-.24-.51-.32-.63-.36-.38-.13-.73-.13-.91-.13h-1.42v3.7h1.42Z"/>
      <path class="cls-2" d="M106.25,102.87c.34,0,.47.12.53.19.19.19.19.39.19.49v1.22h-7.55v-.67c0-.2.05-.35.08-.42.08-.23.21-.35.28-.42l3.23-3.23c.41-.41.62-.66.73-.79.32-.38.46-.62.53-.74.21-.36.28-.61.32-.74.1-.38.1-.65.1-.79,0-.73-.25-.98-.38-1.11-.38-.38-.83-.38-1.06-.38-.3,0-.47.06-.55.09-.25.09-.38.19-.45.24-.2.15-.29.28-.34.35-.14.2-.19.36-.21.44-.14.38-.29.46-.36.5-.23.12-.51.08-.65.06l-1.09-.2c.12-.79.34-1.2.45-1.4.33-.6.66-.86.83-1,.49-.4.92-.53,1.13-.6.64-.2,1.13-.2,1.37-.2.77,0,1.2.15,1.41.23.63.23.93.5,1.08.64.45.41.61.79.7.99.25.58.25,1.04.25,1.28,0,.6-.11.94-.17,1.11-.17.51-.37.82-.47.97-.3.46-.56.75-.69.9-.39.43-.68.73-.82.88l-2.31,2.36c.38-.11.63-.16.76-.18.38-.06.6-.06.71-.06h2.45Z"/>
      <path class="cls-2" d="M110.78,97.78c.34-.07.54-.09.65-.1.31-.03.51-.03.6-.03.85,0,1.29.17,1.51.26.66.26.95.56,1.1.71.45.45.6.86.67,1.06.22.61.22,1.07.22,1.3,0,.87-.2,1.35-.31,1.59-.31.72-.67,1.06-.85,1.23-.54.51-1.05.7-1.3.8-.75.28-1.35.28-1.65.28-.52,0-.83-.07-.99-.11-.47-.11-.74-.23-.88-.29-.41-.18-.64-.34-.76-.42-.35-.24-.54-.41-.63-.5l.64-.87c.2-.28.42-.28.53-.28.2,0,.33.08.4.12.2.12.36.22.44.27.25.15.47.23.58.27.33.12.65.12.8.12.49,0,.73-.11.85-.16.36-.16.52-.35.6-.44.24-.28.31-.54.35-.67.12-.39.12-.68.12-.83,0-.85-.32-1.16-.48-1.31-.48-.46-1.1-.46-1.41-.46-.76,0-1.27.19-1.52.29l-1.28-.36.91-5.35h5.46v.87c0,.22-.04.34-.06.39-.06.18-.16.26-.21.31-.15.13-.3.18-.38.2-.23.07-.45.07-.56.07h-2.81l-.35,2.05Z"/>
      <path class="cls-2" d="M128.69,100.88c.1.18.16.31.18.38.08.2.13.33.15.4.08-.21.13-.34.16-.4.08-.19.15-.32.19-.39l3.64-6.61c.1-.17.17-.2.2-.21.1-.04.23-.04.3-.04h1.07v10.75h-1.28v-7.9c0-.16,0-.28,0-.34,0-.18.02-.3.02-.37l-3.68,6.72c-.19.34-.41.34-.52.34h-.21c-.34,0-.46-.23-.52-.34l-3.77-6.74c.02.2.03.32.03.38.01.19.01.29.01.34v7.9h-1.28v-10.75h1.07c.2,0,.27.03.3.04.1.04.17.15.2.21l3.71,6.61Z"/>
      <polygon class="cls-2" points="143.82 94.02 143.82 95.2 138.66 95.2 138.66 98.77 142.84 98.77 142.84 99.91 138.66 99.91 138.66 103.58 143.82 103.58 143.82 104.76 137.2 104.76 137.2 94.02 143.82 94.02"/>
      <path class="cls-2" d="M151.2,100.88c.1.18.16.31.18.38.08.2.13.33.15.4.08-.21.13-.34.16-.4.08-.19.15-.32.19-.39l3.64-6.61c.1-.17.17-.2.2-.21.11-.04.24-.04.3-.04h1.07v10.75h-1.27v-7.9c0-.16,0-.28,0-.34,0-.18.02-.3.02-.37l-3.68,6.72c-.19.34-.41.34-.52.34h-.21c-.34,0-.46-.23-.53-.34l-3.76-6.74c.02.2.03.32.03.38.01.19.01.29.01.34v7.9h-1.28v-10.75h1.07c.2,0,.27.03.3.04.11.04.17.15.2.21l3.71,6.61Z"/>
      <path class="cls-2" d="M161.17,98.83h1.92c.62,0,.92-.09,1.07-.14.45-.14.65-.29.75-.38.3-.24.39-.47.44-.58.14-.34.14-.61.14-.75,0-.95-.38-1.24-.57-1.39-.57-.44-1.37-.44-1.77-.44h-1.97v3.67ZM161.17,99.87v3.74h2.33c.62,0,.92-.09,1.07-.14.45-.14.64-.32.74-.4.29-.26.38-.5.42-.61.14-.36.14-.64.14-.78,0-.83-.39-1.16-.59-1.32-.59-.48-1.38-.48-1.78-.48h-2.32ZM159.72,104.76v-10.75h3.43c.99,0,1.47.13,1.71.2.72.2,1.02.43,1.18.55.46.36.61.71.68.88.22.52.22.96.22,1.17,0,.4-.08.64-.12.77-.12.37-.29.58-.38.68-.25.32-.5.48-.63.56-.38.25-.72.35-.89.4,1.18.23,1.58.64,1.78.85.6.61.6,1.28.6,1.62,0,.68-.17,1.06-.25,1.24-.25.56-.57.83-.73.97-.48.4-.95.55-1.19.63-.7.22-1.3.22-1.6.22h-3.8Z"/>
      <path class="cls-2" d="M171.02,99.22h1.52c.64,0,.96-.1,1.12-.15.48-.15.7-.34.81-.43.33-.28.44-.54.49-.67.17-.39.17-.71.17-.86,0-.96-.42-1.29-.63-1.45-.63-.49-1.47-.49-1.89-.49h-1.59v4.06ZM171.02,100.28v4.48h-1.45v-10.75h3.04c1.02,0,1.52.14,1.76.21.74.21,1.07.47,1.23.6.48.39.64.76.72.94.23.55.23,1.01.23,1.23,0,.57-.12.9-.18,1.07-.18.49-.41.76-.52.89-.34.39-.67.58-.83.67-.49.28-.91.37-1.11.42.27.16.41.36.48.46l3.14,4.27h-1.29c-.4,0-.52-.21-.58-.31l-2.79-3.84c-.13-.18-.23-.23-.28-.26-.15-.08-.35-.08-.45-.08h-1.1Z"/>
      <path class="cls-2" d="M180.88,100.77h4.01l-1.69-4.37c-.17-.41-.27-.81-.32-1.01-.08.31-.14.48-.16.57-.08.26-.13.39-.15.45l-1.69,4.36ZM187.92,104.76h-1.12c-.2,0-.27-.07-.32-.1-.12-.1-.16-.2-.18-.25l-1.01-2.6h-4.82l-1.01,2.6c-.05.13-.14.2-.18.24-.13.1-.25.1-.32.1h-1.12l4.3-10.75h1.48l4.3,10.75Z"/>
      <path class="cls-2" d="M190.03,94.02c.2,0,.26.03.29.05.09.05.17.15.21.2l6.23,8.1c-.02-.19-.03-.32-.03-.38,0-.18,0-.3,0-.36v-7.61h1.28v10.75h-.73c-.17,0-.25-.04-.29-.06-.12-.06-.19-.16-.23-.2l-6.22-8.09c.02.19.02.31.02.37,0,.18,0,.28,0,.33v7.66h-1.28v-10.75h.75Z"/>
      <polygon class="cls-2" points="207.24 94.02 207.24 95.2 202.08 95.2 202.08 98.77 206.26 98.77 206.26 99.91 202.08 99.91 202.08 103.58 207.24 103.58 207.24 104.76 200.62 104.76 200.62 94.02 207.24 94.02"/>
      <path class="cls-2" d="M214.84,95.7c-.07.11-.12.15-.14.17-.08.06-.16.06-.2.06-.13,0-.24-.08-.3-.13-.17-.13-.34-.23-.43-.28-.26-.15-.5-.24-.62-.28-.36-.13-.71-.13-.88-.13-.49,0-.74.09-.86.13-.38.13-.54.28-.63.36-.25.22-.34.43-.38.53-.13.3-.13.54-.13.66,0,.45.15.65.22.75.22.3.46.44.59.51.36.21.67.31.83.36.46.15.78.26.95.32.48.16.79.3.95.37.46.21.7.42.82.52.36.32.51.62.59.77.22.46.22.9.22,1.12,0,.71-.16,1.12-.24,1.32-.24.62-.55.92-.7,1.08-.46.46-.91.63-1.13.72-.67.26-1.24.26-1.53.26-1.04,0-1.62-.25-1.9-.38-.86-.38-1.26-.81-1.47-1.02l.42-.69c.06-.08.12-.12.15-.14.09-.06.16-.06.19-.06.16,0,.29.11.36.17.2.17.4.3.51.37.3.2.59.32.73.37.43.17.85.17,1.05.17.52,0,.79-.09.92-.14.41-.14.59-.32.69-.4.28-.26.38-.5.43-.62.15-.36.15-.66.15-.8,0-.49-.15-.7-.22-.8-.22-.31-.46-.45-.58-.52-.36-.21-.67-.31-.82-.36-.46-.15-.78-.25-.95-.3-.48-.15-.79-.29-.94-.36-.46-.2-.7-.42-.82-.52-.36-.32-.51-.65-.58-.81-.22-.48-.22-.96-.22-1.2,0-.57.15-.93.22-1.1.22-.53.5-.81.64-.95.42-.41.83-.58,1.04-.66.62-.25,1.15-.25,1.42-.25.9,0,1.4.19,1.64.28.74.29,1.11.65,1.3.83l-.35.69Z"/>
      <path class="cls-2" d="M221.98,100.77h4.01l-1.69-4.37c-.16-.41-.27-.81-.32-1.01-.08.31-.14.48-.16.57-.08.26-.13.39-.15.45l-1.69,4.36ZM229.02,104.76h-1.12c-.2,0-.28-.07-.32-.1-.12-.1-.16-.2-.18-.25l-1-2.6h-4.82l-1.01,2.6c-.05.13-.14.2-.18.24-.13.1-.25.1-.32.1h-1.12l4.3-10.75h1.48l4.3,10.75Z"/>
      <polygon class="cls-2" points="231.84 103.54 236.49 103.54 236.49 104.76 230.38 104.76 230.38 94.02 231.84 94.02 231.84 103.54"/>
      <path class="cls-2" d="M239.69,98.73h.55c.29,0,.4-.05.45-.07.17-.07.27-.19.32-.24l3.58-4.05c.16-.19.27-.24.32-.27.15-.08.31-.08.39-.08h1.24l-4.09,4.63c-.16.17-.25.25-.3.29-.14.12-.24.17-.3.2.21.07.32.16.37.2.16.14.27.27.33.34l4.28,5.09h-1.26c-.14,0-.21-.02-.24-.02-.1-.02-.15-.05-.17-.06-.07-.04-.11-.08-.13-.1-.06-.06-.1-.1-.12-.13l-3.71-4.27c-.08-.09-.13-.13-.15-.15-.07-.06-.13-.09-.17-.11-.09-.04-.18-.06-.22-.06-.12-.02-.24-.02-.3-.02h-.66v4.92h-1.45v-10.75h1.45v4.71Z"/>
      <path class="cls-2" d="M256.57,99.39c0-.99-.18-1.52-.27-1.78-.27-.79-.6-1.15-.77-1.33-.49-.54-.96-.74-1.2-.84-.7-.29-1.29-.29-1.57-.29-.86,0-1.33.2-1.57.29-.7.29-1.04.66-1.2.84-.5.54-.68,1.07-.77,1.33-.27.79-.27,1.45-.27,1.78,0,.99.18,1.51.27,1.77.27.78.6,1.15.77,1.33.5.54.97.74,1.2.83.71.29,1.28.29,1.57.29.87,0,1.34-.19,1.57-.29.7-.29,1.04-.65,1.2-.83.49-.54.68-1.07.77-1.33.27-.78.27-1.44.27-1.77ZM258.06,99.39c0,1.21-.26,1.88-.38,2.22-.38,1.01-.85,1.49-1.08,1.74-.7.73-1.35.99-1.68,1.13-.98.4-1.77.4-2.16.4-1.19,0-1.84-.27-2.16-.4-.98-.4-1.44-.89-1.67-1.13-.7-.73-.95-1.4-1.08-1.74-.38-1.01-.38-1.81-.38-2.22,0-1.21.26-1.88.38-2.22.38-1.01.85-1.5,1.08-1.74.7-.73,1.35-1,1.67-1.14.97-.4,1.77-.4,2.16-.4,1.18,0,1.84.27,2.16.4.98.41,1.44.89,1.68,1.14.7.73.95,1.4,1.08,1.74.38,1.01.38,1.81.38,2.22Z"/>
      <path class="cls-2" d="M261.65,99.22h1.52c.64,0,.96-.1,1.12-.15.48-.15.7-.34.81-.43.33-.28.44-.54.49-.67.17-.39.17-.71.17-.86,0-.96-.42-1.29-.63-1.45-.63-.49-1.47-.49-1.89-.49h-1.59v4.06ZM261.65,100.28v4.48h-1.45v-10.75h3.04c1.02,0,1.52.14,1.76.21.74.21,1.06.47,1.23.6.48.39.64.76.72.94.23.55.23,1.01.23,1.23,0,.57-.12.9-.18,1.07-.18.49-.41.76-.52.89-.34.39-.67.58-.83.67-.49.28-.91.37-1.11.42.27.16.41.36.48.46l3.14,4.27h-1.29c-.4,0-.52-.21-.58-.31l-2.79-3.84c-.13-.18-.23-.23-.28-.26-.15-.08-.35-.08-.45-.08h-1.1Z"/>
      <path class="cls-2" d="M94.32,113.88c1.12,0,1.66.17,1.93.26.81.26,1.16.58,1.34.73.52.47.69.9.78,1.11.25.65.25,1.15.25,1.4,0,.8-.17,1.25-.26,1.47-.26.67-.62.99-.79,1.15-.53.48-1.07.66-1.34.75-.81.27-1.54.27-1.9.27h-1.42v3.74h-2.25v-10.88h3.67ZM94.32,119.3c1.06,0,1.39-.34,1.55-.51.49-.51.49-1.1.49-1.4,0-.41-.08-.63-.12-.74-.12-.33-.29-.49-.38-.57-.25-.24-.51-.32-.63-.36-.38-.13-.73-.13-.91-.13h-1.42v3.7h1.42Z"/>
      <path class="cls-2" d="M106.25,122.87c.34,0,.47.12.53.19.19.19.19.39.19.49v1.22h-7.55v-.67c0-.2.05-.35.08-.42.08-.23.21-.35.28-.42l3.23-3.23c.41-.41.62-.66.73-.79.32-.38.46-.62.53-.74.21-.36.28-.61.32-.74.1-.38.1-.65.1-.79,0-.73-.25-.98-.38-1.11-.38-.38-.83-.38-1.06-.38-.3,0-.47.06-.55.09-.25.09-.38.19-.45.24-.2.15-.29.28-.34.35-.14.2-.19.36-.21.44-.14.38-.29.46-.36.5-.23.12-.51.08-.65.06l-1.09-.2c.12-.79.34-1.2.45-1.4.33-.6.66-.86.83-1,.49-.4.92-.53,1.13-.6.64-.2,1.13-.2,1.37-.2.77,0,1.2.15,1.41.23.63.23.93.5,1.08.64.45.41.61.79.7.99.25.58.25,1.04.25,1.28,0,.6-.11.94-.17,1.11-.17.51-.37.82-.47.97-.3.46-.56.75-.69.9-.39.43-.68.73-.82.88l-2.31,2.36c.38-.11.63-.16.76-.18.38-.06.6-.06.71-.06h2.45Z"/>
      <path class="cls-2" d="M115.83,113.88v.89c0,.39-.06.55-.09.63-.09.24-.14.35-.17.4l-3.96,8.27c-.15.28-.32.42-.4.49-.26.2-.55.2-.69.2h-1.5l4.06-8.08c.15-.28.26-.44.31-.52.16-.23.29-.37.35-.44h-5.02c-.18,0-.28-.1-.33-.14-.15-.14-.15-.26-.15-.32v-1.38h7.58Z"/>
      <path class="cls-2" d="M128.69,120.88c.1.18.16.31.18.38.08.2.13.33.15.4.08-.21.13-.34.16-.4.08-.19.15-.32.19-.39l3.64-6.61c.1-.17.17-.2.2-.21.1-.04.23-.04.3-.04h1.07v10.75h-1.28v-7.9c0-.16,0-.28,0-.34,0-.18.02-.3.02-.37l-3.68,6.72c-.19.34-.41.34-.52.34h-.21c-.34,0-.46-.23-.52-.34l-3.77-6.74c.02.2.03.32.03.38.01.19.01.29.01.34v7.9h-1.28v-10.75h1.07c.2,0,.27.03.3.04.1.04.17.15.2.21l3.71,6.61Z"/>
      <polygon class="cls-2" points="143.82 114.02 143.82 115.2 138.66 115.2 138.66 118.77 142.84 118.77 142.84 119.91 138.66 119.91 138.66 123.58 143.82 123.58 143.82 124.76 137.2 124.76 137.2 114.02 143.82 114.02"/>
      <path class="cls-2" d="M151.2,120.88c.1.18.16.31.18.38.08.2.13.33.15.4.08-.21.13-.34.16-.4.08-.19.15-.32.19-.39l3.64-6.61c.1-.17.17-.2.2-.21.11-.04.24-.04.3-.04h1.07v10.75h-1.27v-7.9c0-.16,0-.28,0-.34,0-.18.02-.3.02-.37l-3.68,6.72c-.19.34-.41.34-.52.34h-.21c-.34,0-.46-.23-.53-.34l-3.76-6.74c.02.2.03.32.03.38.01.19.01.29.01.34v7.9h-1.28v-10.75h1.07c.2,0,.27.03.3.04.11.04.17.15.2.21l3.71,6.61Z"/>
      <path class="cls-2" d="M161.17,118.83h1.92c.62,0,.92-.09,1.07-.14.45-.14.65-.29.75-.38.3-.24.39-.47.44-.58.14-.34.14-.61.14-.75,0-.95-.38-1.24-.57-1.39-.57-.44-1.37-.44-1.77-.44h-1.97v3.67ZM161.17,119.87v3.74h2.33c.62,0,.92-.09,1.07-.14.45-.14.64-.32.74-.4.29-.26.38-.5.42-.61.14-.36.14-.64.14-.78,0-.83-.39-1.16-.59-1.32-.59-.48-1.38-.48-1.78-.48h-2.32ZM159.72,124.76v-10.75h3.43c.99,0,1.47.13,1.71.2.72.2,1.02.43,1.18.55.46.36.61.71.68.88.22.52.22.96.22,1.17,0,.4-.08.64-.12.77-.12.37-.29.58-.38.68-.25.32-.5.48-.63.56-.38.25-.72.35-.89.4,1.18.23,1.58.64,1.78.85.6.61.6,1.28.6,1.62,0,.68-.17,1.06-.25,1.24-.25.56-.57.83-.73.97-.48.4-.95.55-1.19.63-.7.22-1.3.22-1.6.22h-3.8Z"/>
      <path class="cls-2" d="M171.02,119.22h1.52c.64,0,.96-.1,1.12-.15.48-.15.7-.34.81-.43.33-.28.44-.54.49-.67.17-.39.17-.71.17-.86,0-.96-.42-1.29-.63-1.45-.63-.49-1.47-.49-1.89-.49h-1.59v4.06ZM171.02,120.28v4.48h-1.45v-10.75h3.04c1.02,0,1.52.14,1.76.21.74.21,1.07.47,1.23.6.48.39.64.76.72.94.23.55.23,1.01.23,1.23,0,.57-.12.9-.18,1.07-.18.49-.41.76-.52.89-.34.39-.67.58-.83.67-.49.28-.91.37-1.11.42.27.16.41.36.48.46l3.14,4.27h-1.29c-.4,0-.52-.21-.58-.31l-2.79-3.84c-.13-.18-.23-.23-.28-.26-.15-.08-.35-.08-.45-.08h-1.1Z"/>
      <path class="cls-2" d="M180.88,120.77h4.01l-1.69-4.37c-.17-.41-.27-.81-.32-1.01-.08.31-.14.48-.16.57-.08.26-.13.39-.15.45l-1.69,4.36ZM187.92,124.76h-1.12c-.2,0-.27-.07-.32-.1-.12-.1-.16-.2-.18-.25l-1.01-2.6h-4.82l-1.01,2.6c-.05.13-.14.2-.18.24-.13.1-.25.1-.32.1h-1.12l4.3-10.75h1.48l4.3,10.75Z"/>
      <path class="cls-2" d="M190.03,114.02c.2,0,.26.03.29.05.09.05.17.15.21.2l6.23,8.1c-.02-.19-.03-.32-.03-.38,0-.18,0-.3,0-.36v-7.61h1.28v10.75h-.73c-.17,0-.25-.04-.29-.06-.12-.06-.19-.16-.23-.2l-6.22-8.09c.02.19.02.31.02.37,0,.18,0,.28,0,.33v7.66h-1.28v-10.75h.75Z"/>
      <polygon class="cls-2" points="207.24 114.02 207.24 115.2 202.08 115.2 202.08 118.77 206.26 118.77 206.26 119.91 202.08 119.91 202.08 123.58 207.24 123.58 207.24 124.76 200.62 124.76 200.62 114.02 207.24 114.02"/>
      <path class="cls-2" d="M214.84,115.7c-.07.11-.12.15-.14.17-.08.06-.16.06-.2.06-.13,0-.24-.08-.3-.13-.17-.13-.34-.23-.43-.28-.26-.15-.5-.24-.62-.28-.36-.13-.71-.13-.88-.13-.49,0-.74.09-.86.13-.38.13-.54.28-.63.36-.25.22-.34.43-.38.53-.13.3-.13.54-.13.66,0,.45.15.65.22.75.22.3.46.44.59.51.36.21.67.31.83.36.46.15.78.26.95.32.48.16.79.3.95.37.46.21.7.42.82.52.36.32.51.62.59.77.22.46.22.9.22,1.12,0,.71-.16,1.12-.24,1.32-.24.62-.55.92-.7,1.08-.46.46-.91.63-1.13.72-.67.26-1.24.26-1.53.26-1.04,0-1.62-.25-1.9-.38-.86-.38-1.26-.81-1.47-1.02l.42-.69c.06-.08.12-.12.15-.14.09-.06.16-.06.19-.06.16,0,.29.11.36.17.2.17.4.3.51.37.3.2.59.32.73.37.43.17.85.17,1.05.17.52,0,.79-.09.92-.14.41-.14.59-.32.69-.4.28-.26.38-.5.43-.62.15-.36.15-.66.15-.8,0-.49-.15-.7-.22-.8-.22-.31-.46-.45-.58-.52-.36-.21-.67-.31-.82-.36-.46-.15-.78-.25-.95-.3-.48-.15-.79-.29-.94-.36-.46-.2-.7-.42-.82-.52-.36-.32-.51-.65-.58-.81-.22-.48-.22-.96-.22-1.2,0-.57.15-.93.22-1.1.22-.53.5-.81.64-.95.42-.41.83-.58,1.04-.66.62-.25,1.15-.25,1.42-.25.9,0,1.4.19,1.64.28.74.29,1.11.65,1.3.83l-.35.69Z"/>
      <path class="cls-2" d="M225.69,115.7c-.07.11-.12.15-.14.17-.08.06-.15.06-.2.06-.13,0-.24-.08-.3-.13-.17-.13-.34-.23-.43-.28-.26-.15-.5-.24-.62-.28-.36-.13-.71-.13-.88-.13-.49,0-.74.09-.86.13-.38.13-.54.28-.63.36-.25.22-.34.43-.38.53-.13.3-.13.54-.13.66,0,.45.15.65.22.75.22.3.46.44.58.51.36.21.67.31.83.36.46.15.78.26.95.32.48.16.79.3.95.37.46.21.7.42.83.52.36.32.51.62.58.77.22.46.22.9.22,1.12,0,.71-.16,1.12-.24,1.32-.24.62-.55.92-.7,1.08-.46.46-.91.63-1.13.72-.67.26-1.24.26-1.53.26-1.04,0-1.61-.25-1.9-.38-.86-.38-1.26-.81-1.47-1.02l.42-.69c.06-.08.12-.12.15-.14.09-.06.16-.06.19-.06.16,0,.29.11.36.17.2.17.41.3.51.37.3.2.59.32.74.37.43.17.85.17,1.05.17.52,0,.79-.09.92-.14.4-.14.59-.32.69-.4.28-.26.38-.5.43-.62.15-.36.15-.66.15-.8,0-.49-.15-.7-.22-.8-.22-.31-.46-.45-.58-.52-.36-.21-.67-.31-.82-.36-.46-.15-.78-.25-.95-.3-.48-.15-.79-.29-.95-.36-.46-.2-.7-.42-.82-.52-.36-.32-.51-.65-.58-.81-.22-.48-.22-.96-.22-1.2,0-.57.15-.93.22-1.1.22-.53.5-.81.64-.95.42-.41.83-.58,1.04-.66.62-.25,1.15-.25,1.42-.25.9,0,1.4.19,1.64.28.74.29,1.11.65,1.3.83l-.35.69Z"/>
      <path class="cls-2" d="M236.62,119.39c0-.99-.18-1.52-.27-1.78-.27-.79-.6-1.15-.76-1.33-.5-.54-.97-.74-1.2-.84-.71-.29-1.29-.29-1.58-.29-.86,0-1.33.2-1.57.29-.71.29-1.04.66-1.2.84-.5.54-.68,1.07-.77,1.33-.27.79-.27,1.45-.27,1.78,0,.99.18,1.51.27,1.77.27.78.6,1.15.77,1.33.5.54.97.74,1.2.83.71.29,1.28.29,1.57.29.87,0,1.34-.19,1.58-.29.7-.29,1.03-.65,1.2-.83.49-.54.67-1.07.76-1.33.27-.78.27-1.44.27-1.77ZM238.11,119.39c0,1.21-.26,1.88-.38,2.22-.38,1.01-.85,1.49-1.08,1.74-.7.73-1.35.99-1.68,1.13-.98.4-1.77.4-2.16.4-1.18,0-1.84-.27-2.16-.4-.97-.4-1.44-.89-1.67-1.13-.7-.73-.95-1.4-1.08-1.74-.38-1.01-.38-1.81-.38-2.22,0-1.21.26-1.88.38-2.22.38-1.01.85-1.5,1.08-1.74.7-.73,1.35-1,1.67-1.14.98-.4,1.77-.4,2.16-.4,1.18,0,1.84.27,2.16.4.98.41,1.44.89,1.68,1.14.7.73.95,1.4,1.08,1.74.38,1.01.38,1.81.38,2.22Z"/>
      <path class="cls-2" d="M241.7,119.59h1.72c.62,0,.94-.11,1.1-.17.48-.16.69-.36.8-.46.32-.3.43-.57.49-.71.16-.41.16-.74.16-.91,0-1.03-.42-1.41-.63-1.61-.63-.58-1.49-.58-1.92-.58h-1.72v4.42ZM241.7,120.74v4.02h-1.45v-10.75h3.17c1.02,0,1.52.16,1.77.24.75.24,1.08.53,1.25.67.49.43.66.85.74,1.05.24.61.24,1.12.24,1.37,0,.75-.17,1.16-.26,1.37-.26.62-.6.92-.77,1.07-.51.45-1.01.62-1.26.7-.75.25-1.4.25-1.72.25h-1.72Z"/>
      <path class="cls-2" d="M250.86,119.22h1.52c.64,0,.96-.1,1.12-.15.48-.15.7-.34.81-.43.33-.28.44-.54.49-.67.17-.39.17-.71.17-.86,0-.96-.42-1.29-.63-1.45-.63-.49-1.47-.49-1.89-.49h-1.59v4.06ZM250.86,120.28v4.48h-1.45v-10.75h3.04c1.02,0,1.52.14,1.76.21.74.21,1.07.47,1.23.6.48.39.64.76.72.94.23.55.23,1.01.23,1.23,0,.57-.12.9-.18,1.07-.18.49-.41.76-.52.89-.34.39-.67.58-.83.67-.49.28-.91.37-1.11.42.27.16.41.36.48.46l3.14,4.27h-1.29c-.4,0-.52-.21-.58-.31l-2.79-3.84c-.13-.18-.23-.23-.28-.26-.15-.08-.35-.08-.45-.08h-1.1Z"/>
      <polygon class="cls-2" points="265.55 114.02 265.55 115.2 260.39 115.2 260.39 118.77 264.57 118.77 264.57 119.91 260.39 119.91 260.39 123.58 265.55 123.58 265.55 124.76 258.93 124.76 258.93 114.02 265.55 114.02"/>
      <path class="cls-2" d="M272.93,120.88c.1.18.16.31.18.38.08.2.13.33.15.4.07-.21.13-.34.16-.4.08-.19.15-.32.19-.39l3.64-6.61c.1-.17.17-.2.2-.21.1-.04.23-.04.3-.04h1.07v10.75h-1.28v-7.9c0-.16,0-.28,0-.34,0-.18.02-.3.02-.37l-3.68,6.72c-.19.34-.41.34-.53.34h-.21c-.34,0-.46-.23-.53-.34l-3.77-6.74c.02.2.03.32.03.38.01.19.01.29.01.34v7.9h-1.28v-10.75h1.07c.19,0,.27.03.3.04.1.04.17.15.2.21l3.71,6.61Z"/>
      <path class="cls-2" d="M283.24,120.77h4.01l-1.69-4.37c-.16-.41-.27-.81-.32-1.01-.08.31-.13.48-.16.57-.08.26-.13.39-.15.45l-1.69,4.36ZM290.28,124.76h-1.12c-.19,0-.28-.07-.31-.1-.12-.1-.16-.2-.18-.25l-1.01-2.6h-4.82l-1.01,2.6c-.05.13-.14.2-.18.24-.13.1-.25.1-.32.1h-1.12l4.3-10.75h1.48l4.3,10.75Z"/>
      <path class="cls-2" d="M94.32,133.88c1.12,0,1.66.17,1.93.26.81.26,1.16.58,1.34.73.52.47.69.9.78,1.11.25.65.25,1.15.25,1.4,0,.8-.17,1.25-.26,1.47-.26.67-.62.99-.79,1.15-.53.48-1.07.66-1.34.75-.81.27-1.54.27-1.9.27h-1.42v3.74h-2.25v-10.88h3.67ZM94.32,139.3c1.06,0,1.39-.34,1.55-.51.49-.51.49-1.1.49-1.4,0-.41-.08-.63-.12-.74-.12-.33-.29-.49-.38-.57-.25-.24-.51-.32-.63-.36-.38-.13-.73-.13-.91-.13h-1.42v3.7h1.42Z"/>
      <path class="cls-2" d="M99.65,136.95c.12-.79.34-1.2.45-1.4.33-.6.66-.86.83-1,.49-.4.92-.53,1.13-.6.63-.2,1.12-.2,1.37-.2.78,0,1.19.15,1.4.22.62.22.9.48,1.05.6.43.38.58.72.66.89.23.51.23.9.23,1.09,0,.52-.07.78-.11.91-.11.39-.25.59-.32.69-.21.29-.42.43-.52.5-.31.2-.58.29-.72.34,1.88.61,1.88,1.87,1.88,2.5,0,.83-.21,1.26-.31,1.47-.31.63-.65.92-.83,1.06-.52.43-.98.57-1.2.64-.69.21-1.19.21-1.44.21-.79,0-1.2-.12-1.4-.18-.61-.18-.92-.42-1.07-.54-.46-.36-.68-.72-.79-.9-.33-.54-.49-1.03-.58-1.27l.91-.38c.36-.15.57-.1.67-.08.31.07.4.24.45.33.15.29.26.45.32.53.17.24.31.36.38.42.21.18.39.24.48.27.27.1.5.1.61.1.44,0,.65-.09.76-.14.32-.14.47-.3.54-.37.22-.23.29-.42.33-.52.11-.29.11-.48.11-.57,0-.38-.05-.58-.07-.68-.07-.3-.23-.45-.31-.52-.24-.21-.56-.29-.72-.33-.48-.12-1.02-.12-1.29-.12v-1.45c.68,0,.97-.08,1.12-.11.43-.11.6-.25.68-.31.25-.2.31-.39.34-.49.09-.28.09-.51.09-.62,0-.71-.25-.96-.37-1.09-.37-.38-.83-.38-1.05-.38-.3,0-.47.06-.55.09-.25.09-.38.19-.45.24-.2.15-.29.28-.34.35-.14.2-.19.36-.21.44-.14.38-.29.46-.37.5-.23.12-.51.08-.65.06l-1.09-.2Z"/>
      <path class="cls-2" d="M115.42,143.24v1.52h-6.1v-1.52h2.16v-5.95c0-.2,0-.33,0-.4,0-.2.02-.34.02-.41l-1.42,1.18c-.15.11-.24.13-.29.14-.14.03-.23.01-.27,0-.13-.03-.19-.07-.23-.09-.1-.06-.13-.11-.15-.13l-.65-.88,3.35-2.84h1.7v9.37h1.88Z"/>
      <path class="cls-2" d="M126.33,139.59h1.72c.62,0,.94-.11,1.1-.17.48-.16.69-.36.8-.46.32-.3.43-.57.49-.71.16-.41.16-.74.16-.91,0-1.03-.42-1.41-.63-1.61-.63-.58-1.49-.58-1.92-.58h-1.72v4.42ZM126.33,140.74v4.02h-1.45v-10.75h3.17c1.02,0,1.52.16,1.77.24.75.24,1.08.53,1.25.67.49.43.66.85.74,1.05.24.61.24,1.12.24,1.37,0,.75-.17,1.16-.26,1.37-.26.62-.6.92-.77,1.07-.51.45-1.01.62-1.26.7-.75.25-1.39.25-1.72.25h-1.72Z"/>
      <path class="cls-2" d="M132.66,134.02h1.16c.2,0,.27.07.32.1.12.1.16.2.18.25l3.04,7.58c.11.26.16.46.19.55.09.3.14.52.17.62.07-.32.12-.52.15-.62.08-.3.15-.47.18-.55l3.02-7.58c.05-.13.14-.2.18-.24.13-.11.25-.11.32-.11h1.17l-4.38,10.75h-1.31l-4.38-10.75Z"/>
      <path class="cls-2" d="M151.29,142.54c.12,0,.18.06.22.1l.57.62c-.66.77-1.29,1.05-1.6,1.19-.94.43-1.83.43-2.27.43-1.16,0-1.79-.27-2.11-.4-.95-.4-1.39-.88-1.61-1.12-.67-.72-.91-1.4-1.03-1.74-.37-1.01-.37-1.82-.37-2.23,0-1.22.26-1.89.39-2.23.39-1.01.87-1.5,1.11-1.74.71-.73,1.38-.99,1.71-1.13.99-.4,1.79-.4,2.19-.4,1.18,0,1.76.24,2.04.37.86.37,1.3.79,1.53,1l-.47.67c-.05.08-.1.11-.12.12-.07.05-.15.05-.2.05-.1,0-.17-.05-.21-.07-.11-.07-.21-.14-.26-.18-.15-.11-.28-.18-.35-.23-.2-.12-.39-.19-.48-.22-.28-.11-.52-.15-.64-.18-.37-.07-.69-.07-.85-.07-.86,0-1.34.2-1.58.3-.72.3-1.06.66-1.23.84-.52.55-.71,1.07-.81,1.34-.29.79-.29,1.44-.29,1.76,0,1.01.19,1.53.29,1.79.29.79.62,1.15.79,1.33.5.54.95.73,1.18.83.68.28,1.21.28,1.47.28.48,0,.73-.04.86-.06.38-.06.6-.14.71-.18.33-.12.51-.24.61-.3.28-.18.47-.35.57-.44.13-.11.21-.11.25-.11Z"/>
      <polygon class="cls-2" points="158.34 143.54 162.99 143.54 162.99 144.76 156.88 144.76 156.88 134.02 158.34 134.02 158.34 143.54"/>
      <rect class="cls-2" x="164.86" y="134.02" width="1.46" height="10.75"/>
      <path class="cls-2" d="M177.69,139.39c0-.99-.18-1.52-.27-1.78-.27-.79-.6-1.15-.77-1.33-.49-.54-.96-.74-1.2-.84-.71-.29-1.29-.29-1.58-.29-.86,0-1.33.2-1.57.29-.71.29-1.04.66-1.2.84-.5.54-.68,1.07-.77,1.33-.27.79-.27,1.45-.27,1.78,0,.99.18,1.51.27,1.77.27.78.6,1.15.77,1.33.5.54.97.74,1.2.83.71.29,1.28.29,1.57.29.87,0,1.34-.19,1.58-.29.7-.29,1.03-.65,1.2-.83.5-.54.68-1.07.77-1.33.27-.78.27-1.44.27-1.77ZM179.18,139.39c0,.76-.1,1.21-.15,1.44-.15.68-.35,1.08-.45,1.27-.29.59-.57.91-.71,1.07-.42.48-.77.72-.95.83l2.76,2.98h-1.2c-.27,0-.41-.05-.48-.07-.21-.08-.33-.2-.38-.26l-1.89-2.05c-.43.14-.73.18-.89.21-.46.08-.8.08-.96.08-1.18,0-1.84-.27-2.16-.4-.97-.4-1.44-.89-1.67-1.13-.7-.73-.95-1.4-1.08-1.74-.38-1.01-.38-1.81-.38-2.22,0-1.21.26-1.88.38-2.22.38-1.01.85-1.5,1.08-1.74.7-.73,1.35-1,1.67-1.14.98-.4,1.77-.4,2.16-.4,1.18,0,1.84.27,2.16.4.98.41,1.44.89,1.68,1.14.7.73.95,1.4,1.08,1.74.38,1.01.38,1.81.38,2.22Z"/>
      <path class="cls-2" d="M185.34,143.61c.67,0,1.02-.15,1.19-.22.53-.22.77-.49.89-.63.36-.4.49-.78.55-.97.19-.56.19-1.01.19-1.24v-6.53h1.45v6.53c0,.93-.2,1.46-.3,1.73-.3.79-.66,1.18-.85,1.38-.55.58-1.08.8-1.35.91-.79.33-1.46.33-1.79.33-.99,0-1.52-.22-1.78-.33-.79-.33-1.16-.72-1.35-.91-.56-.58-.75-1.11-.85-1.38-.3-.79-.3-1.42-.3-1.73v-6.53h1.45v6.53c0,.67.13,1.05.19,1.24.19.56.43.83.55.97.36.41.72.56.89.63.53.23.97.23,1.2.23Z"/>
      <rect class="cls-2" x="192.39" y="134.02" width="1.45" height="10.75"/>
      <path class="cls-2" d="M204.54,139.39c0-.99-.18-1.51-.27-1.77-.27-.78-.6-1.14-.77-1.32-.49-.54-.97-.73-1.2-.82-.71-.29-1.28-.29-1.57-.29h-2.56v8.39h2.56c.86,0,1.33-.19,1.57-.29.71-.28,1.03-.64,1.2-.82.49-.54.67-1.06.77-1.32.27-.78.27-1.44.27-1.77ZM206.04,139.39c0,1.21-.26,1.87-.38,2.2-.38.99-.85,1.46-1.08,1.7-.7.7-1.35.96-1.67,1.09-.97.39-1.76.39-2.16.39h-4.02v-10.75h4.02c1.18,0,1.84.26,2.16.39.98.39,1.44.86,1.67,1.1.7.71.95,1.37,1.08,1.7.38.99.38,1.79.38,2.2Z"/>
      <polygon class="cls-2" points="214.64 134.02 214.64 135.2 209.48 135.2 209.48 138.77 213.66 138.77 213.66 139.91 209.48 139.91 209.48 143.58 214.64 143.58 214.64 144.76 208.02 144.76 208.02 134.02 214.64 134.02"/>
      <path class="cls-2" d="M94.32,153.88c1.12,0,1.66.17,1.93.26.81.26,1.16.58,1.34.73.52.47.69.9.78,1.11.25.65.25,1.15.25,1.4,0,.8-.17,1.25-.26,1.47-.26.67-.62.99-.79,1.15-.53.48-1.07.66-1.34.75-.81.27-1.54.27-1.9.27h-1.42v3.74h-2.25v-10.88h3.67ZM94.32,159.3c1.06,0,1.39-.34,1.55-.51.49-.51.49-1.1.49-1.4,0-.41-.08-.63-.12-.74-.12-.33-.29-.49-.38-.57-.25-.24-.51-.32-.63-.36-.38-.13-.73-.13-.91-.13h-1.42v3.7h1.42Z"/>
      <path class="cls-2" d="M99.65,156.95c.12-.79.34-1.2.45-1.4.33-.6.66-.86.83-1,.49-.4.92-.53,1.13-.6.63-.2,1.12-.2,1.37-.2.78,0,1.19.15,1.4.22.62.22.9.48,1.05.6.43.38.58.72.66.89.23.51.23.9.23,1.09,0,.52-.07.78-.11.91-.11.39-.25.59-.32.69-.21.29-.42.43-.52.5-.31.2-.58.29-.72.34,1.88.61,1.88,1.87,1.88,2.5,0,.83-.21,1.26-.31,1.47-.31.63-.65.92-.83,1.06-.52.43-.98.57-1.2.64-.69.21-1.19.21-1.44.21-.79,0-1.2-.12-1.4-.18-.61-.18-.92-.42-1.07-.54-.46-.36-.68-.72-.79-.9-.33-.54-.49-1.03-.58-1.27l.91-.38c.36-.15.57-.1.67-.08.31.07.4.24.45.33.15.29.26.45.32.53.17.24.31.36.38.42.21.18.39.24.48.27.27.1.5.1.61.1.44,0,.65-.09.76-.14.32-.14.47-.3.54-.37.22-.23.29-.42.33-.52.11-.29.11-.48.11-.57,0-.38-.05-.58-.07-.68-.07-.3-.23-.45-.31-.52-.24-.21-.56-.29-.72-.33-.48-.12-1.02-.12-1.29-.12v-1.45c.68,0,.97-.08,1.12-.11.43-.11.6-.25.68-.31.25-.2.31-.39.34-.49.09-.28.09-.51.09-.62,0-.71-.25-.96-.37-1.09-.37-.38-.83-.38-1.05-.38-.3,0-.47.06-.55.09-.25.09-.38.19-.45.24-.2.15-.29.28-.34.35-.14.2-.19.36-.21.44-.14.38-.29.46-.37.5-.23.12-.51.08-.65.06l-1.09-.2Z"/>
      <path class="cls-2" d="M108.35,156.95c.12-.79.34-1.2.45-1.4.33-.6.66-.86.83-1,.49-.4.92-.53,1.13-.6.63-.2,1.12-.2,1.37-.2.78,0,1.19.15,1.4.22.62.22.9.48,1.05.6.43.38.58.72.66.89.23.51.23.9.23,1.09,0,.52-.07.78-.11.91-.11.39-.25.59-.32.69-.21.29-.42.43-.52.5-.31.2-.58.29-.72.34,1.88.61,1.88,1.87,1.88,2.5,0,.83-.21,1.26-.31,1.47-.31.63-.65.92-.82,1.06-.52.43-.98.57-1.2.64-.69.21-1.19.21-1.44.21-.79,0-1.2-.12-1.4-.18-.61-.18-.91-.42-1.07-.54-.46-.36-.68-.72-.79-.9-.33-.54-.49-1.03-.58-1.27l.92-.38c.36-.15.57-.1.67-.08.31.07.4.24.45.33.15.29.26.45.32.53.17.24.31.36.38.42.21.18.39.24.48.27.27.1.5.1.61.1.43,0,.65-.09.76-.14.32-.14.47-.3.54-.37.22-.23.29-.42.33-.52.11-.29.11-.48.11-.57,0-.38-.05-.58-.07-.68-.07-.3-.23-.45-.31-.52-.24-.21-.56-.29-.72-.33-.48-.12-1.02-.12-1.29-.12v-1.45c.68,0,.97-.08,1.12-.11.43-.11.6-.25.68-.31.25-.2.31-.39.34-.49.09-.28.09-.51.09-.62,0-.71-.25-.96-.37-1.09-.37-.38-.83-.38-1.05-.38-.3,0-.47.06-.55.09-.25.09-.38.19-.45.24-.2.15-.29.28-.34.35-.14.2-.19.36-.21.44-.14.38-.29.46-.37.5-.23.12-.51.08-.65.06l-1.09-.2Z"/>
      <path class="cls-2" d="M129.36,160.88c.11.18.16.31.18.38.08.2.13.33.15.4.08-.21.13-.34.16-.4.08-.19.15-.32.19-.39l3.64-6.61c.1-.17.17-.2.2-.21.1-.04.23-.04.3-.04h1.07v10.75h-1.28v-7.9c0-.16,0-.28,0-.34,0-.18.02-.3.02-.37l-3.68,6.72c-.19.34-.41.34-.53.34h-.21c-.34,0-.46-.23-.52-.34l-3.77-6.74c.02.2.03.32.03.38.01.19.01.29.01.34v7.9h-1.27v-10.75h1.07c.2,0,.26.03.3.04.1.04.17.15.2.21l3.71,6.61Z"/>
      <polygon class="cls-2" points="144.49 154.02 144.49 155.2 139.33 155.2 139.33 158.77 143.51 158.77 143.51 159.91 139.33 159.91 139.33 163.58 144.49 163.58 144.49 164.76 137.87 164.76 137.87 154.02 144.49 154.02"/>
      <path class="cls-2" d="M151.87,160.88c.1.18.16.31.18.38.08.2.13.33.15.4.07-.21.13-.34.16-.4.08-.19.15-.32.19-.39l3.64-6.61c.1-.17.17-.2.2-.21.1-.04.23-.04.3-.04h1.07v10.75h-1.28v-7.9c0-.16,0-.28,0-.34,0-.18.02-.3.02-.37l-3.68,6.72c-.19.34-.41.34-.52.34h-.21c-.34,0-.46-.23-.52-.34l-3.77-6.74c.02.2.03.32.03.38.01.19.01.29.01.34v7.9h-1.27v-10.75h1.07c.2,0,.27.03.3.04.1.04.17.15.2.21l3.71,6.61Z"/>
      <path class="cls-2" d="M161.84,158.83h1.92c.61,0,.91-.09,1.07-.14.45-.14.65-.29.75-.38.3-.24.39-.47.44-.58.14-.34.14-.61.14-.75,0-.95-.38-1.24-.57-1.39-.57-.44-1.37-.44-1.77-.44h-1.97v3.67ZM161.84,159.87v3.74h2.33c.62,0,.92-.09,1.07-.14.45-.14.64-.32.73-.4.29-.26.38-.5.42-.61.13-.36.13-.64.13-.78,0-.83-.39-1.16-.59-1.32-.59-.48-1.38-.48-1.78-.48h-2.32ZM160.38,164.76v-10.75h3.43c.99,0,1.47.13,1.71.2.72.2,1.02.43,1.18.55.46.36.61.71.68.88.22.52.22.96.22,1.17,0,.4-.08.64-.12.77-.12.37-.29.58-.38.68-.25.32-.5.48-.63.56-.38.25-.72.35-.89.4,1.18.23,1.58.64,1.78.85.6.61.6,1.28.6,1.62,0,.68-.17,1.06-.25,1.24-.25.56-.57.83-.73.97-.48.4-.95.55-1.18.63-.7.22-1.3.22-1.6.22h-3.8Z"/>
      <path class="cls-2" d="M171.69,159.22h1.52c.64,0,.96-.1,1.12-.15.48-.15.7-.34.81-.43.33-.28.44-.54.49-.67.16-.39.16-.71.16-.86,0-.96-.42-1.29-.63-1.45-.63-.49-1.47-.49-1.89-.49h-1.59v4.06ZM171.69,160.28v4.48h-1.45v-10.75h3.04c1.02,0,1.52.14,1.76.21.74.21,1.07.47,1.23.6.48.39.64.76.72.94.23.55.23,1.01.23,1.23,0,.57-.12.9-.18,1.07-.18.49-.41.76-.52.89-.34.39-.67.58-.83.67-.49.28-.91.37-1.11.42.27.16.41.36.48.46l3.14,4.27h-1.29c-.4,0-.52-.21-.59-.31l-2.79-3.84c-.13-.18-.23-.23-.28-.26-.15-.08-.35-.08-.45-.08h-1.1Z"/>
      <path class="cls-2" d="M181.55,160.77h4.01l-1.69-4.37c-.16-.41-.27-.81-.32-1.01-.08.31-.14.48-.16.57-.08.26-.13.39-.15.45l-1.69,4.36ZM188.59,164.76h-1.12c-.19,0-.27-.07-.32-.1-.12-.1-.16-.2-.18-.25l-1.01-2.6h-4.82l-1.01,2.6c-.05.13-.14.2-.18.24-.13.1-.25.1-.32.1h-1.12l4.3-10.75h1.48l4.3,10.75Z"/>
      <path class="cls-2" d="M190.7,154.02c.2,0,.26.03.29.05.09.05.17.15.21.2l6.22,8.1c-.02-.19-.03-.32-.03-.38,0-.18,0-.3,0-.36v-7.61h1.27v10.75h-.73c-.17,0-.25-.04-.29-.06-.12-.06-.19-.16-.23-.2l-6.22-8.09c.02.19.02.31.02.37,0,.18,0,.28,0,.33v7.66h-1.27v-10.75h.75Z"/>
      <polygon class="cls-2" points="207.91 154.02 207.91 155.2 202.75 155.2 202.75 158.77 206.93 158.77 206.93 159.91 202.75 159.91 202.75 163.58 207.91 163.58 207.91 164.76 201.29 164.76 201.29 154.02 207.91 154.02"/>
      <path class="cls-2" d="M215.51,155.7c-.07.11-.12.15-.14.17-.08.06-.15.06-.2.06-.13,0-.24-.08-.3-.13-.17-.13-.34-.23-.43-.28-.26-.15-.5-.24-.62-.28-.36-.13-.71-.13-.88-.13-.49,0-.74.09-.86.13-.38.13-.54.28-.63.36-.25.22-.34.43-.38.53-.13.3-.13.54-.13.66,0,.45.15.65.22.75.22.3.46.44.58.51.36.21.67.31.83.36.46.15.78.26.95.32.48.16.79.3.95.37.46.21.7.42.83.52.36.32.51.62.58.77.22.46.22.9.22,1.12,0,.71-.16,1.12-.24,1.32-.24.62-.55.92-.7,1.08-.46.46-.91.63-1.13.72-.67.26-1.24.26-1.53.26-1.04,0-1.61-.25-1.9-.38-.86-.38-1.26-.81-1.47-1.02l.42-.69c.06-.08.12-.12.15-.14.09-.06.16-.06.19-.06.16,0,.29.11.36.17.2.17.4.3.51.37.3.2.59.32.74.37.43.17.85.17,1.05.17.52,0,.79-.09.92-.14.41-.14.59-.32.69-.4.28-.26.38-.5.43-.62.15-.36.15-.66.15-.8,0-.49-.15-.7-.22-.8-.22-.31-.46-.45-.58-.52-.36-.21-.67-.31-.82-.36-.46-.15-.78-.25-.95-.3-.48-.15-.79-.29-.95-.36-.46-.2-.7-.42-.82-.52-.36-.32-.51-.65-.58-.81-.22-.48-.22-.96-.22-1.2,0-.57.15-.93.22-1.1.22-.53.5-.81.64-.95.42-.41.83-.58,1.04-.66.62-.25,1.15-.25,1.42-.25.9,0,1.4.19,1.64.28.74.29,1.11.65,1.3.83l-.35.69Z"/>
      <polygon class="cls-2" points="229.56 164.76 228.1 164.76 228.1 159.87 222.31 159.87 222.31 164.76 220.85 164.76 220.85 154.02 222.31 154.02 222.31 158.81 228.1 158.81 228.1 154.02 229.56 154.02 229.56 164.76"/>
      <path class="cls-2" d="M233.99,160.77h4.01l-1.69-4.37c-.16-.41-.27-.81-.32-1.01-.08.31-.14.48-.16.57-.08.26-.13.39-.15.45l-1.69,4.36ZM241.03,164.76h-1.12c-.19,0-.27-.07-.32-.1-.12-.1-.16-.2-.18-.25l-1.01-2.6h-4.82l-1.01,2.6c-.05.13-.14.2-.18.24-.13.1-.25.1-.32.1h-1.12l4.3-10.75h1.48l4.3,10.75Z"/>
      <path class="cls-2" d="M250.56,159.39c0-.99-.18-1.52-.27-1.78-.27-.79-.6-1.15-.77-1.33-.49-.54-.97-.74-1.2-.84-.71-.29-1.28-.29-1.58-.29-.86,0-1.33.2-1.57.29-.7.29-1.04.66-1.2.84-.5.54-.68,1.07-.77,1.33-.27.79-.27,1.45-.27,1.78,0,.99.18,1.51.27,1.77.27.78.6,1.15.77,1.33.5.54.97.74,1.2.83.71.29,1.28.29,1.57.29.87,0,1.34-.19,1.58-.29.71-.29,1.04-.65,1.2-.83.49-.54.67-1.07.77-1.33.27-.78.27-1.44.27-1.77ZM252.05,159.39c0,1.21-.26,1.88-.38,2.22-.38,1.01-.85,1.49-1.08,1.74-.7.73-1.35.99-1.68,1.13-.98.4-1.77.4-2.16.4-1.18,0-1.83-.27-2.16-.4-.98-.4-1.44-.89-1.67-1.13-.7-.73-.95-1.4-1.08-1.74-.38-1.01-.38-1.81-.38-2.22,0-1.21.26-1.88.38-2.22.38-1.01.85-1.5,1.08-1.74.7-.73,1.35-1,1.67-1.14.97-.4,1.77-.4,2.16-.4,1.18,0,1.84.27,2.16.4.98.41,1.44.89,1.68,1.14.7.73.95,1.4,1.08,1.74.38,1.01.38,1.81.38,2.22Z"/>
      <path class="cls-2" d="M258.83,163.71c.44,0,.68-.03.8-.04.36-.04.58-.1.69-.12.32-.08.51-.16.61-.2.29-.12.47-.22.57-.27v-2.37h-1.67c-.14,0-.2-.05-.23-.08-.09-.08-.09-.16-.09-.2v-.82h3.3v4.12c-.41.29-.7.44-.84.51-.44.22-.77.31-.94.36-.5.15-.88.19-1.07.22-.57.07-1.02.07-1.24.07-1.17,0-1.82-.27-2.15-.4-.97-.4-1.44-.88-1.68-1.12-.7-.72-.97-1.4-1.1-1.74-.39-1.01-.39-1.82-.39-2.23,0-1.23.26-1.91.39-2.24.39-1.01.86-1.49,1.1-1.74.72-.72,1.39-.99,1.73-1.12,1.02-.4,1.86-.4,2.28-.4.64,0,1,.06,1.18.09.55.09.86.21,1.02.27.47.18.73.34.87.43.4.25.63.46.74.57l-.41.66c-.13.2-.26.2-.33.2-.12,0-.21-.05-.26-.08-.19-.11-.34-.21-.42-.26-.23-.15-.46-.24-.57-.29-.33-.14-.64-.2-.79-.24-.45-.1-.87-.1-1.08-.1-.91,0-1.4.2-1.64.3-.73.3-1.08.66-1.25.85-.52.55-.7,1.07-.79,1.34-.28.78-.28,1.43-.28,1.76,0,1.02.19,1.55.29,1.82.29.8.64,1.17.81,1.35.53.55,1.01.75,1.24.85.72.29,1.3.29,1.59.29Z"/>
      <polygon class="cls-2" points="271.67 154.02 271.67 155.2 266.51 155.2 266.51 158.77 270.69 158.77 270.69 159.91 266.51 159.91 266.51 163.58 271.67 163.58 271.67 164.76 265.05 164.76 265.05 154.02 271.67 154.02"/>
      <path class="cls-2" d="M274.52,154.02c.19,0,.26.03.29.05.09.05.17.15.21.2l6.22,8.1c-.02-.19-.03-.32-.03-.38,0-.18,0-.3,0-.36v-7.61h1.28v10.75h-.73c-.17,0-.25-.04-.29-.06-.12-.06-.19-.16-.23-.2l-6.22-8.09c.01.19.02.31.02.37,0,.18,0,.28,0,.33v7.66h-1.27v-10.75h.75Z"/>
      <path class="cls-2" d="M286.7,159.59h1.72c.62,0,.94-.11,1.1-.17.48-.16.69-.36.8-.46.32-.3.43-.57.49-.71.16-.41.16-.74.16-.91,0-1.03-.42-1.41-.63-1.61-.63-.58-1.49-.58-1.92-.58h-1.72v4.42ZM286.7,160.74v4.02h-1.45v-10.75h3.17c1.02,0,1.52.16,1.77.24.75.24,1.08.53,1.25.67.49.43.66.85.74,1.05.24.61.24,1.12.24,1.37,0,.75-.18,1.16-.26,1.37-.26.62-.6.92-.77,1.07-.51.45-1.01.62-1.26.7-.75.25-1.39.25-1.72.25h-1.72Z"/>
      <polygon class="cls-2" points="295.73 163.54 300.38 163.54 300.38 164.76 294.27 164.76 294.27 154.02 295.73 154.02 295.73 163.54"/>
      <path class="cls-2" d="M303.78,160.77h4.01l-1.69-4.37c-.17-.41-.27-.81-.32-1.01-.08.31-.14.48-.16.57-.08.26-.13.39-.15.45l-1.69,4.36ZM310.82,164.76h-1.12c-.2,0-.28-.07-.32-.1-.12-.1-.16-.2-.18-.25l-1.01-2.6h-4.82l-1.01,2.6c-.05.13-.14.2-.18.24-.13.1-.25.1-.31.1h-1.12l4.3-10.75h1.48l4.3,10.75Z"/>
      <path class="cls-2" d="M317.69,155.7c-.07.11-.12.15-.14.17-.08.06-.16.06-.2.06-.13,0-.24-.08-.3-.13-.17-.13-.34-.23-.43-.28-.26-.15-.5-.24-.62-.28-.36-.13-.71-.13-.88-.13-.49,0-.74.09-.86.13-.38.13-.54.28-.63.36-.25.22-.34.43-.38.53-.13.3-.13.54-.13.66,0,.45.15.65.22.75.22.3.46.44.58.51.36.21.67.31.83.36.46.15.78.26.94.32.48.16.79.3.95.37.46.21.7.42.82.52.36.32.51.62.58.77.22.46.22.9.22,1.12,0,.71-.16,1.12-.24,1.32-.24.62-.55.92-.7,1.08-.46.46-.91.63-1.13.72-.67.26-1.24.26-1.53.26-1.04,0-1.61-.25-1.9-.38-.86-.38-1.26-.81-1.47-1.02l.42-.69c.06-.08.12-.12.15-.14.09-.06.16-.06.19-.06.16,0,.29.11.36.17.2.17.4.3.51.37.3.2.59.32.73.37.43.17.85.17,1.05.17.52,0,.79-.09.92-.14.41-.14.59-.32.69-.4.28-.26.38-.5.43-.62.15-.36.15-.66.15-.8,0-.49-.15-.7-.22-.8-.22-.31-.46-.45-.58-.52-.36-.21-.67-.31-.82-.36-.46-.15-.78-.25-.94-.3-.48-.15-.79-.29-.95-.36-.46-.2-.7-.42-.82-.52-.36-.32-.51-.65-.58-.81-.22-.48-.22-.96-.22-1.2,0-.57.15-.93.22-1.1.22-.53.5-.81.64-.95.42-.41.83-.58,1.04-.66.62-.25,1.15-.25,1.42-.25.9,0,1.4.19,1.64.28.74.29,1.11.65,1.3.83l-.35.69Z"/>
      <polygon class="cls-2" points="327.45 154.02 327.45 155.24 323.98 155.24 323.98 164.76 322.52 164.76 322.52 155.24 319.04 155.24 319.04 154.02 327.45 154.02"/>
      <path class="cls-2" d="M94.32,173.88c1.12,0,1.66.17,1.93.26.81.26,1.16.58,1.34.73.52.47.69.9.78,1.11.25.65.25,1.15.25,1.4,0,.8-.17,1.25-.26,1.47-.26.67-.62.99-.79,1.15-.53.48-1.07.66-1.34.75-.81.27-1.54.27-1.9.27h-1.42v3.74h-2.25v-10.88h3.67ZM94.32,179.3c1.06,0,1.39-.34,1.55-.51.49-.51.49-1.1.49-1.4,0-.41-.08-.63-.12-.74-.12-.33-.29-.49-.38-.57-.25-.24-.51-.32-.63-.36-.38-.13-.73-.13-.91-.13h-1.42v3.7h1.42Z"/>
      <path class="cls-2" d="M99.65,176.95c.12-.79.34-1.2.45-1.4.33-.6.66-.86.83-1,.49-.4.92-.53,1.13-.6.63-.2,1.12-.2,1.37-.2.78,0,1.19.15,1.4.22.62.22.9.48,1.05.6.43.38.58.72.66.89.23.51.23.9.23,1.09,0,.52-.07.78-.11.91-.11.39-.25.59-.32.69-.21.29-.42.43-.52.5-.31.2-.58.29-.72.34,1.88.61,1.88,1.87,1.88,2.5,0,.83-.21,1.26-.31,1.47-.31.63-.65.92-.83,1.06-.52.43-.98.57-1.2.64-.69.21-1.19.21-1.44.21-.79,0-1.2-.12-1.4-.18-.61-.18-.92-.42-1.07-.54-.46-.36-.68-.72-.79-.9-.33-.54-.49-1.03-.58-1.27l.91-.38c.36-.15.57-.1.67-.08.31.07.4.24.45.33.15.29.26.45.32.53.17.24.31.36.38.42.21.18.39.24.48.27.27.1.5.1.61.1.44,0,.65-.09.76-.14.32-.14.47-.3.54-.37.22-.23.29-.42.33-.52.11-.29.11-.48.11-.57,0-.38-.05-.58-.07-.68-.07-.3-.23-.45-.31-.52-.24-.21-.56-.29-.72-.33-.48-.12-1.02-.12-1.29-.12v-1.45c.68,0,.97-.08,1.12-.11.43-.11.6-.25.68-.31.25-.2.31-.39.34-.49.09-.28.09-.51.09-.62,0-.71-.25-.96-.37-1.09-.37-.38-.83-.38-1.05-.38-.3,0-.47.06-.55.09-.25.09-.38.19-.45.24-.2.15-.29.28-.34.35-.14.2-.19.36-.21.44-.14.38-.29.46-.37.5-.23.12-.51.08-.65.06l-1.09-.2Z"/>
      <path class="cls-2" d="M110.78,177.78c.34-.07.54-.09.65-.1.31-.03.51-.03.6-.03.85,0,1.29.17,1.51.26.66.26.95.56,1.1.71.45.45.6.86.67,1.06.22.61.22,1.07.22,1.3,0,.87-.2,1.35-.31,1.59-.31.72-.67,1.06-.85,1.23-.54.51-1.05.7-1.3.8-.75.28-1.35.28-1.65.28-.52,0-.83-.07-.99-.11-.47-.11-.74-.23-.88-.29-.41-.18-.64-.34-.76-.42-.35-.24-.54-.41-.63-.5l.64-.87c.2-.28.42-.28.53-.28.2,0,.33.08.4.12.2.12.36.22.44.27.25.15.47.23.58.27.33.12.65.12.8.12.49,0,.73-.11.85-.16.36-.16.52-.35.6-.44.24-.28.31-.54.35-.67.12-.39.12-.68.12-.83,0-.85-.32-1.16-.48-1.31-.48-.46-1.1-.46-1.41-.46-.76,0-1.27.19-1.52.29l-1.28-.36.91-5.35h5.46v.87c0,.22-.04.34-.06.39-.06.18-.16.26-.21.31-.15.13-.3.18-.38.2-.23.07-.45.07-.56.07h-2.81l-.35,2.05Z"/>
      <path class="cls-2" d="M125.87,180.77h4.01l-1.69-4.37c-.17-.41-.27-.81-.32-1.01-.08.31-.14.48-.16.57-.08.26-.13.39-.15.45l-1.69,4.36ZM132.91,184.76h-1.12c-.2,0-.27-.07-.32-.1-.12-.1-.16-.2-.18-.25l-1.01-2.6h-4.82l-1,2.6c-.05.13-.14.2-.18.24-.13.1-.25.1-.32.1h-1.12l4.3-10.75h1.48l4.3,10.75Z"/>
      <path class="cls-2" d="M141.53,182.54c.12,0,.18.06.22.1l.57.62c-.66.77-1.29,1.05-1.6,1.19-.94.43-1.83.43-2.27.43-1.16,0-1.79-.27-2.11-.4-.94-.4-1.39-.88-1.61-1.12-.67-.72-.91-1.4-1.03-1.74-.37-1.01-.37-1.82-.37-2.23,0-1.22.26-1.89.39-2.23.39-1.01.87-1.5,1.11-1.74.71-.73,1.38-.99,1.71-1.13.99-.4,1.79-.4,2.19-.4,1.18,0,1.76.24,2.04.37.86.37,1.3.79,1.53,1l-.47.67c-.05.08-.1.11-.12.12-.07.05-.15.05-.2.05-.1,0-.17-.05-.21-.07-.11-.07-.21-.14-.26-.18-.15-.11-.28-.18-.35-.23-.2-.12-.39-.19-.48-.22-.28-.11-.52-.15-.65-.18-.37-.07-.69-.07-.85-.07-.86,0-1.34.2-1.58.3-.72.3-1.06.66-1.23.84-.52.55-.71,1.07-.81,1.34-.29.79-.29,1.44-.29,1.76,0,1.01.19,1.53.29,1.79.29.79.62,1.15.79,1.33.5.54.95.73,1.18.83.68.28,1.21.28,1.47.28.48,0,.74-.04.86-.06.38-.06.6-.14.71-.18.33-.12.51-.24.61-.3.28-.18.47-.35.57-.44.13-.11.21-.11.25-.11Z"/>
      <path class="cls-2" d="M151.8,182.54c.12,0,.18.06.22.1l.57.62c-.66.77-1.29,1.05-1.6,1.19-.94.43-1.83.43-2.27.43-1.16,0-1.79-.27-2.11-.4-.95-.4-1.39-.88-1.61-1.12-.67-.72-.91-1.4-1.04-1.74-.37-1.01-.37-1.82-.37-2.23,0-1.22.26-1.89.39-2.23.39-1.01.87-1.5,1.11-1.74.71-.73,1.38-.99,1.71-1.13.99-.4,1.79-.4,2.19-.4,1.18,0,1.76.24,2.04.37.86.37,1.3.79,1.53,1l-.47.67c-.05.08-.1.11-.12.12-.07.05-.15.05-.2.05-.1,0-.17-.05-.21-.07-.11-.07-.21-.14-.26-.18-.15-.11-.29-.18-.35-.23-.2-.12-.39-.19-.48-.22-.28-.11-.52-.15-.65-.18-.37-.07-.69-.07-.85-.07-.86,0-1.34.2-1.58.3-.72.3-1.06.66-1.23.84-.52.55-.71,1.07-.81,1.34-.29.79-.29,1.44-.29,1.76,0,1.01.19,1.53.29,1.79.29.79.62,1.15.79,1.33.5.54.95.73,1.18.83.68.28,1.21.28,1.47.28.48,0,.73-.04.86-.06.38-.06.6-.14.71-.18.33-.12.51-.24.61-.3.28-.18.47-.35.57-.44.13-.11.21-.11.25-.11Z"/>
      <polygon class="cls-2" points="161.13 174.02 161.13 175.2 155.97 175.2 155.97 178.77 160.14 178.77 160.14 179.91 155.97 179.91 155.97 183.58 161.13 183.58 161.13 184.76 154.5 184.76 154.5 174.02 161.13 174.02"/>
      <path class="cls-2" d="M168.72,175.7c-.07.11-.12.15-.14.17-.08.06-.16.06-.2.06-.13,0-.24-.08-.3-.13-.17-.13-.34-.23-.43-.28-.26-.15-.5-.24-.62-.28-.36-.13-.71-.13-.88-.13-.49,0-.74.09-.86.13-.38.13-.54.28-.63.36-.25.22-.34.43-.38.53-.13.3-.13.54-.13.66,0,.45.15.65.22.75.22.3.46.44.59.51.36.21.67.31.83.36.46.15.78.26.95.32.48.16.79.3.94.37.46.21.7.42.83.52.36.32.51.62.59.77.22.46.22.9.22,1.12,0,.71-.16,1.12-.24,1.32-.24.62-.55.92-.7,1.08-.46.46-.91.63-1.13.72-.67.26-1.24.26-1.53.26-1.04,0-1.61-.25-1.9-.38-.86-.38-1.26-.81-1.47-1.02l.42-.69c.06-.08.12-.12.15-.14.09-.06.16-.06.19-.06.16,0,.29.11.36.17.2.17.41.3.51.37.3.2.59.32.73.37.43.17.85.17,1.05.17.52,0,.79-.09.92-.14.4-.14.59-.32.69-.4.28-.26.38-.5.43-.62.15-.36.15-.66.15-.8,0-.49-.15-.7-.22-.8-.22-.31-.46-.45-.58-.52-.36-.21-.67-.31-.82-.36-.46-.15-.78-.25-.95-.3-.48-.15-.79-.29-.95-.36-.46-.2-.7-.42-.82-.52-.36-.32-.51-.65-.58-.81-.22-.48-.22-.96-.22-1.2,0-.57.15-.93.22-1.1.22-.53.5-.81.64-.95.42-.41.83-.58,1.04-.66.62-.25,1.15-.25,1.42-.25.9,0,1.39.19,1.64.28.74.29,1.11.65,1.3.83l-.35.69Z"/>
      <path class="cls-2" d="M176.67,175.7c-.07.11-.12.15-.14.17-.07.06-.15.06-.19.06-.13,0-.24-.08-.3-.13-.17-.13-.34-.23-.43-.28-.26-.15-.5-.24-.62-.28-.36-.13-.71-.13-.88-.13-.49,0-.74.09-.86.13-.38.13-.54.28-.63.36-.25.22-.34.43-.38.53-.13.3-.13.54-.13.66,0,.45.15.65.22.75.22.3.46.44.59.51.36.21.67.31.82.36.46.15.78.26.95.32.48.16.79.3.95.37.46.21.7.42.83.52.36.32.51.62.59.77.22.46.22.9.22,1.12,0,.71-.16,1.12-.24,1.32-.24.62-.55.92-.7,1.08-.46.46-.91.63-1.13.72-.67.26-1.24.26-1.53.26-1.04,0-1.61-.25-1.9-.38-.86-.38-1.26-.81-1.47-1.02l.42-.69c.06-.08.12-.12.15-.14.09-.06.16-.06.19-.06.16,0,.29.11.36.17.2.17.41.3.51.37.3.2.59.32.73.37.43.17.85.17,1.05.17.52,0,.79-.09.92-.14.4-.14.59-.32.69-.4.28-.26.38-.5.43-.62.15-.36.15-.66.15-.8,0-.49-.15-.7-.22-.8-.22-.31-.46-.45-.58-.52-.36-.21-.67-.31-.82-.36-.46-.15-.78-.25-.95-.3-.48-.15-.79-.29-.95-.36-.46-.2-.7-.42-.82-.52-.36-.32-.51-.65-.58-.81-.22-.48-.22-.96-.22-1.2,0-.57.15-.93.22-1.1.22-.53.5-.81.64-.95.42-.41.83-.58,1.04-.66.62-.25,1.15-.25,1.42-.25.9,0,1.39.19,1.64.28.74.29,1.11.65,1.3.83l-.35.69Z"/>
      <path class="cls-2" d="M187.61,179.39c0-.99-.18-1.52-.27-1.78-.27-.79-.6-1.15-.76-1.33-.49-.54-.97-.74-1.2-.84-.71-.29-1.29-.29-1.58-.29-.86,0-1.33.2-1.57.29-.71.29-1.04.66-1.2.84-.5.54-.68,1.07-.77,1.33-.27.79-.27,1.45-.27,1.78,0,.99.18,1.51.27,1.77.27.78.6,1.15.77,1.33.5.54.97.74,1.2.83.71.29,1.28.29,1.57.29.87,0,1.34-.19,1.58-.29.71-.29,1.03-.65,1.2-.83.49-.54.67-1.07.76-1.33.27-.78.27-1.44.27-1.77ZM189.1,179.39c0,1.21-.26,1.88-.38,2.22-.38,1.01-.85,1.49-1.08,1.74-.7.73-1.35.99-1.68,1.13-.98.4-1.77.4-2.16.4-1.18,0-1.84-.27-2.16-.4-.98-.4-1.44-.89-1.67-1.13-.7-.73-.95-1.4-1.08-1.74-.38-1.01-.38-1.81-.38-2.22,0-1.21.26-1.88.38-2.22.38-1.01.85-1.5,1.08-1.74.7-.73,1.35-1,1.67-1.14.97-.4,1.76-.4,2.16-.4,1.18,0,1.84.27,2.16.4.98.41,1.44.89,1.68,1.14.7.73.95,1.4,1.08,1.74.38,1.01.38,1.81.38,2.22Z"/>
      <rect class="cls-2" x="191.36" y="174.02" width="1.46" height="10.75"/>
      <path class="cls-2" d="M197.29,179.22h1.52c.64,0,.96-.1,1.12-.15.48-.15.7-.34.81-.43.33-.28.44-.54.49-.67.16-.39.16-.71.16-.86,0-.96-.42-1.29-.63-1.45-.63-.49-1.47-.49-1.89-.49h-1.59v4.06ZM197.29,180.28v4.48h-1.45v-10.75h3.04c1.02,0,1.52.14,1.76.21.74.21,1.07.47,1.23.6.48.39.64.76.72.94.23.55.23,1.01.23,1.23,0,.57-.12.9-.18,1.07-.18.49-.41.76-.52.89-.34.39-.67.58-.83.67-.49.28-.91.37-1.11.42.27.16.41.36.48.46l3.14,4.27h-1.29c-.4,0-.52-.21-.59-.31l-2.79-3.84c-.13-.18-.23-.23-.28-.26-.15-.08-.35-.08-.45-.08h-1.1Z"/>
      <polygon class="cls-2" points="211.98 174.02 211.98 175.2 206.82 175.2 206.82 178.77 210.99 178.77 210.99 179.91 206.82 179.91 206.82 183.58 211.98 183.58 211.98 184.76 205.35 184.76 205.35 174.02 211.98 174.02"/>
      <path class="cls-2" d="M219.57,175.7c-.07.11-.12.15-.14.17-.08.06-.16.06-.2.06-.13,0-.24-.08-.3-.13-.17-.13-.34-.23-.43-.28-.26-.15-.5-.24-.62-.28-.36-.13-.71-.13-.88-.13-.49,0-.74.09-.86.13-.38.13-.54.28-.63.36-.25.22-.34.43-.38.53-.13.3-.13.54-.13.66,0,.45.15.65.22.75.22.3.46.44.58.51.36.21.67.31.83.36.46.15.78.26.95.32.48.16.79.3.95.37.46.21.7.42.83.52.36.32.51.62.58.77.22.46.22.9.22,1.12,0,.71-.16,1.12-.24,1.32-.24.62-.55.92-.7,1.08-.46.46-.91.63-1.13.72-.67.26-1.24.26-1.53.26-1.04,0-1.61-.25-1.9-.38-.86-.38-1.26-.81-1.47-1.02l.42-.69c.06-.08.12-.12.15-.14.09-.06.16-.06.19-.06.16,0,.29.11.36.17.2.17.4.3.51.37.3.2.59.32.73.37.43.17.85.17,1.05.17.52,0,.79-.09.92-.14.41-.14.59-.32.69-.4.28-.26.38-.5.43-.62.15-.36.15-.66.15-.8,0-.49-.15-.7-.22-.8-.22-.31-.46-.45-.58-.52-.36-.21-.67-.31-.82-.36-.46-.15-.78-.25-.95-.3-.48-.15-.79-.29-.95-.36-.46-.2-.7-.42-.82-.52-.36-.32-.51-.65-.58-.81-.22-.48-.22-.96-.22-1.2,0-.57.15-.93.22-1.1.22-.53.5-.81.64-.95.42-.41.83-.58,1.04-.66.62-.25,1.15-.25,1.42-.25.9,0,1.4.19,1.64.28.74.29,1.11.65,1.3.83l-.35.69Z"/>
      <path class="cls-2" d="M226.51,179.59h1.72c.62,0,.94-.11,1.1-.17.48-.16.69-.36.8-.46.32-.3.43-.57.49-.71.16-.41.16-.74.16-.91,0-1.03-.42-1.41-.63-1.61-.63-.58-1.49-.58-1.92-.58h-1.72v4.42ZM226.51,180.74v4.02h-1.45v-10.75h3.17c1.02,0,1.52.16,1.77.24.75.24,1.08.53,1.25.67.49.43.66.85.74,1.05.24.61.24,1.12.24,1.37,0,.75-.17,1.16-.26,1.37-.26.62-.6.92-.77,1.07-.51.45-1.01.62-1.26.7-.75.25-1.4.25-1.72.25h-1.72Z"/>
      <path class="cls-2" d="M232.83,174.02h1.16c.2,0,.28.07.32.1.12.1.16.2.18.25l3.04,7.58c.11.26.16.46.19.55.09.3.14.52.17.62.07-.32.12-.52.15-.62.08-.3.15-.47.18-.55l3.02-7.58c.05-.13.14-.2.18-.24.13-.11.25-.11.32-.11h1.17l-4.38,10.75h-1.31l-4.38-10.75Z"/>
      <path class="cls-2" d="M251.46,182.54c.12,0,.18.06.22.1l.57.62c-.66.77-1.29,1.05-1.6,1.19-.94.43-1.83.43-2.27.43-1.16,0-1.79-.27-2.11-.4-.95-.4-1.39-.88-1.61-1.12-.67-.72-.91-1.4-1.04-1.74-.37-1.01-.37-1.82-.37-2.23,0-1.22.26-1.89.39-2.23.39-1.01.87-1.5,1.11-1.74.71-.73,1.38-.99,1.71-1.13.99-.4,1.79-.4,2.19-.4,1.18,0,1.76.24,2.04.37.86.37,1.3.79,1.53,1l-.47.67c-.05.08-.1.11-.12.12-.07.05-.15.05-.19.05-.1,0-.17-.05-.21-.07-.11-.07-.21-.14-.26-.18-.15-.11-.29-.18-.35-.23-.2-.12-.39-.19-.48-.22-.28-.11-.52-.15-.65-.18-.37-.07-.69-.07-.85-.07-.86,0-1.34.2-1.58.3-.72.3-1.06.66-1.23.84-.52.55-.71,1.07-.81,1.34-.29.79-.29,1.44-.29,1.76,0,1.01.19,1.53.29,1.79.29.79.62,1.15.79,1.33.5.54.95.73,1.18.83.68.28,1.21.28,1.47.28.48,0,.73-.04.86-.06.38-.06.6-.14.71-.18.33-.12.51-.24.61-.3.28-.18.47-.35.57-.44.13-.11.21-.11.25-.11Z"/>
      <g>
        <path class="cls-4" d="M76.76,145.78c3.74,0,6.77-3.03,6.77-6.78s-3.03-6.78-6.77-6.78-6.77,3.03-6.77,6.78,3.03,6.78,6.77,6.78"/>
        <path class="cls-9" d="M76.76,165.11c3.74,0,6.77-3.03,6.77-6.78s-3.03-6.78-6.77-6.78-6.77,3.03-6.77,6.78,3.03,6.78,6.77,6.78"/>
        <path class="cls-7" d="M76.76,185.15c3.74,0,6.77-3.03,6.77-6.78s-3.03-6.78-6.77-6.78-6.77,3.03-6.77,6.78,3.03,6.78,6.77,6.78"/>
        <path class="cls-8" d="M76.76,106.69c3.74,0,6.77-3.03,6.77-6.78s-3.03-6.78-6.77-6.78-6.77,3.03-6.77,6.78,3.03,6.78,6.77,6.78"/>
        <path class="cls-6" d="M76.76,125.17c3.74,0,6.77-3.03,6.77-6.78s-3.03-6.78-6.77-6.78-6.77,3.03-6.77,6.78,3.03,6.78,6.77,6.78"/>
      </g>
    </g>
  </g>
</svg>
