<?xml version="1.0" encoding="UTF-8"?>
<svg xmlns="http://www.w3.org/2000/svg" id="Calque_2" data-name="Calque 2" viewBox="0 0 434.41 212.1" preserveAspectRatio="none" width="434.41" height="212.1">
  <defs>
    <style>
      .cls-1 {
        fill: #8f1a51;
      }

      .cls-2 {
        fill: #2a2f36;
      }

      .cls-3 {
        fill: #fff;
      }

      .cls-4 {
        fill: #2c354a;
      }

      .cls-5 {
        fill: #3c304b;
      }
    </style>
  </defs>
  <g id="Calque_1-2" data-name="Calque 1">
    <g>
      <rect class="cls-3" x="0" width="434.41" height="212.1"/>
      <path class="cls-4" d="M49.76,36.38l-6.46,5.72c-.22.18-.35.25-.42.29-.2.11-.34.15-.41.17-.21.06-.38.07-.46.08-.25.02-.45.02-.55.02h-4l4-5.42c.22-.3.36-.41.43-.47.21-.17.38-.23.46-.26.25-.09.46-.1.57-.11.32-.02.6-.02.74-.02h6.1ZM37.5,49.34v7.46h9.68v4.54h-9.68v7.62h12.44v4.7h-18.48v-29.02h18.48v4.7h-12.44Z"/>
      <path class="cls-4" d="M87.44,79.22h-4.94c-1.08,0-1.65-.19-1.93-.28-.85-.28-1.33-.79-1.57-1.04l-3.94-4.38c-1.94.46-3.34.46-4.04.46-3.34,0-5.17-.75-6.08-1.13-2.74-1.13-4.05-2.45-4.7-3.11-1.96-1.98-2.67-3.79-3.03-4.7-1.07-2.72-1.07-4.84-1.07-5.9,0-3.18.71-4.99,1.07-5.89,1.07-2.71,2.38-4.03,3.03-4.69,1.96-1.98,3.79-2.73,4.7-3.11,2.74-1.13,4.97-1.13,6.08-1.13,3.34,0,5.17.75,6.08,1.13,2.74,1.13,4.04,2.46,4.69,3.12,1.95,1.99,2.66,3.8,3.02,4.7,1.07,2.71,1.07,4.82,1.07,5.87,0,1.92-.26,3.09-.39,3.67-.39,1.75-.88,2.77-1.13,3.28-.74,1.53-1.46,2.4-1.82,2.83-1.08,1.3-1.99,1.95-2.44,2.28l7.34,8.02ZM62.28,59.14c0,2.3.4,3.51.6,4.11.6,1.81,1.35,2.65,1.73,3.07,1.13,1.26,2.21,1.71,2.75,1.93,1.62.67,2.98.67,3.66.67,2.04,0,3.11-.45,3.65-.67,1.61-.67,2.36-1.51,2.74-1.93,1.13-1.26,1.53-2.47,1.73-3.07.6-1.81.6-3.34.6-4.11,0-2.28-.4-3.49-.6-4.09-.6-1.81-1.35-2.66-1.73-3.08-1.13-1.27-2.2-1.72-2.74-1.94-1.61-.67-2.97-.67-3.65-.67-2.04,0-3.12.45-3.66.67-1.62.67-2.37,1.52-2.75,1.94-1.13,1.27-1.53,2.48-1.73,3.08-.6,1.81-.6,3.33-.6,4.09Z"/>
      <path class="cls-4" d="M106.14,68.86c1.46,0,2.23-.33,2.62-.49,1.16-.49,1.69-1.09,1.96-1.39.8-.9,1.08-1.75,1.22-2.18.42-1.28.42-2.35.42-2.88v-17.28h6v17.28c0,2.64-.57,4.11-.85,4.85-.85,2.21-1.9,3.28-2.43,3.81-1.58,1.6-3.09,2.2-3.84,2.5-2.26.9-4.15.9-5.1.9-2.84,0-4.35-.6-5.11-.9-2.27-.9-3.32-1.97-3.85-2.5-1.58-1.6-2.15-3.07-2.43-3.81-.85-2.21-.85-3.97-.85-4.85v-17.28h6v17.28c0,1.6.28,2.45.42,2.88.42,1.28.95,1.88,1.22,2.18.8.9,1.57,1.23,1.96,1.39,1.16.49,2.15.49,2.64.49Z"/>
      <rect class="cls-4" x="128.06" y="44.64" width="6.04" height="29.02"/>
      <path class="cls-4" d="M153.98,44.64c2.98,0,4.43.47,5.15.7,2.17.7,3.1,1.53,3.57,1.95,1.4,1.25,1.85,2.4,2.07,2.97.67,1.72.67,3.07.67,3.74,0,2.14-.47,3.33-.7,3.92-.7,1.78-1.65,2.63-2.12,3.06-1.42,1.28-2.86,1.75-3.58,1.99-2.16.71-4.09.71-5.06.71h-3.8v9.98h-6v-29.02h9.8ZM153.98,59.08c2.82,0,3.69-.91,4.13-1.36,1.31-1.36,1.31-2.93,1.31-3.72,0-1.08-.22-1.67-.33-1.97-.33-.89-.78-1.31-1-1.52-.67-.63-1.35-.86-1.69-.97-1.02-.34-1.95-.34-2.42-.34h-3.8v9.88h3.8Z"/>
      <polygon class="cls-4" points="179.3 49.34 179.3 56.8 188.98 56.8 188.98 61.34 179.3 61.34 179.3 68.96 191.74 68.96 191.74 73.66 173.26 73.66 173.26 44.64 191.74 44.64 191.74 49.34 179.3 49.34"/>
      <path class="cls-4" d="M232.22,44.64v29.02h-5.3v-17.82c0-.56.02-.99.03-1.2.03-.64.08-1.08.11-1.3l-8.3,15.74c-.68,1.3-1.63,1.3-2.1,1.3h-.84c-.7,0-1.06-.22-1.24-.33-.54-.33-.75-.76-.86-.97l-8.34-15.8c.06.7.09,1.13.1,1.35.04.65.04,1.02.04,1.21v17.82h-5.3v-29.02h4.56c.38,0,.58.01.68.02.3.02.45.08.53.11.23.09.36.22.42.28.19.19.31.42.37.53l8.12,15.48c.38.7.6,1.19.71,1.44.33.74.53,1.26.63,1.52.3-.8.52-1.31.63-1.56.33-.76.58-1.23.71-1.46l8.06-15.42c.18-.34.31-.47.38-.53.2-.19.35-.25.43-.28.23-.09.42-.1.52-.11.29-.02.56-.02.69-.02h4.56Z"/>
      <polygon class="cls-4" points="248.3 49.34 248.3 56.8 257.98 56.8 257.98 61.34 248.3 61.34 248.3 68.96 260.74 68.96 260.74 73.66 242.26 73.66 242.26 44.64 260.74 44.64 260.74 49.34 248.3 49.34"/>
      <path class="cls-4" d="M294.08,44.64v29.02h-3.1c-.7,0-1.02-.15-1.18-.23-.48-.23-.79-.6-.94-.79l-14.46-18.4c.06.7.08,1.15.09,1.38.03.68.03,1.07.03,1.26v16.78h-5.3v-29.02h3.16c.38,0,.56.02.65.03.27.03.42.1.49.14.22.11.35.23.42.29.2.18.36.38.44.48l14.56,18.48c-.08-.76-.11-1.23-.12-1.47-.04-.71-.04-1.14-.04-1.35v-16.6h5.3Z"/>
      <polygon class="cls-4" points="324.68 49.48 316.2 49.48 316.2 73.66 310.18 73.66 310.18 49.48 301.7 49.48 301.7 44.64 324.68 44.64 324.68 49.48"/>
      <path class="cls-2" d="M85.46,130.04c1.12,0,1.66.17,1.93.26.81.26,1.16.58,1.34.73.52.47.69.9.78,1.11.25.65.25,1.15.25,1.4,0,.8-.17,1.25-.26,1.47-.26.67-.62.99-.79,1.15-.53.48-1.07.66-1.34.75-.81.27-1.54.27-1.9.27h-1.42v3.74h-2.25v-10.88h3.67ZM85.46,135.45c1.06,0,1.39-.34,1.55-.51.49-.51.49-1.1.49-1.4,0-.41-.08-.63-.12-.74-.12-.33-.29-.49-.38-.57-.25-.24-.51-.32-.63-.36-.38-.13-.73-.13-.91-.13h-1.42v3.7h1.42Z"/>
      <path class="cls-2" d="M96.34,135.25c.99.33,1.29.77,1.44.99.45.66.45,1.28.45,1.59,0,.73-.18,1.12-.28,1.32-.28.59-.61.87-.78,1.01-.5.42-.97.57-1.21.64-.71.23-1.28.23-1.56.23-.85,0-1.33-.15-1.56-.23-.71-.23-1.04-.51-1.21-.64-.5-.42-.69-.81-.78-1.01-.28-.59-.28-1.08-.28-1.32,0-.93.3-1.37.45-1.59.45-.66,1.11-.88,1.44-.99-.77-.34-1.03-.74-1.15-.95-.38-.61-.38-1.17-.38-1.45,0-.63.17-.99.26-1.17.26-.54.56-.8.72-.93.46-.39.89-.54,1.1-.62.64-.22,1.14-.22,1.4-.22.76,0,1.18.15,1.4.22.64.23.94.49,1.1.62.46.39.63.75.72.93.25.54.25.96.25,1.17,0,.84-.25,1.24-.38,1.45-.38.61-.89.83-1.15.95ZM94.4,131.45c-.38,0-.57.08-.66.12-.27.12-.39.25-.45.32-.18.2-.23.37-.26.46-.08.26-.08.45-.08.55,0,.31.04.5.07.6.07.29.18.44.23.51.17.22.35.32.44.36.28.14.56.14.71.14.43,0,.61-.09.71-.14.28-.14.39-.29.44-.36.16-.23.21-.42.23-.51.07-.29.07-.49.07-.6,0-.28-.05-.46-.08-.55-.08-.26-.2-.4-.26-.46-.18-.2-.36-.28-.45-.32-.27-.12-.53-.12-.66-.12ZM94.4,139.46c.43,0,.64-.08.75-.13.32-.13.46-.27.53-.35.21-.22.28-.42.31-.53.11-.3.11-.54.11-.66,0-.81-.28-1.11-.42-1.26-.42-.45-.99-.45-1.28-.45-.86,0-1.14.3-1.28.45-.42.45-.42.99-.42,1.26,0,.35.07.55.1.66.11.3.24.45.32.53.21.22.42.31.53.35.32.13.6.13.75.13Z"/>
      <path class="cls-2" d="M106.57,139.4v1.52h-6.1v-1.52h2.16v-5.95c0-.2,0-.33,0-.4,0-.2.02-.34.02-.41l-1.42,1.18c-.15.11-.24.13-.29.14-.14.03-.23.01-.27,0-.13-.03-.19-.07-.23-.09-.1-.06-.13-.11-.15-.13l-.65-.88,3.35-2.84h1.7v9.37h1.88Z"/>
      <path class="cls-2" d="M113.45,136.93h4.01l-1.69-4.37c-.17-.41-.27-.81-.32-1.01-.08.31-.14.48-.16.57-.08.26-.13.39-.15.45l-1.69,4.36ZM120.49,140.92h-1.12c-.2,0-.27-.07-.32-.1-.12-.1-.16-.2-.18-.25l-1.01-2.6h-4.82l-1,2.6c-.05.13-.14.2-.18.24-.13.1-.25.1-.32.1h-1.12l4.3-10.75h1.48l4.3,10.75Z"/>
      <path class="cls-2" d="M122.6,130.17c.19,0,.26.03.29.05.09.05.17.15.21.2l6.22,8.1c-.02-.19-.03-.32-.03-.38,0-.18,0-.3,0-.36v-7.61h1.27v10.75h-.73c-.17,0-.25-.04-.29-.06-.12-.06-.19-.16-.23-.2l-6.22-8.09c.01.19.02.31.02.37,0,.18,0,.28,0,.33v7.66h-1.27v-10.75h.75Z"/>
      <path class="cls-2" d="M134.99,136.93h4.01l-1.69-4.37c-.16-.41-.27-.81-.32-1.01-.08.31-.14.48-.16.57-.08.26-.13.39-.15.45l-1.69,4.36ZM142.03,140.92h-1.12c-.2,0-.28-.07-.32-.1-.12-.1-.16-.2-.18-.25l-1.01-2.6h-4.82l-1.01,2.6c-.05.13-.14.2-.18.24-.13.1-.25.1-.32.1h-1.12l4.3-10.75h1.48l4.3,10.75Z"/>
      <polygon class="cls-2" points="144.84 139.7 149.49 139.7 149.49 140.92 143.39 140.92 143.39 130.17 144.84 130.17 144.84 139.7"/>
      <path class="cls-2" d="M153.65,136.64v4.28h-1.45v-4.28l-3.94-6.47h1.28c.19,0,.27.07.31.1.11.1.17.19.2.24l2.46,4.18c.15.26.22.42.25.49.1.23.16.38.18.46.08-.23.15-.39.18-.46.1-.23.2-.4.25-.49l2.45-4.18c.07-.12.15-.19.18-.23.12-.11.24-.11.3-.11h1.29l-3.95,6.47Z"/>
      <path class="cls-2" d="M164.45,131.85c-.07.11-.12.15-.14.17-.08.06-.15.06-.2.06-.13,0-.24-.08-.3-.13-.17-.13-.34-.23-.43-.28-.26-.15-.5-.24-.62-.28-.36-.13-.71-.13-.88-.13-.49,0-.74.09-.86.13-.38.13-.54.28-.63.36-.25.22-.34.43-.38.53-.13.3-.13.54-.13.66,0,.45.15.65.22.75.22.3.46.44.59.51.36.21.67.31.82.36.46.15.78.26.95.32.48.16.79.3.95.37.46.21.7.42.83.52.36.32.51.62.59.77.22.46.22.9.22,1.12,0,.71-.16,1.12-.24,1.32-.24.62-.55.92-.7,1.08-.46.46-.91.63-1.13.72-.67.26-1.24.26-1.53.26-1.04,0-1.61-.25-1.9-.38-.86-.38-1.26-.81-1.47-1.02l.42-.69c.06-.08.12-.12.15-.14.09-.06.16-.06.19-.06.16,0,.29.11.36.17.2.17.41.3.51.37.3.2.59.32.73.37.43.17.85.17,1.05.17.52,0,.79-.09.92-.14.4-.14.59-.32.69-.4.28-.26.38-.5.43-.62.15-.36.15-.66.15-.8,0-.49-.15-.7-.22-.8-.22-.31-.46-.45-.58-.52-.36-.21-.67-.31-.82-.36-.46-.15-.78-.25-.95-.3-.48-.15-.79-.29-.95-.36-.46-.2-.7-.42-.82-.52-.36-.32-.51-.65-.58-.81-.22-.48-.22-.96-.22-1.2,0-.57.15-.93.22-1.1.22-.53.5-.81.64-.95.42-.41.83-.58,1.04-.66.62-.25,1.15-.25,1.42-.25.9,0,1.4.19,1.64.28.74.29,1.11.65,1.3.83l-.35.69Z"/>
      <polygon class="cls-2" points="173.52 130.17 173.52 131.36 168.36 131.36 168.36 134.93 172.53 134.93 172.53 136.07 168.36 136.07 168.36 139.73 173.52 139.73 173.52 140.92 166.89 140.92 166.89 130.17 173.52 130.17"/>
      <polygon class="cls-2" points="185.13 130.17 185.13 131.36 179.97 131.36 179.97 134.93 184.14 134.93 184.14 136.07 179.97 136.07 179.97 139.73 185.13 139.73 185.13 140.92 178.5 140.92 178.5 130.17 185.13 130.17"/>
      <polygon class="cls-2" points="194.54 130.17 194.54 131.39 191.07 131.39 191.07 140.92 189.61 140.92 189.61 131.39 186.12 131.39 186.12 130.17 194.54 130.17"/>
      <polygon class="cls-2" points="205.59 130.17 205.59 131.36 200.43 131.36 200.43 134.93 204.6 134.93 204.6 136.07 200.43 136.07 200.43 139.73 205.59 139.73 205.59 140.92 198.96 140.92 198.96 130.17 205.59 130.17"/>
      <path class="cls-2" d="M208.43,130.17c.2,0,.26.03.29.05.09.05.17.15.21.2l6.23,8.1c-.02-.19-.03-.32-.03-.38,0-.18,0-.3,0-.36v-7.61h1.28v10.75h-.73c-.17,0-.25-.04-.29-.06-.12-.06-.19-.16-.23-.2l-6.22-8.09c.02.19.02.31.02.37,0,.18,0,.28,0,.33v7.66h-1.28v-10.75h.75Z"/>
      <polygon class="cls-2" points="226.34 130.17 226.34 131.39 222.87 131.39 222.87 140.92 221.41 140.92 221.41 131.39 217.92 131.39 217.92 130.17 226.34 130.17"/>
      <path class="cls-2" d="M229.47,135.38h1.52c.64,0,.96-.1,1.12-.15.48-.15.7-.34.81-.43.33-.28.44-.54.49-.67.16-.39.16-.71.16-.86,0-.96-.42-1.29-.63-1.45-.63-.49-1.47-.49-1.89-.49h-1.59v4.06ZM229.47,136.43v4.48h-1.45v-10.75h3.04c1.02,0,1.52.14,1.76.21.74.21,1.07.47,1.23.6.48.39.64.76.72.94.23.55.23,1.01.23,1.23,0,.57-.12.9-.18,1.07-.18.49-.41.76-.52.89-.34.39-.67.58-.83.67-.49.28-.91.37-1.11.42.27.16.41.36.48.46l3.14,4.27h-1.29c-.4,0-.52-.21-.58-.31l-2.79-3.84c-.13-.18-.23-.23-.28-.26-.15-.08-.35-.08-.45-.08h-1.1Z"/>
      <polygon class="cls-2" points="244.15 130.17 244.15 131.36 238.99 131.36 238.99 134.93 243.17 134.93 243.17 136.07 238.99 136.07 238.99 139.73 244.15 139.73 244.15 140.92 237.53 140.92 237.53 130.17 244.15 130.17"/>
      <polygon class="cls-2" points="253.56 130.17 253.56 131.39 250.09 131.39 250.09 140.92 248.64 140.92 248.64 131.39 245.15 131.39 245.15 130.17 253.56 130.17"/>
      <rect class="cls-2" x="255.36" y="130.17" width="1.46" height="10.75"/>
      <polygon class="cls-2" points="266.32 130.17 266.32 131.36 261.16 131.36 261.16 134.93 265.34 134.93 265.34 136.07 261.16 136.07 261.16 139.73 266.32 139.73 266.32 140.92 259.7 140.92 259.7 130.17 266.32 130.17"/>
      <path class="cls-2" d="M269.16,130.17c.19,0,.26.03.29.05.09.05.17.15.21.2l6.22,8.1c-.02-.19-.03-.32-.03-.38,0-.18,0-.3,0-.36v-7.61h1.28v10.75h-.73c-.17,0-.25-.04-.29-.06-.12-.06-.19-.16-.23-.2l-6.22-8.09c.02.19.02.31.02.37,0,.18,0,.28,0,.33v7.66h-1.28v-10.75h.75Z"/>
      <path class="cls-2" d="M290.47,135.55c0-.99-.18-1.51-.27-1.77-.27-.78-.6-1.14-.77-1.32-.49-.54-.96-.73-1.2-.82-.71-.29-1.28-.29-1.57-.29h-2.56v8.39h2.56c.86,0,1.33-.19,1.57-.29.7-.28,1.03-.64,1.2-.82.49-.54.68-1.06.77-1.32.27-.78.27-1.44.27-1.77ZM291.96,135.55c0,1.21-.26,1.87-.38,2.2-.38.99-.85,1.46-1.08,1.7-.7.7-1.35.96-1.67,1.09-.97.39-1.76.39-2.16.39h-4.02v-10.75h4.02c1.18,0,1.83.26,2.16.39.98.39,1.44.86,1.67,1.1.7.71.95,1.37,1.08,1.7.38.99.38,1.79.38,2.2Z"/>
      <polygon class="cls-2" points="300.57 130.17 300.57 131.36 295.41 131.36 295.41 134.93 299.58 134.93 299.58 136.07 295.41 136.07 295.41 139.73 300.57 139.73 300.57 140.92 293.94 140.92 293.94 130.17 300.57 130.17"/>
      <polygon class="cls-2" points="307.01 139.7 311.66 139.7 311.66 140.92 305.55 140.92 305.55 130.17 307.01 130.17 307.01 139.7"/>
      <path class="cls-2" d="M311.82,129.61c.22.36.28.6.31.72.1.36.1.6.1.72,0,.68-.22,1.09-.33,1.3-.33.62-.73.96-.93,1.14l-.41-.26c-.06-.04-.07-.07-.08-.08-.02-.04-.02-.07-.02-.09,0-.11.05-.16.08-.18.12-.14.19-.26.23-.31.11-.17.17-.29.2-.35.09-.18.12-.32.14-.39.05-.2.05-.35.05-.43,0-.24-.05-.41-.07-.49-.07-.26-.19-.45-.24-.54-.05-.08-.05-.14-.05-.17,0-.18.14-.23.2-.26l.82-.33Z"/>
      <polygon class="cls-2" points="320.89 130.17 320.89 131.36 315.73 131.36 315.73 134.93 319.91 134.93 319.91 136.07 315.73 136.07 315.73 139.73 320.89 139.73 320.89 140.92 314.27 140.92 314.27 130.17 320.89 130.17"/>
      <path class="cls-2" d="M324.78,136.93h4.01l-1.69-4.37c-.17-.41-.27-.81-.32-1.01-.08.31-.14.48-.16.57-.08.26-.13.39-.15.45l-1.69,4.36ZM331.83,140.92h-1.12c-.2,0-.28-.07-.32-.1-.12-.1-.16-.2-.18-.25l-1.01-2.6h-4.82l-1.01,2.6c-.05.13-.14.2-.18.24-.13.1-.25.1-.31.1h-1.12l4.3-10.75h1.48l4.3,10.75Z"/>
      <path class="cls-2" d="M336.94,139.76c.67,0,1.02-.15,1.19-.22.53-.22.77-.49.89-.63.36-.4.49-.78.56-.97.19-.56.19-1.01.19-1.24v-6.53h1.45v6.53c0,.93-.2,1.46-.3,1.73-.3.79-.66,1.18-.85,1.38-.55.58-1.08.8-1.35.91-.79.33-1.45.33-1.79.33-.99,0-1.52-.22-1.78-.33-.8-.33-1.17-.72-1.35-.91-.56-.58-.75-1.11-.85-1.38-.3-.79-.3-1.42-.3-1.73v-6.53h1.45v6.53c0,.67.13,1.05.19,1.24.19.56.43.83.55.97.36.41.72.56.89.63.53.23.97.23,1.2.23Z"/>
      <path class="cls-2" d="M85.46,150.04c1.12,0,1.66.17,1.93.26.81.26,1.16.58,1.34.73.52.47.69.9.78,1.11.25.65.25,1.15.25,1.4,0,.8-.17,1.25-.26,1.47-.26.67-.62.99-.79,1.15-.53.48-1.07.66-1.34.75-.81.27-1.54.27-1.9.27h-1.42v3.74h-2.25v-10.88h3.67ZM85.46,155.45c1.06,0,1.39-.34,1.55-.51.49-.51.49-1.1.49-1.4,0-.41-.08-.63-.12-.74-.12-.33-.29-.49-.38-.57-.25-.24-.51-.32-.63-.36-.38-.13-.73-.13-.91-.13h-1.42v3.7h1.42Z"/>
      <path class="cls-2" d="M96.34,155.25c.99.33,1.29.77,1.44.99.45.66.45,1.28.45,1.59,0,.73-.18,1.12-.28,1.32-.28.59-.61.87-.78,1.01-.5.42-.97.57-1.21.64-.71.23-1.28.23-1.56.23-.85,0-1.33-.15-1.56-.23-.71-.23-1.04-.51-1.21-.64-.5-.42-.69-.81-.78-1.01-.28-.59-.28-1.08-.28-1.32,0-.93.3-1.37.45-1.59.45-.66,1.11-.88,1.44-.99-.77-.34-1.03-.74-1.15-.95-.38-.61-.38-1.17-.38-1.45,0-.63.17-.99.26-1.17.26-.54.56-.8.72-.93.46-.39.89-.54,1.1-.62.64-.22,1.14-.22,1.4-.22.76,0,1.18.15,1.4.22.64.23.94.49,1.1.62.46.39.63.75.72.93.25.54.25.96.25,1.17,0,.84-.25,1.24-.38,1.45-.38.61-.89.83-1.15.95ZM94.4,151.45c-.38,0-.57.08-.66.12-.27.12-.39.25-.45.32-.18.2-.23.37-.26.46-.08.26-.08.45-.08.55,0,.31.04.5.07.6.07.29.18.44.23.51.17.22.35.32.44.36.28.14.56.14.71.14.43,0,.61-.09.71-.14.28-.14.39-.29.44-.36.16-.23.21-.42.23-.51.07-.29.07-.49.07-.6,0-.28-.05-.46-.08-.55-.08-.26-.2-.4-.26-.46-.18-.2-.36-.28-.45-.32-.27-.12-.53-.12-.66-.12ZM94.4,159.46c.43,0,.64-.08.75-.13.32-.13.46-.27.53-.35.21-.22.28-.42.31-.53.11-.3.11-.54.11-.66,0-.81-.28-1.11-.42-1.26-.42-.45-.99-.45-1.28-.45-.86,0-1.14.3-1.28.45-.42.45-.42.99-.42,1.26,0,.35.07.55.1.66.11.3.24.45.32.53.21.22.42.31.53.35.32.13.6.13.75.13Z"/>
      <path class="cls-2" d="M101.92,153.94c.34-.07.54-.09.65-.1.31-.03.51-.03.6-.03.85,0,1.29.17,1.51.26.66.26.95.56,1.1.71.45.45.6.86.67,1.06.22.61.22,1.07.22,1.3,0,.87-.2,1.35-.31,1.59-.31.72-.67,1.06-.85,1.23-.54.51-1.05.7-1.3.8-.75.28-1.35.28-1.65.28-.52,0-.83-.07-.99-.11-.47-.11-.74-.23-.88-.29-.41-.18-.64-.34-.76-.42-.35-.24-.54-.41-.63-.5l.64-.87c.2-.28.42-.28.53-.28.2,0,.33.08.4.12.2.12.36.22.44.27.25.15.47.23.58.27.33.12.65.12.8.12.49,0,.73-.11.85-.16.36-.16.52-.35.6-.44.24-.28.31-.54.35-.67.12-.39.12-.68.12-.83,0-.85-.32-1.16-.48-1.31-.48-.46-1.1-.46-1.41-.46-.76,0-1.27.19-1.52.29l-1.28-.36.91-5.35h5.46v.87c0,.22-.04.34-.06.39-.06.18-.16.26-.21.31-.15.13-.3.18-.38.2-.23.07-.45.07-.56.07h-2.81l-.35,2.05Z"/>
      <path class="cls-2" d="M112.4,150.17c.2,0,.26.03.29.05.09.05.17.15.21.2l6.22,8.1c-.02-.19-.03-.32-.03-.38,0-.18,0-.3,0-.36v-7.61h1.27v10.75h-.73c-.17,0-.25-.04-.29-.06-.12-.06-.19-.16-.23-.2l-6.22-8.09c.02.19.02.31.02.37,0,.18,0,.28,0,.33v7.66h-1.27v-10.75h.75Z"/>
      <polygon class="cls-2" points="129.61 150.17 129.61 151.36 124.45 151.36 124.45 154.93 128.63 154.93 128.63 156.07 124.45 156.07 124.45 159.73 129.61 159.73 129.61 160.92 122.99 160.92 122.99 150.17 129.61 150.17"/>
      <polygon class="cls-2" points="139.02 150.17 139.02 151.39 135.55 151.39 135.55 160.92 134.1 160.92 134.1 151.39 130.61 151.39 130.61 150.17 139.02 150.17"/>
      <polygon class="cls-2" points="147.87 150.17 147.87 151.39 144.4 151.39 144.4 160.92 142.95 160.92 142.95 151.39 139.46 151.39 139.46 150.17 147.87 150.17"/>
      <path class="cls-2" d="M157.16,155.55c0-.99-.18-1.52-.27-1.78-.27-.79-.6-1.15-.77-1.33-.49-.54-.96-.74-1.2-.84-.7-.29-1.28-.29-1.57-.29-.86,0-1.33.2-1.57.29-.71.29-1.04.66-1.2.84-.5.54-.68,1.07-.77,1.33-.27.79-.27,1.45-.27,1.78,0,.99.18,1.51.27,1.77.27.78.6,1.15.77,1.33.5.54.97.74,1.2.83.7.29,1.28.29,1.57.29.87,0,1.34-.19,1.57-.29.71-.29,1.04-.65,1.2-.83.49-.54.67-1.07.77-1.33.27-.78.27-1.44.27-1.77ZM158.65,155.55c0,1.21-.26,1.88-.38,2.22-.38,1.01-.85,1.49-1.08,1.74-.7.73-1.35.99-1.68,1.13-.98.4-1.77.4-2.16.4-1.18,0-1.84-.27-2.16-.4-.97-.4-1.44-.89-1.67-1.13-.7-.73-.95-1.4-1.08-1.74-.38-1.01-.38-1.81-.38-2.22,0-1.21.26-1.88.38-2.22.38-1.01.85-1.5,1.08-1.74.7-.73,1.35-1,1.67-1.14.98-.4,1.77-.4,2.16-.4,1.18,0,1.84.27,2.16.4.98.41,1.44.89,1.68,1.14.7.73.95,1.4,1.08,1.74.38,1.01.38,1.81.38,2.22Z"/>
      <path class="cls-2" d="M164.18,156.64v4.28h-1.45v-4.28l-3.94-6.47h1.28c.2,0,.27.07.31.1.11.1.17.19.2.24l2.46,4.18c.15.26.22.42.25.49.1.23.16.38.18.46.08-.23.15-.39.18-.46.1-.23.2-.4.25-.49l2.45-4.18c.07-.12.14-.19.18-.23.12-.11.24-.11.3-.11h1.29l-3.95,6.47Z"/>
      <polygon class="cls-2" points="176.1 150.17 176.1 151.36 170.94 151.36 170.94 154.93 175.11 154.93 175.11 156.07 170.94 156.07 170.94 159.73 176.1 159.73 176.1 160.92 169.47 160.92 169.47 150.17 176.1 150.17"/>
      <path class="cls-2" d="M182.37,159.76c.67,0,1.02-.15,1.19-.22.53-.22.77-.49.89-.63.36-.4.49-.78.55-.97.19-.56.19-1.01.19-1.24v-6.53h1.45v6.53c0,.93-.2,1.46-.3,1.73-.3.79-.66,1.18-.85,1.38-.55.58-1.08.8-1.35.91-.8.33-1.46.33-1.79.33-.99,0-1.52-.22-1.78-.33-.79-.33-1.16-.72-1.35-.91-.55-.58-.75-1.11-.85-1.38-.3-.79-.3-1.42-.3-1.73v-6.53h1.45v6.53c0,.67.13,1.05.19,1.24.19.56.43.83.55.97.36.41.72.56.89.63.53.23.97.23,1.2.23Z"/>
      <path class="cls-2" d="M190.74,155.38h1.52c.64,0,.96-.1,1.12-.15.48-.15.7-.34.81-.43.33-.28.44-.54.49-.67.17-.39.17-.71.17-.86,0-.96-.42-1.29-.63-1.45-.63-.49-1.47-.49-1.89-.49h-1.59v4.06ZM190.74,156.43v4.48h-1.45v-10.75h3.04c1.02,0,1.52.14,1.76.21.74.21,1.07.47,1.23.6.48.39.64.76.72.94.23.55.23,1.01.23,1.23,0,.57-.12.9-.18,1.07-.18.49-.41.76-.52.89-.34.39-.67.58-.83.67-.49.28-.91.37-1.11.42.27.16.41.36.48.46l3.13,4.27h-1.29c-.4,0-.52-.21-.59-.31l-2.79-3.84c-.13-.18-.23-.23-.28-.26-.15-.08-.35-.08-.45-.08h-1.1Z"/>
      <path class="cls-2" d="M204.3,151.85c-.07.11-.12.15-.14.17-.08.06-.16.06-.2.06-.13,0-.24-.08-.3-.13-.17-.13-.34-.23-.43-.28-.26-.15-.5-.24-.62-.28-.36-.13-.71-.13-.88-.13-.49,0-.74.09-.86.13-.38.13-.54.28-.63.36-.25.22-.34.43-.38.53-.13.3-.13.54-.13.66,0,.45.15.65.22.75.22.3.46.44.59.51.36.21.67.31.83.36.46.15.78.26.95.32.48.16.79.3.94.37.46.21.7.42.83.52.36.32.51.62.59.77.22.46.22.9.22,1.12,0,.71-.16,1.12-.24,1.32-.24.62-.55.92-.7,1.08-.46.46-.91.63-1.13.72-.67.26-1.24.26-1.53.26-1.04,0-1.61-.25-1.9-.38-.86-.38-1.26-.81-1.47-1.02l.42-.69c.06-.08.12-.12.15-.14.09-.06.16-.06.19-.06.16,0,.29.11.36.17.2.17.41.3.51.37.3.2.59.32.73.37.43.17.85.17,1.05.17.52,0,.79-.09.92-.14.4-.14.59-.32.69-.4.28-.26.38-.5.43-.62.15-.36.15-.66.15-.8,0-.49-.15-.7-.22-.8-.22-.31-.46-.45-.58-.52-.36-.21-.67-.31-.82-.36-.46-.15-.78-.25-.95-.3-.48-.15-.79-.29-.95-.36-.46-.2-.7-.42-.82-.52-.36-.32-.51-.65-.58-.81-.22-.48-.22-.96-.22-1.2,0-.57.15-.93.22-1.1.22-.53.5-.81.64-.95.42-.41.83-.58,1.04-.66.62-.25,1.15-.25,1.42-.25.9,0,1.39.19,1.64.28.74.29,1.11.65,1.3.83l-.35.69Z"/>
      <path class="cls-2" d="M215.61,147.55l-2.2,1.62c-.13.09-.19.11-.23.12-.1.03-.2.03-.26.03h-1.03l1.58-1.52c.07-.08.12-.1.14-.12.06-.04.11-.07.13-.08.07-.03.12-.04.15-.04.08-.01.17-.01.21-.01h1.51ZM216.27,150.17v1.18h-5.16v3.57h4.18v1.14h-4.18v3.67h5.16v1.18h-6.62v-10.75h6.62Z"/>
      <polygon class="cls-2" points="219.81 159.7 224.46 159.7 224.46 160.92 218.36 160.92 218.36 150.17 219.81 150.17 219.81 159.7"/>
      <polygon class="cls-2" points="232.69 150.17 232.69 151.36 227.53 151.36 227.53 154.93 231.71 154.93 231.71 156.07 227.53 156.07 227.53 159.73 232.69 159.73 232.69 160.92 226.07 160.92 226.07 150.17 232.69 150.17"/>
      <path class="cls-2" d="M242.36,158.7c.12,0,.18.06.22.1l.57.62c-.66.77-1.29,1.05-1.6,1.19-.94.43-1.83.43-2.27.43-1.16,0-1.79-.27-2.11-.4-.94-.4-1.39-.88-1.61-1.12-.67-.72-.91-1.4-1.03-1.74-.37-1.01-.37-1.82-.37-2.23,0-1.22.26-1.89.39-2.23.39-1.01.87-1.5,1.11-1.74.71-.73,1.38-.99,1.71-1.13.99-.4,1.79-.4,2.19-.4,1.18,0,1.76.24,2.04.37.86.37,1.3.79,1.53,1l-.47.67c-.05.08-.1.11-.12.12-.07.05-.15.05-.2.05-.1,0-.17-.05-.21-.07-.11-.07-.21-.14-.26-.18-.15-.11-.28-.18-.35-.23-.2-.12-.39-.19-.48-.22-.28-.11-.52-.15-.65-.18-.37-.07-.69-.07-.85-.07-.86,0-1.34.2-1.58.3-.72.3-1.06.66-1.23.84-.52.55-.71,1.07-.81,1.34-.29.79-.29,1.44-.29,1.76,0,1.01.19,1.53.29,1.79.29.79.62,1.15.79,1.33.5.54.95.73,1.18.83.68.28,1.21.28,1.47.28.48,0,.74-.04.86-.06.38-.06.6-.14.71-.18.33-.12.51-.24.61-.3.28-.18.47-.35.57-.44.13-.11.21-.11.25-.11Z"/>
      <polygon class="cls-2" points="252.38 150.17 252.38 151.39 248.91 151.39 248.91 160.92 247.45 160.92 247.45 151.39 243.96 151.39 243.96 150.17 252.38 150.17"/>
      <path class="cls-2" d="M255.51,155.38h1.52c.64,0,.96-.1,1.12-.15.48-.15.7-.34.81-.43.33-.28.44-.54.49-.67.17-.39.17-.71.17-.86,0-.96-.42-1.29-.63-1.45-.63-.49-1.47-.49-1.89-.49h-1.59v4.06ZM255.51,156.43v4.48h-1.45v-10.75h3.04c1.02,0,1.52.14,1.76.21.74.21,1.07.47,1.23.6.48.39.64.76.72.94.23.55.23,1.01.23,1.23,0,.57-.12.9-.18,1.07-.18.49-.41.76-.52.89-.34.39-.67.58-.83.67-.49.28-.91.37-1.11.42.27.16.41.36.48.46l3.14,4.27h-1.29c-.4,0-.52-.21-.58-.31l-2.79-3.84c-.13-.18-.23-.23-.28-.26-.15-.08-.35-.08-.45-.08h-1.1Z"/>
      <rect class="cls-2" x="263.84" y="150.17" width="1.46" height="10.75"/>
      <path class="cls-2" d="M276.66,155.55c0-.99-.18-1.52-.27-1.78-.27-.79-.6-1.15-.77-1.33-.49-.54-.96-.74-1.2-.84-.71-.29-1.29-.29-1.58-.29-.86,0-1.33.2-1.57.29-.7.29-1.04.66-1.2.84-.5.54-.68,1.07-.77,1.33-.27.79-.27,1.45-.27,1.78,0,.99.18,1.51.27,1.77.27.78.6,1.15.77,1.33.5.54.97.74,1.2.83.71.29,1.28.29,1.57.29.87,0,1.34-.19,1.58-.29.7-.29,1.03-.65,1.2-.83.49-.54.68-1.07.77-1.33.27-.78.27-1.44.27-1.77ZM278.16,155.55c0,.76-.1,1.21-.15,1.44-.15.68-.35,1.08-.45,1.27-.29.59-.57.91-.71,1.07-.42.48-.77.72-.94.83l2.76,2.98h-1.2c-.27,0-.41-.05-.48-.07-.21-.08-.32-.2-.38-.26l-1.89-2.05c-.43.14-.73.18-.89.21-.46.08-.8.08-.96.08-1.18,0-1.83-.27-2.16-.4-.98-.4-1.44-.89-1.67-1.13-.7-.73-.95-1.4-1.08-1.74-.38-1.01-.38-1.81-.38-2.22,0-1.21.26-1.88.38-2.22.38-1.01.85-1.5,1.08-1.74.7-.73,1.35-1,1.67-1.14.97-.4,1.76-.4,2.16-.4,1.19,0,1.84.27,2.16.4.98.41,1.44.89,1.68,1.14.7.73.95,1.4,1.08,1.74.38,1.01.38,1.81.38,2.22Z"/>
      <path class="cls-2" d="M284.32,159.76c.67,0,1.02-.15,1.19-.22.53-.22.77-.49.89-.63.36-.4.49-.78.55-.97.19-.56.19-1.01.19-1.24v-6.53h1.45v6.53c0,.93-.2,1.46-.3,1.73-.3.79-.66,1.18-.85,1.38-.55.58-1.08.8-1.35.91-.8.33-1.46.33-1.79.33-.99,0-1.52-.22-1.79-.33-.79-.33-1.16-.72-1.35-.91-.55-.58-.75-1.11-.85-1.38-.3-.79-.3-1.42-.3-1.73v-6.53h1.45v6.53c0,.67.13,1.05.19,1.24.19.56.43.83.56.97.36.41.72.56.89.63.53.23.97.23,1.2.23Z"/>
      <polygon class="cls-2" points="297.72 150.17 297.72 151.36 292.56 151.36 292.56 154.93 296.73 154.93 296.73 156.07 292.56 156.07 292.56 159.73 297.72 159.73 297.72 160.92 291.09 160.92 291.09 150.17 297.72 150.17"/>
      <path class="cls-2" d="M305.31,151.85c-.07.11-.12.15-.14.17-.07.06-.16.06-.19.06-.13,0-.24-.08-.3-.13-.17-.13-.34-.23-.43-.28-.26-.15-.5-.24-.62-.28-.36-.13-.71-.13-.88-.13-.49,0-.74.09-.86.13-.38.13-.54.28-.63.36-.25.22-.34.43-.38.53-.13.3-.13.54-.13.66,0,.45.15.65.22.75.22.3.46.44.58.51.36.21.67.31.82.36.46.15.78.26.95.32.48.16.79.3.94.37.46.21.7.42.83.52.36.32.51.62.58.77.22.46.22.9.22,1.12,0,.71-.16,1.12-.24,1.32-.24.62-.55.92-.7,1.08-.46.46-.91.63-1.13.72-.67.26-1.24.26-1.53.26-1.04,0-1.61-.25-1.9-.38-.86-.38-1.26-.81-1.47-1.02l.42-.69c.06-.08.12-.12.15-.14.09-.06.16-.06.19-.06.16,0,.29.11.36.17.2.17.41.3.51.37.3.2.59.32.73.37.43.17.85.17,1.05.17.52,0,.79-.09.92-.14.41-.14.59-.32.69-.4.28-.26.38-.5.43-.62.15-.36.15-.66.15-.8,0-.49-.15-.7-.22-.8-.22-.31-.46-.45-.58-.52-.36-.21-.67-.31-.82-.36-.46-.15-.78-.25-.95-.3-.48-.15-.79-.29-.94-.36-.46-.2-.7-.42-.82-.52-.36-.32-.51-.65-.58-.81-.22-.48-.22-.96-.22-1.2,0-.57.15-.93.22-1.1.22-.53.5-.81.64-.95.42-.41.83-.58,1.04-.66.62-.25,1.15-.25,1.42-.25.9,0,1.4.19,1.64.28.74.29,1.11.65,1.3.83l-.35.69Z"/>
      <rect class="cls-5" x="360.71" y="130.18" width="73.7" height="10.77"/>
      <rect class="cls-1" x="360.71" y="150.8" width="73.7" height="10.77"/>
      <g>
        <path class="cls-5" d="M68.14,142.51c3.74,0,6.77-3.03,6.77-6.78s-3.03-6.78-6.77-6.78-6.77,3.03-6.77,6.78,3.03,6.78,6.77,6.78"/>
        <path class="cls-1" d="M68.14,161.58c3.74,0,6.77-3.03,6.77-6.78s-3.03-6.78-6.77-6.78-6.77,3.03-6.77,6.78,3.03,6.78,6.77,6.78"/>
      </g>
    </g>
  </g>
</svg>
