<?xml version="1.0" encoding="UTF-8"?>
<svg xmlns="http://www.w3.org/2000/svg" id="Calque_2" data-name="Calque 2" viewBox="0 0 467.5 175.75" preserveAspectRatio="none" width="467.5" height="175.75">
  <defs>
    <style>
      .cls-1 {
        fill: #2a2f36;
      }

      .cls-2 {
        fill: #fff;
      }

      .cls-3 {
        fill: #d98761;
      }

      .cls-4 {
        fill: #32465c;
      }

      .cls-5 {
        fill: #ebba3e;
      }
    </style>
  </defs>
  <g id="Calque_1-2" data-name="Calque 1">
    <g>
      <rect class="cls-2" x="0" width="467.5" height="175.75"/>
      <path class="cls-4" d="M50.93,59.15c.5,0,.73.24.84.36l2.38,2.54c-1.76,2.24-3.5,3.01-4.37,3.4-2.61,1.16-5.01,1.16-6.21,1.16-3.26,0-4.99-.74-5.86-1.11-2.6-1.11-3.81-2.43-4.42-3.09-1.82-1.98-2.47-3.79-2.8-4.7-.98-2.72-.98-4.87-.98-5.94,0-2.16.31-3.46.47-4.11.47-1.95,1.07-3.04,1.37-3.59.9-1.64,1.75-2.52,2.17-2.96,1.27-1.32,2.34-1.94,2.87-2.25,1.6-.93,2.86-1.26,3.49-1.42,1.89-.49,3.32-.49,4.03-.49,1.6,0,2.55.19,3.03.28,1.43.28,2.26.61,2.67.78,1.24.5,1.94.97,2.29,1.21,1.05.71,1.61,1.27,1.89,1.55l-2.02,2.76c-.18.26-.37.39-.46.46-.28.2-.6.2-.76.2-.48,0-.81-.23-.97-.34-.49-.34-.96-.62-1.2-.76-.71-.42-1.42-.65-1.78-.76-1.07-.34-2.16-.34-2.71-.34-1.82,0-2.83.44-3.34.66-1.52.66-2.25,1.49-2.61,1.91-1.09,1.25-1.49,2.46-1.69,3.07-.6,1.82-.6,3.37-.6,4.14,0,2.34.43,3.56.65,4.17.65,1.83,1.4,2.67,1.78,3.09,1.13,1.26,2.14,1.69,2.64,1.91,1.51.65,2.66.65,3.23.65,1.02,0,1.57-.07,1.85-.1.83-.1,1.3-.26,1.54-.34.71-.24,1.13-.49,1.34-.62.63-.38,1.06-.77,1.27-.96.22-.18.38-.26.46-.3.24-.12.43-.12.52-.12Z"/>
      <polygon class="cls-4" points="86.39 37.27 86.39 66.29 80.35 66.29 80.35 53.79 67.57 53.79 67.57 66.29 61.53 66.29 61.53 37.27 67.57 37.27 67.57 49.59 80.35 49.59 80.35 37.27 86.39 37.27"/>
      <path class="cls-4" d="M121.85,66.29h-4.66c-.78,0-1.11-.25-1.27-.37-.49-.37-.65-.76-.73-.95l-1.96-5.54h-11.56l-1.96,5.54c-.2.5-.53.77-.7.91-.5.41-1.01.41-1.26.41h-4.7l11.34-29.02h6.14l11.32,29.02ZM111.77,55.27l-3.14-8.88c-.28-.7-.49-1.33-.59-1.64-.31-.94-.5-1.67-.59-2.04-.28,1.12-.49,1.75-.59,2.07-.31.95-.5,1.42-.59,1.65l-3.12,8.84h8.62Z"/>
      <path class="cls-4" d="M139.67,61.49c1.46,0,2.23-.33,2.62-.49,1.16-.49,1.69-1.09,1.96-1.39.8-.9,1.08-1.75,1.22-2.18.42-1.28.42-2.35.42-2.88v-17.28h6v17.28c0,2.64-.57,4.11-.85,4.85-.85,2.21-1.9,3.28-2.43,3.81-1.58,1.6-3.09,2.2-3.84,2.5-2.26.9-4.15.9-5.1.9-2.84,0-4.35-.6-5.11-.9-2.27-.9-3.32-1.97-3.85-2.5-1.58-1.6-2.15-3.07-2.43-3.81-.85-2.21-.85-3.97-.85-4.85v-17.28h6v17.28c0,1.6.28,2.45.42,2.88.42,1.28.95,1.88,1.22,2.18.8.9,1.57,1.23,1.96,1.39,1.16.49,2.15.49,2.64.49Z"/>
      <polygon class="cls-4" points="167.63 41.97 167.63 49.99 178.07 49.99 178.07 54.71 167.63 54.71 167.63 66.29 161.59 66.29 161.59 37.27 180.07 37.27 180.07 41.97 167.63 41.97"/>
      <polygon class="cls-4" points="194.27 41.97 194.27 49.99 204.71 49.99 204.71 54.71 194.27 54.71 194.27 66.29 188.23 66.29 188.23 37.27 206.71 37.27 206.71 41.97 194.27 41.97"/>
      <path class="cls-4" d="M237.87,66.29h-4.66c-.78,0-1.11-.25-1.27-.37-.49-.37-.65-.76-.73-.95l-1.96-5.54h-11.56l-1.96,5.54c-.2.5-.53.77-.7.91-.5.41-1.01.41-1.26.41h-4.7l11.34-29.02h6.14l11.32,29.02ZM227.79,55.27l-3.14-8.88c-.28-.7-.49-1.33-.59-1.64-.31-.94-.5-1.67-.59-2.04-.28,1.12-.49,1.75-.59,2.07-.31.95-.5,1.42-.59,1.65l-3.12,8.84h8.62Z"/>
      <path class="cls-4" d="M257.77,51.51h9.96v11.98c-2.22,1.62-3.89,2.12-4.73,2.37-2.51.75-4.38.75-5.31.75-3.58,0-5.51-.74-6.48-1.11-2.9-1.11-4.27-2.43-4.96-3.09-2.06-1.98-2.81-3.79-3.18-4.7-1.12-2.72-1.12-4.87-1.12-5.94,0-3.26.71-5.07,1.07-5.98,1.07-2.72,2.39-4.03,3.05-4.68,1.98-1.96,3.85-2.69,4.79-3.06,2.81-1.1,5.13-1.1,6.29-1.1,1.8,0,2.84.19,3.36.29,1.56.29,2.44.63,2.88.8,1.32.51,2.05.98,2.42,1.21,1.1.7,1.7,1.26,2,1.54l-1.74,2.68c-.4.64-.83.73-1.04.78-.64.14-1.15-.17-1.4-.32-.72-.44-1.18-.67-1.41-.79-.69-.35-1.21-.52-1.47-.61-.78-.26-1.39-.35-1.7-.4-.92-.14-1.72-.14-2.12-.14-2.02,0-3.11.47-3.66.7-1.64.7-2.41,1.55-2.79,1.98-1.15,1.28-1.56,2.48-1.77,3.08-.62,1.8-.62,3.28-.62,4.02,0,2.4.45,3.66.68,4.29.68,1.89,1.51,2.76,1.92,3.19,1.24,1.3,2.39,1.75,2.97,1.98,1.73.68,3.14.68,3.85.68,1.44,0,2.19-.19,2.57-.29,1.13-.29,1.85-.62,2.21-.79v-4.88h-3.28c-.58,0-.8-.21-.91-.31-.33-.31-.33-.63-.33-.79v-3.34Z"/>
      <polygon class="cls-4" points="282.65 41.97 282.65 49.43 292.33 49.43 292.33 53.97 282.65 53.97 282.65 61.59 295.09 61.59 295.09 66.29 276.61 66.29 276.61 37.27 295.09 37.27 295.09 41.97 282.65 41.97"/>
      <path class="cls-1" d="M139.4,100.96c1.12,0,1.66.17,1.93.26.81.26,1.16.58,1.34.73.52.47.69.9.78,1.11.25.65.25,1.15.25,1.4,0,.8-.17,1.25-.26,1.47-.26.67-.62.99-.79,1.15-.53.48-1.07.66-1.34.75-.81.27-1.54.27-1.9.27h-1.42v3.74h-2.25v-10.88h3.67ZM139.4,106.37c1.06,0,1.39-.34,1.55-.51.49-.51.49-1.1.49-1.4,0-.41-.08-.63-.12-.74-.12-.33-.29-.49-.38-.57-.25-.24-.51-.32-.63-.36-.38-.13-.73-.13-.91-.13h-1.42v3.7h1.42Z"/>
      <path class="cls-1" d="M150.27,106.17c.99.33,1.29.77,1.44.99.45.66.45,1.28.45,1.59,0,.73-.18,1.12-.28,1.32-.28.59-.61.87-.78,1.01-.5.42-.97.57-1.21.64-.71.23-1.28.23-1.56.23-.85,0-1.33-.15-1.56-.23-.71-.23-1.04-.51-1.21-.64-.5-.42-.69-.81-.78-1.01-.28-.59-.28-1.08-.28-1.32,0-.93.3-1.37.45-1.59.45-.66,1.11-.88,1.44-.99-.77-.34-1.03-.74-1.15-.95-.38-.61-.38-1.17-.38-1.45,0-.63.17-.99.26-1.17.26-.54.56-.8.72-.93.46-.39.89-.54,1.1-.62.64-.22,1.14-.22,1.4-.22.76,0,1.18.15,1.4.22.64.23.94.49,1.1.62.46.39.63.75.72.93.25.54.25.96.25,1.17,0,.84-.25,1.24-.38,1.45-.38.61-.89.83-1.15.95ZM148.34,102.37c-.38,0-.57.08-.66.12-.27.12-.39.25-.45.32-.18.2-.23.37-.26.46-.08.26-.08.45-.08.55,0,.31.04.5.07.6.07.29.18.44.23.51.17.22.35.32.44.36.28.14.56.14.71.14.43,0,.61-.09.71-.14.28-.14.39-.29.44-.36.16-.23.21-.42.23-.51.07-.29.07-.49.07-.6,0-.28-.05-.46-.08-.55-.08-.26-.2-.4-.26-.46-.18-.2-.36-.28-.45-.32-.27-.12-.53-.12-.66-.12ZM148.34,110.38c.43,0,.64-.08.75-.13.32-.13.46-.27.53-.35.21-.22.28-.42.31-.53.11-.3.11-.54.11-.66,0-.81-.28-1.11-.42-1.26-.42-.45-.99-.45-1.28-.45-.86,0-1.14.3-1.28.45-.42.45-.42.99-.42,1.26,0,.35.07.55.1.66.11.3.24.45.32.53.21.22.42.31.53.35.32.13.6.13.75.13Z"/>
      <path class="cls-1" d="M157.5,107.66c.11-.14.18-.23.22-.28.1-.14.17-.22.21-.27-.36.21-.64.28-.78.32-.42.11-.74.11-.9.11-.55,0-.9-.13-1.08-.2-.54-.2-.82-.46-.96-.59-.43-.39-.6-.78-.69-.98-.26-.59-.26-1.12-.26-1.38,0-.73.18-1.16.27-1.38.27-.65.6-.97.77-1.13.49-.48.96-.67,1.19-.77.69-.28,1.26-.28,1.54-.28.86,0,1.31.18,1.54.27.68.27,1,.59,1.15.75.47.48.64.92.73,1.14.26.66.26,1.19.26,1.46,0,.52-.05.83-.08.98-.08.47-.19.75-.24.89-.16.42-.31.68-.38.82-.22.4-.41.65-.5.78l-2.42,3.46c-.15.2-.34.29-.43.33-.28.14-.52.14-.64.14h-1.91l3.41-4.18ZM155.31,104.25c0,.86.28,1.16.42,1.31.42.45.97.45,1.24.45.41,0,.63-.09.74-.13.33-.13.47-.29.54-.36.22-.23.29-.45.33-.55.12-.32.12-.58.12-.71,0-.43-.09-.64-.13-.75-.13-.33-.28-.48-.36-.55-.23-.22-.44-.3-.54-.34-.32-.12-.57-.12-.7-.12-.39,0-.6.09-.7.13-.31.13-.45.29-.53.37-.22.24-.29.45-.33.56-.12.32-.12.57-.12.7Z"/>
      <path class="cls-1" d="M167.18,106.67h1.73c.62,0,.94-.11,1.1-.17.48-.16.69-.36.8-.46.32-.3.43-.57.49-.71.17-.41.17-.74.17-.91,0-1.03-.42-1.41-.63-1.61-.63-.58-1.49-.58-1.92-.58h-1.73v4.42ZM167.18,107.82v4.02h-1.45v-10.75h3.17c1.02,0,1.52.16,1.77.24.75.24,1.08.53,1.25.67.49.43.66.85.74,1.05.24.61.24,1.12.24,1.37,0,.75-.18,1.16-.26,1.37-.26.62-.6.92-.77,1.07-.51.45-1.01.62-1.26.7-.75.25-1.4.25-1.72.25h-1.73Z"/>
      <path class="cls-1" d="M183.24,106.47c0-.99-.18-1.52-.27-1.78-.27-.79-.6-1.15-.77-1.33-.49-.54-.97-.74-1.2-.84-.71-.29-1.28-.29-1.58-.29-.86,0-1.33.2-1.57.29-.7.29-1.04.66-1.2.84-.5.54-.68,1.07-.77,1.33-.27.79-.27,1.45-.27,1.78,0,.99.18,1.51.27,1.77.27.78.6,1.15.77,1.33.5.54.97.74,1.2.83.71.29,1.28.29,1.57.29.87,0,1.34-.19,1.58-.29.71-.29,1.04-.65,1.2-.83.49-.54.67-1.07.77-1.33.27-.78.27-1.44.27-1.77ZM184.73,106.47c0,1.21-.25,1.88-.38,2.22-.38,1.01-.85,1.49-1.08,1.74-.7.73-1.35.99-1.68,1.13-.98.4-1.77.4-2.16.4-1.18,0-1.83-.27-2.16-.4-.98-.4-1.44-.89-1.67-1.13-.7-.73-.95-1.4-1.08-1.74-.38-1.01-.38-1.81-.38-2.22,0-1.21.26-1.88.38-2.22.38-1.01.85-1.5,1.08-1.74.7-.73,1.35-1,1.67-1.14.97-.4,1.77-.4,2.16-.4,1.18,0,1.84.27,2.16.4.98.41,1.44.89,1.68,1.14.7.73.95,1.4,1.08,1.74.38,1.01.38,1.81.38,2.22Z"/>
      <path class="cls-1" d="M192.01,107.96c.1.18.16.31.18.38.08.2.13.33.15.4.07-.21.13-.34.16-.4.08-.19.15-.32.19-.39l3.64-6.61c.1-.17.17-.2.2-.21.1-.04.23-.04.3-.04h1.07v10.75h-1.28v-7.9c0-.16,0-.28,0-.34,0-.18.02-.3.02-.37l-3.68,6.72c-.19.34-.41.34-.53.34h-.21c-.34,0-.46-.23-.52-.34l-3.77-6.74c.02.2.03.32.03.38.01.19.01.29.01.34v7.9h-1.27v-10.75h1.07c.2,0,.27.03.3.04.1.04.17.15.2.21l3.71,6.61Z"/>
      <path class="cls-1" d="M202.12,106.67h1.73c.62,0,.94-.11,1.1-.17.48-.16.69-.36.8-.46.32-.3.43-.57.49-.71.16-.41.16-.74.16-.91,0-1.03-.42-1.41-.63-1.61-.63-.58-1.49-.58-1.92-.58h-1.73v4.42ZM202.12,107.82v4.02h-1.45v-10.75h3.17c1.02,0,1.52.16,1.77.24.75.24,1.08.53,1.25.67.49.43.66.85.74,1.05.24.61.24,1.12.24,1.37,0,.75-.18,1.16-.26,1.37-.26.62-.6.92-.77,1.07-.51.45-1.01.62-1.26.7-.75.25-1.39.25-1.72.25h-1.73Z"/>
      <polygon class="cls-1" points="216.31 101.09 216.31 102.28 211.15 102.28 211.15 105.85 215.33 105.85 215.33 106.99 211.15 106.99 211.15 110.66 216.31 110.66 216.31 111.84 209.69 111.84 209.69 101.09 216.31 101.09"/>
      <path class="cls-1" d="M223.91,102.77c-.07.11-.12.15-.14.17-.08.06-.16.06-.2.06-.13,0-.24-.08-.3-.13-.17-.13-.34-.23-.43-.28-.26-.15-.5-.24-.62-.28-.36-.13-.71-.13-.88-.13-.49,0-.74.09-.86.13-.38.13-.54.28-.63.36-.25.22-.34.43-.38.53-.13.3-.13.54-.13.66,0,.45.15.65.22.75.22.3.46.44.58.51.36.21.67.31.83.36.46.15.78.26.95.32.48.16.79.3.95.37.46.21.7.42.83.52.36.32.51.62.58.77.22.46.22.9.22,1.12,0,.71-.16,1.12-.24,1.32-.24.62-.55.92-.7,1.08-.46.46-.91.63-1.13.72-.67.26-1.24.26-1.53.26-1.04,0-1.61-.25-1.9-.38-.86-.38-1.26-.81-1.47-1.02l.42-.69c.06-.08.12-.12.15-.14.09-.06.16-.06.19-.06.16,0,.29.11.36.17.2.17.4.3.51.37.3.2.59.32.73.37.43.17.85.17,1.05.17.52,0,.79-.09.92-.14.41-.14.59-.32.69-.4.28-.26.38-.5.43-.62.15-.36.15-.66.15-.8,0-.49-.15-.7-.22-.8-.22-.31-.46-.45-.58-.52-.36-.21-.67-.31-.82-.36-.46-.15-.78-.25-.95-.3-.48-.15-.79-.29-.95-.36-.46-.2-.7-.42-.82-.52-.36-.32-.51-.65-.58-.81-.22-.48-.22-.96-.22-1.2,0-.57.15-.93.22-1.1.22-.53.5-.81.64-.95.42-.41.83-.58,1.04-.66.62-.25,1.15-.25,1.42-.25.9,0,1.4.19,1.64.28.74.29,1.11.65,1.3.83l-.35.69Z"/>
      <path class="cls-1" d="M231.84,98.48c.24,0,.32.03.36.05.12.05.22.15.27.2l1.58,1.52h-1.04c-.16,0-.22-.02-.25-.03-.09-.03-.17-.09-.22-.12l-2.21-1.63h1.51ZM231.05,107.85h4.01l-1.69-4.37c-.16-.41-.27-.81-.32-1.01-.08.31-.13.48-.16.57-.08.26-.13.39-.15.45l-1.69,4.36ZM238.09,111.84h-1.12c-.2,0-.28-.07-.32-.1-.12-.1-.16-.2-.18-.25l-1.01-2.6h-4.82l-1.01,2.6c-.05.13-.14.2-.18.24-.13.1-.25.1-.32.1h-1.12l4.3-10.75h1.48l4.3,10.75Z"/>
      <path class="cls-1" d="M249.92,109.62c.12,0,.18.06.22.1l.57.62c-.66.77-1.29,1.05-1.6,1.19-.94.43-1.83.43-2.27.43-1.16,0-1.79-.27-2.11-.4-.95-.4-1.39-.88-1.61-1.12-.67-.72-.91-1.4-1.03-1.74-.37-1.01-.37-1.82-.37-2.23,0-1.22.26-1.89.39-2.23.39-1.01.87-1.5,1.11-1.74.71-.73,1.38-.99,1.71-1.13.99-.4,1.79-.4,2.19-.4,1.18,0,1.76.24,2.04.37.86.37,1.3.79,1.53,1l-.47.67c-.05.08-.1.11-.12.12-.07.05-.15.05-.2.05-.1,0-.17-.05-.21-.07-.11-.07-.21-.14-.26-.18-.15-.11-.28-.18-.35-.23-.2-.12-.39-.19-.48-.22-.28-.11-.52-.15-.65-.18-.37-.07-.69-.07-.85-.07-.86,0-1.34.2-1.58.3-.72.3-1.06.66-1.23.84-.52.55-.71,1.07-.81,1.34-.29.79-.29,1.44-.29,1.76,0,1.01.19,1.53.29,1.79.29.79.62,1.15.79,1.33.5.54.95.73,1.18.83.68.28,1.21.28,1.47.28.48,0,.74-.04.86-.06.38-.06.6-.14.71-.18.33-.12.51-.24.61-.3.28-.18.47-.35.57-.44.13-.11.21-.11.25-.11Z"/>
      <polygon class="cls-1" points="261.33 111.84 259.87 111.84 259.87 106.95 254.08 106.95 254.08 111.84 252.62 111.84 252.62 101.09 254.08 101.09 254.08 105.89 259.87 105.89 259.87 101.09 261.33 101.09 261.33 111.84"/>
      <path class="cls-1" d="M265.76,107.85h4.01l-1.69-4.37c-.16-.41-.27-.81-.32-1.01-.08.31-.14.48-.16.57-.08.26-.13.39-.15.45l-1.69,4.36ZM272.8,111.84h-1.12c-.19,0-.27-.07-.32-.1-.12-.1-.16-.2-.18-.25l-1.01-2.6h-4.82l-1.01,2.6c-.05.13-.14.2-.18.24-.13.1-.25.1-.32.1h-1.12l4.3-10.75h1.48l4.3,10.75Z"/>
      <polygon class="cls-1" points="275.61 110.62 280.26 110.62 280.26 111.84 274.16 111.84 274.16 101.09 275.61 101.09 275.61 110.62"/>
      <polygon class="cls-1" points="288.49 101.09 288.49 102.28 283.33 102.28 283.33 105.85 287.51 105.85 287.51 106.99 283.33 106.99 283.33 110.66 288.49 110.66 288.49 111.84 281.87 111.84 281.87 101.09 288.49 101.09"/>
      <path class="cls-1" d="M294.76,110.69c.67,0,1.02-.15,1.19-.22.53-.22.77-.49.89-.63.36-.4.49-.78.56-.97.19-.56.19-1.01.19-1.24v-6.53h1.45v6.53c0,.93-.2,1.46-.3,1.73-.3.79-.66,1.18-.85,1.38-.55.58-1.08.8-1.35.91-.79.33-1.45.33-1.78.33-.99,0-1.52-.22-1.79-.33-.8-.33-1.17-.72-1.35-.91-.56-.58-.75-1.11-.85-1.38-.3-.79-.3-1.42-.3-1.73v-6.53h1.45v6.53c0,.67.13,1.05.19,1.24.19.56.43.83.55.97.36.41.72.56.89.63.53.23.97.23,1.2.23Z"/>
      <path class="cls-1" d="M303.13,106.3h1.52c.64,0,.96-.1,1.12-.15.48-.15.7-.34.81-.43.33-.28.44-.54.49-.67.17-.39.17-.71.17-.86,0-.96-.42-1.29-.63-1.45-.63-.49-1.47-.49-1.89-.49h-1.59v4.06ZM303.13,107.36v4.48h-1.45v-10.75h3.04c1.02,0,1.52.14,1.76.21.74.21,1.07.47,1.23.6.48.39.64.76.72.94.23.55.23,1.01.23,1.23,0,.57-.12.9-.18,1.07-.18.49-.41.76-.52.89-.34.39-.67.58-.83.67-.49.28-.91.37-1.11.42.27.16.41.36.48.46l3.14,4.27h-1.29c-.4,0-.52-.21-.58-.31l-2.79-3.84c-.13-.18-.23-.23-.28-.26-.15-.08-.35-.08-.45-.08h-1.1Z"/>
      <path class="cls-1" d="M139.4,120.96c1.12,0,1.66.17,1.93.26.81.26,1.16.58,1.34.73.52.47.69.9.78,1.11.25.65.25,1.15.25,1.4,0,.8-.17,1.25-.26,1.47-.26.67-.62.99-.79,1.15-.53.48-1.07.66-1.34.75-.81.27-1.54.27-1.9.27h-1.42v3.74h-2.25v-10.88h3.67ZM139.4,126.37c1.06,0,1.39-.34,1.55-.51.49-.51.49-1.1.49-1.4,0-.41-.08-.63-.12-.74-.12-.33-.29-.49-.38-.57-.25-.24-.51-.32-.63-.36-.38-.13-.73-.13-.91-.13h-1.42v3.7h1.42Z"/>
      <path class="cls-1" d="M148.8,127.66c.11-.14.18-.23.22-.28.1-.14.17-.22.21-.27-.36.21-.64.28-.78.32-.42.11-.74.11-.9.11-.55,0-.91-.13-1.08-.2-.54-.2-.82-.46-.96-.59-.43-.39-.6-.78-.69-.98-.26-.59-.26-1.12-.26-1.38,0-.73.18-1.16.27-1.38.27-.65.6-.97.77-1.13.49-.48.96-.67,1.19-.77.69-.28,1.26-.28,1.54-.28.86,0,1.31.18,1.54.27.68.27,1,.59,1.15.75.47.48.64.92.73,1.14.26.66.26,1.19.26,1.46,0,.52-.06.83-.08.98-.08.47-.19.75-.24.89-.16.42-.3.68-.38.82-.22.4-.41.65-.5.78l-2.42,3.46c-.15.2-.34.29-.43.33-.28.14-.52.14-.64.14h-1.91l3.41-4.18ZM146.61,124.25c0,.86.28,1.16.42,1.31.42.45.97.45,1.24.45.41,0,.63-.09.74-.13.33-.13.47-.29.54-.36.22-.23.3-.45.33-.55.12-.32.12-.58.12-.71,0-.43-.08-.64-.13-.75-.13-.33-.28-.48-.36-.55-.23-.22-.44-.3-.54-.34-.32-.12-.57-.12-.7-.12-.39,0-.6.09-.7.13-.31.13-.45.29-.53.37-.22.24-.29.45-.33.56-.12.32-.12.57-.12.7Z"/>
      <path class="cls-1" d="M160.92,120.96v.89c0,.39-.06.55-.09.63-.09.24-.14.35-.17.4l-3.96,8.27c-.15.28-.32.42-.4.49-.26.2-.55.2-.69.2h-1.5l4.06-8.08c.15-.28.26-.44.31-.52.16-.23.29-.37.35-.44h-5.02c-.18,0-.28-.1-.33-.14-.15-.14-.15-.26-.15-.32v-1.38h7.58Z"/>
      <path class="cls-1" d="M167.39,127.85h4.01l-1.69-4.37c-.17-.41-.27-.81-.32-1.01-.08.31-.14.48-.16.57-.08.26-.13.39-.15.45l-1.69,4.36ZM174.43,131.84h-1.12c-.2,0-.27-.07-.32-.1-.12-.1-.16-.2-.18-.25l-1.01-2.6h-4.82l-1,2.6c-.05.13-.14.2-.18.24-.13.1-.25.1-.32.1h-1.12l4.3-10.75h1.48l4.3,10.75Z"/>
      <path class="cls-1" d="M183.05,129.62c.12,0,.18.06.22.1l.57.62c-.66.77-1.29,1.05-1.6,1.19-.94.43-1.83.43-2.27.43-1.16,0-1.79-.27-2.11-.4-.94-.4-1.39-.88-1.61-1.12-.67-.72-.91-1.4-1.03-1.74-.37-1.01-.37-1.82-.37-2.23,0-1.22.26-1.89.39-2.23.39-1.01.87-1.5,1.11-1.74.71-.73,1.38-.99,1.71-1.13.99-.4,1.79-.4,2.19-.4,1.18,0,1.76.24,2.04.37.86.37,1.3.79,1.53,1l-.47.67c-.05.08-.1.11-.12.12-.07.05-.15.05-.2.05-.1,0-.17-.05-.21-.07-.11-.07-.21-.14-.26-.18-.15-.11-.28-.18-.35-.23-.2-.12-.39-.19-.48-.22-.28-.11-.52-.15-.65-.18-.37-.07-.69-.07-.85-.07-.86,0-1.34.2-1.58.3-.72.3-1.06.66-1.23.84-.52.55-.71,1.07-.81,1.34-.29.79-.29,1.44-.29,1.76,0,1.01.19,1.53.29,1.79.29.79.62,1.15.79,1.33.5.54.95.73,1.18.83.68.28,1.21.28,1.47.28.48,0,.74-.04.86-.06.38-.06.6-.14.71-.18.33-.12.51-.24.61-.3.28-.18.47-.35.57-.44.13-.11.21-.11.25-.11Z"/>
      <path class="cls-1" d="M193.32,129.62c.12,0,.18.06.22.1l.57.62c-.66.77-1.29,1.05-1.6,1.19-.94.43-1.83.43-2.27.43-1.16,0-1.79-.27-2.11-.4-.95-.4-1.39-.88-1.61-1.12-.67-.72-.91-1.4-1.04-1.74-.37-1.01-.37-1.82-.37-2.23,0-1.22.26-1.89.39-2.23.39-1.01.87-1.5,1.11-1.74.71-.73,1.38-.99,1.71-1.13.99-.4,1.79-.4,2.19-.4,1.18,0,1.76.24,2.04.37.86.37,1.3.79,1.53,1l-.47.67c-.05.08-.1.11-.12.12-.07.05-.15.05-.2.05-.1,0-.17-.05-.21-.07-.11-.07-.21-.14-.26-.18-.15-.11-.29-.18-.35-.23-.2-.12-.39-.19-.48-.22-.28-.11-.52-.15-.65-.18-.37-.07-.69-.07-.85-.07-.86,0-1.34.2-1.58.3-.72.3-1.06.66-1.23.84-.52.55-.71,1.07-.81,1.34-.29.79-.29,1.44-.29,1.76,0,1.01.19,1.53.29,1.79.29.79.62,1.15.79,1.33.5.54.95.73,1.18.83.68.28,1.21.28,1.47.28.48,0,.73-.04.86-.06.38-.06.6-.14.71-.18.33-.12.51-.24.61-.3.28-.18.47-.35.57-.44.13-.11.21-.11.25-.11Z"/>
      <polygon class="cls-1" points="202.64 121.09 202.64 122.28 197.48 122.28 197.48 125.85 201.66 125.85 201.66 126.99 197.48 126.99 197.48 130.66 202.64 130.66 202.64 131.84 196.02 131.84 196.02 121.09 202.64 121.09"/>
      <path class="cls-1" d="M210.24,122.77c-.07.11-.12.15-.14.17-.08.06-.16.06-.2.06-.13,0-.24-.08-.3-.13-.17-.13-.34-.23-.43-.28-.26-.15-.5-.24-.62-.28-.36-.13-.71-.13-.88-.13-.49,0-.74.09-.86.13-.38.13-.54.28-.63.36-.25.22-.34.43-.38.53-.13.3-.13.54-.13.66,0,.45.15.65.22.75.22.3.46.44.59.51.36.21.67.31.83.36.46.15.78.26.95.32.48.16.79.3.94.37.46.21.7.42.83.52.36.32.51.62.59.77.22.46.22.9.22,1.12,0,.71-.16,1.12-.24,1.32-.24.62-.55.92-.7,1.08-.46.46-.91.63-1.13.72-.67.26-1.24.26-1.53.26-1.04,0-1.61-.25-1.9-.38-.86-.38-1.26-.81-1.47-1.02l.42-.69c.06-.08.12-.12.15-.14.09-.06.16-.06.19-.06.16,0,.29.11.36.17.2.17.41.3.51.37.3.2.59.32.73.37.43.17.85.17,1.05.17.52,0,.79-.09.92-.14.4-.14.59-.32.69-.4.28-.26.38-.5.43-.62.15-.36.15-.66.15-.8,0-.49-.15-.7-.22-.8-.22-.31-.46-.45-.58-.52-.36-.21-.67-.31-.82-.36-.46-.15-.78-.25-.95-.3-.48-.15-.79-.29-.95-.36-.46-.2-.7-.42-.82-.52-.36-.32-.51-.65-.58-.81-.22-.48-.22-.96-.22-1.2,0-.57.15-.93.22-1.1.22-.53.5-.81.64-.95.42-.41.83-.58,1.04-.66.62-.25,1.15-.25,1.42-.25.9,0,1.39.19,1.64.28.74.29,1.11.65,1.3.83l-.35.69Z"/>
      <path class="cls-1" d="M218.19,122.77c-.07.11-.12.15-.14.17-.07.06-.15.06-.19.06-.13,0-.24-.08-.3-.13-.17-.13-.34-.23-.43-.28-.26-.15-.5-.24-.62-.28-.36-.13-.71-.13-.88-.13-.49,0-.74.09-.86.13-.38.13-.54.28-.63.36-.25.22-.34.43-.38.53-.13.3-.13.54-.13.66,0,.45.15.65.22.75.22.3.46.44.59.51.36.21.67.31.82.36.46.15.78.26.95.32.48.16.79.3.95.37.46.21.7.42.83.52.36.32.51.62.59.77.22.46.22.9.22,1.12,0,.71-.16,1.12-.24,1.32-.24.62-.55.92-.7,1.08-.46.46-.91.63-1.13.72-.67.26-1.24.26-1.53.26-1.04,0-1.61-.25-1.9-.38-.86-.38-1.26-.81-1.47-1.02l.42-.69c.06-.08.12-.12.15-.14.09-.06.16-.06.19-.06.16,0,.29.11.36.17.2.17.41.3.51.37.3.2.59.32.73.37.43.17.85.17,1.05.17.52,0,.79-.09.92-.14.4-.14.59-.32.69-.4.28-.26.38-.5.43-.62.15-.36.15-.66.15-.8,0-.49-.15-.7-.22-.8-.22-.31-.46-.45-.58-.52-.36-.21-.67-.31-.82-.36-.46-.15-.78-.25-.95-.3-.48-.15-.79-.29-.95-.36-.46-.2-.7-.42-.82-.52-.36-.32-.51-.65-.58-.81-.22-.48-.22-.96-.22-1.2,0-.57.15-.93.22-1.1.22-.53.5-.81.64-.95.42-.41.83-.58,1.04-.66.62-.25,1.15-.25,1.42-.25.9,0,1.39.19,1.64.28.74.29,1.11.65,1.3.83l-.35.69Z"/>
      <path class="cls-1" d="M229.13,126.47c0-.99-.18-1.52-.27-1.78-.27-.79-.6-1.15-.76-1.33-.49-.54-.97-.74-1.2-.84-.71-.29-1.29-.29-1.58-.29-.86,0-1.33.2-1.57.29-.71.29-1.04.66-1.2.84-.5.54-.68,1.07-.77,1.33-.27.79-.27,1.45-.27,1.78,0,.99.18,1.51.27,1.77.27.78.6,1.15.77,1.33.5.54.97.74,1.2.83.71.29,1.28.29,1.57.29.87,0,1.34-.19,1.58-.29.71-.29,1.03-.65,1.2-.83.49-.54.67-1.07.76-1.33.27-.78.27-1.44.27-1.77ZM230.62,126.47c0,1.21-.26,1.88-.38,2.22-.38,1.01-.85,1.49-1.08,1.74-.7.73-1.35.99-1.68,1.13-.98.4-1.77.4-2.16.4-1.18,0-1.84-.27-2.16-.4-.98-.4-1.44-.89-1.67-1.13-.7-.73-.95-1.4-1.08-1.74-.38-1.01-.38-1.81-.38-2.22,0-1.21.26-1.88.38-2.22.38-1.01.85-1.5,1.08-1.74.7-.73,1.35-1,1.67-1.14.97-.4,1.76-.4,2.16-.4,1.18,0,1.84.27,2.16.4.98.41,1.44.89,1.68,1.14.7.73.95,1.4,1.08,1.74.38,1.01.38,1.81.38,2.22Z"/>
      <rect class="cls-1" x="232.88" y="121.09" width="1.46" height="10.75"/>
      <path class="cls-1" d="M238.81,126.3h1.52c.64,0,.96-.1,1.12-.15.48-.15.7-.34.81-.43.33-.28.44-.54.49-.67.16-.39.16-.71.16-.86,0-.96-.42-1.29-.63-1.45-.63-.49-1.47-.49-1.89-.49h-1.59v4.06ZM238.81,127.36v4.48h-1.45v-10.75h3.04c1.02,0,1.52.14,1.76.21.74.21,1.07.47,1.23.6.48.39.64.76.72.94.23.55.23,1.01.23,1.23,0,.57-.12.9-.18,1.07-.18.49-.41.76-.52.89-.34.39-.67.58-.83.67-.49.28-.91.37-1.11.42.27.16.41.36.48.46l3.14,4.27h-1.29c-.4,0-.52-.21-.59-.31l-2.79-3.84c-.13-.18-.23-.23-.28-.26-.15-.08-.35-.08-.45-.08h-1.1Z"/>
      <polygon class="cls-1" points="253.49 121.09 253.49 122.28 248.33 122.28 248.33 125.85 252.51 125.85 252.51 126.99 248.33 126.99 248.33 130.66 253.49 130.66 253.49 131.84 246.87 131.84 246.87 121.09 253.49 121.09"/>
      <path class="cls-1" d="M261.09,122.77c-.07.11-.12.15-.14.17-.08.06-.16.06-.2.06-.13,0-.24-.08-.3-.13-.17-.13-.34-.23-.43-.28-.26-.15-.5-.24-.62-.28-.36-.13-.71-.13-.88-.13-.49,0-.74.09-.86.13-.38.13-.54.28-.63.36-.25.22-.34.43-.38.53-.13.3-.13.54-.13.66,0,.45.15.65.22.75.22.3.46.44.58.51.36.21.67.31.83.36.46.15.78.26.95.32.48.16.79.3.95.37.46.21.7.42.83.52.36.32.51.62.58.77.22.46.22.9.22,1.12,0,.71-.16,1.12-.24,1.32-.24.62-.55.92-.7,1.08-.46.46-.91.63-1.13.72-.67.26-1.24.26-1.53.26-1.04,0-1.61-.25-1.9-.38-.86-.38-1.26-.81-1.47-1.02l.42-.69c.06-.08.12-.12.15-.14.09-.06.16-.06.19-.06.16,0,.29.11.36.17.2.17.4.3.51.37.3.2.59.32.73.37.43.17.85.17,1.05.17.52,0,.79-.09.92-.14.41-.14.59-.32.69-.4.28-.26.38-.5.43-.62.15-.36.15-.66.15-.8,0-.49-.15-.7-.22-.8-.22-.31-.46-.45-.58-.52-.36-.21-.67-.31-.82-.36-.46-.15-.78-.25-.95-.3-.48-.15-.79-.29-.95-.36-.46-.2-.7-.42-.82-.52-.36-.32-.51-.65-.58-.81-.22-.48-.22-.96-.22-1.2,0-.57.15-.93.22-1.1.22-.53.5-.81.64-.95.42-.41.83-.58,1.04-.66.62-.25,1.15-.25,1.42-.25.9,0,1.4.19,1.64.28.74.29,1.11.65,1.3.83l-.35.69Z"/>
      <rect class="cls-5" x="330.31" y="101.31" width="137.2" height="10.77"/>
      <rect class="cls-3" x="330.31" y="119.65" width="137.2" height="10.77"/>
      <g>
        <path class="cls-5" d="M123.41,112.77c3.74,0,6.77-3.03,6.77-6.78s-3.03-6.78-6.77-6.78-6.77,3.03-6.77,6.78,3.03,6.78,6.77,6.78"/>
        <path class="cls-3" d="M123.41,131.81c3.74,0,6.77-3.03,6.77-6.78s-3.03-6.78-6.77-6.78-6.77,3.03-6.77,6.78,3.03,6.78,6.77,6.78"/>
      </g>
    </g>
  </g>
</svg>
