<?xml version="1.0" encoding="UTF-8"?>
<svg xmlns="http://www.w3.org/2000/svg" id="Calque_2" data-name="Calque 2" viewBox="0 0 427.61 229.75" preserveAspectRatio="none" width="427.61" height="229.75">
  <defs>
    <style>
      .cls-1 {
        fill: #6f6f6e;
      }

      .cls-2 {
        fill: #2a2f36;
      }

      .cls-3 {
        fill: #fff;
      }

      .cls-4 {
        fill: #060505;
      }

      .cls-5 {
        fill: #2c354a;
      }

      .cls-6 {
        fill: #616576;
      }
    </style>
  </defs>
  <g id="Calque_1-2" data-name="Calque 1">
    <g>
      <rect class="cls-3" width="427.61" height="229.75"/>
      <polygon class="cls-5" points="48.45 39.77 39.97 39.77 39.97 63.95 33.95 63.95 33.95 39.77 25.47 39.77 25.47 34.93 48.45 34.93 48.45 39.77"/>
      <path class="cls-5" d="M79.21,63.95h-5.42c-1.52,0-1.97-.77-2.2-1.16l-5.52-8.9c-.34-.52-.61-.68-.75-.76-.41-.24-.94-.24-1.21-.24h-2.04v11.06h-6v-29.02h9.12c3.04,0,4.48.42,5.2.63,2.16.63,3.08,1.38,3.54,1.75,1.38,1.12,1.81,2.15,2.02,2.67.64,1.55.64,2.79.64,3.41,0,1.44-.27,2.3-.41,2.73-.41,1.29-.93,2-1.19,2.35-.78,1.06-1.54,1.61-1.92,1.88-1.14.82-2.11,1.15-2.6,1.32.58.32.91.62,1.08.77.5.45.77.86.9,1.07l6.76,10.44ZM65.15,48.67c1.46,0,2.17-.25,2.52-.37,1.06-.37,1.51-.8,1.74-1.02.68-.65.89-1.24,1-1.53.32-.88.32-1.57.32-1.92,0-2.06-.91-2.82-1.37-3.2-1.37-1.14-3.24-1.14-4.17-1.14h-3.12v9.18h3.08Z"/>
      <path class="cls-5" d="M111.43,63.95h-4.66c-.78,0-1.11-.25-1.27-.37-.49-.37-.65-.76-.73-.95l-1.96-5.54h-11.56l-1.96,5.54c-.2.5-.53.77-.7.91-.5.41-1.01.41-1.26.41h-4.7l11.34-29.02h6.14l11.32,29.02ZM101.35,52.93l-3.14-8.88c-.28-.7-.49-1.33-.59-1.64-.31-.94-.5-1.67-.59-2.04-.28,1.12-.49,1.75-.59,2.07-.31.95-.5,1.42-.59,1.65l-3.12,8.84h8.62Z"/>
      <rect class="cls-5" x="118.11" y="34.93" width="6.04" height="29.02"/>
      <polygon class="cls-5" points="154.77 39.77 146.29 39.77 146.29 63.95 140.27 63.95 140.27 39.77 131.79 39.77 131.79 34.93 154.77 34.93 154.77 39.77"/>
      <polygon class="cls-5" points="168.43 39.63 168.43 47.09 178.11 47.09 178.11 51.63 168.43 51.63 168.43 59.25 180.87 59.25 180.87 63.95 162.39 63.95 162.39 34.93 180.87 34.93 180.87 39.63 168.43 39.63"/>
      <path class="cls-5" d="M221.35,34.93v29.02h-5.3v-17.82c0-.56.02-.99.03-1.2.03-.64.08-1.08.11-1.3l-8.3,15.74c-.68,1.3-1.63,1.3-2.1,1.3h-.84c-.7,0-1.06-.22-1.24-.33-.54-.33-.75-.76-.86-.97l-8.34-15.8c.06.7.09,1.13.1,1.35.04.65.04,1.02.04,1.21v17.82h-5.3v-29.02h4.56c.38,0,.58.01.68.02.3.02.45.08.53.11.23.09.36.22.42.28.19.19.31.42.37.53l8.12,15.48c.38.7.6,1.19.71,1.44.33.74.53,1.26.63,1.52.3-.8.52-1.31.63-1.56.33-.76.58-1.23.71-1.46l8.06-15.42c.18-.34.31-.47.38-.53.2-.19.35-.25.43-.28.23-.09.42-.1.52-.11.29-.02.56-.02.69-.02h4.56Z"/>
      <polygon class="cls-5" points="237.43 39.63 237.43 47.09 247.11 47.09 247.11 51.63 237.43 51.63 237.43 59.25 249.87 59.25 249.87 63.95 231.39 63.95 231.39 34.93 249.87 34.93 249.87 39.63 237.43 39.63"/>
      <path class="cls-5" d="M283.21,34.93v29.02h-3.1c-.7,0-1.02-.15-1.18-.23-.48-.23-.79-.6-.94-.79l-14.46-18.4c.06.7.08,1.15.09,1.38.03.68.03,1.07.03,1.26v16.78h-5.3v-29.02h3.16c.38,0,.56.02.65.03.27.03.42.1.49.14.22.11.35.23.42.29.2.18.36.38.44.48l14.56,18.48c-.08-.76-.11-1.23-.12-1.47-.04-.71-.04-1.14-.04-1.35v-16.6h5.3Z"/>
      <polygon class="cls-5" points="313.81 39.77 305.33 39.77 305.33 63.95 299.31 63.95 299.31 39.77 290.83 39.77 290.83 34.93 313.81 34.93 313.81 39.77"/>
      <path class="cls-5" d="M47.77,97.43c0-2.28-.4-3.49-.6-4.1-.6-1.82-1.35-2.66-1.72-3.08-1.12-1.26-2.19-1.71-2.73-1.94-1.61-.68-2.97-.68-3.65-.68h-5.12v19.62h5.12c2.04,0,3.11-.45,3.65-.67,1.61-.67,2.36-1.52,2.73-1.94,1.12-1.27,1.52-2.48,1.72-3.09.6-1.82.6-3.35.6-4.12ZM53.93,97.43c0,3.18-.71,4.96-1.07,5.85-1.07,2.67-2.37,3.95-3.02,4.59-1.95,1.92-3.78,2.64-4.69,3-2.74,1.08-4.97,1.08-6.08,1.08h-11.16v-29.02h11.16c3.34,0,5.17.72,6.08,1.08,2.74,1.08,4.04,2.37,4.69,3.01,1.95,1.93,2.66,3.7,3.02,4.59,1.07,2.66,1.07,4.77,1.07,5.82Z"/>
      <polygon class="cls-5" points="68.39 87.63 68.39 95.09 78.07 95.09 78.07 99.63 68.39 99.63 68.39 107.25 80.83 107.25 80.83 111.95 62.35 111.95 62.35 82.93 80.83 82.93 80.83 87.63 68.39 87.63"/>
      <polygon class="cls-5" points="120.01 107.07 120.01 111.95 102.79 111.95 102.79 82.93 108.79 82.93 108.79 107.07 120.01 107.07"/>
      <path class="cls-5" d="M126.63,81.01c1.02,1.64,1.25,2.81,1.37,3.4.35,1.76.15,2.9.05,3.47-.3,1.71-.93,2.76-1.25,3.29-.95,1.58-2.02,2.42-2.55,2.84l-1.72-1.04c-.24-.14-.3-.27-.33-.33-.09-.19-.08-.32-.08-.38.01-.19.06-.3.09-.36.08-.17.16-.25.2-.29.38-.44.64-.97.77-1.23.39-.79.5-1.46.55-1.8.16-1.01.04-1.8-.02-2.19-.18-1.18-.67-1.98-.92-2.38-.4-.62-.28-.93-.22-1.09.18-.47.54-.59.72-.65l3.34-1.26Z"/>
      <polygon class="cls-5" points="142.61 87.63 142.61 95.09 152.29 95.09 152.29 99.63 142.61 99.63 142.61 107.25 155.05 107.25 155.05 111.95 136.57 111.95 136.57 82.93 155.05 82.93 155.05 87.63 142.61 87.63"/>
      <path class="cls-5" d="M188.93,111.95h-4.66c-.78,0-1.11-.25-1.27-.37-.49-.37-.65-.76-.73-.95l-1.96-5.54h-11.56l-1.96,5.54c-.2.5-.53.77-.7.91-.5.41-1.01.41-1.26.41h-4.7l11.34-29.02h6.14l11.32,29.02ZM178.85,100.93l-3.14-8.88c-.28-.7-.49-1.33-.59-1.64-.31-.94-.5-1.67-.59-2.04-.28,1.12-.49,1.75-.59,2.07-.31.95-.5,1.42-.59,1.65l-3.12,8.84h8.62Z"/>
      <path class="cls-5" d="M206.75,107.15c1.46,0,2.23-.33,2.62-.49,1.16-.49,1.69-1.09,1.96-1.39.8-.9,1.08-1.75,1.22-2.18.42-1.28.42-2.35.42-2.88v-17.28h6v17.28c0,2.64-.57,4.11-.85,4.85-.85,2.21-1.9,3.28-2.43,3.81-1.58,1.6-3.09,2.2-3.84,2.5-2.26.9-4.15.9-5.1.9-2.84,0-4.35-.6-5.11-.9-2.27-.9-3.32-1.97-3.85-2.5-1.58-1.6-2.15-3.07-2.43-3.81-.85-2.21-.85-3.97-.85-4.85v-17.28h6v17.28c0,1.6.28,2.45.42,2.88.42,1.28.95,1.88,1.22,2.18.8.9,1.57,1.23,1.96,1.39,1.16.49,2.15.49,2.64.49Z"/>
      <path class="cls-2" d="M176.47,142.29c1.12,0,1.66.17,1.93.26.81.26,1.16.58,1.34.73.52.47.69.9.78,1.11.25.65.25,1.15.25,1.4,0,.8-.17,1.25-.26,1.47-.26.67-.62.99-.79,1.15-.53.48-1.07.66-1.34.75-.81.27-1.54.27-1.9.27h-1.42v3.74h-2.25v-10.88h3.67ZM176.47,147.71c1.06,0,1.39-.34,1.55-.51.49-.51.49-1.1.49-1.4,0-.41-.08-.63-.12-.74-.12-.33-.29-.49-.38-.57-.25-.24-.51-.32-.63-.36-.38-.13-.73-.13-.91-.13h-1.42v3.7h1.42Z"/>
      <path class="cls-2" d="M185.4,151.63c.41,0,.64-.1.75-.14.35-.14.51-.31.59-.4.25-.26.34-.48.39-.6.14-.34.14-.61.14-.75,0-.44-.09-.68-.14-.79-.14-.35-.3-.52-.38-.6-.25-.24-.48-.33-.59-.37-.35-.13-.62-.13-.77-.13-.4,0-.62.09-.73.14-.33.14-.49.31-.57.39-.24.25-.32.48-.37.6-.13.35-.13.62-.13.76,0,.43.08.66.11.78.11.35.26.51.34.6.22.25.45.34.56.38.33.14.63.14.78.14ZM185.13,146.2l-.33.4c.28-.13.51-.17.61-.2.33-.07.59-.07.71-.07.61,0,.99.14,1.18.2.58.2.88.47,1.03.61.45.41.63.81.72,1.02.27.61.27,1.16.27,1.44,0,.76-.19,1.21-.28,1.43-.28.68-.62,1.01-.79,1.18-.51.5-.99.7-1.23.8-.72.29-1.3.29-1.59.29-.89,0-1.36-.19-1.6-.28-.71-.28-1.03-.62-1.2-.79-.49-.51-.67-.98-.76-1.22-.26-.71-.26-1.28-.26-1.56,0-.79.21-1.33.31-1.6.31-.81.74-1.38.95-1.66l2.53-3.41c.15-.19.35-.29.44-.34.29-.14.54-.14.67-.14h1.84l-3.23,3.91Z"/>
      <path class="cls-2" d="M190.51,145.36c.12-.79.34-1.2.45-1.4.33-.6.66-.86.83-1,.49-.4.92-.53,1.13-.6.63-.2,1.12-.2,1.37-.2.78,0,1.19.15,1.4.22.62.22.9.48,1.05.6.43.38.58.72.66.89.23.51.23.9.23,1.09,0,.52-.07.78-.11.91-.11.39-.25.59-.32.69-.21.29-.42.43-.52.5-.31.2-.58.29-.72.34,1.88.61,1.88,1.87,1.88,2.5,0,.83-.21,1.26-.31,1.47-.31.63-.65.92-.82,1.06-.52.43-.98.57-1.2.64-.69.21-1.19.21-1.44.21-.79,0-1.2-.12-1.4-.18-.61-.18-.91-.42-1.07-.54-.46-.36-.68-.72-.79-.9-.33-.54-.49-1.03-.58-1.27l.92-.38c.36-.15.57-.1.67-.08.31.07.4.24.45.33.15.29.26.45.32.53.17.24.31.36.38.42.21.18.39.24.48.27.27.1.5.1.61.1.43,0,.65-.09.76-.14.32-.14.47-.3.54-.37.22-.23.29-.42.33-.52.11-.29.11-.48.11-.57,0-.38-.05-.58-.07-.68-.07-.3-.23-.45-.31-.52-.24-.21-.56-.29-.72-.33-.48-.12-1.02-.12-1.29-.12v-1.45c.68,0,.97-.08,1.12-.11.43-.11.6-.25.68-.31.25-.2.31-.39.34-.49.09-.28.09-.51.09-.62,0-.71-.25-.96-.37-1.09-.37-.38-.83-.38-1.05-.38-.3,0-.47.06-.55.09-.25.09-.38.19-.45.24-.2.15-.29.28-.34.35-.14.2-.19.36-.21.44-.14.38-.29.46-.37.5-.23.12-.51.08-.65.06l-1.09-.2Z"/>
      <path class="cls-2" d="M213.8,150.95c.12,0,.18.06.22.1l.57.62c-.66.77-1.29,1.05-1.6,1.19-.94.43-1.83.43-2.27.43-1.16,0-1.79-.27-2.11-.4-.95-.4-1.39-.88-1.61-1.12-.67-.72-.91-1.4-1.03-1.74-.37-1.01-.37-1.82-.37-2.23,0-1.22.26-1.89.39-2.23.39-1.01.87-1.5,1.11-1.74.71-.73,1.38-.99,1.71-1.13.99-.4,1.79-.4,2.19-.4,1.19,0,1.76.24,2.04.37.86.37,1.3.79,1.53,1l-.47.67c-.05.08-.1.11-.12.12-.07.05-.15.05-.2.05-.1,0-.17-.05-.21-.07-.11-.07-.21-.14-.26-.18-.15-.11-.28-.18-.35-.23-.2-.12-.39-.19-.48-.22-.28-.11-.52-.15-.65-.18-.37-.07-.69-.07-.85-.07-.86,0-1.34.2-1.58.3-.72.3-1.06.66-1.23.84-.52.55-.71,1.07-.81,1.34-.29.79-.29,1.44-.29,1.76,0,1.01.19,1.53.29,1.79.29.79.62,1.15.79,1.33.5.54.95.73,1.18.83.68.28,1.21.28,1.47.28.48,0,.74-.04.86-.06.38-.06.6-.14.71-.18.33-.12.51-.24.61-.3.28-.18.47-.35.57-.44.13-.11.21-.11.25-.11Z"/>
      <polygon class="cls-2" points="225.22 153.17 223.75 153.17 223.75 148.28 217.96 148.28 217.96 153.17 216.5 153.17 216.5 142.43 217.96 142.43 217.96 147.22 223.75 147.22 223.75 142.43 225.22 142.43 225.22 153.17"/>
      <rect class="cls-2" x="228.11" y="142.43" width="1.45" height="10.75"/>
      <path class="cls-2" d="M237.73,149.29c.1.18.16.31.18.38.08.2.13.33.15.4.08-.21.13-.34.16-.4.08-.19.15-.32.19-.39l3.64-6.61c.1-.17.17-.2.2-.21.11-.04.24-.04.3-.04h1.07v10.75h-1.27v-7.9c0-.16,0-.28,0-.34,0-.18.02-.3.02-.37l-3.68,6.72c-.19.34-.41.34-.52.34h-.21c-.34,0-.46-.23-.53-.34l-3.76-6.74c.02.2.03.32.03.38.01.19.01.29.01.34v7.9h-1.28v-10.75h1.07c.2,0,.27.03.3.04.11.04.17.15.2.21l3.71,6.61Z"/>
      <rect class="cls-2" x="246.52" y="142.43" width="1.45" height="10.75"/>
      <polygon class="cls-2" points="257.47 142.43 257.47 143.61 252.31 143.61 252.31 147.18 256.49 147.18 256.49 148.32 252.31 148.32 252.31 151.99 257.47 151.99 257.47 153.17 250.85 153.17 250.85 142.43 257.47 142.43"/>
      <path class="cls-2" d="M270.28,147.8c0-.99-.18-1.51-.27-1.77-.27-.78-.6-1.14-.77-1.32-.49-.54-.96-.73-1.2-.82-.71-.29-1.28-.29-1.57-.29h-2.56v8.39h2.56c.86,0,1.33-.19,1.57-.29.7-.28,1.04-.64,1.2-.82.49-.54.68-1.06.77-1.32.27-.78.27-1.44.27-1.77ZM271.78,147.8c0,1.21-.25,1.87-.38,2.2-.38.99-.85,1.46-1.08,1.7-.7.7-1.35.96-1.67,1.09-.98.39-1.77.39-2.16.39h-4.02v-10.75h4.02c1.18,0,1.83.26,2.16.39.97.39,1.44.86,1.67,1.1.7.71.95,1.37,1.08,1.7.38.99.38,1.79.38,2.2Z"/>
      <polygon class="cls-2" points="280.38 142.43 280.38 143.61 275.22 143.61 275.22 147.18 279.4 147.18 279.4 148.32 275.22 148.32 275.22 151.99 280.38 151.99 280.38 153.17 273.76 153.17 273.76 142.43 280.38 142.43"/>
      <polygon class="cls-2" points="286.82 151.95 291.47 151.95 291.47 153.17 285.37 153.17 285.37 142.43 286.82 142.43 286.82 151.95"/>
      <path class="cls-2" d="M291.63,141.86c.22.36.28.6.31.72.1.36.1.6.1.72,0,.68-.22,1.09-.33,1.3-.33.62-.73.96-.93,1.14l-.41-.26c-.06-.04-.07-.07-.08-.08-.02-.04-.02-.07-.02-.09,0-.11.05-.16.08-.18.12-.14.19-.26.23-.31.11-.17.17-.29.2-.35.09-.18.12-.32.14-.39.05-.2.05-.35.05-.43,0-.24-.05-.41-.07-.49-.07-.26-.19-.45-.24-.54-.05-.08-.05-.14-.05-.17,0-.18.14-.23.2-.26l.82-.33Z"/>
      <polygon class="cls-2" points="300.7 142.43 300.7 143.61 295.54 143.61 295.54 147.18 299.72 147.18 299.72 148.32 295.54 148.32 295.54 151.99 300.7 151.99 300.7 153.17 294.08 153.17 294.08 142.43 300.7 142.43"/>
      <path class="cls-2" d="M304.6,149.18h4.01l-1.69-4.37c-.17-.41-.27-.81-.32-1.01-.08.31-.14.48-.16.57-.08.26-.13.39-.15.45l-1.69,4.36ZM311.64,153.17h-1.12c-.2,0-.28-.07-.32-.1-.12-.1-.16-.2-.18-.25l-1.01-2.6h-4.82l-1.01,2.6c-.05.13-.14.2-.18.24-.13.1-.25.1-.31.1h-1.12l4.3-10.75h1.48l4.3,10.75Z"/>
      <path class="cls-2" d="M316.75,152.02c.67,0,1.02-.15,1.19-.22.53-.22.77-.49.89-.63.36-.4.49-.78.56-.97.19-.56.19-1.01.19-1.24v-6.53h1.45v6.53c0,.93-.2,1.46-.3,1.73-.3.79-.66,1.18-.85,1.38-.55.58-1.08.8-1.35.91-.8.33-1.46.33-1.79.33-.99,0-1.52-.22-1.79-.33-.79-.33-1.17-.72-1.35-.91-.56-.58-.75-1.11-.85-1.38-.3-.79-.3-1.42-.3-1.73v-6.53h1.45v6.53c0,.67.13,1.05.19,1.24.19.56.43.83.56.97.36.41.72.56.89.63.53.23.97.23,1.2.23Z"/>
      <path class="cls-2" d="M176.47,162.29c1.12,0,1.66.17,1.93.26.81.26,1.16.58,1.34.73.52.47.69.9.78,1.11.25.65.25,1.15.25,1.4,0,.8-.17,1.25-.26,1.47-.26.67-.62.99-.79,1.15-.53.48-1.07.66-1.34.75-.81.27-1.54.27-1.9.27h-1.42v3.74h-2.25v-10.88h3.67ZM176.47,167.71c1.06,0,1.39-.34,1.55-.51.49-.51.49-1.1.49-1.4,0-.41-.08-.63-.12-.74-.12-.33-.29-.49-.38-.57-.25-.24-.51-.32-.63-.36-.38-.13-.73-.13-.91-.13h-1.42v3.7h1.42Z"/>
      <path class="cls-2" d="M185.4,171.63c.41,0,.64-.1.75-.14.35-.14.51-.31.59-.4.25-.26.34-.48.39-.6.14-.34.14-.61.14-.75,0-.44-.09-.68-.14-.79-.14-.35-.3-.52-.38-.6-.25-.24-.48-.33-.59-.37-.35-.13-.62-.13-.77-.13-.4,0-.62.09-.73.14-.33.14-.49.31-.57.39-.24.25-.32.48-.37.6-.13.35-.13.62-.13.76,0,.43.08.66.11.78.11.35.26.51.34.6.22.25.45.34.56.38.33.14.63.14.78.14ZM185.13,166.2l-.33.4c.28-.13.51-.17.61-.2.33-.07.59-.07.71-.07.61,0,.99.14,1.18.2.58.2.88.47,1.03.61.45.41.63.81.72,1.02.27.61.27,1.16.27,1.44,0,.76-.19,1.21-.28,1.43-.28.68-.62,1.01-.79,1.18-.51.5-.99.7-1.23.8-.72.29-1.3.29-1.59.29-.89,0-1.36-.19-1.6-.28-.71-.28-1.03-.62-1.2-.79-.49-.51-.67-.98-.76-1.22-.26-.71-.26-1.28-.26-1.56,0-.79.21-1.33.31-1.6.31-.81.74-1.38.95-1.66l2.53-3.41c.15-.19.35-.29.44-.34.29-.14.54-.14.67-.14h1.84l-3.23,3.91Z"/>
      <path class="cls-2" d="M197.99,162.29v.89c0,.39-.06.55-.09.63-.09.24-.14.35-.17.4l-3.96,8.27c-.15.28-.32.42-.4.49-.26.2-.55.2-.69.2h-1.5l4.06-8.08c.15-.28.26-.44.31-.52.16-.23.29-.37.35-.44h-5.02c-.18,0-.28-.1-.33-.14-.15-.14-.15-.26-.15-.32v-1.38h7.58Z"/>
      <path class="cls-2" d="M207.16,167.63h1.52c.64,0,.96-.1,1.12-.15.48-.15.7-.34.81-.43.33-.28.44-.54.49-.67.16-.39.16-.71.16-.86,0-.96-.42-1.29-.63-1.45-.63-.49-1.47-.49-1.89-.49h-1.59v4.06ZM207.16,168.69v4.48h-1.45v-10.75h3.04c1.02,0,1.52.14,1.76.21.74.21,1.07.47,1.23.6.48.39.64.76.72.94.23.55.23,1.01.23,1.23,0,.57-.12.9-.18,1.07-.18.49-.41.76-.52.89-.34.39-.67.58-.83.67-.49.28-.91.37-1.11.42.27.16.41.36.48.46l3.14,4.27h-1.29c-.4,0-.52-.21-.59-.31l-2.79-3.84c-.13-.18-.23-.23-.28-.26-.15-.08-.35-.08-.45-.08h-1.1Z"/>
      <path class="cls-2" d="M221.18,159.81l-2.21,1.62c-.13.09-.19.11-.23.12-.1.03-.2.03-.26.03h-1.03l1.58-1.52c.08-.08.12-.1.14-.12.06-.04.11-.07.13-.08.07-.03.12-.04.15-.04.08-.01.17-.01.21-.01h1.51ZM221.84,162.43v1.18h-5.16v3.57h4.18v1.14h-4.18v3.67h5.16v1.18h-6.62v-10.75h6.62Z"/>
      <path class="cls-2" d="M228.73,172.12c.43,0,.68-.03.8-.04.36-.04.58-.1.69-.12.32-.08.51-.16.61-.2.29-.12.48-.22.57-.27v-2.37h-1.66c-.14,0-.2-.05-.23-.08-.09-.08-.09-.16-.09-.2v-.82h3.3v4.12c-.4.29-.7.44-.84.51-.44.22-.77.31-.94.36-.5.15-.88.19-1.07.22-.57.07-1.02.07-1.24.07-1.17,0-1.82-.27-2.14-.4-.98-.4-1.45-.88-1.68-1.12-.71-.72-.97-1.4-1.1-1.74-.39-1.01-.39-1.82-.39-2.23,0-1.23.26-1.91.39-2.24.39-1.01.86-1.49,1.1-1.74.72-.72,1.39-.99,1.73-1.12,1.02-.4,1.86-.4,2.28-.4.64,0,1,.06,1.18.09.55.09.86.21,1.02.27.47.18.73.34.87.43.4.25.63.46.74.57l-.41.66c-.13.2-.26.2-.33.2-.12,0-.22-.05-.26-.08-.19-.11-.34-.21-.42-.26-.23-.15-.45-.24-.57-.29-.33-.14-.64-.2-.79-.24-.45-.1-.87-.1-1.08-.1-.91,0-1.4.2-1.64.3-.74.3-1.08.66-1.25.85-.52.55-.7,1.07-.8,1.34-.28.78-.28,1.43-.28,1.76,0,1.02.19,1.55.29,1.82.29.8.64,1.17.81,1.35.53.55,1.01.75,1.24.85.72.29,1.3.29,1.59.29Z"/>
      <path class="cls-2" d="M239.12,172.02c.67,0,1.02-.15,1.19-.22.53-.22.77-.49.89-.63.36-.4.49-.78.55-.97.19-.56.19-1.01.19-1.24v-6.53h1.45v6.53c0,.93-.2,1.46-.3,1.73-.3.79-.66,1.18-.85,1.38-.55.58-1.08.8-1.35.91-.79.33-1.46.33-1.79.33-.99,0-1.52-.22-1.78-.33-.79-.33-1.16-.72-1.35-.91-.55-.58-.75-1.11-.85-1.38-.3-.79-.3-1.42-.3-1.73v-6.53h1.45v6.53c0,.67.13,1.05.19,1.24.19.56.43.83.55.97.36.41.72.56.89.63.53.23.97.23,1.2.23Z"/>
      <polygon class="cls-2" points="247.35 171.95 252 171.95 252 173.17 245.89 173.17 245.89 162.43 247.35 162.43 247.35 171.95"/>
      <path class="cls-2" d="M255.4,169.18h4.01l-1.69-4.37c-.17-.41-.27-.81-.32-1.01-.08.31-.14.48-.16.57-.08.26-.13.39-.15.45l-1.69,4.36ZM262.45,173.17h-1.12c-.2,0-.28-.07-.32-.1-.12-.1-.16-.2-.18-.25l-1.01-2.6h-4.82l-1.01,2.6c-.05.13-.14.2-.18.24-.13.1-.25.1-.31.1h-1.12l4.3-10.75h1.48l4.3,10.75Z"/>
      <polygon class="cls-2" points="270.13 162.43 270.13 163.65 266.66 163.65 266.66 173.17 265.21 173.17 265.21 163.65 261.72 163.65 261.72 162.43 270.13 162.43"/>
      <polygon class="cls-2" points="278.29 162.43 278.29 163.61 273.13 163.61 273.13 167.18 277.3 167.18 277.3 168.32 273.13 168.32 273.13 171.99 278.29 171.99 278.29 173.17 271.66 173.17 271.66 162.43 278.29 162.43"/>
      <path class="cls-2" d="M284.56,172.02c.67,0,1.02-.15,1.19-.22.53-.22.77-.49.89-.63.36-.4.49-.78.56-.97.19-.56.19-1.01.19-1.24v-6.53h1.45v6.53c0,.93-.2,1.46-.3,1.73-.3.79-.66,1.18-.85,1.38-.55.58-1.08.8-1.35.91-.79.33-1.45.33-1.78.33-.99,0-1.52-.22-1.79-.33-.8-.33-1.17-.72-1.35-.91-.56-.58-.75-1.11-.85-1.38-.3-.79-.3-1.42-.3-1.73v-6.53h1.45v6.53c0,.67.13,1.05.19,1.24.19.56.43.83.56.97.36.41.72.56.89.63.53.23.97.23,1.2.23Z"/>
      <path class="cls-2" d="M292.93,167.63h1.52c.64,0,.96-.1,1.12-.15.48-.15.7-.34.81-.43.33-.28.44-.54.49-.67.17-.39.17-.71.17-.86,0-.96-.42-1.29-.63-1.45-.63-.49-1.47-.49-1.89-.49h-1.59v4.06ZM292.93,168.69v4.48h-1.45v-10.75h3.04c1.02,0,1.52.14,1.76.21.74.21,1.07.47,1.23.6.48.39.64.76.72.94.23.55.23,1.01.23,1.23,0,.57-.12.9-.18,1.07-.18.49-.41.76-.52.89-.34.39-.67.58-.83.67-.49.28-.91.37-1.11.42.27.16.41.36.48.46l3.14,4.27h-1.29c-.4,0-.52-.21-.58-.31l-2.79-3.84c-.13-.18-.23-.23-.28-.26-.15-.08-.35-.08-.45-.08h-1.1Z"/>
      <path class="cls-2" d="M306.49,164.11c-.07.11-.12.15-.14.17-.07.06-.15.06-.19.06-.13,0-.24-.08-.3-.13-.17-.13-.34-.23-.43-.28-.26-.15-.5-.24-.62-.28-.36-.13-.71-.13-.88-.13-.49,0-.74.09-.86.13-.38.13-.54.28-.63.36-.25.22-.34.43-.38.53-.13.3-.13.54-.13.66,0,.45.15.65.22.75.22.3.46.44.58.51.36.21.67.31.82.36.46.15.78.26.95.32.48.16.79.3.94.37.46.21.7.42.83.52.36.32.51.62.58.77.22.46.22.9.22,1.12,0,.71-.16,1.12-.24,1.32-.24.62-.55.92-.7,1.08-.46.46-.91.63-1.13.72-.67.26-1.24.26-1.53.26-1.04,0-1.61-.25-1.9-.38-.86-.38-1.26-.81-1.47-1.02l.42-.69c.06-.08.12-.12.15-.14.09-.06.16-.06.19-.06.16,0,.29.11.36.17.2.17.41.3.51.37.3.2.59.32.73.37.43.17.85.17,1.05.17.52,0,.79-.09.92-.14.41-.14.59-.32.69-.4.28-.26.38-.5.43-.62.15-.36.15-.66.15-.8,0-.49-.15-.7-.22-.8-.22-.31-.46-.45-.58-.52-.36-.21-.67-.31-.82-.36-.46-.15-.78-.25-.95-.3-.48-.15-.79-.29-.94-.36-.46-.2-.7-.42-.82-.52-.36-.32-.51-.65-.58-.81-.22-.48-.22-.96-.22-1.2,0-.57.15-.93.22-1.1.22-.53.5-.81.64-.95.42-.41.83-.58,1.04-.66.62-.25,1.15-.25,1.42-.25.9,0,1.4.19,1.64.28.74.29,1.11.65,1.3.83l-.35.69Z"/>
      <path class="cls-2" d="M176.47,182.29c1.12,0,1.66.17,1.93.26.81.26,1.16.58,1.34.73.52.47.69.9.78,1.11.25.65.25,1.15.25,1.4,0,.8-.17,1.25-.26,1.47-.26.67-.62.99-.79,1.15-.53.48-1.07.66-1.34.75-.81.27-1.54.27-1.9.27h-1.42v3.74h-2.25v-10.88h3.67ZM176.47,187.71c1.06,0,1.39-.34,1.55-.51.49-.51.49-1.1.49-1.4,0-.41-.08-.63-.12-.74-.12-.33-.29-.49-.38-.57-.25-.24-.51-.32-.63-.36-.38-.13-.73-.13-.91-.13h-1.42v3.7h1.42Z"/>
      <path class="cls-2" d="M189.29,182.29v.89c0,.39-.06.55-.09.63-.09.24-.14.35-.17.4l-3.96,8.27c-.15.28-.32.42-.4.49-.26.2-.54.2-.69.2h-1.5l4.06-8.08c.15-.28.26-.44.31-.52.16-.23.29-.37.35-.44h-5.02c-.18,0-.28-.1-.33-.14-.15-.14-.15-.26-.15-.32v-1.38h7.58Z"/>
      <path class="cls-2" d="M197.58,191.65v1.52h-6.1v-1.52h2.16v-5.95c0-.2,0-.33,0-.4,0-.2.02-.34.02-.41l-1.42,1.18c-.15.11-.24.13-.29.14-.14.03-.23.01-.27,0-.13-.03-.19-.07-.23-.09-.1-.06-.13-.11-.15-.13l-.65-.88,3.35-2.84h1.7v9.37h1.88Z"/>
      <polygon class="cls-2" points="213.52 182.43 213.52 183.61 208.36 183.61 208.36 187.18 212.53 187.18 212.53 188.32 208.36 188.32 208.36 191.99 213.52 191.99 213.52 193.17 206.89 193.17 206.89 182.43 213.52 182.43"/>
      <polygon class="cls-2" points="217.06 191.95 221.71 191.95 221.71 193.17 215.61 193.17 215.61 182.43 217.06 182.43 217.06 191.95"/>
      <polygon class="cls-2" points="229.94 182.43 229.94 183.61 224.78 183.61 224.78 187.18 228.96 187.18 228.96 188.32 224.78 188.32 224.78 191.99 229.94 191.99 229.94 193.17 223.32 193.17 223.32 182.43 229.94 182.43"/>
      <path class="cls-2" d="M239.61,190.95c.12,0,.18.06.22.1l.57.62c-.66.77-1.29,1.05-1.6,1.19-.94.43-1.83.43-2.27.43-1.16,0-1.79-.27-2.11-.4-.95-.4-1.39-.88-1.61-1.12-.67-.72-.91-1.4-1.04-1.74-.37-1.01-.37-1.82-.37-2.23,0-1.22.26-1.89.39-2.23.39-1.01.87-1.5,1.11-1.74.71-.73,1.38-.99,1.71-1.13.99-.4,1.79-.4,2.19-.4,1.18,0,1.76.24,2.04.37.86.37,1.3.79,1.53,1l-.47.67c-.05.08-.1.11-.12.12-.07.05-.15.05-.2.05-.1,0-.17-.05-.21-.07-.11-.07-.21-.14-.26-.18-.15-.11-.28-.18-.35-.23-.2-.12-.39-.19-.48-.22-.28-.11-.52-.15-.65-.18-.37-.07-.69-.07-.85-.07-.86,0-1.34.2-1.58.3-.72.3-1.06.66-1.23.84-.52.55-.71,1.07-.81,1.34-.29.79-.29,1.44-.29,1.76,0,1.01.19,1.53.29,1.79.29.79.62,1.15.79,1.33.5.54.95.73,1.18.83.68.28,1.21.28,1.47.28.48,0,.73-.04.86-.06.38-.06.6-.14.71-.18.33-.12.51-.24.61-.3.28-.18.47-.35.57-.44.13-.11.21-.11.25-.11Z"/>
      <polygon class="cls-2" points="249.63 182.43 249.63 183.65 246.16 183.65 246.16 193.17 244.7 193.17 244.7 183.65 241.21 183.65 241.21 182.43 249.63 182.43"/>
      <path class="cls-2" d="M252.76,187.63h1.52c.64,0,.96-.1,1.12-.15.48-.15.7-.34.81-.43.33-.28.44-.54.49-.67.17-.39.17-.71.17-.86,0-.96-.42-1.29-.63-1.45-.63-.49-1.47-.49-1.89-.49h-1.59v4.06ZM252.76,188.69v4.48h-1.45v-10.75h3.04c1.02,0,1.52.14,1.76.21.74.21,1.07.47,1.23.6.48.39.64.76.72.94.23.55.23,1.01.23,1.23,0,.57-.12.9-.18,1.07-.18.49-.41.76-.52.89-.34.39-.67.58-.83.67-.49.28-.91.37-1.11.42.27.16.41.36.48.46l3.14,4.27h-1.29c-.4,0-.52-.21-.58-.31l-2.79-3.84c-.13-.18-.23-.23-.28-.26-.15-.08-.35-.08-.45-.08h-1.1Z"/>
      <path class="cls-2" d="M268.96,187.8c0-.99-.18-1.52-.27-1.78-.27-.79-.6-1.15-.77-1.33-.49-.54-.96-.74-1.2-.84-.7-.29-1.28-.29-1.57-.29-.86,0-1.33.2-1.57.29-.7.29-1.04.66-1.2.84-.5.54-.68,1.07-.77,1.33-.27.79-.27,1.45-.27,1.78,0,.99.18,1.51.27,1.77.27.78.6,1.15.77,1.33.5.54.97.74,1.2.83.7.29,1.28.29,1.57.29.87,0,1.34-.19,1.57-.29.71-.29,1.04-.65,1.2-.83.49-.54.67-1.07.77-1.33.27-.78.27-1.44.27-1.77ZM270.46,187.8c0,1.21-.26,1.88-.38,2.22-.38,1.01-.85,1.49-1.08,1.74-.7.73-1.35.99-1.68,1.13-.98.4-1.77.4-2.16.4-1.19,0-1.83-.27-2.16-.4-.97-.4-1.44-.89-1.67-1.13-.7-.73-.95-1.4-1.08-1.74-.38-1.01-.38-1.81-.38-2.22,0-1.21.26-1.88.38-2.22.38-1.01.85-1.5,1.08-1.74.7-.73,1.35-1,1.67-1.14.97-.4,1.77-.4,2.16-.4,1.19,0,1.84.27,2.16.4.98.41,1.44.89,1.68,1.14.7.73.95,1.4,1.08,1.74.38,1.01.38,1.81.38,2.22Z"/>
      <polygon class="cls-2" points="273.9 191.95 278.55 191.95 278.55 193.17 272.44 193.17 272.44 182.43 273.9 182.43 273.9 191.95"/>
      <path class="cls-2" d="M282.7,188.9v4.28h-1.45v-4.28l-3.94-6.47h1.27c.2,0,.27.07.31.1.11.1.17.19.19.24l2.46,4.18c.15.26.22.42.25.49.1.23.16.38.18.46.08-.23.15-.39.18-.46.1-.23.2-.4.25-.49l2.45-4.18c.07-.12.15-.19.18-.23.12-.11.24-.11.3-.11h1.29l-3.94,6.47Z"/>
      <path class="cls-2" d="M293.5,184.11c-.07.11-.12.15-.14.17-.08.06-.16.06-.2.06-.13,0-.24-.08-.3-.13-.17-.13-.34-.23-.43-.28-.26-.15-.5-.24-.62-.28-.36-.13-.71-.13-.88-.13-.49,0-.74.09-.86.13-.38.13-.54.28-.63.36-.25.22-.34.43-.38.53-.13.3-.13.54-.13.66,0,.45.15.65.22.75.22.3.46.44.58.51.36.21.67.31.83.36.46.15.78.26.94.32.48.16.79.3.95.37.46.21.7.42.82.52.36.32.51.62.58.77.22.46.22.9.22,1.12,0,.71-.16,1.12-.24,1.32-.24.62-.55.92-.7,1.08-.46.46-.91.63-1.13.72-.67.26-1.24.26-1.53.26-1.04,0-1.61-.25-1.9-.38-.86-.38-1.26-.81-1.47-1.02l.42-.69c.06-.08.12-.12.15-.14.09-.06.16-.06.19-.06.16,0,.29.11.36.17.2.17.41.3.51.37.3.2.59.32.73.37.43.17.85.17,1.05.17.52,0,.79-.09.92-.14.4-.14.59-.32.69-.4.28-.26.38-.5.43-.62.15-.36.15-.66.15-.8,0-.49-.15-.7-.22-.8-.22-.31-.46-.45-.58-.52-.36-.21-.67-.31-.82-.36-.46-.15-.78-.25-.94-.3-.48-.15-.79-.29-.95-.36-.46-.2-.7-.42-.82-.52-.36-.32-.51-.65-.58-.81-.22-.48-.22-.96-.22-1.2,0-.57.15-.93.22-1.1.22-.53.5-.81.64-.95.42-.41.83-.58,1.04-.66.62-.25,1.15-.25,1.42-.25.9,0,1.4.19,1.64.28.74.29,1.11.65,1.3.83l-.35.69Z"/>
      <polygon class="cls-2" points="302.57 182.43 302.57 183.61 297.41 183.61 297.41 187.18 301.59 187.18 301.59 188.32 297.41 188.32 297.41 191.99 302.57 191.99 302.57 193.17 295.95 193.17 295.95 182.43 302.57 182.43"/>
      <path class="cls-2" d="M308.84,192.02c.67,0,1.02-.15,1.19-.22.53-.22.77-.49.89-.63.36-.4.49-.78.55-.97.19-.56.19-1.01.19-1.24v-6.53h1.45v6.53c0,.93-.2,1.46-.3,1.73-.3.79-.66,1.18-.85,1.38-.55.58-1.08.8-1.35.91-.8.33-1.46.33-1.79.33-.99,0-1.52-.22-1.79-.33-.79-.33-1.16-.72-1.35-.91-.55-.58-.75-1.11-.85-1.38-.3-.79-.3-1.42-.3-1.73v-6.53h1.45v6.53c0,.67.13,1.05.19,1.24.19.56.43.83.56.97.36.41.72.56.89.63.53.23.97.23,1.2.23Z"/>
      <path class="cls-2" d="M317.21,187.63h1.52c.64,0,.96-.1,1.12-.15.48-.15.7-.34.81-.43.33-.28.44-.54.49-.67.17-.39.17-.71.17-.86,0-.96-.42-1.29-.63-1.45-.63-.49-1.47-.49-1.89-.49h-1.59v4.06ZM317.21,188.69v4.48h-1.45v-10.75h3.04c1.02,0,1.52.14,1.76.21.74.21,1.06.47,1.23.6.48.39.64.76.72.94.23.55.23,1.01.23,1.23,0,.57-.12.9-.18,1.07-.18.49-.41.76-.52.89-.34.39-.67.58-.83.67-.49.28-.91.37-1.11.42.27.16.41.36.48.46l3.14,4.27h-1.29c-.4,0-.52-.21-.58-.31l-2.79-3.84c-.13-.18-.23-.23-.28-.26-.15-.08-.35-.08-.45-.08h-1.1Z"/>
      <path class="cls-2" d="M330.78,184.11c-.07.11-.12.15-.14.17-.08.06-.16.06-.2.06-.13,0-.24-.08-.3-.13-.17-.13-.34-.23-.43-.28-.26-.15-.5-.24-.62-.28-.36-.13-.71-.13-.88-.13-.49,0-.74.09-.86.13-.38.13-.54.28-.63.36-.25.22-.34.43-.38.53-.13.3-.13.54-.13.66,0,.45.15.65.22.75.22.3.46.44.58.51.36.21.67.31.83.36.46.15.78.26.94.32.48.16.79.3.95.37.46.21.7.42.82.52.36.32.51.62.58.77.22.46.22.9.22,1.12,0,.71-.16,1.12-.24,1.32-.24.62-.55.92-.7,1.08-.46.46-.91.63-1.13.72-.67.26-1.24.26-1.53.26-1.04,0-1.62-.25-1.9-.38-.86-.38-1.26-.81-1.47-1.02l.42-.69c.06-.08.12-.12.15-.14.09-.06.16-.06.19-.06.16,0,.29.11.36.17.2.17.4.3.51.37.3.2.59.32.73.37.43.17.85.17,1.05.17.52,0,.79-.09.92-.14.41-.14.59-.32.69-.4.28-.26.38-.5.43-.62.15-.36.15-.66.15-.8,0-.49-.15-.7-.22-.8-.22-.31-.46-.45-.58-.52-.36-.21-.67-.31-.82-.36-.46-.15-.78-.25-.95-.3-.48-.15-.79-.29-.94-.36-.46-.2-.7-.42-.82-.52-.36-.32-.51-.65-.58-.81-.22-.48-.22-.96-.22-1.2,0-.57.15-.93.22-1.1.22-.53.5-.81.64-.95.42-.41.83-.58,1.04-.66.62-.25,1.15-.25,1.42-.25.9,0,1.4.19,1.64.28.74.29,1.11.65,1.3.83l-.35.69Z"/>
      <g>
        <path class="cls-6" d="M156.02,155.24c3.74,0,6.77-3.03,6.77-6.78s-3.03-6.78-6.77-6.78-6.77,3.03-6.77,6.78,3.03,6.78,6.77,6.78"/>
        <path class="cls-1" d="M156.02,175.37c3.74,0,6.77-3.03,6.77-6.78s-3.03-6.78-6.77-6.78-6.77,3.03-6.77,6.78,3.03,6.78,6.77,6.78"/>
        <path class="cls-4" d="M156.02,195.5c3.74,0,6.77-3.03,6.77-6.78s-3.03-6.78-6.77-6.78-6.77,3.03-6.77,6.78,3.03,6.78,6.77,6.78"/>
      </g>
      <rect class="cls-6" x="338.17" y="143.08" width="89.43" height="10.77"/>
      <rect class="cls-1" x="338.17" y="163.21" width="89.43" height="10.77"/>
      <rect class="cls-4" x="338.17" y="183.34" width="89.43" height="10.77"/>
    </g>
  </g>
</svg>
