<?xml version="1.0" encoding="UTF-8"?>
<svg xmlns="http://www.w3.org/2000/svg" id="Calque_2" data-name="Calque 2" viewBox="0 0 434.05 234.85" preserveAspectRatio="none" width="434.05" height="234.85">
  <defs>
    <style>
      .cls-1 {
        fill: #b1656e;
      }

      .cls-2 {
        fill: #d7817d;
      }

      .cls-3 {
        fill: #1f2b3e;
      }

      .cls-4 {
        fill: #2a2f36;
      }

      .cls-5 {
        fill: #fff;
      }

      .cls-6 {
        fill: #c49368;
      }

      .cls-7 {
        fill: #9085bb;
      }

      .cls-8 {
        fill: #9a599b;
      }
    </style>
  </defs>
  <g id="Calque_1-2" data-name="Calque 1">
    <g>
      <rect class="cls-5" width="434.05" height="234.85"/>
      <path class="cls-3" d="M52.75,58.65c.5,0,.73.24.84.36l2.38,2.54c-1.76,2.24-3.5,3.01-4.37,3.4-2.61,1.16-5.01,1.16-6.21,1.16-3.26,0-4.99-.74-5.86-1.11-2.6-1.11-3.81-2.43-4.42-3.09-1.82-1.98-2.47-3.79-2.8-4.7-.98-2.72-.98-4.87-.98-5.94,0-2.16.31-3.46.47-4.11.47-1.95,1.07-3.04,1.37-3.59.9-1.64,1.75-2.52,2.17-2.96,1.27-1.32,2.34-1.94,2.87-2.25,1.6-.93,2.86-1.26,3.49-1.42,1.89-.49,3.32-.49,4.03-.49,1.6,0,2.55.19,3.03.28,1.43.28,2.26.61,2.67.78,1.24.5,1.94.97,2.29,1.21,1.05.71,1.61,1.27,1.89,1.55l-2.02,2.76c-.18.26-.37.39-.46.46-.28.2-.6.2-.76.2-.48,0-.81-.23-.97-.34-.49-.34-.96-.62-1.2-.76-.71-.42-1.42-.65-1.78-.76-1.07-.34-2.16-.34-2.71-.34-1.82,0-2.83.44-3.34.66-1.52.66-2.25,1.49-2.61,1.91-1.09,1.25-1.49,2.46-1.69,3.07-.6,1.82-.6,3.37-.6,4.14,0,2.34.43,3.56.65,4.17.65,1.83,1.4,2.67,1.78,3.09,1.13,1.26,2.14,1.69,2.64,1.91,1.51.65,2.66.65,3.23.65,1.02,0,1.57-.07,1.85-.1.83-.1,1.3-.26,1.54-.34.71-.24,1.13-.49,1.34-.62.63-.38,1.06-.77,1.27-.96.22-.18.38-.26.46-.3.24-.12.43-.12.52-.12Z"/>
      <path class="cls-3" d="M84.61,51.27c0-2.28-.4-3.49-.6-4.09-.6-1.81-1.35-2.66-1.73-3.08-1.13-1.27-2.2-1.72-2.74-1.94-1.61-.67-2.97-.67-3.65-.67-2.04,0-3.12.45-3.66.67-1.62.67-2.37,1.52-2.75,1.94-1.13,1.27-1.53,2.48-1.73,3.08-.6,1.81-.6,3.33-.6,4.09,0,2.3.4,3.51.6,4.11.6,1.81,1.35,2.65,1.73,3.07,1.13,1.26,2.21,1.71,2.75,1.93,1.62.67,2.98.67,3.66.67,2.04,0,3.11-.45,3.65-.67,1.61-.67,2.36-1.51,2.74-1.93,1.13-1.26,1.53-2.47,1.73-3.07.6-1.81.6-3.34.6-4.11ZM90.75,51.27c0,3.18-.71,4.99-1.07,5.9-1.07,2.72-2.37,4.04-3.02,4.7-1.95,1.98-3.78,2.73-4.69,3.11-2.74,1.13-4.97,1.13-6.08,1.13-3.34,0-5.17-.75-6.08-1.13-2.74-1.13-4.05-2.45-4.7-3.11-1.96-1.98-2.67-3.79-3.03-4.7-1.07-2.72-1.07-4.84-1.07-5.9,0-3.18.71-4.99,1.07-5.89,1.07-2.71,2.38-4.03,3.03-4.69,1.96-1.98,3.79-2.73,4.7-3.11,2.74-1.13,4.97-1.13,6.08-1.13,3.34,0,5.17.75,6.08,1.13,2.74,1.13,4.04,2.46,4.69,3.12,1.95,1.99,2.66,3.8,3.02,4.7,1.07,2.71,1.07,4.82,1.07,5.87Z"/>
      <path class="cls-3" d="M111.03,60.99c1.46,0,2.23-.33,2.62-.49,1.16-.49,1.69-1.09,1.96-1.39.8-.9,1.08-1.75,1.22-2.18.42-1.28.42-2.35.42-2.88v-17.28h6v17.28c0,2.64-.57,4.11-.85,4.85-.85,2.21-1.9,3.28-2.43,3.81-1.58,1.6-3.09,2.2-3.84,2.5-2.26.9-4.15.9-5.1.9-2.84,0-4.35-.6-5.11-.9-2.27-.9-3.32-1.97-3.85-2.5-1.58-1.6-2.15-3.07-2.43-3.81-.85-2.21-.85-3.97-.85-4.85v-17.28h6v17.28c0,1.6.28,2.45.42,2.88.42,1.28.95,1.88,1.22,2.18.8.9,1.57,1.23,1.96,1.39,1.16.49,2.15.49,2.64.49Z"/>
      <path class="cls-3" d="M158.35,36.77l-11.68,29.02h-5.44l-11.68-29.02h4.84c.78,0,1.11.25,1.27.37.49.37.65.76.73.95l6.28,16.72c.36.94.59,1.68.71,2.05.35,1.11.55,1.92.65,2.33.26-1.22.47-1.96.57-2.33.31-1.11.55-1.74.67-2.05l6.24-16.72c.2-.5.54-.77.71-.91.51-.41,1.02-.41,1.27-.41h4.86Z"/>
      <polygon class="cls-3" points="171.07 41.47 171.07 48.93 180.75 48.93 180.75 53.47 171.07 53.47 171.07 61.09 183.51 61.09 183.51 65.79 165.03 65.79 165.03 36.77 183.51 36.77 183.51 41.47 171.07 41.47"/>
      <path class="cls-3" d="M215.13,65.79h-5.42c-1.52,0-1.97-.77-2.2-1.16l-5.52-8.9c-.34-.52-.61-.68-.75-.76-.41-.24-.94-.24-1.21-.24h-2.04v11.06h-6v-29.02h9.12c3.04,0,4.48.42,5.2.63,2.16.63,3.08,1.38,3.54,1.75,1.38,1.12,1.81,2.15,2.02,2.67.64,1.55.64,2.79.64,3.41,0,1.44-.27,2.3-.41,2.73-.41,1.29-.93,2-1.19,2.35-.78,1.06-1.54,1.61-1.92,1.88-1.14.82-2.11,1.15-2.6,1.32.58.32.91.62,1.08.77.5.45.77.86.9,1.07l6.76,10.44ZM201.07,50.51c1.46,0,2.17-.25,2.52-.37,1.06-.37,1.51-.8,1.74-1.02.68-.65.89-1.24,1-1.53.32-.88.32-1.57.32-1.92,0-2.06-.91-2.82-1.37-3.2-1.37-1.14-3.24-1.14-4.17-1.14h-3.12v9.18h3.08Z"/>
      <polygon class="cls-3" points="241.82 41.61 233.34 41.61 233.34 65.79 227.32 65.79 227.32 41.61 218.84 41.61 218.84 36.77 241.82 36.77 241.82 41.61"/>
      <path class="cls-3" d="M261.32,60.99c1.46,0,2.23-.33,2.62-.49,1.16-.49,1.69-1.09,1.96-1.39.8-.9,1.08-1.75,1.22-2.18.42-1.28.42-2.35.42-2.88v-17.28h6v17.28c0,2.64-.57,4.11-.85,4.85-.85,2.21-1.9,3.28-2.43,3.81-1.58,1.6-3.09,2.2-3.84,2.5-2.26.9-4.15.9-5.1.9-2.84,0-4.35-.6-5.11-.9-2.27-.9-3.32-1.97-3.85-2.5-1.58-1.6-2.15-3.07-2.43-3.81-.85-2.21-.85-3.97-.85-4.85v-17.28h6v17.28c0,1.6.28,2.45.42,2.88.42,1.28.95,1.88,1.22,2.18.8.9,1.57,1.23,1.96,1.39,1.16.49,2.15.49,2.64.49Z"/>
      <path class="cls-3" d="M306.38,65.79h-5.42c-1.52,0-1.97-.77-2.2-1.16l-5.52-8.9c-.34-.52-.61-.68-.75-.76-.41-.24-.94-.24-1.21-.24h-2.04v11.06h-6v-29.02h9.12c3.04,0,4.48.42,5.2.63,2.16.63,3.08,1.38,3.54,1.75,1.38,1.12,1.81,2.15,2.02,2.67.64,1.55.64,2.79.64,3.41,0,1.44-.27,2.3-.41,2.73-.41,1.29-.93,2-1.19,2.35-.78,1.06-1.54,1.61-1.92,1.88-1.14.82-2.11,1.15-2.6,1.32.58.32.91.62,1.08.77.5.45.77.86.9,1.07l6.76,10.44ZM292.32,50.51c1.46,0,2.17-.25,2.52-.37,1.06-.37,1.51-.8,1.74-1.02.68-.65.89-1.24,1-1.53.32-.88.32-1.57.32-1.92,0-2.06-.91-2.82-1.37-3.2-1.37-1.14-3.24-1.14-4.17-1.14h-3.12v9.18h3.08Z"/>
      <polygon class="cls-3" points="319.24 41.47 319.24 48.93 328.92 48.93 328.92 53.47 319.24 53.47 319.24 61.09 331.68 61.09 331.68 65.79 313.2 65.79 313.2 36.77 331.68 36.77 331.68 41.47 319.24 41.47"/>
      <path class="cls-4" d="M142.93,94.13c1.12,0,1.66.17,1.93.26.81.26,1.16.58,1.34.73.52.47.69.9.78,1.11.25.65.25,1.15.25,1.4,0,.8-.17,1.25-.26,1.47-.26.67-.62.99-.79,1.15-.53.48-1.07.66-1.34.75-.81.27-1.54.27-1.9.27h-1.42v3.74h-2.25v-10.88h3.67ZM142.93,99.54c1.06,0,1.39-.34,1.55-.51.49-.51.49-1.1.49-1.4,0-.41-.08-.63-.12-.74-.12-.33-.29-.49-.38-.57-.25-.24-.51-.32-.63-.36-.38-.13-.73-.13-.91-.13h-1.42v3.7h1.42Z"/>
      <path class="cls-4" d="M155.34,103.49v1.52h-6.1v-1.52h2.16v-5.95c0-.2,0-.33,0-.4,0-.2.02-.34.02-.41l-1.42,1.18c-.15.11-.24.13-.29.14-.14.03-.23.01-.27,0-.13-.03-.19-.07-.22-.09-.1-.06-.13-.11-.15-.13l-.65-.88,3.35-2.84h1.7v9.37h1.88Z"/>
      <path class="cls-4" d="M162.45,99.57c0-1.15-.11-1.65-.16-1.9-.16-.75-.34-1.04-.42-1.18-.26-.43-.49-.55-.6-.61-.34-.17-.58-.17-.7-.17-.36,0-.58.11-.69.17-.33.17-.51.46-.59.61-.26.43-.36.93-.42,1.18-.16.75-.16,1.52-.16,1.9,0,1.16.1,1.66.16,1.91.16.75.33,1.04.42,1.18.26.43.48.55.59.61.33.17.57.17.69.17.36,0,.59-.11.7-.17.34-.17.52-.46.6-.61.26-.43.37-.93.42-1.18.16-.75.16-1.53.16-1.91ZM164.59,99.57c0,1.42-.21,2.12-.31,2.48-.31,1.05-.67,1.51-.85,1.74-.54.69-1.03.91-1.28,1.02-.74.33-1.31.33-1.59.33-.85,0-1.35-.22-1.59-.33-.73-.33-1.09-.79-1.27-1.02-.53-.69-.74-1.39-.84-1.74-.3-1.05-.3-2-.3-2.48,0-1.42.2-2.12.3-2.47.3-1.05.66-1.5.84-1.73.53-.69,1.02-.91,1.27-1.02.74-.33,1.31-.33,1.59-.33.85,0,1.35.22,1.59.33.74.33,1.1.79,1.28,1.02.54.69.74,1.38.85,1.73.31,1.05.31,2,.31,2.47Z"/>
      <path class="cls-4" d="M172.74,103.49v1.52h-6.1v-1.52h2.16v-5.95c0-.2,0-.33,0-.4,0-.2.02-.34.02-.41l-1.42,1.18c-.15.11-.25.13-.29.14-.14.03-.23.01-.27,0-.13-.03-.19-.07-.23-.09-.1-.06-.13-.11-.15-.13l-.65-.88,3.34-2.84h1.7v9.37h1.88Z"/>
      <path class="cls-4" d="M179.94,99.08h1.92c.61,0,.91-.09,1.07-.14.45-.14.65-.29.75-.38.3-.24.39-.47.44-.58.14-.34.14-.61.14-.75,0-.95-.38-1.24-.57-1.39-.57-.44-1.37-.44-1.77-.44h-1.97v3.67ZM179.94,100.11v3.74h2.33c.62,0,.92-.09,1.07-.14.45-.14.64-.32.73-.4.29-.26.38-.5.42-.61.14-.36.14-.64.14-.78,0-.83-.39-1.16-.59-1.32-.59-.48-1.38-.48-1.78-.48h-2.32ZM178.49,105.01v-10.75h3.43c.99,0,1.47.13,1.71.2.72.2,1.02.43,1.18.55.46.36.61.71.68.88.22.52.22.96.22,1.17,0,.4-.08.64-.12.77-.12.37-.29.58-.38.68-.25.32-.5.48-.63.56-.38.25-.72.35-.89.4,1.18.23,1.58.64,1.78.85.6.61.6,1.28.6,1.62,0,.68-.17,1.06-.25,1.24-.25.56-.57.83-.73.97-.48.4-.95.55-1.18.63-.7.22-1.3.22-1.6.22h-3.8Z"/>
      <path class="cls-4" d="M194.43,93.42h-1.01c-.09,0-.16-.02-.2-.03-.1-.03-.15-.06-.17-.07l-.97-.71c-.06-.03-.08-.05-.09-.06-.06.05-.08.06-.09.06l-.98.71c-.07.04-.14.06-.17.07-.1.03-.16.03-.2.03h-1.01l1.79-1.58h1.32l1.78,1.58ZM189.99,101.02h4.01l-1.69-4.37c-.17-.41-.27-.81-.32-1.01-.08.31-.14.48-.16.57-.08.26-.13.39-.15.45l-1.69,4.36ZM197.04,105.01h-1.12c-.2,0-.27-.07-.32-.1-.12-.1-.16-.2-.18-.25l-1.01-2.6h-4.82l-1.01,2.6c-.05.13-.14.2-.18.24-.13.1-.25.1-.31.1h-1.12l4.3-10.75h1.48l4.3,10.75Z"/>
      <path class="cls-4" d="M205.65,102.79c.12,0,.19.06.22.1l.57.62c-.66.77-1.29,1.05-1.6,1.19-.94.43-1.83.43-2.27.43-1.16,0-1.79-.27-2.11-.4-.95-.4-1.39-.88-1.61-1.12-.67-.72-.91-1.4-1.03-1.74-.37-1.01-.37-1.82-.37-2.23,0-1.22.26-1.89.39-2.23.39-1.01.87-1.5,1.11-1.74.71-.73,1.38-.99,1.71-1.13.99-.4,1.79-.4,2.19-.4,1.18,0,1.76.24,2.04.37.86.37,1.3.79,1.53,1l-.47.67c-.05.08-.1.11-.12.12-.07.05-.15.05-.2.05-.1,0-.17-.05-.21-.07-.11-.07-.21-.14-.26-.18-.15-.11-.28-.18-.35-.23-.2-.12-.39-.19-.48-.22-.28-.11-.52-.15-.65-.18-.37-.07-.69-.07-.85-.07-.86,0-1.34.2-1.58.3-.72.3-1.06.66-1.23.84-.52.55-.71,1.07-.81,1.34-.29.79-.29,1.44-.29,1.76,0,1.01.19,1.53.29,1.79.29.79.62,1.15.79,1.33.5.54.95.73,1.18.83.68.28,1.21.28,1.47.28.48,0,.74-.04.86-.06.38-.06.6-.14.71-.18.33-.12.51-.24.61-.3.28-.18.47-.35.57-.44.13-.11.21-.11.25-.11Z"/>
      <polygon class="cls-4" points="217.07 105.01 215.61 105.01 215.61 100.12 209.82 100.12 209.82 105.01 208.35 105.01 208.35 94.26 209.82 94.26 209.82 99.06 215.61 99.06 215.61 94.26 217.07 94.26 217.07 105.01"/>
      <polygon class="cls-4" points="226.32 94.26 226.32 95.45 221.16 95.45 221.16 99.02 225.33 99.02 225.33 100.16 221.16 100.16 221.16 103.83 226.32 103.83 226.32 105.01 219.69 105.01 219.69 94.26 226.32 94.26"/>
      <path class="cls-4" d="M233.91,95.94c-.07.11-.12.15-.14.17-.08.06-.16.06-.2.06-.13,0-.24-.08-.3-.13-.17-.13-.34-.23-.43-.28-.26-.15-.5-.24-.62-.28-.36-.13-.71-.13-.88-.13-.49,0-.74.09-.86.13-.38.13-.54.28-.63.36-.25.22-.34.43-.38.53-.13.3-.13.54-.13.66,0,.45.15.65.22.75.22.3.46.44.59.51.36.21.67.31.83.36.46.15.78.26.95.32.48.16.79.3.94.37.46.21.7.42.83.52.36.32.51.62.59.77.22.46.22.9.22,1.12,0,.71-.16,1.12-.24,1.32-.24.62-.55.92-.7,1.08-.46.46-.91.63-1.13.72-.67.26-1.24.26-1.53.26-1.04,0-1.61-.25-1.9-.38-.86-.38-1.26-.81-1.47-1.02l.42-.69c.06-.08.12-.12.15-.14.09-.06.16-.06.19-.06.16,0,.29.11.36.17.2.17.41.3.51.37.3.2.59.32.73.37.43.17.85.17,1.05.17.52,0,.79-.09.92-.14.4-.14.59-.32.69-.4.28-.26.38-.5.43-.62.15-.36.15-.66.15-.8,0-.49-.15-.7-.22-.8-.22-.31-.46-.45-.58-.52-.36-.21-.67-.31-.82-.36-.46-.15-.78-.25-.95-.3-.48-.15-.79-.29-.95-.36-.46-.2-.7-.42-.82-.52-.36-.32-.51-.65-.58-.81-.22-.48-.22-.96-.22-1.2,0-.57.15-.93.22-1.1.22-.53.5-.81.64-.95.42-.41.83-.58,1.04-.66.62-.25,1.15-.25,1.42-.25.9,0,1.39.19,1.64.28.74.29,1.11.65,1.3.83l-.35.69Z"/>
      <path class="cls-4" d="M241.85,91.65c.24,0,.32.03.36.05.12.05.22.15.27.2l1.58,1.52h-1.04c-.16,0-.22-.02-.25-.03-.09-.03-.18-.09-.22-.12l-2.21-1.63h1.51ZM241.05,101.02h4.01l-1.69-4.37c-.16-.41-.27-.81-.32-1.01-.08.31-.14.48-.16.57-.08.26-.13.39-.15.45l-1.69,4.36ZM248.1,105.01h-1.12c-.19,0-.27-.07-.32-.1-.12-.1-.16-.2-.18-.25l-1.01-2.6h-4.82l-1.01,2.6c-.05.13-.14.2-.18.24-.13.1-.25.1-.32.1h-1.12l4.3-10.75h1.48l4.3,10.75Z"/>
      <path class="cls-4" d="M253.8,99.08h1.92c.61,0,.92-.09,1.07-.14.45-.14.65-.29.75-.38.3-.24.39-.47.44-.58.14-.34.14-.61.14-.75,0-.95-.38-1.24-.57-1.39-.57-.44-1.37-.44-1.77-.44h-1.97v3.67ZM253.8,100.11v3.74h2.32c.62,0,.92-.09,1.07-.14.45-.14.64-.32.73-.4.29-.26.38-.5.42-.61.14-.36.14-.64.14-.78,0-.83-.39-1.16-.59-1.32-.59-.48-1.38-.48-1.78-.48h-2.32ZM252.35,105.01v-10.75h3.43c.99,0,1.47.13,1.71.2.72.2,1.02.43,1.18.55.46.36.61.71.68.88.22.52.22.96.22,1.17,0,.4-.08.64-.12.77-.12.37-.29.58-.38.68-.25.32-.5.48-.63.56-.38.25-.72.35-.89.4,1.18.23,1.58.64,1.78.85.6.61.6,1.28.6,1.62,0,.68-.17,1.06-.25,1.24-.25.56-.57.83-.73.97-.48.4-.95.55-1.18.63-.7.22-1.3.22-1.6.22h-3.8Z"/>
      <path class="cls-4" d="M266.23,103.86c.67,0,1.02-.15,1.19-.22.52-.22.77-.49.89-.63.36-.4.49-.78.56-.97.19-.56.19-1.01.19-1.24v-6.53h1.45v6.53c0,.93-.2,1.46-.3,1.73-.3.79-.66,1.18-.85,1.38-.55.58-1.08.8-1.35.91-.79.33-1.45.33-1.78.33-.99,0-1.52-.22-1.79-.33-.8-.33-1.17-.72-1.35-.91-.56-.58-.75-1.11-.85-1.38-.3-.79-.3-1.42-.3-1.73v-6.53h1.45v6.53c0,.67.13,1.05.19,1.24.19.56.43.83.56.97.36.41.72.56.89.63.53.23.97.23,1.2.23Z"/>
      <polygon class="cls-4" points="274.46 103.79 279.11 103.79 279.11 105.01 273 105.01 273 94.26 274.46 94.26 274.46 103.79"/>
      <polygon class="cls-4" points="282.17 103.79 286.82 103.79 286.82 105.01 280.71 105.01 280.71 94.26 282.17 94.26 282.17 103.79"/>
      <polygon class="cls-4" points="295.05 94.26 295.05 95.45 289.89 95.45 289.89 99.02 294.06 99.02 294.06 100.16 289.89 100.16 289.89 103.83 295.05 103.83 295.05 105.01 288.42 105.01 288.42 94.26 295.05 94.26"/>
      <path class="cls-4" d="M302.64,95.94c-.07.11-.12.15-.14.17-.07.06-.15.06-.19.06-.13,0-.24-.08-.3-.13-.17-.13-.34-.23-.43-.28-.26-.15-.5-.24-.62-.28-.36-.13-.71-.13-.88-.13-.49,0-.74.09-.86.13-.38.13-.54.28-.63.36-.25.22-.34.43-.38.53-.13.3-.13.54-.13.66,0,.45.15.65.22.75.22.3.46.44.58.51.36.21.67.31.82.36.46.15.78.26.95.32.48.16.79.3.94.37.46.21.7.42.83.52.36.32.51.62.58.77.22.46.22.9.22,1.12,0,.71-.16,1.12-.24,1.32-.24.62-.55.92-.7,1.08-.46.46-.91.63-1.13.72-.67.26-1.24.26-1.53.26-1.04,0-1.61-.25-1.9-.38-.86-.38-1.26-.81-1.47-1.02l.42-.69c.06-.08.12-.12.15-.14.09-.06.16-.06.19-.06.16,0,.29.11.36.17.2.17.41.3.51.37.3.2.59.32.73.37.43.17.85.17,1.05.17.52,0,.79-.09.92-.14.41-.14.59-.32.69-.4.28-.26.38-.5.43-.62.15-.36.15-.66.15-.8,0-.49-.15-.7-.22-.8-.22-.31-.46-.45-.58-.52-.36-.21-.67-.31-.82-.36-.46-.15-.78-.25-.95-.3-.48-.15-.79-.29-.94-.36-.46-.2-.7-.42-.82-.52-.36-.32-.51-.65-.58-.81-.22-.48-.22-.96-.22-1.2,0-.57.15-.93.22-1.1.22-.53.5-.81.64-.95.42-.41.83-.58,1.04-.66.62-.25,1.15-.25,1.42-.25.9,0,1.4.19,1.64.28.74.29,1.11.65,1.3.83l-.35.69Z"/>
      <path class="cls-4" d="M142.93,114.13c1.12,0,1.66.17,1.93.26.81.26,1.16.58,1.34.73.52.47.69.9.78,1.11.25.65.25,1.15.25,1.4,0,.8-.17,1.25-.26,1.47-.26.67-.62.99-.79,1.15-.53.48-1.07.66-1.34.75-.81.27-1.54.27-1.9.27h-1.42v3.74h-2.25v-10.88h3.67ZM142.93,119.54c1.06,0,1.39-.34,1.55-.51.49-.51.49-1.1.49-1.4,0-.41-.08-.63-.12-.74-.12-.33-.29-.49-.38-.57-.25-.24-.51-.32-.63-.36-.38-.13-.73-.13-.91-.13h-1.42v3.7h1.42Z"/>
      <path class="cls-4" d="M155.34,123.49v1.52h-6.1v-1.52h2.16v-5.95c0-.2,0-.33,0-.4,0-.2.02-.34.02-.41l-1.42,1.18c-.15.11-.24.13-.29.14-.14.03-.23.01-.27,0-.13-.03-.19-.07-.22-.09-.1-.06-.13-.11-.15-.13l-.65-.88,3.35-2.84h1.7v9.37h1.88Z"/>
      <path class="cls-4" d="M162.45,119.57c0-1.15-.11-1.65-.16-1.9-.16-.75-.34-1.04-.42-1.18-.26-.43-.49-.55-.6-.61-.34-.17-.58-.17-.7-.17-.36,0-.58.11-.69.17-.33.17-.51.46-.59.61-.26.43-.36.93-.42,1.18-.16.75-.16,1.52-.16,1.9,0,1.16.1,1.66.16,1.91.16.75.33,1.04.42,1.18.26.43.48.55.59.61.33.17.57.17.69.17.36,0,.59-.11.7-.17.34-.17.52-.46.6-.61.26-.43.37-.93.42-1.18.16-.75.16-1.53.16-1.91ZM164.59,119.57c0,1.42-.21,2.12-.31,2.48-.31,1.05-.67,1.51-.85,1.74-.54.69-1.03.91-1.28,1.02-.74.33-1.31.33-1.59.33-.85,0-1.35-.22-1.59-.33-.73-.33-1.09-.79-1.27-1.02-.53-.69-.74-1.39-.84-1.74-.3-1.05-.3-2-.3-2.48,0-1.42.2-2.12.3-2.47.3-1.05.66-1.5.84-1.73.53-.69,1.02-.91,1.27-1.02.74-.33,1.31-.33,1.59-.33.85,0,1.35.22,1.59.33.74.33,1.1.79,1.28,1.02.54.69.74,1.38.85,1.73.31,1.05.31,2,.31,2.47Z"/>
      <path class="cls-4" d="M165.67,117.2c.12-.79.34-1.2.45-1.4.33-.6.66-.86.83-1,.49-.4.92-.53,1.13-.6.63-.2,1.12-.2,1.37-.2.78,0,1.19.15,1.4.22.62.22.9.48,1.05.6.43.38.58.72.66.89.23.51.23.9.23,1.09,0,.52-.07.78-.11.91-.11.39-.25.59-.32.69-.21.29-.42.43-.53.5-.31.2-.58.29-.72.34,1.88.61,1.88,1.87,1.88,2.5,0,.83-.2,1.26-.31,1.47-.31.63-.65.92-.83,1.06-.52.43-.97.57-1.2.64-.69.21-1.19.21-1.44.21-.8,0-1.2-.12-1.4-.18-.61-.18-.91-.42-1.07-.54-.46-.36-.68-.72-.79-.9-.33-.54-.49-1.03-.58-1.27l.92-.38c.36-.15.57-.1.67-.08.31.07.4.24.45.33.15.29.26.45.32.53.17.24.31.36.38.42.21.18.39.24.48.27.27.1.5.1.61.1.43,0,.65-.09.76-.14.32-.14.47-.3.54-.37.22-.23.29-.42.33-.52.11-.29.11-.48.11-.57,0-.38-.04-.58-.07-.68-.07-.3-.23-.45-.31-.52-.24-.21-.56-.29-.72-.33-.48-.12-1.02-.12-1.29-.12v-1.45c.68,0,.97-.08,1.12-.11.43-.11.6-.25.68-.31.25-.2.31-.39.34-.49.09-.28.09-.51.09-.62,0-.71-.25-.96-.37-1.09-.37-.38-.83-.38-1.05-.38-.3,0-.47.06-.55.09-.25.09-.38.19-.45.24-.2.15-.29.28-.34.35-.14.2-.19.36-.21.44-.14.38-.29.46-.37.5-.22.12-.51.08-.65.06l-1.09-.2Z"/>
      <path class="cls-4" d="M182.61,123.95c.43,0,.68-.03.8-.04.36-.04.58-.1.69-.12.32-.08.51-.16.61-.2.28-.12.47-.22.57-.27v-2.37h-1.67c-.14,0-.2-.05-.23-.08-.09-.08-.09-.16-.09-.2v-.82h3.3v4.12c-.4.29-.7.44-.84.51-.44.22-.77.31-.94.36-.5.15-.88.19-1.07.22-.57.07-1.02.07-1.24.07-1.17,0-1.82-.27-2.15-.4-.97-.4-1.45-.88-1.68-1.12-.71-.72-.97-1.4-1.1-1.74-.39-1.01-.39-1.82-.39-2.23,0-1.23.26-1.91.39-2.24.39-1.01.86-1.49,1.1-1.74.72-.72,1.39-.99,1.73-1.12,1.02-.4,1.86-.4,2.28-.4.64,0,1,.06,1.18.09.55.09.86.21,1.02.27.47.18.73.34.87.43.4.25.63.46.74.57l-.41.66c-.13.2-.26.2-.33.2-.12,0-.22-.05-.26-.08-.19-.11-.34-.21-.42-.26-.23-.15-.46-.24-.57-.29-.33-.14-.64-.2-.79-.24-.45-.1-.87-.1-1.08-.1-.91,0-1.4.2-1.64.3-.73.3-1.08.66-1.25.85-.52.55-.7,1.07-.79,1.34-.28.78-.28,1.43-.28,1.76,0,1.02.19,1.55.29,1.82.29.8.64,1.17.81,1.35.53.55,1.01.75,1.25.85.72.29,1.3.29,1.59.29Z"/>
      <path class="cls-4" d="M190.43,119.47h1.52c.64,0,.96-.1,1.12-.15.48-.15.7-.34.81-.43.33-.28.44-.54.49-.67.16-.39.16-.71.16-.86,0-.96-.42-1.29-.63-1.45-.63-.49-1.47-.49-1.89-.49h-1.59v4.06ZM190.43,120.53v4.48h-1.45v-10.75h3.04c1.02,0,1.51.14,1.76.21.74.21,1.07.47,1.23.6.48.39.64.76.72.94.23.55.23,1.01.23,1.23,0,.57-.12.9-.18,1.07-.18.49-.41.76-.52.89-.34.39-.67.58-.83.67-.49.28-.91.37-1.11.42.27.16.41.36.48.46l3.14,4.27h-1.29c-.4,0-.52-.21-.59-.31l-2.79-3.84c-.13-.18-.23-.23-.28-.26-.15-.08-.35-.08-.45-.08h-1.1Z"/>
      <rect class="cls-4" x="198.76" y="114.26" width="1.45" height="10.75"/>
      <polygon class="cls-4" points="204.55 123.79 209.2 123.79 209.2 125.01 203.1 125.01 203.1 114.26 204.55 114.26 204.55 123.79"/>
      <polygon class="cls-4" points="212.26 123.79 216.91 123.79 216.91 125.01 210.81 125.01 210.81 114.26 212.26 114.26 212.26 123.79"/>
      <polygon class="cls-4" points="225.14 114.26 225.14 115.45 219.98 115.45 219.98 119.02 224.16 119.02 224.16 120.16 219.98 120.16 219.98 123.83 225.14 123.83 225.14 125.01 218.52 125.01 218.52 114.26 225.14 114.26"/>
      <path class="cls-4" d="M232.74,115.94c-.07.11-.12.15-.14.17-.07.06-.15.06-.19.06-.13,0-.24-.08-.3-.13-.17-.13-.34-.23-.43-.28-.26-.15-.5-.24-.62-.28-.36-.13-.71-.13-.88-.13-.49,0-.74.09-.86.13-.38.13-.54.28-.63.36-.25.22-.34.43-.38.53-.13.3-.13.54-.13.66,0,.45.15.65.22.75.22.3.46.44.59.51.36.21.67.31.83.36.46.15.78.26.94.32.48.16.79.3.95.37.46.21.7.42.83.52.36.32.51.62.59.77.22.46.22.9.22,1.12,0,.71-.16,1.12-.24,1.32-.24.62-.55.92-.7,1.08-.46.46-.91.63-1.13.72-.67.26-1.24.26-1.53.26-1.04,0-1.61-.25-1.9-.38-.86-.38-1.26-.81-1.47-1.02l.42-.69c.06-.08.12-.12.15-.14.09-.06.16-.06.19-.06.16,0,.29.11.36.17.2.17.41.3.51.37.3.2.59.32.73.37.43.17.85.17,1.05.17.52,0,.79-.09.92-.14.4-.14.59-.32.69-.4.28-.26.38-.5.43-.62.15-.36.15-.66.15-.8,0-.49-.15-.7-.22-.8-.22-.31-.46-.45-.58-.52-.36-.21-.67-.31-.82-.36-.46-.15-.78-.25-.95-.3-.48-.15-.79-.29-.95-.36-.46-.2-.7-.42-.82-.52-.36-.32-.51-.65-.58-.81-.22-.48-.22-.96-.22-1.2,0-.57.15-.93.22-1.1.22-.53.5-.81.64-.95.42-.41.83-.58,1.04-.66.62-.25,1.15-.25,1.42-.25.9,0,1.39.19,1.64.28.74.29,1.11.65,1.3.83l-.35.69Z"/>
      <polygon class="cls-4" points="246.79 125.01 245.33 125.01 245.33 120.12 239.54 120.12 239.54 125.01 238.08 125.01 238.08 114.26 239.54 114.26 239.54 119.06 245.33 119.06 245.33 114.26 246.79 114.26 246.79 125.01"/>
      <rect class="cls-4" x="249.69" y="114.26" width="1.45" height="10.75"/>
      <path class="cls-4" d="M252.78,114.26h1.16c.2,0,.28.07.32.1.12.1.16.2.18.25l3.04,7.58c.1.26.16.46.19.55.09.3.14.52.17.62.07-.32.12-.52.15-.62.08-.3.15-.47.18-.55l3.02-7.58c.05-.13.14-.2.18-.24.13-.11.25-.11.32-.11h1.17l-4.38,10.75h-1.31l-4.38-10.75Z"/>
      <polygon class="cls-4" points="270.84 114.26 270.84 115.45 265.68 115.45 265.68 119.02 269.86 119.02 269.86 120.16 265.68 120.16 265.68 123.83 270.84 123.83 270.84 125.01 264.22 125.01 264.22 114.26 270.84 114.26"/>
      <path class="cls-4" d="M274.54,119.47h1.52c.64,0,.96-.1,1.12-.15.48-.15.7-.34.81-.43.33-.28.44-.54.49-.67.17-.39.17-.71.17-.86,0-.96-.42-1.29-.63-1.45-.63-.49-1.47-.49-1.89-.49h-1.59v4.06ZM274.54,120.53v4.48h-1.45v-10.75h3.04c1.02,0,1.52.14,1.76.21.74.21,1.07.47,1.23.6.48.39.64.76.72.94.23.55.23,1.01.23,1.23,0,.57-.12.9-.18,1.07-.18.49-.41.76-.52.89-.34.39-.67.58-.83.67-.49.28-.91.37-1.11.42.27.16.41.36.48.46l3.14,4.27h-1.29c-.4,0-.52-.21-.58-.31l-2.79-3.84c-.13-.18-.23-.23-.28-.26-.15-.08-.35-.08-.45-.08h-1.1Z"/>
      <path class="cls-4" d="M142.93,134.13c1.12,0,1.66.17,1.93.26.81.26,1.16.58,1.34.73.52.47.69.9.78,1.11.25.65.25,1.15.25,1.4,0,.8-.17,1.25-.26,1.47-.26.67-.62.99-.79,1.15-.53.48-1.07.66-1.34.75-.81.27-1.54.27-1.9.27h-1.42v3.74h-2.25v-10.88h3.67ZM142.93,139.54c1.06,0,1.39-.34,1.55-.51.49-.51.49-1.1.49-1.4,0-.41-.08-.63-.12-.74-.12-.33-.29-.49-.38-.57-.25-.24-.51-.32-.63-.36-.38-.13-.73-.13-.91-.13h-1.42v3.7h1.42Z"/>
      <path class="cls-4" d="M155.34,143.49v1.52h-6.1v-1.52h2.16v-5.95c0-.2,0-.33,0-.4,0-.2.02-.34.02-.41l-1.42,1.18c-.15.11-.24.13-.29.14-.14.03-.23.01-.27,0-.13-.03-.19-.07-.22-.09-.1-.06-.13-.11-.15-.13l-.65-.88,3.35-2.84h1.7v9.37h1.88Z"/>
      <path class="cls-4" d="M162.45,139.57c0-1.15-.11-1.65-.16-1.9-.16-.75-.34-1.04-.42-1.18-.26-.43-.49-.55-.6-.61-.34-.17-.58-.17-.7-.17-.36,0-.58.11-.69.17-.33.17-.51.46-.59.61-.26.43-.36.93-.42,1.18-.16.75-.16,1.52-.16,1.9,0,1.16.1,1.66.16,1.91.16.75.33,1.04.42,1.18.26.43.48.55.59.61.33.17.57.17.69.17.36,0,.59-.11.7-.17.34-.17.52-.46.6-.61.26-.43.37-.93.42-1.18.16-.75.16-1.53.16-1.91ZM164.59,139.57c0,1.42-.21,2.12-.31,2.48-.31,1.05-.67,1.51-.85,1.74-.54.69-1.03.91-1.28,1.02-.74.33-1.31.33-1.59.33-.85,0-1.35-.22-1.59-.33-.73-.33-1.09-.79-1.27-1.02-.53-.69-.74-1.39-.84-1.74-.3-1.05-.3-2-.3-2.48,0-1.42.2-2.12.3-2.47.3-1.05.66-1.5.84-1.73.53-.69,1.02-.91,1.27-1.02.74-.33,1.31-.33,1.59-.33.85,0,1.35.22,1.59.33.74.33,1.1.79,1.28,1.02.54.69.74,1.38.85,1.73.31,1.05.31,2,.31,2.47Z"/>
      <path class="cls-4" d="M168.1,138.03c.34-.07.55-.09.65-.1.31-.03.51-.03.6-.03.86,0,1.29.17,1.51.26.66.26.95.56,1.1.71.45.45.6.86.67,1.06.22.61.22,1.07.22,1.3,0,.87-.21,1.35-.31,1.59-.31.72-.67,1.06-.85,1.23-.54.51-1.05.7-1.3.8-.75.28-1.35.28-1.65.28-.52,0-.83-.07-.99-.11-.47-.11-.74-.23-.88-.29-.41-.18-.64-.34-.76-.42-.35-.24-.54-.41-.63-.5l.64-.87c.2-.28.42-.28.52-.28.2,0,.33.08.4.12.2.12.36.22.44.27.25.15.47.23.58.27.33.12.64.12.8.12.49,0,.73-.11.85-.16.36-.16.52-.35.6-.44.24-.28.31-.54.35-.67.12-.39.12-.68.12-.83,0-.85-.32-1.16-.48-1.31-.48-.46-1.1-.46-1.41-.46-.76,0-1.27.19-1.52.29l-1.28-.36.92-5.35h5.46v.87c0,.22-.04.34-.06.39-.06.18-.16.26-.21.31-.15.13-.3.18-.38.2-.23.07-.45.07-.56.07h-2.81l-.35,2.05Z"/>
      <path class="cls-4" d="M179.28,139.08h1.92c.61,0,.91-.09,1.07-.14.45-.14.65-.29.75-.38.3-.24.39-.47.44-.58.14-.34.14-.61.14-.75,0-.95-.38-1.24-.57-1.39-.57-.44-1.37-.44-1.77-.44h-1.97v3.67ZM179.28,140.11v3.74h2.32c.62,0,.92-.09,1.07-.14.45-.14.64-.32.73-.4.29-.26.38-.5.42-.61.14-.36.14-.64.14-.78,0-.83-.39-1.16-.59-1.32-.59-.48-1.38-.48-1.78-.48h-2.32ZM177.82,145.01v-10.75h3.43c.99,0,1.47.13,1.71.2.72.2,1.02.43,1.18.55.46.36.61.71.68.88.22.52.22.96.22,1.17,0,.4-.08.64-.12.77-.12.37-.29.58-.38.68-.25.32-.5.48-.63.56-.38.25-.72.35-.89.4,1.18.23,1.58.64,1.78.85.6.61.6,1.28.6,1.62,0,.68-.17,1.06-.25,1.24-.25.56-.57.83-.73.97-.48.4-.95.55-1.18.63-.7.22-1.3.22-1.6.22h-3.8Z"/>
      <path class="cls-4" d="M193.77,133.42h-1.01c-.09,0-.16-.02-.2-.03-.1-.03-.15-.06-.17-.07l-.98-.71c-.06-.03-.08-.05-.09-.06-.06.05-.08.06-.09.06l-.97.71c-.07.04-.14.06-.17.07-.11.03-.17.03-.2.03h-1.01l1.78-1.58h1.32l1.79,1.58ZM189.33,141.02h4.01l-1.69-4.37c-.17-.41-.27-.81-.32-1.01-.08.31-.14.48-.16.57-.08.26-.13.39-.15.45l-1.69,4.36ZM196.37,145.01h-1.12c-.2,0-.28-.07-.32-.1-.12-.1-.16-.2-.18-.25l-1.01-2.6h-4.82l-1.01,2.6c-.05.13-.14.2-.18.24-.13.1-.25.1-.32.1h-1.12l4.3-10.75h1.48l4.3,10.75Z"/>
      <path class="cls-4" d="M204.99,142.79c.12,0,.18.06.22.1l.57.62c-.66.77-1.29,1.05-1.6,1.19-.94.43-1.83.43-2.27.43-1.16,0-1.79-.27-2.11-.4-.95-.4-1.39-.88-1.61-1.12-.67-.72-.91-1.4-1.03-1.74-.37-1.01-.37-1.82-.37-2.23,0-1.22.26-1.89.39-2.23.39-1.01.87-1.5,1.11-1.74.71-.73,1.38-.99,1.71-1.13.99-.4,1.79-.4,2.19-.4,1.18,0,1.76.24,2.04.37.86.37,1.3.79,1.53,1l-.47.67c-.05.08-.1.11-.12.12-.07.05-.15.05-.19.05-.1,0-.17-.05-.21-.07-.11-.07-.21-.14-.26-.18-.15-.11-.28-.18-.35-.23-.2-.12-.39-.19-.48-.22-.28-.11-.52-.15-.64-.18-.37-.07-.69-.07-.85-.07-.86,0-1.34.2-1.58.3-.72.3-1.06.66-1.23.84-.52.55-.71,1.07-.81,1.34-.29.79-.29,1.44-.29,1.76,0,1.01.19,1.53.29,1.79.29.79.62,1.15.79,1.33.5.54.95.73,1.18.83.68.28,1.21.28,1.47.28.48,0,.73-.04.86-.06.38-.06.6-.14.71-.18.33-.12.51-.24.61-.3.28-.18.47-.35.57-.44.13-.11.21-.11.25-.11Z"/>
      <polygon class="cls-4" points="216.4 145.01 214.94 145.01 214.94 140.12 209.15 140.12 209.15 145.01 207.69 145.01 207.69 134.26 209.15 134.26 209.15 139.06 214.94 139.06 214.94 134.26 216.4 134.26 216.4 145.01"/>
      <polygon class="cls-4" points="225.65 134.26 225.65 135.45 220.49 135.45 220.49 139.02 224.67 139.02 224.67 140.16 220.49 140.16 220.49 143.83 225.65 143.83 225.65 145.01 219.03 145.01 219.03 134.26 225.65 134.26"/>
      <path class="cls-4" d="M233.25,135.94c-.07.11-.12.15-.14.17-.08.06-.15.06-.2.06-.13,0-.24-.08-.3-.13-.17-.13-.34-.23-.43-.28-.26-.15-.5-.24-.62-.28-.36-.13-.71-.13-.88-.13-.49,0-.74.09-.86.13-.38.13-.54.28-.63.36-.25.22-.34.43-.38.53-.13.3-.13.54-.13.66,0,.45.15.65.22.75.22.3.46.44.59.51.36.21.67.31.82.36.46.15.78.26.95.32.48.16.79.3.95.37.46.21.7.42.83.52.36.32.51.62.59.77.22.46.22.9.22,1.12,0,.71-.16,1.12-.24,1.32-.24.62-.55.92-.7,1.08-.46.46-.91.63-1.13.72-.67.26-1.24.26-1.53.26-1.04,0-1.61-.25-1.9-.38-.86-.38-1.26-.81-1.47-1.02l.42-.69c.06-.08.12-.12.15-.14.09-.06.16-.06.19-.06.16,0,.29.11.36.17.2.17.41.3.51.37.3.2.59.32.73.37.43.17.85.17,1.05.17.52,0,.79-.09.92-.14.4-.14.59-.32.69-.4.28-.26.38-.5.43-.62.15-.36.15-.66.15-.8,0-.49-.15-.7-.22-.8-.22-.31-.46-.45-.58-.52-.36-.21-.67-.31-.82-.36-.46-.15-.78-.25-.95-.3-.48-.15-.79-.29-.95-.36-.46-.2-.7-.42-.82-.52-.36-.32-.51-.65-.58-.81-.22-.48-.22-.96-.22-1.2,0-.57.15-.93.22-1.1.22-.53.5-.81.64-.95.42-.41.83-.58,1.04-.66.62-.25,1.15-.25,1.42-.25.9,0,1.4.19,1.64.28.74.29,1.11.65,1.3.83l-.35.69Z"/>
      <polygon class="cls-4" points="247.3 145.01 245.84 145.01 245.84 140.12 240.05 140.12 240.05 145.01 238.59 145.01 238.59 134.26 240.05 134.26 240.05 139.06 245.84 139.06 245.84 134.26 247.3 134.26 247.3 145.01"/>
      <rect class="cls-4" x="250.2" y="134.26" width="1.45" height="10.75"/>
      <path class="cls-4" d="M253.29,134.26h1.16c.2,0,.28.07.32.1.12.1.16.2.18.25l3.04,7.58c.1.26.16.46.19.55.09.3.14.52.17.62.07-.32.12-.52.15-.62.08-.3.15-.47.18-.55l3.02-7.58c.05-.13.14-.2.18-.24.13-.11.25-.11.31-.11h1.17l-4.38,10.75h-1.31l-4.38-10.75Z"/>
      <polygon class="cls-4" points="271.35 134.26 271.35 135.45 266.19 135.45 266.19 139.02 270.37 139.02 270.37 140.16 266.19 140.16 266.19 143.83 271.35 143.83 271.35 145.01 264.73 145.01 264.73 134.26 271.35 134.26"/>
      <path class="cls-4" d="M275.05,139.47h1.52c.64,0,.96-.1,1.12-.15.48-.15.7-.34.81-.43.33-.28.44-.54.49-.67.17-.39.17-.71.17-.86,0-.96-.42-1.29-.63-1.45-.63-.49-1.47-.49-1.89-.49h-1.59v4.06ZM275.05,140.53v4.48h-1.45v-10.75h3.04c1.02,0,1.52.14,1.76.21.74.21,1.07.47,1.23.6.48.39.64.76.72.94.23.55.23,1.01.23,1.23,0,.57-.12.9-.18,1.07-.18.49-.41.76-.52.89-.34.39-.67.58-.83.67-.49.28-.91.37-1.11.42.27.16.41.36.48.46l3.14,4.27h-1.29c-.4,0-.52-.21-.58-.31l-2.79-3.84c-.13-.18-.23-.23-.28-.26-.15-.08-.35-.08-.45-.08h-1.1Z"/>
      <path class="cls-4" d="M142.93,154.13c1.12,0,1.66.17,1.93.26.81.26,1.16.58,1.34.73.52.47.69.9.78,1.11.25.65.25,1.15.25,1.4,0,.8-.17,1.25-.26,1.47-.26.67-.62.99-.79,1.15-.53.48-1.07.66-1.34.75-.81.27-1.54.27-1.9.27h-1.42v3.74h-2.25v-10.88h3.67ZM142.93,159.54c1.06,0,1.39-.34,1.55-.51.49-.51.49-1.1.49-1.4,0-.41-.08-.63-.12-.74-.12-.33-.29-.49-.38-.57-.25-.24-.51-.32-.63-.36-.38-.13-.73-.13-.91-.13h-1.42v3.7h1.42Z"/>
      <path class="cls-4" d="M155.34,163.49v1.52h-6.1v-1.52h2.16v-5.95c0-.2,0-.33,0-.4,0-.2.02-.34.02-.41l-1.42,1.18c-.15.11-.24.13-.29.14-.14.03-.23.01-.27,0-.13-.03-.19-.07-.22-.09-.1-.06-.13-.11-.15-.13l-.65-.88,3.35-2.84h1.7v9.37h1.88Z"/>
      <path class="cls-4" d="M162.45,159.57c0-1.15-.11-1.65-.16-1.9-.16-.75-.34-1.04-.42-1.18-.26-.43-.49-.55-.6-.61-.34-.17-.58-.17-.7-.17-.36,0-.58.11-.69.17-.33.17-.51.46-.59.61-.26.43-.36.93-.42,1.18-.16.75-.16,1.52-.16,1.9,0,1.16.1,1.66.16,1.91.16.75.33,1.04.42,1.18.26.43.48.55.59.61.33.17.57.17.69.17.36,0,.59-.11.7-.17.34-.17.52-.46.6-.61.26-.43.37-.93.42-1.18.16-.75.16-1.53.16-1.91ZM164.59,159.57c0,1.42-.21,2.12-.31,2.48-.31,1.05-.67,1.51-.85,1.74-.54.69-1.03.91-1.28,1.02-.74.33-1.31.33-1.59.33-.85,0-1.35-.22-1.59-.33-.73-.33-1.09-.79-1.27-1.02-.53-.69-.74-1.39-.84-1.74-.3-1.05-.3-2-.3-2.48,0-1.42.2-2.12.3-2.47.3-1.05.66-1.5.84-1.73.53-.69,1.02-.91,1.27-1.02.74-.33,1.31-.33,1.59-.33.85,0,1.35.22,1.59.33.74.33,1.1.79,1.28,1.02.54.69.74,1.38.85,1.73.31,1.05.31,2,.31,2.47Z"/>
      <path class="cls-4" d="M173.15,154.13v.89c0,.39-.06.55-.09.63-.09.24-.14.35-.17.4l-3.96,8.27c-.15.28-.32.42-.41.49-.26.2-.54.2-.69.2h-1.5l4.06-8.08c.15-.28.25-.44.31-.52.16-.23.29-.37.35-.44h-5.02c-.18,0-.28-.1-.33-.14-.15-.14-.15-.26-.15-.32v-1.38h7.58Z"/>
      <path class="cls-4" d="M179.28,159.08h1.92c.61,0,.91-.09,1.07-.14.45-.14.65-.29.75-.38.3-.24.39-.47.44-.58.14-.34.14-.61.14-.75,0-.95-.38-1.24-.57-1.39-.57-.44-1.37-.44-1.77-.44h-1.97v3.67ZM179.28,160.11v3.74h2.32c.62,0,.92-.09,1.07-.14.45-.14.64-.32.73-.4.29-.26.38-.5.42-.61.14-.36.14-.64.14-.78,0-.83-.39-1.16-.59-1.32-.59-.48-1.38-.48-1.78-.48h-2.32ZM177.82,165.01v-10.75h3.43c.99,0,1.47.13,1.71.2.72.2,1.02.43,1.18.55.46.36.61.71.68.88.22.52.22.96.22,1.17,0,.4-.08.64-.12.77-.12.37-.29.58-.38.68-.25.32-.5.48-.63.56-.38.25-.72.35-.89.4,1.18.23,1.58.64,1.78.85.6.61.6,1.28.6,1.62,0,.68-.17,1.06-.25,1.24-.25.56-.57.83-.73.97-.48.4-.95.55-1.18.63-.7.22-1.3.22-1.6.22h-3.8Z"/>
      <path class="cls-4" d="M193.77,153.42h-1.01c-.09,0-.16-.02-.2-.03-.1-.03-.15-.06-.17-.07l-.98-.71c-.06-.03-.08-.05-.09-.06-.06.05-.08.06-.09.06l-.97.71c-.07.04-.14.06-.17.07-.11.03-.17.03-.2.03h-1.01l1.78-1.58h1.32l1.79,1.58ZM189.33,161.02h4.01l-1.69-4.37c-.17-.41-.27-.81-.32-1.01-.08.31-.14.48-.16.57-.08.26-.13.39-.15.45l-1.69,4.36ZM196.37,165.01h-1.12c-.2,0-.28-.07-.32-.1-.12-.1-.16-.2-.18-.25l-1.01-2.6h-4.82l-1.01,2.6c-.05.13-.14.2-.18.24-.13.1-.25.1-.32.1h-1.12l4.3-10.75h1.48l4.3,10.75Z"/>
      <path class="cls-4" d="M204.99,162.79c.12,0,.18.06.22.1l.57.62c-.66.77-1.29,1.05-1.6,1.19-.94.43-1.83.43-2.27.43-1.16,0-1.79-.27-2.11-.4-.95-.4-1.39-.88-1.61-1.12-.67-.72-.91-1.4-1.03-1.74-.37-1.01-.37-1.82-.37-2.23,0-1.22.26-1.89.39-2.23.39-1.01.87-1.5,1.11-1.74.71-.73,1.38-.99,1.71-1.13.99-.4,1.79-.4,2.19-.4,1.18,0,1.76.24,2.04.37.86.37,1.3.79,1.53,1l-.47.67c-.05.08-.1.11-.12.12-.07.05-.15.05-.19.05-.1,0-.17-.05-.21-.07-.11-.07-.21-.14-.26-.18-.15-.11-.28-.18-.35-.23-.2-.12-.39-.19-.48-.22-.28-.11-.52-.15-.64-.18-.37-.07-.69-.07-.85-.07-.86,0-1.34.2-1.58.3-.72.3-1.06.66-1.23.84-.52.55-.71,1.07-.81,1.34-.29.79-.29,1.44-.29,1.76,0,1.01.19,1.53.29,1.79.29.79.62,1.15.79,1.33.5.54.95.73,1.18.83.68.28,1.21.28,1.47.28.48,0,.73-.04.86-.06.38-.06.6-.14.71-.18.33-.12.51-.24.61-.3.28-.18.47-.35.57-.44.13-.11.21-.11.25-.11Z"/>
      <polygon class="cls-4" points="216.4 165.01 214.94 165.01 214.94 160.12 209.15 160.12 209.15 165.01 207.69 165.01 207.69 154.26 209.15 154.26 209.15 159.06 214.94 159.06 214.94 154.26 216.4 154.26 216.4 165.01"/>
      <polygon class="cls-4" points="225.65 154.26 225.65 155.45 220.49 155.45 220.49 159.02 224.67 159.02 224.67 160.16 220.49 160.16 220.49 163.83 225.65 163.83 225.65 165.01 219.03 165.01 219.03 154.26 225.65 154.26"/>
      <path class="cls-4" d="M233.25,155.94c-.07.11-.12.15-.14.17-.08.06-.15.06-.2.06-.13,0-.24-.08-.3-.13-.17-.13-.34-.23-.43-.28-.26-.15-.5-.24-.62-.28-.36-.13-.71-.13-.88-.13-.49,0-.74.09-.86.13-.38.13-.54.28-.63.36-.25.22-.34.43-.38.53-.13.3-.13.54-.13.66,0,.45.15.65.22.75.22.3.46.44.59.51.36.21.67.31.82.36.46.15.78.26.95.32.48.16.79.3.95.37.46.21.7.42.83.52.36.32.51.62.59.77.22.46.22.9.22,1.12,0,.71-.16,1.12-.24,1.32-.24.62-.55.92-.7,1.08-.46.46-.91.63-1.13.72-.67.26-1.24.26-1.53.26-1.04,0-1.61-.25-1.9-.38-.86-.38-1.26-.81-1.47-1.02l.42-.69c.06-.08.12-.12.15-.14.09-.06.16-.06.19-.06.16,0,.29.11.36.17.2.17.41.3.51.37.3.2.59.32.73.37.43.17.85.17,1.05.17.52,0,.79-.09.92-.14.4-.14.59-.32.69-.4.28-.26.38-.5.43-.62.15-.36.15-.66.15-.8,0-.49-.15-.7-.22-.8-.22-.31-.46-.45-.58-.52-.36-.21-.67-.31-.82-.36-.46-.15-.78-.25-.95-.3-.48-.15-.79-.29-.95-.36-.46-.2-.7-.42-.82-.52-.36-.32-.51-.65-.58-.81-.22-.48-.22-.96-.22-1.2,0-.57.15-.93.22-1.1.22-.53.5-.81.64-.95.42-.41.83-.58,1.04-.66.62-.25,1.15-.25,1.42-.25.9,0,1.4.19,1.64.28.74.29,1.11.65,1.3.83l-.35.69Z"/>
      <path class="cls-4" d="M241.18,151.65c.24,0,.32.03.36.05.12.05.22.15.27.2l1.58,1.52h-1.04c-.16,0-.22-.02-.25-.03-.09-.03-.17-.09-.22-.12l-2.21-1.63h1.51ZM240.39,161.02h4.01l-1.69-4.37c-.17-.41-.27-.81-.32-1.01-.08.31-.14.48-.16.57-.08.26-.13.39-.15.45l-1.69,4.36ZM247.43,165.01h-1.12c-.2,0-.28-.07-.32-.1-.12-.1-.16-.2-.18-.25l-1.01-2.6h-4.82l-1.01,2.6c-.05.13-.14.2-.18.24-.13.1-.25.1-.32.1h-1.12l4.3-10.75h1.48l4.3,10.75Z"/>
      <path class="cls-4" d="M253.14,159.08h1.92c.61,0,.92-.09,1.06-.14.45-.14.65-.29.75-.38.3-.24.39-.47.44-.58.14-.34.14-.61.14-.75,0-.95-.38-1.24-.57-1.39-.57-.44-1.37-.44-1.77-.44h-1.97v3.67ZM253.14,160.11v3.74h2.33c.62,0,.92-.09,1.07-.14.45-.14.64-.32.73-.4.29-.26.38-.5.42-.61.14-.36.14-.64.14-.78,0-.83-.39-1.16-.59-1.32-.59-.48-1.38-.48-1.78-.48h-2.32ZM251.68,165.01v-10.75h3.43c.99,0,1.47.13,1.71.2.72.2,1.02.43,1.18.55.46.36.61.71.68.88.22.52.22.96.22,1.17,0,.4-.08.64-.12.77-.12.37-.29.58-.38.68-.25.32-.5.48-.63.56-.38.25-.72.35-.89.4,1.18.23,1.58.64,1.78.85.6.61.6,1.28.6,1.62,0,.68-.17,1.06-.25,1.24-.25.56-.57.83-.73.97-.48.4-.95.55-1.18.63-.7.22-1.3.22-1.6.22h-3.8Z"/>
      <path class="cls-4" d="M263.19,161.02h4.01l-1.69-4.37c-.16-.41-.27-.81-.32-1.01-.08.31-.13.48-.16.57-.08.26-.13.39-.15.45l-1.69,4.36ZM270.23,165.01h-1.12c-.19,0-.28-.07-.31-.1-.12-.1-.16-.2-.18-.25l-1.01-2.6h-4.82l-1.01,2.6c-.05.13-.14.2-.18.24-.13.1-.25.1-.32.1h-1.12l4.3-10.75h1.48l4.3,10.75Z"/>
      <path class="cls-4" d="M273.18,159.47h1.52c.64,0,.96-.1,1.12-.15.48-.15.7-.34.81-.43.33-.28.44-.54.49-.67.17-.39.17-.71.17-.86,0-.96-.42-1.29-.63-1.45-.63-.49-1.47-.49-1.89-.49h-1.59v4.06ZM273.18,160.53v4.48h-1.45v-10.75h3.04c1.02,0,1.52.14,1.76.21.74.21,1.07.47,1.23.6.48.39.64.76.72.94.23.55.23,1.01.23,1.23,0,.57-.12.9-.18,1.07-.18.49-.41.76-.52.89-.34.39-.67.58-.83.67-.49.28-.91.37-1.11.42.27.16.41.36.48.46l3.14,4.27h-1.29c-.4,0-.52-.21-.58-.31l-2.79-3.84c-.13-.18-.23-.23-.28-.26-.15-.08-.35-.08-.45-.08h-1.1Z"/>
      <path class="cls-4" d="M282.84,159.47h1.52c.64,0,.96-.1,1.12-.15.48-.15.7-.34.81-.43.33-.28.44-.54.49-.67.16-.39.16-.71.16-.86,0-.96-.42-1.29-.63-1.45-.63-.49-1.47-.49-1.89-.49h-1.59v4.06ZM282.84,160.53v4.48h-1.45v-10.75h3.04c1.02,0,1.51.14,1.76.21.74.21,1.06.47,1.23.6.48.39.64.76.72.94.23.55.23,1.01.23,1.23,0,.57-.12.9-.18,1.07-.18.49-.41.76-.52.89-.34.39-.67.58-.83.67-.49.28-.91.37-1.11.42.27.16.41.36.48.46l3.14,4.27h-1.29c-.4,0-.52-.21-.59-.31l-2.79-3.84c-.13-.18-.23-.23-.28-.26-.15-.08-.35-.08-.45-.08h-1.1Z"/>
      <polygon class="cls-4" points="297.53 154.26 297.53 155.45 292.37 155.45 292.37 159.02 296.55 159.02 296.55 160.16 292.37 160.16 292.37 163.83 297.53 163.83 297.53 165.01 290.91 165.01 290.91 154.26 297.53 154.26"/>
      <path class="cls-4" d="M305.13,155.94c-.07.11-.12.15-.14.17-.07.06-.16.06-.19.06-.13,0-.24-.08-.3-.13-.17-.13-.34-.23-.43-.28-.26-.15-.5-.24-.62-.28-.36-.13-.71-.13-.88-.13-.49,0-.74.09-.86.13-.38.13-.54.28-.63.36-.25.22-.34.43-.38.53-.13.3-.13.54-.13.66,0,.45.15.65.22.75.22.3.46.44.59.51.36.21.67.31.82.36.46.15.78.26.95.32.48.16.79.3.94.37.46.21.7.42.82.52.36.32.51.62.59.77.22.46.22.9.22,1.12,0,.71-.16,1.12-.24,1.32-.24.62-.55.92-.7,1.08-.46.46-.91.63-1.13.72-.67.26-1.24.26-1.53.26-1.04,0-1.61-.25-1.9-.38-.86-.38-1.26-.81-1.47-1.02l.42-.69c.06-.08.12-.12.15-.14.09-.06.16-.06.19-.06.16,0,.29.11.36.17.2.17.41.3.51.37.3.2.59.32.73.37.43.17.85.17,1.05.17.52,0,.79-.09.92-.14.41-.14.59-.32.69-.4.28-.26.38-.5.43-.62.15-.36.15-.66.15-.8,0-.49-.15-.7-.22-.8-.22-.31-.46-.45-.58-.52-.36-.21-.67-.31-.82-.36-.46-.15-.78-.25-.94-.3-.48-.15-.79-.29-.94-.36-.46-.2-.7-.42-.82-.52-.36-.32-.51-.65-.58-.81-.22-.48-.22-.96-.22-1.2,0-.57.15-.93.22-1.1.22-.53.5-.81.64-.95.42-.41.83-.58,1.04-.66.62-.25,1.15-.25,1.42-.25.9,0,1.4.19,1.64.28.74.29,1.11.65,1.3.83l-.35.69Z"/>
      <path class="cls-4" d="M142.93,174.13c1.12,0,1.66.17,1.93.26.81.26,1.16.58,1.34.73.52.47.69.9.78,1.11.25.65.25,1.15.25,1.4,0,.8-.17,1.25-.26,1.47-.26.67-.62.99-.79,1.15-.53.48-1.07.66-1.34.75-.81.27-1.54.27-1.9.27h-1.42v3.74h-2.25v-10.88h3.67ZM142.93,179.54c1.06,0,1.39-.34,1.55-.51.49-.51.49-1.1.49-1.4,0-.41-.08-.63-.12-.74-.12-.33-.29-.49-.38-.57-.25-.24-.51-.32-.63-.36-.38-.13-.73-.13-.91-.13h-1.42v3.7h1.42Z"/>
      <path class="cls-4" d="M155.34,183.49v1.52h-6.1v-1.52h2.16v-5.95c0-.2,0-.33,0-.4,0-.2.02-.34.02-.41l-1.42,1.18c-.15.11-.24.13-.29.14-.14.03-.23.01-.27,0-.13-.03-.19-.07-.22-.09-.1-.06-.13-.11-.15-.13l-.65-.88,3.35-2.84h1.7v9.37h1.88Z"/>
      <path class="cls-4" d="M162.45,179.57c0-1.15-.11-1.65-.16-1.9-.16-.75-.34-1.04-.42-1.18-.26-.43-.49-.55-.6-.61-.34-.17-.58-.17-.7-.17-.36,0-.58.11-.69.17-.33.17-.51.46-.59.61-.26.43-.36.93-.42,1.18-.16.75-.16,1.52-.16,1.9,0,1.16.1,1.66.16,1.91.16.75.33,1.04.42,1.18.26.43.48.55.59.61.33.17.57.17.69.17.36,0,.59-.11.7-.17.34-.17.52-.46.6-.61.26-.43.37-.93.42-1.18.16-.75.16-1.53.16-1.91ZM164.59,179.57c0,1.42-.21,2.12-.31,2.48-.31,1.05-.67,1.51-.85,1.74-.54.69-1.03.91-1.28,1.02-.74.33-1.31.33-1.59.33-.85,0-1.35-.22-1.59-.33-.73-.33-1.09-.79-1.27-1.02-.53-.69-.74-1.39-.84-1.74-.3-1.05-.3-2-.3-2.48,0-1.42.2-2.12.3-2.47.3-1.05.66-1.5.84-1.73.53-.69,1.02-.91,1.27-1.02.74-.33,1.31-.33,1.59-.33.85,0,1.35.22,1.59.33.74.33,1.1.79,1.28,1.02.54.69.74,1.38.85,1.73.31,1.05.31,2,.31,2.47Z"/>
      <path class="cls-4" d="M169.73,180.83c.11-.14.18-.23.22-.28.1-.14.17-.22.21-.27-.36.21-.64.28-.78.32-.42.11-.74.11-.9.11-.55,0-.9-.13-1.08-.2-.54-.2-.82-.46-.96-.59-.43-.39-.6-.78-.69-.98-.26-.59-.26-1.12-.26-1.38,0-.73.18-1.16.27-1.38.27-.65.6-.97.77-1.13.49-.48.96-.67,1.19-.77.69-.28,1.26-.28,1.54-.28.85,0,1.31.18,1.54.27.68.27,1,.59,1.16.75.47.48.64.92.73,1.14.26.66.26,1.19.26,1.46,0,.52-.05.83-.08.98-.08.47-.19.75-.24.89-.16.42-.3.68-.38.82-.22.4-.41.65-.5.78l-2.42,3.46c-.15.2-.34.29-.43.33-.28.14-.52.14-.64.14h-1.9l3.41-4.18ZM167.55,177.42c0,.86.28,1.16.42,1.31.42.45.97.45,1.24.45.41,0,.63-.09.74-.13.33-.13.47-.29.54-.36.22-.23.29-.45.33-.55.12-.32.12-.58.12-.71,0-.43-.09-.64-.13-.75-.13-.33-.28-.48-.36-.55-.23-.22-.44-.3-.54-.34-.32-.12-.57-.12-.7-.12-.39,0-.59.09-.7.13-.31.13-.45.29-.53.37-.22.24-.29.45-.33.56-.12.32-.12.57-.12.7Z"/>
      <path class="cls-4" d="M176.58,174.26h1.16c.2,0,.28.07.32.1.12.1.16.2.18.25l3.04,7.58c.1.26.16.46.19.55.09.3.14.52.17.62.07-.32.12-.52.15-.62.08-.3.15-.47.18-.55l3.02-7.58c.05-.13.14-.2.18-.24.13-.11.25-.11.32-.11h1.17l-4.38,10.75h-1.31l-4.38-10.75Z"/>
      <path class="cls-4" d="M196.12,179.64c0-.99-.18-1.52-.27-1.78-.27-.79-.6-1.15-.76-1.33-.5-.54-.97-.74-1.2-.84-.71-.29-1.29-.29-1.58-.29-.86,0-1.33.2-1.57.29-.71.29-1.04.66-1.2.84-.5.54-.68,1.07-.77,1.33-.27.79-.27,1.45-.27,1.78,0,.99.18,1.51.27,1.77.27.78.6,1.15.77,1.33.5.54.97.74,1.2.83.71.29,1.28.29,1.57.29.87,0,1.34-.19,1.58-.29.7-.29,1.03-.65,1.2-.83.49-.54.67-1.07.76-1.33.27-.78.27-1.44.27-1.77ZM197.61,179.64c0,1.21-.26,1.88-.38,2.22-.38,1.01-.85,1.49-1.08,1.74-.7.73-1.35.99-1.68,1.13-.98.4-1.77.4-2.16.4-1.18,0-1.84-.27-2.16-.4-.98-.4-1.44-.89-1.67-1.13-.7-.73-.95-1.4-1.08-1.74-.38-1.01-.38-1.81-.38-2.22,0-1.21.26-1.88.38-2.22.38-1.01.85-1.5,1.08-1.74.7-.73,1.35-1,1.67-1.14.97-.4,1.76-.4,2.16-.4,1.18,0,1.84.27,2.16.4.98.41,1.44.89,1.68,1.14.7.73.95,1.4,1.08,1.74.38,1.01.38,1.81.38,2.22Z"/>
      <polygon class="cls-4" points="201.06 183.79 205.71 183.79 205.71 185.01 199.6 185.01 199.6 174.26 201.06 174.26 201.06 183.79"/>
      <polygon class="cls-4" points="213.93 174.26 213.93 175.45 208.78 175.45 208.78 179.02 212.95 179.02 212.95 180.16 208.78 180.16 208.78 183.83 213.93 183.83 213.93 185.01 207.31 185.01 207.31 174.26 213.93 174.26"/>
      <polygon class="cls-4" points="223.35 174.26 223.35 175.49 219.88 175.49 219.88 185.01 218.42 185.01 218.42 175.49 214.93 175.49 214.93 174.26 223.35 174.26"/>
      <path class="cls-4" d="M230.38,175.94c-.07.11-.12.15-.14.17-.08.06-.15.06-.2.06-.13,0-.24-.08-.3-.13-.17-.13-.34-.23-.43-.28-.26-.15-.5-.24-.62-.28-.36-.13-.71-.13-.88-.13-.49,0-.74.09-.86.13-.38.13-.54.28-.63.36-.25.22-.34.43-.38.53-.13.3-.13.54-.13.66,0,.45.15.65.22.75.22.3.46.44.58.51.36.21.67.31.83.36.46.15.78.26.95.32.48.16.79.3.95.37.46.21.7.42.83.52.36.32.51.62.58.77.22.46.22.9.22,1.12,0,.71-.16,1.12-.24,1.32-.24.62-.55.92-.7,1.08-.46.46-.91.63-1.13.72-.67.26-1.24.26-1.53.26-1.04,0-1.61-.25-1.9-.38-.86-.38-1.26-.81-1.47-1.02l.42-.69c.06-.08.12-.12.15-.14.09-.06.16-.06.19-.06.16,0,.29.11.36.17.2.17.4.3.51.37.3.2.59.32.74.37.43.17.85.17,1.05.17.52,0,.79-.09.92-.14.41-.14.59-.32.69-.4.28-.26.38-.5.43-.62.15-.36.15-.66.15-.8,0-.49-.15-.7-.22-.8-.22-.31-.46-.45-.58-.52-.36-.21-.67-.31-.82-.36-.46-.15-.78-.25-.95-.3-.48-.15-.79-.29-.95-.36-.46-.2-.7-.42-.82-.52-.36-.32-.51-.65-.58-.81-.22-.48-.22-.96-.22-1.2,0-.57.15-.93.22-1.1.22-.53.5-.81.64-.95.42-.41.83-.58,1.04-.66.62-.25,1.15-.25,1.42-.25.9,0,1.4.19,1.64.28.74.29,1.11.65,1.3.83l-.35.69Z"/>
      <rect class="cls-1" x="331.3" y="94.5" width="102.75" height="10.77"/>
      <rect class="cls-2" x="331.3" y="114.31" width="102.75" height="10.77"/>
      <rect class="cls-6" x="331.3" y="134.98" width="102.75" height="10.77"/>
      <rect class="cls-7" x="331.3" y="154.89" width="102.75" height="10.77"/>
      <rect class="cls-8" x="331.3" y="173.4" width="102.75" height="10.77"/>
      <g>
        <path class="cls-1" d="M124.76,106.66c3.74,0,6.77-3.03,6.77-6.78s-3.03-6.78-6.77-6.78-6.77,3.03-6.77,6.78,3.03,6.78,6.77,6.78"/>
        <path class="cls-2" d="M124.76,126.47c3.74,0,6.77-3.03,6.77-6.78s-3.03-6.78-6.77-6.78-6.77,3.03-6.77,6.78,3.03,6.78,6.77,6.78"/>
        <path class="cls-6" d="M124.76,145.75c3.74,0,6.77-3.03,6.77-6.78s-3.03-6.78-6.77-6.78-6.77,3.03-6.77,6.78,3.03,6.78,6.77,6.78"/>
        <path class="cls-7" d="M124.76,165.66c3.74,0,6.77-3.03,6.77-6.78s-3.03-6.78-6.77-6.78-6.77,3.03-6.77,6.78,3.03,6.78,6.77,6.78"/>
        <path class="cls-8" d="M124.76,185.56c3.74,0,6.77-3.03,6.77-6.78s-3.03-6.78-6.77-6.78-6.77,3.03-6.77,6.78,3.03,6.78,6.77,6.78"/>
      </g>
    </g>
  </g>
</svg>
