<?xml version="1.0" encoding="UTF-8"?>
<svg xmlns="http://www.w3.org/2000/svg" id="Calque_2" data-name="Calque 2" viewBox="0 0 45 489.34" preserveAspectRatio="none" width="45" height="489.34">
  <defs>
    <style>
      .cls-1 {
        fill: #fff;
      }

      .cls-2 {
        fill: #ee7c3b;
      }

      .cls-3 {
        fill: #3a6472;
      }
    </style>
  </defs>
  <g id="Calque_1-2" data-name="Calque 1">
    <g>
      <rect class="cls-3" y="153.35" width="45" height="335.99"/>
      <rect class="cls-2" y="0" width="45" height="153.42"/>
      <path class="cls-1" d="M27.44,420.94c0-.22.11-.33.17-.38l1.15-1.06c1.09.88,1.48,1.74,1.67,2.17.58,1.28.58,2.48.58,3.08,0,1.61-.37,2.47-.55,2.89-.55,1.29-1.2,1.89-1.53,2.2-.98.91-1.89,1.23-2.34,1.39-1.36.49-2.43.49-2.97.49-1.63,0-2.53-.36-2.98-.54-1.35-.54-2.01-1.19-2.34-1.52-.98-.98-1.34-1.89-1.52-2.35-.55-1.37-.55-2.46-.55-3.02,0-1.61.34-2.41.52-2.82.52-1.2,1.08-1.78,1.36-2.07l1.25.9c.12.08.18.16.21.2.09.12.09.27.09.35,0,.23-.12.39-.18.47-.18.24-.32.49-.39.61-.21.37-.33.75-.39.94-.18.56-.18,1.14-.18,1.43,0,1.02.24,1.59.35,1.88.35.85.79,1.26,1.02,1.47.66.61,1.29.85,1.6.96.94.35,1.73.35,2.12.35,1.22,0,1.85-.23,2.17-.35.95-.35,1.38-.74,1.6-.93.65-.59.88-1.12.99-1.39.34-.8.34-1.41.34-1.72,0-.55-.04-.85-.06-.99-.06-.45-.15-.7-.19-.82-.13-.38-.27-.6-.33-.71-.21-.33-.41-.55-.51-.67-.09-.1-.13-.17-.15-.21-.06-.11-.06-.2-.06-.24Z"/>
      <path class="cls-1" d="M25.39,408.15v-4.61l-4.81,1.76c-.32.12-.61.22-.76.27-.43.14-.78.24-.94.29.51.14.8.23.95.27.44.13.66.22.77.26l4.79,1.76ZM30.85,398.79v2.08c0,.35-.12.5-.18.57-.17.23-.35.29-.43.33l-2.95,1.08v5.99l2.95,1.08c.23.08.36.24.42.32.19.24.19.46.19.58v2.09l-14.46-5.68v-2.75l14.46-5.68Z"/>
      <polygon class="cls-1" points="16.39 382.59 18.6 382.59 18.6 386.94 30.85 386.94 30.85 389.63 18.6 389.63 18.6 394 16.39 394 16.39 382.59"/>
      <path class="cls-1" d="M25.39,373.01v-4.61l-4.81,1.76c-.32.12-.61.22-.76.27-.43.14-.78.24-.94.29.51.14.8.23.95.27.44.13.66.22.77.26l4.79,1.76ZM30.85,363.65v2.08c0,.35-.12.5-.18.57-.17.23-.35.29-.43.33l-2.95,1.08v5.99l2.95,1.08c.23.08.36.24.42.32.19.24.19.46.19.58v2.09l-14.46-5.68v-2.75l14.46-5.68Z"/>
      <polygon class="cls-1" points="28.63 353.47 28.63 347.68 30.85 347.68 30.85 356.16 16.39 356.16 16.39 353.47 28.63 353.47"/>
      <path class="cls-1" d="M23.62,329.53c-1.19,0-1.82.21-2.14.32-.95.32-1.39.71-1.6.91-.66.59-.89,1.15-1.01,1.43-.35.84-.35,1.55-.35,1.9,0,1.06.23,1.63.35,1.91.35.85.79,1.25,1.01,1.44.66.6,1.29.81,1.6.92.94.32,1.74.32,2.14.32,1.19,0,1.82-.21,2.14-.32.94-.32,1.38-.72,1.6-.92.66-.6.89-1.16,1.01-1.44.35-.85.35-1.56.35-1.91,0-1.06-.23-1.62-.35-1.9-.35-.85-.79-1.24-1.01-1.43-.66-.59-1.29-.8-1.6-.91-.95-.32-1.74-.32-2.14-.32ZM23.62,326.77c1.59,0,2.49.35,2.94.53,1.35.53,2.02,1.17,2.35,1.49.99.96,1.36,1.86,1.54,2.31.56,1.35.56,2.44.56,2.99,0,1.64-.37,2.54-.56,3-.55,1.35-1.21,2-1.54,2.32-.99.96-1.89,1.32-2.35,1.49-1.35.53-2.41.53-2.94.53-1.59,0-2.49-.35-2.95-.53-1.35-.53-2.01-1.17-2.34-1.49-.99-.96-1.36-1.87-1.54-2.32-.56-1.36-.56-2.45-.56-3,0-1.64.37-2.54.56-2.99.56-1.35,1.22-1.99,1.55-2.31.98-.96,1.89-1.31,2.34-1.49,1.36-.53,2.42-.53,2.95-.53Z"/>
      <path class="cls-1" d="M28.87,312.02c0-.91-.11-1.36-.17-1.59-.17-.67-.36-1.08-.45-1.28h-2.63v1.81c0,.26-.1.36-.15.41-.15.15-.29.15-.35.15h-1.52v-4.81h5.85c.4.55.6.95.7,1.14.29.6.42,1.05.48,1.27.19.67.25,1.19.28,1.45.1.77.1,1.36.1,1.66,0,1.58-.37,2.47-.55,2.91-.55,1.33-1.2,1.98-1.53,2.3-.98.97-1.89,1.33-2.34,1.52-1.36.54-2.43.54-2.97.54-1.63,0-2.54-.35-2.99-.53-1.36-.53-2.01-1.18-2.34-1.51-.98-.97-1.34-1.9-1.52-2.36-.54-1.39-.54-2.54-.54-3.12,0-1.77.35-2.63.53-3.07.53-1.29,1.08-1.89,1.36-2.2l1.22.78c.37.23.37.48.37.61,0,.24-.11.41-.16.49-.19.32-.32.54-.38.66-.19.33-.28.6-.33.74-.14.41-.2.74-.23.91-.09.51-.09.95-.09,1.17,0,1.07.24,1.65.36,1.93.36.86.81,1.27,1.03,1.47.67.61,1.3.83,1.61.94.94.33,1.71.33,2.1.33,1.25,0,1.9-.23,2.22-.35.97-.35,1.42-.77,1.65-.98.67-.63.91-1.21,1.03-1.5.35-.87.35-1.56.35-1.9Z"/>
      <path class="cls-1" d="M28.68,292.38c0-.78-.17-1.19-.26-1.4-.26-.61-.57-.9-.73-1.04-.47-.42-.92-.58-1.14-.65-.67-.22-1.22-.22-1.5-.22h-8.66v-2.69h8.66c1.29,0,2.02.28,2.39.41,1.1.42,1.62.93,1.89,1.2.8.78,1.09,1.52,1.24,1.89.45,1.11.45,2.04.45,2.5,0,1.39-.3,2.13-.45,2.5-.44,1.11-.97,1.63-1.24,1.89-.79.77-1.53,1.05-1.89,1.19-1.09.41-1.95.41-2.39.41h-8.66v-2.69h8.65c.83,0,1.28-.15,1.5-.22.67-.23.99-.51,1.15-.65.48-.42.65-.83.73-1.03.26-.62.26-1.14.26-1.4Z"/>
      <polygon class="cls-1" points="16.39 268.52 18.53 268.52 18.53 274.93 22.54 274.93 22.54 269.88 24.61 269.88 24.61 274.93 28.7 274.93 28.7 268.52 30.85 268.52 30.85 277.64 16.39 277.64 16.39 268.52"/>
      <path class="cls-1" d="M16.23,235.94c0-1,.2-1.55.3-1.83.29-.83.65-1.22.83-1.42.54-.59,1.05-.81,1.3-.92.76-.33,1.38-.33,1.69-.33.8,0,1.25.16,1.48.23.68.23,1.09.5,1.3.63.62.4,1.01.75,1.2.92.58.53.98.92,1.18,1.11l3.33,3.26c-.14-.48-.19-.79-.21-.94-.08-.46-.08-.74-.08-.88v-3.71c0-.4.15-.56.23-.64.22-.23.47-.23.59-.23h1.48v9.92h-.82c-.25,0-.43-.07-.52-.1-.27-.11-.42-.26-.5-.34l-4.4-4.39c-.56-.55-.9-.84-1.07-.98-.51-.43-.84-.63-1.01-.73-.5-.3-.84-.4-1.02-.45-.52-.16-.9-.16-1.09-.16-.52,0-.78.1-.91.15-.4.15-.58.34-.67.43-.27.28-.36.54-.41.66-.14.39-.14.71-.14.87,0,.89.3,1.27.45,1.46.45.58.96.73,1.21.8.38.11.49.26.55.33.16.22.16.45.16.56,0,.15-.02.27-.03.33l-.23,1.3c-1.04-.15-1.56-.44-1.82-.58-.79-.43-1.14-.86-1.31-1.08-.53-.64-.7-1.2-.79-1.48-.27-.84-.27-1.47-.27-1.79Z"/>
      <path class="cls-1" d="M23.62,215.81c-1.57,0-2.26.15-2.6.23-1.03.23-1.44.49-1.64.61-.61.39-.77.72-.85.89-.24.5-.24.86-.24,1.04,0,.53.16.86.24,1.02.24.49.65.75.85.88.61.38,1.3.53,1.64.61,1.03.22,2.08.22,2.6.22,1.57,0,2.26-.15,2.6-.22,1.03-.23,1.44-.48,1.64-.61.61-.38.77-.71.85-.88.24-.49.24-.85.24-1.02,0-.54-.16-.87-.24-1.04-.24-.5-.65-.76-.85-.89-.61-.38-1.3-.54-1.64-.61-1.03-.23-2.08-.23-2.6-.23ZM23.62,213.26c1.89,0,2.82.27,3.29.4,1.39.41,2,.88,2.3,1.12.91.72,1.21,1.36,1.35,1.69.45.98.45,1.73.45,2.11,0,1.13-.3,1.77-.45,2.09-.44.97-1.05,1.44-1.35,1.67-.91.71-1.84.98-2.3,1.11-1.4.4-2.66.4-3.29.4-1.9,0-2.83-.27-3.29-.4-1.39-.4-2-.87-2.3-1.11-.91-.71-1.21-1.35-1.36-1.67-.44-.96-.44-1.72-.44-2.09,0-1.13.3-1.78.44-2.11.45-.97,1.05-1.45,1.36-1.69.91-.71,1.84-.98,2.3-1.12,1.39-.4,2.66-.4,3.29-.4Z"/>
      <path class="cls-1" d="M16.23,200.74c0-1,.2-1.55.3-1.83.29-.83.65-1.22.83-1.42.54-.59,1.05-.81,1.3-.92.76-.33,1.38-.33,1.69-.33.8,0,1.25.16,1.48.23.68.24,1.09.5,1.3.63.62.4,1.01.75,1.2.92.58.53.98.92,1.18,1.11l3.33,3.26c-.14-.48-.19-.79-.21-.94-.08-.46-.08-.74-.08-.88v-3.71c0-.4.15-.56.23-.64.22-.23.47-.23.59-.23h1.48v9.92h-.82c-.25,0-.43-.07-.52-.1-.27-.1-.42-.26-.5-.34l-4.4-4.39c-.56-.55-.9-.84-1.07-.98-.51-.43-.84-.63-1.01-.73-.5-.29-.84-.4-1.02-.45-.52-.15-.9-.15-1.09-.15-.52,0-.78.1-.91.15-.4.15-.58.34-.67.43-.27.28-.36.54-.41.67-.14.38-.14.7-.14.86,0,.89.3,1.27.45,1.46.45.58.96.73,1.21.8.38.11.49.26.55.33.16.22.16.45.16.56,0,.15-.02.27-.03.33l-.23,1.3c-1.04-.15-1.56-.44-1.82-.58-.79-.43-1.14-.86-1.31-1.07-.53-.65-.7-1.2-.79-1.48-.27-.83-.27-1.47-.27-1.79Z"/>
      <path class="cls-1" d="M17.44,179.27c.53,0,.75.22.86.34.33.34.33.85.33,1.11v3.98l3.02.52c-.2-.98-.2-1.52-.2-1.79,0-1.14.23-1.72.34-2.01.34-.86.74-1.26.94-1.46.6-.59,1.14-.79,1.41-.89.8-.3,1.42-.3,1.73-.3,1.15,0,1.78.27,2.1.41.95.4,1.4.88,1.62,1.12.68.72.92,1.38,1.05,1.7.37.99.37,1.76.37,2.15,0,.68-.09,1.09-.14,1.29-.14.61-.3.97-.38,1.15-.23.53-.44.84-.54.99-.3.46-.53.7-.65.82l-1.05-.76c-.34-.24-.34-.51-.34-.64,0-.25.11-.42.16-.51.16-.26.29-.48.35-.6.19-.34.3-.64.35-.79.16-.45.16-.88.16-1.09,0-.68-.15-1.03-.22-1.2-.22-.52-.48-.75-.61-.86-.4-.34-.76-.46-.94-.52-.54-.18-.97-.18-1.18-.18-1.18,0-1.62.46-1.84.68-.67.68-.67,1.57-.67,2.02,0,1.05.25,1.76.38,2.11l-.44,1.54-7.02-1.2v-7.14h1.05Z"/>
    </g>
  </g>
</svg>
