<?xml version="1.0" encoding="UTF-8"?>
<svg xmlns="http://www.w3.org/2000/svg" id="Calque_2" data-name="Calque 2" viewBox="0 0 306 153" preserveAspectRatio="none" width="306" height="153">
  <defs>
    <style>
      .cls-1 {
        fill: #41bfef;
      }

      .cls-2 {
        fill: #fff;
      }

      .cls-3 {
        fill: #013851;
      }
    </style>
  </defs>
  <g id="Calque_1-2" data-name="Calque 1">
    <g>
      <rect class="cls-3" x="0" width="306" height="153"/>
      <rect class="cls-2" x="38.97" y="92.21" width="3.02" height="28.52"/>
      <polygon class="cls-2" points="49.81 92.21 52.64 92.21 69.48 115.07 69.48 92.21 72.42 92.21 72.42 120.73 70.01 120.73 52.75 97.35 52.75 120.73 49.81 120.73 49.81 92.21"/>
      <polygon class="cls-2" points="79.98 92.21 82.81 92.21 99.65 115.07 99.65 92.21 102.59 92.21 102.59 120.73 100.18 120.73 82.92 97.35 82.92 120.73 79.98 120.73 79.98 92.21"/>
      <g>
        <path class="cls-2" d="M108.97,106.55v-.08c0-7.86,5.54-14.75,13.67-14.75s13.6,6.8,13.6,14.67v.08c0,7.86-5.54,14.75-13.67,14.75s-13.6-6.8-13.6-14.67M133.1,106.55v-.08c0-6.48-4.43-11.77-10.54-11.77s-10.46,5.21-10.46,11.69v.08c0,6.48,4.43,11.78,10.54,11.78s10.46-5.22,10.46-11.69"/>
        <polygon class="cls-2" points="176.58 95.59 167.61 95.59 167.61 92.62 188.61 92.62 188.61 95.59 179.64 95.59 179.64 121.14 176.58 121.14 176.58 95.59"/>
        <polygon class="cls-2" points="202.63 109.85 191.52 92.62 195.18 92.62 204.19 106.88 213.28 92.62 216.79 92.62 205.68 109.81 205.68 121.14 202.63 121.14 202.63 109.85"/>
        <path class="cls-2" d="M221.61,92.62h11.49c3.29,0,5.92,1.06,7.6,2.85,1.3,1.39,2.06,3.38,2.06,5.62v.08c0,4.73-3.05,7.5-7.26,8.31l8.21,11.65h-3.71l-7.75-11.08h-7.64v11.08h-3.02v-28.52ZM232.83,107.17c4.01,0,6.88-2.2,6.88-5.87v-.08c0-3.51-2.52-5.62-6.84-5.62h-8.25v11.57h8.21Z"/>
        <polygon class="cls-2" points="249.22 92.62 268.54 92.62 268.54 95.55 252.23 95.55 252.23 105.29 266.82 105.29 266.82 108.22 252.23 108.22 252.23 118.21 268.73 118.21 268.73 121.14 249.22 121.14 249.22 92.62"/>
        <path class="cls-1" d="M142.45,117.02l1.88-2.37c2.8,2.7,5.48,4.05,9.2,4.05s5.98-2.04,5.98-4.87v-.08c0-2.66-1.34-4.17-6.98-5.44-6.17-1.43-9.01-3.56-9.01-8.26v-.08c0-4.5,3.72-7.81,8.82-7.81,3.91,0,6.71,1.19,9.43,3.52l-1.76,2.5c-2.49-2.17-4.99-3.11-7.74-3.11-3.49,0-5.71,2.04-5.71,4.62v.08c0,2.7,1.38,4.21,7.28,5.56,5.98,1.39,8.74,3.72,8.74,8.1v.08c0,4.91-3.83,8.1-9.16,8.1-4.26,0-7.74-1.51-10.97-4.58"/>
        <path class="cls-1" d="M260.14,68.05v-6.78h7.13v-.95h-7.13v-6.58h8.57v-.98h-9.75v16.27h9.75l.02-.98h-8.59ZM248.53,52.75v13.65c0,.21.01.43.04.66l-10.54-14.09c-.07-.09-.13-.15-.19-.18-.06-.03-.14-.04-.25-.04h-.59v16.27h1.03v-13.69c0-.21-.01-.42-.03-.66l10.57,14.12c.06.09.12.14.19.18.07.04.15.05.25.05h.55v-16.27h-1.02ZM227.59,52.75h-1.18v16.27h1.18v-16.27ZM217.88,66.32s-.08.04-.12.08c-.32.3-.65.56-.98.78-.33.22-.69.41-1.07.56-.38.15-.8.27-1.26.35-.46.08-.98.11-1.56.11-.92,0-1.78-.17-2.57-.5-.79-.33-1.48-.81-2.06-1.44-.58-.62-1.04-1.39-1.37-2.29-.33-.9-.5-1.93-.5-3.08s.17-2.14.49-3.05c.33-.9.79-1.67,1.37-2.3.59-.63,1.29-1.11,2.1-1.45.82-.34,1.71-.51,2.7-.51.77,0,1.42.08,1.97.25.55.17,1.01.35,1.38.56.37.2.65.39.86.56.21.17.36.25.45.25.13,0,.23-.05.29-.14l.36-.52c-.71-.63-1.49-1.12-2.35-1.46-.86-.35-1.84-.52-2.96-.52s-2.23.2-3.2.6c-.97.4-1.79.97-2.48,1.7-.69.73-1.23,1.61-1.61,2.63-.38,1.02-.57,2.15-.57,3.38s.19,2.4.56,3.43c.37,1.03.9,1.9,1.57,2.63.67.73,1.48,1.28,2.42,1.68.94.39,1.97.59,3.1.59.67,0,1.29-.06,1.86-.17s1.08-.27,1.55-.47c.47-.2.9-.45,1.3-.74.39-.29.76-.61,1.1-.97l-.46-.49c-.05-.05-.12-.08-.2-.08-.04,0-.08.01-.12.03M197.53,54.2c-.55-.55-1.16-.96-1.83-1.23-.67-.27-1.43-.4-2.27-.4-.75,0-1.42.12-2.01.35-.59.23-1.08.54-1.48.93-.4.39-.7.83-.91,1.34-.21.51-.31,1.03-.31,1.58,0,.7.12,1.28.35,1.74.23.46.54.85.92,1.16.38.31.82.57,1.31.77.49.2.99.38,1.5.54.51.16,1.01.33,1.5.49.49.17.92.38,1.3.63.38.25.69.56.93.93.23.37.35.85.35,1.42,0,.53-.09,1.02-.28,1.49-.18.46-.45.86-.8,1.2-.35.34-.78.6-1.28.8-.51.2-1.08.29-1.73.29-.47,0-.88-.05-1.25-.14-.37-.09-.69-.21-.98-.34-.28-.13-.53-.28-.75-.44-.21-.16-.4-.3-.55-.44-.15-.13-.28-.25-.39-.34-.11-.09-.2-.14-.26-.14-.12,0-.23.06-.32.17l-.32.51c.58.66,1.26,1.18,2.04,1.56.77.38,1.7.57,2.77.57.83,0,1.56-.13,2.21-.38.64-.26,1.19-.61,1.63-1.05.44-.45.78-.97,1.02-1.57.23-.6.35-1.24.35-1.93s-.12-1.22-.35-1.67c-.23-.45-.54-.83-.93-1.13-.38-.31-.82-.56-1.31-.76-.49-.2-.99-.39-1.5-.56-.51-.17-1.01-.34-1.5-.51-.49-.17-.92-.39-1.31-.64s-.69-.56-.93-.92c-.23-.36-.35-.82-.35-1.37,0-.42.08-.82.24-1.21.16-.38.39-.72.69-1.01.3-.29.68-.52,1.13-.69.45-.17.97-.25,1.56-.25s1.09.07,1.49.22c.4.15.74.3,1.01.48.27.17.48.33.64.47.16.14.29.21.38.21.13,0,.23-.07.3-.2l.28-.53ZM179.95,52.75h-1.18v16.27h1.18v-16.27ZM160.87,52.75v16.27h1.18v-6.55h3.02c.89,0,1.69-.12,2.4-.36.71-.24,1.32-.58,1.82-1.01.5-.43.88-.95,1.15-1.55.27-.6.4-1.25.4-1.97,0-1.55-.49-2.74-1.45-3.58-.97-.84-2.41-1.25-4.32-1.25h-4.21ZM162.06,61.53v-7.84h3.02c1.52,0,2.67.34,3.44,1.01.77.67,1.15,1.64,1.15,2.89,0,.57-.11,1.09-.32,1.57-.21.48-.51.89-.91,1.25-.4.35-.88.63-1.44.83-.57.2-1.21.3-1.92.3h-3.02ZM133.28,68.05v-6.78h7.13v-.95h-7.13v-6.58h8.57v-.98h-9.75v16.27h9.75l.02-.98h-8.59ZM121.88,52.75c-.11,0-.19.01-.26.03-.07.02-.13.08-.19.18l-6.38,11.3c-.06.11-.12.22-.17.34-.05.12-.1.24-.15.36-.08-.25-.18-.48-.3-.69l-6.57-11.31c-.06-.1-.12-.16-.18-.18-.06-.02-.15-.03-.25-.03h-.82v16.27h1.03v-13.87c0-.21-.01-.43-.03-.66l6.58,11.4c.11.2.26.3.46.3h.18c.2,0,.35-.1.46-.3l6.4-11.37c-.02.22-.04.43-.04.63v13.87h1.02v-16.27h-.81ZM96.4,52.75c-.11,0-.19.01-.26.03s-.13.08-.19.18l-6.38,11.3c-.06.11-.12.22-.17.34-.05.12-.1.24-.15.36-.08-.25-.18-.48-.3-.69l-6.57-11.31c-.06-.1-.12-.16-.18-.18-.06-.02-.15-.03-.25-.03h-.82v16.27h1.04v-13.87c0-.21-.01-.43-.03-.66l6.58,11.4c.11.2.26.3.46.3h.18c.2,0,.35-.1.46-.3l6.41-11.37c-.02.22-.04.43-.04.63v13.87h1.02v-16.27h-.81ZM67.17,52.75h-1.16l-6.66,16.27h.9c.11,0,.2-.03.28-.09.08-.06.13-.13.16-.22l1.91-4.73h7.99l1.91,4.73c.04.09.09.17.16.22.07.06.16.09.26.09h.91l-6.66-16.27ZM62.95,63.12l3.31-8.21c.06-.14.12-.29.17-.45.05-.16.1-.34.15-.52.11.38.22.7.33.97l3.31,8.22h-7.28ZM48.53,61.64v.64c0,.07.03.13.09.18.06.05.13.08.21.08h3.12v4.38c-.36.21-.72.39-1.06.56-.35.17-.71.3-1.08.41-.37.11-.76.2-1.17.26-.41.06-.86.09-1.34.09-1.1,0-2.1-.17-2.98-.51-.88-.34-1.63-.82-2.25-1.46-.62-.64-1.09-1.41-1.41-2.32-.33-.91-.49-1.94-.49-3.08s.16-2.14.49-3.05c.32-.9.79-1.67,1.39-2.3.6-.63,1.33-1.11,2.18-1.45.85-.34,1.81-.51,2.87-.51.8,0,1.47.07,2.03.22s1.02.31,1.4.49c.38.18.67.36.89.53.21.17.38.28.49.32.22.1.38.06.48-.13l.32-.51c-.36-.31-.74-.59-1.13-.83-.39-.24-.81-.44-1.26-.61-.45-.16-.94-.29-1.47-.37-.53-.08-1.1-.13-1.72-.13-1.26,0-2.39.2-3.39.59-1,.39-1.86.95-2.57,1.68-.71.72-1.25,1.6-1.63,2.62-.38,1.02-.57,2.16-.57,3.42s.19,2.4.58,3.43c.39,1.03.94,1.9,1.67,2.63.72.73,1.6,1.28,2.63,1.68,1.03.39,2.18.59,3.47.59,1.15,0,2.19-.15,3.1-.46.92-.31,1.79-.75,2.6-1.32v-5.78h-4.48Z"/>
      </g>
    </g>
  </g>
</svg>
