<?xml version="1.0" encoding="UTF-8"?>
<svg xmlns="http://www.w3.org/2000/svg" id="Calque_2" data-name="Calque 2" viewBox="0 0 216.36 20.19" preserveAspectRatio="none" width="216.36" height="20.19">
  <defs>
    <style>
      .cls-1 {
        fill: #fff;
      }

      .cls-2 {
        fill: #ee7c3b;
      }
    </style>
  </defs>
  <g id="Calque_1-2" data-name="Calque 1">
    <g>
      <rect class="cls-2" y="0" width="216.36" height="20.19"/>
      <path class="cls-1" d="M16.96,10.55c0-.65-.12-1-.17-1.17-.17-.52-.39-.76-.5-.88-.32-.36-.63-.49-.79-.56-.46-.19-.85-.19-1.05-.19-.58,0-.89.13-1.05.19-.47.19-.69.43-.79.56-.33.36-.44.71-.5.88-.18.52-.18.96-.18,1.17,0,.65.12,1,.18,1.17.18.52.39.76.5.88.33.36.64.49.79.55.47.19.86.19,1.05.19.58,0,.89-.13,1.05-.19.46-.19.68-.43.79-.55.32-.36.44-.71.5-.88.17-.52.17-.96.17-1.17ZM18.48,10.55c0,.53-.07.86-.11,1.02-.11.49-.25.77-.32.91-.21.42-.4.66-.5.78-.3.35-.55.53-.68.62l2.02,2.2h-1.22c-.26,0-.41-.05-.48-.07-.21-.07-.33-.2-.39-.26l-1.17-1.29c-.28.08-.48.1-.57.12-.29.04-.51.04-.61.04-.9,0-1.4-.2-1.65-.31-.75-.31-1.1-.67-1.28-.85-.53-.54-.73-1.04-.82-1.29-.29-.75-.29-1.33-.29-1.62,0-.87.19-1.37.29-1.62.29-.75.65-1.11.82-1.29.53-.54,1.03-.75,1.28-.85.75-.31,1.35-.31,1.65-.31.9,0,1.4.21,1.64.31.74.31,1.09.67,1.27.85.53.54.72,1.04.82,1.29.29.75.29,1.33.29,1.62Z"/>
      <path class="cls-1" d="M23.39,13.33c.43,0,.65-.1.77-.14.34-.14.49-.32.57-.4.23-.26.32-.5.36-.63.12-.37.12-.67.12-.83v-4.76h1.48v4.76c0,.71-.15,1.11-.23,1.31-.23.6-.51.89-.66,1.04-.43.44-.84.6-1.04.68-.61.24-1.12.24-1.38.24-.76,0-1.17-.16-1.38-.24-.61-.24-.89-.54-1.04-.68-.43-.44-.58-.84-.65-1.04-.23-.6-.23-1.08-.23-1.31v-4.76h1.48v4.76c0,.46.08.7.12.83.12.37.28.54.35.63.23.26.46.36.57.4.34.14.62.14.77.14Z"/>
      <path class="cls-1" d="M30.31,11.52h2.54l-.97-2.65c-.07-.18-.12-.34-.15-.42-.08-.24-.13-.43-.16-.52-.08.28-.13.44-.15.52-.07.24-.12.36-.15.42l-.97,2.63ZM35.46,14.52h-1.14c-.19,0-.28-.06-.32-.1-.12-.1-.16-.19-.18-.24l-.59-1.62h-3.29l-.59,1.62c-.04.13-.13.2-.17.23-.13.1-.25.1-.32.1h-1.15l3.12-7.95h1.51l3.12,7.95Z"/>
      <polygon class="cls-1" points="38.3 13.3 41.49 13.3 41.49 14.52 36.83 14.52 36.83 6.57 38.3 6.57 38.3 13.3"/>
      <rect class="cls-1" x="43.24" y="6.57" width="1.48" height="7.95"/>
      <polygon class="cls-1" points="52.67 6.57 52.67 7.79 50.28 7.79 50.28 14.52 48.8 14.52 48.8 7.79 46.4 7.79 46.4 6.57 52.67 6.57"/>
      <path class="cls-1" d="M58.86,4.67l-1.63,1.19c-.06.04-.1.06-.11.07-.05.03-.09.04-.1.04-.05.02-.09.02-.11.02-.06,0-.11,0-.13,0h-1.07l1.08-1.11c.07-.07.1-.1.12-.11.06-.04.1-.06.12-.07.06-.02.11-.03.14-.03.08,0,.15,0,.19,0h1.51ZM59.18,6.57v1.18h-3.53v2.21h2.78v1.14h-2.78v2.25h3.53v1.18h-5.02v-7.95h5.02Z"/>
    </g>
  </g>
</svg>
