<?xml version="1.0" encoding="UTF-8"?>
<svg xmlns="http://www.w3.org/2000/svg" id="Calque_2" data-name="Calque 2" viewBox="0 0 216.36 20.36" preserveAspectRatio="none" width="216.36" height="20.36">
  <defs>
    <style>
      .cls-1 {
        fill: #fff;
      }

      .cls-2 {
        fill: #ee7c3b;
      }
    </style>
  </defs>
  <g id="Calque_1-2" data-name="Calque 1">
    <g>
      <rect class="cls-2" y="0" width="216.36" height="20.36"/>
      <path class="cls-1" d="M15.13,7.96c-.06.1-.1.13-.13.15-.07.05-.13.05-.16.05-.1,0-.19-.06-.23-.09-.13-.09-.26-.16-.32-.2-.19-.11-.36-.17-.45-.2-.26-.09-.5-.09-.62-.09-.33,0-.5.05-.58.08-.25.08-.36.18-.42.23-.17.15-.23.28-.26.35-.09.2-.09.36-.09.44,0,.3.11.44.16.5.16.2.33.3.42.34.26.14.48.21.6.25.34.11.57.19.68.23.35.12.57.22.68.28.34.15.51.31.6.39.26.24.37.46.42.58.16.34.16.67.16.83,0,.53-.12.84-.18.99-.18.46-.41.69-.53.81-.34.34-.68.48-.85.54-.5.2-.93.2-1.15.2-.38,0-.62-.05-.74-.07-.36-.07-.58-.16-.69-.21-.33-.13-.52-.26-.61-.33-.29-.19-.44-.35-.51-.43l.37-.62c.05-.08.1-.11.13-.12.08-.04.14-.04.17-.04.13,0,.23.08.28.12.15.12.3.21.37.26.22.14.42.22.53.26.31.12.59.12.74.12.7,0,.95-.23,1.08-.34.38-.34.38-.74.38-.94,0-.34-.11-.48-.16-.55-.16-.21-.33-.31-.42-.35-.26-.14-.48-.21-.6-.24-.34-.1-.57-.17-.68-.21-.35-.11-.57-.21-.68-.26-.34-.15-.51-.31-.6-.4-.26-.24-.37-.48-.42-.6-.16-.36-.16-.72-.16-.9,0-.43.11-.7.17-.83.17-.4.38-.61.49-.71.32-.31.64-.44.79-.5.47-.19.88-.19,1.08-.19.68,0,1.06.14,1.25.21.57.21.84.48.98.61l-.31.62Z"/>
      <polygon class="cls-1" points="22.99 7.68 20.52 7.68 20.52 14.52 19.24 14.52 19.24 7.68 16.76 7.68 16.76 6.6 22.99 6.6 22.99 7.68"/>
      <path class="cls-1" d="M30.46,10.56c0-.68-.12-1.04-.18-1.23-.18-.54-.41-.8-.53-.92-.34-.38-.67-.52-.83-.58-.49-.2-.9-.2-1.1-.2-.61,0-.93.14-1.09.2-.49.2-.72.46-.84.58-.35.38-.47.74-.53.92-.19.54-.19,1-.19,1.23,0,.69.12,1.05.19,1.23.19.54.42.8.53.92.35.38.67.51.84.58.49.2.89.2,1.09.2.61,0,.94-.13,1.1-.2.49-.2.72-.45.83-.58.34-.38.47-.74.53-.92.18-.54.18-1,.18-1.23ZM31.77,10.56c0,.88-.19,1.38-.29,1.62-.29.74-.63,1.1-.81,1.28-.52.54-1.01.74-1.25.84-.73.3-1.32.3-1.62.3-.89,0-1.37-.2-1.61-.3-.73-.3-1.08-.66-1.25-.84-.52-.54-.71-1.03-.81-1.28-.29-.74-.29-1.33-.29-1.62,0-.88.19-1.38.29-1.62.29-.74.63-1.1.81-1.28.52-.54,1.01-.74,1.25-.84.73-.3,1.32-.3,1.61-.3.89,0,1.38.2,1.62.3.73.3,1.08.66,1.25.84.52.54.71,1.03.81,1.28.29.74.29,1.33.29,1.62Z"/>
      <path class="cls-1" d="M39.22,12.76c.1,0,.16.05.18.08l.51.56c-.48.58-.95.79-1.19.9-.7.32-1.36.32-1.68.32-.87,0-1.34-.2-1.57-.3-.7-.3-1.03-.66-1.2-.84-.49-.54-.67-1.03-.76-1.28-.27-.74-.27-1.34-.27-1.63,0-.89.19-1.39.28-1.64.28-.75.63-1.1.8-1.28.51-.54.99-.73,1.23-.83.72-.3,1.29-.3,1.58-.3.86,0,1.3.19,1.52.28.66.28.98.59,1.14.74l-.42.6c-.04.06-.08.09-.1.1-.06.04-.13.04-.16.04-.11,0-.2-.07-.25-.1-.14-.1-.29-.18-.36-.23-.22-.12-.44-.19-.54-.23-.33-.1-.65-.1-.82-.1-.57,0-.88.13-1.04.2-.47.2-.7.45-.81.58-.34.38-.47.74-.53.92-.19.54-.19,1.01-.19,1.24,0,.7.13,1.06.2,1.25.2.55.43.8.54.92.35.38.66.51.81.57.47.2.83.2,1.01.2.33,0,.5-.02.59-.04.26-.04.41-.09.48-.12.22-.08.35-.16.42-.2.2-.12.32-.24.39-.3.11-.1.18-.1.22-.1Z"/>
      <path class="cls-1" d="M42.86,9.99h.37c.21,0,.3-.04.34-.06.13-.06.2-.14.24-.18l2.4-2.86c.13-.16.22-.2.26-.22.13-.06.27-.06.34-.06h1.1l-2.83,3.34c-.12.14-.19.21-.22.24-.11.1-.19.14-.23.16.16.06.25.13.3.17.13.11.22.22.26.28l2.94,3.73h-1.12c-.12,0-.18-.01-.21-.02-.09-.02-.13-.04-.15-.05-.06-.03-.09-.07-.11-.08-.05-.05-.07-.09-.09-.11l-2.47-3.03c-.06-.07-.09-.1-.11-.12-.05-.05-.1-.07-.13-.08-.07-.03-.14-.04-.17-.05-.09-.01-.18-.01-.22-.01h-.47v3.55h-1.29v-7.92h1.29v3.39Z"/>
    </g>
  </g>
</svg>
