<?xml version="1.0" encoding="UTF-8"?>
<svg xmlns="http://www.w3.org/2000/svg" id="Calque_2" data-name="Calque 2" viewBox="0 0 216.36 20.19" preserveAspectRatio="none" width="216.36" height="20.19">
  <defs>
    <style>
      .cls-1 {
        fill: #fff;
      }

      .cls-2 {
        fill: #ee7c3b;
      }
    </style>
  </defs>
  <g id="Calque_1-2" data-name="Calque 1">
    <g>
      <rect class="cls-2" y="0" width="216.36" height="20.19"/>
      <path class="cls-1" d="M17.12,10.57c0-.68-.12-1.05-.18-1.23-.18-.54-.41-.8-.53-.92-.34-.38-.67-.52-.83-.58-.49-.2-.9-.2-1.1-.2-.6,0-.93.14-1.09.2-.49.2-.72.46-.84.58-.35.38-.47.74-.53.92-.19.54-.19,1-.19,1.23,0,.69.12,1.05.19,1.23.19.54.42.8.53.92.35.38.67.51.84.58.49.2.89.2,1.09.2.61,0,.94-.13,1.1-.2.49-.2.72-.45.83-.58.34-.38.47-.74.53-.92.18-.54.18-1,.18-1.23ZM18.43,10.57c0,.88-.19,1.38-.29,1.62-.29.74-.63,1.1-.81,1.28-.52.54-1.01.74-1.25.84-.73.3-1.32.3-1.62.3-.89,0-1.37-.2-1.61-.3-.73-.3-1.08-.66-1.25-.84-.52-.54-.71-1.03-.81-1.28-.29-.74-.29-1.33-.29-1.62,0-.88.19-1.38.29-1.62.29-.74.63-1.1.81-1.28.52-.54,1.01-.74,1.25-.84.73-.3,1.32-.3,1.61-.3.89,0,1.38.2,1.62.3.73.3,1.08.66,1.25.84.52.54.71,1.03.81,1.28.29.74.29,1.33.29,1.62Z"/>
      <polygon class="cls-1" points="21.68 7.64 21.68 10.18 24.77 10.18 24.77 11.22 21.68 11.22 21.68 14.52 20.39 14.52 20.39 6.6 25.32 6.6 25.32 7.64 21.68 7.64"/>
      <polygon class="cls-1" points="28.44 7.64 28.44 10.18 31.54 10.18 31.54 11.22 28.44 11.22 28.44 14.52 27.15 14.52 27.15 6.6 32.09 6.6 32.09 7.64 28.44 7.64"/>
      <path class="cls-1" d="M39.94,14.52h-1.15c-.34,0-.44-.18-.49-.26l-1.85-2.67c-.09-.14-.17-.18-.2-.2-.11-.06-.26-.06-.33-.06h-.72v3.19h-1.29v-7.92h2.33c.78,0,1.16.11,1.34.16.56.16.81.36.93.45.36.29.48.57.54.71.17.41.17.75.17.92,0,.41-.08.65-.12.77-.12.36-.28.55-.36.65-.23.29-.46.43-.57.51-.34.21-.63.3-.78.34.24.14.35.32.41.4l2.14,3.02ZM36.21,10.4c.44,0,.66-.07.77-.11.33-.11.48-.24.55-.3.22-.19.29-.37.33-.46.11-.27.11-.48.11-.59,0-.65-.29-.88-.43-.99-.43-.34-1.01-.34-1.3-.34h-1.04v2.79h1.01Z"/>
      <polygon class="cls-1" points="46.4 13.49 46.39 14.52 41.45 14.52 41.45 6.6 46.39 6.6 46.39 7.64 42.74 7.64 42.74 10.03 45.66 10.03 45.66 11.04 42.74 11.04 42.74 13.49 46.4 13.49"/>
      <path class="cls-1" d="M57.13,12.76c.1,0,.16.05.18.08l.51.56c-.48.58-.95.79-1.19.9-.7.32-1.36.32-1.68.32-.87,0-1.34-.2-1.57-.3-.7-.3-1.03-.66-1.2-.84-.49-.54-.67-1.03-.76-1.28-.27-.74-.27-1.34-.27-1.63,0-.89.19-1.39.28-1.64.28-.75.63-1.1.8-1.28.51-.54.99-.73,1.23-.83.72-.3,1.29-.3,1.58-.3.86,0,1.3.19,1.52.28.66.28.98.59,1.14.74l-.42.6c-.04.06-.08.09-.1.1-.06.04-.13.04-.17.04-.11,0-.2-.07-.25-.1-.14-.1-.29-.18-.36-.23-.22-.12-.44-.19-.54-.23-.33-.1-.65-.1-.82-.1-.57,0-.88.13-1.04.2-.47.2-.7.45-.81.58-.34.38-.47.74-.53.92-.19.54-.19,1.01-.19,1.24,0,.7.13,1.06.2,1.25.2.55.43.8.54.92.35.38.66.51.81.57.47.2.83.2,1.01.2.33,0,.5-.02.59-.04.26-.04.41-.09.48-.12.22-.08.35-.16.42-.2.2-.12.32-.24.39-.3.11-.1.18-.1.22-.1Z"/>
      <path class="cls-1" d="M65.45,10.57c0-.68-.12-1.05-.18-1.23-.18-.54-.41-.8-.53-.92-.34-.38-.67-.52-.83-.58-.49-.2-.9-.2-1.1-.2-.6,0-.93.14-1.09.2-.49.2-.72.46-.84.58-.35.38-.47.74-.53.92-.19.54-.19,1-.19,1.23,0,.69.12,1.05.19,1.23.19.54.42.8.53.92.35.38.67.51.84.58.49.2.89.2,1.09.2.61,0,.94-.13,1.1-.2.49-.2.72-.45.83-.58.34-.38.47-.74.53-.92.18-.54.18-1,.18-1.23ZM66.77,10.57c0,.88-.19,1.38-.29,1.62-.29.74-.63,1.1-.81,1.28-.52.54-1.01.74-1.25.84-.73.3-1.32.3-1.62.3-.89,0-1.37-.2-1.61-.3-.73-.3-1.08-.66-1.25-.84-.52-.54-.71-1.03-.81-1.28-.29-.74-.29-1.33-.29-1.62,0-.88.19-1.38.29-1.62.29-.74.63-1.1.81-1.28.52-.54,1.01-.74,1.25-.84.73-.3,1.32-.3,1.61-.3.89,0,1.38.2,1.62.3.73.3,1.08.66,1.25.84.52.54.71,1.03.81,1.28.29.74.29,1.33.29,1.62Z"/>
      <path class="cls-1" d="M77.15,6.6v7.92h-1.13v-5.43c0-.13,0-.24,0-.29,0-.16.02-.26.02-.32l-2.55,4.7c-.15.29-.35.29-.46.29h-.18c-.31,0-.41-.19-.46-.29l-2.59-4.71c.02.16.02.27.02.32,0,.16,0,.25,0,.3v5.43h-1.13v-7.92h.96c.17,0,.23.02.26.03.09.03.14.13.17.18l2.54,4.6c.08.16.13.27.16.33.07.17.11.29.13.34.07-.18.12-.29.14-.35.07-.17.13-.28.16-.33l2.5-4.59c.08-.15.14-.17.17-.18.09-.03.21-.03.26-.03h.96Z"/>
      <path class="cls-1" d="M82.04,6.6c.78,0,1.15.12,1.34.18.57.18.82.4.94.51.37.33.49.63.55.79.18.46.18.83.18,1.01,0,.57-.13.88-.19,1.04-.19.47-.45.7-.57.81-.38.34-.76.46-.94.53-.56.19-1.06.19-1.31.19h-1.18v2.87h-1.29v-7.92h2.46ZM82.04,10.64c.43,0,.65-.07.76-.11.33-.11.47-.24.54-.31.22-.2.29-.39.33-.49.11-.29.11-.52.11-.64,0-.35-.07-.53-.11-.62-.11-.28-.25-.4-.32-.47-.21-.19-.43-.26-.54-.29-.33-.1-.62-.1-.77-.1h-1.18v3.03h1.18Z"/>
      <polygon class="cls-1" points="91.41 13.45 91.41 14.52 86.84 14.52 86.84 6.6 88.12 6.6 88.12 13.45 91.41 13.45"/>
      <path class="cls-1" d="M94.68,4.31c.1,0,.15,0,.17,0,.07,0,.11.02.13.03.06.02.09.05.11.06.05.04.09.09.1.11l1.22,1.5h-.85c-.14,0-.2-.01-.22-.02-.08-.02-.14-.08-.17-.1l-1.74-1.58h1.25ZM98.01,13.49v1.04h-4.94v-7.92h4.94v1.04h-3.65v2.39h2.91v1.01h-2.91v2.45h3.65Z"/>
      <polygon class="cls-1" points="105.4 7.68 102.93 7.68 102.93 14.52 101.65 14.52 101.65 7.68 99.17 7.68 99.17 6.6 105.4 6.6 105.4 7.68"/>
      <polygon class="cls-1" points="111.99 13.49 111.98 14.52 107.04 14.52 107.04 6.6 111.98 6.6 111.98 7.64 108.34 7.64 108.34 10.03 111.25 10.03 111.25 11.04 108.34 11.04 108.34 13.49 111.99 13.49"/>
    </g>
  </g>
</svg>
