<?xml version="1.0" encoding="UTF-8"?>
<svg xmlns="http://www.w3.org/2000/svg" id="Calque_2" data-name="Calque 2" viewBox="0 0 215.91 20.19" preserveAspectRatio="none" width="215.91" height="20.19">
  <defs>
    <style>
      .cls-1 {
        fill: #fff;
      }

      .cls-2 {
        fill: #ee7c3b;
      }
    </style>
  </defs>
  <g id="Calque_1-2" data-name="Calque 1">
    <g>
      <rect class="cls-2" x="0" y="0" width="215.91" height="20.19"/>
      <polygon class="cls-1" points="15.94 13.49 15.93 14.53 10.99 14.53 10.99 6.61 15.93 6.61 15.93 7.64 12.28 7.64 12.28 10.03 15.2 10.03 15.2 11.04 12.28 11.04 12.28 13.49 15.94 13.49"/>
      <path class="cls-1" d="M24.13,14.53h-1.28c-.13,0-.19-.05-.21-.07-.08-.07-.12-.13-.13-.16l-1.97-3.17c-.02.07-.04.11-.05.13-.02.06-.05.1-.06.12l-1.9,2.93c-.06.09-.11.14-.13.16-.07.07-.15.07-.2.07h-1.2l2.67-4.07-2.56-3.85h1.28c.14,0,.18.03.2.04.06.04.1.1.11.12l1.92,3.02c.03-.07.05-.11.05-.13.03-.07.06-.11.07-.14l1.79-2.73c.05-.09.1-.12.12-.14.07-.05.13-.05.16-.05h1.23l-2.59,3.8,2.67,4.12Z"/>
      <path class="cls-1" d="M28.15,6.61c.78,0,1.15.12,1.34.18.57.18.82.4.94.51.37.33.49.63.55.79.18.46.18.83.18,1.01,0,.57-.13.88-.19,1.04-.19.47-.45.7-.57.81-.38.34-.76.46-.94.53-.56.19-1.06.19-1.31.19h-1.18v2.87h-1.29v-7.92h2.46ZM28.15,10.64c.43,0,.65-.07.76-.11.33-.11.47-.24.54-.31.22-.2.29-.39.33-.49.11-.29.11-.52.11-.64,0-.35-.07-.53-.11-.62-.11-.28-.25-.4-.32-.47-.21-.19-.43-.26-.54-.29-.33-.1-.62-.1-.77-.1h-1.18v3.03h1.18Z"/>
      <polygon class="cls-1" points="37.89 13.49 37.89 14.53 32.95 14.53 32.95 6.61 37.89 6.61 37.89 7.64 34.24 7.64 34.24 10.03 37.16 10.03 37.16 11.04 34.24 11.04 34.24 13.49 37.89 13.49"/>
      <path class="cls-1" d="M45.86,14.53h-1.15c-.34,0-.44-.18-.49-.26l-1.85-2.67c-.09-.14-.17-.18-.2-.2-.11-.06-.26-.06-.33-.06h-.71v3.19h-1.29v-7.92h2.33c.78,0,1.16.11,1.34.16.56.16.81.36.93.45.36.29.48.57.54.71.17.41.17.75.17.92,0,.41-.08.65-.12.77-.12.36-.28.55-.36.65-.23.29-.46.43-.57.51-.34.21-.63.3-.78.34.24.14.35.32.41.4l2.14,3.02ZM42.13,10.4c.44,0,.66-.07.77-.11.33-.11.48-.24.55-.3.22-.19.29-.37.33-.46.11-.27.11-.48.11-.59,0-.65-.29-.88-.43-.99-.43-.34-1.01-.34-1.3-.34h-1.04v2.79h1.01Z"/>
      <polygon class="cls-1" points="52.59 7.68 50.12 7.68 50.12 14.53 48.84 14.53 48.84 7.68 46.36 7.68 46.36 6.61 52.59 6.61 52.59 7.68"/>
      <rect class="cls-1" x="54.23" y="6.61" width="1.29" height="7.92"/>
      <path class="cls-1" d="M62.09,7.96c-.06.1-.1.13-.13.15-.07.05-.13.05-.16.05-.1,0-.19-.06-.23-.09-.13-.09-.26-.16-.32-.2-.19-.11-.36-.17-.45-.2-.26-.09-.5-.09-.62-.09-.33,0-.5.05-.58.08-.25.08-.36.18-.42.23-.17.15-.23.28-.26.35-.09.2-.09.36-.09.44,0,.3.11.44.16.5.16.2.33.3.42.34.26.14.48.21.6.25.34.11.57.19.68.23.35.12.57.22.68.27.34.15.51.31.6.39.26.24.37.46.42.58.16.34.16.67.16.83,0,.53-.12.84-.18.99-.18.46-.41.69-.53.81-.34.34-.68.48-.85.54-.5.2-.93.2-1.15.2-.38,0-.62-.05-.74-.07-.36-.07-.58-.16-.69-.21-.33-.13-.52-.26-.61-.33-.29-.19-.44-.35-.51-.43l.37-.62c.05-.08.1-.11.13-.12.08-.04.14-.04.17-.04.13,0,.23.08.28.12.15.12.3.21.37.26.22.14.42.22.53.26.31.12.59.12.74.12.7,0,.95-.23,1.08-.34.38-.34.38-.74.38-.94,0-.34-.11-.48-.16-.55-.16-.21-.33-.31-.42-.35-.26-.14-.48-.21-.6-.24-.34-.1-.57-.17-.68-.21-.35-.11-.57-.21-.68-.26-.34-.15-.51-.31-.6-.4-.26-.24-.37-.48-.42-.61-.16-.36-.16-.72-.16-.9,0-.43.11-.7.17-.83.17-.4.38-.61.49-.71.32-.31.64-.44.79-.5.47-.19.88-.19,1.08-.19.68,0,1.06.14,1.25.21.57.21.84.48.98.61l-.31.62Z"/>
      <polygon class="cls-1" points="69.44 13.49 69.43 14.53 64.5 14.53 64.5 6.61 69.43 6.61 69.43 7.64 65.79 7.64 65.79 10.03 68.7 10.03 68.7 11.04 65.79 11.04 65.79 13.49 69.44 13.49"/>
      <polygon class="cls-1" points="79.79 7.68 77.32 7.68 77.32 14.53 76.04 14.53 76.04 7.68 73.57 7.68 73.57 6.61 79.79 6.61 79.79 7.68"/>
      <polygon class="cls-1" points="86.38 13.49 86.37 14.53 81.44 14.53 81.44 6.61 86.37 6.61 86.37 7.64 82.73 7.64 82.73 10.03 85.64 10.03 85.64 11.04 82.73 11.04 82.73 13.49 86.38 13.49"/>
      <path class="cls-1" d="M93.65,12.76c.1,0,.16.05.18.08l.51.56c-.48.58-.95.79-1.19.9-.7.32-1.36.32-1.68.32-.87,0-1.34-.2-1.57-.3-.7-.3-1.03-.66-1.2-.84-.49-.54-.67-1.03-.76-1.28-.27-.74-.27-1.34-.27-1.63,0-.89.19-1.39.28-1.64.28-.75.63-1.1.8-1.28.51-.54.99-.73,1.23-.83.72-.3,1.29-.3,1.58-.3.86,0,1.3.19,1.52.28.66.28.98.59,1.14.74l-.42.6c-.04.06-.08.09-.1.1-.06.04-.13.04-.16.04-.11,0-.2-.07-.25-.1-.14-.1-.29-.18-.36-.23-.22-.12-.44-.19-.54-.23-.33-.1-.65-.1-.82-.1-.57,0-.88.13-1.04.2-.47.2-.7.45-.81.58-.34.38-.47.74-.53.92-.19.54-.19,1.01-.19,1.24,0,.7.13,1.06.2,1.25.2.55.43.8.54.92.35.38.66.51.81.57.47.2.83.2,1.01.2.33,0,.5-.02.59-.04.26-.04.41-.09.48-.12.22-.08.35-.16.42-.2.2-.12.32-.24.39-.3.11-.1.18-.1.22-.1Z"/>
      <polygon class="cls-1" points="102.56 6.61 102.56 14.53 101.27 14.53 101.27 11 97.3 11 97.3 14.53 96.01 14.53 96.01 6.61 97.3 6.61 97.3 10.07 101.27 10.07 101.27 6.61 102.56 6.61"/>
      <path class="cls-1" d="M111.55,6.61v7.92h-.65c-.15,0-.22-.03-.25-.05-.1-.05-.17-.13-.2-.17l-4.35-5.59c.02.16.02.26.02.32,0,.16,0,.24,0,.29v5.21h-1.13v-7.92h.67c.08,0,.12,0,.14,0,.06,0,.09.02.11.03.05.02.08.05.09.07.04.04.08.09.09.11l4.36,5.59c-.02-.17-.02-.28-.02-.34,0-.16,0-.26,0-.31v-5.16h1.13Z"/>
      <rect class="cls-1" x="113.98" y="6.61" width="1.29" height="7.92"/>
      <path class="cls-1" d="M125.53,16.11h-1.06c-.24,0-.36-.04-.42-.06-.18-.06-.28-.17-.34-.23l-1.27-1.39c-.59.18-1.05.18-1.28.18-.89,0-1.37-.2-1.61-.3-.73-.3-1.08-.66-1.25-.84-.52-.54-.71-1.03-.81-1.28-.29-.74-.29-1.33-.29-1.62,0-.88.19-1.38.29-1.62.29-.74.63-1.1.81-1.28.52-.54,1.01-.74,1.25-.84.73-.3,1.32-.3,1.61-.3.89,0,1.38.2,1.62.3.73.3,1.08.66,1.25.84.52.54.71,1.03.81,1.28.29.74.29,1.33.29,1.62,0,.54-.07.87-.11,1.04-.11.49-.25.78-.32.92-.21.43-.41.66-.51.78-.3.35-.56.53-.69.62l2.02,2.19ZM118.53,10.57c0,.69.12,1.05.19,1.23.19.54.42.8.53.92.35.38.67.51.84.58.49.2.89.2,1.09.2.61,0,.94-.13,1.1-.2.49-.2.72-.45.83-.58.34-.38.47-.74.53-.92.18-.54.18-1,.18-1.23,0-.68-.12-1.05-.18-1.23-.18-.54-.41-.8-.53-.92-.34-.38-.67-.52-.83-.58-.49-.2-.9-.2-1.1-.2-.6,0-.93.14-1.09.2-.49.2-.72.46-.84.58-.35.38-.47.74-.53.92-.19.54-.19,1-.19,1.23Z"/>
      <path class="cls-1" d="M130.22,13.49c.46,0,.7-.1.82-.15.36-.15.53-.34.61-.43.25-.27.34-.53.38-.66.13-.39.13-.7.13-.86v-4.77h1.28v4.77c0,.7-.15,1.09-.22,1.29-.22.59-.5.88-.64,1.03-.42.43-.82.59-1.01.68-.6.24-1.1.24-1.34.24-.75,0-1.15-.16-1.34-.24-.6-.24-.88-.53-1.01-.68-.42-.43-.57-.83-.64-1.03-.22-.59-.22-1.06-.22-1.29v-4.77h1.29v4.77c0,.47.09.73.13.86.13.39.3.57.38.67.25.28.49.38.61.43.36.15.66.15.82.15Z"/>
      <polygon class="cls-1" points="140.71 13.49 140.71 14.53 135.77 14.53 135.77 6.61 140.71 6.61 140.71 7.64 137.06 7.64 137.06 10.03 139.98 10.03 139.98 11.04 137.06 11.04 137.06 13.49 140.71 13.49"/>
    </g>
  </g>
</svg>
