<?xml version="1.0" encoding="UTF-8"?>
<svg xmlns="http://www.w3.org/2000/svg" id="Calque_2" data-name="Calque 2" viewBox="0 0 215.65 21.85" preserveAspectRatio="none" width="215.65" height="21.85">
  <defs>
    <style>
      .cls-1 {
        fill: #fff;
      }

      .cls-2 {
        fill: #ee7c3b;
      }
    </style>
  </defs>
  <g id="Calque_1-2" data-name="Calque 1">
    <g>
      <rect class="cls-2" width="215.65" height="21.85"/>
      <polygon class="cls-1" points="15.57 13.45 15.57 14.52 10.99 14.52 10.99 6.6 12.28 6.6 12.28 13.45 15.57 13.45"/>
      <rect class="cls-1" x="17.22" y="6.6" width="1.29" height="7.92"/>
      <path class="cls-1" d="M27.56,6.6l-3.21,7.92h-1.16l-3.21-7.92h1.03c.17,0,.24.06.28.09.1.09.14.17.16.21l2.04,5.16c.16.43.26.81.3,1,.06-.28.11-.45.13-.53.07-.25.12-.4.15-.47l2.04-5.16c.04-.11.12-.17.15-.2.11-.09.22-.09.28-.09h1.03Z"/>
      <path class="cls-1" d="M35.06,14.52h-1.15c-.34,0-.44-.18-.49-.26l-1.85-2.67c-.09-.14-.17-.18-.2-.2-.11-.06-.26-.06-.33-.06h-.71v3.19h-1.29v-7.92h2.33c.78,0,1.16.11,1.34.16.56.16.81.36.93.45.36.29.48.57.54.71.17.41.17.75.17.92,0,.41-.08.65-.12.77-.12.36-.28.55-.36.65-.23.29-.46.43-.57.51-.34.21-.63.3-.78.34.24.14.35.32.41.4l2.14,3.02ZM31.33,10.4c.44,0,.66-.07.77-.11.33-.11.48-.24.55-.3.22-.19.29-.37.33-.46.11-.27.11-.48.11-.59,0-.65-.29-.88-.43-.99-.43-.34-1.01-.34-1.3-.34h-1.04v2.79h1.01Z"/>
      <path class="cls-1" d="M43.19,14.52h-1c-.17,0-.24-.06-.28-.09-.1-.09-.14-.17-.16-.21l-.66-1.75h-3.41l-.66,1.75c-.04.11-.12.17-.15.2-.11.09-.22.09-.27.09h-1l3.14-7.92h1.3l3.14,7.92ZM40.76,11.55l-1.09-2.89c-.13-.34-.22-.68-.27-.85-.06.26-.11.4-.13.48-.07.22-.11.33-.13.38l-1.09,2.89h2.71Z"/>
      <rect class="cls-1" x="44.66" y="6.6" width="1.29" height="7.92"/>
      <path class="cls-1" d="M52.53,7.96c-.06.1-.1.13-.13.15-.07.05-.13.05-.16.05-.1,0-.19-.06-.23-.09-.13-.09-.26-.16-.32-.2-.19-.11-.36-.17-.45-.2-.26-.09-.5-.09-.62-.09-.33,0-.5.06-.58.08-.25.08-.36.18-.42.23-.17.15-.23.28-.26.35-.09.2-.09.36-.09.44,0,.3.11.44.16.5.16.2.33.3.42.34.26.14.48.21.6.25.34.11.57.19.68.23.35.12.57.22.68.27.34.15.51.31.6.39.26.24.37.46.42.58.16.34.16.67.16.83,0,.53-.12.84-.18.99-.18.46-.41.69-.53.81-.34.34-.68.48-.85.54-.5.2-.93.2-1.15.2-.38,0-.62-.05-.74-.07-.36-.07-.58-.16-.69-.21-.33-.13-.52-.26-.61-.33-.29-.19-.44-.35-.51-.43l.37-.62c.05-.08.1-.11.13-.12.08-.04.14-.04.17-.04.13,0,.23.08.28.12.15.12.3.21.37.26.22.14.42.22.53.26.31.12.59.12.74.12.7,0,.95-.23,1.08-.34.38-.34.38-.74.38-.94,0-.34-.11-.48-.16-.55-.16-.21-.33-.31-.42-.35-.26-.14-.48-.21-.6-.24-.34-.1-.57-.17-.68-.21-.35-.11-.57-.21-.68-.26-.34-.15-.51-.31-.6-.4-.26-.24-.37-.48-.42-.61-.16-.36-.16-.72-.16-.9,0-.43.11-.7.17-.83.17-.4.38-.61.49-.71.32-.31.64-.44.79-.5.47-.19.88-.19,1.08-.19.68,0,1.06.14,1.25.21.57.21.84.48.98.61l-.31.62Z"/>
      <path class="cls-1" d="M61.06,10.56c0-.68-.12-1.04-.18-1.23-.18-.54-.41-.8-.53-.92-.34-.38-.67-.52-.83-.58-.49-.2-.9-.2-1.1-.2-.6,0-.93.14-1.09.2-.49.2-.72.46-.84.58-.35.38-.47.74-.53.92-.19.54-.19,1-.19,1.23,0,.69.12,1.05.19,1.23.19.54.42.8.53.92.35.38.67.51.84.58.49.2.89.2,1.09.2.61,0,.94-.13,1.1-.2.49-.2.72-.45.83-.58.34-.38.47-.74.53-.92.18-.54.18-1,.18-1.23ZM62.37,10.56c0,.88-.19,1.38-.29,1.62-.29.74-.63,1.1-.81,1.28-.52.54-1.01.74-1.25.84-.73.3-1.32.3-1.62.3-.89,0-1.37-.2-1.61-.3-.73-.3-1.08-.66-1.25-.84-.52-.54-.71-1.03-.81-1.28-.29-.74-.29-1.33-.29-1.62,0-.88.19-1.38.29-1.62.29-.74.63-1.1.81-1.28.52-.54,1.01-.74,1.25-.84.73-.3,1.32-.3,1.61-.3.89,0,1.38.2,1.62.3.73.3,1.08.66,1.25.84.52.54.71,1.03.81,1.28.29.74.29,1.33.29,1.62Z"/>
      <path class="cls-1" d="M70.88,6.6v7.92h-.65c-.15,0-.22-.03-.25-.05-.1-.05-.17-.13-.2-.17l-4.35-5.59c.02.16.02.26.02.32,0,.16,0,.24,0,.29v5.21h-1.13v-7.92h.67c.08,0,.12,0,.14,0,.06,0,.09.02.11.03.05.02.08.05.09.07.04.04.08.09.09.11l4.36,5.59c-.02-.17-.02-.28-.02-.34,0-.17,0-.26,0-.31v-5.16h1.13Z"/>
      <path class="cls-1" d="M82.1,12.76c.1,0,.16.06.18.08l.51.56c-.48.58-.95.79-1.19.9-.7.32-1.36.32-1.68.32-.87,0-1.34-.2-1.57-.3-.7-.3-1.03-.66-1.2-.84-.5-.54-.67-1.03-.76-1.28-.27-.74-.27-1.34-.27-1.63,0-.89.19-1.39.28-1.64.28-.75.63-1.1.8-1.28.51-.54.99-.73,1.23-.83.72-.3,1.29-.3,1.58-.3.86,0,1.3.19,1.52.28.66.28.98.59,1.14.74l-.42.6c-.04.06-.08.09-.1.1-.06.04-.13.04-.16.04-.11,0-.2-.07-.25-.1-.14-.1-.29-.18-.36-.23-.22-.12-.44-.19-.54-.23-.33-.1-.65-.1-.82-.1-.57,0-.88.13-1.04.2-.47.2-.7.45-.81.58-.34.38-.47.74-.53.92-.19.54-.19,1.01-.19,1.24,0,.7.13,1.06.2,1.25.2.55.43.8.54.92.35.38.66.51.81.57.47.2.83.2,1.01.2.33,0,.5-.02.59-.04.26-.04.41-.09.48-.12.22-.08.35-.16.42-.2.2-.12.32-.24.39-.3.11-.1.18-.1.22-.1Z"/>
      <path class="cls-1" d="M90.43,10.56c0-.68-.12-1.04-.18-1.23-.18-.54-.41-.8-.53-.92-.34-.38-.67-.52-.83-.58-.49-.2-.9-.2-1.1-.2-.6,0-.93.14-1.09.2-.49.2-.72.46-.84.58-.35.38-.47.74-.53.92-.19.54-.19,1-.19,1.23,0,.69.12,1.05.19,1.23.19.54.42.8.53.92.35.38.67.51.84.58.49.2.89.2,1.09.2.61,0,.94-.13,1.1-.2.49-.2.72-.45.83-.58.34-.38.47-.74.53-.92.18-.54.18-1,.18-1.23ZM91.74,10.56c0,.88-.19,1.38-.29,1.62-.29.74-.63,1.1-.81,1.28-.52.54-1.01.74-1.25.84-.73.3-1.32.3-1.62.3-.89,0-1.37-.2-1.61-.3-.73-.3-1.08-.66-1.25-.84-.52-.54-.71-1.03-.81-1.28-.29-.74-.29-1.33-.29-1.62,0-.88.19-1.38.29-1.62.29-.74.63-1.1.81-1.28.52-.54,1.01-.74,1.25-.84.73-.3,1.32-.3,1.61-.3.89,0,1.38.2,1.62.3.73.3,1.08.66,1.25.84.52.54.71,1.03.81,1.28.29.74.29,1.33.29,1.62Z"/>
      <path class="cls-1" d="M99.72,14.52h-1.15c-.34,0-.44-.18-.49-.26l-1.85-2.67c-.09-.14-.17-.18-.2-.2-.11-.06-.26-.06-.33-.06h-.71v3.19h-1.29v-7.92h2.33c.78,0,1.16.11,1.34.16.56.16.81.36.93.45.36.29.48.57.54.71.17.41.17.75.17.92,0,.41-.08.65-.12.77-.12.36-.28.55-.36.65-.23.29-.46.43-.57.51-.34.21-.63.3-.78.34.24.14.35.32.41.4l2.14,3.02ZM96,10.4c.44,0,.66-.07.77-.11.33-.11.48-.24.55-.3.22-.19.29-.37.33-.46.11-.27.11-.48.11-.59,0-.65-.29-.88-.43-.99-.43-.34-1.01-.34-1.3-.34h-1.04v2.79h1.01Z"/>
      <path class="cls-1" d="M105.37,7.96c-.06.1-.1.13-.13.15-.07.05-.13.05-.17.05-.1,0-.19-.06-.23-.09-.13-.09-.26-.16-.32-.2-.19-.11-.36-.17-.45-.2-.26-.09-.5-.09-.62-.09-.33,0-.5.06-.58.08-.25.08-.36.18-.42.23-.17.15-.23.28-.26.35-.09.2-.09.36-.09.44,0,.3.11.44.16.5.16.2.33.3.42.34.26.14.48.21.6.25.34.11.57.19.68.23.35.12.57.22.68.27.34.15.51.31.6.39.26.24.37.46.42.58.16.34.16.67.16.83,0,.53-.12.84-.18.99-.18.46-.41.69-.53.81-.34.34-.68.48-.85.54-.5.2-.93.2-1.15.2-.38,0-.62-.05-.74-.07-.36-.07-.58-.16-.69-.21-.33-.13-.52-.26-.61-.33-.29-.19-.44-.35-.51-.43l.37-.62c.05-.08.1-.11.13-.12.08-.04.14-.04.17-.04.13,0,.23.08.28.12.15.12.3.21.37.26.22.14.42.22.53.26.31.12.59.12.74.12.7,0,.95-.23,1.08-.34.38-.34.38-.74.38-.94,0-.34-.11-.48-.16-.55-.16-.21-.33-.31-.42-.35-.26-.14-.48-.21-.6-.24-.34-.1-.57-.17-.68-.21-.35-.11-.57-.21-.68-.26-.34-.15-.51-.31-.6-.4-.26-.24-.37-.48-.42-.61-.16-.36-.16-.72-.16-.9,0-.43.11-.7.17-.83.17-.4.38-.61.49-.71.32-.31.64-.44.79-.5.47-.19.88-.19,1.08-.19.68,0,1.06.14,1.25.21.57.21.84.48.98.61l-.31.62Z"/>
      <polygon class="cls-1" points="112.72 13.48 112.72 14.52 107.78 14.52 107.78 6.6 112.72 6.6 112.72 7.64 109.07 7.64 109.07 10.03 111.98 10.03 111.98 11.04 109.07 11.04 109.07 13.48 112.72 13.48"/>
    </g>
  </g>
</svg>
