<?xml version="1.0" encoding="UTF-8"?>
<svg xmlns="http://www.w3.org/2000/svg" id="Calque_2" data-name="Calque 2" viewBox="0 0 167.24 56.65" preserveAspectRatio="none" width="167.24" height="56.65">
  <defs>
    <style>
      .cls-1 {
        fill: #fff;
      }

      .cls-2 {
        fill: #ee7c3b;
      }
    </style>
  </defs>
  <g id="Calque_1-2" data-name="Calque 1">
    <g>
      <rect class="cls-2" x="0" width="167.24" height="56.65"/>
      <path class="cls-1" d="M57.08,17.58h3.58l-1.27-3.59c-.12-.34-.23-.65-.29-.81-.17-.46-.27-.82-.33-1-.13.55-.23.86-.28,1.02-.14.47-.23.7-.27.81l-1.14,3.57ZM65.59,22.6h-2.36c-.4,0-.57-.12-.66-.18-.26-.18-.33-.38-.36-.47l-.81-2.29h-4.99l-.73,2.29c-.09.25-.26.39-.34.45-.26.2-.51.2-.64.2h-2.38l4.85-13.11h3.11l5.3,13.11Z"/>
      <path class="cls-1" d="M68.03,9.48c.2,0,.29.01.33.02.14.02.21.05.24.07.11.05.18.11.21.14.1.09.19.19.23.24l6.37,7.88c-.04-.38-.06-.61-.07-.73-.02-.36-.03-.57-.03-.67l-.12-6.94h2.68l.23,13.11h-1.58c-.35,0-.51-.07-.6-.11-.24-.11-.4-.3-.47-.4l-6.32-7.81c.03.34.05.56.06.67.02.33.03.52.03.62l.12,7.03h-2.68l-.23-13.11h1.6Z"/>
      <path class="cls-1" d="M83.95,17.58h3.58l-1.27-3.59c-.12-.34-.23-.65-.29-.81-.17-.46-.27-.82-.33-1-.13.55-.23.86-.28,1.02-.14.47-.23.7-.27.81l-1.14,3.57ZM92.47,22.6h-2.36c-.4,0-.57-.12-.66-.18-.26-.18-.33-.38-.36-.47l-.81-2.29h-4.99l-.73,2.29c-.09.25-.26.39-.34.45-.26.2-.51.2-.64.2h-2.38l4.85-13.11h3.11l5.3,13.11Z"/>
      <polygon class="cls-1" points="96.53 20.17 101.39 20.17 101.43 22.6 93.53 22.6 93.3 9.48 96.34 9.48 96.53 20.17"/>
      <path class="cls-1" d="M107.16,17.61l.09,4.99h-3.04l-.09-4.99-4.89-8.13h2.68c.4,0,.55.12.63.18.24.18.34.38.39.47l1.92,3.82c.23.46.36.72.43.85.2.39.3.64.35.77.13-.39.25-.65.31-.77.18-.39.32-.69.39-.84l1.77-3.82c.05-.12.11-.2.14-.23.09-.12.17-.18.21-.21.12-.09.22-.13.28-.15.16-.06.28-.06.35-.06h2.7l-4.61,8.13Z"/>
      <path class="cls-1" d="M120.02,12.15c-.13.22-.23.29-.28.32-.15.11-.3.11-.38.11-.21,0-.37-.09-.45-.13-.24-.13-.44-.24-.55-.29-.3-.16-.56-.25-.69-.29-.39-.13-.72-.13-.88-.13-.85,0-1.13.24-1.27.36-.41.36-.4.78-.4.99,0,.4.18.57.26.66.26.26.53.39.67.45.41.19.77.29.94.35.53.16.9.29,1.08.35.55.19.91.37,1.08.45.53.26.81.53.95.67.42.41.59.79.68.99.26.58.27,1.13.28,1.4.02.91-.18,1.44-.29,1.7-.3.79-.69,1.18-.89,1.38-.59.59-1.17.81-1.46.93-.87.34-1.62.34-1.99.34-.61,0-1.04-.08-1.25-.13-.64-.13-1.04-.28-1.23-.36-.6-.23-.95-.44-1.13-.54-.53-.32-.79-.57-.92-.7l.88-1.42c.1-.16.22-.23.27-.26.18-.1.32-.1.39-.1.27,0,.45.11.55.17.28.17.51.31.63.38.35.21.65.32.8.38.45.17.86.17,1.06.17.83,0,1.13-.24,1.28-.36.45-.36.44-.89.44-1.16,0-.46-.18-.65-.27-.75-.26-.29-.53-.41-.67-.48-.41-.19-.76-.28-.94-.33-.52-.14-.89-.26-1.08-.32-.55-.18-.9-.35-1.08-.43-.53-.26-.8-.54-.94-.68-.42-.42-.59-.84-.68-1.04-.26-.63-.27-1.24-.28-1.54-.01-.74.18-1.21.27-1.44.28-.7.66-1.07.85-1.25.57-.55,1.12-.77,1.4-.88.83-.33,1.55-.33,1.91-.33.6,0,.99.06,1.18.09.57.09.92.22,1.09.28.52.18.82.36.97.44.45.26.69.47.81.58l-.73,1.41Z"/>
      <polygon class="cls-1" points="130.86 9.48 130.91 11.82 125.52 11.82 125.58 14.88 129.7 14.88 129.74 17.13 125.62 17.13 125.67 20.26 131.05 20.26 131.09 22.6 122.65 22.6 122.42 9.48 130.86 9.48"/>
      <path class="cls-1" d="M144.96,16.04c-.02-.97-.19-1.49-.28-1.76-.27-.78-.59-1.15-.75-1.33-.48-.54-.94-.74-1.17-.84-.69-.29-1.27-.29-1.56-.29h-2.03l.15,8.43h2.03c.87,0,1.33-.19,1.55-.29.68-.29.99-.66,1.14-.84.46-.54.62-1.07.7-1.33.24-.78.23-1.44.22-1.76ZM148.08,16.04c.02,1.42-.29,2.22-.44,2.62-.47,1.2-1.05,1.79-1.35,2.08-.88.88-1.71,1.2-2.12,1.37-1.25.49-2.27.49-2.78.49h-5.09l-.23-13.11h5.09c1.53,0,2.37.33,2.79.49,1.26.49,1.87,1.08,2.17,1.37.91.87,1.25,1.67,1.42,2.07.51,1.2.53,2.14.54,2.61Z"/>
      <polygon class="cls-1" points="157.86 9.48 157.91 11.82 152.52 11.82 152.58 14.88 156.7 14.88 156.74 17.13 152.62 17.13 152.67 20.26 158.05 20.26 158.09 22.6 149.65 22.6 149.42 9.48 157.86 9.48"/>
      <polygon class="cls-1" points="115.7 41.77 120.56 41.77 120.6 44.2 112.7 44.2 112.47 31.08 115.51 31.08 115.7 41.77"/>
      <path class="cls-1" d="M121.24,30.24c.37.57.49.95.56,1.13.19.57.19.94.2,1.12.02.96-.31,1.55-.47,1.85-.49.88-1.13,1.38-1.46,1.63l-.89-.52c-.11-.07-.14-.13-.16-.16-.05-.09-.05-.15-.05-.18,0-.1.03-.16.04-.19.04-.09.08-.13.11-.15.1-.11.18-.21.22-.27.12-.16.19-.3.22-.36.1-.21.15-.38.18-.47.07-.26.07-.46.07-.56,0-.32-.08-.57-.12-.69-.12-.37-.3-.65-.39-.79-.09-.14-.09-.24-.1-.29,0-.16.07-.25.1-.29.11-.13.23-.17.29-.2l1.66-.62Z"/>
      <polygon class="cls-1" points="131.98 31.08 132.02 33.42 126.64 33.42 126.69 36.48 130.81 36.48 130.85 38.73 126.73 38.73 126.79 41.86 132.17 41.86 132.21 44.2 123.77 44.2 123.54 31.08 131.98 31.08"/>
      <path class="cls-1" d="M137.63,39.18h3.58l-1.27-3.59c-.12-.34-.23-.65-.29-.81-.17-.46-.27-.82-.33-1-.13.55-.23.86-.28,1.02-.14.47-.23.7-.27.81l-1.14,3.57ZM146.14,44.2h-2.36c-.4,0-.57-.12-.66-.18-.26-.18-.33-.38-.36-.47l-.81-2.29h-4.99l-.73,2.29c-.09.25-.26.39-.34.45-.26.2-.51.2-.64.2h-2.38l4.85-13.11h3.11l5.3,13.11Z"/>
      <path class="cls-1" d="M152.16,41.79c.61,0,.93-.14,1.09-.2.48-.2.7-.45.8-.58.33-.38.44-.74.49-.92.17-.54.16-1.01.15-1.24l-.14-7.77h3.04l.14,7.77c.02,1.21-.23,1.88-.35,2.21-.37,1.01-.85,1.49-1.09,1.74-.72.73-1.41,1-1.75,1.13-1.04.4-1.91.4-2.34.4-1.31,0-2.01-.27-2.37-.4-1.05-.41-1.55-.89-1.79-1.13-.74-.73-1.01-1.4-1.15-1.74-.4-1.01-.42-1.81-.43-2.21l-.14-7.77h3.04l.14,7.76c.01.69.14,1.06.2,1.24.19.54.41.8.52.93.34.38.66.52.82.58.49.2.89.2,1.1.2Z"/>
    </g>
  </g>
</svg>
