<?xml version="1.0" encoding="UTF-8"?>
<svg xmlns="http://www.w3.org/2000/svg" id="Calque_2" data-name="Calque 2" viewBox="0 0 167.24 56.65" preserveAspectRatio="none" width="167.24" height="56.65">
  <defs>
    <style>
      .cls-1 {
        fill: #fff;
      }

      .cls-2 {
        fill: #ee7c3b;
      }
    </style>
  </defs>
  <g id="Calque_1-2" data-name="Calque 1">
    <g>
      <rect class="cls-2" x="0" y="0" width="167.24" height="56.65"/>
      <path class="cls-1" d="M58.82,16.04c-.02-.97-.19-1.49-.28-1.76-.27-.78-.59-1.15-.75-1.33-.48-.54-.94-.74-1.17-.84-.69-.29-1.27-.29-1.56-.29h-2.03l.15,8.43h2.03c.87,0,1.33-.2,1.55-.29.68-.29.99-.66,1.14-.84.46-.54.62-1.07.7-1.33.24-.78.23-1.44.22-1.76ZM61.93,16.04c.02,1.42-.29,2.22-.44,2.62-.47,1.2-1.05,1.79-1.35,2.08-.88.88-1.71,1.2-2.12,1.37-1.25.49-2.27.49-2.78.49h-5.09l-.23-13.11h5.09c1.53,0,2.37.33,2.79.49,1.26.5,1.87,1.08,2.17,1.37.91.87,1.25,1.67,1.42,2.07.51,1.2.53,2.14.54,2.61Z"/>
      <path class="cls-1" d="M71.41,6.41l-2.62,1.93c-.23.18-.37.22-.43.24-.2.06-.41.06-.51.06h-2.21l1.6-1.77c.11-.14.19-.19.23-.22.11-.09.19-.12.24-.14.13-.05.23-.07.28-.07.15-.02.29-.02.36-.02h3.08ZM71.72,9.48l.04,2.34h-5.38l.05,3.06h4.12l.04,2.25h-4.12l.05,3.12h5.38l.04,2.34h-8.44l-.23-13.11h8.44Z"/>
      <path class="cls-1" d="M76.6,15.92h1.58c1.19,0,1.53-.38,1.7-.57.51-.57.5-1.24.49-1.58,0-.45-.1-.7-.15-.82-.14-.37-.33-.55-.42-.63-.28-.27-.56-.36-.7-.41-.42-.14-.81-.14-1-.14h-1.58l.07,4.16ZM76.64,18.21l.08,4.38h-3.04l-.23-13.11h4.63c1.39,0,2.05.22,2.39.33,1,.33,1.44.71,1.65.9.65.58.87,1.1.97,1.36.32.78.33,1.39.34,1.69.02.98-.18,1.53-.28,1.8-.3.82-.73,1.21-.94,1.4-.64.58-1.3.8-1.63.91-.99.33-1.89.33-2.35.33h-1.58Z"/>
      <path class="cls-1" d="M87.32,17.58h3.58l-1.27-3.59c-.12-.34-.23-.65-.29-.81-.17-.46-.27-.82-.33-1-.13.55-.23.86-.28,1.02-.14.47-.23.7-.27.81l-1.14,3.57ZM95.83,22.6h-2.36c-.4,0-.57-.12-.66-.18-.26-.18-.33-.38-.36-.47l-.81-2.29h-4.99l-.73,2.29c-.09.25-.26.39-.34.45-.26.2-.51.2-.64.2h-2.38l4.85-13.11h3.11l5.3,13.11Z"/>
      <path class="cls-1" d="M98.27,9.48c.2,0,.29.01.33.02.14.02.21.05.24.07.11.05.18.11.21.14.1.09.19.19.23.24l6.37,7.88c-.04-.38-.06-.62-.07-.73-.02-.36-.03-.57-.03-.67l-.12-6.94h2.68l.23,13.11h-1.58c-.35,0-.51-.07-.6-.11-.24-.11-.4-.3-.47-.4l-6.32-7.81c.03.34.05.56.06.67.02.33.03.52.03.62l.12,7.03h-2.68l-.23-13.11h1.6Z"/>
      <path class="cls-1" d="M111.87,9.48c.2,0,.29.01.33.02.14.02.21.05.24.07.11.05.18.11.21.14.1.09.19.19.23.24l6.37,7.88c-.04-.38-.06-.62-.07-.73-.02-.36-.03-.57-.03-.67l-.12-6.94h2.68l.23,13.11h-1.58c-.35,0-.51-.07-.6-.11-.24-.11-.4-.3-.47-.4l-6.32-7.81c.03.34.05.56.06.67.02.33.03.52.03.62l.12,7.03h-2.68l-.23-13.11h1.6Z"/>
      <path class="cls-1" d="M127.8,17.58h3.58l-1.27-3.59c-.12-.34-.23-.65-.29-.81-.17-.46-.27-.82-.33-1-.13.55-.23.86-.28,1.02-.14.47-.23.7-.27.81l-1.14,3.57ZM136.31,22.6h-2.36c-.4,0-.57-.12-.66-.18-.26-.18-.33-.38-.36-.47l-.81-2.29h-4.99l-.73,2.29c-.09.25-.26.39-.34.45-.26.2-.51.2-.64.2h-2.38l4.85-13.11h3.11l5.3,13.11Z"/>
      <path class="cls-1" d="M142.97,20.4c.63,0,.95-.07,1.11-.11.48-.11.77-.23.91-.29l-.03-1.99h-1.3c-.29,0-.4-.1-.45-.15-.16-.15-.17-.31-.17-.39l-.03-1.67h4.66l.1,5.54c-.5.37-.86.55-1.04.63-.54.27-.95.38-1.15.44-.61.17-1.08.23-1.31.25-.7.08-1.23.08-1.5.08-1.44,0-2.26-.34-2.67-.51-1.23-.51-1.84-1.11-2.14-1.4-.91-.9-1.26-1.71-1.44-2.12-.53-1.23-.55-2.19-.56-2.67-.03-1.47.28-2.29.44-2.7.46-1.23,1.06-1.82,1.35-2.12.89-.89,1.74-1.22,2.16-1.39,1.27-.49,2.33-.49,2.86-.49.82,0,1.3.09,1.54.13.72.14,1.13.29,1.33.37.61.23.95.45,1.12.56.51.32.78.58.91.7l-.86,1.34c-.12.19-.24.26-.3.3-.17.11-.31.11-.38.11-.27,0-.46-.12-.56-.18-.36-.22-.58-.32-.69-.37-.32-.16-.55-.22-.66-.26-.33-.1-.58-.13-.7-.14-.37-.05-.68-.05-.83-.05-.85,0-1.31.2-1.53.3-.68.3-.99.67-1.15.85-.47.55-.64,1.06-.72,1.32-.25.77-.24,1.4-.23,1.71.02,1.04.22,1.58.32,1.85.3.81.65,1.18.82,1.37.52.56.99.75,1.22.85.7.29,1.25.29,1.53.29Z"/>
      <polygon class="cls-1" points="157.86 9.48 157.91 11.82 152.52 11.82 152.58 14.88 156.7 14.88 156.74 17.13 152.62 17.13 152.67 20.26 158.05 20.26 158.09 22.6 149.65 22.6 149.42 9.48 157.86 9.48"/>
      <path class="cls-1" d="M60.35,37.52h1.58c1.19,0,1.53-.38,1.7-.57.51-.57.5-1.24.49-1.58,0-.45-.1-.7-.15-.82-.14-.37-.33-.55-.42-.63-.28-.27-.56-.36-.7-.41-.42-.14-.81-.14-1-.14h-1.58l.07,4.16ZM60.39,39.81l.08,4.38h-3.04l-.23-13.11h4.63c1.39,0,2.05.22,2.39.33,1,.33,1.44.71,1.65.9.65.58.87,1.1.97,1.36.32.78.33,1.39.34,1.69.02.98-.18,1.53-.28,1.8-.3.82-.73,1.21-.94,1.4-.64.58-1.3.8-1.63.91-.99.33-1.89.33-2.35.33h-1.58Z"/>
      <path class="cls-1" d="M78.62,37.64c-.02-.97-.19-1.49-.28-1.75-.27-.78-.59-1.14-.75-1.32-.48-.54-.94-.73-1.17-.83-.69-.29-1.27-.29-1.56-.29-.88,0-1.34.19-1.57.29-.68.29-.99.65-1.15.83-.46.54-.62,1.06-.7,1.32-.24.78-.23,1.43-.22,1.75.02.98.19,1.5.28,1.76.27.78.59,1.14.75,1.32.48.54.94.73,1.18.82.69.28,1.28.28,1.58.28.87,0,1.33-.19,1.55-.28.68-.28.99-.64,1.14-.82.46-.54.62-1.06.7-1.32.24-.78.23-1.43.22-1.76ZM81.73,37.64c.02,1.42-.29,2.24-.44,2.65-.47,1.22-1.05,1.83-1.34,2.13-.88.9-1.71,1.25-2.12,1.42-1.25.51-2.27.51-2.78.51-1.53,0-2.38-.34-2.8-.51-1.27-.51-1.88-1.12-2.18-1.42-.91-.9-1.25-1.72-1.42-2.13-.51-1.22-.53-2.17-.54-2.65-.02-1.42.29-2.24.44-2.65.47-1.22,1.06-1.82,1.35-2.12.88-.9,1.71-1.24,2.13-1.41,1.25-.51,2.27-.51,2.78-.51,1.53,0,2.37.35,2.79.52,1.26.52,1.87,1.12,2.17,1.42.91.9,1.25,1.72,1.42,2.12.51,1.22.53,2.17.54,2.64Z"/>
      <path class="cls-1" d="M89.9,38.2c.19.34.3.59.36.71.17.37.28.63.33.76.15-.4.26-.64.31-.77.16-.37.28-.61.34-.72l3.25-6.62c.09-.17.15-.23.18-.27.09-.09.17-.12.21-.14.12-.05.22-.05.26-.05.15,0,.28,0,.35,0h2.32l.23,13.11h-2.68l-.13-7.54c0-.55.02-.98.03-1.19l-3.36,6.74c-.16.32-.34.42-.43.48-.27.16-.51.16-.62.16h-.41c-.35,0-.54-.11-.63-.16-.28-.16-.39-.37-.44-.48l-3.61-6.75c.04.32.06.52.06.63.02.31.03.48.03.57l.13,7.54h-2.68l-.23-13.11h2.32c.2,0,.3,0,.35,0,.15,0,.23.04.27.05.12.04.18.11.21.14.1.09.16.21.19.27l3.49,6.65Z"/>
      <path class="cls-1" d="M103.13,37.52h1.58c1.19,0,1.53-.38,1.7-.57.51-.57.5-1.24.49-1.58,0-.45-.1-.7-.15-.82-.14-.37-.33-.55-.42-.63-.28-.27-.56-.36-.7-.41-.42-.14-.81-.14-1-.14h-1.58l.07,4.16ZM103.17,39.81l.08,4.38h-3.04l-.23-13.11h4.63c1.39,0,2.05.22,2.39.33,1,.33,1.44.71,1.65.9.65.58.87,1.1.97,1.36.32.78.33,1.39.34,1.69.02.98-.18,1.53-.28,1.8-.3.82-.73,1.21-.94,1.4-.64.58-1.3.8-1.63.91-.99.33-1.89.33-2.35.33h-1.58Z"/>
      <polygon class="cls-1" points="119.9 31.08 119.94 33.42 114.56 33.42 114.62 36.48 118.74 36.48 118.78 38.73 114.65 38.73 114.71 41.86 120.09 41.86 120.13 44.2 111.69 44.2 111.46 31.08 119.9 31.08"/>
      <path class="cls-1" d="M130.46,35.68c0-.32,0-.56.01-.68.02-.36.04-.62.05-.75l-3.38,4.85h3.38l-.06-3.42ZM132.95,39.1h1.35l.03,1.57c0,.21-.09.31-.13.36-.14.15-.31.15-.4.15h-.81l.05,3.02h-2.43l-.05-3.02h-5.27c-.26,0-.4-.11-.48-.16-.21-.16-.25-.32-.27-.4l-.31-1.38,5.92-8.15h2.66l.14,8.02Z"/>
      <path class="cls-1" d="M139.78,36.37c.47,0,.66-.1.76-.15.29-.15.41-.32.46-.4.17-.25.2-.47.22-.58.06-.32.05-.55.05-.67,0-.31-.06-.5-.09-.59-.09-.29-.21-.43-.27-.51-.19-.22-.38-.31-.48-.36-.29-.13-.57-.13-.71-.13-.42,0-.61.09-.71.13-.29.14-.41.28-.47.36-.18.22-.23.41-.26.51-.08.29-.07.49-.07.59,0,.34.05.56.07.67.07.32.19.49.24.58.18.25.38.35.48.4.3.15.61.15.77.15ZM139.88,42.23c.47,0,.69-.1.81-.14.34-.14.48-.31.56-.39.22-.25.28-.47.31-.58.1-.34.09-.6.09-.72,0-.42-.07-.66-.1-.77-.1-.35-.24-.52-.31-.6-.21-.25-.44-.34-.56-.39-.35-.14-.69-.14-.86-.14-.51,0-.74.09-.86.14-.34.14-.48.3-.55.39-.2.25-.26.48-.29.6-.08.35-.08.63-.08.77,0,.39.08.61.12.72.11.34.26.5.33.58.22.25.45.34.56.39.34.14.66.14.82.14ZM139.92,44.34c-1.04,0-1.62-.19-1.91-.28-.87-.28-1.29-.62-1.49-.79-.63-.51-.86-.99-.98-1.23-.35-.72-.36-1.31-.37-1.6,0-.53.07-.85.1-1,.11-.47.29-.73.37-.86.26-.39.53-.6.67-.7.41-.31.81-.44,1-.51-.91-.4-1.21-.89-1.36-1.12-.45-.72-.46-1.39-.47-1.73-.01-.77.19-1.2.29-1.42.3-.65.68-.97.86-1.13.56-.48,1.07-.66,1.33-.75.77-.27,1.39-.27,1.7-.27.93,0,1.45.18,1.71.27.78.27,1.17.59,1.36.75.58.48.79.91.9,1.13.33.65.34,1.16.34,1.42.02,1.01-.27,1.49-.41,1.73-.43.72-1.02.99-1.31,1.12.59.21.87.41,1.01.51.42.31.61.57.7.7.27.39.36.71.41.86.13.47.14.83.14,1,.02.88-.2,1.36-.31,1.6-.32.72-.73,1.06-.93,1.23-.61.51-1.18.69-1.47.79-.86.28-1.56.28-1.9.28Z"/>
      <polygon class="cls-1" points="157.66 44.2 154.6 44.2 154.51 38.65 149.18 38.65 149.27 44.2 146.21 44.2 145.99 31.08 149.05 31.08 149.14 36.56 154.47 36.56 154.37 31.08 157.43 31.08 157.66 44.2"/>
    </g>
  </g>
</svg>
