<?xml version="1.0" encoding="UTF-8"?>
<svg xmlns="http://www.w3.org/2000/svg" id="Calque_2" data-name="Calque 2" viewBox="0 0 167.59 56.65" preserveAspectRatio="none" width="167.59" height="56.65">
  <defs>
    <style>
      .cls-1 {
        fill: #fff;
      }

      .cls-2 {
        fill: #ee7c3b;
      }
    </style>
  </defs>
  <g id="Calque_1-2" data-name="Calque 1">
    <g>
      <rect class="cls-2" width="167.59" height="56.65"/>
      <polygon class="cls-1" points="57.66 10.19 57.7 12.53 52.32 12.53 52.38 15.85 56.86 15.85 56.9 18.2 52.42 18.2 52.51 23.31 49.45 23.31 49.22 10.19 57.66 10.19"/>
      <path class="cls-1" d="M69.19,16.74c-.02-.97-.19-1.49-.28-1.75-.27-.78-.59-1.14-.75-1.32-.48-.54-.94-.73-1.17-.83-.69-.29-1.27-.29-1.56-.29-.88,0-1.34.19-1.57.29-.68.29-.99.65-1.15.83-.46.54-.62,1.06-.7,1.32-.24.78-.23,1.43-.22,1.75.02.98.19,1.5.28,1.76.27.78.59,1.14.75,1.32.48.54.94.73,1.18.82.69.28,1.28.28,1.58.28.87,0,1.33-.19,1.55-.28.68-.28.99-.64,1.14-.82.46-.54.62-1.06.7-1.32.24-.78.23-1.43.22-1.76ZM72.3,16.74c.02,1.42-.29,2.24-.44,2.65-.47,1.22-1.05,1.83-1.34,2.13-.88.9-1.71,1.25-2.12,1.42-1.25.51-2.27.51-2.78.51-1.53,0-2.38-.34-2.8-.51-1.27-.51-1.88-1.12-2.18-1.42-.91-.9-1.25-1.72-1.42-2.13-.51-1.22-.53-2.17-.54-2.65-.02-1.42.29-2.24.44-2.65.47-1.22,1.06-1.82,1.35-2.12.88-.9,1.71-1.24,2.13-1.41,1.25-.51,2.27-.51,2.78-.51,1.53,0,2.37.35,2.79.52,1.26.52,1.87,1.12,2.17,1.42.91.9,1.25,1.72,1.42,2.12.51,1.22.53,2.17.54,2.64Z"/>
      <path class="cls-1" d="M76.8,16.36h1.22c.62,0,.91-.1,1.05-.16.43-.16.62-.34.71-.44.27-.28.35-.53.39-.65.12-.37.11-.66.11-.81-.02-.86-.4-1.19-.59-1.35-.57-.49-1.36-.49-1.75-.49h-1.22l.07,3.89ZM76.83,18.45l.08,4.85h-3.04l-.23-13.11h4.27c1.42,0,2.09.2,2.43.29,1.01.29,1.44.64,1.65.81.64.52.84,1,.94,1.23.3.71.31,1.27.32,1.55.01.64-.1,1.02-.15,1.21-.16.57-.38.89-.49,1.05-.33.48-.65.73-.81.86-.48.38-.91.54-1.12.62.31.15.49.3.58.38.27.23.41.44.47.55l2.87,4.56h-2.75c-.76,0-.99-.38-1.11-.58l-2.24-3.81c-.15-.25-.28-.32-.34-.36-.2-.11-.43-.11-.55-.11h-.77Z"/>
      <path class="cls-1" d="M92.45,17.31c.19.34.3.59.36.71.17.37.28.63.33.76.15-.4.26-.65.31-.77.16-.37.28-.61.34-.72l3.25-6.62c.09-.17.15-.23.18-.27.09-.09.17-.12.21-.14.12-.04.22-.05.26-.05.15,0,.28,0,.35,0h2.32l.23,13.11h-2.68l-.13-7.54c0-.55.02-.97.03-1.19l-3.36,6.74c-.16.32-.34.42-.43.48-.27.16-.51.16-.62.16h-.41c-.35,0-.54-.11-.63-.16-.28-.16-.39-.37-.44-.48l-3.61-6.75c.04.32.06.52.06.63.02.31.03.48.03.57l.13,7.54h-2.68l-.23-13.11h2.32c.2,0,.3,0,.35,0,.15,0,.23.04.27.05.12.04.18.11.21.14.1.09.16.21.19.27l3.49,6.65Z"/>
      <path class="cls-1" d="M106.44,18.29h3.58l-1.27-3.59c-.12-.34-.23-.65-.29-.81-.17-.46-.27-.82-.33-1-.13.55-.23.86-.28,1.02-.14.47-.23.7-.27.81l-1.14,3.57ZM114.95,23.31h-2.36c-.4,0-.57-.12-.66-.18-.26-.18-.33-.38-.36-.47l-.81-2.29h-4.99l-.73,2.29c-.09.25-.26.39-.34.45-.26.2-.51.2-.64.2h-2.38l4.85-13.11h3.11l5.3,13.11Z"/>
      <polygon class="cls-1" points="123.87 10.19 123.91 12.6 120.22 12.6 120.41 23.31 117.36 23.31 117.18 12.6 113.49 12.6 113.45 10.19 123.87 10.19"/>
      <polygon class="cls-1" points="128.69 23.31 125.63 23.31 125.4 10.19 128.46 10.19 128.69 23.31"/>
      <path class="cls-1" d="M140.83,16.74c-.02-.97-.19-1.49-.28-1.75-.27-.78-.59-1.14-.75-1.32-.48-.54-.94-.73-1.17-.83-.69-.29-1.27-.29-1.56-.29-.88,0-1.34.19-1.57.29-.68.29-.99.65-1.15.83-.46.54-.62,1.06-.7,1.32-.24.78-.23,1.43-.22,1.75.02.98.19,1.5.28,1.76.27.78.59,1.14.75,1.32.48.54.94.73,1.18.82.69.28,1.28.28,1.58.28.87,0,1.33-.19,1.55-.28.68-.28.99-.64,1.14-.82.46-.54.62-1.06.7-1.32.24-.78.23-1.43.22-1.76ZM143.94,16.74c.02,1.42-.29,2.24-.44,2.65-.47,1.22-1.05,1.83-1.34,2.13-.88.9-1.71,1.25-2.12,1.42-1.25.51-2.27.51-2.78.51-1.53,0-2.38-.34-2.8-.51-1.27-.51-1.88-1.12-2.18-1.42-.91-.9-1.25-1.72-1.42-2.13-.51-1.22-.53-2.17-.54-2.65-.02-1.42.29-2.24.44-2.65.47-1.22,1.06-1.82,1.35-2.12.88-.9,1.71-1.24,2.13-1.41,1.25-.51,2.27-.51,2.78-.51,1.53,0,2.37.35,2.79.52,1.26.52,1.87,1.12,2.17,1.42.91.9,1.25,1.72,1.42,2.12.51,1.22.53,2.17.54,2.64Z"/>
      <path class="cls-1" d="M146.89,10.19c.2,0,.29.01.33.02.14.02.21.05.24.07.11.05.18.11.21.14.1.09.19.19.23.24l6.37,7.88c-.04-.38-.06-.61-.07-.73-.02-.36-.03-.57-.03-.67l-.12-6.94h2.68l.23,13.11h-1.58c-.35,0-.51-.07-.6-.11-.24-.11-.4-.3-.47-.4l-6.32-7.81c.03.34.05.56.06.67.02.33.03.52.03.62l.12,7.03h-2.68l-.23-13.11h1.6Z"/>
      <polygon class="cls-1" points="65.03 31.79 65.07 34.2 61.38 34.2 61.56 44.91 58.52 44.91 58.34 34.2 54.65 34.2 54.6 31.79 65.03 31.79"/>
      <polygon class="cls-1" points="74.73 31.79 74.77 34.13 69.39 34.13 69.44 37.19 73.56 37.19 73.6 39.44 69.48 39.44 69.53 42.57 74.92 42.57 74.96 44.91 66.51 44.91 66.29 31.79 74.73 31.79"/>
      <path class="cls-1" d="M85.44,41.51c.11,0,.18.03.22.04.11.04.18.11.21.14l1.23,1.27c-.77,1.04-1.56,1.39-1.96,1.56-1.18.53-2.27.53-2.81.53-1.49,0-2.29-.34-2.69-.51-1.19-.51-1.75-1.11-2.03-1.4-.84-.9-1.15-1.71-1.3-2.12-.46-1.23-.48-2.19-.49-2.67-.03-1.47.3-2.29.46-2.7.48-1.23,1.08-1.82,1.37-2.12.89-.89,1.72-1.22,2.14-1.39,1.25-.5,2.27-.5,2.77-.5.74,0,1.17.09,1.39.13.65.13,1.04.28,1.23.36.57.23.89.44,1.05.55.48.32.73.58.86.71l-1,1.38c-.1.13-.19.2-.23.23-.13.1-.3.1-.38.1-.16,0-.26-.05-.31-.07-.15-.07-.25-.14-.31-.18-.16-.1-.29-.18-.36-.23-.2-.12-.37-.19-.46-.23-.27-.1-.51-.15-.62-.18-.36-.07-.67-.07-.83-.07-.83,0-1.28.2-1.51.29-.68.29-1,.66-1.16.84-.48.54-.65,1.06-.74,1.32-.26.77-.25,1.42-.24,1.74.02,1.01.21,1.53.31,1.79.29.78.61,1.14.77,1.32.48.54.91.72,1.12.81.63.28,1.11.28,1.35.28.41,0,.64-.03.76-.04.34-.04.54-.11.63-.14.29-.1.47-.2.55-.26.26-.16.44-.31.53-.39.11-.09.19-.13.23-.15.12-.06.21-.06.26-.06Z"/>
      <polygon class="cls-1" points="99.96 44.91 96.9 44.91 96.8 39.36 91.47 39.36 91.57 44.91 88.51 44.91 88.28 31.79 91.34 31.79 91.44 37.27 96.77 37.27 96.67 31.79 99.73 31.79 99.96 44.91"/>
      <path class="cls-1" d="M103.49,31.79c.2,0,.29.01.33.02.14.02.21.05.24.07.11.05.18.11.21.14.1.09.19.19.23.24l6.37,7.88c-.04-.38-.06-.61-.07-.73-.02-.36-.03-.57-.03-.67l-.12-6.94h2.68l.23,13.11h-1.58c-.35,0-.51-.07-.6-.11-.24-.11-.4-.3-.47-.4l-6.32-7.81c.03.34.05.56.06.67.02.33.03.52.03.62l.12,7.03h-2.68l-.23-13.11h1.6Z"/>
      <polygon class="cls-1" points="119.06 44.91 116 44.91 115.77 31.79 118.83 31.79 119.06 44.91"/>
      <path class="cls-1" d="M131.2,38.34c-.02-.97-.19-1.49-.28-1.75-.27-.78-.59-1.14-.75-1.32-.48-.54-.94-.73-1.17-.83-.69-.29-1.27-.29-1.56-.29-.88,0-1.34.19-1.57.29-.68.29-.99.65-1.15.83-.46.54-.62,1.06-.7,1.32-.24.78-.23,1.43-.22,1.75.02.98.19,1.5.28,1.76.27.78.59,1.14.75,1.32.48.54.94.73,1.18.82.69.28,1.28.28,1.58.28.87,0,1.33-.19,1.55-.28.68-.28.99-.64,1.14-.82.46-.54.62-1.06.7-1.32.24-.78.23-1.43.22-1.76ZM134.31,38.34c.01.85-.09,1.37-.15,1.62-.16.78-.37,1.23-.48,1.46-.32.68-.63,1.07-.79,1.27-.47.59-.87.88-1.08,1.04l3.38,3.63h-2.5c-.54,0-.84-.09-.98-.13-.44-.13-.68-.39-.79-.53l-1.66-1.83c-.39.08-.67.11-.8.13-.41.04-.7.04-.84.04-1.53,0-2.38-.34-2.8-.51-1.27-.51-1.88-1.12-2.18-1.42-.91-.9-1.25-1.72-1.42-2.13-.51-1.22-.53-2.17-.54-2.65-.02-1.42.29-2.24.44-2.65.47-1.22,1.06-1.82,1.35-2.12.88-.9,1.71-1.24,2.13-1.41,1.25-.51,2.27-.51,2.78-.51,1.53,0,2.37.35,2.79.52,1.26.52,1.87,1.12,2.17,1.42.91.9,1.25,1.72,1.42,2.12.51,1.22.53,2.17.54,2.64Z"/>
      <path class="cls-1" d="M141.3,42.5c.61,0,.93-.13,1.09-.2.48-.2.7-.45.8-.58.33-.38.44-.74.49-.92.17-.54.16-1.01.15-1.24l-.14-7.77h3.04l.14,7.77c.02,1.21-.23,1.88-.35,2.21-.37,1.01-.85,1.49-1.09,1.74-.72.73-1.41,1-1.75,1.13-1.04.4-1.91.4-2.34.4-1.31,0-2.01-.27-2.37-.4-1.05-.4-1.55-.89-1.79-1.13-.74-.73-1.01-1.4-1.15-1.74-.4-1.01-.42-1.81-.43-2.21l-.14-7.77h3.04l.14,7.76c.01.69.14,1.06.2,1.24.18.54.41.8.52.93.34.38.66.52.82.59.49.2.89.2,1.1.2Z"/>
      <polygon class="cls-1" points="157.17 31.79 157.21 34.13 151.83 34.13 151.88 37.19 156 37.19 156.04 39.44 151.92 39.44 151.97 42.57 157.36 42.57 157.4 44.91 148.95 44.91 148.73 31.79 157.17 31.79"/>
    </g>
  </g>
</svg>
