<?xml version="1.0" encoding="UTF-8"?>
<svg xmlns="http://www.w3.org/2000/svg" id="Calque_2" data-name="Calque 2" viewBox="0 0 187.41 56.65" preserveAspectRatio="none" width="187.41" height="56.65">
  <defs>
    <style>
      .cls-1 {
        fill: #fff;
      }

      .cls-2 {
        fill: #ee7c3b;
      }
    </style>
  </defs>
  <g id="Calque_1-2" data-name="Calque 1">
    <g>
      <rect class="cls-2" x="0" y="0" width="187.41" height="56.65"/>
      <polygon class="cls-1" points="85.85 20.17 90.71 20.17 90.76 22.6 82.85 22.6 82.63 9.48 85.67 9.48 85.85 20.17"/>
      <polygon class="cls-1" points="95.53 22.6 92.47 22.6 92.24 9.48 95.3 9.48 95.53 22.6"/>
      <path class="cls-1" d="M96.65,9.48h2.45c.4,0,.57.12.65.18.26.18.33.38.37.48l2.66,7.02c.18.46.3.82.36,1,.18.54.29.94.35,1.13.12-.59.22-.95.27-1.13.16-.54.26-.85.31-1l2.4-7.02c.09-.25.26-.39.34-.45.26-.2.51-.2.64-.2h2.47l-5.03,13.11h-2.75l-5.48-13.11Z"/>
      <path class="cls-1" d="M114.14,15.65h1.22c.62,0,.91-.1,1.05-.16.43-.16.62-.34.71-.44.27-.28.35-.53.39-.65.12-.37.11-.66.11-.81-.02-.86-.4-1.19-.59-1.35-.57-.49-1.36-.49-1.75-.49h-1.22l.07,3.89ZM114.18,17.75l.08,4.85h-3.04l-.23-13.11h4.27c1.42,0,2.09.19,2.43.29,1.01.29,1.44.64,1.65.81.64.52.84,1,.94,1.23.3.71.31,1.27.32,1.55.01.64-.1,1.02-.15,1.21-.16.57-.38.89-.49,1.05-.33.48-.65.73-.81.86-.48.38-.91.54-1.12.62.31.15.49.3.58.38.27.22.41.44.47.55l2.87,4.56h-2.75c-.77,0-.99-.38-1.11-.58l-2.24-3.81c-.15-.25-.28-.32-.34-.36-.2-.11-.43-.11-.55-.11h-.77Z"/>
      <path class="cls-1" d="M126.88,17.58h3.58l-1.27-3.59c-.12-.34-.23-.65-.29-.81-.17-.46-.27-.82-.33-1-.13.55-.23.86-.28,1.02-.14.47-.23.7-.27.81l-1.14,3.57ZM135.4,22.6h-2.36c-.4,0-.57-.12-.66-.18-.26-.18-.33-.38-.36-.47l-.81-2.29h-4.99l-.73,2.29c-.09.25-.26.39-.34.45-.26.2-.51.2-.64.2h-2.38l4.85-13.11h3.11l5.3,13.11Z"/>
      <polygon class="cls-1" points="139.79 22.6 136.73 22.6 136.5 9.48 139.56 9.48 139.79 22.6"/>
      <path class="cls-1" d="M149.34,12.15c-.13.22-.23.29-.28.32-.15.11-.3.11-.38.11-.21,0-.37-.09-.45-.13-.24-.13-.44-.24-.55-.29-.3-.16-.56-.25-.69-.29-.39-.13-.72-.13-.88-.13-.86,0-1.13.24-1.27.36-.41.36-.4.78-.4.99,0,.4.18.57.26.66.26.26.53.39.67.45.41.19.77.29.94.35.53.16.9.29,1.08.35.55.19.91.37,1.08.45.53.26.81.53.95.67.42.41.59.79.68.99.26.58.27,1.13.28,1.4.02.91-.18,1.44-.29,1.7-.3.79-.69,1.18-.89,1.38-.59.59-1.17.81-1.46.93-.87.34-1.62.34-1.99.34-.61,0-1.04-.08-1.25-.13-.64-.13-1.04-.28-1.23-.36-.6-.23-.95-.44-1.13-.54-.53-.32-.79-.57-.92-.7l.88-1.42c.1-.16.22-.23.27-.26.18-.1.32-.1.39-.1.27,0,.45.11.55.17.28.17.51.31.63.38.35.21.65.32.8.38.45.17.86.17,1.07.17.83,0,1.13-.24,1.28-.36.45-.36.44-.89.44-1.16,0-.46-.18-.65-.27-.75-.26-.29-.53-.41-.67-.48-.41-.19-.76-.28-.94-.33-.52-.14-.89-.26-1.08-.32-.55-.18-.9-.35-1.08-.43-.53-.26-.8-.54-.94-.68-.42-.42-.59-.84-.68-1.04-.26-.63-.27-1.24-.28-1.54-.01-.74.18-1.21.27-1.44.28-.7.66-1.07.85-1.25.57-.55,1.12-.77,1.4-.88.83-.33,1.55-.33,1.91-.33.6,0,.99.06,1.18.09.57.09.92.22,1.09.28.52.18.82.36.97.44.45.26.69.47.81.58l-.73,1.41Z"/>
      <path class="cls-1" d="M161.69,16.04c-.02-.97-.19-1.49-.28-1.75-.27-.78-.59-1.14-.75-1.32-.48-.54-.94-.73-1.17-.83-.69-.29-1.27-.29-1.56-.29-.88,0-1.34.19-1.57.29-.68.29-.99.65-1.15.83-.46.54-.62,1.06-.7,1.32-.24.78-.23,1.43-.22,1.75.02.98.19,1.5.28,1.76.27.78.59,1.14.75,1.32.48.54.94.73,1.18.82.69.28,1.28.28,1.58.28.87,0,1.33-.19,1.55-.28.68-.28.99-.64,1.14-.82.46-.54.62-1.06.7-1.32.24-.78.23-1.43.22-1.76ZM164.8,16.04c.02,1.42-.29,2.24-.44,2.65-.47,1.22-1.05,1.83-1.34,2.13-.88.9-1.71,1.25-2.12,1.42-1.25.51-2.27.51-2.78.51-1.53,0-2.38-.34-2.8-.51-1.27-.51-1.88-1.12-2.18-1.42-.91-.9-1.25-1.72-1.42-2.13-.51-1.22-.53-2.17-.54-2.65-.02-1.42.29-2.24.44-2.65.47-1.22,1.06-1.82,1.35-2.12.88-.9,1.71-1.24,2.13-1.41,1.25-.51,2.27-.51,2.78-.51,1.53,0,2.37.35,2.79.52,1.26.52,1.87,1.12,2.17,1.42.91.9,1.25,1.72,1.42,2.12.51,1.22.53,2.17.54,2.64Z"/>
      <path class="cls-1" d="M167.75,9.48c.2,0,.29.01.33.02.14.02.21.05.24.07.11.05.18.11.21.14.1.09.19.19.23.24l6.37,7.88c-.04-.38-.06-.61-.07-.73-.02-.36-.03-.57-.03-.67l-.12-6.94h2.68l.23,13.11h-1.58c-.35,0-.51-.07-.6-.11-.24-.11-.4-.3-.47-.4l-6.32-7.81c.03.34.05.56.06.67.02.33.03.52.03.62l.12,7.03h-2.68l-.23-13.11h1.6Z"/>
      <path class="cls-1" d="M121.52,30.94c.97,0,1.49.19,1.76.28.78.28,1.16.62,1.34.79.56.5.76.97.86,1.2.3.7.31,1.26.32,1.53.01.72-.12,1.13-.18,1.33-.19.61-.42.98-.53,1.17-.34.55-.64.9-.8,1.07-.45.52-.8.87-.97,1.05l-2.52,2.63c.49-.14.81-.2.97-.23.48-.09.76-.09.9-.09h2.45c.45,0,.63.17.72.25.27.25.27.52.27.65l.03,1.62h-9.22l-.02-.9c0-.26.06-.46.1-.56.1-.3.28-.46.37-.54l3.71-3.81c.48-.49.71-.78.83-.93.35-.44.5-.73.58-.87.23-.43.3-.71.34-.85.11-.43.1-.75.1-.9-.01-.78-.27-1.06-.39-1.2-.38-.42-.89-.42-1.15-.42-.32,0-.49.06-.57.09-.26.09-.4.19-.46.24-.2.15-.3.29-.35.36-.14.21-.2.37-.23.45-.14.4-.28.52-.35.58-.22.18-.47.18-.6.18-.09,0-.16,0-.19,0-.1,0-.18-.02-.21-.03l-1.48-.26c.13-.98.39-1.47.52-1.71.4-.73.8-1.05,1-1.22.6-.49,1.12-.65,1.38-.72.78-.24,1.38-.24,1.68-.24Z"/>
      <path class="cls-1" d="M132.98,35.68c0-.32,0-.56.01-.68.02-.36.04-.62.05-.75l-3.38,4.85h3.38l-.06-3.42ZM135.47,39.1h1.35l.03,1.57c0,.21-.09.31-.13.36-.14.15-.31.15-.4.15h-.81l.05,3.02h-2.43l-.05-3.02h-5.27c-.26,0-.4-.11-.48-.16-.21-.16-.25-.32-.27-.4l-.31-1.38,5.92-8.15h2.66l.14,8.02Z"/>
      <path class="cls-1" d="M139.64,44.09c-.09.24-.2.37-.25.43-.15.19-.28.27-.35.32-.19.13-.34.17-.41.19-.22.06-.36.06-.44.06h-1.19l4.88-13.42c.17-.46.42-.62.54-.7.36-.24.69-.24.85-.24h1.19l-4.82,13.37Z"/>
      <path class="cls-1" d="M150.62,35.68c0-.32,0-.56.01-.68.02-.36.04-.62.05-.75l-3.38,4.85h3.38l-.06-3.42ZM153.11,39.1h1.35l.03,1.57c0,.21-.09.31-.13.36-.14.15-.31.15-.4.15h-.81l.05,3.02h-2.43l-.05-3.02h-5.27c-.26,0-.4-.11-.48-.16-.21-.16-.25-.32-.27-.4l-.31-1.38,5.92-8.15h2.66l.14,8.02Z"/>
      <path class="cls-1" d="M159.94,36.37c.47,0,.66-.1.76-.15.29-.15.41-.32.46-.41.17-.25.2-.47.22-.58.06-.32.05-.55.05-.67,0-.31-.06-.5-.09-.59-.09-.29-.21-.43-.27-.51-.19-.22-.38-.31-.48-.36-.29-.14-.57-.14-.71-.14-.42,0-.61.09-.71.14-.29.14-.41.28-.47.36-.18.22-.23.41-.26.51-.08.29-.07.49-.07.59,0,.34.05.56.07.67.07.32.19.49.24.58.18.25.38.35.48.41.3.15.61.15.77.15ZM160.04,42.24c.47,0,.69-.1.81-.14.34-.14.48-.31.56-.39.22-.25.28-.47.31-.59.1-.34.09-.6.09-.72,0-.42-.07-.66-.1-.77-.1-.35-.24-.52-.31-.6-.21-.25-.44-.34-.56-.39-.35-.14-.69-.14-.86-.14-.51,0-.74.09-.86.14-.34.14-.48.3-.55.39-.2.25-.26.48-.29.6-.08.35-.08.63-.08.77,0,.39.08.61.12.72.11.34.26.5.33.59.22.25.45.34.56.39.34.14.66.14.82.14ZM160.08,44.34c-1.04,0-1.62-.19-1.91-.28-.87-.28-1.29-.62-1.49-.79-.63-.51-.86-.99-.98-1.23-.35-.72-.36-1.31-.37-1.6,0-.53.07-.85.1-1,.11-.47.29-.73.37-.86.26-.39.53-.6.67-.7.41-.31.81-.44,1-.51-.91-.41-1.21-.89-1.36-1.12-.45-.72-.46-1.39-.47-1.73-.01-.76.19-1.2.29-1.42.3-.65.68-.97.86-1.13.56-.48,1.07-.66,1.33-.75.77-.27,1.39-.27,1.7-.27.93,0,1.45.18,1.71.27.78.27,1.17.59,1.36.75.58.48.79.91.9,1.13.33.65.34,1.16.34,1.42.02,1.01-.27,1.49-.41,1.73-.43.72-1.02.99-1.31,1.12.59.21.87.41,1.01.51.42.31.61.57.7.7.27.39.36.71.41.86.13.47.14.83.14,1,.02.88-.2,1.36-.31,1.6-.32.72-.73,1.06-.93,1.23-.61.51-1.18.69-1.47.79-.86.28-1.56.28-1.9.28Z"/>
      <polygon class="cls-1" points="177.82 44.2 174.76 44.2 174.67 38.65 169.34 38.65 169.43 44.2 166.37 44.2 166.15 31.08 169.21 31.08 169.3 36.57 174.63 36.57 174.53 31.08 177.59 31.08 177.82 44.2"/>
    </g>
  </g>
</svg>
