<?xml version="1.0" encoding="UTF-8"?>
<svg xmlns="http://www.w3.org/2000/svg" id="Calque_2" data-name="Calque 2" viewBox="0 0 187.4 56.65" preserveAspectRatio="none" width="187.4" height="56.65">
  <defs>
    <style>
      .cls-1 {
        fill: #fff;
      }

      .cls-2 {
        fill: #ee7c3b;
      }
    </style>
  </defs>
  <g id="Calque_1-2" data-name="Calque 1">
    <g>
      <rect class="cls-2" x="0" width="187.4" height="56.65"/>
      <path class="cls-1" d="M134.13,16.04c-.02-.97-.19-1.49-.28-1.76-.27-.78-.59-1.15-.75-1.33-.48-.54-.94-.74-1.17-.84-.69-.29-1.27-.29-1.56-.29h-2.03l.15,8.43h2.03c.87,0,1.33-.2,1.55-.29.68-.29.99-.66,1.14-.84.46-.54.62-1.07.7-1.33.24-.78.23-1.44.22-1.76ZM137.24,16.04c.02,1.42-.29,2.22-.44,2.62-.47,1.2-1.05,1.79-1.35,2.08-.88.88-1.71,1.2-2.12,1.37-1.25.49-2.27.49-2.78.49h-5.09l-.23-13.11h5.09c1.53,0,2.37.33,2.79.49,1.26.5,1.87,1.08,2.17,1.37.91.87,1.25,1.67,1.42,2.07.51,1.2.53,2.14.54,2.61Z"/>
      <path class="cls-1" d="M141.74,15.65h1.22c.62,0,.91-.11,1.05-.16.43-.16.62-.34.71-.44.27-.28.35-.53.39-.65.12-.37.11-.66.11-.81-.02-.86-.4-1.19-.59-1.35-.57-.49-1.36-.49-1.75-.49h-1.22l.07,3.89ZM141.77,17.75l.08,4.85h-3.04l-.23-13.11h4.27c1.42,0,2.09.2,2.43.29,1.01.29,1.44.64,1.65.81.64.52.84,1,.94,1.23.3.71.31,1.27.32,1.55.01.64-.1,1.02-.15,1.21-.16.57-.38.89-.49,1.05-.33.48-.65.73-.81.86-.48.38-.91.54-1.12.62.31.15.49.3.58.38.27.23.41.44.47.55l2.87,4.56h-2.75c-.76,0-.99-.38-1.11-.58l-2.24-3.81c-.15-.25-.28-.32-.34-.36-.2-.11-.43-.11-.55-.11h-.77Z"/>
      <polygon class="cls-1" points="154.12 22.6 151.06 22.6 150.83 9.48 153.89 9.48 154.12 22.6"/>
      <path class="cls-1" d="M155.24,9.48h2.45c.4,0,.57.12.65.18.26.18.33.38.37.48l2.66,7.02c.18.46.3.82.36,1,.18.54.29.94.35,1.13.12-.59.22-.95.27-1.13.16-.54.26-.85.31-1l2.4-7.02c.09-.25.26-.39.34-.45.26-.2.51-.2.64-.2h2.47l-5.03,13.11h-2.75l-5.48-13.11Z"/>
      <polygon class="cls-1" points="178.03 9.48 178.07 11.82 172.68 11.82 172.74 14.88 176.86 14.88 176.9 17.13 172.78 17.13 172.83 20.26 178.21 20.26 178.25 22.6 169.81 22.6 169.58 9.48 178.03 9.48"/>
      <path class="cls-1" d="M160.04,30.94c.97,0,1.49.19,1.76.28.78.28,1.16.62,1.34.79.56.5.76.97.86,1.2.3.7.31,1.26.32,1.53.01.72-.12,1.13-.18,1.33-.19.61-.42.98-.53,1.17-.34.55-.64.9-.8,1.07-.45.52-.8.87-.97,1.05l-2.52,2.63c.49-.14.81-.2.97-.23.48-.09.76-.09.9-.09h2.45c.45,0,.63.16.72.25.27.25.27.52.27.65l.03,1.62h-9.22l-.02-.9c0-.26.06-.46.1-.56.1-.3.28-.46.37-.54l3.71-3.81c.48-.49.71-.78.83-.93.35-.44.5-.73.58-.87.23-.43.3-.71.34-.86.11-.43.1-.75.1-.9-.01-.78-.27-1.06-.39-1.2-.38-.42-.89-.42-1.15-.42-.32,0-.49.06-.57.09-.26.09-.4.19-.46.24-.2.15-.3.29-.35.36-.14.21-.2.37-.23.45-.14.4-.28.52-.35.58-.22.18-.47.18-.6.18-.09,0-.16,0-.19,0-.1,0-.18-.02-.21-.03l-1.48-.26c.13-.98.39-1.47.52-1.71.4-.73.8-1.05,1-1.21.6-.49,1.12-.64,1.38-.72.78-.24,1.38-.24,1.68-.24Z"/>
      <polygon class="cls-1" points="177.82 44.2 174.76 44.2 174.67 38.65 169.34 38.65 169.43 44.2 166.37 44.2 166.14 31.08 169.2 31.08 169.3 36.56 174.63 36.56 174.53 31.08 177.59 31.08 177.82 44.2"/>
    </g>
  </g>
</svg>
