<?xml version="1.0" encoding="UTF-8"?>
<svg xmlns="http://www.w3.org/2000/svg" id="Calque_2" viewBox="0 0 10.74 136.36" preserveAspectRatio="none" width="10.74" height="136.36"><defs><style>.cls-1{fill:#fff;stroke-width:0px;}</style></defs><g id="Calque_1-2"><path class="cls-1" d="M8.71,136.36H2.72v-.6c0-.11.02-.19.07-.24.04-.04.12-.07.22-.09l.93-.07c-.42-.21-.74-.46-.98-.76-.24-.3-.35-.66-.35-1.06,0-.17.02-.32.06-.45.04-.13.09-.26.15-.37l.79.14c.1.03.15.09.15.18,0,.06-.02.14-.05.25-.04.11-.06.27-.06.48,0,.37.11.67.32.92.21.24.52.45.93.62h3.82v1.05Z"/><path class="cls-1" d="M.14,127.48l1.53,1.38c.06.06.1.11.13.17.02.05.04.12.04.2v.63l-1.43-.88c-.09-.06-.16-.11-.2-.18-.04-.07-.07-.16-.07-.29v-1.03ZM3.4,129.2c0,.51.15.91.44,1.2.29.29.7.47,1.22.54v-3.26c-.24,0-.47.03-.67.1-.21.07-.38.17-.53.3-.15.13-.26.29-.34.48-.08.19-.12.4-.12.64ZM2.63,129.22c0-.36.06-.69.18-.99.12-.3.29-.57.52-.79.22-.22.5-.39.84-.51.33-.13.71-.19,1.14-.19.17,0,.28.02.33.05.06.04.08.1.08.2v3.99c.38,0,.71-.06.99-.15.28-.09.51-.22.7-.39.19-.17.33-.36.42-.59.09-.23.14-.49.14-.77,0-.26-.03-.49-.09-.68-.06-.19-.13-.36-.2-.5-.07-.14-.14-.25-.2-.34-.06-.09-.09-.18-.09-.24,0-.09.03-.15.1-.2l.38-.3c.16.13.3.29.41.47.11.18.21.38.28.59.07.21.13.42.17.64.04.22.06.44.06.66,0,.41-.07.8-.21,1.15-.14.35-.35.65-.62.91-.27.25-.61.45-1.01.59-.4.14-.86.21-1.37.21-.42,0-.81-.06-1.17-.19-.36-.13-.68-.32-.94-.56-.27-.24-.48-.53-.63-.88-.15-.35-.23-.74-.23-1.17Z"/><path class="cls-1" d="M3.71,121.96c.09.05.13.12.13.22,0,.06-.02.13-.07.2s-.09.17-.14.28c-.06.11-.1.23-.15.38-.05.15-.07.33-.07.53,0,.18.02.34.07.48.04.14.1.26.18.37.08.1.17.18.28.23.1.05.21.08.34.08.15,0,.28-.04.38-.13.1-.09.19-.21.27-.35.07-.15.14-.31.2-.5.06-.19.12-.37.18-.57.06-.2.13-.39.21-.57.08-.19.18-.35.3-.5s.26-.26.44-.35c.17-.09.37-.14.62-.14.28,0,.53.05.77.15.23.1.44.24.61.44.17.19.3.43.4.71.1.28.15.6.15.97,0,.42-.07.8-.2,1.14-.14.34-.31.63-.53.86l-.4-.25c-.05-.03-.09-.07-.12-.11-.03-.04-.04-.1-.04-.17s.03-.15.08-.22c.06-.08.12-.17.18-.28.07-.11.13-.25.18-.41.06-.16.08-.36.08-.6,0-.21-.03-.38-.08-.54-.06-.15-.13-.28-.22-.38-.09-.1-.2-.18-.31-.22-.12-.05-.24-.08-.38-.08-.17,0-.3.05-.41.14-.11.09-.2.2-.28.35-.08.15-.15.31-.2.5-.06.19-.12.38-.18.57-.06.19-.13.38-.21.57-.08.19-.19.35-.31.5-.12.15-.27.26-.45.35-.18.09-.4.13-.66.13-.23,0-.45-.05-.66-.14-.21-.09-.4-.23-.56-.41-.16-.18-.29-.4-.38-.67-.09-.26-.14-.57-.14-.9,0-.39.06-.75.19-1.06.12-.32.29-.59.51-.82l.38.24Z"/><path class="cls-1" d="M3.4,117.86c0,.51.15.91.44,1.2.29.29.7.47,1.22.54v-3.26c-.24,0-.47.03-.67.1-.21.07-.38.17-.53.3-.15.13-.26.29-.34.48-.08.19-.12.4-.12.64ZM2.63,117.89c0-.36.06-.69.18-.99.12-.3.29-.57.52-.79.22-.22.5-.39.84-.51.33-.13.71-.19,1.14-.19.17,0,.28.02.33.05.06.04.08.1.08.2v3.99c.38,0,.71-.06.99-.15.28-.09.51-.22.7-.39.19-.17.33-.36.42-.59.09-.23.14-.49.14-.77,0-.26-.03-.49-.09-.68-.06-.19-.13-.36-.2-.5-.07-.14-.14-.25-.2-.34-.06-.09-.09-.18-.09-.24,0-.09.03-.15.1-.2l.38-.3c.16.13.3.29.41.47.11.18.21.38.28.59.07.21.13.42.17.64.04.22.06.44.06.66,0,.41-.07.8-.21,1.15-.14.35-.35.65-.62.91-.27.25-.61.45-1.01.59-.4.14-.86.21-1.37.21-.42,0-.81-.06-1.17-.19-.36-.13-.68-.32-.94-.56-.27-.24-.48-.53-.63-.88-.15-.35-.23-.74-.23-1.17Z"/><path class="cls-1" d="M8.71,114.06H2.72v-.6c0-.11.02-.19.07-.24.04-.04.12-.07.22-.09l.93-.07c-.42-.21-.74-.46-.98-.76-.24-.3-.35-.66-.35-1.06,0-.17.02-.32.06-.45.04-.13.09-.26.15-.37l.79.14c.1.03.15.09.15.18,0,.06-.02.14-.05.25-.04.11-.06.27-.06.48,0,.37.11.67.32.92.21.24.52.45.93.62h3.82v1.05Z"/><path class="cls-1" d="M2.72,110.05v-.86c0-.08.02-.15.07-.21.04-.06.09-.09.15-.12l3.86-1.52c.14-.06.28-.1.43-.13.14-.03.28-.06.42-.09-.14-.03-.28-.07-.42-.1-.14-.04-.28-.08-.43-.14l-3.86-1.54c-.06-.02-.11-.06-.15-.11-.04-.06-.07-.12-.07-.2v-.82l5.99,2.44v.95l-5.99,2.44Z"/><path class="cls-1" d="M.14,99.28l1.53,1.38c.06.06.1.11.13.17.02.05.04.12.04.2v.63l-1.43-.88c-.09-.06-.16-.11-.2-.18-.04-.07-.07-.16-.07-.29v-1.03ZM3.4,100.99c0,.51.15.91.44,1.2.29.29.7.47,1.22.54v-3.26c-.24,0-.47.03-.67.1-.21.07-.38.17-.53.3-.15.13-.26.29-.34.48-.08.19-.12.4-.12.64ZM2.63,101.02c0-.36.06-.69.18-.99.12-.3.29-.57.52-.79.22-.22.5-.39.84-.51.33-.13.71-.19,1.14-.19.17,0,.28.02.33.05.06.04.08.1.08.2v3.99c.38,0,.71-.06.99-.15.28-.09.51-.22.7-.39.19-.17.33-.36.42-.59.09-.23.14-.49.14-.77,0-.26-.03-.49-.09-.68-.06-.19-.13-.36-.2-.5-.07-.14-.14-.25-.2-.34-.06-.09-.09-.18-.09-.24,0-.09.03-.15.1-.2l.38-.3c.16.13.3.29.41.47.11.18.21.38.28.59.07.21.13.42.17.64.04.22.06.44.06.66,0,.41-.07.8-.21,1.15-.14.35-.35.65-.62.91-.27.25-.61.45-1.01.59-.4.14-.86.21-1.37.21-.42,0-.81-.06-1.17-.19-.36-.13-.68-.32-.94-.56-.27-.24-.48-.53-.63-.88-.15-.35-.23-.74-.23-1.17Z"/><path class="cls-1" d="M8.07,93.24c0-.19-.02-.35-.05-.51-.04-.15-.09-.3-.16-.43-.07-.14-.16-.27-.25-.39-.1-.13-.21-.25-.34-.37h-1.25c.02.49.06.9.12,1.24.06.34.14.62.24.83s.21.37.35.47c.13.09.28.14.45.14s.29-.03.41-.08c.11-.05.21-.12.28-.21.07-.09.12-.19.16-.31.03-.12.05-.25.05-.38ZM8.71,90.51v.47c0,.1-.02.19-.05.25-.03.06-.1.1-.2.12l-.56.12c.14.16.27.31.38.46.11.15.21.31.28.47.07.17.13.34.17.53.04.19.06.39.06.62s-.03.45-.09.66c-.07.2-.17.38-.3.53-.13.15-.29.27-.49.36-.2.09-.44.13-.71.13-.24,0-.46-.07-.68-.2-.22-.13-.42-.34-.59-.63-.17-.29-.31-.67-.41-1.14-.11-.47-.17-1.04-.19-1.72h-.47c-.47,0-.82.1-1.05.3-.24.2-.36.49-.36.88,0,.26.03.47.1.65.06.17.14.33.22.46.08.13.15.24.22.33.06.09.09.18.09.27,0,.07-.02.13-.05.19-.04.05-.09.09-.14.12l-.34.19c-.32-.33-.56-.69-.72-1.07-.16-.38-.24-.81-.24-1.27,0-.34.06-.63.17-.89.11-.26.26-.48.46-.66.2-.18.44-.31.72-.4.28-.09.59-.14.92-.14h3.83Z"/><path class="cls-1" d="M2.72,88h3.82c.45,0,.8-.1,1.05-.31s.37-.52.37-.95c0-.31-.07-.6-.22-.87s-.35-.52-.61-.75H2.72v-1.05h5.99v.63c0,.15-.07.24-.22.28l-.64.08c.29.26.52.55.7.88.17.32.26.69.26,1.11,0,.33-.05.62-.16.87-.11.25-.26.46-.46.63s-.44.3-.72.38c-.28.08-.59.12-.93.12h-3.82v-1.05Z"/><path class="cls-1" d="M5.64,80.93l-2.92,2.02v-1.01c0-.09.01-.15.04-.19.03-.04.07-.07.12-.11l2.25-1.47c-.11-.04-.22-.09-.33-.15l-1.89-1.29c-.06-.04-.1-.08-.13-.12-.04-.04-.05-.09-.05-.15v-.97l2.86,2.02,3.13-2.1v1.01c0,.09-.02.16-.07.21-.05.05-.1.09-.15.12l-2.35,1.51c.11.03.22.07.31.12l2.04,1.4c.06.04.11.08.15.13.04.04.07.1.07.18v.94l-3.07-2.1Z"/><path class="cls-1" d="M3.47,71.42c0,.34.08.64.24.91.16.26.38.49.67.71h2.9c.26-.19.44-.4.55-.63.11-.23.16-.49.16-.77,0-.56-.2-.98-.6-1.28-.4-.3-.97-.45-1.7-.45-.39,0-.73.04-1.01.11-.28.07-.51.17-.69.3-.18.13-.31.29-.4.48-.08.19-.12.4-.12.64ZM10.74,74.09H2.72v-.63c0-.15.07-.24.22-.28l.71-.09c-.31-.26-.56-.55-.75-.88-.19-.33-.28-.71-.28-1.14,0-.34.07-.65.2-.93.13-.28.33-.52.59-.72.26-.2.58-.35.96-.46.38-.11.82-.16,1.32-.16.44,0,.85.06,1.24.18.38.12.71.29.99.51.28.22.49.49.66.82.16.32.24.68.24,1.08,0,.37-.06.69-.18.95-.12.26-.3.49-.52.69h2.65v1.05Z"/><path class="cls-1" d="M8.71,67.56H2.72v-.6c0-.11.02-.19.07-.24.04-.04.12-.07.22-.09l.93-.07c-.42-.21-.74-.46-.98-.76-.24-.3-.35-.66-.35-1.06,0-.17.02-.32.06-.45.04-.13.09-.26.15-.37l.79.14c.1.03.15.09.15.18,0,.06-.02.14-.05.25-.04.11-.06.27-.06.48,0,.37.11.67.32.92.21.24.52.45.93.62h3.82v1.05Z"/><path class="cls-1" d="M7.97,60.36c0-.59-.2-1.03-.59-1.32-.4-.29-.95-.44-1.66-.44s-1.27.15-1.67.44c-.4.29-.6.73-.6,1.32,0,.3.05.56.15.78.1.22.25.41.44.56.19.15.43.26.72.33.28.07.6.11.95.11s.67-.04.95-.11c.28-.07.52-.19.71-.33.19-.15.34-.34.44-.56.1-.22.15-.48.15-.78ZM2.63,60.36c0-.44.07-.83.22-1.18.15-.35.35-.65.62-.9.27-.25.59-.44.98-.57.38-.13.8-.2,1.27-.2s.9.07,1.28.2c.38.13.7.32.97.57.27.24.48.54.62.9.14.35.21.75.21,1.18s-.07.83-.21,1.19c-.15.35-.35.65-.62.9-.27.25-.59.44-.97.57-.38.13-.8.2-1.28.2s-.89-.07-1.27-.2c-.38-.13-.71-.33-.98-.57-.27-.25-.48-.55-.62-.9-.15-.35-.22-.75-.22-1.19Z"/><path class="cls-1" d="M8.71,55.97H3.62l-.08.66c-.02.08-.05.15-.09.21-.04.05-.1.08-.18.08h-.43v-.95h-.58c-.34,0-.65-.05-.91-.14-.27-.1-.49-.24-.67-.41-.19-.18-.33-.4-.42-.65s-.14-.54-.14-.85c0-.27.04-.52.12-.75l.53.02c.08,0,.13.04.14.1.02.06.02.15.02.27v.18c0,.18.02.35.07.5.05.15.12.27.23.38.11.11.25.19.42.25.17.06.39.08.64.08h.55v-1.73h.76v1.7h5.11v1.06Z"/><path class="cls-1" d="M3.4,49.83c0,.51.15.91.44,1.2.29.29.7.47,1.22.54v-3.26c-.24,0-.47.03-.67.1-.21.07-.38.17-.53.3-.15.13-.26.29-.34.48-.08.19-.12.4-.12.64ZM2.63,49.85c0-.36.06-.69.18-.99.12-.3.29-.57.52-.79.22-.22.5-.39.84-.51.33-.13.71-.19,1.14-.19.17,0,.28.02.33.05.06.04.08.1.08.2v3.99c.38,0,.71-.06.99-.15.28-.09.51-.22.7-.39.19-.17.33-.36.42-.59.09-.23.14-.49.14-.77,0-.26-.03-.49-.09-.68-.06-.19-.13-.36-.2-.5-.07-.14-.14-.25-.2-.34-.06-.09-.09-.18-.09-.24,0-.09.03-.15.1-.2l.38-.3c.16.13.3.29.41.47.11.18.21.38.28.59.07.21.13.42.17.64.04.22.06.44.06.66,0,.41-.07.8-.21,1.15-.14.35-.35.65-.62.9-.27.25-.61.45-1.01.59-.4.14-.86.21-1.37.21-.42,0-.81-.06-1.17-.19-.36-.13-.68-.32-.94-.56-.27-.24-.48-.53-.63-.88-.15-.35-.23-.74-.23-1.17Z"/><path class="cls-1" d="M3.71,42.59c.09.05.13.12.13.22,0,.06-.02.13-.07.2-.04.07-.09.17-.14.28-.06.11-.1.23-.15.38-.05.15-.07.33-.07.53,0,.18.02.34.07.48.04.14.1.26.18.37.08.1.17.18.28.23.1.05.21.08.34.08.15,0,.28-.04.38-.13.1-.09.19-.21.27-.35s.14-.31.2-.5c.06-.19.12-.37.18-.57.06-.2.13-.39.21-.57.08-.19.18-.35.3-.5.12-.15.26-.26.44-.35.17-.09.37-.14.62-.14.28,0,.53.05.77.15.23.1.44.24.61.44.17.19.3.43.4.71.1.28.15.6.15.97,0,.42-.07.8-.2,1.14-.14.34-.31.63-.53.86l-.4-.25c-.05-.03-.09-.07-.12-.11-.03-.04-.04-.1-.04-.17s.03-.15.08-.22c.06-.08.12-.17.18-.28.07-.11.13-.25.18-.41.06-.16.08-.36.08-.6,0-.21-.03-.38-.08-.54-.06-.15-.13-.28-.22-.38s-.2-.18-.31-.22c-.12-.05-.24-.08-.38-.08-.17,0-.3.05-.41.14-.11.09-.2.2-.28.35-.08.15-.15.31-.2.5-.06.19-.12.38-.18.57-.06.19-.13.38-.21.57-.08.19-.19.35-.31.5-.12.15-.27.26-.45.35-.18.09-.4.13-.66.13-.23,0-.45-.05-.66-.14-.21-.09-.4-.23-.56-.41-.16-.18-.29-.4-.38-.67-.09-.26-.14-.57-.14-.9,0-.39.06-.75.19-1.06.12-.32.29-.59.51-.82l.38.24Z"/><path class="cls-1" d="M3.71,37.46c.09.05.13.12.13.22,0,.06-.02.13-.07.2-.04.07-.09.17-.14.28-.06.11-.1.23-.15.38-.05.15-.07.33-.07.53,0,.18.02.34.07.48.04.14.1.26.18.37.08.1.17.18.28.23.1.05.21.08.34.08.15,0,.28-.04.38-.13.1-.09.19-.21.27-.35.07-.15.14-.31.2-.5.06-.19.12-.37.18-.57.06-.2.13-.39.21-.57.08-.19.18-.35.3-.5s.26-.26.44-.35c.17-.09.37-.14.62-.14.28,0,.53.05.77.15.23.1.44.24.61.44.17.19.3.43.4.71.1.28.15.6.15.97,0,.42-.07.8-.2,1.14-.14.34-.31.63-.53.86l-.4-.25c-.05-.03-.09-.07-.12-.11-.03-.04-.04-.1-.04-.17s.03-.15.08-.22c.06-.08.12-.17.18-.28.07-.11.13-.25.18-.41.06-.16.08-.36.08-.6,0-.21-.03-.38-.08-.54-.06-.15-.13-.28-.22-.38s-.2-.18-.31-.22c-.12-.05-.24-.08-.38-.08-.17,0-.3.05-.41.14-.11.09-.2.2-.28.35-.08.15-.15.31-.2.5-.06.19-.12.38-.18.57-.06.19-.13.38-.21.57-.08.19-.19.35-.31.5-.12.15-.27.26-.45.35-.18.09-.4.13-.66.13-.23,0-.45-.05-.66-.14-.21-.09-.4-.23-.56-.41-.16-.18-.29-.4-.38-.67-.09-.26-.14-.57-.14-.91,0-.39.06-.75.19-1.06.12-.32.29-.59.51-.82l.38.24Z"/><path class="cls-1" d="M.84,34.35c.1,0,.2.02.29.07.09.04.17.09.24.17.07.07.12.15.16.24.04.09.06.19.06.29s-.02.2-.06.29c-.04.09-.09.17-.16.24-.07.07-.15.12-.24.16-.09.04-.19.06-.29.06s-.2-.02-.29-.06c-.09-.04-.18-.09-.24-.16-.07-.07-.13-.15-.17-.24-.04-.09-.06-.19-.06-.29s.02-.2.06-.29c.04-.09.09-.17.17-.24.07-.07.15-.13.24-.17.09-.04.19-.07.29-.07ZM2.72,34.59h5.99v1.05H2.72v-1.05Z"/><path class="cls-1" d="M7.97,30.3c0-.59-.2-1.03-.59-1.32-.4-.29-.95-.44-1.66-.44s-1.27.15-1.67.44c-.4.29-.6.73-.6,1.32,0,.3.05.56.15.78s.25.41.44.56c.19.15.43.26.72.33.28.07.6.11.95.11s.67-.04.95-.11c.28-.07.52-.19.71-.33.19-.15.34-.34.44-.56.1-.22.15-.48.15-.78ZM2.63,30.3c0-.44.07-.83.22-1.18.15-.35.35-.65.62-.9.27-.25.59-.44.98-.57.38-.13.8-.2,1.27-.2s.9.07,1.28.2c.38.13.7.32.97.57.27.24.48.54.62.9.14.35.21.75.21,1.18s-.07.83-.21,1.19c-.15.35-.35.65-.62.9-.27.25-.59.44-.97.57-.38.13-.8.2-1.28.2s-.89-.07-1.27-.2c-.38-.13-.71-.33-.98-.57-.27-.25-.48-.55-.62-.9-.15-.35-.22-.75-.22-1.19Z"/><path class="cls-1" d="M8.71,26.15H2.72v-.63c0-.15.07-.24.22-.28l.65-.08c-.29-.26-.52-.55-.7-.87-.18-.32-.27-.7-.27-1.12,0-.33.06-.62.17-.86.11-.25.26-.46.46-.63.2-.17.44-.3.72-.38s.59-.13.93-.13h3.82v1.05h-3.82c-.45,0-.8.1-1.05.31-.25.21-.38.52-.38.95,0,.31.07.6.22.88.15.27.35.52.61.75h4.41v1.05Z"/><path class="cls-1" d="M8.71,19.57H2.72v-.63c0-.15.07-.24.22-.28l.65-.08c-.29-.26-.52-.55-.7-.87-.18-.32-.27-.7-.27-1.12,0-.33.06-.62.17-.86.11-.25.26-.46.46-.63.2-.17.44-.3.72-.38.28-.09.59-.13.93-.13h3.82v1.05h-3.82c-.45,0-.8.1-1.05.31-.25.21-.38.52-.38.95,0,.31.07.6.22.88.15.27.35.52.61.75h4.41v1.05Z"/><path class="cls-1" d="M3.4,10.6c0,.51.15.91.44,1.2.29.29.7.47,1.22.54v-3.26c-.24,0-.47.03-.67.1-.21.07-.38.17-.53.3-.15.13-.26.29-.34.48-.08.19-.12.4-.12.64ZM2.63,10.62c0-.36.06-.69.18-.99.12-.3.29-.57.52-.79.22-.22.5-.39.84-.51.33-.13.71-.19,1.14-.19.17,0,.28.02.33.05.06.04.08.1.08.2v3.99c.38,0,.71-.06.99-.15.28-.09.51-.22.7-.39.19-.17.33-.36.42-.59.09-.23.14-.49.14-.77,0-.26-.03-.49-.09-.68-.06-.19-.13-.36-.2-.5-.07-.14-.14-.25-.2-.34-.06-.09-.09-.18-.09-.24,0-.09.03-.15.1-.2l.38-.3c.16.13.3.29.41.47.11.18.21.38.28.59.07.21.13.42.17.64.04.22.06.44.06.66,0,.41-.07.8-.21,1.15-.14.35-.35.65-.62.9-.27.25-.61.45-1.01.59s-.86.21-1.37.21c-.42,0-.81-.06-1.17-.19-.36-.13-.68-.32-.94-.56-.27-.24-.48-.53-.63-.88-.15-.35-.23-.74-.23-1.17Z"/><rect class="cls-1" y="5.63" width="8.71" height="1.05"/><path class="cls-1" d="M3.71.34c.09.05.13.12.13.22,0,.06-.02.13-.07.2-.04.07-.09.17-.14.28-.06.11-.1.23-.15.38-.05.15-.07.33-.07.53,0,.18.02.34.07.48.04.14.1.26.18.37.08.1.17.18.28.23.1.05.21.08.34.08.15,0,.28-.04.38-.13.1-.09.19-.21.27-.35.07-.15.14-.31.2-.5.06-.19.12-.37.18-.57.06-.2.13-.39.21-.57.08-.19.18-.35.3-.5.12-.15.26-.26.44-.35.17-.09.37-.14.62-.14.28,0,.53.05.77.15.23.1.44.24.61.44.17.19.3.43.4.71.1.28.15.6.15.97,0,.42-.07.8-.2,1.14-.14.34-.31.63-.53.86l-.4-.25c-.05-.03-.09-.07-.12-.11-.03-.04-.04-.1-.04-.17s.03-.15.08-.22c.06-.08.12-.17.18-.28.07-.11.13-.25.18-.41.06-.16.08-.36.08-.6,0-.21-.03-.38-.08-.54-.06-.15-.13-.28-.22-.38s-.2-.18-.31-.22c-.12-.05-.24-.08-.38-.08-.17,0-.3.05-.41.14-.11.09-.2.2-.28.35-.08.15-.15.31-.2.5-.06.19-.12.38-.18.57-.06.19-.13.38-.21.57-.08.19-.19.35-.31.5-.12.15-.27.26-.45.35-.18.09-.4.13-.66.13-.23,0-.45-.05-.66-.14-.21-.09-.4-.23-.56-.41-.16-.18-.29-.4-.38-.67-.09-.26-.14-.57-.14-.91,0-.39.06-.75.19-1.06.12-.32.29-.59.51-.82l.38.24Z"/></g></svg>
