<svg preserveAspectRatio="none" height="901.3803pt" viewBox="0 0 1207.6 901.38" width="1207.6pt" xmlns="http://www.w3.org/2000/svg" xmlns:xlink="http://www.w3.org/1999/xlink"><symbol id="a" overflow="visible"><path d="m3.609-8.578c.321 0 .629.047.922.14.289.094.547.243.766.438.226.187.41.43.547.719.133.281.203.609.203.984 0 .324-.055.625-.156.906-.094.274-.227.532-.391.782-.168.25-.367.496-.594.734-.218.242-.449.48-.687.719l-2.656 2.718c.125-.031.253-.054.39-.078.133-.019.274-.031.422-.031h3.656c.063 0 .114.024.157.063.039.043.062.093.062.156v.328h-5.484v-.203c0-.039.007-.082.031-.125.031-.051.062-.094.094-.125l2.89-2.938c.239-.238.457-.472.657-.703.207-.226.382-.457.531-.687.156-.227.273-.461.359-.703.082-.25.125-.516.125-.797 0-.301-.055-.567-.156-.797-.106-.238-.246-.43-.422-.578-.168-.145-.367-.254-.594-.328-.218-.071-.453-.11-.703-.11-.273 0-.523.043-.75.125-.219.086-.418.199-.594.344-.168.148-.308.324-.421.531-.118.199-.2.418-.25.656-.032.137-.11.204-.235.204-.012 0-.023 0-.031 0-.012 0-.024 0-.031 0l-.282-.047c.039-.364.133-.688.282-.969.156-.289.347-.531.578-.719.226-.195.492-.347.797-.453.3-.101.625-.156.968-.156zm0 0"/></symbol><symbol id="b" overflow="visible"><path d="m3.672-8.578c.32 0 .625.047.906.14.289.086.547.219.766.407.219.179.39.402.515.672.125.261.188.57.188.921 0 .282-.043.532-.125.75-.086.219-.203.415-.359.579-.149.168-.325.308-.532.421-.199.118-.418.204-.656.266.625.117 1.094.356 1.406.719.321.367.485.824.485 1.375 0 .344-.075.668-.219.969-.137.293-.324.546-.563.765-.242.219-.527.391-.859.516-.336.113-.695.172-1.078.172-.492 0-.899-.063-1.219-.188-.312-.133-.574-.304-.781-.515-.211-.207-.375-.438-.5-.688-.117-.258-.211-.519-.281-.781l.234-.094c.051-.019.098-.031.141-.031.039 0 .082.012.125.031.039.024.07.059.093.109l.032.125c.031.075.066.165.109.266.039.106.098.215.172.328.07.117.156.231.25.344.101.117.226.219.375.312.156.086.332.157.531.219.207.055.442.078.703.078.364 0 .68-.054.953-.172.27-.125.493-.281.672-.468.176-.188.313-.395.407-.625.093-.227.14-.446.14-.657 0-.257-.043-.5-.125-.718-.086-.227-.226-.422-.422-.578-.187-.164-.437-.297-.75-.391-.312-.094-.699-.141-1.156-.141v-.422c.363-.007.688-.054.969-.14.281-.094.515-.219.703-.375.187-.156.328-.336.422-.547.094-.219.14-.457.14-.719 0-.301-.054-.562-.156-.781-.094-.219-.226-.398-.39-.547-.168-.144-.368-.25-.594-.312-.219-.071-.449-.11-.688-.11-.273 0-.523.043-.75.125-.218.086-.418.199-.593.344-.168.137-.309.309-.422.516-.118.199-.203.421-.266.671-.031.137-.105.204-.219.204-.031 0-.054 0-.062 0l-.297-.047c.051-.364.148-.688.297-.969.144-.289.332-.531.562-.719.227-.195.492-.347.797-.453.301-.101.625-.156.969-.156zm0 0"/></symbol><symbol id="c" overflow="visible"><path d="m5.141-2.891h1.562v.313c0 .043-.015.078-.047.109-.023.024-.062.031-.125.031h-1.39v2.438h-.516v-2.438h-3.984c-.063 0-.11-.007-.141-.031-.031-.031-.055-.066-.062-.109l-.063-.281 4.266-5.625h.5zm-.516-4.437c0-.07 0-.145 0-.219.008-.07.02-.148.031-.234l-3.656 4.89h3.625zm0 0"/></symbol><g fill="#231f20"><g><use x="299.092487" xlink:href="#a" y="866.273436"/><use x="306.045387" xlink:href="#b" y="866.273436"/></g><g><use x="893.76265" xlink:href="#a" y="866.273436"/><use x="900.71555" xlink:href="#c" y="866.273436"/></g></g></svg>