<svg preserveAspectRatio="none" height="901.3803pt" viewBox="0 0 1207.6 901.38" width="1207.6pt" xmlns="http://www.w3.org/2000/svg" xmlns:xlink="http://www.w3.org/1999/xlink"><symbol id="a" overflow="visible"><path d="m3.672-8.578c.32 0 .625.047.906.14.289.086.547.219.766.407.219.179.39.402.515.672.125.261.188.57.188.921 0 .282-.043.532-.125.75-.086.219-.203.415-.359.579-.149.168-.325.308-.532.421-.199.118-.418.204-.656.266.625.117 1.094.356 1.406.719.321.367.485.824.485 1.375 0 .344-.075.668-.219.969-.137.293-.324.546-.563.765-.242.219-.527.391-.859.516-.336.113-.695.172-1.078.172-.492 0-.899-.063-1.219-.188-.312-.133-.574-.304-.781-.515-.211-.207-.375-.438-.5-.688-.117-.258-.211-.519-.281-.781l.234-.094c.051-.019.098-.031.141-.031.039 0 .082.012.125.031.039.024.07.059.093.109l.032.125c.031.075.066.165.109.266.039.106.098.215.172.328.07.117.156.231.25.344.101.117.226.219.375.312.156.086.332.157.531.219.207.055.442.078.703.078.364 0 .68-.054.953-.172.27-.125.493-.281.672-.468.176-.188.313-.395.407-.625.093-.227.14-.446.14-.657 0-.257-.043-.5-.125-.718-.086-.227-.226-.422-.422-.578-.187-.164-.437-.297-.75-.391-.312-.094-.699-.141-1.156-.141v-.422c.363-.007.688-.054.969-.14.281-.094.515-.219.703-.375.187-.156.328-.336.422-.547.094-.219.14-.457.14-.719 0-.301-.054-.562-.156-.781-.094-.219-.226-.398-.39-.547-.168-.144-.368-.25-.594-.312-.219-.071-.449-.11-.688-.11-.273 0-.523.043-.75.125-.218.086-.418.199-.593.344-.168.137-.309.309-.422.516-.118.199-.203.421-.266.671-.031.137-.105.204-.219.204-.031 0-.054 0-.062 0l-.297-.047c.051-.364.148-.688.297-.969.144-.289.332-.531.562-.719.227-.195.492-.347.797-.453.301-.101.625-.156.969-.156zm0 0"/></symbol><symbol id="b" overflow="visible"><path d="m3.438-3.609c-.356 0-.68-.055-.969-.172-.293-.114-.547-.274-.766-.485-.211-.207-.375-.461-.5-.765-.117-.301-.172-.633-.172-1 0-.364.067-.696.203-1 .133-.313.321-.582.563-.813.238-.226.519-.406.844-.531.332-.133.695-.203 1.093-.203.375 0 .719.07 1.032.203.312.125.578.309.797.547.226.23.406.508.531.828.125.324.187.684.187 1.078 0 .231-.027.445-.078.641-.043.199-.109.398-.203.593-.086.2-.187.407-.312.625-.125.211-.274.434-.438.672l-2.219 3.25c-.062.094-.164.141-.297.141h-.515l2.5-3.5c.125-.164.234-.32.328-.469.101-.156.195-.301.281-.437-.23.25-.512.449-.844.593-.324.137-.671.204-1.046.204zm2.296-2.407c0-.312-.054-.593-.156-.843-.094-.258-.234-.477-.422-.657-.179-.187-.39-.328-.64-.422-.243-.101-.508-.156-.797-.156-.313 0-.602.055-.86.156-.261.094-.484.231-.671.407-.188.179-.336.39-.438.64-.105.25-.156.528-.156.828 0 .313.047.594.14.844.102.25.239.465.407.641.175.168.382.297.625.39.25.094.523.141.828.141.344 0 .644-.055.906-.172.27-.113.492-.265.672-.453.187-.195.328-.41.422-.641.094-.226.14-.46.14-.703zm0 0"/></symbol><symbol id="c" overflow="visible"><path d="m5.141-2.891h1.562v.313c0 .043-.015.078-.047.109-.023.024-.062.031-.125.031h-1.39v2.438h-.516v-2.438h-3.984c-.063 0-.11-.007-.141-.031-.031-.031-.055-.066-.062-.109l-.063-.281 4.266-5.625h.5zm-.516-4.437c0-.07 0-.145 0-.219.008-.07.02-.148.031-.234l-3.656 4.89h3.625zm0 0"/></symbol><symbol id="d" overflow="visible"><path d="m6.516-4.25c0 .75-.086 1.398-.25 1.937-.157.543-.375.993-.657 1.344-.273.356-.593.621-.968.797-.368.176-.758.266-1.172.266-.418 0-.813-.09-1.188-.266-.367-.176-.687-.441-.968-.797-.274-.351-.485-.801-.641-1.344-.156-.539-.234-1.187-.234-1.937 0-.738.078-1.379.234-1.922.156-.539.367-.988.641-1.344.281-.351.601-.617.968-.797.375-.175.77-.265 1.188-.265.414 0 .804.09 1.172.265.375.18.695.446.968.797.282.356.5.805.657 1.344.164.543.25 1.184.25 1.922zm-.594 0c0-.676-.07-1.258-.203-1.75-.137-.488-.313-.883-.531-1.188-.219-.312-.481-.539-.782-.687-.304-.145-.617-.219-.937-.219-.324 0-.637.074-.938.219-.293.148-.554.375-.781.687-.219.305-.398.7-.531 1.188-.125.492-.188 1.074-.188 1.75 0 .699.063 1.293.188 1.781.133.481.312.875.531 1.188.227.304.488.527.781.672.301.148.614.218.938.218.32 0 .633-.07.937-.218.301-.145.563-.368.782-.672.218-.313.394-.707.531-1.188.133-.488.203-1.082.203-1.781zm0 0"/></symbol><g fill="#231f20"><g><use x="299.092487" xlink:href="#a" y="866.273436"/><use x="306.045387" xlink:href="#b" y="866.273436"/></g><g><use x="893.76265" xlink:href="#c" y="866.273436"/><use x="900.71555" xlink:href="#d" y="866.273436"/></g></g></svg>