<svg preserveAspectRatio="none" height="901.3803pt" viewBox="0 0 1207.6 901.38" width="1207.6pt" xmlns="http://www.w3.org/2000/svg" xmlns:xlink="http://www.w3.org/1999/xlink"><symbol id="a" overflow="visible"><path d="m3.766-5.063c.363 0 .695.063 1 .188.312.117.578.281.797.5.218.211.39.469.515.781.133.313.203.664.203 1.047 0 .375-.074.731-.218 1.063-.137.324-.329.605-.579.843-.242.231-.531.414-.875.547-.343.125-.726.188-1.14.188-.399 0-.758-.063-1.078-.188-.325-.125-.606-.304-.844-.547-.231-.238-.414-.531-.547-.875-.125-.351-.187-.75-.187-1.187 0-.32.082-.692.25-1.11.164-.425.441-.894.828-1.406l2.312-3.125c.07-.094.176-.14.313-.14h.5l-2.532 3.312c-.125.156-.242.309-.343.453-.106.149-.2.289-.282.422.239-.238.52-.426.844-.562.32-.133.676-.204 1.063-.204zm-2.391 2.5c0 .325.047.622.141.891.101.262.242.492.422.688.175.187.394.339.656.453.258.105.551.156.875.156.344 0 .648-.051.922-.156.281-.114.515-.266.703-.453.195-.188.347-.411.453-.672.101-.27.156-.555.156-.86 0-.32-.055-.613-.156-.875-.094-.257-.234-.476-.422-.656-.187-.187-.414-.328-.672-.422-.25-.101-.531-.156-.844-.156-.355 0-.671.062-.953.187-.273.118-.508.274-.703.469-.187.199-.336.422-.437.672-.094.242-.141.484-.141.734zm0 0"/></symbol><symbol id="b" overflow="visible"><path d="m1.859-.438h1.938v-6.89c0-.133.004-.274.016-.422l-1.86 1.656c-.043.031-.094.047-.156.047-.063 0-.117-.019-.156-.062l-.172-.25 2.453-2.157h.453v8.078h1.844v.438h-4.36zm0 0"/></symbol><symbol id="c" overflow="visible"><path d="m3.609-8.578c.321 0 .629.047.922.14.289.094.547.243.766.438.226.187.41.43.547.719.133.281.203.609.203.984 0 .324-.055.625-.156.906-.094.274-.227.532-.391.782-.168.25-.367.496-.594.734-.218.242-.449.48-.687.719l-2.656 2.718c.125-.031.253-.054.39-.078.133-.019.274-.031.422-.031h3.656c.063 0 .114.024.157.063.039.043.062.093.062.156v.328h-5.484v-.203c0-.039.007-.082.031-.125.031-.051.062-.094.094-.125l2.89-2.938c.239-.238.457-.472.657-.703.207-.226.382-.457.531-.687.156-.227.273-.461.359-.703.082-.25.125-.516.125-.797 0-.301-.055-.567-.156-.797-.106-.238-.246-.43-.422-.578-.168-.145-.367-.254-.594-.328-.218-.071-.453-.11-.703-.11-.273 0-.523.043-.75.125-.219.086-.418.199-.594.344-.168.148-.308.324-.421.531-.118.199-.2.418-.25.656-.032.137-.11.204-.235.204-.012 0-.023 0-.031 0-.012 0-.024 0-.031 0l-.282-.047c.039-.364.133-.688.282-.969.156-.289.347-.531.578-.719.226-.195.492-.347.797-.453.3-.101.625-.156.968-.156zm0 0"/></symbol><g fill="#231f20"><g><use x="299.092487" xlink:href="#a" y="866.273436"/><use x="306.045387" xlink:href="#b" y="866.273436"/></g><g><use x="893.76265" xlink:href="#a" y="866.273436"/><use x="900.71555" xlink:href="#c" y="866.273436"/></g></g></svg>