<svg preserveAspectRatio="none" height="901.3803pt" viewBox="0 0 1207.6 901.38" width="1207.6pt" xmlns="http://www.w3.org/2000/svg" xmlns:xlink="http://www.w3.org/1999/xlink"><symbol id="a" overflow="visible"><path d="m6.422-8.484v.265c0 .063-.012.121-.031.172-.012.055-.028.094-.047.125l-3.891 7.703c-.031.063-.074.117-.125.156-.055.043-.125.063-.219.063h-.39l3.922-7.672c.05-.101.113-.195.187-.281h-4.89c-.043 0-.079-.016-.11-.047s-.047-.066-.047-.109v-.375zm0 0"/></symbol><symbol id="b" overflow="visible"><path d="m3.672-8.578c.32 0 .625.047.906.14.289.086.547.219.766.407.219.179.39.402.515.672.125.261.188.57.188.921 0 .282-.043.532-.125.75-.086.219-.203.415-.359.579-.149.168-.325.308-.532.421-.199.118-.418.204-.656.266.625.117 1.094.356 1.406.719.321.367.485.824.485 1.375 0 .344-.075.668-.219.969-.137.293-.324.546-.563.765-.242.219-.527.391-.859.516-.336.113-.695.172-1.078.172-.492 0-.899-.063-1.219-.188-.312-.133-.574-.304-.781-.515-.211-.207-.375-.438-.5-.688-.117-.258-.211-.519-.281-.781l.234-.094c.051-.019.098-.031.141-.031.039 0 .082.012.125.031.039.024.07.059.093.109l.032.125c.031.075.066.165.109.266.039.106.098.215.172.328.07.117.156.231.25.344.101.117.226.219.375.312.156.086.332.157.531.219.207.055.442.078.703.078.364 0 .68-.054.953-.172.27-.125.493-.281.672-.468.176-.188.313-.395.407-.625.093-.227.14-.446.14-.657 0-.257-.043-.5-.125-.718-.086-.227-.226-.422-.422-.578-.187-.164-.437-.297-.75-.391-.312-.094-.699-.141-1.156-.141v-.422c.363-.007.688-.054.969-.14.281-.094.515-.219.703-.375.187-.156.328-.336.422-.547.094-.219.14-.457.14-.719 0-.301-.054-.562-.156-.781-.094-.219-.226-.398-.39-.547-.168-.144-.368-.25-.594-.312-.219-.071-.449-.11-.688-.11-.273 0-.523.043-.75.125-.218.086-.418.199-.593.344-.168.137-.309.309-.422.516-.118.199-.203.421-.266.671-.031.137-.105.204-.219.204-.031 0-.054 0-.062 0l-.297-.047c.051-.364.148-.688.297-.969.144-.289.332-.531.562-.719.227-.195.492-.347.797-.453.301-.101.625-.156.969-.156zm0 0"/></symbol><symbol id="c" overflow="visible"><path d="m5.141-2.891h1.562v.313c0 .043-.015.078-.047.109-.023.024-.062.031-.125.031h-1.39v2.438h-.516v-2.438h-3.984c-.063 0-.11-.007-.141-.031-.031-.031-.055-.066-.062-.109l-.063-.281 4.266-5.625h.5zm-.516-4.437c0-.07 0-.145 0-.219.008-.07.02-.148.031-.234l-3.656 4.89h3.625zm0 0"/></symbol><symbol id="d" overflow="visible"><path d="m4.125-4.375v4.375h-3.047v-13.109h4.625c.914 0 1.707.117 2.375.343.664.219 1.211.524 1.641.907.426.375.738.824.937 1.343.207.524.313 1.086.313 1.688 0 .656-.106 1.262-.313 1.812-.211.543-.531 1.012-.968 1.407-.43.386-.977.687-1.641.906-.656.219-1.438.328-2.344.328zm0-2.297h1.578c.789 0 1.36-.187 1.703-.562.352-.383.532-.914.532-1.594 0-.289-.047-.563-.141-.813s-.234-.457-.422-.625c-.18-.175-.406-.312-.687-.406-.274-.101-.602-.156-.985-.156h-1.578zm0 0"/></symbol><symbol id="e" overflow="visible"><path d="m14.016-6.563c0 .95-.168 1.836-.5 2.657-.325.812-.782 1.523-1.375 2.125-.594.605-1.313 1.078-2.157 1.422-.836.336-1.757.5-2.765.5-1.024 0-1.953-.164-2.797-.5-.836-.344-1.555-.817-2.156-1.422-.594-.602-1.059-1.313-1.391-2.125-.324-.821-.484-1.707-.484-2.657 0-.937.16-1.812.484-2.625.332-.82.797-1.531 1.391-2.125.601-.601 1.32-1.078 2.156-1.421.844-.344 1.773-.516 2.797-.516 1.008 0 1.929.172 2.765.516.844.343 1.563.82 2.157 1.421.593.606 1.05 1.313 1.375 2.125.332.813.5 1.688.5 2.625zm-3.11 0c0-.644-.09-1.222-.265-1.734-.168-.519-.407-.957-.719-1.312-.313-.364-.699-.641-1.156-.829-.461-.195-.977-.296-1.547-.296-.594 0-1.121.101-1.578.296-.461.188-.844.465-1.157.829-.312.355-.558.793-.734 1.312-.168.512-.25 1.09-.25 1.734 0 .657.082 1.247.25 1.766.176.524.422.965.734 1.328.313.356.696.625 1.157.813.457.187.984.281 1.578.281.57 0 1.086-.094 1.547-.281.457-.188.843-.457 1.156-.813.312-.363.551-.804.719-1.328.175-.519.265-1.109.265-1.766zm0 0"/></symbol><symbol id="f" overflow="visible"><path d="m4.125-2.422h4.844v2.422h-7.891v-13.109h3.047zm0 0"/></symbol><symbol id="g" overflow="visible"><path d="m5.078-9.469c.613 0 1.176.102 1.688.297.507.188.945.465 1.312.828.375.367.664.813.875 1.344.207.531.313 1.133.313 1.797 0 .219-.012.398-.032.531-.023.125-.058.231-.109.313-.043.074-.105.125-.187.156-.075.031-.18.047-.313.047h-5.375c.094.773.332 1.336.719 1.687.383.356.879.531 1.484.531.32 0 .598-.035.828-.109.239-.082.446-.172.625-.266.188-.101.352-.191.5-.265.157-.082.317-.125.485-.125.226 0 .398.086.515.25l.797 1c-.281.324-.59.59-.922.797-.336.211-.679.375-1.031.5-.355.117-.711.191-1.062.234-.344.039-.672.063-.985.063-.656 0-1.273-.106-1.844-.313-.574-.219-1.074-.535-1.5-.953-.429-.414-.765-.938-1.015-1.563s-.375-1.347-.375-2.171c0-.625.101-1.211.312-1.766.219-.563.524-1.051.922-1.469.395-.426.875-.758 1.438-1 .57-.25 1.218-.375 1.937-.375zm.047 1.922c-.531 0-.949.152-1.25.453-.305.305-.5.742-.594 1.313h3.485c0-.219-.032-.43-.094-.641-.055-.219-.149-.406-.281-.562-.125-.164-.293-.301-.5-.407-.211-.101-.465-.156-.766-.156zm0 0"/></symbol><symbol id="h" overflow="visible"><path d="m7.516 0c-.262 0-.461-.035-.594-.109-.137-.071-.25-.223-.344-.454l-.187-.5c-.243.2-.469.372-.688.516-.211.149-.433.274-.672.375-.23.106-.476.18-.734.235-.262.05-.547.078-.859.078-.43 0-.821-.055-1.172-.157-.344-.113-.637-.281-.875-.5-.243-.218-.43-.484-.563-.797-.137-.32-.203-.691-.203-1.109 0-.332.082-.672.25-1.016.176-.351.469-.671.875-.953.414-.281.973-.515 1.672-.703.707-.195 1.594-.312 2.656-.344v-.39c0-.539-.117-.93-.344-1.172-.218-.25-.539-.375-.953-.375-.324 0-.593.039-.812.109-.211.075-.399.157-.563.25-.156.086-.312.164-.468.235-.157.074-.344.109-.563.109-.187 0-.352-.047-.484-.141-.137-.093-.246-.207-.328-.343l-.5-.875c.562-.5 1.187-.867 1.875-1.11.687-.238 1.421-.359 2.203-.359.562 0 1.066.094 1.515.281.457.18.844.434 1.157.766.32.324.566.711.734 1.156.164.449.25.938.25 1.469v5.828zm-3.203-1.703c.363 0 .679-.063.953-.188.269-.125.539-.328.812-.609v-1.297c-.555.024-1.012.07-1.375.141-.367.074-.652.168-.859.281-.211.105-.356.227-.438.359-.074.137-.109.289-.109.453 0 .313.082.54.25.672.176.125.43.188.766.188zm0 0"/></symbol><symbol id="i" overflow="visible"><path d="m6.781-7.281c-.074.117-.152.199-.234.25-.086.043-.188.062-.313.062s-.257-.023-.39-.078c-.137-.062-.281-.125-.438-.187-.148-.071-.32-.133-.515-.188-.188-.062-.403-.094-.641-.094-.355 0-.633.071-.828.203-.188.137-.281.325-.281.563 0 .18.062.324.187.437.125.118.285.219.485.313.207.086.441.168.703.25.257.074.519.156.781.25.269.094.535.211.797.344.258.125.488.281.687.468.207.188.375.418.5.688.125.273.188.594.188.969 0 .461-.09.886-.266 1.281-.168.387-.418.719-.75 1-.324.281-.73.5-1.219.656-.492.157-1.054.235-1.687.235-.324 0-.649-.032-.969-.094-.312-.051-.621-.129-.922-.235-.293-.101-.562-.222-.812-.359-.25-.144-.465-.297-.641-.453l.641-1.031c.082-.125.176-.219.281-.282.102-.07.242-.109.422-.109.164 0 .312.039.437.109.125.075.258.153.407.235.156.086.332.164.531.234.207.074.461.11.766.11.218 0 .398-.02.546-.063.145-.051.266-.113.36-.187.094-.082.16-.172.203-.266.039-.094.062-.191.062-.297 0-.187-.062-.336-.187-.453-.125-.125-.293-.227-.5-.313-.211-.082-.445-.16-.703-.234-.262-.082-.528-.172-.797-.266-.262-.093-.524-.207-.781-.343-.262-.133-.496-.305-.703-.516-.211-.207-.375-.457-.5-.75-.125-.301-.188-.664-.188-1.094 0-.394.078-.769.234-1.125.157-.363.383-.679.688-.953.301-.269.68-.484 1.141-.64.468-.157 1.007-.235 1.625-.235.332 0 .656.031.968.094.321.062.617.148.891.25.281.105.535.23.766.375.226.148.425.309.593.484zm0 0"/></symbol><symbol id="j" overflow="visible"><path d="m4.891 2.422c-.086.187-.188.32-.313.406-.117.082-.305.125-.562.125h-2.094l1.797-3.766-3.719-8.515h2.469c.207 0 .367.055.484.156.125.094.211.203.266.328l1.531 4.031c.145.368.258.735.344 1.11.062-.195.129-.383.203-.563.07-.187.141-.379.203-.578l1.391-4c.039-.133.129-.25.265-.344.145-.093.301-.14.469-.14h2.25zm0 0"/></symbol><symbol id="k" overflow="visible"><path d="m.359-6.563c0-.613.079-1.203.235-1.765.164-.57.39-1.102.672-1.594.289-.5.64-.953 1.047-1.359.414-.407.867-.754 1.359-1.047.5-.289 1.031-.516 1.594-.672.57-.164 1.164-.25 1.781-.25.613 0 1.207.086 1.781.25.57.156 1.102.383 1.594.672.5.293.953.64 1.359 1.047.414.406.77.859 1.063 1.359.289.492.515 1.024.672 1.594.164.562.25 1.152.25 1.765 0 .618-.086 1.211-.25 1.782-.157.574-.383 1.105-.672 1.593-.293.493-.649.946-1.063 1.36-.406.406-.859.758-1.359 1.047-.492.293-1.024.515-1.594.672-.574.156-1.168.234-1.781.234-.617 0-1.211-.078-1.781-.234-.563-.157-1.094-.379-1.594-.672-.492-.289-.945-.641-1.359-1.047-.407-.414-.758-.867-1.047-1.36-.282-.488-.508-1.015-.672-1.578-.156-.57-.235-1.172-.235-1.797zm1.5 0c0 .774.129 1.485.391 2.141.27.656.641 1.231 1.109 1.719.469.492 1.016.875 1.641 1.156.633.274 1.316.406 2.047.406.687 0 1.332-.117 1.937-.359.602-.25 1.141-.594 1.61-1.031h-1.938c-.336 0-.562-.114-.687-.344l-.828-2.078c-.063-.102-.137-.176-.219-.219-.074-.051-.184-.078-.328-.078h-.281v2.719h-2.407v-8.094h3.157c.601 0 1.117.055 1.546.156.438.106.797.262 1.079.469.281.211.484.465.609.766.133.293.203.632.203 1.015 0 .25-.031.492-.094.719-.054.23-.14.445-.265.641-.125.199-.289.375-.485.531-.187.156-.418.289-.687.39.164.086.304.2.422.344.125.137.238.305.343.5l1.11 2.313c.457-.477.812-1.039 1.062-1.688.258-.644.391-1.344.391-2.094 0-.5-.063-.984-.188-1.453-.117-.468-.289-.906-.515-1.312-.219-.406-.492-.774-.813-1.11-.312-.332-.668-.613-1.062-.843-.387-.239-.809-.422-1.266-.547-.449-.125-.918-.188-1.406-.188-.731 0-1.414.141-2.047.422-.625.281-1.172.672-1.641 1.172-.468.492-.839 1.07-1.109 1.734-.262.657-.391 1.368-.391 2.125zm4.454-.328h.578c.281 0 .504-.019.672-.062.164-.051.289-.117.375-.203.082-.082.132-.188.156-.313.019-.133.031-.281.031-.437 0-.157-.012-.289-.031-.407-.024-.125-.071-.222-.141-.296-.074-.082-.183-.145-.328-.188-.137-.039-.324-.062-.562-.062h-.75zm0 0"/></symbol><symbol id="l" overflow="visible"/><symbol id="m" overflow="visible"><path d="m8.375-10.438c-.086.149-.18.258-.281.329-.094.062-.219.093-.375.093-.137 0-.289-.039-.453-.125-.157-.082-.34-.175-.547-.281-.199-.113-.43-.211-.688-.297-.25-.094-.543-.14-.875-.14-.562 0-.984.125-1.265.375-.282.242-.422.57-.422.984 0 .262.082.48.25.656.164.168.383.321.656.453.281.125.594.243.938.344.351.106.71.219 1.078.344.363.125.722.277 1.078.453.351.18.664.402.937.672.27.273.489.601.657.984.164.387.25.852.25 1.391 0 .605-.106 1.172-.313 1.703-.211.531-.516.996-.922 1.391-.398.386-.887.695-1.469.921-.586.219-1.246.329-1.984.329-.406 0-.824-.043-1.25-.125-.418-.082-.824-.196-1.219-.344-.398-.156-.773-.336-1.125-.547-.343-.219-.648-.453-.906-.703l.906-1.422c.063-.113.149-.203.266-.266.125-.062.254-.093.391-.093.175 0 .359.058.546.171.188.118.395.243.625.375.227.137.489.262.782.375.3.118.66.172 1.078.172.551 0 .976-.117 1.281-.359.301-.25.453-.633.453-1.156 0-.313-.086-.563-.25-.75-.168-.188-.387-.344-.656-.469-.274-.133-.586-.25-.938-.344-.343-.094-.699-.195-1.062-.312-.367-.114-.727-.254-1.078-.422-.344-.176-.653-.406-.922-.688-.274-.281-.496-.629-.672-1.047-.168-.414-.25-.929-.25-1.546 0-.489.098-.961.297-1.422.195-.469.488-.883.875-1.25.383-.375.851-.672 1.406-.891.563-.219 1.203-.328 1.922-.328.406 0 .797.031 1.172.094.383.062.742.156 1.078.281.344.125.66.277.953.453.301.168.57.356.813.563zm0 0"/></symbol><symbol id="n" overflow="visible"><path d="m3.953-13.469v13.469h-2.781v-13.469zm0 0"/></symbol><symbol id="o" overflow="visible"><path d="m4.359.141c-.449 0-.843-.063-1.187-.188-.336-.133-.617-.316-.844-.547-.23-.238-.406-.523-.531-.859-.117-.332-.172-.707-.172-1.125v-4.828h-.797c-.148 0-.273-.039-.375-.125-.094-.094-.14-.235-.14-.422v-1.078l1.484-.297.547-2.266c.07-.289.273-.437.609-.437h1.453v2.718h2.266v1.907h-2.266v4.64c0 .211.051.387.157.532.101.148.253.218.453.218.101 0 .187-.007.25-.031.07-.031.132-.055.187-.078.051-.031.098-.055.141-.078.051-.02.101-.031.156-.031.082 0 .148.023.203.062.051.043.102.106.156.188l.844 1.312c-.355.274-.758.477-1.203.609-.449.133-.914.204-1.391.204zm0 0"/></symbol><symbol id="p" overflow="visible"><path d="m4.125-4.844v4.844h-3.047v-13.109h4.266c.945 0 1.754.101 2.422.296.664.2 1.207.477 1.625.829.425.343.734.757.922 1.234.195.469.296.98.296 1.531 0 .43-.058.828-.171 1.203-.118.375-.29.727-.516 1.047-.219.324-.496.61-.828.86-.324.25-.699.461-1.125.625.207.105.398.234.578.39.176.149.332.324.469.531l2.781 4.563h-2.75c-.512 0-.875-.191-1.094-.578l-2.187-3.797c-.094-.164-.203-.285-.328-.359-.125-.071-.309-.11-.547-.11zm0-2.094h1.219c.414 0 .765-.05 1.047-.156.289-.101.531-.25.718-.437.188-.188.321-.407.407-.657.082-.25.125-.519.125-.812 0-.57-.188-1.02-.563-1.344-.375-.32-.953-.484-1.734-.484h-1.219zm0 0"/></symbol><symbol id="q" overflow="visible"><path d="m1.078 2.953v-12.281h1.735c.164 0 .304.043.421.125.125.074.207.187.25.344l.219.687c.176-.195.367-.375.578-.531.207-.164.426-.305.657-.422.238-.125.492-.219.765-.281.27-.063.567-.094.891-.094.488 0 .937.109 1.344.328.414.211.773.516 1.078.922.3.406.535.906.703 1.5.176.594.265 1.266.265 2.016 0 .699-.101 1.343-.296 1.937-.2.594-.477 1.109-.829 1.547-.343.437-.761.781-1.25 1.031-.492.239-1.031.36-1.625.36-.48 0-.886-.071-1.218-.204-.336-.132-.637-.32-.907-.562v3.578zm4.547-10.328c-.199 0-.383.023-.547.062-.168.043-.324.102-.469.172-.136.063-.265.153-.39.266-.117.117-.235.242-.36.375v3.969c.219.23.446.39.688.484.25.094.508.141.781.141.25 0 .485-.051.703-.157.219-.101.407-.265.563-.484.156-.226.281-.519.375-.875.094-.363.14-.801.14-1.312 0-.489-.039-.899-.109-1.235-.074-.344-.18-.617-.312-.828-.125-.207-.278-.351-.454-.437-.179-.094-.382-.141-.609-.141zm0 0"/></symbol><symbol id="r" overflow="visible"><path d="m3.953-9.328v9.328h-2.781v-9.328zm.328-2.547c0 .219-.047.43-.14.625-.086.187-.203.359-.36.516-.156.148-.34.261-.547.343-.211.086-.429.125-.656.125-.23 0-.445-.039-.64-.125-.2-.082-.375-.195-.532-.343-.156-.157-.277-.329-.359-.516-.086-.195-.125-.406-.125-.625 0-.227.039-.441.125-.641.082-.195.203-.367.359-.515.157-.157.332-.274.532-.36.195-.082.41-.125.64-.125.227 0 .445.043.656.125.207.086.391.203.547.36.157.148.274.32.36.515.093.2.14.414.14.641zm0 0"/></symbol><symbol id="s" overflow="visible"><path d="m5.234-9.469c.707 0 1.348.117 1.922.344.582.219 1.082.539 1.5.953.414.406.739.906.969 1.5.238.586.359 1.246.359 1.984 0 .75-.121 1.422-.359 2.016-.23.594-.555 1.102-.969 1.516-.418.418-.918.742-1.5.968-.574.219-1.215.329-1.922.329-.718 0-1.371-.11-1.953-.329-.586-.226-1.09-.55-1.515-.968-.418-.414-.743-.922-.969-1.516-.231-.594-.344-1.266-.344-2.016 0-.738.113-1.398.344-1.984.226-.594.551-1.094.969-1.5.425-.414.929-.734 1.515-.953.582-.227 1.235-.344 1.953-.344zm0 7.547c.645 0 1.118-.223 1.422-.672.301-.457.453-1.148.453-2.078 0-.914-.152-1.598-.453-2.047-.304-.457-.777-.687-1.422-.687-.656 0-1.14.23-1.453.687-.304.449-.453 1.133-.453 2.047 0 .93.149 1.621.453 2.078.313.449.797.672 1.453.672zm0 0"/></symbol><symbol id="t" overflow="visible"><path d="m2.438-.109c-.063.164-.149.312-.25.437-.106.125-.227.227-.36.313-.125.082-.262.144-.406.187-.149.039-.293.063-.438.063h-1.187l5.109-13.407c.125-.3.305-.535.547-.703.25-.164.535-.25.86-.25h1.187zm0 0"/></symbol><symbol id="u" overflow="visible"><path d="m12.516 0h-3.063v-5.547h-5.312v5.547h-3.063v-13.109h3.063v5.484h5.312v-5.484h3.063zm0 0"/></symbol><symbol id="v" overflow="visible"><path d="m9.875-3.391c.07 0 .145.016.219.047.07.024.144.071.219.141l1.203 1.265c-.532.688-1.2 1.211-2 1.563-.793.344-1.731.516-2.813.516-.992 0-1.883-.164-2.672-.5-.793-.344-1.465-.813-2.015-1.407-.543-.593-.961-1.297-1.25-2.109-.293-.82-.438-1.719-.438-2.688 0-.968.164-1.859.5-2.671.332-.821.801-1.532 1.406-2.125.602-.594 1.321-1.055 2.157-1.391.843-.332 1.769-.5 2.781-.5.488 0 .953.047 1.391.141.437.086.843.203 1.218.359.375.148.719.328 1.032.547.32.211.609.445.859.703l-1.031 1.375c-.063.086-.141.164-.235.234-.086.063-.211.094-.375.094-.105 0-.211-.019-.312-.062-.094-.051-.196-.11-.297-.172-.106-.071-.227-.149-.359-.235-.125-.082-.278-.156-.454-.218-.179-.071-.386-.129-.625-.172-.23-.051-.507-.078-.828-.078-.554 0-1.058.101-1.515.296-.45.188-.84.465-1.172.829-.324.367-.578.808-.766 1.328-.18.511-.265 1.086-.265 1.718 0 .68.085 1.278.265 1.797.188.524.438.965.75 1.328.313.356.676.625 1.094.813.426.18.879.266 1.359.266.27 0 .52-.008.75-.032.227-.031.442-.078.641-.14.195-.071.383-.16.562-.266.176-.101.352-.234.532-.391.07-.05.148-.097.234-.14.082-.039.164-.063.25-.063zm0 0"/></symbol><symbol id="w" overflow="visible"><path d="m3.688-9.328v5.922c0 .461.101.82.312 1.078.207.25.516.375.922.375.312 0 .598-.063.859-.188.27-.132.532-.312.782-.531v-6.656h2.796v9.328h-1.734c-.344 0-.574-.156-.687-.469l-.172-.531c-.18.168-.368.324-.563.469-.187.136-.39.258-.609.359-.219.094-.453.168-.703.219-.25.062-.528.094-.828.094-.512 0-.965-.09-1.36-.266-.387-.176-.715-.422-.984-.734-.274-.321-.477-.696-.61-1.125-.136-.438-.203-.911-.203-1.422v-5.922zm0 0"/></symbol><symbol id="x" overflow="visible"><path d="m1.078 0v-9.328h1.656c.133 0 .25.015.344.047.094.023.172.058.235.109.062.055.109.121.14.203.031.086.063.184.094.297l.156.875c.332-.531.711-.945 1.141-1.25.426-.301.89-.453 1.39-.453.426 0 .77.102 1.032.297l-.36 2.047c-.023.136-.07.23-.14.281-.075.043-.172.062-.297.062-.094 0-.215-.007-.36-.031-.136-.031-.308-.047-.515-.047-.731 0-1.309.391-1.735 1.172v5.719zm0 0"/></symbol><symbol id="y" overflow="visible"><path d="m7.625 0c-.18 0-.324-.035-.437-.109-.118-.082-.2-.204-.25-.36l-.219-.703c-.18.199-.371.383-.578.547-.211.156-.434.293-.672.406-.231.117-.481.203-.75.266-.274.062-.571.094-.891.094-.48 0-.93-.106-1.344-.313-.418-.219-.777-.531-1.078-.937-.293-.407-.527-.907-.703-1.5-.168-.594-.25-1.266-.25-2.016 0-.695.094-1.344.281-1.938.196-.601.469-1.117.813-1.546.351-.438.773-.774 1.266-1.016.488-.25 1.031-.375 1.625-.375.476 0 .882.074 1.218.219.332.136.633.32.907.547v-4.735h2.796v13.469zm-2.828-2c.207 0 .394-.016.562-.047.164-.039.317-.098.454-.172.132-.07.265-.16.39-.265.125-.114.242-.243.36-.391v-3.953c-.219-.227-.45-.391-.688-.485-.242-.093-.496-.14-.766-.14-.261 0-.5.055-.718.156-.211.094-.399.258-.563.484-.156.231-.281.528-.375.891-.086.356-.125.789-.125 1.297 0 .492.035.902.11 1.234.07.336.171.606.296.813.125.211.274.359.454.453.187.086.39.125.609.125zm0 0"/></symbol><symbol id="z" overflow="visible"><path d="m5.078-9.469c.613 0 1.176.102 1.688.297.507.188.945.465 1.312.828.375.367.664.813.875 1.344.207.531.313 1.133.313 1.797 0 .219-.012.398-.032.531-.023.125-.058.231-.109.313-.043.074-.105.125-.187.156-.075.031-.18.047-.313.047h-5.375c.094.773.332 1.336.719 1.687.383.356.879.531 1.484.531.32 0 .598-.035.828-.109.239-.082.446-.172.625-.266.188-.101.352-.191.5-.265.157-.082.317-.125.485-.125.226 0 .398.086.515.25l.797 1c-.281.324-.59.59-.922.797-.336.211-.679.375-1.031.5-.355.117-.711.191-1.062.234-.344.039-.672.063-.985.063-.656 0-1.273-.106-1.844-.313-.574-.219-1.074-.535-1.5-.953-.429-.414-.765-.938-1.015-1.563s-.375-1.347-.375-2.171c0-.625.101-1.211.312-1.766.219-.563.524-1.051.922-1.469.395-.426.875-.758 1.438-1 .57-.25 1.218-.375 1.937-.375zm.047 1.922c-.531 0-.949.152-1.25.453-.305.305-.5.742-.594 1.313h3.485c0-.219-.032-.43-.094-.641-.055-.219-.149-.406-.281-.562-.125-.164-.293-.301-.5-.407-.211-.101-.465-.156-.766-.156zm3.578-5.703-2.344 2.375c-.136.137-.265.234-.39.297-.125.055-.293.078-.5.078h-1.672l1.219-2.203c.101-.176.222-.313.359-.406.133-.094.344-.141.625-.141zm0 0"/></symbol><symbol id="A" overflow="visible"><path d="m1.078 0v-13.469h2.781v5.141c.352-.344.75-.617 1.188-.828.437-.207.953-.313 1.547-.313.488 0 .937.106 1.344.313.414.211.773.515 1.078.922.3.406.535.906.703 1.5.176.586.265 1.25.265 2 0 .699-.101 1.343-.296 1.937-.2.594-.477 1.109-.829 1.547-.343.437-.761.781-1.25 1.031-.492.239-1.031.36-1.625.36-.273 0-.515-.028-.734-.078-.219-.055-.422-.126-.609-.219-.18-.102-.344-.223-.5-.36-.157-.144-.305-.297-.438-.453l-.109.469c-.043.187-.121.32-.235.391-.105.074-.246.109-.421.109zm4.547-7.375c-.199 0-.383.023-.547.062-.168.043-.324.102-.469.172-.136.063-.265.153-.39.266-.117.117-.235.242-.36.375v3.969c.219.23.446.39.688.484.25.094.508.141.781.141.25 0 .485-.051.703-.157.219-.101.407-.265.563-.484.156-.226.281-.519.375-.875.094-.363.14-.801.14-1.312 0-.489-.039-.899-.109-1.235-.074-.344-.18-.617-.312-.828-.125-.207-.278-.351-.454-.437-.179-.094-.382-.141-.609-.141zm0 0"/></symbol><symbol id="B" overflow="visible"><path d="m5.688-1.781c.082 0 .156.031.218.093l.594.625c-.293.375-.656.665-1.094.86-.437.187-.953.281-1.547.281-.543 0-1.031-.086-1.468-.266-.43-.187-.797-.445-1.11-.781-.304-.332-.539-.722-.703-1.172-.156-.457-.234-.953-.234-1.484 0-.352.035-.691.109-1.016.082-.332.195-.632.344-.906.156-.269.336-.516.547-.734.207-.219.445-.407.719-.563.269-.156.562-.273.875-.359.312-.082.644-.125 1-.125.269 0 .519.027.75.078.238.043.46.105.671.187.207.086.399.188.579.313.175.117.332.242.468.375l-.5.687c-.031.055-.074.094-.125.125-.043.032-.105.047-.187.047-.086 0-.168-.023-.25-.078-.074-.062-.172-.125-.297-.187-.117-.071-.262-.133-.438-.188-.179-.062-.402-.094-.671-.094-.305 0-.586.059-.844.172-.25.106-.469.262-.656.469-.18.211-.321.465-.422.766-.094.304-.141.648-.141 1.031 0 .387.051.734.156 1.047.114.305.266.558.453.765.188.211.407.372.657.485.25.105.519.156.812.156.164 0 .317-.004.453-.016.145-.019.274-.05.391-.093.113-.039.223-.094.328-.157.102-.062.211-.14.328-.234.031-.031.067-.055.11-.078.039-.02.082-.031.125-.031zm0 0"/></symbol><symbol id="C" overflow="visible"><path d="m7.766-3.625c0 .531-.094 1.027-.282 1.484-.179.45-.429.84-.75 1.172-.324.324-.714.578-1.171.766-.461.187-.965.281-1.516.281-.555 0-1.059-.094-1.516-.281-.461-.188-.851-.442-1.172-.766-.324-.332-.578-.722-.765-1.172-.18-.457-.266-.953-.266-1.484s.086-1.02.266-1.469c.187-.445.441-.836.765-1.172.321-.332.711-.593 1.172-.781.457-.187.961-.281 1.516-.281.551 0 1.055.094 1.516.281.457.188.847.449 1.171.781.321.336.571.731.75 1.188.188.449.282.933.282 1.453zm-1.547 0c0-.375-.055-.711-.156-1.016-.094-.3-.235-.554-.422-.765-.188-.219-.418-.379-.688-.485-.262-.113-.562-.172-.906-.172-.336 0-.637.059-.906.172-.274.106-.5.266-.688.485-.187.211-.336.465-.437.765-.106.305-.157.641-.157 1.016 0 .387.051.73.157 1.031.101.305.25.559.437.766.188.211.414.371.688.484.269.106.57.156.906.156.344 0 .644-.05.906-.156.27-.113.5-.273.688-.484.187-.207.328-.461.422-.766.101-.301.156-.644.156-1.031zm0 0"/></symbol><symbol id="D" overflow="visible"><path d="m7.25-3.625c0 .531-.09 1.023-.266 1.469-.179.437-.429.82-.75 1.14-.324.313-.714.563-1.171.75-.461.18-.965.266-1.516.266h-2.781v-7.25h2.781c.551 0 1.055.094 1.516.281.457.18.847.43 1.171.75.321.324.571.711.75 1.156.176.438.266.918.266 1.438zm-1.531 0c0-.375-.055-.711-.156-1.016-.094-.312-.235-.57-.422-.781-.188-.207-.418-.367-.688-.484-.273-.114-.574-.172-.906-.172h-1.281v4.906h1.281c.332 0 .633-.051.906-.156.27-.113.5-.274.688-.485.187-.218.328-.476.422-.781.101-.301.156-.644.156-1.031zm0 0"/></symbol><symbol id="E" overflow="visible"><path d="m2.266-6.078v1.875h2.422v1.125h-2.422v1.906h3.109v1.172h-4.609v-7.25h4.609v1.172zm0 0"/></symbol><symbol id="F" overflow="visible"><path d="m4.688-5.859c-.055.086-.106.14-.157.171-.043.032-.101.047-.172.047-.074 0-.156-.023-.25-.078-.086-.051-.183-.101-.296-.156-.106-.063-.235-.117-.391-.172-.149-.051-.313-.078-.5-.078-.356 0-.621.078-.797.234-.168.157-.25.36-.25.61 0 .156.047.289.141.39.093.106.218.2.375.282.156.074.332.14.531.203.195.054.394.117.594.187.207.074.41.164.609.266.195.094.375.215.531.359.157.149.282.324.375.531.094.211.141.465.141.766 0 .336-.059.649-.172.938-.117.281-.281.531-.5.75-.219.211-.492.375-.812.5-.313.125-.668.187-1.063.187-.23 0-.461-.027-.687-.078-.231-.039-.454-.102-.672-.188-.211-.082-.407-.179-.594-.296-.18-.114-.34-.243-.484-.391l.437-.703c.039-.051.086-.094.141-.125.062-.039.129-.063.203-.063.082 0 .172.039.265.11.102.062.219.136.344.218.133.075.285.149.453.219.176.063.383.094.625.094.352 0 .625-.078.813-.234.195-.164.297-.407.297-.719 0-.188-.055-.336-.157-.453-.093-.114-.218-.207-.375-.282-.148-.07-.32-.132-.515-.187-.199-.063-.403-.125-.61-.188-.199-.07-.398-.148-.593-.234-.2-.094-.375-.219-.532-.375-.148-.156-.273-.344-.375-.562-.093-.227-.14-.516-.14-.86 0-.258.051-.515.156-.765.113-.258.27-.489.469-.688.207-.195.461-.351.765-.469.301-.125.649-.187 1.047-.187.426 0 .828.07 1.203.203.375.137.688.324.938.562zm0 0"/></symbol><symbol id="G" overflow="visible"><path d="m2.266 0h-1.5v-7.25h1.5zm0 0"/></symbol><symbol id="H" overflow="visible"><path d="m4.281-3.688h2.485v2.985c-.368.273-.758.469-1.172.594-.418.125-.86.187-1.328.187-.594 0-1.137-.086-1.625-.266-.481-.187-.891-.445-1.235-.781-.343-.332-.609-.722-.797-1.172-.187-.457-.281-.953-.281-1.484 0-.539.086-1.035.266-1.484.187-.457.441-.848.765-1.172.332-.332.735-.586 1.204-.766.468-.187.988-.281 1.562-.281.301 0 .582.027.844.078.258.055.5.121.719.203.218.086.414.184.593.297.188.117.36.246.516.391l-.438.656c-.074.117-.164.183-.265.203-.106.023-.219-.004-.344-.078-.125-.07-.246-.133-.359-.188-.118-.062-.243-.113-.375-.156-.125-.051-.266-.086-.422-.109-.149-.02-.321-.032-.516-.032-.344 0-.652.059-.922.172-.273.118-.508.282-.703.5-.187.211-.336.465-.437.766-.106.305-.157.637-.157 1 0 .398.055.758.172 1.078.114.313.274.578.485.797.207.211.453.371.734.484.289.118.613.172.969.172.238 0 .453-.019.64-.062.188-.051.368-.117.547-.203v-1.219h-.812c-.094 0-.172-.024-.235-.078-.054-.051-.078-.117-.078-.203zm0 0"/></symbol><symbol id="I" overflow="visible"><path d="m6.969-7.25v7.25h-.781c-.118 0-.215-.016-.297-.047-.075-.039-.153-.109-.235-.203l-3.609-4.594c.008.117.016.231.016.344.007.117.015.219.015.312v4.188h-1.312v-7.25h.781c.062 0 .113.008.156.016.051 0 .094.011.125.031.039.023.078.047.11.078.031.031.066.07.109.109l3.641 4.625c-.024-.132-.04-.257-.047-.375 0-.113 0-.222 0-.328v-4.156zm0 0"/></symbol><symbol id="J" overflow="visible"><path d="m4.578-2.75-.781-2.219c-.043-.113-.09-.25-.141-.406-.054-.156-.105-.328-.156-.516-.043.188-.09.368-.141.532-.054.156-.105.293-.156.406l-.765 2.203zm2.516 2.75h-1.156c-.137 0-.247-.031-.329-.094-.074-.062-.132-.14-.171-.234l-.485-1.391h-2.89l-.485 1.391c-.043.086-.105.164-.187.234-.086.063-.188.094-.313.094h-1.172l2.828-7.25h1.532zm0 0"/></symbol><symbol id="K" overflow="visible"><path d="m5.891-6.031h-2.125v6.031h-1.5v-6.031h-2.11v-1.219h5.735zm0 0"/></symbol><symbol id="L" overflow="visible"><path d="m3.203-3.641c.469 0 .813-.109 1.031-.328.219-.226.329-.539.329-.937 0-.176-.032-.336-.094-.485-.055-.156-.137-.285-.25-.39-.106-.102-.246-.18-.422-.235-.168-.062-.367-.093-.594-.093h-.953v2.468zm0-3.609c.5 0 .926.062 1.281.187.364.118.661.278.891.485.238.211.41.461.516.75.113.281.172.59.172.922 0 .355-.059.683-.172.984-.118.293-.293.547-.532.766-.242.211-.543.375-.906.5-.355.117-.773.172-1.25.172h-.953v2.484h-1.484v-7.25zm0 0"/></symbol><symbol id="M" overflow="visible"><path d="m3.031-3.813c.239 0 .446-.031.625-.093.176-.063.321-.145.438-.25.113-.114.195-.242.25-.391.051-.144.078-.301.078-.469 0-.343-.117-.609-.344-.797-.23-.195-.578-.296-1.047-.296h-.781v2.296zm3.5 3.813h-1.343c-.262 0-.45-.098-.563-.297l-1.375-2.219c-.055-.082-.117-.144-.187-.187-.063-.039-.165-.063-.297-.063h-.516v2.766h-1.484v-7.25h2.265c.508 0 .942.059 1.297.172.363.105.66.25.891.437.226.18.394.399.5.657.101.261.156.546.156.859 0 .242-.039.469-.109.687-.063.211-.164.403-.297.579-.125.179-.281.336-.469.468-.187.137-.402.246-.641.328.094.055.18.118.266.188.082.074.156.164.219.266zm0 0"/></symbol><symbol id="N" overflow="visible"><path d="m6.797 0h-1.5c-.106 0-.188-.023-.25-.078-.055-.051-.102-.11-.141-.172l-1.562-2.672c-.024.043-.043.086-.063.125-.011.031-.027.063-.047.094l-1.484 2.453c-.043.062-.094.121-.156.172-.055.055-.125.078-.219.078h-1.391l2.36-3.734-2.281-3.516h1.5c.101 0 .175.016.218.047.051.031.094.074.125.125l1.563 2.562c.019-.039.035-.082.047-.125.019-.039.047-.082.078-.125l1.406-2.281c.031-.07.07-.125.125-.156.051-.031.109-.047.172-.047h1.437l-2.296 3.453zm0 0"/></symbol><symbol id="O" overflow="visible"/><symbol id="P" overflow="visible"><path d="m6.969-7.25v7.25h-1.516v-3.125h-3.187v3.125h-1.5v-7.25h1.5v3.078h3.187v-3.078zm0 0"/></symbol><symbol id="Q" overflow="visible"><path d="m2.266-6.078v1.875h2.422v1.125h-2.422v1.906h3.109v1.172h-4.609v-7.25h4.609v1.172zm3.062-3.235-1.609 1.438c-.043.031-.078.059-.11.078-.031.012-.07.024-.109.031-.031.012-.07.024-.109.032-.043 0-.086 0-.125 0h-1l1-1.36c.031-.051.062-.086.093-.109.039-.031.082-.051.125-.063.039-.019.086-.031.141-.031.051-.008.113-.016.188-.016zm0 0"/></symbol><symbol id="R" overflow="visible"><path d="m3-7.141c.27 0 .523.043.766.125.25.075.468.188.656.344.187.156.332.356.437.594.114.242.172.523.172.844 0 .261-.043.507-.125.734-.086.23-.195.449-.328.656-.137.211-.297.414-.484.61-.188.199-.383.402-.578.609l-2.219 2.25c.101-.02.211-.035.328-.047.113-.019.234-.031.359-.031h3.047c.051 0 .094.015.125.047.032.031.047.074.047.125v.281h-4.562v-.172c0-.031.007-.066.031-.109.019-.039.039-.071.062-.094l2.422-2.453c.196-.195.379-.391.547-.578.164-.188.313-.375.438-.563.125-.195.222-.394.297-.594.07-.207.109-.429.109-.671 0-.25-.047-.469-.141-.657-.086-.195-.199-.359-.343-.484-.137-.125-.297-.211-.485-.266-.187-.062-.387-.093-.594-.093-.23 0-.437.039-.625.109-.187.062-.355.156-.5.281-.148.117-.265.258-.359.422-.094.168-.156.356-.187.563-.032.117-.102.171-.204.171-.011 0-.023 0-.031 0-.012-.007-.015-.015-.015-.015l-.25-.031c.039-.301.125-.571.25-.813.125-.238.281-.437.468-.594.196-.164.422-.289.672-.375.25-.082.516-.125.797-.125zm0 0"/></symbol><symbol id="S" overflow="visible"><path d="m4.828-6.859c0 .062-.027.121-.078.171-.043.043-.109.063-.203.063h-2.563l-.421 2.359c.218-.062.425-.101.625-.125.207-.019.398-.031.578-.031.363 0 .687.055.968.156.282.106.516.25.704.438.187.187.328.414.421.672.102.261.157.543.157.843 0 .375-.071.711-.203 1-.125.293-.305.543-.532.75-.218.211-.48.372-.781.485-.293.101-.602.156-.922.156-.199 0-.387-.023-.562-.062-.18-.032-.344-.071-.5-.125-.157-.063-.305-.129-.438-.204-.125-.07-.242-.148-.344-.234l.141-.203c.031-.039.078-.063.141-.063.05 0 .113.028.187.079.082.043.188.093.313.156.132.062.285.121.453.172.176.043.383.062.625.062.269 0 .519-.039.75-.125.238-.094.445-.222.625-.39.176-.164.312-.368.406-.61.102-.25.156-.523.156-.828 0-.258-.043-.492-.125-.703-.074-.207-.187-.391-.343-.547-.149-.156-.336-.273-.563-.359-.23-.082-.5-.125-.812-.125-.188 0-.391.015-.61.047-.211.031-.433.078-.672.14l-.312-.094.547-3.125h3.187zm0 0"/></symbol><symbol id="T" overflow="visible"><path d="m5.281-7.063v.422h-3.718v2.86h3.093v.406h-3.093v2.953h3.718v.422h-4.234v-7.063zm0 0"/></symbol><symbol id="U" overflow="visible"><path d="m5.422-3.531c0 .617-.07 1.152-.203 1.609-.125.449-.305.824-.531 1.125-.231.293-.5.512-.813.656-.305.145-.633.219-.984.219-.356 0-.684-.074-.985-.219-.304-.144-.57-.363-.797-.656-.23-.301-.414-.676-.546-1.125-.137-.457-.204-.992-.204-1.609 0-.625.067-1.16.204-1.61.132-.457.316-.832.546-1.125.227-.289.493-.507.797-.656.301-.144.629-.219.985-.219.351 0 .679.075.984.219.313.149.582.367.813.656.226.293.406.668.531 1.125.133.45.203.985.203 1.61zm-.5 0c0-.571-.059-1.063-.172-1.469-.105-.406-.25-.738-.437-1-.18-.258-.391-.445-.641-.563-.25-.125-.512-.187-.781-.187-.274 0-.532.062-.782.187-.242.118-.453.305-.64.563-.188.262-.34.594-.453 1-.106.406-.157.898-.157 1.469 0 .574.051 1.062.157 1.468.113.407.265.743.453 1 .187.25.398.438.64.563.25.117.508.172.782.172.269 0 .531-.055.781-.172.25-.125.461-.313.641-.563.187-.257.332-.593.437-1 .113-.406.172-.894.172-1.468zm0 0"/></symbol><symbol id="V" overflow="visible"><path d="m4.281-2.406h1.297v.265c0 .032-.012.059-.031.078-.024.024-.055.032-.094.032h-1.172v2.031h-.422v-2.031h-3.328c-.054 0-.093-.008-.125-.032-.023-.019-.039-.046-.047-.078l-.046-.234 3.546-4.703h.422zm-.422-3.703c0-.051 0-.11 0-.172.008-.063.02-.129.032-.203l-3.063 4.078h3.031zm0 0"/></symbol><symbol id="W" overflow="visible"><path d="m2.859-3c-.293 0-.562-.047-.812-.141-.242-.101-.449-.238-.625-.406-.18-.176-.32-.391-.422-.641-.094-.25-.141-.523-.141-.828 0-.3.051-.582.157-.843.113-.258.269-.485.468-.672.207-.188.446-.332.719-.438.27-.113.57-.172.906-.172.313 0 .598.055.86.157.258.105.484.257.672.453.187.199.332.433.437.703.102.273.156.574.156.906 0 .18-.023.352-.062.516-.031.168-.09.336-.172.5-.074.168-.164.34-.266.515-.105.18-.226.368-.359.563l-1.859 2.719c-.043.074-.121.109-.235.109h-.437l2.094-2.922c.093-.133.179-.266.265-.391.094-.125.172-.242.235-.359-.188.211-.422.375-.704.5-.273.117-.562.172-.875.172zm1.922-2.016c0-.257-.043-.492-.125-.703-.086-.219-.203-.398-.359-.547-.149-.156-.324-.273-.531-.359-.2-.082-.422-.125-.672-.125-.262 0-.5.043-.719.125-.211.086-.391.203-.547.359-.156.149-.281.325-.375.532-.086.211-.125.437-.125.687 0 .262.039.496.125.703.082.211.192.387.328.531.145.137.321.247.532.329.207.074.437.109.687.109.281 0 .531-.047.75-.141.219-.101.406-.234.563-.39.156-.157.269-.328.343-.516.082-.195.125-.394.125-.594zm0 0"/></symbol><symbol id="X" overflow="visible"><path d="m3.141-4.219c.3 0 .578.055.828.156.258.094.476.235.656.422.188.18.332.399.438.657.113.25.171.539.171.859 0 .324-.062.621-.187.891-.117.261-.277.492-.484.687-.2.199-.446.356-.735.469-.281.101-.594.156-.937.156-.325 0-.625-.055-.907-.156-.273-.102-.507-.254-.703-.453-.187-.207-.34-.453-.453-.735-.105-.289-.156-.617-.156-.984 0-.27.066-.578.203-.922.145-.351.379-.75.703-1.187l1.922-2.594c.063-.07.148-.11.266-.11h.406l-2.094 2.75c-.105.137-.203.266-.297.391-.086.117-.164.231-.234.344.195-.195.43-.352.703-.469.27-.113.566-.172.891-.172zm-2 2.094c0 .262.039.508.125.734.082.219.195.414.343.578.157.157.336.282.547.375.219.086.461.125.735.125.281 0 .535-.039.765-.125.239-.093.438-.218.594-.375.164-.164.289-.359.375-.578.082-.218.125-.453.125-.703 0-.269-.043-.515-.125-.734-.086-.219-.203-.399-.359-.547-.157-.156-.344-.273-.563-.359-.211-.082-.445-.125-.703-.125-.293 0-.555.054-.781.156-.231.105-.43.242-.594.406-.156.156-.277.34-.359.547-.086.199-.125.406-.125.625zm0 0"/></symbol><symbol id="Y" overflow="visible"><path d="m1.703-2.844v2.844h-.5v-7.063h1.813c.832 0 1.457.184 1.875.547.425.368.64.883.64 1.547 0 .313-.058.602-.172.86-.117.261-.281.484-.5.671-.218.188-.484.336-.796.438-.305.105-.653.156-1.047.156zm0-.406h1.313c.312 0 .593-.039.843-.125.25-.094.457-.211.625-.359.176-.157.305-.336.391-.547.094-.207.141-.438.141-.688 0-.539-.168-.957-.5-1.25-.336-.289-.836-.437-1.5-.437h-1.313zm0 0"/></symbol><symbol id="Z" overflow="visible"><path d="m1.703-3.188v3.188h-.5v-7.063h1.797c.813 0 1.422.157 1.828.469.406.313.61.778.61 1.391 0 .273-.047.515-.141.734s-.231.418-.406.594c-.18.168-.391.305-.641.406-.242.106-.516.18-.828.219.082.043.156.105.219.187l2.437 3.063h-.453c-.055 0-.102-.008-.141-.031-.031-.02-.07-.051-.109-.094l-2.266-2.875c-.054-.07-.117-.117-.187-.141-.063-.031-.164-.047-.297-.047zm0-.39h1.235c.312 0 .593-.035.843-.11.25-.07.457-.175.625-.312.164-.145.297-.316.391-.516.094-.195.141-.414.141-.656 0-.508-.168-.883-.5-1.125-.336-.238-.813-.359-1.438-.359h-1.297zm0 0"/></symbol><symbol id="aa" overflow="visible"><path d="m7.344-3.531c0 .543-.086 1.039-.25 1.484-.156.438-.387.82-.688 1.141-.293.312-.648.558-1.062.734-.406.168-.86.25-1.36.25s-.961-.082-1.375-.25c-.406-.176-.761-.422-1.062-.734-.293-.321-.524-.703-.688-1.141-.168-.445-.25-.941-.25-1.484 0-.539.082-1.035.25-1.485.164-.445.395-.828.688-1.14.301-.313.656-.551 1.062-.719.414-.176.875-.266 1.375-.266s.954.09 1.36.266c.414.168.769.406 1.062.719.301.312.532.695.688 1.14.164.45.25.946.25 1.485zm-.531 0c0-.489-.071-.93-.204-1.328-.136-.395-.328-.727-.578-1-.242-.27-.539-.477-.89-.625-.344-.145-.731-.219-1.157-.219-.429 0-.812.074-1.156.219-.344.148-.648.355-.906.625-.25.273-.445.605-.578 1-.137.398-.203.839-.203 1.328 0 .492.066.933.203 1.328.133.387.328.719.578 1 .258.273.562.48.906.625.344.137.727.203 1.156.203.426 0 .813-.066 1.157-.203.351-.145.648-.352.89-.625.25-.281.442-.613.578-1 .133-.395.204-.836.204-1.328zm0 0"/></symbol><symbol id="ab" overflow="visible"><path d="m.813 1.75v-6.719h.25c.05 0 .085.012.109.031.031.024.047.055.047.094l.047.766c.218-.289.472-.524.765-.703.289-.176.625-.266 1-.266.602 0 1.078.215 1.422.641.344.418.516 1.047.516 1.89 0 .368-.055.703-.156 1.016-.094.312-.235.59-.422.828-.18.231-.403.414-.672.547-.262.125-.571.188-.922.188-.336 0-.625-.059-.875-.172-.25-.125-.465-.313-.641-.563v2.422zm2.078-6.422c-.336 0-.637.09-.907.266-.261.168-.496.406-.703.718v2.594c.188.293.395.496.625.61.239.117.504.171.797.171.289 0 .547-.05.766-.156.219-.101.398-.254.547-.453.156-.195.269-.43.343-.703.071-.27.11-.566.11-.891 0-.738-.137-1.281-.406-1.625-.274-.351-.665-.531-1.172-.531zm0 0"/></symbol><symbol id="ac" overflow="visible"><path d="m1.422-4.969v4.969h-.469v-4.969zm.203-1.703c0 .055-.012.106-.031.156-.024.055-.055.102-.094.141-.043.043-.09.074-.141.094-.054.023-.109.031-.171.031-.063 0-.122-.008-.172-.031-.055-.02-.102-.051-.141-.094-.043-.039-.074-.086-.094-.141-.023-.05-.031-.101-.031-.156 0-.062.008-.117.031-.172.02-.062.051-.109.094-.14.039-.039.086-.071.141-.094.05-.031.109-.047.172-.047.062 0 .117.016.171.047.051.023.098.055.141.094.039.031.07.078.094.14.019.055.031.11.031.172zm0 0"/></symbol><symbol id="ad" overflow="visible"><path d="m1.422-7.266v7.266h-.469v-7.266zm0 0"/></symbol><symbol id="ae" overflow="visible"><path d="m2.703-5.047c.352 0 .672.063.953.188.282.117.516.289.703.515.196.219.348.492.454.813.101.312.156.664.156 1.047 0 .386-.055.734-.156 1.046-.106.313-.258.586-.454.813-.187.219-.421.391-.703.516-.281.113-.601.172-.953.172-.355 0-.672-.059-.953-.172-.281-.125-.523-.297-.719-.516-.199-.227-.351-.5-.453-.813-.094-.312-.14-.66-.14-1.046 0-.383.046-.735.14-1.047.102-.321.254-.594.453-.813.196-.226.438-.398.719-.515.281-.125.598-.188.953-.188zm0 4.734c.289 0 .547-.046.766-.14.226-.102.414-.25.562-.438.145-.195.254-.425.328-.687.071-.27.11-.57.11-.906 0-.332-.039-.633-.11-.907-.074-.269-.183-.5-.328-.687-.148-.188-.336-.332-.562-.438-.219-.101-.477-.156-.766-.156-.305 0-.562.055-.781.156-.219.106-.406.25-.563.438-.148.187-.257.418-.328.687-.074.274-.109.575-.109.907 0 .336.035.636.109.906.071.262.18.492.328.687.157.188.344.336.563.438.219.094.476.14.781.14zm0 0"/></symbol><symbol id="af" overflow="visible"><path d="m2.172.078c-.344 0-.609-.094-.797-.281-.187-.188-.281-.473-.281-.86v-3.39h-.703c-.043 0-.075-.008-.094-.031-.024-.02-.031-.051-.031-.094v-.172l.843-.063.125-1.781c0-.031.008-.054.032-.078.019-.019.05-.031.093-.031h.219v1.89h1.563v.36h-1.563v3.359c0 .137.016.258.047.36.039.093.086.171.141.234.062.062.132.109.218.141.082.031.176.046.282.046.113 0 .211-.015.297-.046.093-.039.171-.082.234-.125.062-.039.113-.079.156-.11.039-.031.07-.047.094-.047.019 0 .047.016.078.047l.125.203c-.125.149-.289.262-.484.344-.188.082-.387.125-.594.125zm0 0"/></symbol><symbol id="ag" overflow="visible"/><symbol id="ah" overflow="visible"><path d="m4.469-6.203c-.031.055-.078.078-.141.078-.043 0-.101-.031-.172-.094-.062-.062-.152-.129-.265-.203-.118-.07-.262-.141-.438-.203-.18-.063-.39-.094-.64-.094-.262 0-.493.039-.688.11-.187.074-.352.171-.484.296-.137.125-.243.274-.313.438-.062.168-.094.344-.094.531 0 .242.051.438.157.594.101.156.238.293.406.406.164.106.351.196.562.266.207.074.422.148.641.219.227.074.445.156.656.25.219.086.41.195.578.328.164.136.297.304.391.5.102.187.156.429.156.718 0 .293-.054.575-.156.844-.094.262-.242.492-.437.688-.188.187-.422.34-.704.453-.281.101-.605.156-.968.156-.461 0-.86-.082-1.203-.25-.336-.164-.625-.391-.875-.672l.14-.219c.039-.05.086-.078.141-.078.031 0 .066.024.109.063.051.043.11.094.172.156.063.055.141.117.234.188.094.062.204.125.329.187.125.055.265.102.421.141.157.043.336.062.547.062.282 0 .532-.039.75-.125.219-.082.399-.195.547-.344.156-.144.27-.316.344-.515.082-.207.125-.426.125-.656 0-.25-.055-.454-.156-.61-.094-.164-.227-.301-.391-.406-.168-.113-.359-.207-.578-.281-.211-.071-.422-.141-.641-.203-.218-.071-.437-.149-.656-.235-.211-.094-.398-.207-.562-.344-.168-.132-.305-.3-.407-.5-.093-.207-.14-.46-.14-.765 0-.227.039-.453.125-.672.093-.219.222-.41.39-.578.176-.176.391-.313.641-.406.258-.102.551-.157.875-.157.363 0 .691.059.984.172.289.117.555.293.797.531zm0 0"/></symbol><symbol id="ai" overflow="visible"><path d="m3.984 0c-.105 0-.168-.047-.187-.141l-.078-.64c-.137.136-.274.261-.406.375-.137.105-.278.195-.422.265-.149.075-.305.125-.469.157-.168.039-.356.062-.563.062-.168 0-.336-.027-.5-.078-.156-.039-.296-.113-.421-.219-.118-.101-.215-.234-.297-.39-.075-.164-.11-.364-.11-.594 0-.207.055-.399.172-.578.125-.188.313-.344.563-.469.257-.133.586-.242.984-.328.406-.082.891-.129 1.453-.141v-.515c0-.457-.101-.813-.297-1.063-.199-.25-.492-.375-.875-.375-.242 0-.449.039-.625.109-.168.063-.308.137-.422.219-.117.074-.211.149-.281.219-.074.062-.137.094-.187.094-.063 0-.11-.032-.141-.094l-.094-.141c.258-.257.532-.453.813-.578.289-.133.617-.203.984-.203.258 0 .488.043.688.125.207.086.375.203.5.359.132.157.234.352.297.579.07.218.109.468.109.75v3.234zm-2-.266c.188 0 .36-.019.516-.062.164-.039.316-.098.453-.172.145-.07.274-.16.391-.266.125-.101.242-.218.359-.343v-1.282c-.469.012-.875.047-1.219.11-.343.054-.625.133-.843.234-.219.094-.383.215-.485.359-.105.137-.156.293-.156.469 0 .168.023.313.078.438.051.117.117.215.203.297.094.074.196.132.313.171.125.032.254.047.39.047zm0 0"/></symbol><symbol id="aj" overflow="visible"><path d="m6.5 0h-.516v-3.391h-4.421v3.391h-.516v-7.063h.516v3.297h4.421v-3.297h.516zm0 0"/></symbol><symbol id="ak" overflow="visible"><path d="m.453.219c-.023.07-.062.125-.125.156-.055.031-.105.047-.156.047h-.203l3.109-7.5c.051-.125.141-.188.266-.188h.203zm0 0"/></symbol><symbol id="al" overflow="visible"><path d="m5.344-7.063v.219c0 .055-.008.102-.016.141-.012.043-.027.078-.047.109l-3.234 6.406c-.031.063-.07.11-.109.141-.043.031-.102.047-.172.047h-.328l3.265-6.391c.039-.082.094-.16.156-.234h-4.078c-.043 0-.074-.008-.093-.031-.024-.032-.032-.067-.032-.11v-.297zm0 0"/></symbol><symbol id="am" overflow="visible"><path d="m2.453-5.047c.207 0 .406.027.594.078.187.055.351.125.5.219h1.266v.172c0 .086-.047.125-.141.125l-.75.062c.094.125.164.266.219.422.05.156.078.328.078.516 0 .242-.047.461-.141.656-.086.188-.203.352-.359.484-.156.137-.344.247-.563.329-.211.074-.445.109-.703.109-.293 0-.555-.039-.781-.125-.149.086-.262.184-.344.297-.074.105-.109.211-.109.312 0 .137.047.246.14.328.102.075.239.133.407.172.164.032.351.055.562.063.207.012.422.023.641.031.219.012.429.031.64.063.219.031.407.086.563.156.164.074.301.18.406.312.102.137.156.313.156.532 0 .207-.054.406-.156.593-.105.188-.258.352-.453.5-.199.157-.437.274-.719.36-.273.094-.578.14-.922.14-.343 0-.652-.039-.921-.109-.262-.074-.481-.172-.657-.297-.179-.125-.312-.265-.406-.422-.086-.156-.125-.324-.125-.5 0-.273.082-.5.25-.687.176-.188.414-.332.719-.438-.168-.051-.305-.129-.406-.234-.094-.113-.141-.266-.141-.453 0-.071.016-.145.047-.219.031-.082.07-.16.125-.234.051-.071.113-.141.187-.204.071-.07.16-.132.266-.187-.242-.133-.43-.313-.563-.531-.125-.227-.187-.492-.187-.797 0-.238.039-.457.125-.656.082-.196.203-.364.359-.5.157-.145.344-.254.563-.329.219-.07.461-.109.734-.109zm1.828 5.375c0-.156-.043-.281-.125-.375-.074-.094-.179-.164-.312-.219-.137-.05-.297-.086-.485-.109-.179-.02-.367-.035-.562-.047-.188-.008-.383-.019-.578-.031-.199-.008-.383-.031-.547-.063-.125.055-.246.11-.359.172-.106.063-.2.137-.282.219-.074.086-.133.172-.172.266-.043.101-.062.211-.062.328 0 .144.035.281.109.406.071.125.18.234.328.328.145.094.321.164.532.219.218.051.461.078.734.078.25 0 .484-.031.703-.094.219-.054.406-.133.563-.234.164-.106.289-.231.375-.375.093-.137.14-.293.14-.469zm-1.828-2.531c.207 0 .395-.024.563-.078.164-.063.304-.145.422-.25.113-.114.195-.25.25-.407.062-.156.093-.328.093-.515 0-.188-.031-.352-.093-.5-.063-.156-.153-.285-.266-.391-.117-.113-.258-.203-.422-.265-.156-.063-.34-.094-.547-.094-.219 0-.414.031-.578.094-.168.062-.309.152-.422.265-.117.106-.203.235-.265.391-.055.148-.079.312-.079.5 0 .187.024.359.079.515.062.157.148.293.265.407.113.105.254.187.422.25.164.054.359.078.578.078zm0 0"/></symbol><symbol id="an" overflow="visible"><path d="m.813 0v-7.266h.468v3.141c.227-.281.489-.504.782-.672.3-.164.632-.25 1-.25.269 0 .507.047.718.141.207.086.379.211.516.375.133.156.238.351.312.578.071.23.11.492.11.781v3.172h-.485v-3.172c0-.469-.109-.832-.328-1.094-.211-.269-.531-.406-.968-.406-.325 0-.625.09-.907.266-.281.168-.531.398-.75.687v3.719zm0 0"/></symbol><symbol id="ao" overflow="visible"><path d="m.5-3.172h2.328v.406h-2.328zm0 0"/></symbol><symbol id="ap" overflow="visible"><path d="m3.063-7.141c.269 0 .523.039.765.11.238.074.445.187.625.343.188.149.332.336.438.563.101.219.156.477.156.766 0 .23-.039.437-.109.625-.075.179-.172.339-.297.484-.125.137-.278.25-.453.344-.168.093-.352.168-.547.218.519.094.91.297 1.172.61.269.305.406.683.406 1.14 0 .293-.059.563-.172.813-.117.242-.277.453-.484.641-.2.179-.438.32-.719.421-.274.094-.571.141-.891.141-.406 0-.746-.055-1.015-.156-.262-.113-.481-.254-.657-.422-.179-.176-.312-.367-.406-.578-.094-.219-.172-.438-.234-.656l.187-.079c.039-.007.082-.015.125-.015.031 0 .063.012.094.031.039.012.066.039.078.078l.031.11c.02.062.047.136.078.218.039.086.094.18.157.282.062.093.132.187.218.281.082.094.188.18.313.25.125.074.269.137.437.187.164.043.364.063.594.063.289 0 .547-.047.766-.141.226-.101.414-.234.562-.39.157-.157.27-.329.344-.516.082-.188.125-.375.125-.563 0-.207-.039-.406-.109-.593-.063-.188-.18-.348-.344-.485-.156-.132-.367-.238-.625-.312-.262-.082-.586-.125-.969-.125v-.344c.313-.008.582-.051.813-.125.226-.07.422-.172.578-.297.156-.133.273-.289.359-.469.082-.187.125-.382.125-.593 0-.25-.043-.461-.125-.641-.086-.187-.199-.336-.344-.453-.136-.125-.296-.211-.484-.266-.187-.062-.383-.093-.578-.093-.231 0-.438.031-.625.093-.188.063-.356.157-.5.282-.137.117-.258.261-.359.437-.094.168-.165.356-.204.563-.031.117-.093.171-.187.171-.024 0-.039-.003-.047-.015l-.25-.031c.039-.301.125-.571.25-.813.125-.238.281-.437.469-.594.187-.164.406-.289.656-.375.25-.082.52-.125.813-.125zm0 0"/></symbol><symbol id="aq" overflow="visible"><path d="m.813 0v-4.969h.25c.093 0 .144.043.156.125l.047.719c.093-.133.191-.258.297-.375.113-.113.234-.207.359-.281.125-.082.254-.145.391-.188.144-.051.296-.078.453-.078.363 0 .656.109.875.328.218.211.363.5.437.875.063-.207.145-.383.25-.531.113-.156.238-.281.375-.375.133-.102.285-.176.453-.219.164-.051.336-.078.516-.078.238 0 .457.043.656.125.195.086.363.203.5.359.145.157.254.356.328.594.071.231.11.496.11.797v3.172h-.485v-3.172c0-.488-.105-.859-.312-1.109-.211-.258-.512-.391-.906-.391-.168 0-.336.031-.5.094-.157.062-.297.156-.422.281-.118.125-.211.281-.282.469-.074.187-.109.406-.109.656v3.172h-.469v-3.172c0-.488-.101-.859-.297-1.109-.187-.258-.468-.391-.843-.391-.274 0-.524.086-.75.25-.231.156-.434.383-.61.672v3.75zm0 0"/></symbol><symbol id="ar" overflow="visible"><path d="m2.641 0h-.422l-2.094-4.969h.375c.039 0 .078.016.109.047.032.024.051.047.063.078l1.641 3.922c.031.074.05.149.062.219.02.062.039.133.063.203.019-.07.035-.141.046-.203.02-.07.047-.145.079-.219l1.64-3.922c.02-.039.039-.07.063-.094.031-.019.066-.031.109-.031h.359zm0 0"/></symbol><symbol id="as" overflow="visible"><path d="m1.156-4.969v3.172c0 .469.102.84.313 1.109.219.262.547.391.984.391.32 0 .625-.082.906-.25.282-.164.532-.394.75-.687v-3.735h.485v4.969h-.266c-.094 0-.14-.039-.14-.125l-.047-.75c-.231.293-.496.527-.797.703-.305.168-.637.25-1 .25-.281 0-.528-.043-.735-.125-.211-.094-.382-.219-.515-.375-.137-.164-.242-.363-.313-.594-.062-.226-.093-.488-.093-.781v-3.172zm0 0"/></symbol><symbol id="at" overflow="visible"><path d="m2.688-5.047c.269 0 .523.055.765.156.238.094.445.235.625.422.176.18.313.403.406.672.094.274.141.578.141.922 0 .074-.012.125-.031.156-.024.024-.055.031-.094.031h-3.594v.094c0 .375.039.711.125 1 .094.281.219.516.375.703.157.188.348.336.578.438.227.094.485.14.766.14.25 0 .461-.023.641-.078.187-.062.343-.125.468-.187.125-.07.223-.133.297-.188.071-.05.125-.078.157-.078.039 0 .07.016.093.047l.141.156c-.086.106-.195.2-.328.282-.125.086-.274.156-.438.218-.156.063-.328.11-.515.141-.188.039-.375.063-.563.063-.336 0-.64-.059-.922-.172-.281-.125-.523-.297-.718-.516-.2-.227-.356-.504-.469-.828-.106-.332-.156-.711-.156-1.141 0-.351.05-.679.156-.984.101-.301.25-.555.437-.766.188-.219.422-.39.703-.515.282-.125.598-.188.954-.188zm0 .359c-.262 0-.497.043-.704.125-.199.075-.371.188-.515.344-.149.149-.266.324-.36.531-.093.211-.156.446-.187.704h3.281c0-.27-.039-.508-.109-.719-.074-.207-.18-.383-.313-.531-.136-.145-.297-.254-.484-.329-.18-.082-.383-.125-.609-.125zm0 0"/></symbol><symbol id="au" overflow="visible"><path d="m1.969-2.547-1.719-2.422h.453c.039 0 .07.012.094.031.019.024.039.043.062.063l1.454 2.109c.019-.05.05-.109.093-.172l1.36-1.921c.019-.032.039-.055.062-.079.02-.019.047-.031.078-.031h.453l-1.75 2.406 1.813 2.563h-.453c-.043 0-.078-.008-.11-.031-.031-.032-.054-.063-.062-.094l-1.516-2.203c-.011.074-.031.133-.062.172l-1.453 2.047c-.024.031-.047.058-.078.078-.024.023-.055.031-.094.031h-.422zm0 0"/></symbol><symbol id="av" overflow="visible"><path d="m1.547-.375h1.625v-5.719c0-.113.004-.234.016-.359l-1.563 1.375c-.031.031-.074.047-.125.047-.055 0-.094-.02-.125-.063l-.141-.203 2.032-1.797h.375v6.719h1.547v.375h-3.641zm0 0"/></symbol><symbol id="aw" overflow="visible"><path d="m.547-.422c0-.113.035-.211.109-.297.082-.082.192-.125.328-.125.145 0 .254.055.329.156.082.094.125.219.125.375 0 .137-.024.274-.063.407-.031.144-.086.285-.156.422-.063.132-.141.265-.235.39-.093.133-.199.254-.312.36l-.063-.078c-.031-.032-.046-.059-.046-.079 0-.023.003-.043.015-.062.008-.012.02-.024.031-.031.032-.043.071-.094.125-.157.051-.062.102-.14.157-.234.05-.086.097-.18.14-.281.039-.106.071-.219.094-.344-.023.008-.047.016-.078.016-.024 0-.047 0-.078 0-.125 0-.231-.039-.313-.125-.074-.082-.109-.188-.109-.313zm0 0"/></symbol><symbol id="ax" overflow="visible"><path d="m2.891.078c-.336 0-.641-.043-.922-.125-.281-.094-.528-.223-.735-.391-.199-.175-.355-.382-.468-.625-.118-.238-.172-.503-.172-.796 0-.258.035-.489.109-.688.082-.207.192-.383.328-.531.133-.156.297-.281.485-.375.187-.102.394-.18.625-.235-.211-.062-.399-.144-.563-.25-.156-.101-.293-.222-.406-.359-.106-.144-.184-.305-.234-.484-.055-.176-.079-.364-.079-.563 0-.25.047-.484.141-.703s.227-.406.406-.562c.176-.164.391-.297.641-.391s.531-.141.844-.141c.312 0 .593.047.843.141.258.094.477.227.657.391.175.156.312.343.406.562s.141.453.141.703c0 .199-.032.387-.094.563-.055.179-.137.34-.25.484-.106.137-.242.258-.406.359-.157.106-.336.188-.532.25.219.055.422.133.61.235.187.094.347.219.484.375.145.148.254.324.328.531.07.199.11.43.11.688 0 .293-.059.558-.172.796-.106.243-.262.45-.469.625-.199.168-.438.297-.719.391-.281.082-.594.125-.937.125zm0-.375c.269 0 .515-.035.734-.109.227-.082.422-.192.578-.328.156-.133.274-.297.36-.485.093-.195.14-.414.14-.656 0-.313-.058-.566-.172-.766-.117-.207-.261-.375-.437-.5-.18-.125-.375-.211-.594-.265-.211-.051-.414-.078-.609-.078-.2 0-.407.027-.625.078-.211.054-.403.14-.578.265-.18.125-.325.293-.438.5-.105.2-.156.453-.156.766 0 .242.039.461.125.656.082.188.203.352.359.485.164.136.36.246.578.328.219.074.461.109.735.109zm0-3.562c.269 0 .504-.039.703-.125.195-.082.359-.192.484-.329.133-.132.235-.289.297-.468.063-.176.094-.364.094-.563 0-.195-.039-.383-.11-.562-.062-.176-.164-.328-.296-.453-.137-.133-.305-.239-.5-.313-.2-.07-.422-.109-.672-.109s-.477.039-.672.109c-.188.074-.352.18-.485.313-.136.125-.242.277-.312.453-.074.179-.109.367-.109.562 0 .199.031.387.093.563.063.179.157.336.282.468.132.137.3.247.5.329.195.086.429.125.703.125zm0 0"/></symbol><symbol id="ay" overflow="visible"><path d="m.156-4.313h.813c.051-.437.148-.828.297-1.171.156-.352.347-.649.578-.891.226-.25.492-.438.797-.563.3-.132.64-.203 1.015-.203.207 0 .399.024.578.063.188.043.36.101.516.172.156.074.297.168.422.281.133.105.266.227.391.359l-.157.188c-.011.012-.027.023-.047.031-.011.012-.031.016-.062.016-.024 0-.055-.016-.094-.047-.031-.031-.078-.07-.14-.125-.055-.051-.122-.11-.204-.172-.086-.063-.183-.113-.296-.156-.106-.051-.235-.094-.391-.125-.149-.039-.313-.063-.5-.063-.305 0-.578.055-.828.156-.25.106-.469.262-.656.469-.188.199-.344.449-.469.75-.125.305-.211.649-.25 1.031h3v.157c0 .031-.016.062-.047.093-.024.032-.059.047-.109.047h-2.875c-.012.157-.016.321-.016.485v.203.187h2.594v.157c0 .043-.016.078-.047.109-.031.023-.071.031-.11.031h-2.406c.039.418.117.781.235 1.094.125.312.281.574.468.781.188.211.407.371.657.485.25.105.523.156.828.156.195 0 .375-.02.531-.063.164-.039.305-.093.422-.156.125-.062.226-.129.312-.203.082-.07.157-.133.219-.188.063-.062.113-.113.156-.156.039-.039.078-.062.11-.062.031 0 .062.015.093.047l.188.171c-.125.157-.262.297-.406.422-.137.125-.289.235-.453.328-.168.086-.356.149-.563.188-.199.051-.414.078-.641.078-.375 0-.718-.062-1.031-.187-.305-.133-.57-.329-.797-.579-.218-.25-.402-.55-.547-.906-.136-.363-.226-.781-.265-1.25h-.813v-.297h.782c0-.062-.008-.125-.016-.187 0-.063 0-.129 0-.203 0-.164.004-.328.016-.485h-.782zm0 0"/></symbol><symbol id="az" overflow="visible"><path d="m6.188-1.188c.031 0 .054.012.078.032l.203.218c-.149.157-.309.297-.485.422-.179.125-.371.235-.578.328-.199.086-.422.149-.672.188-.242.051-.507.078-.796.078-.493 0-.938-.082-1.344-.25-.406-.176-.758-.422-1.047-.734-.293-.313-.524-.692-.688-1.141-.156-.445-.234-.941-.234-1.484 0-.539.082-1.032.25-1.469.164-.445.398-.828.703-1.141.301-.32.664-.566 1.094-.734.426-.176.894-.266 1.406-.266.258 0 .492.024.703.063.219.031.414.086.594.156.188.074.359.164.516.266.164.105.328.23.484.375l-.156.218c-.024.043-.063.063-.125.063-.024 0-.059-.016-.11-.047-.043-.039-.101-.086-.171-.141-.075-.05-.165-.101-.266-.156-.106-.062-.227-.117-.359-.172-.137-.05-.297-.093-.485-.125-.187-.039-.398-.062-.625-.062-.43 0-.824.074-1.187.219-.356.148-.664.359-.922.64-.262.274-.465.606-.61 1-.148.387-.218.824-.218 1.313 0 .5.07.949.218 1.343.145.387.344.715.594.985.25.273.547.48.891.625.344.148.719.219 1.125.219.25 0 .472-.016.672-.047.195-.032.379-.078.547-.141.164-.07.32-.156.468-.25.145-.101.285-.219.422-.344.02-.007.035-.019.047-.031.02-.008.039-.016.063-.016zm0 0"/></symbol><symbol id="aA" overflow="visible"><path d="m.813 0v-4.969h.25c.05 0 .085.016.109.047.031.024.047.059.047.109l.047 1.047c.156-.406.363-.718.625-.937.269-.227.601-.344 1-.344.144 0 .281.016.406.047s.242.074.359.125l-.062.344c-.012.054-.043.078-.094.078-.023 0-.055-.004-.094-.016-.031-.019-.078-.035-.14-.047-.055-.019-.121-.035-.203-.047-.075-.019-.165-.031-.266-.031-.375 0-.688.121-.938.36-.242.23-.433.562-.578 1v3.234zm0 0"/></symbol><symbol id="aB" overflow="visible"><path d="m4.328 0c-.086 0-.133-.039-.14-.125l-.047-.781c-.231.293-.493.527-.782.703-.293.18-.621.266-.984.266-.617 0-1.094-.208-1.437-.626-.336-.425-.5-1.062-.5-1.906 0-.363.046-.703.14-1.015.094-.313.227-.582.406-.813.188-.238.414-.422.688-.547.269-.133.578-.203.922-.203s.633.063.875.188c.25.125.461.308.64.546v-2.953h.485v7.266zm-1.828-.313c.332 0 .629-.082.891-.25.269-.175.507-.414.718-.718v-2.625c-.187-.282-.402-.477-.64-.594-.231-.113-.492-.172-.781-.172-.293 0-.547.055-.766.156-.219.106-.406.258-.563.453-.148.188-.257.422-.328.704-.074.273-.109.57-.109.89 0 .742.133 1.289.406 1.641.281.344.672.515 1.172.515zm0 0"/></symbol><symbol id="aC" overflow="visible"><path d="m.859 0v-7.266h.485v3.172c.219-.289.469-.519.75-.687.289-.176.617-.266.984-.266.613 0 1.086.215 1.422.641.344.418.516 1.047.516 1.89 0 .368-.047.703-.141 1.016-.094.312-.234.59-.422.828-.187.231-.418.414-.687.547-.262.125-.571.188-.922.188-.344 0-.641-.067-.891-.204-.25-.132-.465-.332-.64-.593l-.032.609c-.011.086-.058.125-.14.125zm2.094-4.672c-.336 0-.637.09-.906.266-.262.168-.496.402-.703.703v2.625c.187.281.394.48.625.594.226.117.492.171.797.171.289 0 .547-.05.765-.156.219-.101.399-.254.547-.453.145-.195.254-.43.328-.703.082-.27.125-.566.125-.891 0-.738-.14-1.281-.422-1.625-.273-.351-.656-.531-1.156-.531zm0 0"/></symbol><symbol id="aD" overflow="visible"><path d="m3.547-4.359c-.024.054-.059.078-.109.078-.043 0-.094-.02-.157-.063-.054-.039-.125-.086-.218-.14-.094-.051-.215-.098-.36-.141-.137-.039-.305-.063-.5-.063-.18 0-.34.028-.484.079-.149.054-.278.125-.391.218-.105.086-.187.184-.25.297-.055.117-.078.235-.078.36 0 .156.039.289.125.39.082.106.188.196.313.266.125.074.269.137.437.187.164.055.332.106.5.157.176.054.348.109.516.171.164.063.312.149.437.25.133.094.238.215.313.36.082.137.125.305.125.5 0 .219-.043.422-.125.609-.075.188-.184.352-.328.485-.149.136-.329.246-.547.328-.219.07-.465.109-.735.109-.355 0-.656-.055-.906-.156-.25-.113-.48-.266-.687-.453l.125-.157c.007-.031.023-.05.046-.062.02-.02.051-.031.094-.031.039 0 .094.031.156.093.063.055.145.11.25.172.102.063.227.121.375.172.157.055.344.078.563.078.207 0 .391-.023.547-.078.164-.062.301-.144.406-.25.102-.101.18-.219.234-.344.063-.132.094-.281.094-.437 0-.164-.043-.301-.125-.406-.086-.114-.187-.207-.312-.282-.125-.082-.274-.148-.438-.203-.168-.05-.34-.101-.515-.156-.18-.051-.352-.109-.516-.172-.156-.062-.305-.14-.438-.234-.125-.102-.23-.223-.312-.36-.086-.132-.125-.304-.125-.515 0-.176.035-.344.109-.5.082-.164.192-.313.328-.438.145-.125.317-.222.516-.297.207-.07.441-.109.703-.109.301 0 .567.047.797.141.238.086.457.215.656.39zm0 0"/></symbol><symbol id="aE" overflow="visible"><path d="m1.891 1.594c-.024.051-.047.086-.078.109-.032.031-.079.047-.141.047h-.328l.875-1.938-2.11-4.781h.391c.051 0 .086.016.109.047.032.024.055.047.079.078l1.671 3.86c.02.054.036.105.047.156.02.055.035.105.047.156.008-.051.024-.101.047-.156.02-.051.039-.102.063-.156l1.656-3.86c.008-.039.031-.07.062-.094.032-.019.067-.031.11-.031h.359zm0 0"/></symbol><symbol id="aF" overflow="visible"><path d="m1 0v-4.453l-.703-.047c-.094 0-.141-.039-.141-.125v-.188h.844v-.625c0-.281.035-.531.109-.75.071-.218.172-.394.297-.531.133-.144.297-.254.485-.328.187-.07.394-.109.625-.109.101 0 .207.011.312.031.102.023.195.047.281.078l-.015.234c-.012.043-.043.063-.094.063-.043 0-.102-.004-.172-.016-.062-.007-.148-.015-.25-.015-.156 0-.308.027-.453.078-.137.043-.258.121-.359.234-.094.106-.172.246-.235.422-.054.168-.078.375-.078.625v.609h1.61v.36h-1.594v4.453zm0 0"/></symbol><symbol id="aG" overflow="visible"/><symbol id="aH" overflow="visible"><path d="m2.063-5.078.093 5.094c0 .226-.031.445-.093.656-.055.219-.149.406-.282.562-.125.157-.304.282-.531.375-.23.094-.512.141-.844.141-.125 0-.242-.012-.343-.031-.102-.012-.211-.031-.329-.063l.032-.797c0-.062.023-.117.062-.156.043-.031.121-.047.235-.047.113 0 .207-.011.281-.031.082-.023.144-.059.187-.109.039-.043.067-.106.078-.188.02-.086.032-.187.032-.312l-.094-5.094zm.156-1.375c0 .117-.028.226-.078.328-.043.105-.106.199-.188.281-.086.086-.183.153-.297.203-.105.043-.218.063-.343.063s-.247-.02-.36-.063c-.105-.05-.203-.117-.297-.203-.086-.082-.152-.176-.203-.281-.043-.102-.062-.211-.062-.328 0-.125.019-.238.062-.344.039-.113.102-.211.188-.297.082-.082.175-.144.281-.187.113-.039.234-.063.359-.063s.239.024.344.063c.113.043.211.105.297.187.094.086.164.184.219.297.05.106.078.219.078.344zm0 0"/></symbol><symbol id="aI" overflow="visible"><path d="m1.906-5.078.063 3.219c0 .25.054.449.172.593.125.137.3.203.531.203.156 0 .305-.031.453-.093.145-.071.281-.172.406-.297l-.062-3.625h1.531l.094 5.078h-.953c-.188 0-.309-.082-.36-.25l-.109-.297c-.094.094-.195.184-.297.266-.105.074-.219.136-.344.187-.117.055-.242.094-.375.125-.136.032-.289.047-.453.047-.273 0-.515-.047-.734-.141-.211-.093-.391-.226-.547-.406-.149-.176-.262-.379-.344-.609-.086-.238-.125-.5-.125-.781l-.062-3.219zm0 0"/></symbol><symbol id="aJ" overflow="visible"><path d="m3.625-3.969c-.043.063-.086.11-.125.141-.043.023-.102.031-.172.031-.074 0-.148-.016-.219-.047-.062-.031-.136-.062-.218-.094-.086-.031-.184-.062-.297-.093-.106-.032-.227-.047-.36-.047-.199 0-.343.039-.437.109-.094.074-.141.172-.141.297 0 .094.032.172.094.234.063.063.148.122.266.172.113.043.242.086.39.125.145.043.289.09.438.141.144.055.285.117.422.187.144.075.269.165.375.266.113.106.207.231.281.375.07.149.109.324.109.531.008.25-.031.481-.125.688-.093.211-.23.39-.406.547-.168.156-.387.277-.656.359-.262.082-.571.125-.922.125-.168 0-.34-.015-.516-.047-.168-.031-.336-.07-.5-.125-.156-.062-.308-.129-.453-.203-.137-.082-.258-.164-.359-.25l.344-.562c.039-.063.093-.11.156-.141.062-.039.14-.063.234-.063.082 0 .16.024.235.063.07.031.144.074.218.125.082.043.176.086.282.125.113.043.253.062.421.062.125 0 .223-.007.297-.031.082-.031.149-.066.203-.109.051-.039.086-.086.11-.141.019-.051.023-.109.015-.172 0-.093-.039-.172-.109-.234-.062-.07-.152-.129-.266-.172-.105-.051-.23-.098-.375-.141-.148-.039-.293-.085-.437-.14-.149-.051-.293-.113-.438-.188-.148-.07-.277-.16-.39-.265-.106-.114-.196-.254-.266-.422-.074-.164-.109-.363-.109-.594 0-.219.035-.422.109-.609.07-.196.192-.367.36-.516.164-.144.375-.258.625-.344.25-.093.539-.14.875-.14.175 0 .347.023.515.062.176.031.344.078.5.141.156.055.297.121.422.203.125.074.234.156.328.25zm0 0"/></symbol><symbol id="aK" overflow="visible"><path d="m5-5.078.125 6.687h-1.531l-.047-2.156c-.18.188-.387.34-.625.453-.242.114-.524.172-.844.172-.262 0-.508-.058-.734-.172-.219-.125-.418-.297-.594-.515-.168-.219-.297-.489-.391-.813-.093-.32-.148-.687-.156-1.094 0-.382.047-.738.141-1.062.094-.32.234-.598.422-.828.187-.239.41-.426.672-.563.269-.133.566-.203.89-.203.145 0 .281.016.406.047.125.023.239.059.344.109.102.055.203.118.297.188.094.062.18.137.266.219l.062-.204c.039-.175.156-.265.344-.265zm-2.406 4c.113 0 .211-.008.297-.031.093-.032.175-.063.25-.094.07-.039.14-.086.203-.141.062-.062.125-.133.187-.219l-.031-2.156c-.117-.113-.242-.195-.375-.25-.137-.051-.277-.078-.422-.078-.148 0-.277.027-.39.078-.106.055-.204.141-.297.266-.086.125-.149.289-.188.484-.043.188-.062.422-.062.703.007.262.031.485.062.672.039.188.098.34.172.453.082.106.172.184.266.235.101.054.211.078.328.078zm0 0"/></symbol><symbol id="aL" overflow="visible"><path d="m1.531-7.578c.125.199.223.402.297.609.07.211.11.414.11.61 0 .355-.09.695-.266 1.015-.18.313-.445.606-.797.875l-.469-.281c-.043-.031-.074-.063-.093-.094-.024-.031-.04-.062-.047-.094 0-.031.007-.062.031-.093.019-.039.039-.071.062-.094.032-.031.067-.07.11-.125.051-.063.094-.129.125-.203.039-.082.07-.172.094-.266.031-.094.046-.191.046-.297 0-.125-.023-.25-.062-.375-.043-.132-.117-.281-.219-.437-.043-.051-.062-.102-.062-.156 0-.063.019-.114.062-.157.039-.039.098-.078.172-.109zm0 0"/></symbol><symbol id="aM" overflow="visible"><path d="m4.094 0c-.149 0-.258-.02-.328-.063-.075-.039-.137-.117-.188-.234l-.125-.281c-.117.105-.234.199-.359.281-.117.086-.235.156-.36.219-.125.055-.261.086-.406.109-.137.032-.289.047-.453.047-.242 0-.453-.031-.641-.094-.187-.062-.351-.148-.484-.265-.137-.114-.242-.258-.312-.438-.075-.176-.11-.379-.11-.609-.012-.176.024-.36.11-.547.093-.188.25-.359.468-.516.227-.156.532-.285.907-.39.382-.102.867-.16 1.453-.172l-.016-.219c0-.289-.062-.504-.187-.641-.125-.132-.297-.203-.516-.203-.188 0-.34.024-.453.063-.117.043-.219.09-.313.14-.086.043-.168.086-.25.125-.086.043-.183.063-.297.063-.105 0-.195-.023-.265-.078-.074-.051-.137-.113-.188-.188l-.281-.484c.301-.258.633-.457 1-.594.375-.133.773-.203 1.203-.203.301 0 .578.055.828.156.258.094.473.231.641.407.176.179.312.39.406.64.094.242.141.508.141.797l.062 3.172zm-1.766-.922c.195 0 .367-.031.516-.094.144-.07.289-.187.437-.343v-.704c-.312.012-.57.04-.765.079-.188.043-.34.093-.453.156-.118.055-.196.117-.235.187-.043.075-.062.157-.062.25.007.168.062.289.156.36.094.074.226.109.406.109zm-.078-6.281c.156 0 .27.027.344.078.07.055.133.125.187.219l.703 1.187h-.859c-.117 0-.211-.015-.281-.047-.074-.031-.153-.082-.235-.156l-1.281-1.281zm0 0"/></symbol><symbol id="aN" overflow="visible"><path d="m2.672-5.156c.332 0 .641.054.922.156.281.105.519.262.719.469.207.199.367.445.484.734.113.281.176.606.187.969 0 .117-.007.211-.015.281 0 .074-.016.133-.047.172-.024.043-.059.074-.109.094-.043.011-.102.015-.172.015h-2.922c.062.43.195.735.406.922.219.188.492.281.828.281.176 0 .328-.019.453-.062.125-.039.235-.086.328-.141.094-.05.18-.097.266-.14.082-.039.172-.063.266-.063.113 0 .207.047.281.141l.453.531c-.168.188-.34.34-.516.453-.168.106-.351.188-.546.25-.188.063-.375.102-.563.125-.187.032-.371.047-.547.047-.355 0-.687-.058-1-.172-.312-.113-.59-.285-.828-.515-.242-.227-.434-.508-.578-.844-.137-.344-.211-.738-.219-1.188-.012-.343.035-.664.141-.968.113-.301.281-.567.5-.797.219-.227.476-.41.781-.547.301-.133.648-.203 1.047-.203zm.031 1.047c-.281 0-.508.086-.672.25-.156.168-.261.406-.312.718h1.89c0-.125-.015-.242-.046-.359-.032-.113-.086-.211-.157-.297-.062-.094-.156-.164-.281-.219-.117-.062-.258-.093-.422-.093zm1.906-3.094-1.25 1.281c-.074.074-.14.125-.203.156-.062.032-.152.047-.265.047h-.922l.64-1.187c.051-.094.114-.164.188-.219.082-.051.195-.078.344-.078zm0 0"/></symbol><symbol id="aO" overflow="visible"><path d="m.625 1.609-.125-6.687h.938c.093 0 .171.027.234.078.062.043.109.105.141.187l.125.36c.093-.102.195-.195.312-.281.113-.094.227-.172.344-.235.125-.062.258-.109.406-.14.156-.039.32-.063.5-.063.258 0 .504.063.734.188.227.117.426.281.594.5.164.218.297.492.391.812.094.324.144.688.156 1.094.008.387-.039.742-.141 1.062-.093.325-.234.606-.421.844-.188.231-.418.414-.688.547-.262.133-.555.203-.875.203-.262 0-.48-.039-.656-.109-.18-.071-.34-.176-.485-.313l.032 1.953zm2.375-5.625c-.117 0-.219.012-.312.032-.086.023-.168.054-.25.093-.075.043-.141.094-.204.157-.062.054-.125.121-.187.203l.031 2.156c.125.125.25.215.375.266.133.054.274.078.422.078.145 0 .273-.024.391-.078.113-.063.211-.149.297-.266.082-.125.144-.285.187-.484.051-.196.07-.438.063-.719 0-.27-.024-.492-.063-.672-.043-.188-.102-.332-.172-.438-.074-.113-.156-.195-.25-.25-.094-.05-.203-.078-.328-.078zm0 0"/></symbol><symbol id="aP" overflow="visible"><path d="m2.063-5.078.093 5.078h-1.515l-.094-5.078zm.156-1.375c0 .117-.028.226-.078.328-.043.105-.106.199-.188.281-.086.086-.183.153-.297.203-.105.043-.218.063-.343.063s-.247-.02-.36-.063c-.105-.05-.203-.117-.297-.203-.086-.082-.152-.176-.203-.281-.043-.102-.062-.211-.062-.328 0-.125.019-.238.062-.344.039-.113.102-.211.188-.297.082-.082.175-.144.281-.187.113-.039.234-.063.359-.063s.239.024.344.063c.113.043.211.105.297.187.094.086.164.184.219.297.05.106.078.219.078.344zm0 0"/></symbol><symbol id="aQ" overflow="visible"><path d="m2.672-5.156c.332 0 .641.054.922.156.281.105.519.262.719.469.207.199.367.445.484.734.113.281.176.606.187.969 0 .117-.007.211-.015.281 0 .074-.016.133-.047.172-.024.043-.059.074-.109.094-.043.011-.102.015-.172.015h-2.922c.062.43.195.735.406.922.219.188.492.281.828.281.176 0 .328-.019.453-.062.125-.039.235-.086.328-.141.094-.05.18-.097.266-.14.082-.039.172-.063.266-.063.113 0 .207.047.281.141l.453.531c-.168.188-.34.34-.516.453-.168.106-.351.188-.546.25-.188.063-.375.102-.563.125-.187.032-.371.047-.547.047-.355 0-.687-.058-1-.172-.312-.113-.59-.285-.828-.515-.242-.227-.434-.508-.578-.844-.137-.344-.211-.738-.219-1.188-.012-.343.035-.664.141-.968.113-.301.281-.567.5-.797.219-.227.476-.41.781-.547.301-.133.648-.203 1.047-.203zm.031 1.047c-.281 0-.508.086-.672.25-.156.168-.261.406-.312.718h1.89c0-.125-.015-.242-.046-.359-.032-.113-.086-.211-.157-.297-.062-.094-.156-.164-.281-.219-.117-.062-.258-.093-.422-.093zm0 0"/></symbol><symbol id="aR" overflow="visible"><path d="m.594 0-.094-5.078h.938c.093 0 .171.027.234.078.062.043.109.105.141.187l.093.266c.082-.082.164-.16.25-.234.094-.071.192-.133.297-.188.102-.062.211-.109.328-.14.125-.032.258-.047.407-.047.312 0 .566.086.765.25.207.156.363.367.469.625.082-.157.187-.285.312-.391.125-.113.254-.203.391-.266.133-.07.281-.125.438-.156.156-.039.316-.062.484-.062.281 0 .535.047.766.14.238.086.429.211.578.375.156.168.273.371.359.61.082.242.125.511.125.812l.063 3.219h-1.516l-.063-3.219c0-.531-.23-.797-.687-.797-.199 0-.367.071-.5.203-.137.137-.203.336-.203.594l.062 3.219h-1.515l-.063-3.219c0-.289-.058-.492-.172-.609-.117-.125-.281-.188-.5-.188-.148 0-.281.032-.406.094-.117.063-.227.149-.328.25l.062 3.672zm0 0"/></symbol><symbol id="aS" overflow="visible"><path d="m.594 0-.094-5.078h.938c.093 0 .171.027.234.078.062.043.109.105.141.187l.093.282c.094-.082.192-.16.297-.235.113-.082.223-.148.328-.203.114-.062.239-.109.375-.14.145-.032.301-.047.469-.047.27 0 .516.054.734.156.219.094.399.23.547.406.145.168.258.371.344.61.082.23.125.484.125.765l.063 3.219h-1.516l-.063-3.219c0-.25-.058-.441-.171-.578-.118-.144-.282-.219-.5-.219-.168 0-.329.039-.485.11-.148.074-.281.172-.406.297l.062 3.609zm0 0"/></symbol><symbol id="aT" overflow="visible"><path d="m2.359.078c-.242 0-.453-.031-.64-.094-.18-.07-.336-.172-.469-.297-.125-.132-.227-.289-.297-.468-.062-.188-.101-.395-.109-.625l-.047-2.625h-.422c-.086 0-.152-.02-.203-.063-.055-.051-.078-.129-.078-.234l-.016-.594.797-.156.281-1.235c.039-.156.157-.234.344-.234h.781l.016 1.484h1.234l.016 1.032h-1.234l.046 2.531c.008.117.039.215.094.297.063.074.149.109.266.109.051 0 .094-.004.125-.015.039-.02.07-.036.094-.047.031-.008.054-.02.078-.032.031-.019.062-.031.093-.031.051 0 .086.012.11.031.031.024.062.059.094.11l.468.719c-.199.148-.418.257-.656.328-.242.07-.496.109-.766.109zm0 0"/></symbol><symbol id="aU" overflow="visible"><path d="m4.141 0c-.094 0-.172-.02-.235-.063-.062-.039-.105-.101-.125-.187l-.14-.391c-.106.106-.211.203-.313.297-.105.086-.226.156-.359.219-.125.062-.262.109-.406.141-.149.039-.309.062-.485.062-.262 0-.508-.058-.734-.172-.219-.125-.418-.297-.594-.515-.168-.219-.297-.489-.391-.813-.093-.32-.148-.687-.156-1.094 0-.382.047-.738.141-1.062.094-.32.234-.598.422-.828.187-.239.41-.426.672-.563.269-.133.566-.203.89-.203.258 0 .477.043.656.125.176.074.344.172.5.297l-.046-2.578h1.531l.125 7.328zm-1.547-1.078c.113 0 .211-.008.297-.031.093-.032.175-.063.25-.094.07-.039.14-.086.203-.141.062-.062.125-.133.187-.219l-.031-2.156c-.117-.125-.242-.207-.375-.25-.137-.051-.277-.078-.422-.078-.148 0-.277.027-.39.078-.106.055-.204.141-.297.266-.086.125-.149.289-.188.484-.043.188-.062.422-.062.703.007.262.031.485.062.672.039.188.098.34.172.453.082.106.172.184.266.235.101.054.211.078.328.078zm0 0"/></symbol><symbol id="aV" overflow="visible"><path d="m2.75-5.156c.383 0 .738.062 1.063.187.32.125.593.305.812.531.227.219.406.493.531.813.133.312.207.672.219 1.078.008.406-.047.774-.172 1.094-.117.324-.281.601-.5.828-.219.23-.492.406-.812.531-.313.114-.664.172-1.047.172-.387 0-.742-.058-1.063-.172-.312-.125-.59-.301-.828-.531-.23-.227-.414-.504-.547-.828-.125-.32-.195-.688-.203-1.094-.012-.406.039-.766.156-1.078.125-.32.301-.594.532-.813.226-.226.5-.406.812-.531.313-.125.66-.187 1.047-.187zm.078 4.109c.352 0 .61-.117.766-.359.156-.25.226-.625.219-1.125-.012-.508-.102-.883-.266-1.125-.168-.25-.43-.375-.781-.375-.356 0-.618.125-.782.375-.156.242-.23.617-.218 1.125.007.5.097.875.265 1.125.176.242.442.359.797.359zm0 0"/></symbol><symbol id="aW" overflow="visible"><path d="m4.188-3.875c-.055.062-.102.109-.141.141-.043.031-.102.046-.172.046-.086 0-.156-.015-.219-.046-.054-.039-.121-.082-.203-.125-.074-.039-.164-.079-.265-.11-.106-.039-.231-.062-.375-.062-.188 0-.352.039-.485.109-.125.063-.234.156-.328.281-.086.125-.148.282-.187.469-.032.188-.047.399-.047.625.007.492.109.867.297 1.125.195.262.457.391.781.391.176 0 .316-.02.422-.063.101-.051.191-.101.265-.156.071-.051.133-.098.188-.141.051-.05.125-.078.219-.078.125 0 .222.047.296.141l.438.531c-.156.188-.32.34-.484.453-.168.106-.344.188-.532.25-.179.063-.359.102-.547.125-.179.032-.355.047-.531.047-.305 0-.601-.058-.89-.172-.282-.125-.532-.297-.75-.515-.219-.219-.399-.489-.532-.813-.125-.332-.195-.707-.203-1.125 0-.363.047-.703.141-1.016.101-.32.258-.597.469-.828.218-.238.484-.425.796-.562.313-.133.672-.203 1.079-.203.406 0 .757.07 1.062.203.301.125.57.308.813.547zm0 0"/></symbol><symbol id="aX" overflow="visible"><path d="m1.984-7.328.063 4.109h.219c.093 0 .164-.008.218-.031.051-.031.098-.082.141-.156l.953-1.422c.039-.082.098-.145.172-.188.082-.039.18-.062.297-.062h1.391l-1.282 1.812c-.062.086-.133.164-.203.235-.062.062-.137.121-.219.172.145.105.27.25.375.437l1.469 2.422h-1.359c-.117 0-.215-.016-.297-.047-.086-.039-.152-.109-.203-.203l-.985-1.797c-.054-.082-.105-.133-.156-.156-.055-.031-.133-.047-.234-.047h-.281l.046 2.25h-1.515l-.125-7.328zm0 0"/></symbol><symbol id="aY" overflow="visible"><path d="m-26.203-19.031h4.672v10.765h6.125v-8.25h4.484v8.25h6.25v-10.765h4.672v16.875h-26.203zm0 0"/></symbol><symbol id="aZ" overflow="visible"><path d="m-4.859-8.234v-9.719h4.859v15.797h-26.203v-6.078zm0 0"/></symbol><symbol id="a0" overflow="visible"><path d="m-6.781-19.766c0-.144.027-.285.078-.422.055-.144.148-.285.281-.421l2.531-2.407c1.387 1.055 2.43 2.375 3.125 3.969.7 1.586 1.047 3.461 1.047 5.625 0 1.992-.336 3.777-1.015 5.359-.676 1.575-1.61 2.915-2.797 4.016-1.196 1.094-2.614 1.938-4.25 2.531-1.633.586-3.41.875-5.328.875-1.957 0-3.754-.332-5.391-1-1.633-.675-3.047-1.617-4.234-2.828-1.188-1.207-2.11-2.648-2.766-4.328-.656-1.676-.984-3.523-.984-5.547 0-.988.089-1.914.265-2.781.168-.875.406-1.688.719-2.438.305-.757.668-1.457 1.094-2.093.418-.633.886-1.196 1.406-1.688l2.75 2.047c.168.137.324.293.469.469.136.18.203.43.203.75 0 .219-.047.43-.141.625-.101.187-.222.39-.359.609-.133.211-.281.446-.438.703-.164.262-.316.571-.453.922-.144.356-.265.774-.359 1.25-.094.469-.141 1.024-.141 1.656 0 1.106.199 2.118.594 3.032.387.906.945 1.687 1.672 2.343.719.649 1.594 1.153 2.625 1.516 1.031.367 2.187.547 3.469.547 1.343 0 2.539-.18 3.578-.547 1.043-.363 1.922-.859 2.64-1.484.711-.633 1.25-1.367 1.625-2.203.368-.844.547-1.743.547-2.704 0-.55-.023-1.05-.078-1.5-.051-.457-.141-.878-.266-1.265-.132-.395-.304-.77-.515-1.125-.219-.352-.477-.711-.781-1.078-.125-.133-.223-.285-.297-.453-.082-.176-.125-.352-.125-.532zm0 0"/></symbol><symbol id="a1" overflow="visible"><path d="m-26.203-21.188h4.812v7.375h21.391v6.079h-21.391v7.375h-4.812zm0 0"/></symbol><symbol id="a2" overflow="visible"><path d="m-9.688-8.234h9.688v6.078h-26.203v-8.532c0-1.894.199-3.507.594-4.843.386-1.332.929-2.422 1.625-3.266.687-.851 1.507-1.469 2.453-1.844.949-.382 1.98-.578 3.093-.578.856 0 1.665.117 2.422.344.75.23 1.45.57 2.094 1.016.637.449 1.211 1 1.719 1.656.5.648.914 1.398 1.234 2.25.199-.406.449-.785.75-1.141.305-.351.668-.66 1.094-.922l9.125-5.578v5.5c0 1.024-.383 1.758-1.156 2.203l-7.61 4.344c-.332.188-.566.414-.703.672-.144.262-.219.625-.219 1.094zm-4.203 0v-2.454c0-.82-.101-1.523-.312-2.109-.207-.582-.492-1.055-.86-1.422-.375-.375-.812-.644-1.312-.812-.5-.164-1.035-.25-1.609-.25-1.145 0-2.039.375-2.688 1.125-.656.75-.984 1.906-.984 3.468v2.454zm0 0"/></symbol><symbol id="a3" overflow="visible"><path d="m-13.109-28.016c1.898 0 3.664.328 5.296.985 1.625.648 3.043 1.562 4.25 2.75 1.2 1.187 2.141 2.621 2.829 4.297.679 1.668 1.015 3.523 1.015 5.562 0 2.043-.336 3.902-1.015 5.578-.688 1.68-1.629 3.117-2.829 4.313-1.207 1.187-2.625 2.109-4.25 2.765-1.632.649-3.398.969-5.296.969-1.895 0-3.657-.32-5.282-.969-1.632-.656-3.05-1.578-4.25-2.765-1.195-1.196-2.132-2.633-2.812-4.313-.688-1.676-1.031-3.535-1.031-5.578 0-2.039.343-3.894 1.031-5.562.687-1.676 1.633-3.11 2.828-4.297 1.199-1.188 2.617-2.102 4.25-2.75 1.625-.657 3.383-.985 5.266-.985zm0 6.219c-1.289 0-2.457.168-3.5.5-1.039.336-1.922.82-2.641 1.453-.719.625-1.266 1.399-1.641 2.313-.382.906-.578 1.945-.578 3.109 0 1.18.196 2.227.578 3.141.375.918.922 1.695 1.641 2.328.719.625 1.602 1.105 2.641 1.437 1.043.336 2.211.5 3.5.5 1.304 0 2.476-.164 3.515-.5 1.043-.332 1.922-.812 2.641-1.437.719-.633 1.265-1.41 1.64-2.328.375-.914.563-1.961.563-3.141 0-1.164-.188-2.203-.563-3.109-.375-.914-.921-1.688-1.64-2.313-.719-.633-1.598-1.117-2.641-1.453-1.039-.332-2.211-.5-3.515-.5zm0 0"/></symbol><symbol id="a4" overflow="visible"><path d="m-9.969-15.234h9.969v6.078h-9.969l-16.234 9.5v-5.36c0-.531.125-.945.375-1.25.242-.312.555-.566.937-.765l7.625-3.703c.618-.301 1.184-.579 1.703-.829.512-.25 1.016-.472 1.516-.671-.508-.176-1.019-.391-1.531-.641-.52-.25-1.082-.52-1.688-.813l-7.625-3.671c-.156-.063-.312-.157-.468-.282-.157-.132-.297-.281-.422-.437-.125-.164-.223-.352-.297-.563-.082-.207-.125-.437-.125-.687v-5.391zm0 0"/></symbol><symbol id="a5" overflow="visible"><path d="m-20.875-16.766c.281.188.496.383.641.578.148.2.218.45.218.75 0 .282-.082.586-.25.907-.175.312-.375.672-.593 1.078-.219.398-.411.855-.579 1.375-.175.512-.265 1.094-.265 1.75 0 1.148.246 2 .734 2.562.481.555 1.133.828 1.953.828.532 0 .977-.164 1.328-.5.344-.343.641-.785.891-1.328.25-.539.481-1.16.688-1.859.211-.707.445-1.426.703-2.156.261-.739.57-1.457.922-2.157.343-.695.789-1.316 1.328-1.859.531-.551 1.187-.992 1.968-1.328.774-.332 1.7-.5 2.782-.5 1.218 0 2.355.211 3.406.625 1.055.418 1.977 1.027 2.766 1.828.781.793 1.398 1.777 1.843 2.953.446 1.168.672 2.492.672 3.969 0 .824-.086 1.656-.25 2.5s-.398 1.664-.703 2.453c-.312.793-.676 1.539-1.094 2.234-.414.688-.882 1.293-1.406 1.813l-2.828-1.797c-.219-.133-.391-.32-.516-.562-.132-.239-.203-.493-.203-.766 0-.363.117-.727.344-1.094.219-.363.469-.773.75-1.234.273-.469.523-1 .75-1.594.23-.601.344-1.312.344-2.125 0-1.101-.239-1.957-.719-2.562-.488-.614-1.266-.922-2.328-.922-.602 0-1.098.168-1.485.5-.382.336-.703.777-.953 1.328-.25.543-.468 1.164-.656 1.859-.195.688-.41 1.403-.641 2.141-.238.73-.531 1.445-.875 2.14-.343.688-.789 1.309-1.343 1.86-.563.543-1.258.98-2.094 1.312-.832.336-1.859.5-3.078.5-.977 0-1.938-.195-2.875-.593-.938-.395-1.77-.973-2.5-1.735-.727-.769-1.313-1.711-1.75-2.828-.438-1.113-.656-2.391-.656-3.828 0-.801.062-1.582.187-2.344.125-.758.313-1.484.563-2.172.242-.687.531-1.328.875-1.922.343-.593.73-1.117 1.156-1.578zm0 0"/></symbol><symbol id="a6" overflow="visible"><path d="m-4.797-13.063c0-.812-.133-1.535-.406-2.171-.27-.645-.656-1.188-1.156-1.625-.508-.446-1.125-.786-1.844-1.016-.727-.238-1.555-.359-2.485-.359h-15.515v-6.079h15.515c1.618 0 3.094.262 4.438.782 1.336.523 2.492 1.265 3.469 2.234.968.969 1.726 2.152 2.265 3.547.532 1.387.797 2.949.797 4.687 0 1.75-.265 3.325-.797 4.719-.539 1.387-1.297 2.571-2.265 3.547-.977.969-2.133 1.715-3.469 2.234-1.344.512-2.82.766-4.438.766h-15.515v-6.078h15.5c.93 0 1.758-.113 2.484-.344.719-.238 1.336-.578 1.844-1.015.512-.446.902-.989 1.172-1.625.273-.645.406-1.379.406-2.204zm0 0"/></symbol><g fill="#231f20"><use x="299.092487" xlink:href="#a" y="866.273436"/><use x="306.045387" xlink:href="#b" y="866.273436"/></g><g fill="#231f20"><use x="893.76265" xlink:href="#a" y="866.273436"/><use x="900.71555" xlink:href="#c" y="866.273436"/></g><g fill="#303031"><use x="114.051703" xlink:href="#d" y="101.780026"/><use x="125.523987" xlink:href="#e" y="101.780026"/><use x="139.909297" xlink:href="#e" y="101.780026"/><use x="154.294607" xlink:href="#f" y="101.780026"/></g><g fill="#303031"><use x="163.267427" xlink:href="#g" y="101.780026"/><use x="173.049438" xlink:href="#h" y="101.780026"/><use x="182.74154" xlink:href="#i" y="101.780026"/><use x="190.653461" xlink:href="#j" y="101.780026"/><use x="200.597306" xlink:href="#k" y="101.780026"/><use x="214.712892" xlink:href="#l" y="101.780026"/><use x="218.183348" xlink:href="#m" y="101.780026"/><use x="227.929395" xlink:href="#h" y="101.780026"/><use x="237.621498" xlink:href="#n" y="101.780026"/><use x="242.746265" xlink:href="#o" y="101.780026"/></g><use fill="#215371" x="111.676336" xlink:href="#B" y="411.173318"/><g fill="#215371"><use x="118.09984" xlink:href="#C" y="411.173318"/><use x="126.201837" xlink:href="#D" y="411.173318"/><use x="133.804328" xlink:href="#E" y="411.173318"/></g><g fill="#215371"><use x="211.734545" xlink:href="#D" y="411.173318"/><use x="219.337036" xlink:href="#E" y="411.173318"/><use x="225.071371" xlink:href="#F" y="411.173318"/><use x="230.575934" xlink:href="#G" y="411.173318"/><use x="233.602944" xlink:href="#H" y="411.173318"/><use x="240.845789" xlink:href="#I" y="411.173318"/><use x="248.578151" xlink:href="#J" y="411.173318"/></g><g fill="#215371"><use x="254.881985" xlink:href="#K" y="411.173318"/><use x="260.916024" xlink:href="#G" y="411.173318"/><use x="263.943034" xlink:href="#C" y="411.173318"/><use x="272.045031" xlink:href="#I" y="411.173318"/></g><g fill="#215371"><use x="526.260309" xlink:href="#L" y="411.173318"/><use x="532.524121" xlink:href="#M" y="411.173318"/><use x="539.017707" xlink:href="#G" y="411.173318"/><use x="542.044717" xlink:href="#N" y="411.173318"/></g><use fill="#215371" x="548.837807" xlink:href="#O" y="411.173318"/><g fill="#215371"><use x="551.215158" xlink:href="#P" y="411.173318"/><use x="558.94752" xlink:href="#K" y="411.173318"/></g><g fill="#393536"><use x="111.676336" xlink:href="#R" y="428.747236"/><use x="117.970009" xlink:href="#S" y="428.747236"/><use x="124.263842" xlink:href="#T" y="428.747236"/><use x="130.667566" xlink:href="#U" y="428.747236"/><use x="136.961499" xlink:href="#V" y="428.747236"/><use x="143.255332" xlink:href="#W" y="428.747236"/><use x="149.549265" xlink:href="#U" y="428.747236"/><use x="155.843198" xlink:href="#X" y="428.747236"/><use x="211.735545" xlink:href="#Y" y="428.747236"/><use x="218.159349" xlink:href="#Z" y="428.747236"/><use x="224.752726" xlink:href="#aa" y="428.747236"/><use x="233.214218" xlink:href="#ab" y="428.747236"/><use x="239.058495" xlink:href="#ac" y="428.747236"/><use x="241.935503" xlink:href="#ad" y="428.747236"/><use x="244.802821" xlink:href="#ae" y="428.747236"/><use x="250.707139" xlink:href="#af" y="428.747236"/><use x="254.773172" xlink:href="#ag" y="428.747236"/><use x="257.200924" xlink:href="#ah" y="428.747236"/><use x="262.91513" xlink:href="#ai" y="428.747236"/><use x="268.27998" xlink:href="#ad" y="428.747236"/><use x="271.147198" xlink:href="#af" y="428.747236"/><use x="275.213332" xlink:href="#ag" y="428.747236"/><use x="277.640984" xlink:href="#ab" y="428.747236"/><use x="283.485261" xlink:href="#aj" y="428.747236"/><use x="291.537357" xlink:href="#ag" y="428.747236"/><use x="293.965109" xlink:href="#W" y="428.747236"/><use x="300.258942" xlink:href="#ag" y="428.747236"/><use x="302.686693" xlink:href="#ak" y="428.747236"/><use x="306.742637" xlink:href="#ag" y="428.747236"/><use x="309.170389" xlink:href="#al" y="428.747236"/><use x="315.464222" xlink:href="#ag" y="428.747236"/><use x="317.891974" xlink:href="#am" y="428.747236"/><use x="323.436347" xlink:href="#ak" y="428.747236"/><use x="327.49239" xlink:href="#an" y="428.747236"/><use x="333.396708" xlink:href="#ag" y="428.747236"/><use x="335.82436" xlink:href="#ao" y="428.747236"/><use x="339.650631" xlink:href="#ag" y="428.747236"/><use x="342.078382" xlink:href="#V" y="428.747236"/><use x="348.372315" xlink:href="#S" y="428.747236"/><use x="354.666248" xlink:href="#ag" y="428.747236"/><use x="357.0939" xlink:href="#ak" y="428.747236"/><use x="361.149844" xlink:href="#ag" y="428.747236"/><use x="363.577496" xlink:href="#ap" y="428.747236"/><use x="369.871528" xlink:href="#S" y="428.747236"/><use x="376.165461" xlink:href="#ag" y="428.747236"/><use x="378.593113" xlink:href="#aq" y="428.747236"/><use x="387.044615" xlink:href="#ap" y="428.747236"/><use x="393.338548" xlink:href="#ag" y="428.747236"/><use x="395.7663" xlink:href="#ar" y="428.747236"/><use x="401.040909" xlink:href="#ae" y="428.747236"/><use x="406.945227" xlink:href="#ad" y="428.747236"/><use x="409.797959" xlink:href="#as" y="428.747236"/><use x="415.695384" xlink:href="#aq" y="428.747236"/><use x="424.146586" xlink:href="#at" y="428.747236"/><use x="429.750659" xlink:href="#ag" y="428.747236"/><use x="432.178311" xlink:href="#aq" y="428.747236"/><use x="440.620122" xlink:href="#ai" y="428.747236"/><use x="445.984973" xlink:href="#au" y="428.747236"/><use x="451.07999" xlink:href="#ac" y="428.747236"/><use x="512.609693" xlink:href="#av" y="428.747236"/><use x="518.903526" xlink:href="#ag" y="428.747236"/><use x="521.331278" xlink:href="#S" y="428.747236"/><use x="527.625211" xlink:href="#S" y="428.747236"/><use x="533.919144" xlink:href="#R" y="428.747236"/><use x="540.213077" xlink:href="#aw" y="428.747236"/><use x="542.68039" xlink:href="#ax" y="428.747236"/><use x="548.974323" xlink:href="#R" y="428.747236"/><use x="555.268355" xlink:href="#ag" y="428.747236"/><use x="557.696007" xlink:href="#ay" y="428.747236"/><use x="111.676336" xlink:href="#R" y="445.737555"/><use x="117.970268" xlink:href="#S" y="445.737555"/><use x="124.264101" xlink:href="#T" y="445.737555"/><use x="130.667826" xlink:href="#U" y="445.737555"/><use x="136.961759" xlink:href="#V" y="445.737555"/><use x="143.255592" xlink:href="#W" y="445.737555"/><use x="149.549525" xlink:href="#U" y="445.737555"/><use x="155.843457" xlink:href="#ax" y="445.737555"/><use x="211.735545" xlink:href="#Y" y="445.737555"/><use x="218.159349" xlink:href="#Z" y="445.737555"/><use x="224.752726" xlink:href="#aa" y="445.737555"/><use x="233.214218" xlink:href="#ab" y="445.737555"/><use x="239.058495" xlink:href="#ac" y="445.737555"/><use x="241.935503" xlink:href="#ad" y="445.737555"/><use x="244.802821" xlink:href="#ae" y="445.737555"/><use x="250.707139" xlink:href="#af" y="445.737555"/><use x="254.773172" xlink:href="#ag" y="445.737555"/><use x="257.200924" xlink:href="#ah" y="445.737555"/><use x="262.91513" xlink:href="#ai" y="445.737555"/><use x="268.27998" xlink:href="#ad" y="445.737555"/><use x="271.147198" xlink:href="#af" y="445.737555"/><use x="275.213332" xlink:href="#ag" y="445.737555"/><use x="277.640984" xlink:href="#ag" y="445.737555"/><use x="280.068735" xlink:href="#ab" y="445.737555"/><use x="285.912913" xlink:href="#aj" y="445.737555"/><use x="293.965109" xlink:href="#ag" y="445.737555"/><use x="296.392761" xlink:href="#av" y="445.737555"/><use x="302.686693" xlink:href="#X" y="445.737555"/><use x="308.980626" xlink:href="#ag" y="445.737555"/><use x="311.408378" xlink:href="#ak" y="445.737555"/><use x="315.464222" xlink:href="#ag" y="445.737555"/><use x="317.891974" xlink:href="#av" y="445.737555"/><use x="324.185907" xlink:href="#R" y="445.737555"/><use x="330.479839" xlink:href="#ag" y="445.737555"/><use x="332.907591" xlink:href="#am" y="445.737555"/><use x="338.451965" xlink:href="#ak" y="445.737555"/><use x="342.507908" xlink:href="#an" y="445.737555"/><use x="348.412226" xlink:href="#ag" y="445.737555"/><use x="350.839978" xlink:href="#ao" y="445.737555"/><use x="354.666248" xlink:href="#ag" y="445.737555"/><use x="357.0939" xlink:href="#ax" y="445.737555"/><use x="363.387833" xlink:href="#U" y="445.737555"/><use x="369.681766" xlink:href="#ag" y="445.737555"/><use x="372.109518" xlink:href="#ak" y="445.737555"/><use x="376.165461" xlink:href="#ag" y="445.737555"/><use x="378.593113" xlink:href="#X" y="445.737555"/><use x="384.887046" xlink:href="#U" y="445.737555"/><use x="391.180979" xlink:href="#ag" y="445.737555"/><use x="393.608731" xlink:href="#aq" y="445.737555"/><use x="402.060233" xlink:href="#ap" y="445.737555"/><use x="408.354065" xlink:href="#ag" y="445.737555"/><use x="410.766333" xlink:href="#ar" y="445.737555"/><use x="416.040942" xlink:href="#ae" y="445.737555"/><use x="421.94526" xlink:href="#ad" y="445.737555"/><use x="424.812578" xlink:href="#as" y="445.737555"/><use x="430.716896" xlink:href="#aq" y="445.737555"/><use x="439.168397" xlink:href="#at" y="445.737555"/><use x="444.772911" xlink:href="#ag" y="445.737555"/><use x="447.200563" xlink:href="#aq" y="445.737555"/><use x="455.642374" xlink:href="#ai" y="445.737555"/><use x="461.007225" xlink:href="#au" y="445.737555"/><use x="466.102242" xlink:href="#ac" y="445.737555"/><use x="512.618973" xlink:href="#av" y="445.737555"/><use x="518.912906" xlink:href="#ag" y="445.737555"/><use x="521.340658" xlink:href="#ax" y="445.737555"/><use x="527.634491" xlink:href="#U" y="445.737555"/><use x="533.928423" xlink:href="#ax" y="445.737555"/><use x="540.222256" xlink:href="#aw" y="445.737555"/><use x="542.689669" xlink:href="#ax" y="445.737555"/><use x="548.983702" xlink:href="#ax" y="445.737555"/><use x="555.277535" xlink:href="#ag" y="445.737555"/><use x="557.705287" xlink:href="#ay" y="445.737555"/><use x="111.676336" xlink:href="#R" y="462.727874"/><use x="117.970268" xlink:href="#S" y="462.727874"/><use x="124.264101" xlink:href="#T" y="462.727874"/><use x="130.667826" xlink:href="#U" y="462.727874"/><use x="136.961759" xlink:href="#V" y="462.727874"/><use x="143.255592" xlink:href="#W" y="462.727874"/><use x="149.549525" xlink:href="#U" y="462.727874"/><use x="155.843457" xlink:href="#al" y="462.727874"/><use x="211.735545" xlink:href="#Y" y="462.727874"/><use x="218.159349" xlink:href="#Z" y="462.727874"/><use x="224.752726" xlink:href="#aa" y="462.727874"/><use x="233.214218" xlink:href="#ab" y="462.727874"/><use x="239.058495" xlink:href="#ac" y="462.727874"/><use x="241.935503" xlink:href="#ad" y="462.727874"/><use x="244.802821" xlink:href="#ae" y="462.727874"/><use x="250.707139" xlink:href="#af" y="462.727874"/><use x="254.773172" xlink:href="#ag" y="462.727874"/><use x="257.200924" xlink:href="#ah" y="462.727874"/><use x="262.91513" xlink:href="#ai" y="462.727874"/><use x="268.27998" xlink:href="#ad" y="462.727874"/><use x="271.147198" xlink:href="#af" y="462.727874"/><use x="275.213332" xlink:href="#ag" y="462.727874"/><use x="277.640984" xlink:href="#ag" y="462.727874"/><use x="280.068735" xlink:href="#ab" y="462.727874"/><use x="285.912913" xlink:href="#aj" y="462.727874"/><use x="293.965109" xlink:href="#ag" y="462.727874"/><use x="296.392761" xlink:href="#ag" y="462.727874"/><use x="298.820413" xlink:href="#R" y="462.727874"/><use x="305.114445" xlink:href="#X" y="462.727874"/><use x="311.408378" xlink:href="#ag" y="462.727874"/><use x="313.83603" xlink:href="#ak" y="462.727874"/><use x="317.891974" xlink:href="#ag" y="462.727874"/><use x="320.319626" xlink:href="#av" y="462.727874"/><use x="326.613658" xlink:href="#ax" y="462.727874"/><use x="332.907591" xlink:href="#ag" y="462.727874"/><use x="335.335243" xlink:href="#am" y="462.727874"/><use x="340.879617" xlink:href="#ak" y="462.727874"/><use x="344.93556" xlink:href="#an" y="462.727874"/><use x="350.839978" xlink:href="#ag" y="462.727874"/><use x="353.26763" xlink:href="#ao" y="462.727874"/><use x="357.0939" xlink:href="#ag" y="462.727874"/><use x="359.521652" xlink:href="#av" y="462.727874"/><use x="365.815485" xlink:href="#ap" y="462.727874"/><use x="372.109518" xlink:href="#U" y="462.727874"/><use x="378.403451" xlink:href="#ag" y="462.727874"/><use x="380.831103" xlink:href="#ak" y="462.727874"/><use x="384.887046" xlink:href="#ag" y="462.727874"/><use x="387.314698" xlink:href="#W" y="462.727874"/><use x="393.608731" xlink:href="#U" y="462.727874"/><use x="399.902664" xlink:href="#ag" y="462.727874"/><use x="402.330316" xlink:href="#aq" y="462.727874"/><use x="410.766333" xlink:href="#ap" y="462.727874"/><use x="417.060166" xlink:href="#ag" y="462.727874"/><use x="419.487917" xlink:href="#ar" y="462.727874"/><use x="424.762627" xlink:href="#ae" y="462.727874"/><use x="430.666945" xlink:href="#ad" y="462.727874"/><use x="433.534163" xlink:href="#as" y="462.727874"/><use x="439.43848" xlink:href="#aq" y="462.727874"/><use x="447.889982" xlink:href="#at" y="462.727874"/><use x="453.494596" xlink:href="#ag" y="462.727874"/><use x="455.922248" xlink:href="#aq" y="462.727874"/><use x="464.363959" xlink:href="#ai" y="462.727874"/><use x="469.72881" xlink:href="#au" y="462.727874"/><use x="474.823827" xlink:href="#ac" y="462.727874"/><use x="512.618953" xlink:href="#R" y="462.727874"/><use x="518.912786" xlink:href="#ag" y="462.727874"/><use x="521.340538" xlink:href="#U" y="462.727874"/><use x="527.634471" xlink:href="#ax" y="462.727874"/><use x="533.928403" xlink:href="#W" y="462.727874"/><use x="540.222236" xlink:href="#aw" y="462.727874"/><use x="542.689649" xlink:href="#X" y="462.727874"/><use x="548.983582" xlink:href="#S" y="462.727874"/><use x="555.277515" xlink:href="#ag" y="462.727874"/><use x="557.705267" xlink:href="#ay" y="462.727874"/></g><g fill="#303031"><use x="396.41058" xlink:href="#d" y="272.251827"/><use x="407.882865" xlink:href="#p" y="272.251827"/></g><g fill="#303031"><use x="419.391257" xlink:href="#e" y="272.251827"/><use x="433.776567" xlink:href="#q" y="272.251827"/><use x="444.169954" xlink:href="#r" y="272.251827"/><use x="449.294721" xlink:href="#n" y="272.251827"/><use x="454.419487" xlink:href="#s" y="272.251827"/><use x="464.848837" xlink:href="#o" y="272.251827"/><use x="472.041492" xlink:href="#k" y="272.251827"/><use x="486.157078" xlink:href="#l" y="272.251827"/><use x="489.627534" xlink:href="#m" y="272.251827"/><use x="499.373581" xlink:href="#h" y="272.251827"/><use x="509.065684" xlink:href="#n" y="272.251827"/><use x="514.190451" xlink:href="#o" y="272.251827"/><use x="521.383106" xlink:href="#t" y="272.251827"/></g><g fill="#303031"><use x="527.586932" xlink:href="#q" y="272.251827"/><use x="537.980319" xlink:href="#u" y="272.251827"/></g><g fill="#fff"><use x="379.547174" xlink:href="#aG" y="327.697707"/><use x="381.434583" xlink:href="#aG" y="327.697707"/><use x="383.321991" xlink:href="#aH" y="327.697707"/><use x="386.089539" xlink:href="#aI" y="327.697707"/><use x="391.761544" xlink:href="#aJ" y="327.697707"/><use x="396.064444" xlink:href="#aK" y="327.697707"/><use x="401.736449" xlink:href="#aI" y="327.697707"/><use x="407.408454" xlink:href="#aL" y="327.697707"/></g><g fill="#fff"><use x="409.383671" xlink:href="#aM" y="327.697707"/><use x="414.654724" xlink:href="#aG" y="327.697707"/><use x="416.542133" xlink:href="#aN" y="327.697707"/><use x="421.862082" xlink:href="#aO" y="327.697707"/><use x="427.514529" xlink:href="#aI" y="327.697707"/><use x="433.186534" xlink:href="#aP" y="327.697707"/><use x="435.97364" xlink:href="#aJ" y="327.697707"/><use x="440.27654" xlink:href="#aQ" y="327.697707"/><use x="445.59649" xlink:href="#aR" y="327.697707"/><use x="454.016484" xlink:href="#aQ" y="327.697707"/><use x="459.336433" xlink:href="#aS" y="327.697707"/><use x="465.008438" xlink:href="#aT" y="327.697707"/></g><g fill="#fff"><use x="401.355411" xlink:href="#aU" y="339.43329"/><use x="407.027417" xlink:href="#aQ" y="339.43329"/><use x="412.347366" xlink:href="#aJ" y="339.43329"/><use x="416.650267" xlink:href="#aG" y="339.43329"/><use x="418.537675" xlink:href="#aJ" y="339.43329"/><use x="422.840576" xlink:href="#aT" y="339.43329"/><use x="426.752303" xlink:href="#aV" y="339.43329"/><use x="432.424308" xlink:href="#aW" y="339.43329"/><use x="437.177057" xlink:href="#aX" y="339.43329"/><use x="442.809945" xlink:href="#aJ" y="339.43329"/></g><use fill="#215371" x="115.923416" xlink:href="#B" y="643.141839"/><g fill="#215371"><use x="122.346921" xlink:href="#C" y="643.141839"/><use x="130.448917" xlink:href="#D" y="643.141839"/><use x="138.051408" xlink:href="#E" y="643.141839"/></g><g fill="#215371"><use x="204.412579" xlink:href="#D" y="643.141839"/><use x="212.01507" xlink:href="#Q" y="643.141839"/><use x="217.749405" xlink:href="#F" y="643.141839"/><use x="223.253968" xlink:href="#G" y="643.141839"/><use x="226.280978" xlink:href="#H" y="643.141839"/><use x="233.523823" xlink:href="#I" y="643.141839"/><use x="241.256185" xlink:href="#J" y="643.141839"/></g><g fill="#215371"><use x="247.560018" xlink:href="#K" y="643.141839"/><use x="253.594058" xlink:href="#G" y="643.141839"/><use x="256.621068" xlink:href="#C" y="643.141839"/><use x="264.723065" xlink:href="#I" y="643.141839"/></g><g fill="#215371"><use x="525.434876" xlink:href="#L" y="643.141839"/><use x="531.698689" xlink:href="#M" y="643.141839"/><use x="538.192274" xlink:href="#G" y="643.141839"/><use x="541.219284" xlink:href="#N" y="643.141839"/></g><use fill="#215371" x="548.012374" xlink:href="#O" y="643.141839"/><g fill="#215371"><use x="550.389726" xlink:href="#P" y="643.141839"/><use x="558.122088" xlink:href="#K" y="643.141839"/></g><use fill="#393536" x="115.923416" xlink:href="#R" y="660.840671"/><use fill="#393536" x="122.217089" xlink:href="#S" y="660.840671"/><use fill="#393536" x="128.510922" xlink:href="#T" y="660.840671"/><use fill="#393536" x="134.914646" xlink:href="#U" y="660.840671"/><use fill="#393536" x="141.208579" xlink:href="#S" y="660.840671"/><use fill="#393536" x="147.502412" xlink:href="#R" y="660.840671"/><use fill="#393536" x="153.796345" xlink:href="#W" y="660.840671"/><use fill="#393536" x="160.090278" xlink:href="#R" y="660.840671"/><use fill="#393536" x="204.416682" xlink:href="#az" y="660.840671"/><use fill="#393536" x="211.949192" xlink:href="#ai" y="660.840671"/><use fill="#393536" x="217.303952" xlink:href="#ab" y="660.840671"/><use fill="#393536" x="223.148229" xlink:href="#af" y="660.840671"/><use fill="#393536" x="227.214263" xlink:href="#at" y="660.840671"/><use fill="#393536" x="232.818777" xlink:href="#as" y="660.840671"/><use fill="#393536" x="238.723094" xlink:href="#aA" y="660.840671"/><use fill="#393536" x="243.188633" xlink:href="#ag" y="660.840671"/><use fill="#393536" x="245.616285" xlink:href="#aB" y="660.840671"/><use fill="#393536" x="251.570554" xlink:href="#at" y="660.840671"/><use fill="#393536" x="257.175068" xlink:href="#aC" y="660.840671"/><use fill="#393536" x="263.129336" xlink:href="#ac" y="660.840671"/><use fill="#393536" x="265.996554" xlink:href="#af" y="660.840671"/><use fill="#393536" x="270.062787" xlink:href="#ag" y="660.840671"/><use fill="#393536" x="272.490439" xlink:href="#ab" y="660.840671"/><use fill="#393536" x="278.334616" xlink:href="#aA" y="660.840671"/><use fill="#393536" x="282.800055" xlink:href="#ae" y="660.840671"/><use fill="#393536" x="288.704373" xlink:href="#ab" y="660.840671"/><use fill="#393536" x="294.54865" xlink:href="#ac" y="660.840671"/><use fill="#393536" x="297.415968" xlink:href="#ad" y="660.840671"/><use fill="#393536" x="300.292976" xlink:href="#ae" y="660.840671"/><use fill="#393536" x="306.197294" xlink:href="#af" y="660.840671"/><use fill="#393536" x="310.253137" xlink:href="#ak" y="660.840671"/><use fill="#393536" x="313.959326" xlink:href="#ab" y="660.840671"/><use fill="#393536" x="319.803703" xlink:href="#ae" y="660.840671"/><use fill="#393536" x="325.708021" xlink:href="#ae" y="660.840671"/><use fill="#393536" x="331.612339" xlink:href="#ad" y="660.840671"/><use fill="#393536" x="334.479556" xlink:href="#at" y="660.840671"/><use fill="#393536" x="340.08407" xlink:href="#ai" y="660.840671"/><use fill="#393536" x="345.448921" xlink:href="#aD" y="660.840671"/><use fill="#393536" x="350.244234" xlink:href="#aE" y="660.840671"/><use fill="#393536" x="355.609085" xlink:href="#ag" y="660.840671"/><use fill="#393536" x="358.036737" xlink:href="#aF" y="660.840671"/><use fill="#393536" x="361.753016" xlink:href="#ac" y="660.840671"/><use fill="#393536" x="364.620333" xlink:href="#ad" y="660.840671"/><use fill="#393536" x="367.497342" xlink:href="#aD" y="660.840671"/><use fill="#393536" x="527.963138" xlink:href="#al" y="660.840671"/><use fill="#393536" x="534.257071" xlink:href="#ap" y="660.840671"/><use fill="#393536" x="540.550904" xlink:href="#aw" y="660.840671"/><use fill="#393536" x="543.018416" xlink:href="#R" y="660.840671"/><use fill="#393536" x="549.312349" xlink:href="#W" y="660.840671"/><use fill="#393536" x="555.606182" xlink:href="#ag" y="660.840671"/><use fill="#393536" x="558.033934" xlink:href="#ay" y="660.840671"/><g fill="#fff"><use x="74.138343" xlink:href="#aY" y="391.303978"/><use x="74.138343" xlink:href="#aZ" y="370.984728"/><use x="74.138343" xlink:href="#aY" y="352.319788"/><use x="74.138343" xlink:href="#a0" y="332.000537"/><use x="74.138343" xlink:href="#a1" y="308.372665"/><use x="74.138343" xlink:href="#a2" y="286.830664"/></g><g fill="#fff"><use x="74.138343" xlink:href="#a3" y="263.814167"/><use x="74.138343" xlink:href="#aZ" y="235.043547"/></g><g fill="#fff"><use x="74.138343" xlink:href="#a4" y="220.694344"/><use x="74.138343" xlink:href="#a5" y="196.347207"/><use x="74.138343" xlink:href="#aY" y="176.855112"/><use x="74.138343" xlink:href="#a6" y="156.535861"/><use x="74.138343" xlink:href="#a2" y="130.426524"/><use x="74.138343" xlink:href="#a5" y="106.510946"/></g><g fill="#303031"><use x="114.759216" xlink:href="#v" y="532.773717"/><use x="126.573152" xlink:href="#h" y="532.773717"/><use x="136.265255" xlink:href="#q" y="532.773717"/><use x="146.658641" xlink:href="#o" y="532.773717"/><use x="153.851296" xlink:href="#g" y="532.773717"/><use x="163.633307" xlink:href="#w" y="532.773717"/><use x="174.062657" xlink:href="#x" y="532.773717"/><use x="181.489073" xlink:href="#l" y="532.773717"/><use x="184.959529" xlink:href="#y" y="532.773717"/><use x="195.388879" xlink:href="#g" y="532.773717"/><use x="205.17089" xlink:href="#l" y="532.773717"/><use x="208.641346" xlink:href="#y" y="532.773717"/><use x="219.070696" xlink:href="#z" y="532.773717"/><use x="228.852707" xlink:href="#A" y="532.773717"/><use x="239.282057" xlink:href="#r" y="532.773717"/><use x="244.406823" xlink:href="#o" y="532.773717"/></g></svg>