<svg preserveAspectRatio="none" height="901.3803pt" viewBox="0 0 1207.6 901.38" width="1207.6pt" xmlns="http://www.w3.org/2000/svg" xmlns:xlink="http://www.w3.org/1999/xlink"><symbol id="a" overflow="visible"><path d="m6.422-8.484v.265c0 .063-.012.121-.031.172-.012.055-.028.094-.047.125l-3.891 7.703c-.031.063-.074.117-.125.156-.055.043-.125.063-.219.063h-.39l3.922-7.672c.05-.101.113-.195.187-.281h-4.89c-.043 0-.079-.016-.11-.047s-.047-.066-.047-.109v-.375zm0 0"/></symbol><symbol id="b" overflow="visible"><path d="m3.438-3.609c-.356 0-.68-.055-.969-.172-.293-.114-.547-.274-.766-.485-.211-.207-.375-.461-.5-.765-.117-.301-.172-.633-.172-1 0-.364.067-.696.203-1 .133-.313.321-.582.563-.813.238-.226.519-.406.844-.531.332-.133.695-.203 1.093-.203.375 0 .719.07 1.032.203.312.125.578.309.797.547.226.23.406.508.531.828.125.324.187.684.187 1.078 0 .231-.027.445-.078.641-.043.199-.109.398-.203.593-.086.2-.187.407-.312.625-.125.211-.274.434-.438.672l-2.219 3.25c-.062.094-.164.141-.297.141h-.515l2.5-3.5c.125-.164.234-.32.328-.469.101-.156.195-.301.281-.437-.23.25-.512.449-.844.593-.324.137-.671.204-1.046.204zm2.296-2.407c0-.312-.054-.593-.156-.843-.094-.258-.234-.477-.422-.657-.179-.187-.39-.328-.64-.422-.243-.101-.508-.156-.797-.156-.313 0-.602.055-.86.156-.261.094-.484.231-.671.407-.188.179-.336.39-.438.64-.105.25-.156.528-.156.828 0 .313.047.594.14.844.102.25.239.465.407.641.175.168.382.297.625.39.25.094.523.141.828.141.344 0 .644-.055.906-.172.27-.113.492-.265.672-.453.187-.195.328-.41.422-.641.094-.226.14-.46.14-.703zm0 0"/></symbol><symbol id="c" overflow="visible"><path d="m3.469.094c-.406 0-.778-.055-1.11-.157-.336-.113-.625-.269-.875-.468-.242-.207-.429-.453-.562-.735-.137-.289-.203-.613-.203-.968 0-.313.039-.586.125-.829.094-.25.222-.46.39-.64.164-.188.36-.336.579-.453.226-.125.476-.211.75-.266-.25-.07-.469-.172-.657-.297-.187-.125-.351-.269-.484-.437-.125-.176-.227-.367-.297-.578-.062-.207-.094-.43-.094-.672 0-.301.051-.582.157-.844.113-.27.273-.5.484-.688.219-.195.476-.351.781-.468.301-.114.641-.172 1.016-.172s.711.058 1.015.172c.301.117.555.273.766.468.219.188.383.418.5.688.113.262.172.543.172.844 0 .242-.039.465-.109.672-.063.211-.165.402-.297.578-.125.168-.289.312-.485.437-.187.125-.406.227-.656.297.27.055.52.141.75.266.227.117.422.265.578.453.164.18.297.39.391.64.094.243.14.516.14.829 0 .355-.07.679-.203.968-.136.282-.328.528-.578.735-.242.199-.527.355-.859.468-.336.102-.711.157-1.125.157zm0-.453c.32 0 .613-.039.875-.125.269-.094.5-.223.687-.391.196-.164.348-.363.453-.594.102-.238.157-.5.157-.781 0-.363-.071-.672-.203-.922-.137-.25-.309-.445-.516-.594-.211-.144-.445-.25-.703-.312-.262-.063-.512-.094-.75-.094-.242 0-.492.031-.75.094-.25.062-.481.168-.688.312-.211.149-.383.344-.515.594-.137.25-.203.559-.203.922 0 .281.05.543.156.781.101.231.25.43.437.594.188.168.41.297.672.391.27.086.567.125.891.125zm0-4.282c.32 0 .601-.047.844-.14.238-.102.437-.235.593-.391.157-.164.27-.351.344-.562.07-.219.109-.442.109-.672 0-.239-.043-.461-.125-.672-.086-.219-.211-.406-.375-.563-.156-.156-.355-.273-.593-.359-.231-.082-.496-.125-.797-.125-.293 0-.559.043-.797.125-.242.086-.445.203-.609.359-.157.157-.278.344-.36.563-.086.211-.125.433-.125.672 0 .23.035.453.11.672.07.211.187.398.343.562.157.156.352.289.594.391.238.093.52.14.844.14zm0 0"/></symbol><symbol id="d" overflow="visible"><path d="m6.516-4.25c0 .75-.086 1.398-.25 1.937-.157.543-.375.993-.657 1.344-.273.356-.593.621-.968.797-.368.176-.758.266-1.172.266-.418 0-.813-.09-1.188-.266-.367-.176-.687-.441-.968-.797-.274-.351-.485-.801-.641-1.344-.156-.539-.234-1.187-.234-1.937 0-.738.078-1.379.234-1.922.156-.539.367-.988.641-1.344.281-.351.601-.617.968-.797.375-.175.77-.265 1.188-.265.414 0 .804.09 1.172.265.375.18.695.446.968.797.282.356.5.805.657 1.344.164.543.25 1.184.25 1.922zm-.594 0c0-.676-.07-1.258-.203-1.75-.137-.488-.313-.883-.531-1.188-.219-.312-.481-.539-.782-.687-.304-.145-.617-.219-.937-.219-.324 0-.637.074-.938.219-.293.148-.554.375-.781.687-.219.305-.398.7-.531 1.188-.125.492-.188 1.074-.188 1.75 0 .699.063 1.293.188 1.781.133.481.312.875.531 1.188.227.304.488.527.781.672.301.148.614.218.938.218.32 0 .633-.07.937-.218.301-.145.563-.368.782-.672.218-.313.394-.707.531-1.188.133-.488.203-1.082.203-1.781zm0 0"/></symbol><g fill="#231f20"><g><use x="299.092487" xlink:href="#a" y="866.273436"/><use x="306.045387" xlink:href="#b" y="866.273436"/></g><g><use x="893.76265" xlink:href="#c" y="866.273436"/><use x="900.71555" xlink:href="#d" y="866.273436"/></g></g></svg>