<svg preserveAspectRatio="none" height="901.3803pt" viewBox="0 0 1207.6 901.38" width="1207.6pt" xmlns="http://www.w3.org/2000/svg" xmlns:xlink="http://www.w3.org/1999/xlink"><symbol id="a" overflow="visible"><path d="m3.469.094c-.406 0-.778-.055-1.11-.157-.336-.113-.625-.269-.875-.468-.242-.207-.429-.453-.562-.735-.137-.289-.203-.613-.203-.968 0-.313.039-.586.125-.829.094-.25.222-.46.39-.64.164-.188.36-.336.579-.453.226-.125.476-.211.75-.266-.25-.07-.469-.172-.657-.297-.187-.125-.351-.269-.484-.437-.125-.176-.227-.367-.297-.578-.062-.207-.094-.43-.094-.672 0-.301.051-.582.157-.844.113-.27.273-.5.484-.688.219-.195.476-.351.781-.468.301-.114.641-.172 1.016-.172s.711.058 1.015.172c.301.117.555.273.766.468.219.188.383.418.5.688.113.262.172.543.172.844 0 .242-.039.465-.109.672-.063.211-.165.402-.297.578-.125.168-.289.312-.485.437-.187.125-.406.227-.656.297.27.055.52.141.75.266.227.117.422.265.578.453.164.18.297.39.391.64.094.243.14.516.14.829 0 .355-.07.679-.203.968-.136.282-.328.528-.578.735-.242.199-.527.355-.859.468-.336.102-.711.157-1.125.157zm0-.453c.32 0 .613-.039.875-.125.269-.094.5-.223.687-.391.196-.164.348-.363.453-.594.102-.238.157-.5.157-.781 0-.363-.071-.672-.203-.922-.137-.25-.309-.445-.516-.594-.211-.144-.445-.25-.703-.312-.262-.063-.512-.094-.75-.094-.242 0-.492.031-.75.094-.25.062-.481.168-.688.312-.211.149-.383.344-.515.594-.137.25-.203.559-.203.922 0 .281.05.543.156.781.101.231.25.43.437.594.188.168.41.297.672.391.27.086.567.125.891.125zm0-4.282c.32 0 .601-.047.844-.14.238-.102.437-.235.593-.391.157-.164.27-.351.344-.562.07-.219.109-.442.109-.672 0-.239-.043-.461-.125-.672-.086-.219-.211-.406-.375-.563-.156-.156-.355-.273-.593-.359-.231-.082-.496-.125-.797-.125-.293 0-.559.043-.797.125-.242.086-.445.203-.609.359-.157.157-.278.344-.36.563-.086.211-.125.433-.125.672 0 .23.035.453.11.672.07.211.187.398.343.562.157.156.352.289.594.391.238.093.52.14.844.14zm0 0"/></symbol><symbol id="b" overflow="visible"><path d="m6.422-8.484v.265c0 .063-.012.121-.031.172-.012.055-.028.094-.047.125l-3.891 7.703c-.031.063-.074.117-.125.156-.055.043-.125.063-.219.063h-.39l3.922-7.672c.05-.101.113-.195.187-.281h-4.89c-.043 0-.079-.016-.11-.047s-.047-.066-.047-.109v-.375zm0 0"/></symbol><g fill="#231f20"><g><use x="299.092487" xlink:href="#a" y="866.273436"/><use x="306.045387" xlink:href="#b" y="866.273436"/></g><g><use x="893.76265" xlink:href="#a" y="866.273436"/><use x="900.71555" xlink:href="#a" y="866.273436"/></g></g></svg>