<svg preserveAspectRatio="none" height="901.3803pt" viewBox="0 0 1207.6 901.38" width="1207.6pt" xmlns="http://www.w3.org/2000/svg" xmlns:xlink="http://www.w3.org/1999/xlink"><symbol id="a" overflow="visible"><path d="m3.438-3.609c-.356 0-.68-.055-.969-.172-.293-.114-.547-.274-.766-.485-.211-.207-.375-.461-.5-.765-.117-.301-.172-.633-.172-1 0-.364.067-.696.203-1 .133-.313.321-.582.563-.813.238-.226.519-.406.844-.531.332-.133.695-.203 1.093-.203.375 0 .719.07 1.032.203.312.125.578.309.797.547.226.23.406.508.531.828.125.324.187.684.187 1.078 0 .231-.027.445-.078.641-.043.199-.109.398-.203.593-.086.2-.187.407-.312.625-.125.211-.274.434-.438.672l-2.219 3.25c-.062.094-.164.141-.297.141h-.515l2.5-3.5c.125-.164.234-.32.328-.469.101-.156.195-.301.281-.437-.23.25-.512.449-.844.593-.324.137-.671.204-1.046.204zm2.296-2.407c0-.312-.054-.593-.156-.843-.094-.258-.234-.477-.422-.657-.179-.187-.39-.328-.64-.422-.243-.101-.508-.156-.797-.156-.313 0-.602.055-.86.156-.261.094-.484.231-.671.407-.188.179-.336.39-.438.64-.105.25-.156.528-.156.828 0 .313.047.594.14.844.102.25.239.465.407.641.175.168.382.297.625.39.25.094.523.141.828.141.344 0 .644-.055.906-.172.27-.113.492-.265.672-.453.187-.195.328-.41.422-.641.094-.226.14-.46.14-.703zm0 0"/></symbol><symbol id="b" overflow="visible"><path d="m1.859-.438h1.938v-6.89c0-.133.004-.274.016-.422l-1.86 1.656c-.043.031-.094.047-.156.047-.063 0-.117-.019-.156-.062l-.172-.25 2.453-2.157h.453v8.078h1.844v.438h-4.36zm0 0"/></symbol><symbol id="c" overflow="visible"><path d="m6.516-4.25c0 .75-.086 1.398-.25 1.937-.157.543-.375.993-.657 1.344-.273.356-.593.621-.968.797-.368.176-.758.266-1.172.266-.418 0-.813-.09-1.188-.266-.367-.176-.687-.441-.968-.797-.274-.351-.485-.801-.641-1.344-.156-.539-.234-1.187-.234-1.937 0-.738.078-1.379.234-1.922.156-.539.367-.988.641-1.344.281-.351.601-.617.968-.797.375-.175.77-.265 1.188-.265.414 0 .804.09 1.172.265.375.18.695.446.968.797.282.356.5.805.657 1.344.164.543.25 1.184.25 1.922zm-.594 0c0-.676-.07-1.258-.203-1.75-.137-.488-.313-.883-.531-1.188-.219-.312-.481-.539-.782-.687-.304-.145-.617-.219-.937-.219-.324 0-.637.074-.938.219-.293.148-.554.375-.781.687-.219.305-.398.7-.531 1.188-.125.492-.188 1.074-.188 1.75 0 .699.063 1.293.188 1.781.133.481.312.875.531 1.188.227.304.488.527.781.672.301.148.614.218.938.218.32 0 .633-.07.937-.218.301-.145.563-.368.782-.672.218-.313.394-.707.531-1.188.133-.488.203-1.082.203-1.781zm0 0"/></symbol><g fill="#231f20"><g><use x="299.092487" xlink:href="#a" y="866.273436"/><use x="306.045387" xlink:href="#a" y="866.273436"/></g><g><use x="890.286041" xlink:href="#b" y="866.273436"/><use x="897.23894" xlink:href="#c" y="866.273436"/><use x="904.19184" xlink:href="#c" y="866.273436"/></g></g></svg>