<svg preserveAspectRatio="none" height="901.3803pt" viewBox="0 0 1207.6 901.38" width="1207.6pt" xmlns="http://www.w3.org/2000/svg" xmlns:xlink="http://www.w3.org/1999/xlink"><symbol id="a" overflow="visible"><path d="m1.859-.438h1.938v-6.89c0-.133.004-.274.016-.422l-1.86 1.656c-.043.031-.094.047-.156.047-.063 0-.117-.019-.156-.062l-.172-.25 2.453-2.157h.453v8.078h1.844v.438h-4.36zm0 0"/></symbol><symbol id="b" overflow="visible"><path d="m6.516-4.25c0 .75-.086 1.398-.25 1.937-.157.543-.375.993-.657 1.344-.273.356-.593.621-.968.797-.368.176-.758.266-1.172.266-.418 0-.813-.09-1.188-.266-.367-.176-.687-.441-.968-.797-.274-.351-.485-.801-.641-1.344-.156-.539-.234-1.187-.234-1.937 0-.738.078-1.379.234-1.922.156-.539.367-.988.641-1.344.281-.351.601-.617.968-.797.375-.175.77-.265 1.188-.265.414 0 .804.09 1.172.265.375.18.695.446.968.797.282.356.5.805.657 1.344.164.543.25 1.184.25 1.922zm-.594 0c0-.676-.07-1.258-.203-1.75-.137-.488-.313-.883-.531-1.188-.219-.312-.481-.539-.782-.687-.304-.145-.617-.219-.937-.219-.324 0-.637.074-.938.219-.293.148-.554.375-.781.687-.219.305-.398.7-.531 1.188-.125.492-.188 1.074-.188 1.75 0 .699.063 1.293.188 1.781.133.481.312.875.531 1.188.227.304.488.527.781.672.301.148.614.218.938.218.32 0 .633-.07.937-.218.301-.145.563-.368.782-.672.218-.313.394-.707.531-1.188.133-.488.203-1.082.203-1.781zm0 0"/></symbol><symbol id="c" overflow="visible"><path d="m3.438-3.609c-.356 0-.68-.055-.969-.172-.293-.114-.547-.274-.766-.485-.211-.207-.375-.461-.5-.765-.117-.301-.172-.633-.172-1 0-.364.067-.696.203-1 .133-.313.321-.582.563-.813.238-.226.519-.406.844-.531.332-.133.695-.203 1.093-.203.375 0 .719.07 1.032.203.312.125.578.309.797.547.226.23.406.508.531.828.125.324.187.684.187 1.078 0 .231-.027.445-.078.641-.043.199-.109.398-.203.593-.086.2-.187.407-.312.625-.125.211-.274.434-.438.672l-2.219 3.25c-.062.094-.164.141-.297.141h-.515l2.5-3.5c.125-.164.234-.32.328-.469.101-.156.195-.301.281-.437-.23.25-.512.449-.844.593-.324.137-.671.204-1.046.204zm2.296-2.407c0-.312-.054-.593-.156-.843-.094-.258-.234-.477-.422-.657-.179-.187-.39-.328-.64-.422-.243-.101-.508-.156-.797-.156-.313 0-.602.055-.86.156-.261.094-.484.231-.671.407-.188.179-.336.39-.438.64-.105.25-.156.528-.156.828 0 .313.047.594.14.844.102.25.239.465.407.641.175.168.382.297.625.39.25.094.523.141.828.141.344 0 .644-.055.906-.172.27-.113.492-.265.672-.453.187-.195.328-.41.422-.641.094-.226.14-.46.14-.703zm0 0"/></symbol><symbol id="d" overflow="visible"><path d="m-26.203 0v-4.891c0-.531.121-.961.359-1.297.242-.332.559-.57.953-.718l14.032-5.078c.605-.219 1.273-.442 2-.672.718-.239 1.476-.461 2.265-.672-.789-.164-1.547-.36-2.265-.578-.727-.227-1.395-.446-2-.657l-14.032-5.046c-.332-.114-.632-.344-.906-.688-.269-.351-.406-.781-.406-1.281v-4.938l26.203 10.516v5.5zm0 0"/></symbol><symbol id="e" overflow="visible"><path d="m-13.109-28.016c1.898 0 3.664.328 5.296.985 1.625.648 3.043 1.562 4.25 2.75 1.2 1.187 2.141 2.621 2.829 4.297.679 1.668 1.015 3.523 1.015 5.562 0 2.043-.336 3.902-1.015 5.578-.688 1.68-1.629 3.117-2.829 4.313-1.207 1.187-2.625 2.109-4.25 2.765-1.632.649-3.398.969-5.296.969-1.895 0-3.657-.32-5.282-.969-1.632-.656-3.05-1.578-4.25-2.765-1.195-1.196-2.132-2.633-2.812-4.313-.688-1.676-1.031-3.535-1.031-5.578 0-2.039.343-3.894 1.031-5.562.687-1.676 1.633-3.11 2.828-4.297 1.199-1.188 2.617-2.102 4.25-2.75 1.625-.657 3.383-.985 5.266-.985zm0 6.219c-1.289 0-2.457.168-3.5.5-1.039.336-1.922.82-2.641 1.453-.719.625-1.266 1.399-1.641 2.313-.382.906-.578 1.945-.578 3.109 0 1.18.196 2.227.578 3.141.375.918.922 1.695 1.641 2.328.719.625 1.602 1.105 2.641 1.437 1.043.336 2.211.5 3.5.5 1.304 0 2.476-.164 3.515-.5 1.043-.332 1.922-.812 2.641-1.437.719-.633 1.265-1.41 1.64-2.328.375-.914.563-1.961.563-3.141 0-1.164-.188-2.203-.563-3.109-.375-.914-.921-1.688-1.64-2.313-.719-.633-1.598-1.117-2.641-1.453-1.039-.332-2.211-.5-3.515-.5zm0 0"/></symbol><symbol id="f" overflow="visible"><path d="m-4.859-8.234v-9.719h4.859v15.797h-26.203v-6.078zm0 0"/></symbol><symbol id="g" overflow="visible"><path d="m-26.203-19.031h4.672v10.765h6.125v-8.25h4.484v8.25h6.25v-10.765h4.672v16.875h-26.203zm0 0"/></symbol><symbol id="h" overflow="visible"><path d="m-26.203-21.188h4.812v7.375h21.391v6.079h-21.391v7.375h-4.812zm0 0"/></symbol><symbol id="i" overflow="visible"><path d="m-20.875-16.766c.281.188.496.383.641.578.148.2.218.45.218.75 0 .282-.082.586-.25.907-.175.312-.375.672-.593 1.078-.219.398-.411.855-.579 1.375-.175.512-.265 1.094-.265 1.75 0 1.148.246 2 .734 2.562.481.555 1.133.828 1.953.828.532 0 .977-.164 1.328-.5.344-.343.641-.785.891-1.328.25-.539.481-1.16.688-1.859.211-.707.445-1.426.703-2.156.261-.739.57-1.457.922-2.157.343-.695.789-1.316 1.328-1.859.531-.551 1.187-.992 1.968-1.328.774-.332 1.7-.5 2.782-.5 1.218 0 2.355.211 3.406.625 1.055.418 1.977 1.027 2.766 1.828.781.793 1.398 1.777 1.843 2.953.446 1.168.672 2.492.672 3.969 0 .824-.086 1.656-.25 2.5s-.398 1.664-.703 2.453c-.312.793-.676 1.539-1.094 2.234-.414.688-.882 1.293-1.406 1.813l-2.828-1.797c-.219-.133-.391-.32-.516-.562-.132-.239-.203-.493-.203-.766 0-.363.117-.727.344-1.094.219-.363.469-.773.75-1.234.273-.469.523-1 .75-1.594.23-.601.344-1.312.344-2.125 0-1.101-.239-1.957-.719-2.562-.488-.614-1.266-.922-2.328-.922-.602 0-1.098.168-1.485.5-.382.336-.703.777-.953 1.328-.25.543-.468 1.164-.656 1.859-.195.688-.41 1.403-.641 2.141-.238.73-.531 1.445-.875 2.14-.343.688-.789 1.309-1.343 1.86-.563.543-1.258.98-2.094 1.312-.832.336-1.859.5-3.078.5-.977 0-1.938-.195-2.875-.593-.938-.395-1.77-.973-2.5-1.735-.727-.769-1.313-1.711-1.75-2.828-.438-1.113-.656-2.391-.656-3.828 0-.801.062-1.582.187-2.344.125-.758.313-1.484.563-2.172.242-.687.531-1.328.875-1.922.343-.593.73-1.117 1.156-1.578zm0 0"/></symbol><symbol id="j" overflow="visible"><path d="m6.828-2.047c.094 0 .172.039.235.109l.625.688c-.344.437-.778.773-1.297 1-.512.23-1.125.344-1.844.344-.649 0-1.227-.11-1.734-.328-.512-.219-.95-.52-1.313-.907-.367-.394-.648-.863-.844-1.406-.187-.551-.281-1.144-.281-1.781 0-.656.102-1.254.313-1.797.218-.539.519-1.004.906-1.391.394-.394.863-.703 1.406-.922.551-.218 1.156-.328 1.813-.328.644 0 1.207.106 1.687.313.477.211.891.48 1.234.812l-.531.75c-.031.055-.074.102-.125.141-.055.031-.121.047-.203.047-.094 0-.187-.035-.281-.11-.094-.07-.219-.148-.375-.234-.149-.082-.336-.16-.563-.234-.218-.071-.5-.11-.843-.11-.418 0-.797.075-1.141.219-.336.137-.625.34-.875.609-.242.262-.434.579-.578.954-.137.375-.203.804-.203 1.281 0 .492.066.922.203 1.297.144.375.332.695.562.953.239.262.516.465.828.609.321.137.672.203 1.047.203.219 0 .414-.007.594-.031.176-.031.336-.07.484-.125.157-.051.297-.117.422-.203.133-.082.27-.18.407-.297.039-.039.082-.07.125-.094.039-.019.085-.031.14-.031zm0 0"/></symbol><symbol id="k" overflow="visible"><path d="m5.609 0h-.671c-.137 0-.247-.02-.329-.063-.074-.039-.132-.125-.171-.25l-.141-.437c-.156.137-.309.258-.453.359-.149.106-.305.196-.469.266-.156.074-.328.125-.516.156-.179.039-.375.063-.593.063-.262 0-.5-.031-.719-.094-.219-.07-.406-.176-.563-.313-.156-.144-.281-.32-.375-.531-.086-.207-.125-.445-.125-.719 0-.238.055-.468.172-.687.125-.227.328-.43.61-.609.289-.188.672-.336 1.14-.454.469-.125 1.055-.191 1.766-.203v-.375c0-.406-.09-.707-.266-.906-.179-.195-.433-.297-.765-.297-.243 0-.438.031-.594.094-.156.055-.297.117-.422.187-.117.063-.227.125-.328.188-.094.055-.203.078-.328.078-.094 0-.18-.023-.25-.078-.074-.051-.133-.113-.172-.188l-.281-.484c.707-.644 1.562-.969 2.562-.969.363 0 .688.063.969.188.281.117.516.277.703.484.195.211.348.461.453.75.102.293.156.61.156.953zm-2.875-.922c.145 0 .282-.008.407-.031.132-.031.257-.07.375-.125.113-.063.222-.133.328-.219.101-.082.211-.18.328-.297v-1.031c-.438.023-.805.059-1.094.109-.281.055-.512.121-.687.203-.18.086-.305.184-.375.297-.075.118-.11.243-.11.375 0 .25.071.434.219.547.156.117.359.172.609.172zm0 0"/></symbol><symbol id="l" overflow="visible"><path d="m.797 0v-6.141h.859c.157 0 .258.028.313.078.062.055.101.149.125.282l.094.75c.218-.383.472-.688.765-.907.301-.218.633-.328 1-.328.301 0 .551.075.75.219l-.187 1.109c-.012.075-.039.125-.078.157-.043.023-.094.031-.157.031-.062 0-.148-.008-.25-.031-.105-.032-.242-.047-.406-.047-.312 0-.578.086-.797.25-.219.168-.406.418-.562.75v3.828zm0 0"/></symbol><symbol id="m" overflow="visible"><path d="m5.109-4.844c-.043.055-.086.094-.125.125-.043.031-.105.047-.187.047-.074 0-.149-.019-.219-.062-.074-.051-.164-.102-.265-.157-.094-.062-.215-.113-.36-.156-.137-.051-.305-.078-.5-.078-.262 0-.492.055-.687.156-.2.094-.368.231-.5.406-.125.168-.219.375-.282.625-.062.25-.093.532-.093.844 0 .336.035.633.109.891.07.25.172.465.297.64.133.168.297.297.484.391.188.094.399.141.641.141.226 0 .414-.024.562-.078.145-.063.266-.129.36-.204.101-.07.191-.132.265-.187.082-.063.164-.094.25-.094.125 0 .219.047.282.141l.422.531c-.168.199-.352.367-.547.5-.188.125-.387.231-.594.313-.199.074-.406.125-.625.156s-.438.047-.656.047c-.375 0-.735-.071-1.078-.203-.336-.145-.625-.352-.875-.625-.25-.282-.45-.614-.594-1-.149-.395-.219-.848-.219-1.36 0-.445.063-.863.188-1.25.132-.383.328-.719.578-1s.562-.5.937-.656c.375-.164.801-.25 1.281-.25.457 0 .86.078 1.204.234.351.149.664.356.937.625zm0 0"/></symbol><symbol id="n" overflow="visible"><path d="m2.813.094c-.532 0-.946-.149-1.235-.453-.281-.301-.422-.719-.422-1.25v-3.438h-.625c-.086 0-.156-.019-.218-.062-.055-.051-.079-.129-.079-.235v-.594l.985-.156.312-1.687c.02-.071.055-.129.11-.172.062-.051.132-.078.218-.078h.766v1.937h1.625v1.047h-1.625v3.344c0 .187.047.34.141.453.101.105.234.156.39.156.094 0 .172-.008.235-.031.062-.02.113-.039.156-.063.051-.031.094-.054.125-.078.039-.019.078-.031.109-.031.039 0 .078.012.11.031.031.024.062.055.093.094l.438.719c-.219.18-.469.312-.75.406-.274.094-.559.141-.859.141zm0 0"/></symbol><symbol id="o" overflow="visible"><path d="m3.328-6.25c.383 0 .738.062 1.063.187.332.125.613.309.843.547.239.243.422.532.547.875.133.344.203.743.203 1.188 0 .105-.007.199-.015.281 0 .074-.016.133-.047.172-.024.043-.059.074-.109.094-.043.011-.094.015-.157.015h-3.797c.039.637.207 1.106.5 1.407.289.293.68.437 1.172.437.239 0 .446-.023.625-.078.176-.063.328-.125.453-.188.133-.07.25-.132.344-.187.094-.063.188-.094.281-.094.063 0 .114.016.157.047.039.024.078.055.109.094l.438.531c-.168.199-.356.367-.563.5-.199.125-.406.231-.625.313-.219.074-.445.125-.672.156-.23.031-.453.047-.672.047-.429 0-.828-.071-1.203-.203-.367-.145-.683-.36-.953-.641-.273-.281-.484-.625-.641-1.031-.156-.407-.234-.879-.234-1.422 0-.414.066-.805.203-1.172.133-.375.328-.695.578-.969.258-.281.571-.5.938-.656.363-.164.773-.25 1.234-.25zm.031 1.062c-.429 0-.765.125-1.015.375-.242.243-.399.586-.469 1.032h2.781c0-.188-.027-.364-.078-.532-.055-.175-.133-.328-.234-.453-.106-.132-.242-.238-.406-.312-.168-.07-.36-.11-.579-.11zm2.079-3.578-1.485 1.563c-.074.086-.148.14-.219.172-.062.031-.152.047-.265.047h-.891l.86-1.454c.05-.101.117-.179.203-.234.082-.062.203-.094.359-.094zm0 0"/></symbol><symbol id="p" overflow="visible"><path d="m2.359-6.141v6.141h-1.468v-6.141zm.235-1.797c0 .125-.028.247-.078.36-.055.117-.125.215-.219.297-.086.086-.184.152-.297.203-.117.043-.242.062-.375.062-.125 0-.246-.019-.359-.062-.118-.051-.215-.117-.297-.203-.086-.082-.153-.18-.203-.297-.055-.113-.078-.235-.078-.36 0-.132.023-.257.078-.375.05-.113.117-.21.203-.296.082-.082.179-.149.297-.204.113-.05.234-.078.359-.078.133 0 .258.028.375.078.113.055.211.122.297.204.094.086.164.183.219.296.05.118.078.243.078.375zm0 0"/></symbol><symbol id="q" overflow="visible"><path d="m4.438-4.953c-.043.062-.086.109-.125.14-.043.024-.102.032-.172.032-.075 0-.153-.016-.235-.047-.074-.039-.168-.086-.281-.141-.105-.051-.227-.097-.359-.14-.137-.039-.297-.063-.485-.063-.293 0-.527.063-.703.188-.168.125-.25.289-.25.484 0 .137.039.25.125.344.094.086.207.164.344.234.144.063.305.125.484.188.188.054.375.109.563.171.187.063.367.137.547.219.175.086.332.188.468.313.145.125.258.277.344.453.094.18.141.387.141.625 0 .305-.059.578-.172.828-.106.25-.262.469-.469.656-.211.18-.465.321-.765.422-.305.094-.653.141-1.047.141-.219 0-.43-.024-.625-.063-.2-.031-.391-.078-.578-.14-.188-.071-.36-.157-.516-.25-.156-.094-.297-.192-.422-.297l.344-.563c.039-.07.094-.125.156-.156.063-.039.141-.063.234-.063.082 0 .164.028.25.079.082.054.176.109.282.171.113.063.242.122.39.172.145.055.328.078.547.078.176 0 .328-.019.453-.062.125-.039.227-.094.313-.156.082-.071.14-.157.172-.25.039-.094.062-.188.062-.282 0-.144-.043-.257-.125-.343-.086-.094-.199-.172-.344-.235-.136-.07-.296-.132-.484-.187-.18-.063-.367-.125-.562-.188-.188-.062-.375-.132-.563-.218-.18-.082-.34-.192-.484-.329-.137-.132-.246-.296-.328-.484-.086-.187-.125-.422-.125-.703 0-.25.046-.484.14-.703.102-.227.25-.426.438-.594.195-.176.441-.316.734-.422.289-.101.625-.156 1-.156.426 0 .813.074 1.156.219.344.136.633.32.875.547zm0 0"/></symbol><symbol id="r" overflow="visible"><path d="m6.016-6.141v8.141h-1.469v-2.766c-.125.125-.262.246-.406.36-.137.105-.282.195-.438.265-.156.075-.324.133-.5.172-.168.039-.355.063-.562.063-.336 0-.641-.071-.922-.203-.281-.145-.528-.348-.735-.61-.199-.269-.355-.597-.468-.984-.106-.395-.157-.848-.157-1.36 0-.445.063-.863.188-1.25.125-.394.301-.738.531-1.031.238-.289.52-.515.844-.672.32-.164.687-.25 1.094-.25.187 0 .359.024.515.063.157.031.301.078.438.14.133.063.254.141.359.235.113.086.223.183.328.297l.078-.344c.02-.094.063-.16.125-.203.071-.039.161-.063.266-.063zm-2.875 5.063c.312 0 .57-.063.781-.188.219-.132.426-.32.625-.562v-2.75c-.168-.207-.352-.352-.547-.438-.199-.082-.414-.125-.641-.125-.23 0-.437.043-.625.125-.179.086-.328.215-.453.391-.125.168-.226.383-.297.641-.062.261-.093.57-.093.921 0 .368.023.672.078.922.062.25.144.453.25.61.113.156.25.273.406.343.156.075.328.11.516.11zm0 0"/></symbol><symbol id="s" overflow="visible"><path d="m2.141-6.141v3.907c0 .375.086.668.265.875.176.199.438.296.782.296.257 0 .5-.054.718-.171.227-.114.442-.27.641-.469v-4.438h1.469v6.141h-.891c-.199 0-.328-.086-.391-.266l-.093-.5c-.125.137-.262.258-.407.36-.136.105-.281.195-.437.265-.149.075-.309.133-.484.172-.18.039-.372.063-.579.063-.336 0-.632-.059-.89-.172-.25-.113-.465-.274-.641-.485-.18-.207-.312-.453-.406-.734-.086-.281-.125-.594-.125-.937v-3.907zm0 0"/></symbol><symbol id="t" overflow="visible"><path d="m3.328-6.25c.383 0 .738.062 1.063.187.332.125.613.309.843.547.239.243.422.532.547.875.133.344.203.743.203 1.188 0 .105-.007.199-.015.281 0 .074-.016.133-.047.172-.024.043-.059.074-.109.094-.043.011-.094.015-.157.015h-3.797c.039.637.207 1.106.5 1.407.289.293.68.437 1.172.437.239 0 .446-.023.625-.078.176-.063.328-.125.453-.188.133-.07.25-.132.344-.187.094-.063.188-.094.281-.094.063 0 .114.016.157.047.039.024.078.055.109.094l.438.531c-.168.199-.356.367-.563.5-.199.125-.406.231-.625.313-.219.074-.445.125-.672.156-.23.031-.453.047-.672.047-.429 0-.828-.071-1.203-.203-.367-.145-.683-.36-.953-.641-.273-.281-.484-.625-.641-1.031-.156-.407-.234-.879-.234-1.422 0-.414.066-.805.203-1.172.133-.375.328-.695.578-.969.258-.281.571-.5.938-.656.363-.164.773-.25 1.234-.25zm.031 1.062c-.429 0-.765.125-1.015.375-.242.243-.399.586-.469 1.032h2.781c0-.188-.027-.364-.078-.532-.055-.175-.133-.328-.234-.453-.106-.132-.242-.238-.406-.312-.168-.07-.36-.11-.579-.11zm0 0"/></symbol><symbol id="u" overflow="visible"/><symbol id="v" overflow="visible"><path d="m.797 0v-8.906h1.469v3.422c.238-.227.504-.411.797-.547.289-.145.628-.219 1.015-.219.332 0 .629.059.891.172.258.117.472.277.64.484.176.211.305.461.391.75.094.281.141.594.141.938v3.906h-1.469v-3.906c0-.375-.09-.664-.266-.875-.179-.207-.437-.313-.781-.313-.262 0-.5.059-.719.172-.218.117-.433.274-.64.469v4.453zm0 0"/></symbol><symbol id="w" overflow="visible"><path d="m.797 0v-6.141h.906c.188 0 .313.09.375.266l.094.484c.125-.125.254-.238.391-.343.144-.102.289-.192.437-.266.156-.082.32-.145.5-.188.176-.039.367-.062.578-.062.332 0 .629.059.891.172.258.117.472.277.64.484.176.211.305.461.391.75.094.281.141.594.141.938v3.906h-1.469v-3.906c0-.375-.09-.664-.266-.875-.179-.207-.437-.313-.781-.313-.262 0-.5.059-.719.172-.218.117-.433.274-.64.469v4.453zm0 0"/></symbol><symbol id="x" overflow="visible"><path d="m6.359 0h-.39c-.043 0-.078-.008-.11-.031-.031-.032-.058-.067-.078-.11l-.828-2.047h-3.469l-.828 2.047c-.011.043-.039.078-.078.11-.031.023-.07.031-.109.031h-.391l2.891-7.063h.5zm-4.718-2.563h3.156l-1.438-3.578c-.023-.05-.046-.113-.078-.187-.023-.07-.043-.149-.062-.235-.024.086-.047.165-.078.235-.024.074-.043.14-.063.203zm0 0"/></symbol><symbol id="y" overflow="visible"><path d="m1.969-2.547-1.719-2.422h.453c.039 0 .07.012.094.031.019.024.039.043.062.063l1.454 2.109c.019-.05.05-.109.093-.172l1.36-1.921c.019-.032.039-.055.062-.079.02-.019.047-.031.078-.031h.453l-1.75 2.406 1.813 2.563h-.453c-.043 0-.078-.008-.11-.031-.031-.032-.054-.063-.062-.094l-1.516-2.203c-.011.074-.031.133-.062.172l-1.453 2.047c-.024.031-.047.058-.078.078-.024.023-.055.031-.094.031h-.422zm0 0"/></symbol><symbol id="z" overflow="visible"><path d="m2.688-5.047c.269 0 .523.055.765.156.238.094.445.235.625.422.176.18.313.403.406.672.094.274.141.578.141.922 0 .074-.012.125-.031.156-.024.024-.055.031-.094.031h-3.594v.094c0 .375.039.711.125 1 .094.281.219.516.375.703.157.188.348.336.578.438.227.094.485.14.766.14.25 0 .461-.023.641-.078.187-.062.343-.125.468-.187.125-.07.223-.133.297-.188.071-.05.125-.078.157-.078.039 0 .07.016.093.047l.141.156c-.086.106-.195.2-.328.282-.125.086-.274.156-.438.218-.156.063-.328.11-.515.141-.188.039-.375.063-.563.063-.336 0-.64-.059-.922-.172-.281-.125-.523-.297-.718-.516-.2-.227-.356-.504-.469-.828-.106-.332-.156-.711-.156-1.141 0-.351.05-.679.156-.984.101-.301.25-.555.437-.766.188-.219.422-.39.703-.515.282-.125.598-.188.954-.188zm0 .359c-.262 0-.497.043-.704.125-.199.075-.371.188-.515.344-.149.149-.266.324-.36.531-.093.211-.156.446-.187.704h3.281c0-.27-.039-.508-.109-.719-.074-.207-.18-.383-.313-.531-.136-.145-.297-.254-.484-.329-.18-.082-.383-.125-.609-.125zm0 0"/></symbol><symbol id="A" overflow="visible"/><symbol id="B" overflow="visible"><path d="m3.984 0c-.105 0-.168-.047-.187-.141l-.078-.64c-.137.136-.274.261-.406.375-.137.105-.278.195-.422.265-.149.075-.305.125-.469.157-.168.039-.356.062-.563.062-.168 0-.336-.027-.5-.078-.156-.039-.296-.113-.421-.219-.118-.101-.215-.234-.297-.39-.075-.164-.11-.364-.11-.594 0-.207.055-.399.172-.578.125-.188.313-.344.563-.469.257-.133.586-.242.984-.328.406-.082.891-.129 1.453-.141v-.515c0-.457-.101-.813-.297-1.063-.199-.25-.492-.375-.875-.375-.242 0-.449.039-.625.109-.168.063-.308.137-.422.219-.117.074-.211.149-.281.219-.074.062-.137.094-.187.094-.063 0-.11-.032-.141-.094l-.094-.141c.258-.257.532-.453.813-.578.289-.133.617-.203.984-.203.258 0 .488.043.688.125.207.086.375.203.5.359.132.157.234.352.297.579.07.218.109.468.109.75v3.234zm-2-.266c.188 0 .36-.019.516-.062.164-.039.316-.098.453-.172.145-.07.274-.16.391-.266.125-.101.242-.218.359-.343v-1.282c-.469.012-.875.047-1.219.11-.343.054-.625.133-.843.234-.219.094-.383.215-.485.359-.105.137-.156.293-.156.469 0 .168.023.313.078.438.051.117.117.215.203.297.094.074.196.132.313.171.125.032.254.047.39.047zm0 0"/></symbol><symbol id="C" overflow="visible"><path d="m1.422-7.266v7.266h-.469v-7.266zm0 0"/></symbol><symbol id="D" overflow="visible"><path d="m1.156-4.969v3.172c0 .469.102.84.313 1.109.219.262.547.391.984.391.32 0 .625-.082.906-.25.282-.164.532-.394.75-.687v-3.735h.485v4.969h-.266c-.094 0-.14-.039-.14-.125l-.047-.75c-.231.293-.496.527-.797.703-.305.168-.637.25-1 .25-.281 0-.528-.043-.735-.125-.211-.094-.382-.219-.515-.375-.137-.164-.242-.363-.313-.594-.062-.226-.093-.488-.093-.781v-3.172zm0 0"/></symbol><symbol id="E" overflow="visible"><path d="m.813 0v-4.969h.25c.093 0 .144.043.156.125l.047.719c.093-.133.191-.258.297-.375.113-.113.234-.207.359-.281.125-.082.254-.145.391-.188.144-.051.296-.078.453-.078.363 0 .656.109.875.328.218.211.363.5.437.875.063-.207.145-.383.25-.531.113-.156.238-.281.375-.375.133-.102.285-.176.453-.219.164-.051.336-.078.516-.078.238 0 .457.043.656.125.195.086.363.203.5.359.145.157.254.356.328.594.071.231.11.496.11.797v3.172h-.485v-3.172c0-.488-.105-.859-.312-1.109-.211-.258-.512-.391-.906-.391-.168 0-.336.031-.5.094-.157.062-.297.156-.422.281-.118.125-.211.281-.282.469-.074.187-.109.406-.109.656v3.172h-.469v-3.172c0-.488-.101-.859-.297-1.109-.187-.258-.468-.391-.843-.391-.274 0-.524.086-.75.25-.231.156-.434.383-.61.672v3.75zm0 0"/></symbol><symbol id="F" overflow="visible"><path d="m1.422-4.969v4.969h-.469v-4.969zm.203-1.703c0 .055-.012.106-.031.156-.024.055-.055.102-.094.141-.043.043-.09.074-.141.094-.054.023-.109.031-.171.031-.063 0-.122-.008-.172-.031-.055-.02-.102-.051-.141-.094-.043-.039-.074-.086-.094-.141-.023-.05-.031-.101-.031-.156 0-.062.008-.117.031-.172.02-.062.051-.109.094-.14.039-.039.086-.071.141-.094.05-.031.109-.047.172-.047.062 0 .117.016.171.047.051.023.098.055.141.094.039.031.07.078.094.14.019.055.031.11.031.172zm0 0"/></symbol><symbol id="G" overflow="visible"><path d="m.813 0v-4.969h.25c.093 0 .144.043.156.125l.047.75c.226-.281.488-.508.781-.687.301-.176.641-.266 1.016-.266.269 0 .507.047.718.141.207.086.379.211.516.375.133.156.238.351.312.578.071.23.11.492.11.781v3.172h-.485v-3.172c0-.469-.109-.832-.328-1.094-.211-.269-.531-.406-.968-.406-.325 0-.625.09-.907.266-.281.168-.531.398-.75.687v3.719zm0 0"/></symbol><symbol id="H" overflow="visible"><path d="m2.703-5.047c.352 0 .672.063.953.188.282.117.516.289.703.515.196.219.348.492.454.813.101.312.156.664.156 1.047 0 .386-.055.734-.156 1.046-.106.313-.258.586-.454.813-.187.219-.421.391-.703.516-.281.113-.601.172-.953.172-.355 0-.672-.059-.953-.172-.281-.125-.523-.297-.719-.516-.199-.227-.351-.5-.453-.813-.094-.312-.14-.66-.14-1.046 0-.383.046-.735.14-1.047.102-.321.254-.594.453-.813.196-.226.438-.398.719-.515.281-.125.598-.188.953-.188zm0 4.734c.289 0 .547-.046.766-.14.226-.102.414-.25.562-.438.145-.195.254-.425.328-.687.071-.27.11-.57.11-.906 0-.332-.039-.633-.11-.907-.074-.269-.183-.5-.328-.687-.148-.188-.336-.332-.562-.438-.219-.101-.477-.156-.766-.156-.305 0-.562.055-.781.156-.219.106-.406.25-.563.438-.148.187-.257.418-.328.687-.074.274-.109.575-.109.907 0 .336.035.636.109.906.071.262.18.492.328.687.157.188.344.336.563.438.219.094.476.14.781.14zm0 0"/></symbol><symbol id="I" overflow="visible"><path d="m4.328 0c-.086 0-.133-.039-.14-.125l-.047-.781c-.231.293-.493.527-.782.703-.293.18-.621.266-.984.266-.617 0-1.094-.208-1.437-.626-.336-.425-.5-1.062-.5-1.906 0-.363.046-.703.14-1.015.094-.313.227-.582.406-.813.188-.238.414-.422.688-.547.269-.133.578-.203.922-.203s.633.063.875.188c.25.125.461.308.64.546v-2.953h.485v7.266zm-1.828-.313c.332 0 .629-.082.891-.25.269-.175.507-.414.718-.718v-2.625c-.187-.282-.402-.477-.64-.594-.231-.113-.492-.172-.781-.172-.293 0-.547.055-.766.156-.219.106-.406.258-.563.453-.148.188-.257.422-.328.704-.074.273-.109.57-.109.89 0 .742.133 1.289.406 1.641.281.344.672.515 1.172.515zm0 0"/></symbol><symbol id="J" overflow="visible"><path d="m3.547-4.359c-.024.054-.059.078-.109.078-.043 0-.094-.02-.157-.063-.054-.039-.125-.086-.218-.14-.094-.051-.215-.098-.36-.141-.137-.039-.305-.063-.5-.063-.18 0-.34.028-.484.079-.149.054-.278.125-.391.218-.105.086-.187.184-.25.297-.055.117-.078.235-.078.36 0 .156.039.289.125.39.082.106.188.196.313.266.125.074.269.137.437.187.164.055.332.106.5.157.176.054.348.109.516.171.164.063.312.149.437.25.133.094.238.215.313.36.082.137.125.305.125.5 0 .219-.043.422-.125.609-.075.188-.184.352-.328.485-.149.136-.329.246-.547.328-.219.07-.465.109-.735.109-.355 0-.656-.055-.906-.156-.25-.113-.48-.266-.687-.453l.125-.157c.007-.031.023-.05.046-.062.02-.02.051-.031.094-.031.039 0 .094.031.156.093.063.055.145.11.25.172.102.063.227.121.375.172.157.055.344.078.563.078.207 0 .391-.023.547-.078.164-.062.301-.144.406-.25.102-.101.18-.219.234-.344.063-.132.094-.281.094-.437 0-.164-.043-.301-.125-.406-.086-.114-.187-.207-.312-.282-.125-.082-.274-.148-.438-.203-.168-.05-.34-.101-.515-.156-.18-.051-.352-.109-.516-.172-.156-.062-.305-.14-.438-.234-.125-.102-.23-.223-.312-.36-.086-.132-.125-.304-.125-.515 0-.176.035-.344.109-.5.082-.164.192-.313.328-.438.145-.125.317-.222.516-.297.207-.07.441-.109.703-.109.301 0 .567.047.797.141.238.086.457.215.656.39zm0 0"/></symbol><symbol id="K" overflow="visible"><path d="m2.688-5.047c.269 0 .523.055.765.156.238.094.445.235.625.422.176.18.313.403.406.672.094.274.141.578.141.922 0 .074-.012.125-.031.156-.024.024-.055.031-.094.031h-3.594v.094c0 .375.039.711.125 1 .094.281.219.516.375.703.157.188.348.336.578.438.227.094.485.14.766.14.25 0 .461-.023.641-.078.187-.062.343-.125.468-.187.125-.07.223-.133.297-.188.071-.05.125-.078.157-.078.039 0 .07.016.093.047l.141.156c-.086.106-.195.2-.328.282-.125.086-.274.156-.438.218-.156.063-.328.11-.515.141-.188.039-.375.063-.563.063-.336 0-.64-.059-.922-.172-.281-.125-.523-.297-.718-.516-.2-.227-.356-.504-.469-.828-.106-.332-.156-.711-.156-1.141 0-.351.05-.679.156-.984.101-.301.25-.555.437-.766.188-.219.422-.39.703-.515.282-.125.598-.188.954-.188zm0 .359c-.262 0-.497.043-.704.125-.199.075-.371.188-.515.344-.149.149-.266.324-.36.531-.093.211-.156.446-.187.704h3.281c0-.27-.039-.508-.109-.719-.074-.207-.18-.383-.313-.531-.136-.145-.297-.254-.484-.329-.18-.082-.383-.125-.609-.125zm1.109-2.453-1.078 1.266c-.024.031-.047.055-.078.062-.032.012-.071.016-.11.016h-.281l.781-1.187c.039-.063.078-.102.11-.125.039-.02.101-.032.187-.032zm0 0"/></symbol><symbol id="L" overflow="visible"><path d="m.5-3.172h2.328v.406h-2.328zm0 0"/></symbol><symbol id="M" overflow="visible"><path d="m4.438-2.063c.05.094.097.2.14.313.02-.063.039-.113.063-.156.019-.051.039-.102.062-.157l2.781-4.906c.02-.039.047-.066.079-.078.031-.008.066-.016.109-.016h.359v7.063h-.453v-6.016c0-.093.004-.187.016-.281l-2.781 4.938c-.043.086-.11.125-.204.125h-.078c-.086 0-.152-.039-.203-.125l-2.844-4.938c.008.094.016.188.016.281v6.016h-.453v-7.063h.344c.05 0 .086.008.109.016.031.012.063.039.094.078zm0 0"/></symbol><symbol id="N" overflow="visible"><path d="m2.172.078c-.344 0-.609-.094-.797-.281-.187-.188-.281-.473-.281-.86v-3.39h-.703c-.043 0-.075-.008-.094-.031-.024-.02-.031-.051-.031-.094v-.172l.843-.063.125-1.781c0-.031.008-.054.032-.078.019-.019.05-.031.093-.031h.219v1.89h1.563v.36h-1.563v3.359c0 .137.016.258.047.36.039.093.086.171.141.234.062.062.132.109.218.141.082.031.176.046.282.046.113 0 .211-.015.297-.046.093-.039.171-.082.234-.125.062-.039.113-.079.156-.11.039-.031.07-.047.094-.047.019 0 .047.016.078.047l.125.203c-.125.149-.289.262-.484.344-.188.082-.387.125-.594.125zm0 0"/></symbol><symbol id="O" overflow="visible"><path d="m.813 0v-4.969h.25c.05 0 .085.016.109.047.031.024.047.059.047.109l.047 1.047c.156-.406.363-.718.625-.937.269-.227.601-.344 1-.344.144 0 .281.016.406.047s.242.074.359.125l-.062.344c-.012.054-.043.078-.094.078-.023 0-.055-.004-.094-.016-.031-.019-.078-.035-.14-.047-.055-.019-.121-.035-.203-.047-.075-.019-.165-.031-.266-.031-.375 0-.688.121-.938.36-.242.23-.433.562-.578 1v3.234zm0 0"/></symbol><symbol id="P" overflow="visible"><path d="m3-7.141c.27 0 .523.043.766.125.25.075.468.188.656.344.187.156.332.356.437.594.114.242.172.523.172.844 0 .261-.043.507-.125.734-.086.23-.195.449-.328.656-.137.211-.297.414-.484.61-.188.199-.383.402-.578.609l-2.219 2.25c.101-.02.211-.035.328-.047.113-.019.234-.031.359-.031h3.047c.051 0 .094.015.125.047.032.031.047.074.047.125v.281h-4.562v-.172c0-.031.007-.066.031-.109.019-.039.039-.071.062-.094l2.422-2.453c.196-.195.379-.391.547-.578.164-.188.313-.375.438-.563.125-.195.222-.394.297-.594.07-.207.109-.429.109-.671 0-.25-.047-.469-.141-.657-.086-.195-.199-.359-.343-.484-.137-.125-.297-.211-.485-.266-.187-.062-.387-.093-.594-.093-.23 0-.437.039-.625.109-.187.062-.355.156-.5.281-.148.117-.265.258-.359.422-.094.168-.156.356-.187.563-.032.117-.102.171-.204.171-.011 0-.023 0-.031 0-.012-.007-.015-.015-.015-.015l-.25-.031c.039-.301.125-.571.25-.813.125-.238.281-.437.468-.594.196-.164.422-.289.672-.375.25-.082.516-.125.797-.125zm0 0"/></symbol><symbol id="Q" overflow="visible"><path d="m4.281-2.406h1.297v.265c0 .032-.012.059-.031.078-.024.024-.055.032-.094.032h-1.172v2.031h-.422v-2.031h-3.328c-.054 0-.093-.008-.125-.032-.023-.019-.039-.046-.047-.078l-.046-.234 3.546-4.703h.422zm-.422-3.703c0-.051 0-.11 0-.172.008-.063.02-.129.032-.203l-3.063 4.078h3.031zm0 0"/></symbol><symbol id="R" overflow="visible"><path d="m.078-7.063h.406c.039 0 .079.016.11.047.031.024.051.055.062.094l2.407 5.859c.07.149.125.309.156.485.039-.176.094-.336.156-.485l2.391-5.859c.019-.039.047-.07.078-.094.031-.031.066-.047.109-.047h.406l-2.921 7.063h-.454zm0 0"/></symbol><symbol id="S" overflow="visible"><path d="m3.063-7.141c.269 0 .523.039.765.11.238.074.445.187.625.343.188.149.332.336.438.563.101.219.156.477.156.766 0 .23-.039.437-.109.625-.075.179-.172.339-.297.484-.125.137-.278.25-.453.344-.168.093-.352.168-.547.218.519.094.91.297 1.172.61.269.305.406.683.406 1.14 0 .293-.059.563-.172.813-.117.242-.277.453-.484.641-.2.179-.438.32-.719.421-.274.094-.571.141-.891.141-.406 0-.746-.055-1.015-.156-.262-.113-.481-.254-.657-.422-.179-.176-.312-.367-.406-.578-.094-.219-.172-.438-.234-.656l.187-.079c.039-.007.082-.015.125-.015.031 0 .063.012.094.031.039.012.066.039.078.078l.031.11c.02.062.047.136.078.218.039.086.094.18.157.282.062.093.132.187.218.281.082.094.188.18.313.25.125.074.269.137.437.187.164.043.364.063.594.063.289 0 .547-.047.766-.141.226-.101.414-.234.562-.39.157-.157.27-.329.344-.516.082-.188.125-.375.125-.563 0-.207-.039-.406-.109-.593-.063-.188-.18-.348-.344-.485-.156-.132-.367-.238-.625-.312-.262-.082-.586-.125-.969-.125v-.344c.313-.008.582-.051.813-.125.226-.07.422-.172.578-.297.156-.133.273-.289.359-.469.082-.187.125-.382.125-.593 0-.25-.043-.461-.125-.641-.086-.187-.199-.336-.344-.453-.136-.125-.296-.211-.484-.266-.187-.062-.383-.093-.578-.093-.231 0-.438.031-.625.093-.188.063-.356.157-.5.282-.137.117-.258.261-.359.437-.094.168-.165.356-.204.563-.031.117-.093.171-.187.171-.024 0-.039-.003-.047-.015l-.25-.031c.039-.301.125-.571.25-.813.125-.238.281-.437.469-.594.187-.164.406-.289.656-.375.25-.082.52-.125.813-.125zm0 0"/></symbol><symbol id="T" overflow="visible"><path d="m5.422-3.531c0 .617-.07 1.152-.203 1.609-.125.449-.305.824-.531 1.125-.231.293-.5.512-.813.656-.305.145-.633.219-.984.219-.356 0-.684-.074-.985-.219-.304-.144-.57-.363-.797-.656-.23-.301-.414-.676-.546-1.125-.137-.457-.204-.992-.204-1.609 0-.625.067-1.16.204-1.61.132-.457.316-.832.546-1.125.227-.289.493-.507.797-.656.301-.144.629-.219.985-.219.351 0 .679.075.984.219.313.149.582.367.813.656.226.293.406.668.531 1.125.133.45.203.985.203 1.61zm-.5 0c0-.571-.059-1.063-.172-1.469-.105-.406-.25-.738-.437-1-.18-.258-.391-.445-.641-.563-.25-.125-.512-.187-.781-.187-.274 0-.532.062-.782.187-.242.118-.453.305-.64.563-.188.262-.34.594-.453 1-.106.406-.157.898-.157 1.469 0 .574.051 1.062.157 1.468.113.407.265.743.453 1 .187.25.398.438.64.563.25.117.508.172.782.172.269 0 .531-.055.781-.172.25-.125.461-.313.641-.563.187-.257.332-.593.437-1 .113-.406.172-.894.172-1.468zm0 0"/></symbol><symbol id="U" overflow="visible"><path d="m1.297-7.063c.051 0 .086.008.109.016.032.012.063.039.094.078l4.563 6.125c-.012-.101-.016-.203-.016-.297v-5.922h.453v7.063h-.25c-.074 0-.133-.031-.172-.094l-4.594-6.14c.008.105.016.199.016.281v5.953h-.453v-7.063zm0 0"/></symbol><symbol id="V" overflow="visible"><path d="m1.203-7.375c.07.125.125.25.156.375.032.125.047.25.047.375 0 .262-.062.512-.187.75-.125.242-.293.461-.5.656l-.141-.094c-.023-.019-.031-.039-.031-.062 0-.031.008-.055.031-.078.125-.164.227-.332.313-.5.082-.164.125-.336.125-.516 0-.195-.059-.394-.172-.594-.024-.031-.031-.054-.031-.078 0-.05.023-.086.078-.109zm0 0"/></symbol><symbol id="W" overflow="visible"><path d="m2.641 0h-.422l-2.094-4.969h.375c.039 0 .078.016.109.047.032.024.051.047.063.078l1.641 3.922c.031.074.05.149.062.219.02.062.039.133.063.203.019-.07.035-.141.046-.203.02-.07.047-.145.079-.219l1.64-3.922c.02-.039.039-.07.063-.094.031-.019.066-.031.109-.031h.359zm0 0"/></symbol><symbol id="X" overflow="visible"><path d="m4.078-4.297c-.023.012-.039.024-.047.031-.011.012-.031.016-.062.016s-.078-.02-.141-.063c-.055-.039-.133-.085-.234-.14-.094-.051-.215-.098-.36-.141-.148-.051-.324-.078-.531-.078-.281 0-.531.055-.75.156-.219.094-.406.243-.562.438-.157.187-.278.418-.36.687-.074.274-.109.575-.109.907 0 .343.039.652.125.921.082.274.195.5.344.688.156.187.336.328.547.422.207.094.441.14.703.14.238 0 .437-.023.593-.078.164-.062.301-.125.407-.187.101-.063.187-.117.25-.172.062-.063.113-.094.156-.094.039 0 .07.016.094.047l.125.156c-.075.106-.168.2-.282.282-.117.086-.246.156-.39.218-.149.063-.309.11-.485.141-.168.039-.343.063-.531.063-.312 0-.605-.059-.875-.172-.262-.114-.484-.282-.672-.5-.187-.219-.336-.485-.437-.797-.106-.313-.156-.672-.156-1.078 0-.383.046-.735.14-1.047.102-.313.25-.578.438-.797.195-.227.429-.406.703-.531.281-.125.601-.188.969-.188.32 0 .609.055.859.156.25.106.469.246.656.422zm0 0"/></symbol><symbol id="Y" overflow="visible"><path d="m2.453-5.047c.207 0 .406.027.594.078.187.055.351.125.5.219h1.266v.172c0 .086-.047.125-.141.125l-.75.062c.094.125.164.266.219.422.05.156.078.328.078.516 0 .242-.047.461-.141.656-.086.188-.203.352-.359.484-.156.137-.344.247-.563.329-.211.074-.445.109-.703.109-.293 0-.555-.039-.781-.125-.149.086-.262.184-.344.297-.074.105-.109.211-.109.312 0 .137.047.246.14.328.102.075.239.133.407.172.164.032.351.055.562.063.207.012.422.023.641.031.219.012.429.031.64.063.219.031.407.086.563.156.164.074.301.18.406.312.102.137.156.313.156.532 0 .207-.054.406-.156.593-.105.188-.258.352-.453.5-.199.157-.437.274-.719.36-.273.094-.578.14-.922.14-.343 0-.652-.039-.921-.109-.262-.074-.481-.172-.657-.297-.179-.125-.312-.265-.406-.422-.086-.156-.125-.324-.125-.5 0-.273.082-.5.25-.687.176-.188.414-.332.719-.438-.168-.051-.305-.129-.406-.234-.094-.113-.141-.266-.141-.453 0-.071.016-.145.047-.219.031-.082.07-.16.125-.234.051-.071.113-.141.187-.204.071-.07.16-.132.266-.187-.242-.133-.43-.313-.563-.531-.125-.227-.187-.492-.187-.797 0-.238.039-.457.125-.656.082-.196.203-.364.359-.5.157-.145.344-.254.563-.329.219-.07.461-.109.734-.109zm1.828 5.375c0-.156-.043-.281-.125-.375-.074-.094-.179-.164-.312-.219-.137-.05-.297-.086-.485-.109-.179-.02-.367-.035-.562-.047-.188-.008-.383-.019-.578-.031-.199-.008-.383-.031-.547-.063-.125.055-.246.11-.359.172-.106.063-.2.137-.282.219-.074.086-.133.172-.172.266-.043.101-.062.211-.062.328 0 .144.035.281.109.406.071.125.18.234.328.328.145.094.321.164.532.219.218.051.461.078.734.078.25 0 .484-.031.703-.094.219-.054.406-.133.563-.234.164-.106.289-.231.375-.375.093-.137.14-.293.14-.469zm-1.828-2.531c.207 0 .395-.024.563-.078.164-.063.304-.145.422-.25.113-.114.195-.25.25-.407.062-.156.093-.328.093-.515 0-.188-.031-.352-.093-.5-.063-.156-.153-.285-.266-.391-.117-.113-.258-.203-.422-.265-.156-.063-.34-.094-.547-.094-.219 0-.414.031-.578.094-.168.062-.309.152-.422.265-.117.106-.203.235-.265.391-.055.148-.079.312-.079.5 0 .187.024.359.079.515.062.157.148.293.265.407.113.105.254.187.422.25.164.054.359.078.578.078zm0 0"/></symbol><symbol id="Z" overflow="visible"><path d="m1 0v-4.453l-.703-.047c-.094 0-.141-.039-.141-.125v-.188h.844v-.625c0-.281.035-.531.109-.75.071-.218.172-.394.297-.531.133-.144.297-.254.485-.328.187-.07.394-.109.625-.109.101 0 .207.011.312.031.102.023.195.047.281.078l-.015.234c-.012.043-.043.063-.094.063-.043 0-.102-.004-.172-.016-.062-.007-.148-.015-.25-.015-.156 0-.308.027-.453.078-.137.043-.258.121-.359.234-.094.106-.172.246-.235.422-.054.168-.078.375-.078.625v.609h1.61v.36h-1.594v4.453zm0 0"/></symbol><symbol id="aa" overflow="visible"><path d="m4.594-4.969v6.719h-.485v-2.641c-.218.305-.476.539-.765.703-.293.168-.617.251-.969.251-.617 0-1.094-.208-1.437-.626-.336-.425-.5-1.062-.5-1.906 0-.363.046-.703.14-1.015.094-.313.227-.582.406-.813.188-.238.414-.422.688-.547.269-.133.578-.203.922-.203s.64.07.89.203c.258.125.477.313.657.563l.047-.563c0-.082.046-.125.14-.125zm-2.094 4.656c.332 0 .629-.082.891-.25.269-.175.507-.414.718-.718v-2.625c-.179-.27-.386-.461-.625-.578-.23-.125-.496-.188-.796-.188-.293 0-.547.055-.766.156-.219.106-.406.258-.563.453-.148.188-.257.422-.328.704-.074.273-.109.57-.109.89 0 .742.133 1.289.406 1.641.281.344.672.515 1.172.515zm0 0"/></symbol><symbol id="ab" overflow="visible"><path d="m6.188-1.188c.031 0 .054.012.078.032l.203.218c-.149.157-.309.297-.485.422-.179.125-.371.235-.578.328-.199.086-.422.149-.672.188-.242.051-.507.078-.796.078-.493 0-.938-.082-1.344-.25-.406-.176-.758-.422-1.047-.734-.293-.313-.524-.692-.688-1.141-.156-.445-.234-.941-.234-1.484 0-.539.082-1.032.25-1.469.164-.445.398-.828.703-1.141.301-.32.664-.566 1.094-.734.426-.176.894-.266 1.406-.266.258 0 .492.024.703.063.219.031.414.086.594.156.188.074.359.164.516.266.164.105.328.23.484.375l-.156.218c-.024.043-.063.063-.125.063-.024 0-.059-.016-.11-.047-.043-.039-.101-.086-.171-.141-.075-.05-.165-.101-.266-.156-.106-.062-.227-.117-.359-.172-.137-.05-.297-.093-.485-.125-.187-.039-.398-.062-.625-.062-.43 0-.824.074-1.187.219-.356.148-.664.359-.922.64-.262.274-.465.606-.61 1-.148.387-.218.824-.218 1.313 0 .5.07.949.218 1.343.145.387.344.715.594.985.25.273.547.48.891.625.344.148.719.219 1.125.219.25 0 .472-.016.672-.047.195-.032.379-.078.547-.141.164-.07.32-.156.468-.25.145-.101.285-.219.422-.344.02-.007.035-.019.047-.031.02-.008.039-.016.063-.016zm0 0"/></symbol><symbol id="ac" overflow="visible"><path d="m3.984 0c-.105 0-.168-.047-.187-.141l-.078-.64c-.137.136-.274.261-.406.375-.137.105-.278.195-.422.265-.149.075-.305.125-.469.157-.168.039-.356.062-.563.062-.168 0-.336-.027-.5-.078-.156-.039-.296-.113-.421-.219-.118-.101-.215-.234-.297-.39-.075-.164-.11-.364-.11-.594 0-.207.055-.399.172-.578.125-.188.313-.344.563-.469.257-.133.586-.242.984-.328.406-.082.891-.129 1.453-.141v-.515c0-.457-.101-.813-.297-1.063-.199-.25-.492-.375-.875-.375-.242 0-.449.039-.625.109-.168.063-.308.137-.422.219-.117.074-.211.149-.281.219-.074.062-.137.094-.187.094-.063 0-.11-.032-.141-.094l-.094-.141c.258-.257.532-.453.813-.578.289-.133.617-.203.984-.203.258 0 .488.043.688.125.207.086.375.203.5.359.132.157.234.352.297.579.07.218.109.468.109.75v3.234zm-2-.266c.188 0 .36-.019.516-.062.164-.039.316-.098.453-.172.145-.07.274-.16.391-.266.125-.101.242-.218.359-.343v-1.282c-.469.012-.875.047-1.219.11-.343.054-.625.133-.843.234-.219.094-.383.215-.485.359-.105.137-.156.293-.156.469 0 .168.023.313.078.438.051.117.117.215.203.297.094.074.196.132.313.171.125.032.254.047.39.047zm-.031-6.875c.082 0 .141.012.172.032.039.023.082.062.125.125l.781 1.187h-.265c-.043 0-.078-.004-.11-.016-.031-.007-.058-.031-.078-.062l-1.094-1.266zm0 0"/></symbol><symbol id="ad" overflow="visible"><path d="m.813 1.75v-6.719h.25c.05 0 .085.012.109.031.031.024.047.055.047.094l.047.766c.218-.289.472-.524.765-.703.289-.176.625-.266 1-.266.602 0 1.078.215 1.422.641.344.418.516 1.047.516 1.89 0 .368-.055.703-.156 1.016-.094.312-.235.59-.422.828-.18.231-.403.414-.672.547-.262.125-.571.188-.922.188-.336 0-.625-.059-.875-.172-.25-.125-.465-.313-.641-.563v2.422zm2.078-6.422c-.336 0-.637.09-.907.266-.261.168-.496.406-.703.718v2.594c.188.293.395.496.625.61.239.117.504.171.797.171.289 0 .547-.05.766-.156.219-.101.398-.254.547-.453.156-.195.269-.43.343-.703.071-.27.11-.566.11-.891 0-.738-.137-1.281-.406-1.625-.274-.351-.665-.531-1.172-.531zm0 0"/></symbol><symbol id="ae" overflow="visible"><path d="m5.281-7.063v.422h-3.718v2.86h3.093v.406h-3.093v2.953h3.718v.422h-4.234v-7.063zm0 0"/></symbol><symbol id="af" overflow="visible"><path d="m.859 0v-7.266h.485v3.172c.219-.289.469-.519.75-.687.289-.176.617-.266.984-.266.613 0 1.086.215 1.422.641.344.418.516 1.047.516 1.89 0 .368-.047.703-.141 1.016-.094.312-.234.59-.422.828-.187.231-.418.414-.687.547-.262.125-.571.188-.922.188-.344 0-.641-.067-.891-.204-.25-.132-.465-.332-.64-.593l-.032.609c-.011.086-.058.125-.14.125zm2.094-4.672c-.336 0-.637.09-.906.266-.262.168-.496.402-.703.703v2.625c.187.281.394.48.625.594.226.117.492.171.797.171.289 0 .547-.05.765-.156.219-.101.399-.254.547-.453.145-.195.254-.43.328-.703.082-.27.125-.566.125-.891 0-.738-.14-1.281-.422-1.625-.273-.351-.656-.531-1.156-.531zm0 0"/></symbol><symbol id="ag" overflow="visible"><path d="m.813 0v-7.266h.468v3.141c.227-.281.489-.504.782-.672.3-.164.632-.25 1-.25.269 0 .507.047.718.141.207.086.379.211.516.375.133.156.238.351.312.578.071.23.11.492.11.781v3.172h-.485v-3.172c0-.469-.109-.832-.328-1.094-.211-.269-.531-.406-.968-.406-.325 0-.625.09-.907.266-.281.168-.531.398-.75.687v3.719zm0 0"/></symbol><symbol id="ah" overflow="visible"><path d="m2.688-5.047c.269 0 .523.055.765.156.238.094.445.235.625.422.176.18.313.403.406.672.094.274.141.578.141.922 0 .074-.012.125-.031.156-.024.024-.055.031-.094.031h-3.594v.094c0 .375.039.711.125 1 .094.281.219.516.375.703.157.188.348.336.578.438.227.094.485.14.766.14.25 0 .461-.023.641-.078.187-.062.343-.125.468-.187.125-.07.223-.133.297-.188.071-.05.125-.078.157-.078.039 0 .07.016.093.047l.141.156c-.086.106-.195.2-.328.282-.125.086-.274.156-.438.218-.156.063-.328.11-.515.141-.188.039-.375.063-.563.063-.336 0-.64-.059-.922-.172-.281-.125-.523-.297-.718-.516-.2-.227-.356-.504-.469-.828-.106-.332-.156-.711-.156-1.141 0-.351.05-.679.156-.984.101-.301.25-.555.437-.766.188-.219.422-.39.703-.515.282-.125.598-.188.954-.188zm0 .359c-.262 0-.497.043-.704.125-.199.075-.371.188-.515.344-.149.149-.266.324-.36.531-.093.211-.156.446-.187.704h3.281c0-.27-.039-.508-.109-.719-.074-.207-.18-.383-.313-.531-.136-.145-.297-.254-.484-.329-.18-.082-.383-.125-.609-.125zm-.579-2.453c.082 0 .141.012.172.032.039.023.082.062.125.125l.782 1.187h-.266c-.043 0-.078-.004-.109-.016-.032-.007-.059-.031-.079-.062l-1.093-1.266zm0 0"/></symbol><symbol id="ai" overflow="visible"><path d="m1.703-2.844v2.844h-.5v-7.063h1.813c.832 0 1.457.184 1.875.547.425.368.64.883.64 1.547 0 .313-.058.602-.172.86-.117.261-.281.484-.5.671-.218.188-.484.336-.796.438-.305.105-.653.156-1.047.156zm0-.406h1.313c.312 0 .593-.039.843-.125.25-.094.457-.211.625-.359.176-.157.305-.336.391-.547.094-.207.141-.438.141-.688 0-.539-.168-.957-.5-1.25-.336-.289-.836-.437-1.5-.437h-1.313zm0 0"/></symbol><symbol id="aj" overflow="visible"><path d="m4.469-6.203c-.031.055-.078.078-.141.078-.043 0-.101-.031-.172-.094-.062-.062-.152-.129-.265-.203-.118-.07-.262-.141-.438-.203-.18-.063-.39-.094-.64-.094-.262 0-.493.039-.688.11-.187.074-.352.171-.484.296-.137.125-.243.274-.313.438-.062.168-.094.344-.094.531 0 .242.051.438.157.594.101.156.238.293.406.406.164.106.351.196.562.266.207.074.422.148.641.219.227.074.445.156.656.25.219.086.41.195.578.328.164.136.297.304.391.5.102.187.156.429.156.718 0 .293-.054.575-.156.844-.094.262-.242.492-.437.688-.188.187-.422.34-.704.453-.281.101-.605.156-.968.156-.461 0-.86-.082-1.203-.25-.336-.164-.625-.391-.875-.672l.14-.219c.039-.05.086-.078.141-.078.031 0 .066.024.109.063.051.043.11.094.172.156.063.055.141.117.234.188.094.062.204.125.329.187.125.055.265.102.421.141.157.043.336.062.547.062.282 0 .532-.039.75-.125.219-.082.399-.195.547-.344.156-.144.27-.316.344-.515.082-.207.125-.426.125-.656 0-.25-.055-.454-.156-.61-.094-.164-.227-.301-.391-.406-.168-.113-.359-.207-.578-.281-.211-.071-.422-.141-.641-.203-.218-.071-.437-.149-.656-.235-.211-.094-.398-.207-.562-.344-.168-.132-.305-.3-.407-.5-.093-.207-.14-.46-.14-.765 0-.227.039-.453.125-.672.093-.219.222-.41.39-.578.176-.176.391-.313.641-.406.258-.102.551-.157.875-.157.363 0 .691.059.984.172.289.117.555.293.797.531zm0 0"/></symbol><symbol id="ak" overflow="visible"><path d="m.719-.391c0-.062.008-.117.031-.172.031-.062.066-.113.109-.156.039-.039.086-.07.141-.094.051-.019.113-.031.188-.031.062 0 .117.012.171.031.063.024.114.055.157.094.039.043.07.094.093.156.02.055.032.11.032.172 0 .075-.012.137-.032.188-.023.055-.054.101-.093.14-.043.043-.094.071-.157.094-.054.032-.109.047-.171.047-.137 0-.25-.043-.344-.125-.086-.094-.125-.207-.125-.344zm0-3.968c0-.063.008-.118.031-.172.031-.063.066-.114.109-.157.039-.039.086-.07.141-.093.051-.032.113-.047.188-.047.062 0 .117.015.171.047.063.023.114.054.157.093.039.043.07.094.093.157.02.054.032.109.032.172 0 .062-.012.125-.032.187-.023.055-.054.102-.093.141-.043.043-.094.074-.157.093-.054.024-.109.032-.171.032-.137 0-.25-.039-.344-.125-.086-.094-.125-.203-.125-.328zm0 0"/></symbol><symbol id="al" overflow="visible"><path d="m5.344-7.063v.219c0 .055-.008.102-.016.141-.012.043-.027.078-.047.109l-3.234 6.406c-.031.063-.07.11-.109.141-.043.031-.102.047-.172.047h-.328l3.265-6.391c.039-.082.094-.16.156-.234h-4.078c-.043 0-.074-.008-.093-.031-.024-.032-.032-.067-.032-.11v-.297zm0 0"/></symbol><symbol id="am" overflow="visible"><path d="m5.656-7.063v.438h-2.468v6.625h-.516v-6.625h-2.5v-.438zm0 0"/></symbol><symbol id="an" overflow="visible"><path d="m1.891 1.594c-.024.051-.047.086-.078.109-.032.031-.079.047-.141.047h-.328l.875-1.938-2.11-4.781h.391c.051 0 .086.016.109.047.032.024.055.047.079.078l1.671 3.86c.02.054.036.105.047.156.02.055.035.105.047.156.008-.051.024-.101.047-.156.02-.051.039-.102.063-.156l1.656-3.86c.008-.039.031-.07.062-.094.032-.019.067-.031.11-.031h.359zm0 0"/></symbol><symbol id="ao" overflow="visible"><path d="m.547-.422c0-.113.035-.211.109-.297.082-.082.192-.125.328-.125.145 0 .254.055.329.156.082.094.125.219.125.375 0 .137-.024.274-.063.407-.031.144-.086.285-.156.422-.063.132-.141.265-.235.39-.093.133-.199.254-.312.36l-.063-.078c-.031-.032-.046-.059-.046-.079 0-.023.003-.043.015-.062.008-.012.02-.024.031-.031.032-.043.071-.094.125-.157.051-.062.102-.14.157-.234.05-.086.097-.18.14-.281.039-.106.071-.219.094-.344-.023.008-.047.016-.078.016-.024 0-.047 0-.078 0-.125 0-.231-.039-.313-.125-.074-.082-.109-.188-.109-.313zm0 0"/></symbol><symbol id="ap" overflow="visible"><path d="m1.422-4.969v5.61c0 .164-.027.32-.078.468-.055.145-.125.27-.219.375-.094.114-.219.204-.375.266-.148.063-.32.094-.516.094-.093 0-.179-.012-.25-.031-.082-.012-.16-.04-.234-.079l.031-.234c0-.043.024-.062.063-.062.031 0 .074.003.125.015.039.02.101.031.187.031.27 0 .469-.078.594-.234.133-.148.203-.352.203-.609v-5.61zm.203-1.703c0 .055-.012.106-.031.156-.024.055-.055.102-.094.141-.043.043-.09.074-.141.094-.054.023-.109.031-.171.031-.063 0-.122-.008-.172-.031-.055-.02-.102-.051-.141-.094-.043-.039-.074-.086-.094-.141-.023-.05-.031-.101-.031-.156 0-.062.008-.117.031-.172.02-.062.051-.109.094-.14.039-.039.086-.071.141-.094.05-.031.109-.047.172-.047.062 0 .117.016.171.047.051.023.098.055.141.094.039.031.07.078.094.14.019.055.031.11.031.172zm0 0"/></symbol><symbol id="aq" overflow="visible"><path d="m1.547-.375h1.625v-5.719c0-.113.004-.234.016-.359l-1.563 1.375c-.031.031-.074.047-.125.047-.055 0-.094-.02-.125-.063l-.141-.203 2.032-1.797h.375v6.719h1.547v.375h-3.641zm0 0"/></symbol><symbol id="ar" overflow="visible"><path d="m1.344-7.266v4.438h.219c.05 0 .097-.004.14-.016.039-.019.086-.054.141-.109l1.984-1.891c.039-.031.078-.054.11-.078.039-.031.093-.047.156-.047h.422l-2.203 2.078c-.032.043-.063.078-.094.11-.031.023-.063.043-.094.062.051.024.094.055.125.094.039.031.082.074.125.125l2.297 2.5h-.406c-.055 0-.102-.008-.141-.031-.031-.02-.062-.047-.094-.078l-2.093-2.235c-.055-.062-.106-.101-.157-.125-.043-.019-.117-.031-.218-.031h-.219v2.5h-.485v-7.266zm0 0"/></symbol><symbol id="as" overflow="visible"><path d="m1.75-4.172c.156 0 .305.027.453.078.145.043.27.11.375.203.113.094.203.211.266.344.062.137.094.297.094.484 0 .157-.028.305-.079.438-.043.137-.105.266-.187.391-.086.117-.184.23-.297.343-.105.118-.215.235-.328.36l-1.297 1.312c.063-.008.125-.019.188-.031.07-.008.144-.016.218-.016h1.782c.031 0 .05.012.062.032.02.023.031.046.031.078v.156h-2.656v-.094c0-.019.004-.039.016-.062.007-.032.023-.051.047-.063l1.406-1.422c.113-.125.219-.238.312-.343.102-.114.192-.227.266-.344.07-.113.129-.227.172-.344.039-.113.062-.238.062-.375 0-.156-.027-.285-.078-.391-.055-.113-.121-.207-.203-.281-.086-.07-.184-.125-.297-.156-.105-.039-.219-.063-.344-.063s-.246.024-.359.063c-.105.043-.199.102-.281.172-.086.062-.156.148-.219.25-.055.094-.09.203-.109.328-.024.062-.063.094-.125.094 0 0-.008 0-.016 0l-.141-.032c.02-.175.067-.332.141-.468.07-.133.16-.25.266-.344.113-.094.242-.164.39-.219.145-.051.301-.078.469-.078zm0 0"/></symbol><g fill="#231f20"><use x="295.615877" xlink:href="#a" y="866.273436"/><use x="302.568777" xlink:href="#b" y="866.273436"/><use x="309.521677" xlink:href="#c" y="866.273436"/></g><g fill="#231f20"><use x="890.286041" xlink:href="#a" y="866.273436"/><use x="897.23894" xlink:href="#a" y="866.273436"/><use x="904.19184" xlink:href="#b" y="866.273436"/></g><use fill="#fff" x="71.803248" xlink:href="#d" y="217.19168"/><g fill="#fff"><use x="71.803248" xlink:href="#e" y="191.765393"/><use x="71.803248" xlink:href="#f" y="162.994773"/><use x="71.803248" xlink:href="#g" y="144.329833"/><use x="71.803248" xlink:href="#h" y="124.010583"/><use x="71.803248" xlink:href="#i" y="102.468581"/></g><use fill="#a446a9" x="92.813304" xlink:href="#j" y="138.174005"/><use fill="#a446a9" x="101.456586" xlink:href="#k" y="138.174005"/><use fill="#a446a9" x="108.325367" xlink:href="#l" y="138.174005"/><use fill="#a446a9" x="113.647872" xlink:href="#k" y="138.174005"/><use fill="#a446a9" x="120.528846" xlink:href="#m" y="138.174005"/><use fill="#a446a9" x="126.846394" xlink:href="#n" y="138.174005"/><use fill="#a446a9" x="132.084949" xlink:href="#o" y="138.174005"/><use fill="#a446a9" x="139.097787" xlink:href="#l" y="138.174005"/><use fill="#a446a9" x="144.588181" xlink:href="#p" y="138.174005"/><use fill="#a446a9" x="148.436347" xlink:href="#q" y="138.174005"/><use fill="#a446a9" x="154.274481" xlink:href="#n" y="138.174005"/><use fill="#a446a9" x="159.513036" xlink:href="#p" y="138.174005"/><use fill="#a446a9" x="163.361202" xlink:href="#r" y="138.174005"/><use fill="#a446a9" x="170.793517" xlink:href="#s" y="138.174005"/><use fill="#a446a9" x="178.213843" xlink:href="#t" y="138.174005"/><use fill="#a446a9" x="185.214586" xlink:href="#q" y="138.174005"/><use fill="#a446a9" x="191.05272" xlink:href="#u" y="138.174005"/><use fill="#a446a9" x="193.96565" xlink:href="#n" y="138.174005"/><use fill="#a446a9" x="199.204204" xlink:href="#t" y="138.174005"/><use fill="#a446a9" x="206.217043" xlink:href="#m" y="138.174005"/><use fill="#a446a9" x="212.534592" xlink:href="#v" y="138.174005"/><use fill="#a446a9" x="219.943122" xlink:href="#w" y="138.174005"/><use fill="#a446a9" x="227.363449" xlink:href="#p" y="138.174005"/><use fill="#a446a9" x="231.211615" xlink:href="#r" y="138.174005"/><use fill="#a446a9" x="238.643929" xlink:href="#s" y="138.174005"/><use fill="#a446a9" x="246.05246" xlink:href="#t" y="138.174005"/><use fill="#a446a9" x="253.053311" xlink:href="#q" y="138.174005"/><g fill="#393536"><use x="92.813304" xlink:href="#x" y="162.149522"/><use x="99.756316" xlink:href="#y" y="162.149522"/><use x="104.561739" xlink:href="#z" y="162.149522"/><use x="110.166273" xlink:href="#A" y="162.149522"/><use x="111.175376" xlink:href="#B" y="162.149522"/><use x="116.540247" xlink:href="#C" y="162.149522"/><use x="119.417255" xlink:href="#D" y="162.149522"/><use x="125.311382" xlink:href="#E" y="162.149522"/><use x="133.762884" xlink:href="#F" y="162.149522"/><use x="136.639992" xlink:href="#G" y="162.149522"/><use x="142.54431" xlink:href="#F" y="162.149522"/><use x="145.411528" xlink:href="#D" y="162.149522"/><use x="151.315845" xlink:href="#E" y="162.149522"/><use x="159.767347" xlink:href="#A" y="162.149522"/><use x="160.78627" xlink:href="#B" y="162.149522"/><use x="166.140931" xlink:href="#G" y="162.149522"/><use x="172.045269" xlink:href="#H" y="162.149522"/><use x="177.949607" xlink:href="#I" y="162.149522"/><use x="183.903895" xlink:href="#F" y="162.149522"/><use x="186.780923" xlink:href="#J" y="162.149522"/><use x="191.576256" xlink:href="#K" y="162.149522"/><use x="197.18069" xlink:href="#A" y="162.149522"/><use x="198.199584" xlink:href="#L" y="162.149522"/><use x="202.015774" xlink:href="#A" y="162.149522"/><use x="203.034698" xlink:href="#M" y="162.149522"/><use x="212.615084" xlink:href="#H" y="162.149522"/><use x="218.519402" xlink:href="#N" y="162.149522"/><use x="222.575445" xlink:href="#z" y="162.149522"/><use x="228.18965" xlink:href="#D" y="162.149522"/><use x="234.093967" xlink:href="#O" y="162.149522"/><use x="238.559406" xlink:href="#A" y="162.149522"/><use x="239.57833" xlink:href="#P" y="162.149522"/><use x="245.872263" xlink:href="#Q" y="162.149522"/><use x="252.166196" xlink:href="#R" y="162.149522"/><use x="259.099497" xlink:href="#A" y="162.149522"/><use x="260.118221" xlink:href="#I" y="162.149522"/><use x="266.072589" xlink:href="#z" y="162.149522"/><use x="271.677103" xlink:href="#A" y="162.149522"/><use x="272.696026" xlink:href="#S" y="162.149522"/><use x="278.989959" xlink:href="#T" y="162.149522"/><use x="285.283892" xlink:href="#T" y="162.149522"/><use x="291.577725" xlink:href="#A" y="162.149522"/><use x="292.596648" xlink:href="#U" y="162.149522"/><use x="300.648745" xlink:href="#E" y="162.149522"/><use x="309.100246" xlink:href="#A" y="162.149522"/><use x="310.109349" xlink:href="#J" y="162.149522"/><use x="314.904563" xlink:href="#F" y="162.149522"/><use x="317.781571" xlink:href="#N" y="162.149522"/><use x="321.837614" xlink:href="#D" y="162.149522"/><use x="327.741932" xlink:href="#K" y="162.149522"/><use x="333.346446" xlink:href="#A" y="162.149522"/><use x="334.349975" xlink:href="#I" y="162.149522"/><use x="340.296351" xlink:href="#B" y="162.149522"/><use x="345.661701" xlink:href="#G" y="162.149522"/><use x="351.565512" xlink:href="#J" y="162.149522"/><use x="356.360725" xlink:href="#A" y="162.149522"/><use x="357.379648" xlink:href="#C" y="162.149522"/><use x="360.246866" xlink:href="#V" y="162.149522"/><use x="362.424675" xlink:href="#B" y="162.149522"/><use x="367.779435" xlink:href="#y" y="162.149522"/><use x="372.584849" xlink:href="#z" y="162.149522"/><use x="378.189363" xlink:href="#A" y="162.149522"/><use x="379.208286" xlink:href="#B" y="162.149522"/><use x="384.453225" xlink:href="#W" y="162.149522"/><use x="389.727835" xlink:href="#z" y="162.149522"/><use x="395.332449" xlink:href="#X" y="162.149522"/><use x="400.377515" xlink:href="#A" y="162.149522"/><use x="401.396439" xlink:href="#Y" y="162.149522"/><use x="406.931022" xlink:href="#z" y="162.149522"/><use x="412.535535" xlink:href="#J" y="162.149522"/><use x="417.330949" xlink:href="#N" y="162.149522"/><use x="421.396982" xlink:href="#F" y="162.149522"/><use x="424.2642" xlink:href="#H" y="162.149522"/><use x="430.168518" xlink:href="#G" y="162.149522"/><use x="436.072835" xlink:href="#A" y="162.149522"/><use x="437.091759" xlink:href="#I" y="162.149522"/><use x="443.046027" xlink:href="#z" y="162.149522"/><use x="448.650541" xlink:href="#A" y="162.149522"/><use x="449.669465" xlink:href="#Z" y="162.149522"/><use x="453.385744" xlink:href="#F" y="162.149522"/><use x="456.262752" xlink:href="#G" y="162.149522"/><use x="462.16707" xlink:href="#A" y="162.149522"/><use x="463.185893" xlink:href="#I" y="162.149522"/><use x="469.140261" xlink:href="#z" y="162.149522"/><use x="474.744775" xlink:href="#A" y="162.149522"/><use x="475.763699" xlink:href="#X" y="162.149522"/><use x="480.808865" xlink:href="#H" y="162.149522"/><use x="486.713183" xlink:href="#D" y="162.149522"/><use x="492.617501" xlink:href="#O" y="162.149522"/><use x="497.08284" xlink:href="#J" y="162.149522"/><use x="501.878253" xlink:href="#z" y="162.149522"/><use x="507.482767" xlink:href="#A" y="162.149522"/><use x="508.50169" xlink:href="#B" y="162.149522"/><use x="513.856351" xlink:href="#D" y="162.149522"/><use x="519.760669" xlink:href="#N" y="162.149522"/><use x="523.826702" xlink:href="#H" y="162.149522"/><use x="529.73102" xlink:href="#E" y="162.149522"/><use x="538.172731" xlink:href="#B" y="162.149522"/><use x="543.537582" xlink:href="#N" y="162.149522"/><use x="547.593526" xlink:href="#F" y="162.149522"/><use x="550.470534" xlink:href="#aa" y="162.149522"/><use x="556.424802" xlink:href="#D" y="162.149522"/><g><use x="562.324524" xlink:href="#z" y="162.149522"/><use x="567.429482" xlink:href="#A" y="162.149522"/></g><use x="92.813404" xlink:href="#L" y="174.13728"/><use x="100.395794" xlink:href="#M" y="174.13728"/><use x="109.97638" xlink:href="#H" y="174.13728"/><use x="115.880698" xlink:href="#N" y="174.13728"/><use x="119.936542" xlink:href="#z" y="174.13728"/><use x="125.541056" xlink:href="#D" y="174.13728"/><use x="131.445373" xlink:href="#O" y="174.13728"/><use x="135.910912" xlink:href="#A" y="174.13728"/><use x="139.666952" xlink:href="#z" y="174.13728"/><use x="145.271466" xlink:href="#N" y="174.13728"/><use x="149.3375" xlink:href="#A" y="174.13728"/><use x="153.093739" xlink:href="#B" y="174.13728"/><use x="158.4484" xlink:href="#y" y="174.13728"/><use x="163.253813" xlink:href="#z" y="174.13728"/><use x="168.858427" xlink:href="#A" y="174.13728"/><use x="172.614467" xlink:href="#F" y="174.13728"/><use x="175.491475" xlink:href="#J" y="174.13728"/><use x="180.286888" xlink:href="#H" y="174.13728"/><use x="186.191206" xlink:href="#C" y="174.13728"/><use x="189.058423" xlink:href="#K" y="174.13728"/><use x="194.662937" xlink:href="#J" y="174.13728"/><use x="199.45825" xlink:href="#A" y="174.13728"/><use x="203.21439" xlink:href="#z" y="174.13728"/><use x="208.818904" xlink:href="#N" y="174.13728"/><use x="212.884938" xlink:href="#A" y="174.13728"/><use x="216.641177" xlink:href="#F" y="174.13728"/><use x="219.508395" xlink:href="#E" y="174.13728"/><use x="227.959897" xlink:href="#E" y="174.13728"/><use x="236.401608" xlink:href="#z" y="174.13728"/><use x="242.006222" xlink:href="#O" y="174.13728"/><use x="246.471561" xlink:href="#Y" y="174.13728"/><use x="252.016034" xlink:href="#K" y="174.13728"/><use x="257.620548" xlink:href="#J" y="174.13728"/><use x="262.415761" xlink:href="#A" y="174.13728"/><use x="266.171901" xlink:href="#L" y="174.13728"/><use x="269.988081" xlink:href="#A" y="174.13728"/><use x="273.744221" xlink:href="#ab" y="174.13728"/><use x="281.26664" xlink:href="#H" y="174.13728"/><use x="287.180748" xlink:href="#E" y="174.13728"/><use x="295.62246" xlink:href="#E" y="174.13728"/><use x="304.073961" xlink:href="#D" y="174.13728"/><use x="309.978379" xlink:href="#N" y="174.13728"/><use x="314.034223" xlink:href="#B" y="174.13728"/><use x="319.399073" xlink:href="#N" y="174.13728"/><use x="323.455017" xlink:href="#z" y="174.13728"/><use x="329.059531" xlink:href="#D" y="174.13728"/><use x="334.963948" xlink:href="#O" y="174.13728"/><use x="339.429387" xlink:href="#A" y="174.13728"/><use x="343.185427" xlink:href="#ac" y="174.13728"/><use x="348.550378" xlink:href="#A" y="174.13728"/><use x="352.296227" xlink:href="#X" y="174.13728"/><use x="357.341394" xlink:href="#C" y="174.13728"/><use x="360.208711" xlink:href="#K" y="174.13728"/><use x="365.813225" xlink:href="#A" y="174.13728"/><use x="369.569265" xlink:href="#S" y="174.13728"/><use x="375.863198" xlink:href="#A" y="174.13728"/><use x="379.619338" xlink:href="#ad" y="174.13728"/><use x="385.463515" xlink:href="#H" y="174.13728"/><use x="391.367833" xlink:href="#J" y="174.13728"/><use x="396.163246" xlink:href="#F" y="174.13728"/><use x="399.040254" xlink:href="#N" y="174.13728"/><use x="403.096197" xlink:href="#F" y="174.13728"/><use x="405.973205" xlink:href="#H" y="174.13728"/><use x="411.877523" xlink:href="#G" y="174.13728"/><use x="417.781941" xlink:href="#J" y="174.13728"/><use x="422.577154" xlink:href="#A" y="174.13728"/><use x="426.333294" xlink:href="#L" y="174.13728"/><use x="430.149474" xlink:href="#A" y="174.13728"/><use x="433.905614" xlink:href="#ab" y="174.13728"/><use x="441.438123" xlink:href="#H" y="174.13728"/><use x="447.342441" xlink:href="#Z" y="174.13728"/><use x="451.05882" xlink:href="#Z" y="174.13728"/><use x="454.775099" xlink:href="#O" y="174.13728"/><use x="459.240538" xlink:href="#z" y="174.13728"/><use x="464.845052" xlink:href="#N" y="174.13728"/><use x="468.900896" xlink:href="#A" y="174.13728"/><use x="472.657135" xlink:href="#I" y="174.13728"/><use x="478.611404" xlink:href="#z" y="174.13728"/><use x="484.215917" xlink:href="#A" y="174.13728"/><use x="487.972057" xlink:href="#ad" y="174.13728"/><use x="493.816234" xlink:href="#O" y="174.13728"/><use x="498.281673" xlink:href="#H" y="174.13728"/><use x="504.186091" xlink:href="#Y" y="174.13728"/><use x="509.730464" xlink:href="#O" y="174.13728"/><use x="513.94648" xlink:href="#B" y="174.13728"/><use x="519.30114" xlink:href="#E" y="174.13728"/><use x="527.752442" xlink:href="#E" y="174.13728"/><use x="536.194253" xlink:href="#B" y="174.13728"/><use x="541.559204" xlink:href="#N" y="174.13728"/><use x="545.615048" xlink:href="#F" y="174.13728"/><use x="548.491956" xlink:href="#H" y="174.13728"/><use x="554.396273" xlink:href="#G" y="174.13728"/><use x="560.300591" xlink:href="#A" y="174.13728"/><g><use x="564.056831" xlink:href="#L" y="174.13728"/><use x="567.383545" xlink:href="#A" y="174.13728"/></g><use x="92.813404" xlink:href="#ae" y="186.125039"/><use x="99.217028" xlink:href="#G" y="186.125039"/><use x="105.121346" xlink:href="#J" y="186.125039"/><use x="109.916659" xlink:href="#z" y="186.125039"/><use x="115.521173" xlink:href="#E" y="186.125039"/><use x="123.972675" xlink:href="#af" y="186.125039"/><use x="129.926943" xlink:href="#C" y="186.125039"/><use x="132.794161" xlink:href="#z" y="186.125039"/><use x="138.398775" xlink:href="#A" y="186.125039"/><use x="141.166091" xlink:href="#I" y="186.125039"/><use x="147.12036" xlink:href="#z" y="186.125039"/><use x="152.724873" xlink:href="#A" y="186.125039"/><use x="155.49229" xlink:href="#X" y="186.125039"/><use x="160.537356" xlink:href="#H" y="186.125039"/><use x="166.441674" xlink:href="#G" y="186.125039"/><use x="172.345992" xlink:href="#N" y="186.125039"/><use x="176.412125" xlink:href="#O" y="186.125039"/><use x="180.877464" xlink:href="#z" y="186.125039"/><use x="186.482078" xlink:href="#ad" y="186.125039"/><use x="192.326255" xlink:href="#H" y="186.125039"/><use x="198.230573" xlink:href="#F" y="186.125039"/><use x="201.097891" xlink:href="#I" y="186.125039"/><use x="207.052159" xlink:href="#J" y="186.125039"/><use x="211.847472" xlink:href="#A" y="186.125039"/><use x="214.614789" xlink:href="#I" y="186.125039"/><use x="220.569057" xlink:href="#z" y="186.125039"/><use x="226.173571" xlink:href="#A" y="186.125039"/><use x="228.940987" xlink:href="#C" y="186.125039"/><use x="231.817995" xlink:href="#z" y="186.125039"/><use x="237.422509" xlink:href="#J" y="186.125039"/><use x="242.217723" xlink:href="#N" y="186.125039"/><use x="246.273666" xlink:href="#B" y="186.125039"/><use x="251.638617" xlink:href="#Y" y="186.125039"/><use x="257.1732" xlink:href="#z" y="186.125039"/><use x="262.777714" xlink:href="#A" y="186.125039"/><use x="265.54503" xlink:href="#N" y="186.125039"/><use x="269.611064" xlink:href="#B" y="186.125039"/><use x="274.965824" xlink:href="#af" y="186.125039"/><use x="280.920093" xlink:href="#C" y="186.125039"/><use x="283.797101" xlink:href="#F" y="186.125039"/><use x="286.664318" xlink:href="#z" y="186.125039"/><use x="292.268832" xlink:href="#O" y="186.125039"/><use x="296.734371" xlink:href="#A" y="186.125039"/><use x="299.501688" xlink:href="#L" y="186.125039"/><use x="303.327958" xlink:href="#A" y="186.125039"/><use x="306.095275" xlink:href="#x" y="186.125039"/><use x="313.028476" xlink:href="#X" y="186.125039"/><use x="318.073742" xlink:href="#X" y="186.125039"/><use x="323.118809" xlink:href="#O" y="186.125039"/><use x="327.584248" xlink:href="#H" y="186.125039"/><use x="333.488566" xlink:href="#X" y="186.125039"/><use x="338.523242" xlink:href="#ag" y="186.125039"/><use x="344.42766" xlink:href="#z" y="186.125039"/><use x="350.032174" xlink:href="#A" y="186.125039"/><use x="352.79949" xlink:href="#I" y="186.125039"/><use x="358.753759" xlink:href="#z" y="186.125039"/><use x="364.358273" xlink:href="#A" y="186.125039"/><use x="367.125589" xlink:href="#J" y="186.125039"/><use x="371.920902" xlink:href="#K" y="186.125039"/><use x="377.525416" xlink:href="#X" y="186.125039"/><use x="382.570582" xlink:href="#D" y="186.125039"/><use x="388.4749" xlink:href="#O" y="186.125039"/><use x="392.940339" xlink:href="#F" y="186.125039"/><use x="395.817347" xlink:href="#N" y="186.125039"/><use x="399.873191" xlink:href="#K" y="186.125039"/><use x="405.477705" xlink:href="#A" y="186.125039"/><use x="408.245021" xlink:href="#L" y="186.125039"/><use x="412.071392" xlink:href="#A" y="186.125039"/><use x="414.838708" xlink:href="#M" y="186.125039"/><use x="424.419095" xlink:href="#D" y="186.125039"/><use x="430.323412" xlink:href="#O" y="186.125039"/><use x="434.788951" xlink:href="#A" y="186.125039"/><use x="437.556268" xlink:href="#I" y="186.125039"/><use x="443.510536" xlink:href="#z" y="186.125039"/><use x="449.11505" xlink:href="#A" y="186.125039"/><use x="451.882366" xlink:href="#J" y="186.125039"/><use x="456.67768" xlink:href="#K" y="186.125039"/><use x="462.282194" xlink:href="#ad" y="186.125039"/><use x="468.126371" xlink:href="#B" y="186.125039"/><use x="473.481131" xlink:href="#O" y="186.125039"/><use x="477.697047" xlink:href="#B" y="186.125039"/><use x="483.051807" xlink:href="#N" y="186.125039"/><use x="487.117841" xlink:href="#F" y="186.125039"/><use x="489.985059" xlink:href="#H" y="186.125039"/><use x="495.889376" xlink:href="#G" y="186.125039"/><use x="501.793694" xlink:href="#A" y="186.125039"/><use x="504.561111" xlink:href="#B" y="186.125039"/><use x="509.806149" xlink:href="#W" y="186.125039"/><use x="515.080759" xlink:href="#z" y="186.125039"/><use x="520.685273" xlink:href="#X" y="186.125039"/><use x="525.73034" xlink:href="#A" y="186.125039"/><use x="528.497756" xlink:href="#Y" y="186.125039"/><use x="534.032439" xlink:href="#C" y="186.125039"/><use x="536.909347" xlink:href="#F" y="186.125039"/><use x="539.776565" xlink:href="#J" y="186.125039"/><use x="544.571878" xlink:href="#J" y="186.125039"/><use x="549.367091" xlink:href="#F" y="186.125039"/><use x="552.244199" xlink:href="#ah" y="186.125039"/><use x="557.848713" xlink:href="#O" y="186.125039"/><g><use x="562.314152" xlink:href="#z" y="186.125039"/><use x="567.41911" xlink:href="#A" y="186.125039"/></g><use x="92.813404" xlink:href="#z" y="198.112797"/><use x="98.417918" xlink:href="#N" y="198.112797"/><use x="102.483951" xlink:href="#A" y="198.112797"/><use x="104.911803" xlink:href="#C" y="198.112797"/><use x="107.779021" xlink:href="#B" y="198.112797"/><use x="113.143871" xlink:href="#E" y="198.112797"/><use x="121.585583" xlink:href="#z" y="198.112797"/><use x="127.190097" xlink:href="#J" y="198.112797"/><use x="131.98541" xlink:href="#A" y="198.112797"/><use x="134.413162" xlink:href="#ai" y="198.112797"/><use x="140.846657" xlink:href="#R" y="198.112797"/><use x="147.560205" xlink:href="#ab" y="198.112797"/><use x="155.092715" xlink:href="#A" y="198.112797"/><use x="157.520367" xlink:href="#O" y="198.112797"/><use x="161.985905" xlink:href="#z" y="198.112797"/><use x="167.590419" xlink:href="#G" y="198.112797"/><use x="173.494737" xlink:href="#Z" y="198.112797"/><use x="177.211016" xlink:href="#H" y="198.112797"/><use x="183.115334" xlink:href="#O" y="198.112797"/><use x="187.580873" xlink:href="#X" y="198.112797"/><use x="192.625939" xlink:href="#K" y="198.112797"/><use x="198.230453" xlink:href="#z" y="198.112797"/><use x="203.834967" xlink:href="#J" y="198.112797"/><use x="208.63028" xlink:href="#A" y="198.112797"/><use x="211.058032" xlink:href="#af" y="198.112797"/><use x="217.012301" xlink:href="#C" y="198.112797"/><use x="219.879518" xlink:href="#B" y="198.112797"/><use x="225.244369" xlink:href="#G" y="198.112797"/><use x="231.148687" xlink:href="#X" y="198.112797"/><use x="236.193853" xlink:href="#A" y="198.112797"/><use x="238.621605" xlink:href="#L" y="198.112797"/><use x="242.437685" xlink:href="#A" y="198.112797"/><use x="244.865337" xlink:href="#ai" y="198.112797"/><use x="251.14904" xlink:href="#H" y="198.112797"/><use x="257.053358" xlink:href="#D" y="198.112797"/><use x="262.957776" xlink:href="#N" y="198.112797"/><use x="267.023909" xlink:href="#O" y="198.112797"/><use x="271.489248" xlink:href="#z" y="198.112797"/><use x="277.093762" xlink:href="#A" y="198.112797"/><use x="279.521514" xlink:href="#B" y="198.112797"/><use x="284.876275" xlink:href="#C" y="198.112797"/><use x="287.753283" xlink:href="#D" y="198.112797"/><use x="293.6576" xlink:href="#A" y="198.112797"/><use x="296.085252" xlink:href="#ad" y="198.112797"/><use x="301.92943" xlink:href="#H" y="198.112797"/><use x="307.833747" xlink:href="#J" y="198.112797"/><use x="312.62916" xlink:href="#K" y="198.112797"/><use x="318.233674" xlink:href="#z" y="198.112797"/><use x="323.838188" xlink:href="#A" y="198.112797"/><use x="326.26584" xlink:href="#J" y="198.112797"/><use x="331.061153" xlink:href="#D" y="198.112797"/><use x="336.945381" xlink:href="#O" y="198.112797"/><use x="341.41082" xlink:href="#A" y="198.112797"/><use x="343.838472" xlink:href="#J" y="198.112797"/><use x="348.633785" xlink:href="#B" y="198.112797"/><use x="353.988446" xlink:href="#af" y="198.112797"/><use x="359.942814" xlink:href="#H" y="198.112797"/><use x="365.847132" xlink:href="#N" y="198.112797"/><g><use x="369.913165" xlink:href="#J" y="198.112797"/><use x="374.208922" xlink:href="#A" y="198.112797"/></g><use x="92.813404" xlink:href="#aj" y="210.100556"/><use x="98.537799" xlink:href="#D" y="210.100556"/><use x="104.442117" xlink:href="#ad" y="210.100556"/><use x="110.276204" xlink:href="#z" y="210.100556"/><use x="115.880718" xlink:href="#O" y="210.100556"/><use x="120.356247" xlink:href="#Z" y="210.100556"/><use x="124.072626" xlink:href="#F" y="210.100556"/><use x="126.939844" xlink:href="#X" y="210.100556"/><use x="131.98491" xlink:href="#F" y="210.100556"/><use x="134.862018" xlink:href="#z" y="210.100556"/><use x="140.466532" xlink:href="#A" y="210.100556"/><use x="142.55462" xlink:href="#E" y="210.100556"/><use x="150.996331" xlink:href="#B" y="210.100556"/><use x="156.361182" xlink:href="#y" y="210.100556"/><use x="161.456199" xlink:href="#F" y="210.100556"/><use x="164.333307" xlink:href="#E" y="210.100556"/><use x="172.775018" xlink:href="#B" y="210.100556"/><use x="178.139869" xlink:href="#C" y="210.100556"/><use x="181.007086" xlink:href="#z" y="210.100556"/><use x="186.6116" xlink:href="#A" y="210.100556"/><use x="188.699688" xlink:href="#ak" y="210.100556"/><use x="191.576696" xlink:href="#A" y="210.100556"/><use x="193.664783" xlink:href="#al" y="210.100556"/><use x="199.958816" xlink:href="#P" y="210.100556"/><use x="206.252649" xlink:href="#E" y="210.100556"/><use x="214.679621" xlink:href="#as" y="206.773843"/><use x="218.349098" xlink:href="#A" y="210.100556"/><use x="220.437185" xlink:href="#L" y="210.100556"/><use x="224.253366" xlink:href="#A" y="210.100556"/><use x="226.341353" xlink:href="#am" y="210.100556"/><use x="231.41651" xlink:href="#B" y="210.100556"/><use x="236.771171" xlink:href="#af" y="210.100556"/><use x="242.735229" xlink:href="#C" y="210.100556"/><use x="245.602547" xlink:href="#F" y="210.100556"/><use x="248.479555" xlink:href="#z" y="210.100556"/><use x="254.084069" xlink:href="#O" y="210.100556"/><use x="258.549508" xlink:href="#A" y="210.100556"/><use x="260.637595" xlink:href="#I" y="210.100556"/><use x="266.591864" xlink:href="#z" y="210.100556"/><use x="272.196478" xlink:href="#A" y="210.100556"/><use x="274.284565" xlink:href="#C" y="210.100556"/><use x="277.151783" xlink:href="#B" y="210.100556"/><use x="282.516534" xlink:href="#E" y="210.100556"/><use x="290.958245" xlink:href="#z" y="210.100556"/><use x="296.562759" xlink:href="#J" y="210.100556"/><use x="301.358172" xlink:href="#A" y="210.100556"/><use x="303.446259" xlink:href="#ai" y="210.100556"/><use x="309.879854" xlink:href="#R" y="210.100556"/><use x="316.593303" xlink:href="#ab" y="210.100556"/><use x="324.115722" xlink:href="#A" y="210.100556"/><use x="326.203709" xlink:href="#H" y="210.100556"/><use x="332.108127" xlink:href="#D" y="210.100556"/><use x="338.012445" xlink:href="#A" y="210.100556"/><use x="340.100432" xlink:href="#ai" y="210.100556"/><use x="346.394425" xlink:href="#H" y="210.100556"/><use x="352.298743" xlink:href="#C" y="210.100556"/><use x="355.165961" xlink:href="#an" y="210.100556"/><use x="360.44057" xlink:href="#X" y="210.100556"/><use x="365.485737" xlink:href="#B" y="210.100556"/><use x="370.850687" xlink:href="#O" y="210.100556"/><use x="375.316026" xlink:href="#af" y="210.100556"/><use x="381.270295" xlink:href="#H" y="210.100556"/><use x="387.174613" xlink:href="#G" y="210.100556"/><use x="393.07893" xlink:href="#B" y="210.100556"/><use x="398.433591" xlink:href="#N" y="210.100556"/><use x="402.499824" xlink:href="#z" y="210.100556"/><use x="408.104338" xlink:href="#A" y="210.100556"/><use x="410.192426" xlink:href="#K" y="210.100556"/><use x="415.796939" xlink:href="#N" y="210.100556"/><use x="419.852783" xlink:href="#B" y="210.100556"/><use x="425.217634" xlink:href="#G" y="210.100556"/><use x="431.122051" xlink:href="#X" y="210.100556"/><use x="436.167218" xlink:href="#ag" y="210.100556"/><use x="442.071535" xlink:href="#z" y="210.100556"/><use x="447.676049" xlink:href="#J" y="210.100556"/><use x="452.471263" xlink:href="#A" y="210.100556"/><use x="454.55935" xlink:href="#z" y="210.100556"/><use x="460.138579" xlink:href="#N" y="210.100556"/><use x="464.194423" xlink:href="#A" y="210.100556"/><use x="466.28251" xlink:href="#B" y="210.100556"/><use x="471.647361" xlink:href="#O" y="210.100556"/><use x="476.1128" xlink:href="#N" y="210.100556"/><use x="480.168643" xlink:href="#F" y="210.100556"/><use x="483.045751" xlink:href="#X" y="210.100556"/><use x="488.090818" xlink:href="#D" y="210.100556"/><use x="493.995135" xlink:href="#C" y="210.100556"/><use x="496.862353" xlink:href="#K" y="210.100556"/><use x="502.466867" xlink:href="#z" y="210.100556"/><use x="508.071481" xlink:href="#J" y="210.100556"/><use x="512.866794" xlink:href="#A" y="210.100556"/><use x="514.954881" xlink:href="#aa" y="210.100556"/><use x="520.90915" xlink:href="#D" y="210.100556"/><use x="526.813468" xlink:href="#F" y="210.100556"/><use x="529.690476" xlink:href="#A" y="210.100556"/><use x="531.778563" xlink:href="#Z" y="210.100556"/><use x="535.494942" xlink:href="#C" y="210.100556"/><use x="538.36216" xlink:href="#H" y="210.100556"/><use x="544.266478" xlink:href="#N" y="210.100556"/><use x="548.332511" xlink:href="#N" y="210.100556"/><use x="552.388455" xlink:href="#z" y="210.100556"/><use x="557.992969" xlink:href="#G" y="210.100556"/><use x="563.897386" xlink:href="#N" y="210.100556"/><use x="92.813404" xlink:href="#ac" y="222.088314"/><use x="98.178254" xlink:href="#A" y="222.088314"/><use x="100.605906" xlink:href="#C" y="222.088314"/><use x="103.473224" xlink:href="#B" y="222.088314"/><use x="108.838075" xlink:href="#A" y="222.088314"/><use x="111.265727" xlink:href="#J" y="222.088314"/><use x="116.06104" xlink:href="#D" y="222.088314"/><use x="121.965358" xlink:href="#O" y="222.088314"/><use x="126.430897" xlink:href="#Z" y="222.088314"/><use x="130.147176" xlink:href="#B" y="222.088314"/><use x="135.501836" xlink:href="#X" y="222.088314"/><use x="140.547003" xlink:href="#z" y="222.088314"/><use x="146.151417" xlink:href="#A" y="222.088314"/><use x="148.579268" xlink:href="#I" y="222.088314"/><use x="154.533537" xlink:href="#z" y="222.088314"/><use x="160.138051" xlink:href="#A" y="222.088314"/><use x="162.565703" xlink:href="#C" y="222.088314"/><use x="165.442711" xlink:href="#V" y="222.088314"/><use x="167.490508" xlink:href="#z" y="222.088314"/><use x="173.095022" xlink:href="#B" y="222.088314"/><use x="178.459972" xlink:href="#D" y="222.088314"/><use x="184.36429" xlink:href="#ao" y="222.088314"/><use x="186.831703" xlink:href="#A" y="222.088314"/><use x="189.259355" xlink:href="#O" y="222.088314"/><use x="193.724794" xlink:href="#z" y="222.088314"/><use x="199.329408" xlink:href="#N" y="222.088314"/><use x="203.395441" xlink:href="#z" y="222.088314"/><use x="208.999955" xlink:href="#G" y="222.088314"/><use x="214.904273" xlink:href="#B" y="222.088314"/><use x="220.258934" xlink:href="#G" y="222.088314"/><use x="226.163351" xlink:href="#N" y="222.088314"/><use x="230.229485" xlink:href="#A" y="222.088314"/><use x="232.657137" xlink:href="#D" y="222.088314"/><use x="238.561454" xlink:href="#G" y="222.088314"/><use x="244.465772" xlink:href="#A" y="222.088314"/><use x="246.893424" xlink:href="#ad" y="222.088314"/><use x="252.737801" xlink:href="#H" y="222.088314"/><use x="258.642119" xlink:href="#F" y="222.088314"/><use x="261.509336" xlink:href="#I" y="222.088314"/><use x="267.463605" xlink:href="#J" y="222.088314"/><use x="272.258818" xlink:href="#A" y="222.088314"/><use x="274.68667" xlink:href="#ap" y="222.088314"/><use x="277.543698" xlink:href="#D" y="222.088314"/><use x="283.448015" xlink:href="#J" y="222.088314"/><use x="288.243329" xlink:href="#aa" y="222.088314"/><use x="294.197597" xlink:href="#D" y="222.088314"/><use x="300.102015" xlink:href="#V" y="222.088314"/><use x="302.270033" xlink:href="#ac" y="222.088314"/><use x="307.624694" xlink:href="#A" y="222.088314"/><use x="310.052346" xlink:href="#aq" y="222.088314"/><use x="316.346279" xlink:href="#T" y="222.088314"/><use x="322.625626" xlink:href="#T" y="222.088314"/><use x="328.919659" xlink:href="#ar" y="222.088314"/><use x="334.33446" xlink:href="#Y" y="222.088314"/><use x="339.379477" xlink:href="#A" y="222.088314"/><use x="206.606071" xlink:href="#ab" y="287.227531"/><use x="214.138601" xlink:href="#H" y="287.227531"/><use x="220.042938" xlink:href="#C" y="287.227531"/><use x="222.910276" xlink:href="#H" y="287.227531"/><use x="228.814614" xlink:href="#O" y="287.227531"/><use x="233.279973" xlink:href="#F" y="287.227531"/><use x="236.157001" xlink:href="#J" y="287.227531"/><use x="240.952314" xlink:href="#A" y="287.227531"/><use x="243.379966" xlink:href="#I" y="287.227531"/><use x="249.334334" xlink:href="#D" y="287.227531"/><use x="255.238652" xlink:href="#A" y="287.227531"/><use x="257.656214" xlink:href="#N" y="287.227531"/><use x="261.722248" xlink:href="#B" y="287.227531"/><use x="267.076908" xlink:href="#af" y="287.227531"/><use x="273.031177" xlink:href="#C" y="287.227531"/><use x="275.908285" xlink:href="#F" y="287.227531"/><use x="278.785293" xlink:href="#z" y="287.227531"/><use x="284.389807" xlink:href="#O" y="287.227531"/><use x="288.855246" xlink:href="#A" y="287.227531"/><use x="291.282998" xlink:href="#ai" y="287.227531"/><use x="297.706802" xlink:href="#R" y="287.227531"/><use x="304.430041" xlink:href="#ab" y="287.227531"/></g></svg>