<svg preserveAspectRatio="none" height="901.3803pt" viewBox="0 0 1207.6 901.38" width="1207.6pt" xmlns="http://www.w3.org/2000/svg" xmlns:xlink="http://www.w3.org/1999/xlink"><clipPath><path d="m766.715 748.996h71.949v69.953h-71.949zm0 0"/></clipPath><clipPath><path d="m856.656 747.996h112.926v74.949h-112.926zm0 0"/></clipPath><symbol id="a" overflow="visible"><path d="m1.859-.438h1.938v-6.89c0-.133.004-.274.016-.422l-1.86 1.656c-.043.031-.094.047-.156.047-.063 0-.117-.019-.156-.062l-.172-.25 2.453-2.157h.453v8.078h1.844v.438h-4.36zm0 0"/></symbol><symbol id="b" overflow="visible"><path d="m3.609-8.578c.321 0 .629.047.922.14.289.094.547.243.766.438.226.187.41.43.547.719.133.281.203.609.203.984 0 .324-.055.625-.156.906-.094.274-.227.532-.391.782-.168.25-.367.496-.594.734-.218.242-.449.48-.687.719l-2.656 2.718c.125-.031.253-.054.39-.078.133-.019.274-.031.422-.031h3.656c.063 0 .114.024.157.063.039.043.062.093.062.156v.328h-5.484v-.203c0-.039.007-.082.031-.125.031-.051.062-.094.094-.125l2.89-2.938c.239-.238.457-.472.657-.703.207-.226.382-.457.531-.687.156-.227.273-.461.359-.703.082-.25.125-.516.125-.797 0-.301-.055-.567-.156-.797-.106-.238-.246-.43-.422-.578-.168-.145-.367-.254-.594-.328-.218-.071-.453-.11-.703-.11-.273 0-.523.043-.75.125-.219.086-.418.199-.594.344-.168.148-.308.324-.421.531-.118.199-.2.418-.25.656-.032.137-.11.204-.235.204-.012 0-.023 0-.031 0-.012 0-.024 0-.031 0l-.282-.047c.039-.364.133-.688.282-.969.156-.289.347-.531.578-.719.226-.195.492-.347.797-.453.3-.101.625-.156.968-.156zm0 0"/></symbol><g fill="#231f20"><g><use x="295.615877" xlink:href="#a" y="866.273436"/><use x="302.568777" xlink:href="#a" y="866.273436"/><use x="309.521677" xlink:href="#a" y="866.273436"/></g><g><use x="890.286041" xlink:href="#a" y="866.273436"/><use x="897.23894" xlink:href="#a" y="866.273436"/><use x="904.19184" xlink:href="#b" y="866.273436"/></g></g></svg>