<svg preserveAspectRatio="none" height="901.3803pt" viewBox="0 0 1207.6 901.38" width="1207.6pt" xmlns="http://www.w3.org/2000/svg" xmlns:xlink="http://www.w3.org/1999/xlink"><clipPath><path d="m493.891 85.43h71.953v69.953h-71.953zm0 0"/></clipPath><clipPath><path d="m1088.508 85.43h72.949v69.953h-72.949zm0 0"/></clipPath><symbol id="a" overflow="visible"><path d="m1.859-.438h1.938v-6.89c0-.133.004-.274.016-.422l-1.86 1.656c-.043.031-.094.047-.156.047-.063 0-.117-.019-.156-.062l-.172-.25 2.453-2.157h.453v8.078h1.844v.438h-4.36zm0 0"/></symbol><symbol id="b" overflow="visible"><path d="m3.672-8.578c.32 0 .625.047.906.14.289.086.547.219.766.407.219.179.39.402.515.672.125.261.188.57.188.921 0 .282-.043.532-.125.75-.086.219-.203.415-.359.579-.149.168-.325.308-.532.421-.199.118-.418.204-.656.266.625.117 1.094.356 1.406.719.321.367.485.824.485 1.375 0 .344-.075.668-.219.969-.137.293-.324.546-.563.765-.242.219-.527.391-.859.516-.336.113-.695.172-1.078.172-.492 0-.899-.063-1.219-.188-.312-.133-.574-.304-.781-.515-.211-.207-.375-.438-.5-.688-.117-.258-.211-.519-.281-.781l.234-.094c.051-.019.098-.031.141-.031.039 0 .082.012.125.031.039.024.07.059.093.109l.032.125c.031.075.066.165.109.266.039.106.098.215.172.328.07.117.156.231.25.344.101.117.226.219.375.312.156.086.332.157.531.219.207.055.442.078.703.078.364 0 .68-.054.953-.172.27-.125.493-.281.672-.468.176-.188.313-.395.407-.625.093-.227.14-.446.14-.657 0-.257-.043-.5-.125-.718-.086-.227-.226-.422-.422-.578-.187-.164-.437-.297-.75-.391-.312-.094-.699-.141-1.156-.141v-.422c.363-.007.688-.054.969-.14.281-.094.515-.219.703-.375.187-.156.328-.336.422-.547.094-.219.14-.457.14-.719 0-.301-.054-.562-.156-.781-.094-.219-.226-.398-.39-.547-.168-.144-.368-.25-.594-.312-.219-.071-.449-.11-.688-.11-.273 0-.523.043-.75.125-.218.086-.418.199-.593.344-.168.137-.309.309-.422.516-.118.199-.203.421-.266.671-.031.137-.105.204-.219.204-.031 0-.054 0-.062 0l-.297-.047c.051-.364.148-.688.297-.969.144-.289.332-.531.562-.719.227-.195.492-.347.797-.453.301-.101.625-.156.969-.156zm0 0"/></symbol><symbol id="c" overflow="visible"><path d="m5.141-2.891h1.562v.313c0 .043-.015.078-.047.109-.023.024-.062.031-.125.031h-1.39v2.438h-.516v-2.438h-3.984c-.063 0-.11-.007-.141-.031-.031-.031-.055-.066-.062-.109l-.063-.281 4.266-5.625h.5zm-.516-4.437c0-.07 0-.145 0-.219.008-.07.02-.148.031-.234l-3.656 4.89h3.625zm0 0"/></symbol><symbol id="d" overflow="visible"><path d="m-8.766-8.234h8.766v6.078h-26.203v-9.25c0-1.844.219-3.426.656-4.75.438-1.321 1.043-2.41 1.813-3.266.761-.863 1.668-1.5 2.718-1.906 1.043-.406 2.168-.61 3.375-.61 1.305 0 2.5.211 3.594.625 1.094.418 2.031 1.059 2.813 1.922.773.868 1.375 1.961 1.812 3.282.438 1.324.656 2.89.656 4.703zm-4.578 0v-3.172c0-1.582-.375-2.719-1.125-3.407-.758-.695-1.816-1.046-3.172-1.046-.601 0-1.148.089-1.64.265-.489.18-.91.453-1.266.828-.351.368-.625.828-.812 1.391-.196.555-.297 1.211-.297 1.969v3.172zm0 0"/></symbol><symbol id="e" overflow="visible"><path d="m-13.109-28.016c1.898 0 3.664.328 5.296.985 1.625.648 3.043 1.562 4.25 2.75 1.2 1.187 2.141 2.621 2.829 4.297.679 1.668 1.015 3.523 1.015 5.562 0 2.043-.336 3.902-1.015 5.578-.688 1.68-1.629 3.117-2.829 4.313-1.207 1.187-2.625 2.109-4.25 2.765-1.632.649-3.398.969-5.296.969-1.895 0-3.657-.32-5.282-.969-1.632-.656-3.05-1.578-4.25-2.765-1.195-1.196-2.132-2.633-2.812-4.313-.688-1.676-1.031-3.535-1.031-5.578 0-2.039.343-3.894 1.031-5.562.687-1.676 1.633-3.11 2.828-4.297 1.199-1.188 2.617-2.102 4.25-2.75 1.625-.657 3.383-.985 5.266-.985zm0 6.219c-1.289 0-2.457.168-3.5.5-1.039.336-1.922.82-2.641 1.453-.719.625-1.266 1.399-1.641 2.313-.382.906-.578 1.945-.578 3.109 0 1.18.196 2.227.578 3.141.375.918.922 1.695 1.641 2.328.719.625 1.602 1.105 2.641 1.437 1.043.336 2.211.5 3.5.5 1.304 0 2.476-.164 3.515-.5 1.043-.332 1.922-.812 2.641-1.437.719-.633 1.265-1.41 1.64-2.328.375-.914.563-1.961.563-3.141 0-1.164-.188-2.203-.563-3.109-.375-.914-.921-1.688-1.64-2.313-.719-.633-1.598-1.117-2.641-1.453-1.039-.332-2.211-.5-3.515-.5zm0 0"/></symbol><symbol id="f" overflow="visible"><path d="m-4.859-8.234v-9.719h4.859v15.797h-26.203v-6.078zm0 0"/></symbol><symbol id="g" overflow="visible"/><symbol id="h" overflow="visible"><path d="m0-25.031v6.109h-11.078v10.656h11.078v6.11h-26.203v-6.11h10.953v-10.656h-10.953v-6.109zm0 0"/></symbol><symbol id="i" overflow="visible"><path d="m-4.797-13.063c0-.812-.133-1.535-.406-2.171-.27-.645-.656-1.188-1.156-1.625-.508-.446-1.125-.786-1.844-1.016-.727-.238-1.555-.359-2.485-.359h-15.515v-6.079h15.515c1.618 0 3.094.262 4.438.782 1.336.523 2.492 1.265 3.469 2.234.968.969 1.726 2.152 2.265 3.547.532 1.387.797 2.949.797 4.687 0 1.75-.265 3.325-.797 4.719-.539 1.387-1.297 2.571-2.265 3.547-.977.969-2.133 1.715-3.469 2.234-1.344.512-2.82.766-4.438.766h-15.515v-6.078h15.5c.93 0 1.758-.113 2.484-.344.719-.238 1.336-.578 1.844-1.015.512-.446.902-.989 1.172-1.625.273-.645.406-1.379.406-2.204zm0 0"/></symbol><symbol id="j" overflow="visible"><path d="m-20.875-16.766c.281.188.496.383.641.578.148.2.218.45.218.75 0 .282-.082.586-.25.907-.175.312-.375.672-.593 1.078-.219.398-.411.855-.579 1.375-.175.512-.265 1.094-.265 1.75 0 1.148.246 2 .734 2.562.481.555 1.133.828 1.953.828.532 0 .977-.164 1.328-.5.344-.343.641-.785.891-1.328.25-.539.481-1.16.688-1.859.211-.707.445-1.426.703-2.156.261-.739.57-1.457.922-2.157.343-.695.789-1.316 1.328-1.859.531-.551 1.187-.992 1.968-1.328.774-.332 1.7-.5 2.782-.5 1.218 0 2.355.211 3.406.625 1.055.418 1.977 1.027 2.766 1.828.781.793 1.398 1.777 1.843 2.953.446 1.168.672 2.492.672 3.969 0 .824-.086 1.656-.25 2.5s-.398 1.664-.703 2.453c-.312.793-.676 1.539-1.094 2.234-.414.688-.882 1.293-1.406 1.813l-2.828-1.797c-.219-.133-.391-.32-.516-.562-.132-.239-.203-.493-.203-.766 0-.363.117-.727.344-1.094.219-.363.469-.773.75-1.234.273-.469.523-1 .75-1.594.23-.601.344-1.312.344-2.125 0-1.101-.239-1.957-.719-2.562-.488-.614-1.266-.922-2.328-.922-.602 0-1.098.168-1.485.5-.382.336-.703.777-.953 1.328-.25.543-.468 1.164-.656 1.859-.195.688-.41 1.403-.641 2.141-.238.73-.531 1.445-.875 2.14-.343.688-.789 1.309-1.343 1.86-.563.543-1.258.98-2.094 1.312-.832.336-1.859.5-3.078.5-.977 0-1.938-.195-2.875-.593-.938-.395-1.77-.973-2.5-1.735-.727-.769-1.313-1.711-1.75-2.828-.438-1.113-.656-2.391-.656-3.828 0-.801.062-1.582.187-2.344.125-.758.313-1.484.563-2.172.242-.687.531-1.328.875-1.922.343-.593.73-1.117 1.156-1.578zm0 0"/></symbol><symbol id="k" overflow="visible"><path d="m-26.203-19.031h4.672v10.765h6.125v-8.25h4.484v8.25h6.25v-10.765h4.672v16.875h-26.203zm0 0"/></symbol><symbol id="l" overflow="visible"><path d="m7.25-2.188c.414 0 .785-.035 1.109-.109.321-.07.629-.172.922-.297v-1.984h-1.297c-.187 0-.339-.047-.453-.141-.105-.101-.156-.234-.156-.39v-1.688h4.656v5.531c-.336.25-.683.465-1.047.641-.367.18-.757.324-1.171.437-.407.118-.844.196-1.313.251-.461.05-.953.078-1.484.078-.961 0-1.852-.164-2.672-.5-.813-.344-1.516-.813-2.11-1.407-.593-.593-1.062-1.297-1.406-2.109-.336-.82-.5-1.719-.5-2.688 0-.968.16-1.859.485-2.671.32-.821.785-1.532 1.39-2.125.602-.594 1.332-1.055 2.188-1.391.851-.332 1.804-.5 2.859-.5.539 0 1.051.047 1.531.141.477.093.922.218 1.328.375.407.148.774.328 1.11.546.332.219.633.454.906.704l-.891 1.343c-.086.125-.183.227-.296.297-.118.074-.243.11-.375.11-.188 0-.375-.063-.563-.188-.242-.144-.469-.269-.687-.375-.211-.101-.43-.187-.657-.25-.218-.062-.453-.109-.703-.141-.242-.031-.512-.046-.812-.046-.575 0-1.09.101-1.547.296-.449.2-.836.485-1.156.86-.325.367-.575.805-.75 1.312-.168.512-.25 1.078-.25 1.703 0 .7.093 1.321.281 1.86.195.543.461 1 .797 1.375.343.367.742.648 1.203.844.469.199.976.296 1.531.296zm0 0"/></symbol><symbol id="m" overflow="visible"><path d="m7.516 0c-.262 0-.461-.035-.594-.109-.137-.071-.25-.223-.344-.454l-.187-.5c-.243.2-.469.372-.688.516-.211.149-.433.274-.672.375-.23.106-.476.18-.734.235-.262.05-.547.078-.859.078-.43 0-.821-.055-1.172-.157-.344-.113-.637-.281-.875-.5-.243-.218-.43-.484-.563-.797-.137-.32-.203-.691-.203-1.109 0-.332.082-.672.25-1.016.176-.351.469-.671.875-.953.414-.281.973-.515 1.672-.703.707-.195 1.594-.312 2.656-.344v-.39c0-.539-.117-.93-.344-1.172-.218-.25-.539-.375-.953-.375-.324 0-.593.039-.812.109-.211.075-.399.157-.563.25-.156.086-.312.164-.468.235-.157.074-.344.109-.563.109-.187 0-.352-.047-.484-.141-.137-.093-.246-.207-.328-.343l-.5-.875c.562-.5 1.187-.867 1.875-1.11.687-.238 1.421-.359 2.203-.359.562 0 1.066.094 1.515.281.457.18.844.434 1.157.766.32.324.566.711.734 1.156.164.449.25.938.25 1.469v5.828zm-3.203-1.703c.363 0 .679-.063.953-.188.269-.125.539-.328.812-.609v-1.297c-.555.024-1.012.07-1.375.141-.367.074-.652.168-.859.281-.211.105-.356.227-.438.359-.074.137-.109.289-.109.453 0 .313.082.54.25.672.176.125.43.188.766.188zm0 0"/></symbol><symbol id="n" overflow="visible"><path d="m1.078 0v-9.328h1.735c.164 0 .304.043.421.125.125.074.207.187.25.344l.157.5c.156-.157.316-.301.484-.438.164-.133.348-.25.547-.344.195-.101.406-.179.625-.234.226-.063.476-.094.75-.094.562 0 1.023.149 1.391.438.375.293.656.679.843 1.156.157-.281.344-.52.563-.719.226-.207.472-.375.734-.5.258-.125.535-.219.828-.281.289-.063.582-.094.875-.094.532 0 1 .078 1.407.235.414.156.765.39 1.046.703.282.304.489.672.625 1.109.145.438.219.938.219 1.5v5.922h-2.781v-5.922c0-.969-.414-1.453-1.234-1.453-.387 0-.704.125-.954.375-.242.25-.359.609-.359 1.078v5.922h-2.797v-5.922c0-.531-.105-.906-.312-1.125-.211-.219-.516-.328-.922-.328-.25 0-.492.059-.719.172-.23.117-.445.265-.641.453v6.75zm0 0"/></symbol><symbol id="o" overflow="visible"><path d="m5.078-9.469c.613 0 1.176.102 1.688.297.507.188.945.465 1.312.828.375.367.664.813.875 1.344.207.531.313 1.133.313 1.797 0 .219-.012.398-.032.531-.023.125-.058.231-.109.313-.043.074-.105.125-.187.156-.075.031-.18.047-.313.047h-5.375c.094.773.332 1.336.719 1.687.383.356.879.531 1.484.531.32 0 .598-.035.828-.109.239-.082.446-.172.625-.266.188-.101.352-.191.5-.265.157-.082.317-.125.485-.125.226 0 .398.086.515.25l.797 1c-.281.324-.59.59-.922.797-.336.211-.679.375-1.031.5-.355.117-.711.191-1.062.234-.344.039-.672.063-.985.063-.656 0-1.273-.106-1.844-.313-.574-.219-1.074-.535-1.5-.953-.429-.414-.765-.938-1.015-1.563s-.375-1.347-.375-2.171c0-.625.101-1.211.312-1.766.219-.563.524-1.051.922-1.469.395-.426.875-.758 1.438-1 .57-.25 1.218-.375 1.937-.375zm.047 1.922c-.531 0-.949.152-1.25.453-.305.305-.5.742-.594 1.313h3.485c0-.219-.032-.43-.094-.641-.055-.219-.149-.406-.281-.562-.125-.164-.293-.301-.5-.407-.211-.101-.465-.156-.766-.156zm0 0"/></symbol><symbol id="p" overflow="visible"/><symbol id="q" overflow="visible"><path d="m1.078 0v-13.109h4.828c.895 0 1.66.089 2.297.265.633.168 1.156.403 1.563.703.406.305.695.672.875 1.11.187.437.281.929.281 1.468 0 .293-.043.579-.125.86-.086.273-.219.527-.406.765-.18.243-.407.461-.688.657-.281.187-.621.355-1.015.5.863.211 1.5.554 1.906 1.031.414.469.625 1.07.625 1.797 0 .562-.11 1.086-.328 1.562-.211.481-.524.899-.938 1.25-.418.356-.933.637-1.547.844-.617.199-1.312.297-2.093.297zm3.047-5.563v3.266h2.141c.394 0 .718-.047.968-.141.258-.101.461-.234.61-.39.144-.164.242-.352.297-.563.05-.207.078-.414.078-.625 0-.238-.031-.453-.094-.64-.062-.196-.172-.36-.328-.485-.149-.132-.352-.238-.609-.312-.25-.07-.571-.11-.954-.11zm0-2.031h1.578c.332 0 .633-.019.906-.062.27-.051.5-.133.688-.25.187-.125.328-.289.422-.5.101-.207.156-.473.156-.797 0-.313-.043-.567-.125-.766-.074-.207-.195-.375-.359-.5-.157-.133-.36-.226-.61-.281-.25-.051-.543-.078-.875-.078h-1.781zm0 0"/></symbol><symbol id="r" overflow="visible"><path d="m1.078 0v-9.328h1.656c.133 0 .25.015.344.047.094.023.172.058.235.109.062.055.109.121.14.203.031.086.063.184.094.297l.156.875c.332-.531.711-.945 1.141-1.25.426-.301.89-.453 1.39-.453.426 0 .77.102 1.032.297l-.36 2.047c-.023.136-.07.23-.14.281-.075.043-.172.062-.297.062-.094 0-.215-.007-.36-.031-.136-.031-.308-.047-.515-.047-.731 0-1.309.391-1.735 1.172v5.719zm0 0"/></symbol><symbol id="s" overflow="visible"><path d="m3.953-9.328v9.328h-2.781v-9.328zm.328-2.547c0 .219-.047.43-.14.625-.086.187-.203.359-.36.516-.156.148-.34.261-.547.343-.211.086-.429.125-.656.125-.23 0-.445-.039-.64-.125-.2-.082-.375-.195-.532-.343-.156-.157-.277-.329-.359-.516-.086-.195-.125-.406-.125-.625 0-.227.039-.441.125-.641.082-.195.203-.367.359-.515.157-.157.332-.274.532-.36.195-.082.41-.125.64-.125.227 0 .445.043.656.125.207.086.391.203.547.36.157.148.274.32.36.515.093.2.14.414.14.641zm0 0"/></symbol><symbol id="t" overflow="visible"><path d="m6.781-7.281c-.074.117-.152.199-.234.25-.086.043-.188.062-.313.062s-.257-.023-.39-.078c-.137-.062-.281-.125-.438-.187-.148-.071-.32-.133-.515-.188-.188-.062-.403-.094-.641-.094-.355 0-.633.071-.828.203-.188.137-.281.325-.281.563 0 .18.062.324.187.437.125.118.285.219.485.313.207.086.441.168.703.25.257.074.519.156.781.25.269.094.535.211.797.344.258.125.488.281.687.468.207.188.375.418.5.688.125.273.188.594.188.969 0 .461-.09.886-.266 1.281-.168.387-.418.719-.75 1-.324.281-.73.5-1.219.656-.492.157-1.054.235-1.687.235-.324 0-.649-.032-.969-.094-.312-.051-.621-.129-.922-.235-.293-.101-.562-.222-.812-.359-.25-.144-.465-.297-.641-.453l.641-1.031c.082-.125.176-.219.281-.282.102-.07.242-.109.422-.109.164 0 .312.039.437.109.125.075.258.153.407.235.156.086.332.164.531.234.207.074.461.11.766.11.218 0 .398-.02.546-.063.145-.051.266-.113.36-.187.094-.082.16-.172.203-.266.039-.094.062-.191.062-.297 0-.187-.062-.336-.187-.453-.125-.125-.293-.227-.5-.313-.211-.082-.445-.16-.703-.234-.262-.082-.528-.172-.797-.266-.262-.093-.524-.207-.781-.343-.262-.133-.496-.305-.703-.516-.211-.207-.375-.457-.5-.75-.125-.301-.188-.664-.188-1.094 0-.394.078-.769.234-1.125.157-.363.383-.679.688-.953.301-.269.68-.484 1.141-.64.468-.157 1.007-.235 1.625-.235.332 0 .656.031.968.094.321.062.617.148.891.25.281.105.535.23.766.375.226.148.425.309.593.484zm0 0"/></symbol><symbol id="u" overflow="visible"><path d="m.906-6.594h4.844v2.25h-4.844zm0 0"/></symbol><symbol id="v" overflow="visible"><path d="m8.375-10.438c-.086.149-.18.258-.281.329-.094.062-.219.093-.375.093-.137 0-.289-.039-.453-.125-.157-.082-.34-.175-.547-.281-.199-.113-.43-.211-.688-.297-.25-.094-.543-.14-.875-.14-.562 0-.984.125-1.265.375-.282.242-.422.57-.422.984 0 .262.082.48.25.656.164.168.383.321.656.453.281.125.594.243.938.344.351.106.71.219 1.078.344.363.125.722.277 1.078.453.351.18.664.402.937.672.27.273.489.601.657.984.164.387.25.852.25 1.391 0 .605-.106 1.172-.313 1.703-.211.531-.516.996-.922 1.391-.398.386-.887.695-1.469.921-.586.219-1.246.329-1.984.329-.406 0-.824-.043-1.25-.125-.418-.082-.824-.196-1.219-.344-.398-.156-.773-.336-1.125-.547-.343-.219-.648-.453-.906-.703l.906-1.422c.063-.113.149-.203.266-.266.125-.062.254-.093.391-.093.175 0 .359.058.546.171.188.118.395.243.625.375.227.137.489.262.782.375.3.118.66.172 1.078.172.551 0 .976-.117 1.281-.359.301-.25.453-.633.453-1.156 0-.313-.086-.563-.25-.75-.168-.188-.387-.344-.656-.469-.274-.133-.586-.25-.938-.344-.343-.094-.699-.195-1.062-.312-.367-.114-.727-.254-1.078-.422-.344-.176-.653-.406-.922-.688-.274-.281-.496-.629-.672-1.047-.168-.414-.25-.929-.25-1.546 0-.489.098-.961.297-1.422.195-.469.488-.883.875-1.25.383-.375.851-.672 1.406-.891.563-.219 1.203-.328 1.922-.328.406 0 .797.031 1.172.094.383.062.742.156 1.078.281.344.125.66.277.953.453.301.168.57.356.813.563zm0 0"/></symbol><symbol id="w" overflow="visible"><path d="m5.234-9.469c.707 0 1.348.117 1.922.344.582.219 1.082.539 1.5.953.414.406.739.906.969 1.5.238.586.359 1.246.359 1.984 0 .75-.121 1.422-.359 2.016-.23.594-.555 1.102-.969 1.516-.418.418-.918.742-1.5.968-.574.219-1.215.329-1.922.329-.718 0-1.371-.11-1.953-.329-.586-.226-1.09-.55-1.515-.968-.418-.414-.743-.922-.969-1.516-.231-.594-.344-1.266-.344-2.016 0-.738.113-1.398.344-1.984.226-.594.551-1.094.969-1.5.425-.414.929-.734 1.515-.953.582-.227 1.235-.344 1.953-.344zm0 7.547c.645 0 1.118-.223 1.422-.672.301-.457.453-1.148.453-2.078 0-.914-.152-1.598-.453-2.047-.304-.457-.777-.687-1.422-.687-.656 0-1.14.23-1.453.687-.304.449-.453 1.133-.453 2.047 0 .93.149 1.621.453 2.078.313.449.797.672 1.453.672zm0 0"/></symbol><symbol id="x" overflow="visible"><path d="m3.953-13.469v13.469h-2.781v-13.469zm0 0"/></symbol><symbol id="y" overflow="visible"><path d="m10.594-13.109v2.421h-3.688v10.688h-3.047v-10.688h-3.671v-2.421zm0 0"/></symbol><symbol id="z" overflow="visible"><path d="m4.359.141c-.449 0-.843-.063-1.187-.188-.336-.133-.617-.316-.844-.547-.23-.238-.406-.523-.531-.859-.117-.332-.172-.707-.172-1.125v-4.828h-.797c-.148 0-.273-.039-.375-.125-.094-.094-.14-.235-.14-.422v-1.078l1.484-.297.547-2.266c.07-.289.273-.437.609-.437h1.453v2.718h2.266v1.907h-2.266v4.64c0 .211.051.387.157.532.101.148.253.218.453.218.101 0 .187-.007.25-.031.07-.031.132-.055.187-.078.051-.031.098-.055.141-.078.051-.02.101-.031.156-.031.082 0 .148.023.203.062.051.043.102.106.156.188l.844 1.312c-.355.274-.758.477-1.203.609-.449.133-.914.204-1.391.204zm0 0"/></symbol><symbol id="A" overflow="visible"><path d="m1.813-3.125.062 3.125h-.562l-.141-7.766h2.016c.906 0 1.593.2 2.062.594.477.399.723.965.734 1.703 0 .344-.062.664-.187.953-.117.282-.293.528-.531.735-.231.199-.516.359-.86.484-.336.117-.715.172-1.14.172zm0-.453h1.453c.343 0 .648-.047.922-.141.269-.094.492-.222.671-.39.188-.176.329-.379.422-.61.094-.226.141-.476.141-.75-.012-.594-.203-1.051-.578-1.375-.367-.32-.914-.484-1.641-.484h-1.453zm0 0"/></symbol><symbol id="B" overflow="visible"><path d="m8.016-3.891c.007.606-.075 1.153-.25 1.641-.168.492-.414.906-.735 1.25-.324.344-.711.609-1.156.797-.449.187-.949.281-1.5.281-.543 0-1.043-.094-1.5-.281-.461-.188-.855-.453-1.187-.797-.336-.344-.594-.758-.782-1.25-.187-.488-.289-1.035-.297-1.641-.011-.593.067-1.132.235-1.625.176-.488.426-.906.75-1.25.32-.343.707-.609 1.156-.797.445-.195.941-.296 1.484-.296.551 0 1.055.093 1.516.281.457.187.852.461 1.188.812.332.344.593.762.781 1.25.187.493.285 1.032.297 1.625zm-.578 0c-.012-.539-.102-1.023-.266-1.453-.156-.437-.375-.801-.656-1.094-.274-.3-.602-.531-.985-.687-.386-.164-.812-.25-1.281-.25-.461 0-.883.086-1.266.25-.386.156-.714.387-.984.687-.273.293-.48.657-.625 1.094-.137.43-.199.914-.187 1.453.007.555.093 1.043.25 1.469.156.43.375.793.656 1.094.281.305.613.531 1 .687.394.157.82.235 1.281.235.469 0 .891-.078 1.266-.235.382-.156.707-.382.968-.687.27-.301.477-.664.625-1.094.145-.426.211-.914.204-1.469zm0 0"/></symbol><symbol id="C" overflow="visible"><path d="m1.703-.484h3.688l.015.484h-4.25l-.14-7.766h.562zm0 0"/></symbol><symbol id="D" overflow="visible"/><symbol id="E" overflow="visible"><path d="m7.156 0h-.578l-.062-3.719h-4.86l.063 3.719h-.563l-.14-7.766h.562l.063 3.625h4.859l-.062-3.625h.578zm0 0"/></symbol><symbol id="F" overflow="visible"><path d="m4.031-.406c.375 0 .703-.063.985-.188.289-.133.535-.316.734-.547.195-.226.348-.5.453-.812.102-.313.156-.649.156-1.016l-.093-4.797h.562l.094 4.797c0 .43-.063.828-.188 1.203s-.312.703-.562.985c-.25.273-.559.484-.922.64-.367.157-.773.235-1.219.235-.461 0-.871-.078-1.234-.235-.367-.156-.68-.367-.938-.64-.261-.282-.464-.61-.609-.985-.148-.375-.219-.773-.219-1.203l-.093-4.797h.562l.094 4.797c0 .367.054.703.172 1.016.113.312.273.586.484.812.207.231.461.414.766.547.3.125.64.188 1.015.188zm0 0"/></symbol><symbol id="G" overflow="visible"><path d="m4.781-6.828c-.031.062-.078.094-.14.094-.043 0-.106-.032-.188-.094-.074-.07-.172-.149-.297-.235-.125-.082-.289-.156-.484-.218-.188-.071-.422-.11-.703-.11-.293 0-.547.043-.766.125-.211.075-.387.184-.531.328-.137.137-.242.297-.313.485-.074.18-.109.371-.109.578.008.262.07.48.188.656.113.168.265.313.453.438.187.117.394.215.625.297.226.086.468.168.718.25.25.074.489.164.719.265.238.094.445.215.625.36.188.148.336.328.453.546.125.211.188.477.188.797.008.325-.043.633-.156.922-.106.281-.262.531-.469.75-.199.211-.453.375-.766.5-.312.125-.664.188-1.047.188-.523 0-.968-.09-1.343-.266-.375-.187-.7-.437-.969-.75l.14-.25c.051-.051.102-.078.157-.078.031 0 .07.023.125.062.05.043.113.102.187.172.07.063.16.133.266.203.101.075.222.141.359.204.133.062.289.121.469.171.187.043.391.063.609.063.313 0 .582-.047.813-.141.238-.093.441-.218.609-.375.164-.164.289-.359.375-.578.082-.226.125-.469.125-.719-.012-.269-.074-.492-.187-.671-.118-.176-.266-.321-.453-.438-.188-.125-.399-.226-.625-.312-.231-.082-.469-.161-.719-.235-.242-.07-.481-.156-.719-.25-.242-.101-.453-.226-.641-.375-.179-.144-.328-.328-.453-.547-.117-.226-.179-.507-.187-.843 0-.258.047-.508.14-.75.094-.239.235-.454.422-.641.196-.188.43-.332.703-.438.282-.113.598-.171.954-.171.406 0 .769.07 1.093.203.321.125.617.32.891.578zm0 0"/></symbol><symbol id="H" overflow="visible"><path d="m5.672-7.766.016.469h-4.094l.047 3.141h3.406l.016.453h-3.407l.047 3.234h4.094l.016.469h-4.657l-.14-7.766zm0 0"/></symbol><symbol id="I" overflow="visible"><path d="m.922 1.938-.125-7.407h.281c.051 0 .086.012.11.031.031.024.05.059.062.11l.063.844c.226-.321.503-.582.828-.782.32-.195.687-.297 1.093-.297.676 0 1.204.235 1.579.704.375.468.57 1.168.593 2.093.008.399-.039.774-.14 1.125-.094.344-.243.641-.438.891-.187.25-.433.453-.734.609-.293.145-.633.219-1.016.219-.375 0-.699-.07-.969-.203-.273-.133-.511-.336-.718-.609l.047 2.672zm2.172-7.079c-.367 0-.696.102-.985.297-.293.188-.554.449-.781.781l.063 2.86c.207.324.441.547.703.672.258.125.554.187.89.187.313 0 .586-.054.829-.172.238-.113.437-.273.593-.484.164-.219.285-.477.36-.781.07-.301.109-.629.109-.985-.012-.812-.172-1.41-.484-1.797-.305-.382-.735-.578-1.297-.578zm0 0"/></symbol><symbol id="J" overflow="visible"><path d="m2.875-5.547c.395 0 .742.07 1.047.203.312.125.578.313.797.563.219.242.383.539.5.89.113.344.176.731.187 1.157.008.429-.039.812-.14 1.156-.106.344-.262.64-.469.89-.211.243-.469.43-.781.563-.305.133-.653.203-1.047.203-.387 0-.735-.07-1.047-.203-.313-.133-.578-.32-.797-.563-.219-.25-.387-.546-.5-.89-.117-.344-.18-.727-.187-1.156-.012-.426.035-.813.14-1.157.102-.351.258-.648.469-.89.207-.25.469-.438.781-.563.313-.133.66-.203 1.047-.203zm.094 5.203c.32 0 .601-.051.844-.156.238-.113.437-.273.593-.484.164-.207.285-.457.36-.75.082-.301.117-.633.109-1-.012-.364-.062-.692-.156-.985-.086-.301-.211-.554-.375-.765-.156-.207-.36-.368-.61-.485-.25-.113-.539-.172-.859-.172-.324 0-.605.059-.844.172-.242.117-.445.278-.609.485-.156.211-.277.464-.359.765-.075.293-.106.621-.094.985.008.367.054.699.14 1 .094.293.219.543.375.75.164.211.375.371.625.484.25.105.536.156.86.156zm0 0"/></symbol><symbol id="K" overflow="visible"><path d="m1.188-5.469.062 3.5c.008.512.133.914.375 1.203.238.293.598.438 1.078.438.352 0 .68-.086.985-.266.3-.187.57-.441.812-.765l-.062-4.11h.515l.094 5.469h-.281c-.106 0-.157-.047-.157-.141l-.078-.812c-.25.312-.539.57-.859.765-.324.188-.688.282-1.094.282-.312 0-.586-.047-.812-.141-.219-.101-.407-.242-.563-.422-.156-.176-.277-.39-.359-.64-.086-.258-.125-.547-.125-.86l-.063-3.5zm0 0"/></symbol><symbol id="L" overflow="visible"><path d="m.891 0-.094-5.469h.281c.051 0 .094.016.125.047.031.024.047.063.047.125l.063 1.156c.175-.445.406-.797.687-1.047.289-.25.648-.375 1.078-.375.164 0 .317.024.453.063.145.031.282.078.407.141l-.079.359c0 .062-.031.094-.093.094-.024 0-.059-.004-.11-.016-.043-.019-.093-.035-.156-.047-.055-.019-.125-.035-.219-.047-.086-.019-.183-.031-.297-.031-.418 0-.757.133-1.015.391-.262.25-.469.621-.625 1.109l.062 3.547zm0 0"/></symbol><symbol id="M" overflow="visible"><path d="m4.375 0c-.105 0-.172-.051-.203-.156l-.094-.688c-.148.149-.293.278-.437.391-.149.117-.305.215-.469.297-.156.086-.328.148-.516.187-.179.039-.383.063-.609.063-.188 0-.371-.031-.547-.094-.18-.051-.336-.133-.469-.25-.136-.113-.246-.258-.328-.438-.086-.175-.125-.39-.125-.64-.012-.227.047-.442.172-.641.125-.195.328-.367.609-.515.282-.145.641-.258 1.079-.344.437-.094.968-.145 1.593-.156l-.015-.579c-.012-.5-.133-.882-.36-1.156-.218-.281-.543-.422-.968-.422-.262 0-.485.039-.672.11-.188.074-.344.156-.469.25-.125.086-.231.164-.313.234-.074.074-.136.109-.187.109-.074 0-.133-.031-.172-.093l-.094-.157c.282-.289.578-.507.891-.656.312-.144.664-.219 1.062-.219.289 0 .547.047.766.141.227.094.414.231.563.406.144.18.257.391.343.641.082.242.125.512.125.812l.063 3.563zm-2.187-.297c.207 0 .398-.019.578-.062.175-.039.336-.102.484-.188.145-.082.285-.18.422-.297.133-.113.266-.238.391-.375l-.032-1.422c-.523.024-.968.063-1.343.125-.375.063-.684.153-.922.266-.243.105-.418.234-.532.391-.117.148-.171.32-.171.515.007.18.046.336.109.469.062.137.144.25.25.344.101.086.219.148.344.187.132.031.273.047.422.047zm0 0"/></symbol><symbol id="N" overflow="visible"><path d="m2.391.094c-.375 0-.672-.102-.891-.313-.211-.207-.312-.523-.312-.953l-.063-3.734h-.781c-.043 0-.078-.008-.11-.032-.031-.019-.046-.05-.046-.093v-.203l.937-.063.094-1.953c.008-.031.023-.055.047-.078.019-.031.05-.047.093-.047h.25l.032 2.078h1.718l.016.391h-1.719l.063 3.703c0 .156.015.293.047.406.039.106.097.195.172.266.07.062.156.109.25.14.093.032.191.047.296.047.133 0 .243-.015.329-.047.093-.039.175-.082.25-.125.07-.05.128-.093.171-.125.039-.039.071-.062.094-.062.031 0 .063.015.094.047l.156.234c-.137.156-.312.281-.531.375-.211.094-.43.141-.656.141zm0 0"/></symbol><symbol id="O" overflow="visible"><path d="m1.469-5.469.094 5.469h-.516l-.094-5.469zm.203-1.875c0 .063-.016.125-.047.188-.023.054-.059.101-.109.14-.043.043-.094.078-.157.11-.054.023-.109.031-.171.031-.075 0-.141-.008-.204-.031-.054-.032-.101-.067-.14-.11-.043-.039-.078-.086-.11-.14-.023-.063-.031-.125-.031-.188 0-.07.008-.133.031-.187.02-.063.051-.114.094-.157.039-.05.086-.085.141-.109.062-.031.129-.047.203-.047.062 0 .117.016.172.047.062.024.113.059.156.109.051.043.094.094.125.157.031.054.047.117.047.187zm0 0"/></symbol><symbol id="P" overflow="visible"><path d="m4.406-4.734c-.023.023-.043.039-.062.046-.012.012-.031.016-.063.016-.031 0-.078-.019-.14-.062-.063-.051-.153-.11-.266-.172-.117-.063-.25-.114-.406-.157-.156-.05-.352-.078-.578-.078-.313 0-.59.059-.828.172-.243.106-.446.266-.61.485-.168.211-.293.461-.375.75-.086.293-.121.625-.109 1 .008.386.062.73.156 1.031.094.293.223.543.391.75.164.199.367.351.609.453.238.105.5.156.781.156.27 0 .489-.031.657-.094.175-.062.32-.128.437-.203.113-.07.203-.14.266-.203.07-.062.129-.094.172-.094.039 0 .078.024.109.063l.141.172c-.086.117-.188.219-.313.312-.125.094-.273.18-.437.25-.157.063-.329.118-.516.157-.188.039-.387.062-.594.062-.344 0-.664-.062-.953-.187-.281-.133-.531-.321-.75-.563-.211-.238-.375-.531-.5-.875-.117-.351-.18-.75-.187-1.187-.012-.414.035-.797.14-1.141.102-.344.254-.641.453-.891.207-.25.461-.441.766-.578.312-.133.664-.203 1.062-.203.352 0 .664.059.938.172.281.105.523.258.734.453zm0 0"/></symbol><symbol id="Q" overflow="visible"><path d="m1.422-7.984.141 7.984h-.516l-.141-7.984zm0 0"/></symbol><symbol id="R" overflow="visible"><path d="m2.859-5.547c.301 0 .582.055.844.156.27.106.5.262.688.469.195.199.351.449.468.75.114.293.172.633.172 1.016.008.086.004.14-.015.172-.024.023-.059.031-.11.031h-3.953v.109c0 .406.051.766.156 1.078.102.313.243.575.422.782.176.211.391.371.641.484.258.105.539.156.844.156.281 0 .515-.031.703-.094.195-.062.363-.128.5-.203.144-.07.254-.14.328-.203.082-.062.144-.094.187-.094.039 0 .079.024.11.063l.14.172c-.093.117-.211.219-.343.312-.137.094-.293.18-.469.25-.18.063-.371.118-.578.157-.199.039-.403.062-.61.062-.375 0-.718-.062-1.031-.187-.305-.133-.57-.329-.797-.579-.218-.25-.39-.55-.515-.906-.125-.363-.196-.781-.203-1.25-.012-.394.035-.754.14-1.078.102-.332.258-.617.469-.859.207-.239.461-.426.766-.563.3-.133.648-.203 1.046-.203zm0 .391c-.281 0-.531.043-.75.125-.218.086-.414.211-.578.375-.156.168-.281.367-.375.593-.093.231-.164.493-.203.782h3.61c0-.289-.047-.551-.141-.782-.086-.238-.199-.437-.344-.593-.148-.164-.324-.289-.531-.375-.211-.082-.438-.125-.688-.125zm0 0"/></symbol><symbol id="S" overflow="visible"><path d="m3.828-4.797c-.031.055-.074.078-.125.078-.043 0-.094-.019-.156-.062-.063-.039-.152-.086-.266-.141-.105-.062-.234-.113-.39-.156-.157-.051-.344-.078-.563-.078-.199 0-.383.031-.547.093-.156.055-.293.125-.406.219-.105.094-.187.203-.25.328-.062.125-.094.262-.094.407.008.168.055.308.141.421.094.118.207.215.344.297.144.086.312.157.5.219.187.055.375.109.562.172.188.055.367.117.547.187.188.075.352.165.5.266.145.106.258.234.344.391.094.156.14.343.14.562.008.242-.027.465-.109.672-.086.199-.203.375-.359.531-.157.149-.356.266-.594.36-.242.082-.512.125-.813.125-.386 0-.718-.063-1-.188-.281-.125-.539-.285-.765-.484l.125-.188c.019-.031.039-.05.062-.062.02-.008.051-.016.094-.016.051 0 .109.031.172.094.07.055.164.117.281.187.113.063.254.125.422.188.176.055.383.078.625.078.227 0 .426-.031.594-.094.176-.062.32-.144.437-.25.125-.113.211-.242.266-.39.062-.157.086-.317.078-.485 0-.175-.047-.32-.141-.437-.086-.125-.199-.227-.343-.313-.149-.093-.313-.164-.5-.218-.18-.063-.368-.118-.563-.172-.187-.063-.375-.125-.562-.188-.18-.07-.34-.16-.485-.265-.148-.114-.265-.243-.359-.391-.086-.156-.133-.348-.141-.578 0-.188.039-.367.125-.547.082-.188.196-.348.344-.484.156-.133.344-.239.563-.313.226-.082.484-.125.765-.125.332 0 .625.047.875.141.258.093.5.242.719.437zm0 0"/></symbol><symbol id="T" overflow="visible"><path d="m1.094 0-.078-4.891-.782-.047c-.105-.007-.156-.054-.156-.14v-.219h.922l-.016-.687c0-.313.036-.582.11-.813.07-.238.179-.437.328-.594.144-.164.316-.285.516-.359.207-.082.437-.125.687-.125.113 0 .227.012.344.031.113.024.219.055.312.094v.25c-.011.055-.047.078-.109.078-.043 0-.106-.004-.188-.016-.074-.007-.164-.015-.265-.015-.18 0-.344.027-.5.078-.156.055-.293.137-.406.25-.106.117-.184.273-.235.469-.055.187-.078.418-.078.687l.016.672h1.765l.016.391h-1.766l.078 4.906zm0 0"/></symbol><symbol id="U" overflow="visible"><path d="m.891 0-.094-5.469h.281c.094 0 .149.047.172.141l.063.828c.238-.313.519-.563.843-.75.332-.195.703-.297 1.11-.297.3 0 .566.047.797.141.226.093.421.23.578.406.156.18.273.398.359.656.082.25.125.531.125.844l.063 3.5h-.532l-.062-3.5c-.012-.508-.137-.91-.375-1.203-.242-.289-.602-.438-1.078-.438-.356 0-.684.094-.985.282-.304.187-.578.445-.828.765l.078 4.094zm0 0"/></symbol><symbol id="V" overflow="visible"><path d="m.594-.469c0-.125.039-.234.125-.328.094-.094.207-.141.344-.141.156 0 .273.059.359.172.094.106.144.246.156.422 0 .149-.023.297-.062.453-.043.157-.102.305-.172.454-.063.156-.149.3-.25.437-.094.145-.199.273-.313.391l-.093-.078c-.032-.032-.047-.063-.047-.094 0-.024.004-.043.015-.063.008-.023.02-.039.032-.047.039-.043.085-.101.14-.171.063-.063.117-.149.172-.25.063-.094.109-.2.141-.313.039-.117.07-.242.093-.375-.023.008-.046.016-.078.016-.031 0-.062 0-.093 0-.137 0-.247-.039-.329-.125-.086-.094-.132-.211-.14-.36zm0 0"/></symbol><symbol id="W" overflow="visible"><path d="m1.703-.406h1.781l-.125-6.313c0-.113.004-.242.016-.39l-1.687 1.531c-.032.031-.075.047-.125.047-.063 0-.11-.024-.141-.078l-.188-.219 2.219-1.969h.406l.141 7.391h1.703v.406h-4zm0 0"/></symbol><symbol id="X" overflow="visible"><path d="m5.906-3.891c.008.688-.058 1.282-.203 1.782-.137.492-.328.902-.578 1.234-.242.324-.531.562-.875.719-.336.156-.687.234-1.062.234-.387 0-.75-.078-1.094-.234-.336-.157-.637-.395-.906-.719-.262-.332-.465-.742-.61-1.234-.148-.5-.226-1.094-.234-1.782-.012-.675.047-1.265.172-1.765.132-.5.328-.91.578-1.235.25-.32.539-.562.875-.718.332-.164.691-.25 1.078-.25.375 0 .734.086 1.078.25.344.156.645.398.906.718.258.325.469.735.625 1.235.157.5.239 1.09.25 1.765zm-.547 0c-.011-.625-.086-1.16-.218-1.609-.125-.445-.293-.813-.5-1.094-.211-.289-.453-.5-.735-.625-.273-.133-.554-.203-.843-.203-.305 0-.59.07-.86.203-.273.125-.512.336-.719.625-.199.281-.355.649-.468 1.094-.106.449-.153.984-.141 1.609.008.637.078 1.18.203 1.625.125.438.289.805.5 1.094.219.281.461.492.735.625.281.125.57.188.875.188.289 0 .57-.063.843-.188.27-.133.504-.344.703-.625.196-.289.352-.656.469-1.094.113-.445.164-.988.156-1.625zm0 0"/></symbol><symbol id="Y" overflow="visible"><path d="m3.641-5.906c.007.324-.028.605-.11.843-.086.243-.203.446-.359.61-.149.156-.32.277-.516.359-.187.086-.39.125-.609.125-.231 0-.449-.039-.656-.125-.2-.082-.371-.203-.516-.359-.148-.164-.266-.367-.359-.61-.086-.238-.133-.519-.141-.843 0-.321.035-.602.109-.844.082-.25.192-.453.329-.609.144-.164.316-.289.515-.375.195-.082.41-.125.641-.125.226 0 .441.043.64.125.196.086.368.211.516.375.156.156.281.359.375.609.094.242.141.523.141.844zm-.422 0c0-.282-.039-.52-.11-.719-.062-.207-.152-.375-.265-.5-.117-.133-.246-.227-.391-.281-.148-.063-.305-.094-.469-.094-.168 0-.324.031-.468.094-.149.054-.278.148-.391.281-.105.125-.187.293-.25.5-.055.199-.078.437-.078.719.008.281.047.527.109.734.071.199.16.359.266.484.113.125.242.219.391.282.144.062.3.093.468.093.164 0 .321-.031.469-.093.145-.063.273-.157.391-.282.113-.125.195-.285.25-.484.062-.207.086-.453.078-.734zm3.328-1.766c.031-.031.062-.051.094-.062.031-.02.066-.032.109-.032h.375l-5.437 7.672c-.055.063-.118.094-.188.094h-.375zm1.359 5.828c0 .313-.043.594-.125.844-.086.242-.199.445-.343.609-.137.157-.305.278-.5.36-.2.082-.407.125-.625.125-.231 0-.446-.043-.641-.125-.199-.082-.375-.203-.531-.36-.149-.164-.266-.367-.36-.609-.093-.25-.14-.531-.14-.844-.012-.32.023-.601.109-.844.094-.25.207-.453.344-.609.144-.164.316-.289.515-.375.196-.082.411-.125.641-.125.227 0 .441.043.641.125.195.086.367.211.515.375.157.156.274.359.36.609.082.243.129.524.14.844zm-.406 0c-.012-.281-.055-.519-.125-.719-.062-.207-.152-.375-.266-.5-.117-.132-.246-.234-.39-.296-.149-.063-.305-.094-.469-.094-.168 0-.324.031-.469.094-.148.062-.277.164-.39.296-.106.125-.188.293-.25.5-.063.2-.09.438-.078.719 0 .281.031.524.093.719.071.199.164.367.282.5.125.125.257.219.406.281.144.055.301.078.469.078.164 0 .32-.023.468-.078.145-.062.27-.156.375-.281.102-.133.188-.301.25-.5.063-.195.094-.438.094-.719zm0 0"/></symbol><symbol id="Z" overflow="visible"><path d="m.484-3.484h2.563l.016.453h-2.563zm0 0"/></symbol><symbol id="aa" overflow="visible"><path d="m.891 0-.094-5.469h.281c.094 0 .149.047.172.141l.063.797c.101-.157.21-.297.328-.422.113-.125.238-.227.375-.313.144-.093.297-.16.453-.203.156-.051.316-.078.484-.078.395 0 .711.117.953.344.25.23.414.555.5.969.071-.227.16-.422.266-.579.113-.164.25-.3.406-.406.156-.113.32-.195.5-.25.188-.051.375-.078.563-.078.269 0 .507.047.718.141.219.086.407.215.563.39.164.18.289.399.375.657.082.25.125.539.125.859l.062 3.5h-.531l-.062-3.5c-.012-.531-.137-.938-.375-1.219-.231-.281-.559-.422-.985-.422-.187 0-.371.039-.547.11-.179.074-.328.179-.453.312-.125.137-.23.309-.312.516-.074.199-.11.433-.11.703l.063 3.5h-.516l-.062-3.5c-.012-.531-.125-.938-.344-1.219s-.531-.422-.937-.422c-.293 0-.563.09-.813.266-.25.18-.477.43-.672.75l.078 4.125zm0 0"/></symbol><symbol id="ab" overflow="visible"><path d="m1.172-8.109c.082.136.144.277.187.421.039.137.063.274.063.407 0 .281-.07.558-.203.828-.137.262-.309.5-.516.719l-.172-.11c-.023-.019-.031-.047-.031-.078 0-.019.008-.039.031-.062.133-.188.242-.375.328-.563.094-.187.141-.379.141-.578 0-.207-.074-.422-.219-.641-.011-.031-.015-.062-.015-.093 0-.051.023-.086.078-.11zm0 0"/></symbol><symbol id="ac" overflow="visible"><path d="m4.766 0c-.094 0-.149-.047-.157-.141l-.078-.859c-.242.324-.523.586-.843.781-.313.199-.672.297-1.079.297-.668 0-1.195-.234-1.578-.703-.375-.469-.574-1.164-.593-2.094-.012-.394.031-.765.125-1.109.101-.352.253-.656.453-.906.195-.258.441-.461.734-.61.289-.144.629-.219 1.016-.219.375 0 .695.075.968.219.27.137.508.336.719.594l-.062-3.234h.515l.141 7.984zm-2.016-.344c.363 0 .688-.094.969-.281.289-.188.551-.445.781-.781l-.047-2.891c-.219-.312-.461-.531-.719-.656-.261-.125-.554-.188-.875-.188-.312 0-.589.059-.828.172-.242.117-.445.281-.609.5-.156.211-.277.465-.359.766-.075.305-.106.633-.094.984.008.813.172 1.414.484 1.797.313.387.742.578 1.297.578zm0 0"/></symbol><symbol id="ad" overflow="visible"><path d="m4.375 0c-.105 0-.172-.051-.203-.156l-.094-.688c-.148.149-.293.278-.437.391-.149.117-.305.215-.469.297-.156.086-.328.148-.516.187-.179.039-.383.063-.609.063-.188 0-.371-.031-.547-.094-.18-.051-.336-.133-.469-.25-.136-.113-.246-.258-.328-.438-.086-.175-.125-.39-.125-.64-.012-.227.047-.442.172-.641.125-.195.328-.367.609-.515.282-.145.641-.258 1.079-.344.437-.094.968-.145 1.593-.156l-.015-.579c-.012-.5-.133-.882-.36-1.156-.218-.281-.543-.422-.968-.422-.262 0-.485.039-.672.11-.188.074-.344.156-.469.25-.125.086-.231.164-.313.234-.074.074-.136.109-.187.109-.074 0-.133-.031-.172-.093l-.094-.157c.282-.289.578-.507.891-.656.312-.144.664-.219 1.062-.219.289 0 .547.047.766.141.227.094.414.231.563.406.144.18.257.391.343.641.082.242.125.512.125.812l.063 3.563zm-2.187-.297c.207 0 .398-.019.578-.062.175-.039.336-.102.484-.188.145-.082.285-.18.422-.297.133-.113.266-.238.391-.375l-.032-1.422c-.523.024-.968.063-1.343.125-.375.063-.684.153-.922.266-.243.105-.418.234-.532.391-.117.148-.171.32-.171.515.007.18.046.336.109.469.062.137.144.25.25.344.101.086.219.148.344.187.132.031.273.047.422.047zm-.172-7.562c.082 0 .144.015.187.046.039.024.082.063.125.125l.891 1.313h-.281c-.055 0-.094-.004-.125-.016-.032-.019-.059-.047-.079-.078l-1.234-1.39zm0 0"/></symbol><symbol id="ae" overflow="visible"><path d="m4.406-4.734c-.023.023-.043.039-.062.046-.012.012-.031.016-.063.016-.031 0-.078-.019-.14-.062-.063-.051-.153-.11-.266-.172-.117-.063-.25-.114-.406-.157-.156-.05-.352-.078-.578-.078-.313 0-.59.059-.828.172-.243.106-.446.266-.61.485-.168.211-.293.461-.375.75-.086.293-.121.625-.109 1 .008.386.062.73.156 1.031.094.293.223.543.391.75.164.199.367.351.609.453.238.105.5.156.781.156.27 0 .489-.031.657-.094.175-.062.32-.128.437-.203.113-.07.203-.14.266-.203.07-.062.129-.094.172-.094.039 0 .078.024.109.063l.141.172c-.086.117-.188.219-.313.312-.125.094-.273.18-.437.25-.157.063-.329.118-.516.157-.188.039-.387.062-.594.062-.344 0-.664-.062-.953-.187-.281-.133-.531-.321-.75-.563-.211-.238-.375-.531-.5-.875-.117-.351-.18-.75-.187-1.187-.012-.414.035-.797.14-1.141.102-.344.254-.641.453-.891.207-.25.461-.441.766-.578.312-.133.664-.203 1.062-.203.352 0 .664.059.938.172.281.105.523.258.734.453zm0 0"/></symbol><symbol id="af" overflow="visible"><path d="m2.875-5.547c.395 0 .742.07 1.047.203.312.125.578.313.797.563.219.242.383.539.5.89.113.344.176.731.187 1.157.008.429-.039.812-.14 1.156-.106.344-.262.64-.469.89-.211.243-.469.43-.781.563-.305.133-.653.203-1.047.203-.387 0-.735-.07-1.047-.203-.313-.133-.578-.32-.797-.563-.219-.25-.387-.546-.5-.89-.117-.344-.18-.727-.187-1.156-.012-.426.035-.813.14-1.157.102-.351.258-.648.469-.89.207-.25.469-.438.781-.563.313-.133.66-.203 1.047-.203zm.094 5.203c.32 0 .601-.051.844-.156.238-.113.437-.273.593-.484.164-.207.285-.457.36-.75.082-.301.117-.633.109-1-.012-.364-.062-.692-.156-.985-.086-.301-.211-.554-.375-.765-.156-.207-.36-.368-.61-.485-.25-.113-.539-.172-.859-.172-.324 0-.605.059-.844.172-.242.117-.445.278-.609.485-.156.211-.277.464-.359.765-.075.293-.106.621-.094.985.008.367.054.699.14 1 .094.293.219.543.375.75.164.211.375.371.625.484.25.105.536.156.86.156zm0 0"/></symbol><symbol id="ag" overflow="visible"><path d="m.891 0-.094-5.469h.281c.094 0 .149.047.172.141l.063.828c.238-.313.519-.563.843-.75.332-.195.703-.297 1.11-.297.3 0 .566.047.797.141.226.093.421.23.578.406.156.18.273.398.359.656.082.25.125.531.125.844l.063 3.5h-.532l-.062-3.5c-.012-.508-.137-.91-.375-1.203-.242-.289-.602-.438-1.078-.438-.356 0-.684.094-.985.282-.304.187-.578.445-.828.765l.078 4.094zm0 0"/></symbol><symbol id="ah" overflow="visible"><path d="m2.594-5.563c.238 0 .457.032.656.094.207.063.395.149.563.25h1.39v.172c.008.094-.039.149-.14.156l-.829.063c.102.137.18.293.235.469.062.168.097.351.109.546 0 .274-.047.516-.14.735-.094.211-.227.39-.391.547-.168.148-.371.261-.609.343-.231.086-.493.125-.782.125-.312 0-.601-.046-.859-.14-.149.086-.266.187-.359.312-.086.125-.125.246-.125.36.007.156.066.277.171.359.114.086.258.149.438.188.187.031.394.054.625.062.226.012.461.027.703.047.238.012.473.031.703.062.238.032.445.09.625.172.188.086.336.2.453.344.114.149.172.344.172.594.008.226-.043.445-.156.656-.117.207-.277.391-.484.547-.211.164-.465.297-.766.391-.305.093-.649.14-1.031.14-.387 0-.727-.043-1.016-.125-.281-.074-.523-.179-.719-.312-.199-.125-.351-.278-.453-.453-.105-.18-.156-.368-.156-.563-.012-.293.078-.543.266-.75.187-.207.445-.367.781-.484-.188-.063-.336-.149-.438-.266-.105-.113-.164-.273-.172-.484 0-.082.008-.164.032-.25.031-.082.07-.164.125-.25.062-.082.129-.16.203-.235.082-.07.179-.132.297-.187-.262-.156-.469-.36-.625-.61-.149-.25-.219-.539-.219-.875-.012-.257.031-.492.125-.703.094-.218.223-.406.391-.562.164-.156.367-.274.609-.36.238-.082.504-.125.797-.125zm2.125 5.938c0-.18-.047-.32-.141-.422-.086-.101-.203-.18-.359-.234-.149-.063-.324-.102-.531-.125-.2-.032-.407-.051-.625-.063-.211-.008-.422-.019-.641-.031-.211-.008-.406-.031-.594-.063-.148.055-.277.118-.39.188-.106.074-.204.156-.297.25-.086.086-.153.176-.203.281-.043.114-.059.235-.047.36 0 .164.039.316.125.453.082.133.207.25.375.344.164.101.363.179.593.234.227.062.493.094.797.094.27 0 .524-.032.766-.094.25-.063.457-.152.625-.266.176-.105.312-.242.406-.406.102-.156.149-.324.141-.5zm-2.078-2.797c.238 0 .445-.031.625-.094.187-.07.343-.164.468-.281.125-.125.211-.269.266-.437.063-.164.094-.352.094-.563-.012-.207-.055-.394-.125-.562-.063-.164-.164-.305-.297-.422-.125-.125-.281-.219-.469-.282-.18-.07-.383-.109-.609-.109-.231 0-.438.039-.625.109-.18.063-.328.157-.453.282-.118.117-.211.258-.282.422-.062.168-.089.355-.078.562 0 .211.035.399.11.563.07.168.172.312.297.437.125.117.273.211.453.281.187.063.394.094.625.094zm0 0"/></symbol><symbol id="ai" overflow="visible"><path d="m1.188-5.469.062 3.5c.008.512.133.914.375 1.203.238.293.598.438 1.078.438.352 0 .68-.086.985-.266.3-.187.57-.441.812-.765l-.062-4.11h.515l.094 5.469h-.281c-.106 0-.157-.047-.157-.141l-.078-.812c-.25.312-.539.57-.859.765-.324.188-.688.282-1.094.282-.312 0-.586-.047-.812-.141-.219-.101-.407-.242-.563-.422-.156-.176-.277-.39-.359-.64-.086-.258-.125-.547-.125-.86l-.063-3.5zm0 0"/></symbol><symbol id="aj" overflow="visible"><path d="m.891 0-.094-5.469h.281c.051 0 .094.016.125.047.031.024.047.063.047.125l.063 1.156c.175-.445.406-.797.687-1.047.289-.25.648-.375 1.078-.375.164 0 .317.024.453.063.145.031.282.078.407.141l-.079.359c0 .062-.031.094-.093.094-.024 0-.059-.004-.11-.016-.043-.019-.093-.035-.156-.047-.055-.019-.125-.035-.219-.047-.086-.019-.183-.031-.297-.031-.418 0-.757.133-1.015.391-.262.25-.469.621-.625 1.109l.062 3.547zm0 0"/></symbol><symbol id="ak" overflow="visible"><path d="m4.375 0c-.105 0-.172-.051-.203-.156l-.094-.688c-.148.149-.293.278-.437.391-.149.117-.305.215-.469.297-.156.086-.328.148-.516.187-.179.039-.383.063-.609.063-.188 0-.371-.031-.547-.094-.18-.051-.336-.133-.469-.25-.136-.113-.246-.258-.328-.438-.086-.175-.125-.39-.125-.64-.012-.227.047-.442.172-.641.125-.195.328-.367.609-.515.282-.145.641-.258 1.079-.344.437-.094.968-.145 1.593-.156l-.015-.579c-.012-.5-.133-.882-.36-1.156-.218-.281-.543-.422-.968-.422-.262 0-.485.039-.672.11-.188.074-.344.156-.469.25-.125.086-.231.164-.313.234-.074.074-.136.109-.187.109-.074 0-.133-.031-.172-.093l-.094-.157c.282-.289.578-.507.891-.656.312-.144.664-.219 1.062-.219.289 0 .547.047.766.141.227.094.414.231.563.406.144.18.257.391.343.641.082.242.125.512.125.812l.063 3.563zm-2.187-.297c.207 0 .398-.019.578-.062.175-.039.336-.102.484-.188.145-.082.285-.18.422-.297.133-.113.266-.238.391-.375l-.032-1.422c-.523.024-.968.063-1.343.125-.375.063-.684.153-.922.266-.243.105-.418.234-.532.391-.117.148-.171.32-.171.515.007.18.046.336.109.469.062.137.144.25.25.344.101.086.219.148.344.187.132.031.273.047.422.047zm0 0"/></symbol><symbol id="al" overflow="visible"><path d="m2.391.094c-.375 0-.672-.102-.891-.313-.211-.207-.312-.523-.312-.953l-.063-3.734h-.781c-.043 0-.078-.008-.11-.032-.031-.019-.046-.05-.046-.093v-.203l.937-.063.094-1.953c.008-.031.023-.055.047-.078.019-.031.05-.047.093-.047h.25l.032 2.078h1.718l.016.391h-1.719l.063 3.703c0 .156.015.293.047.406.039.106.097.195.172.266.07.062.156.109.25.14.093.032.191.047.296.047.133 0 .243-.015.329-.047.093-.039.175-.082.25-.125.07-.05.128-.093.171-.125.039-.039.071-.062.094-.062.031 0 .063.015.094.047l.156.234c-.137.156-.312.281-.531.375-.211.094-.43.141-.656.141zm0 0"/></symbol><symbol id="am" overflow="visible"><path d="m1.469-5.469.094 5.469h-.516l-.094-5.469zm.203-1.875c0 .063-.016.125-.047.188-.023.054-.059.101-.109.14-.043.043-.094.078-.157.11-.054.023-.109.031-.171.031-.075 0-.141-.008-.204-.031-.054-.032-.101-.067-.14-.11-.043-.039-.078-.086-.11-.14-.023-.063-.031-.125-.031-.188 0-.07.008-.133.031-.187.02-.063.051-.114.094-.157.039-.05.086-.085.141-.109.062-.031.129-.047.203-.047.062 0 .117.016.172.047.062.024.113.059.156.109.051.043.094.094.125.157.031.054.047.117.047.187zm0 0"/></symbol><symbol id="an" overflow="visible"><path d="m3.828-4.797c-.031.055-.074.078-.125.078-.043 0-.094-.019-.156-.062-.063-.039-.152-.086-.266-.141-.105-.062-.234-.113-.39-.156-.157-.051-.344-.078-.563-.078-.199 0-.383.031-.547.093-.156.055-.293.125-.406.219-.105.094-.187.203-.25.328-.062.125-.094.262-.094.407.008.168.055.308.141.421.094.118.207.215.344.297.144.086.312.157.5.219.187.055.375.109.562.172.188.055.367.117.547.187.188.075.352.165.5.266.145.106.258.234.344.391.094.156.14.343.14.562.008.242-.027.465-.109.672-.086.199-.203.375-.359.531-.157.149-.356.266-.594.36-.242.082-.512.125-.813.125-.386 0-.718-.063-1-.188-.281-.125-.539-.285-.765-.484l.125-.188c.019-.031.039-.05.062-.062.02-.008.051-.016.094-.016.051 0 .109.031.172.094.07.055.164.117.281.187.113.063.254.125.422.188.176.055.383.078.625.078.227 0 .426-.031.594-.094.176-.062.32-.144.437-.25.125-.113.211-.242.266-.39.062-.157.086-.317.078-.485 0-.175-.047-.32-.141-.437-.086-.125-.199-.227-.343-.313-.149-.093-.313-.164-.5-.218-.18-.063-.368-.118-.563-.172-.187-.063-.375-.125-.562-.188-.18-.07-.34-.16-.485-.265-.148-.114-.265-.243-.359-.391-.086-.156-.133-.348-.141-.578 0-.188.039-.367.125-.547.082-.188.196-.348.344-.484.156-.133.344-.239.563-.313.226-.082.484-.125.765-.125.332 0 .625.047.875.141.258.093.5.242.719.437zm0 0"/></symbol><symbol id="ao" overflow="visible"><path d="m.578-.422c-.012-.07-.008-.141.016-.203.031-.063.066-.113.109-.156.051-.039.102-.078.156-.11.063-.031.129-.047.204-.047.07 0 .14.016.203.047.062.032.113.071.156.11.051.043.086.093.109.156.032.062.051.133.063.203 0 .074-.016.141-.047.203-.024.063-.059.117-.109.156-.043.043-.094.071-.157.094-.062.032-.133.047-.203.047-.137 0-.258-.047-.359-.141-.094-.093-.141-.21-.141-.359zm0 0"/></symbol><symbol id="ap" overflow="visible"/><symbol id="aq" overflow="visible"><path d="m5.672-7.766.016.469h-4.094l.047 3.141h3.406l.016.453h-3.407l.047 3.234h4.094l.016.469h-4.657l-.14-7.766zm0 0"/></symbol><symbol id="ar" overflow="visible"><path d="m4.766 0c-.094 0-.149-.047-.157-.141l-.078-.859c-.242.324-.523.586-.843.781-.313.199-.672.297-1.079.297-.668 0-1.195-.234-1.578-.703-.375-.469-.574-1.164-.593-2.094-.012-.394.031-.765.125-1.109.101-.352.253-.656.453-.906.195-.258.441-.461.734-.61.289-.144.629-.219 1.016-.219.375 0 .695.075.968.219.27.137.508.336.719.594l-.062-3.234h.515l.141 7.984zm-2.016-.344c.363 0 .688-.094.969-.281.289-.188.551-.445.781-.781l-.047-2.891c-.219-.312-.461-.531-.719-.656-.261-.125-.554-.188-.875-.188-.312 0-.589.059-.828.172-.242.117-.445.281-.609.5-.156.211-.277.465-.359.766-.075.305-.106.633-.094.984.008.813.172 1.414.484 1.797.313.387.742.578 1.297.578zm0 0"/></symbol><symbol id="as" overflow="visible"><path d="m2.859-5.547c.301 0 .582.055.844.156.27.106.5.262.688.469.195.199.351.449.468.75.114.293.172.633.172 1.016.008.086.004.14-.015.172-.024.023-.059.031-.11.031h-3.953v.109c0 .406.051.766.156 1.078.102.313.243.575.422.782.176.211.391.371.641.484.258.105.539.156.844.156.281 0 .515-.031.703-.094.195-.062.363-.128.5-.203.144-.07.254-.14.328-.203.082-.062.144-.094.187-.094.039 0 .079.024.11.063l.14.172c-.093.117-.211.219-.343.312-.137.094-.293.18-.469.25-.18.063-.371.118-.578.157-.199.039-.403.062-.61.062-.375 0-.718-.062-1.031-.187-.305-.133-.57-.329-.797-.579-.218-.25-.39-.55-.515-.906-.125-.363-.196-.781-.203-1.25-.012-.394.035-.754.14-1.078.102-.332.258-.617.469-.859.207-.239.461-.426.766-.563.3-.133.648-.203 1.046-.203zm0 .391c-.281 0-.531.043-.75.125-.218.086-.414.211-.578.375-.156.168-.281.367-.375.593-.093.231-.164.493-.203.782h3.61c0-.289-.047-.551-.141-.782-.086-.238-.199-.437-.344-.593-.148-.164-.324-.289-.531-.375-.211-.082-.438-.125-.688-.125zm0 0"/></symbol><symbol id="at" overflow="visible"><path d="m.922 1.938-.125-7.407h.281c.051 0 .086.012.11.031.031.024.05.059.062.11l.063.844c.226-.321.503-.582.828-.782.32-.195.687-.297 1.093-.297.676 0 1.204.235 1.579.704.375.468.57 1.168.593 2.093.008.399-.039.774-.14 1.125-.094.344-.243.641-.438.891-.187.25-.433.453-.734.609-.293.145-.633.219-1.016.219-.375 0-.699-.07-.969-.203-.273-.133-.511-.336-.718-.609l.047 2.672zm2.172-7.079c-.367 0-.696.102-.985.297-.293.188-.554.449-.781.781l.063 2.86c.207.324.441.547.703.672.258.125.554.187.89.187.313 0 .586-.054.829-.172.238-.113.437-.273.593-.484.164-.219.285-.477.36-.781.07-.301.109-.629.109-.985-.012-.812-.172-1.41-.484-1.797-.305-.382-.735-.578-1.297-.578zm0 0"/></symbol><symbol id="au" overflow="visible"><path d="m2.859-5.547c.301 0 .582.055.844.156.27.106.5.262.688.469.195.199.351.449.468.75.114.293.172.633.172 1.016.008.086.004.14-.015.172-.024.023-.059.031-.11.031h-3.953v.109c0 .406.051.766.156 1.078.102.313.243.575.422.782.176.211.391.371.641.484.258.105.539.156.844.156.281 0 .515-.031.703-.094.195-.062.363-.128.5-.203.144-.07.254-.14.328-.203.082-.062.144-.094.187-.094.039 0 .079.024.11.063l.14.172c-.093.117-.211.219-.343.312-.137.094-.293.18-.469.25-.18.063-.371.118-.578.157-.199.039-.403.062-.61.062-.375 0-.718-.062-1.031-.187-.305-.133-.57-.329-.797-.579-.218-.25-.39-.55-.515-.906-.125-.363-.196-.781-.203-1.25-.012-.394.035-.754.14-1.078.102-.332.258-.617.469-.859.207-.239.461-.426.766-.563.3-.133.648-.203 1.046-.203zm0 .391c-.281 0-.531.043-.75.125-.218.086-.414.211-.578.375-.156.168-.281.367-.375.593-.093.231-.164.493-.203.782h3.61c0-.289-.047-.551-.141-.782-.086-.238-.199-.437-.344-.593-.148-.164-.324-.289-.531-.375-.211-.082-.438-.125-.688-.125zm1.188-2.703-1.156 1.39c-.032.031-.063.059-.094.078-.031.012-.07.016-.109.016h-.313l.828-1.313c.039-.062.082-.101.125-.125.039-.031.11-.046.203-.046zm0 0"/></symbol><symbol id="av" overflow="visible"><path d="m4.953-5.469.125 7.407h-.515l-.047-2.907c-.25.324-.532.578-.844.766-.313.187-.668.281-1.063.281-.668 0-1.195-.234-1.578-.703-.375-.469-.574-1.164-.593-2.094-.012-.394.031-.765.125-1.109.101-.352.253-.656.453-.906.195-.258.441-.461.734-.61.289-.144.629-.219 1.016-.219.375 0 .695.075.968.219.282.149.524.356.735.625l.047-.609c0-.094.05-.141.156-.141zm-2.203 5.125c.363 0 .688-.094.969-.281.289-.188.551-.445.781-.781l-.047-2.891c-.199-.301-.433-.516-.703-.641-.262-.132-.559-.203-.891-.203-.312 0-.589.059-.828.172-.242.117-.445.281-.609.5-.156.211-.277.465-.359.766-.075.305-.106.633-.094.984.008.813.172 1.414.484 1.797.313.387.742.578 1.297.578zm0 0"/></symbol><symbol id="aw" overflow="visible"><path d="m.891 0-.094-5.469h.281c.094 0 .149.047.172.141l.063.797c.101-.157.21-.297.328-.422.113-.125.238-.227.375-.313.144-.093.297-.16.453-.203.156-.051.316-.078.484-.078.395 0 .711.117.953.344.25.23.414.555.5.969.071-.227.16-.422.266-.579.113-.164.25-.3.406-.406.156-.113.32-.195.5-.25.188-.051.375-.078.563-.078.269 0 .507.047.718.141.219.086.407.215.563.39.164.18.289.399.375.657.082.25.125.539.125.859l.062 3.5h-.531l-.062-3.5c-.012-.531-.137-.938-.375-1.219-.231-.281-.559-.422-.985-.422-.187 0-.371.039-.547.11-.179.074-.328.179-.453.312-.125.137-.23.309-.312.516-.074.199-.11.433-.11.703l.063 3.5h-.516l-.062-3.5c-.012-.531-.125-.938-.344-1.219s-.531-.422-.937-.422c-.293 0-.563.09-.813.266-.25.18-.477.43-.672.75l.078 4.125zm0 0"/></symbol><symbol id="ax" overflow="visible"><path d="m1.422-7.984.141 7.984h-.516l-.141-7.984zm0 0"/></symbol><symbol id="ay" overflow="visible"><path d="m.938 0-.141-7.984h.531l.063 3.468c.226-.32.504-.57.828-.75.32-.187.679-.281 1.078-.281.664 0 1.187.234 1.562.703.383.461.586 1.153.61 2.078.008.399-.039.774-.141 1.125-.094.344-.242.641-.437.891-.2.25-.446.453-.735.609-.293.145-.633.219-1.015.219-.387 0-.719-.074-1-.219-.274-.156-.512-.379-.719-.672l-.016.672c-.011.094-.058.141-.14.141zm2.203-5.141c-.356 0-.68.094-.969.282-.293.187-.555.449-.781.781l.062 2.89c.207.313.442.532.703.657.258.125.551.187.875.187.321 0 .602-.054.844-.172.238-.113.438-.273.594-.484.164-.219.285-.477.359-.781.07-.301.11-.629.11-.985-.012-.812-.172-1.41-.485-1.797-.312-.382-.75-.578-1.312-.578zm0 0"/></symbol><symbol id="az" overflow="visible"><path d="m1.172-8.109c.082.136.144.277.187.421.039.137.063.274.063.407 0 .281-.07.558-.203.828-.137.262-.309.5-.516.719l-.172-.11c-.023-.019-.031-.047-.031-.078 0-.019.008-.039.031-.062.133-.188.242-.375.328-.563.094-.187.141-.379.141-.578 0-.207-.074-.422-.219-.641-.011-.031-.015-.062-.015-.093 0-.051.023-.086.078-.11zm0 0"/></symbol><symbol id="aA" overflow="visible"><path d="m1.797-4.188h.469.172c.05-.007.097-.019.14-.031.039-.019.078-.039.11-.062.039-.032.082-.067.125-.11l3.078-3.218c.062-.063.113-.102.156-.125.051-.02.113-.032.187-.032h.454l-3.329 3.485c-.074.074-.136.133-.187.172-.055.043-.106.074-.156.093.07.024.14.059.203.11.062.043.125.101.187.172l3.641 3.734h-.453c-.094 0-.164-.008-.203-.031-.043-.032-.086-.067-.125-.11l-3.36-3.375c-.043-.031-.078-.062-.109-.093-.031-.032-.07-.055-.109-.079-.043-.019-.094-.035-.157-.046-.054-.008-.125-.016-.218-.016h-.5l.062 3.75h-.562l-.141-7.781h.562zm0 0"/></symbol><symbol id="aB" overflow="visible"><path d="m2.109 1.75c-.023.051-.054.094-.093.125-.032.039-.078.063-.141.063h-.375l.938-2.141-2.407-5.266h.438c.051 0 .094.016.125.047s.051.063.062.094l1.922 4.25c.02.055.035.109.047.172.02.054.039.109.063.172.007-.063.023-.118.046-.172.02-.063.039-.117.063-.172l1.75-4.25c.008-.039.031-.07.062-.094.039-.031.082-.047.125-.047h.391zm0 0"/></symbol><symbol id="aC" overflow="visible"><path d="m7 0h-.437c-.055 0-.094-.008-.125-.031-.032-.032-.059-.067-.079-.11l-.953-2.265h-3.828l-.859 2.265c-.012.032-.039.063-.078.094-.032.031-.075.047-.125.047h-.438l3.047-7.766h.563zm-5.25-2.828h3.484l-1.656-3.922c-.031-.063-.062-.129-.094-.203-.023-.082-.043-.172-.062-.266-.031.094-.063.184-.094.266-.023.074-.043.14-.062.203zm0 0"/></symbol><symbol id="aD" overflow="visible"><path d="m1.094 0-.078-4.891-.782-.047c-.105-.007-.156-.054-.156-.14v-.219h.922v-.469c-.012-.332.031-.632.125-.906.094-.269.227-.5.406-.687.188-.188.414-.329.688-.422.269-.102.582-.157.937-.157.114 0 .235.012.36.032.132.023.25.047.343.078l-.015.265c0 .032-.028.047-.078.047-.043 0-.106-.004-.188-.015-.074-.008-.168-.016-.281-.016-.586 0-1.031.152-1.344.453-.305.293-.449.742-.437 1.344v.453h3.203l.094 5.297h-.532l-.078-4.906h-2.672l.078 4.906zm0 0"/></symbol><symbol id="aE" overflow="visible"><path d="m7.297-9.281c-.086.125-.172.226-.266.297-.086.062-.195.093-.328.093-.125 0-.262-.035-.406-.109-.137-.082-.297-.172-.484-.266-.18-.101-.383-.191-.61-.265-.23-.071-.492-.11-.781-.11-.512 0-.891.11-1.141.328-.242.211-.355.497-.343.86 0 .242.07.437.218.594.157.156.36.293.61.406.25.105.523.203.828.297.312.093.633.199.969.312.332.117.656.25.968.406.313.157.586.356.828.594.25.242.454.531.61.875s.238.758.25 1.235c.008.543-.078 1.046-.266 1.515-.18.469-.445.883-.797 1.235-.343.343-.777.617-1.297.812-.511.195-1.093.297-1.75.297-.367 0-.734-.039-1.109-.109-.375-.071-.746-.176-1.109-.313-.356-.133-.688-.297-1-.484-.305-.188-.575-.395-.813-.625l.781-1.266c.063-.094.145-.164.25-.219.102-.062.219-.093.344-.093.164 0 .328.054.485.156.164.094.347.203.546.328.207.125.446.242.719.344.27.093.586.14.953.14.489 0 .864-.101 1.125-.312.27-.219.399-.563.391-1.031 0-.27-.078-.489-.234-.657-.149-.175-.344-.32-.594-.437-.242-.113-.516-.211-.828-.297-.305-.082-.621-.176-.953-.281-.336-.102-.657-.227-.969-.375-.305-.157-.578-.36-.828-.61s-.453-.554-.61-.922c-.148-.375-.226-.832-.234-1.375-.012-.437.066-.863.234-1.281.176-.414.426-.785.75-1.109.332-.32.742-.578 1.235-.766.5-.195 1.07-.297 1.718-.297.352 0 .696.028 1.032.078.343.055.664.137.968.25.301.106.586.235.86.391.269.149.508.32.719.516zm0 0"/></symbol><symbol id="aF" overflow="visible"><path d="m5.766-2.141c.363 0 .687-.054.968-.172.282-.125.516-.296.704-.515.195-.227.343-.5.437-.813.102-.32.156-.691.156-1.109l-.125-6.891h2.703l.125 6.891c.008.719-.101 1.375-.328 1.969-.218.593-.543 1.109-.968 1.547-.43.429-.95.761-1.563 1-.605.238-1.297.359-2.078.359-.774 0-1.469-.121-2.094-.359-.625-.239-1.156-.571-1.594-1-.437-.438-.777-.954-1.015-1.547-.242-.594-.367-1.25-.375-1.969l-.125-6.891h2.703l.125 6.891c0 .406.051.773.156 1.094.113.324.27.601.469.828.207.219.457.39.75.515.289.118.613.172.969.172zm0 0"/></symbol><symbol id="aG" overflow="visible"><path d="m3.578-4.313.078 4.313h-2.703l-.203-11.641h3.797c.844 0 1.562.09 2.156.266.602.168 1.094.406 1.469.719.383.304.664.668.844 1.093.175.418.269.875.281 1.375 0 .375-.047.731-.141 1.063-.093.336-.242.648-.437.937-.188.282-.43.54-.719.766-.293.219-.621.402-.984.547.175.094.343.211.5.344.156.125.297.289.422.484l2.546 4.047h-2.437c-.461 0-.793-.172-1-.516l-1.984-3.375c-.094-.144-.2-.25-.313-.312-.117-.07-.277-.11-.484-.11zm-.031-1.859h1.094c.363 0 .675-.047.937-.141.258-.093.469-.218.625-.375.156-.164.27-.359.344-.578.07-.226.109-.472.109-.734-.011-.508-.187-.906-.531-1.188-.336-.289-.852-.437-1.547-.437h-1.094zm0 0"/></symbol><symbol id="aH" overflow="visible"><path d="m.688-5.859h4.312l.047 2h-4.313zm0 0"/></symbol><symbol id="aI" overflow="visible"><path d="m6.813-5.328c.113.211.222.422.328.64.101.219.203.446.297.672.082-.238.171-.468.265-.687s.195-.43.313-.641l2.875-5.89c.05-.094.101-.164.156-.219.062-.063.125-.102.187-.125.071-.031.149-.047.235-.047.094-.008.195-.016.312-.016h2.063l.203 11.641h-2.375l-.125-6.703c0-.32.008-.672.031-1.047l-2.984 5.984c-.094.188-.219.328-.375.422s-.34.141-.547.141h-.359c-.211 0-.403-.047-.579-.141-.168-.094-.296-.234-.39-.422l-3.203-6c.031.188.05.375.062.563.008.187.016.355.016.5l.125 6.703h-2.391l-.203-11.641h2.063c.125 0 .226.008.312.016.082 0 .16.016.234.047.071.023.133.062.188.125.062.055.117.125.172.219zm0 0"/></symbol><symbol id="aJ" overflow="visible"><path d="m8.25-11.641.031 2.078h-4.781l.047 2.719h3.672l.047 2h-3.672l.047 2.766h4.781l.031 2.078h-7.5l-.203-11.641zm0 0"/></symbol><g fill="#231f20"><use x="295.615877" xlink:href="#a" y="866.273436"/><use x="302.568777" xlink:href="#a" y="866.273436"/><use x="309.521677" xlink:href="#b" y="866.273436"/></g><g fill="#231f20"><use x="890.286041" xlink:href="#a" y="866.273436"/><use x="897.23894" xlink:href="#a" y="866.273436"/><use x="904.19184" xlink:href="#c" y="866.273436"/></g><g fill="#fff"><use x="70.740279" xlink:href="#d" y="312.795952"/><use x="70.740279" xlink:href="#e" y="289.851383"/><use x="70.740279" xlink:href="#e" y="261.080763"/><use x="70.740279" xlink:href="#f" y="232.310143"/><use x="70.740279" xlink:href="#g" y="213.645203"/><use x="70.740279" xlink:href="#h" y="206.704291"/><use x="70.740279" xlink:href="#e" y="179.516055"/><use x="70.740279" xlink:href="#i" y="150.745434"/><use x="70.740279" xlink:href="#j" y="124.636097"/><use x="70.740279" xlink:href="#k" y="105.144001"/><use x="70.740279" xlink:href="#g" y="84.824751"/></g><use fill="#fff" x="70.740279" xlink:href="#g" y="84.824751"/><g fill="#87726f"><use x="107.609132" xlink:href="#l" y="241.669852"/><use x="120.412058" xlink:href="#m" y="241.669852"/><use x="130.10416" xlink:href="#n" y="241.669852"/><use x="145.58635" xlink:href="#n" y="241.669852"/><use x="161.06854" xlink:href="#o" y="241.669852"/><use x="170.850551" xlink:href="#p" y="241.669852"/><use x="174.321007" xlink:href="#q" y="241.669852"/><use x="186.116962" xlink:href="#r" y="241.669852"/><use x="193.543378" xlink:href="#s" y="241.669852"/><use x="198.668145" xlink:href="#t" y="241.669852"/><use x="206.580065" xlink:href="#o" y="241.669852"/><use x="216.362076" xlink:href="#u" y="241.669852"/><use x="223.015282" xlink:href="#v" y="241.669852"/><use x="232.76133" xlink:href="#w" y="241.669852"/><use x="243.190679" xlink:href="#x" y="241.669852"/><use x="248.315446" xlink:href="#o" y="241.669852"/><use x="258.097457" xlink:href="#s" y="241.669852"/><use x="263.222224" xlink:href="#x" y="241.669852"/></g><g fill="#87726f"><use x="640.900493" xlink:href="#l" y="101.497221"/><use x="653.703419" xlink:href="#m" y="101.497221"/><use x="663.395522" xlink:href="#n" y="101.497221"/><use x="678.877712" xlink:href="#n" y="101.497221"/><use x="694.359902" xlink:href="#o" y="101.497221"/><use x="704.141913" xlink:href="#p" y="101.497221"/><use x="707.612369" xlink:href="#y" y="101.497221"/></g><g fill="#87726f"><use x="716.585008" xlink:href="#w" y="101.497221"/><use x="727.014358" xlink:href="#s" y="101.497221"/><use x="732.139125" xlink:href="#z" y="101.497221"/><use x="739.33178" xlink:href="#u" y="101.497221"/><use x="745.984986" xlink:href="#z" y="101.497221"/><use x="753.177641" xlink:href="#o" y="101.497221"/><use x="762.959652" xlink:href="#r" y="101.497221"/><use x="770.386068" xlink:href="#r" y="101.497221"/></g><g fill="#87726f"><use x="777.632704" xlink:href="#m" y="101.497221"/><use x="787.324807" xlink:href="#t" y="101.497221"/><use x="795.236727" xlink:href="#t" y="101.497221"/><use x="803.148648" xlink:href="#o" y="101.497221"/></g><g fill="#393536"><g><use x="107.609132" xlink:href="#A" y="169.377553"/><use x="114.13615" xlink:href="#B" y="169.377553"/><use x="122.90477" xlink:href="#B" y="169.377553"/><use x="131.67339" xlink:href="#C" y="169.377553"/><use x="137.299372" xlink:href="#D" y="169.377553"/><use x="139.420104" xlink:href="#E" y="169.377553"/><use x="147.727218" xlink:href="#B" y="169.377553"/></g><g><use x="156.462862" xlink:href="#F" y="169.377553"/><use x="164.528235" xlink:href="#G" y="169.377553"/></g><g><use x="170.275088" xlink:href="#H" y="169.377553"/><use x="176.769141" xlink:href="#D" y="169.377553"/><use x="178.889872" xlink:href="#I" y="169.377553"/><use x="184.768584" xlink:href="#J" y="169.377553"/><use x="190.713225" xlink:href="#K" y="169.377553"/><use x="196.657866" xlink:href="#L" y="169.377553"/><use x="201.0202" xlink:href="#D" y="169.377553"/><use x="203.140931" xlink:href="#I" y="169.377553"/><use x="209.019643" xlink:href="#M" y="169.377553"/></g><g><use x="214.370919" xlink:href="#L" y="169.377553"/><use x="218.733252" xlink:href="#N" y="169.377553"/></g><use x="222.656056" xlink:href="#O" y="169.377553"/><g><use x="225.271259" xlink:href="#P" y="169.377553"/><use x="230.270911" xlink:href="#K" y="169.377553"/><use x="236.215552" xlink:href="#Q" y="169.377553"/></g><use x="238.797888" xlink:href="#O" y="169.377553"/><g><use x="241.413091" xlink:href="#R" y="169.377553"/><use x="247.028085" xlink:href="#L" y="169.377553"/><use x="251.390418" xlink:href="#S" y="169.377553"/><use x="256.115364" xlink:href="#D" y="169.377553"/><use x="258.236095" xlink:href="#J" y="169.377553"/><use x="264.180737" xlink:href="#K" y="169.377553"/><use x="270.125378" xlink:href="#D" y="169.377553"/><use x="272.246109" xlink:href="#I" y="169.377553"/><use x="278.124821" xlink:href="#L" y="169.377553"/><use x="282.487154" xlink:href="#J" y="169.377553"/><use x="288.431795" xlink:href="#T" y="169.377553"/><use x="291.970011" xlink:href="#R" y="169.377553"/><use x="297.585004" xlink:href="#S" y="169.377553"/><use x="302.30995" xlink:href="#S" y="169.377553"/><use x="307.034896" xlink:href="#O" y="169.377553"/></g><g><use x="309.650098" xlink:href="#J" y="169.377553"/><use x="315.594739" xlink:href="#U" y="169.377553"/><use x="321.53938" xlink:href="#U" y="169.377553"/><use x="327.484022" xlink:href="#R" y="169.377553"/><use x="333.099015" xlink:href="#Q" y="169.377553"/></g><g><use x="335.714218" xlink:href="#S" y="169.377553"/><use x="340.439164" xlink:href="#V" y="169.377553"/><use x="342.614836" xlink:href="#D" y="169.377553"/><use x="344.735568" xlink:href="#W" y="169.377553"/><use x="351.10875" xlink:href="#X" y="169.377553"/><use x="357.481933" xlink:href="#X" y="169.377553"/><use x="363.855116" xlink:href="#Y" y="169.377553"/><use x="372.2831" xlink:href="#D" y="169.377553"/><use x="374.403832" xlink:href="#S" y="169.377553"/><use x="379.128778" xlink:href="#K" y="169.377553"/><use x="385.073419" xlink:href="#L" y="169.377553"/><use x="389.435752" xlink:href="#Z" y="169.377553"/><use x="393.094838" xlink:href="#aa" y="169.377553"/></g><g><use x="401.808517" xlink:href="#R" y="169.377553"/><use x="407.423511" xlink:href="#S" y="169.377553"/><use x="412.148457" xlink:href="#K" y="169.377553"/><use x="418.093098" xlink:href="#L" y="169.377553"/><use x="422.455431" xlink:href="#R" y="169.377553"/><use x="428.070425" xlink:href="#D" y="169.377553"/><use x="430.191157" xlink:href="#I" y="169.377553"/><use x="436.069868" xlink:href="#J" y="169.377553"/><use x="442.014509" xlink:href="#K" y="169.377553"/><use x="447.95915" xlink:href="#L" y="169.377553"/><use x="452.321484" xlink:href="#D" y="169.377553"/><use x="454.442215" xlink:href="#S" y="169.377553"/><use x="459.167161" xlink:href="#ab" y="169.377553"/></g><use x="461.013132" xlink:href="#M" y="169.377553"/><g><use x="466.364407" xlink:href="#ac" y="169.377553"/><use x="472.36399" xlink:href="#M" y="169.377553"/></g><g><use x="477.715265" xlink:href="#I" y="169.377553"/><use x="483.593977" xlink:href="#N" y="169.377553"/></g><g><use x="487.516781" xlink:href="#R" y="169.377553"/><use x="493.131775" xlink:href="#L" y="169.377553"/><use x="497.494108" xlink:href="#D" y="169.377553"/><use x="499.61484" xlink:href="#ad" y="169.377553"/></g><g><use x="504.966115" xlink:href="#D" y="169.377553"/><use x="507.086847" xlink:href="#N" y="169.377553"/></g><g><use x="510.976587" xlink:href="#J" y="169.377553"/><use x="516.921228" xlink:href="#K" y="169.377553"/><use x="522.865869" xlink:href="#N" y="169.377553"/></g><g><use x="526.788772" xlink:href="#R" y="169.377553"/><use x="532.403766" xlink:href="#S" y="169.377553"/><use x="537.128711" xlink:href="#D" y="169.377553"/><use x="539.249443" xlink:href="#Q" y="169.377553"/></g><g><use x="541.864547" xlink:href="#R" y="169.377553"/><use x="547.47954" xlink:href="#S" y="169.377553"/><use x="552.204486" xlink:href="#D" y="169.377553"/></g><g><use x="107.610142" xlink:href="#ae" y="182.563848"/><use x="112.609794" xlink:href="#af" y="182.563848"/><use x="118.554435" xlink:href="#ag" y="182.563848"/></g><use x="124.499076" xlink:href="#aD" y="182.563848"/><use x="130.355811" xlink:href="#ah" y="182.563848"/><g><use x="135.904875" xlink:href="#ai" y="182.563848"/><use x="141.849517" xlink:href="#aj" y="182.563848"/></g><use x="145.926299" xlink:href="#ak" y="182.563848"/><use x="151.277574" xlink:href="#al" y="182.563848"/><use x="155.200378" xlink:href="#am" y="182.563848"/><g><use x="157.815581" xlink:href="#af" y="182.563848"/><use x="163.760222" xlink:href="#ag" y="182.563848"/><use x="169.704863" xlink:href="#an" y="182.563848"/><use x="174.429809" xlink:href="#ao" y="182.563848"/><use x="176.605481" xlink:href="#ap" y="182.563848"/><use x="178.726213" xlink:href="#aq" y="182.563848"/><use x="185.220266" xlink:href="#al" y="182.563848"/></g><g><use x="189.14307" xlink:href="#ai" y="182.563848"/><use x="195.087711" xlink:href="#ar" y="182.563848"/><use x="201.087293" xlink:href="#as" y="182.563848"/><use x="206.702287" xlink:href="#ap" y="182.563848"/><use x="208.823019" xlink:href="#an" y="182.563848"/><use x="213.547964" xlink:href="#at" y="182.563848"/><use x="219.426676" xlink:href="#au" y="182.563848"/><use x="225.04167" xlink:href="#ae" y="182.563848"/><use x="230.041322" xlink:href="#am" y="182.563848"/></g><use x="232.62417" xlink:href="#aD" y="182.563848"/><g><use x="238.480905" xlink:href="#av" y="182.563848"/><use x="244.480487" xlink:href="#ai" y="182.563848"/><use x="250.425128" xlink:href="#as" y="182.563848"/><use x="256.040122" xlink:href="#ap" y="182.563848"/><use x="258.160853" xlink:href="#an" y="182.563848"/><use x="262.885799" xlink:href="#ai" y="182.563848"/><use x="268.83044" xlink:href="#aj" y="182.563848"/><use x="273.192774" xlink:href="#ap" y="182.563848"/><use x="275.313505" xlink:href="#ar" y="182.563848"/><use x="281.313088" xlink:href="#as" y="182.563848"/><use x="286.928081" xlink:href="#aw" y="182.563848"/></g><use x="295.674725" xlink:href="#ak" y="182.563848"/><g><use x="301.026001" xlink:href="#ag" y="182.563848"/><use x="306.970642" xlink:href="#ar" y="182.563848"/><use x="312.970224" xlink:href="#as" y="182.563848"/><use x="318.585218" xlink:href="#ap" y="182.563848"/><use x="320.705949" xlink:href="#at" y="182.563848"/><use x="326.584661" xlink:href="#ak" y="182.563848"/></g><g><use x="331.935937" xlink:href="#aj" y="182.563848"/><use x="336.298271" xlink:href="#ap" y="182.563848"/><use x="338.419002" xlink:href="#ax" y="182.563848"/></g><g><use x="341.034205" xlink:href="#as" y="182.563848"/><use x="346.649198" xlink:href="#ap" y="182.563848"/><use x="348.76993" xlink:href="#ay" y="182.563848"/><use x="354.769512" xlink:href="#ai" y="182.563848"/><use x="360.714153" xlink:href="#aj" y="182.563848"/><use x="365.076487" xlink:href="#as" y="182.563848"/><use x="370.69148" xlink:href="#ak" y="182.563848"/></g><g><use x="376.042756" xlink:href="#ai" y="182.563848"/><use x="381.987397" xlink:href="#ap" y="182.563848"/><use x="384.108129" xlink:href="#ar" y="182.563848"/><use x="390.107711" xlink:href="#az" y="182.563848"/></g><g><use x="391.788924" xlink:href="#au" y="182.563848"/><use x="397.403917" xlink:href="#al" y="182.563848"/></g><g><use x="401.326721" xlink:href="#ai" y="182.563848"/><use x="407.271362" xlink:href="#ar" y="182.563848"/><use x="413.270945" xlink:href="#as" y="182.563848"/><use x="418.885938" xlink:href="#ap" y="182.563848"/><use x="421.00667" xlink:href="#aA" y="182.563848"/><use x="428.258912" xlink:href="#ak" y="182.563848"/></g><use x="433.610089" xlink:href="#ax" y="182.563848"/><use x="436.225291" xlink:href="#ax" y="182.563848"/><use x="438.840494" xlink:href="#am" y="182.563848"/><g><use x="441.455697" xlink:href="#an" y="182.563848"/><use x="446.180642" xlink:href="#al" y="182.563848"/></g><g><use x="450.070382" xlink:href="#aB" y="182.563848"/><use x="455.421658" xlink:href="#ax" y="182.563848"/></g><g><use x="458.036861" xlink:href="#as" y="182.563848"/><use x="463.651854" xlink:href="#ap" y="182.563848"/><use x="465.772586" xlink:href="#ar" y="182.563848"/><use x="471.772168" xlink:href="#az" y="182.563848"/></g><g><use x="473.013972" xlink:href="#aC" y="182.563848"/><use x="480.101391" xlink:href="#ax" y="182.563848"/></g><g><use x="482.716593" xlink:href="#au" y="182.563848"/><use x="488.331587" xlink:href="#aj" y="182.563848"/><use x="492.69392" xlink:href="#am" y="182.563848"/></g><use x="495.309123" xlink:href="#ak" y="182.563848"/><g><use x="500.660399" xlink:href="#ao" y="182.563848"/><use x="502.836071" xlink:href="#ap" y="182.563848"/></g></g><g fill="#fff"><use x="135.802749" xlink:href="#aE" y="108.186622"/><use x="144.465433" xlink:href="#aF" y="108.186622"/><use x="156.068955" xlink:href="#aG" y="108.186622"/><use x="166.697525" xlink:href="#aH" y="108.186622"/><use x="172.611166" xlink:href="#aI" y="108.186622"/><use x="187.619026" xlink:href="#aJ" y="108.186622"/><use x="196.649315" xlink:href="#aE" y="108.186622"/><use x="205.312" xlink:href="#aF" y="108.186622"/><use x="216.915522" xlink:href="#aG" y="108.186622"/><use x="227.544092" xlink:href="#aJ" y="108.186622"/></g></svg>