<svg preserveAspectRatio="none" height="901.3803pt" viewBox="0 0 1207.6 901.38" width="1207.6pt" xmlns="http://www.w3.org/2000/svg" xmlns:xlink="http://www.w3.org/1999/xlink"><clipPath><path d="m491.895 83.43h78.945v75.953h-78.945zm0 0"/></clipPath><clipPath><path d="m1086.508 83.43h78.949v75.953h-78.949zm0 0"/></clipPath><symbol id="a" overflow="visible"><path d="m1.859-.438h1.938v-6.89c0-.133.004-.274.016-.422l-1.86 1.656c-.043.031-.094.047-.156.047-.063 0-.117-.019-.156-.062l-.172-.25 2.453-2.157h.453v8.078h1.844v.438h-4.36zm0 0"/></symbol><symbol id="b" overflow="visible"><path d="m5.781-8.234c0 .086-.027.152-.078.203-.055.054-.137.078-.25.078h-3.062l-.516 2.828c.27-.063.523-.109.766-.141.238-.031.468-.047.687-.047.438 0 .82.063 1.156.188.332.125.614.305.844.531.227.219.399.485.516.797.113.313.172.652.172 1.016 0 .449-.078.851-.235 1.203-.156.355-.371.656-.64.906-.262.25-.571.445-.922.578-.356.125-.731.188-1.125.188-.242 0-.469-.024-.688-.063-.211-.039-.406-.094-.593-.156-.188-.07-.36-.156-.516-.25s-.293-.188-.406-.281l.156-.235c.039-.062.101-.093.187-.093.051 0 .125.031.219.093.094.063.219.133.375.203.156.063.336.125.547.188.207.062.453.094.734.094.321 0 .625-.051.907-.157.289-.101.539-.253.75-.453.207-.207.367-.457.484-.75.125-.289.188-.625.188-1 0-.3-.047-.578-.141-.828-.086-.258-.219-.476-.406-.656-.18-.188-.407-.328-.688-.422-.281-.101-.609-.156-.984-.156-.231 0-.477.015-.735.047-.25.031-.515.09-.796.172l-.375-.11.671-3.765h3.797zm0 0"/></symbol><symbol id="c" overflow="visible"><path d="m3.766-5.063c.363 0 .695.063 1 .188.312.117.578.281.797.5.218.211.39.469.515.781.133.313.203.664.203 1.047 0 .375-.074.731-.218 1.063-.137.324-.329.605-.579.843-.242.231-.531.414-.875.547-.343.125-.726.188-1.14.188-.399 0-.758-.063-1.078-.188-.325-.125-.606-.304-.844-.547-.231-.238-.414-.531-.547-.875-.125-.351-.187-.75-.187-1.187 0-.32.082-.692.25-1.11.164-.425.441-.894.828-1.406l2.312-3.125c.07-.094.176-.14.313-.14h.5l-2.532 3.312c-.125.156-.242.309-.343.453-.106.149-.2.289-.282.422.239-.238.52-.426.844-.562.32-.133.676-.204 1.063-.204zm-2.391 2.5c0 .325.047.622.141.891.101.262.242.492.422.688.175.187.394.339.656.453.258.105.551.156.875.156.344 0 .648-.051.922-.156.281-.114.515-.266.703-.453.195-.188.347-.411.453-.672.101-.27.156-.555.156-.86 0-.32-.055-.613-.156-.875-.094-.257-.234-.476-.422-.656-.187-.187-.414-.328-.672-.422-.25-.101-.531-.156-.844-.156-.355 0-.671.062-.953.187-.273.118-.508.274-.703.469-.187.199-.336.422-.437.672-.094.242-.141.484-.141.734zm0 0"/></symbol><symbol id="d" overflow="visible"><path d="m-6.781-19.766c0-.144.027-.285.078-.422.055-.144.148-.285.281-.421l2.531-2.407c1.387 1.055 2.43 2.375 3.125 3.969.7 1.586 1.047 3.461 1.047 5.625 0 1.992-.336 3.777-1.015 5.359-.676 1.575-1.61 2.915-2.797 4.016-1.196 1.094-2.614 1.938-4.25 2.531-1.633.586-3.41.875-5.328.875-1.957 0-3.754-.332-5.391-1-1.633-.675-3.047-1.617-4.234-2.828-1.188-1.207-2.11-2.648-2.766-4.328-.656-1.676-.984-3.523-.984-5.547 0-.988.089-1.914.265-2.781.168-.875.406-1.688.719-2.438.305-.757.668-1.457 1.094-2.093.418-.633.886-1.196 1.406-1.688l2.75 2.047c.168.137.324.293.469.469.136.18.203.43.203.75 0 .219-.047.43-.141.625-.101.187-.222.39-.359.609-.133.211-.281.446-.438.703-.164.262-.316.571-.453.922-.144.356-.265.774-.359 1.25-.094.469-.141 1.024-.141 1.656 0 1.106.199 2.118.594 3.032.387.906.945 1.687 1.672 2.343.719.649 1.594 1.153 2.625 1.516 1.031.367 2.187.547 3.469.547 1.343 0 2.539-.18 3.578-.547 1.043-.363 1.922-.859 2.64-1.484.711-.633 1.25-1.367 1.625-2.203.368-.844.547-1.743.547-2.704 0-.55-.023-1.05-.078-1.5-.051-.457-.141-.878-.266-1.265-.132-.395-.304-.77-.515-1.125-.219-.352-.477-.711-.781-1.078-.125-.133-.223-.285-.297-.453-.082-.176-.125-.352-.125-.532zm0 0"/></symbol><symbol id="e" overflow="visible"><path d="m-13.109-28.016c1.898 0 3.664.328 5.296.985 1.625.648 3.043 1.562 4.25 2.75 1.2 1.187 2.141 2.621 2.829 4.297.679 1.668 1.015 3.523 1.015 5.562 0 2.043-.336 3.902-1.015 5.578-.688 1.68-1.629 3.117-2.829 4.313-1.207 1.187-2.625 2.109-4.25 2.765-1.632.649-3.398.969-5.296.969-1.895 0-3.657-.32-5.282-.969-1.632-.656-3.05-1.578-4.25-2.765-1.195-1.196-2.132-2.633-2.812-4.313-.688-1.676-1.031-3.535-1.031-5.578 0-2.039.343-3.894 1.031-5.562.687-1.676 1.633-3.11 2.828-4.297 1.199-1.188 2.617-2.102 4.25-2.75 1.625-.657 3.383-.985 5.266-.985zm0 6.219c-1.289 0-2.457.168-3.5.5-1.039.336-1.922.82-2.641 1.453-.719.625-1.266 1.399-1.641 2.313-.382.906-.578 1.945-.578 3.109 0 1.18.196 2.227.578 3.141.375.918.922 1.695 1.641 2.328.719.625 1.602 1.105 2.641 1.437 1.043.336 2.211.5 3.5.5 1.304 0 2.476-.164 3.515-.5 1.043-.332 1.922-.812 2.641-1.437.719-.633 1.265-1.41 1.64-2.328.375-.914.563-1.961.563-3.141 0-1.164-.188-2.203-.563-3.109-.375-.914-.921-1.688-1.64-2.313-.719-.633-1.598-1.117-2.641-1.453-1.039-.332-2.211-.5-3.515-.5zm0 0"/></symbol><symbol id="f" overflow="visible"><path d="m-4.859-8.234v-9.719h4.859v15.797h-26.203v-6.078zm0 0"/></symbol><symbol id="g" overflow="visible"><path d="m-26.203-19.031h4.672v10.765h6.125v-8.25h4.484v8.25h6.25v-10.765h4.672v16.875h-26.203zm0 0"/></symbol><symbol id="h" overflow="visible"><path d="m-26.203-21.188h4.812v7.375h21.391v6.079h-21.391v7.375h-4.812zm0 0"/></symbol><symbol id="i" overflow="visible"><path d="m0-8.813v6.11h-26.203v-6.11zm0 0"/></symbol><symbol id="j" overflow="visible"><path d="m-26.203-5.359c0-.258.015-.477.047-.657.023-.187.062-.347.125-.484.062-.145.156-.285.281-.422.117-.133.277-.285.484-.453l15.735-12.438c-.5.043-.985.079-1.453.11-.477.023-.93.031-1.36.031h-13.859v-5.359h26.203v3.156c0 .469-.07.867-.219 1.187-.144.325-.406.637-.781.938l-15.625 12.359c.461-.039.906-.07 1.344-.093.437-.02.851-.032 1.234-.032h14.047v5.36h-26.203zm0 0"/></symbol><symbol id="k" overflow="visible"/><symbol id="l" overflow="visible"><path d="m-12.734-26.469c1.968 0 3.757.297 5.359.891 1.594.586 2.961 1.406 4.094 2.469 1.136 1.062 2.011 2.339 2.625 3.828.617 1.492.922 3.14.922 4.953 0 1.781-.305 3.418-.922 4.906-.614 1.492-1.489 2.766-2.625 3.828-1.133 1.063-2.5 1.891-4.094 2.485-1.602.593-3.391.89-5.359.89-1.957 0-3.735-.297-5.329-.89-1.601-.594-2.968-1.422-4.093-2.485-1.133-1.062-2.016-2.336-2.641-3.828-.625-1.488-.937-3.125-.937-4.906 0-1.813.308-3.461.921-4.953.618-1.489 1.497-2.766 2.641-3.828 1.137-1.063 2.508-1.883 4.109-2.469 1.594-.594 3.372-.891 5.329-.891zm0 1.906c-1.77 0-3.364.247-4.782.735-1.414.492-2.613 1.183-3.593 2.078-.989.898-1.743 1.977-2.266 3.234-.52 1.25-.781 2.649-.781 4.188 0 1.512.261 2.89.781 4.14.523 1.25 1.277 2.329 2.266 3.235.98.906 2.179 1.609 3.593 2.109 1.418.5 3.012.75 4.782.75 1.793 0 3.39-.25 4.796-.75 1.407-.5 2.606-1.203 3.594-2.109.981-.906 1.731-1.985 2.25-3.235.512-1.25.766-2.628.766-4.14 0-1.539-.254-2.938-.766-4.188-.519-1.257-1.269-2.336-2.25-3.234-.988-.895-2.187-1.586-3.594-2.078-1.406-.488-3.003-.735-4.796-.735zm0 0"/></symbol><symbol id="m" overflow="visible"><path d="m-7.406-16c.336-.188.695-.344 1.078-.469-.195-.07-.383-.144-.563-.219-.187-.082-.363-.171-.531-.265l-17.687-10c-.157-.102-.25-.203-.282-.297-.039-.094-.062-.223-.062-.391v-1.281h25.453v1.625h-21.688c-.312 0-.64-.019-.984-.062l17.781 10.015c.313.18.469.418.469.719v.297c0 .305-.156.543-.469.719l-17.812 10.281c.355-.031.695-.047 1.015-.047h21.688v1.594h-25.453v-1.25c0-.164.023-.301.062-.407.032-.101.125-.203.282-.296zm0 0"/></symbol><symbol id="n" overflow="visible"><path d="m0-3.781h-25.453v-7.313c0-1.445.148-2.703.437-3.765.293-1.063.719-1.942 1.282-2.641.554-.695 1.23-1.211 2.031-1.547.805-.344 1.715-.516 2.734-.516.668 0 1.313.122 1.938.36.625.23 1.203.57 1.734 1.015.524.438.981.981 1.375 1.625.387.637.684 1.368.891 2.188.293-2 .953-3.535 1.984-4.609 1.031-1.082 2.399-1.625 4.094-1.625 1.074 0 2.043.195 2.906.578.867.386 1.602.945 2.203 1.672.594.73 1.055 1.632 1.375 2.703.313 1.062.469 2.273.469 3.625zm-12.188-1.828h10.719v-6.391c0-2.238-.484-3.926-1.453-5.063-.969-1.144-2.328-1.718-4.078-1.718-.801 0-1.52.156-2.156.468-.645.305-1.192.747-1.641 1.329-.445.574-.789 1.281-1.031 2.125-.238.836-.36 1.781-.36 2.843zm-1.359 0v-5.516c0-1.176-.144-2.18-.437-3.016-.301-.832-.696-1.515-1.188-2.047-.5-.539-1.055-.937-1.672-1.187-.625-.25-1.269-.375-1.937-.375-1.707 0-3 .543-3.875 1.625-.883 1.086-1.328 2.762-1.328 5.031v5.485zm0 0"/></symbol><symbol id="o" overflow="visible"><path d="m-11.516-6.156h11.516v1.843h-25.453v-6.5c0-2.937.57-5.128 1.703-6.578 1.137-1.445 2.805-2.172 5-2.172.969 0 1.855.168 2.656.5.805.336 1.508.821 2.11 1.454.605.625 1.105 1.382 1.5 2.265.386.887.64 1.887.765 3 .18-.281.418-.535.719-.765l11-8.766v1.609c0 .188-.035.356-.109.5-.071.137-.192.266-.36.391l-10.328 8.156c-.258.199-.441.418-.547.656-.113.231-.172.59-.172 1.079zm-1.359 0v-4.422c0-1.125-.133-2.129-.406-3.016-.27-.894-.657-1.648-1.157-2.265-.507-.625-1.113-1.098-1.812-1.422-.707-.321-1.508-.485-2.406-.485-1.801 0-3.141.594-4.016 1.782-.875 1.187-1.312 2.914-1.312 5.171v4.657zm0 0"/></symbol><symbol id="p" overflow="visible"><path d="m0-22.938v1.422c0 .18-.039.321-.125.422-.094.106-.211.188-.359.25l-7.391 3v12.5l7.391 2.985c.136.054.25.14.343.265.094.117.141.258.141.422v1.406l-25.453-10.422v-1.828zm-9.25 17.032v-11.391l-12.859 5.188c-.196.086-.426.171-.688.265-.258.086-.531.168-.812.25.281.086.554.168.812.25.262.086.5.168.719.25zm0 0"/></symbol><symbol id="q" overflow="visible"><path d="m-1.203-14.719c0-.875-.039-1.672-.125-2.39-.094-.719-.227-1.383-.406-2-.188-.614-.407-1.196-.657-1.75-.257-.563-.55-1.125-.875-1.688h-6.859v4.891c0 .125-.039.234-.125.328-.082.094-.176.14-.281.14h-1.016v-7.031h9.047c.449.637.844 1.297 1.187 1.985.344.679.637 1.406.875 2.187.231.774.407 1.609.532 2.516.125.898.187 1.883.187 2.953 0 1.836-.304 3.512-.922 5.031-.613 1.512-1.488 2.809-2.625 3.891-1.132 1.086-2.504 1.929-4.109 2.531-1.602.594-3.391.891-5.359.891-1.969 0-3.75-.297-5.344-.891-1.602-.602-2.973-1.457-4.11-2.563-1.132-1.101-2.007-2.441-2.625-4.015-.613-1.57-.921-3.336-.921-5.297 0-.969.07-1.863.203-2.688.125-.82.32-1.585.578-2.296.262-.707.578-1.364.953-1.969.375-.613.809-1.203 1.297-1.766l.797.485c.179.105.265.257.265.453 0 .105-.019.203-.062.297-.07.187-.238.453-.5.796-.27.336-.547.793-.828 1.375-.289.586-.551 1.313-.782 2.188-.226.875-.343 1.937-.343 3.187 0 1.649.265 3.137.797 4.469.523 1.336 1.277 2.477 2.265 3.422.981.938 2.18 1.664 3.594 2.172 1.418.5 3.008.75 4.766.75 1.804 0 3.418-.254 4.843-.766 1.43-.519 2.637-1.242 3.625-2.172.993-.925 1.75-2.039 2.282-3.343.523-1.301.781-2.739.781-4.313zm0 0"/></symbol><symbol id="r" overflow="visible"><path d="m-25.453-19.031h1.531v13.406h10.297v-11.156h1.484v11.156h10.61v-13.406h1.531v15.25h-25.453zm0 0"/></symbol><symbol id="s" overflow="visible"/><symbol id="t" overflow="visible"><path d="m-25.734-11.859c0-.801.14-1.563.421-2.282.274-.718.641-1.343 1.11-1.875.469-.531 1.012-.953 1.625-1.265.617-.321 1.262-.492 1.937-.516.032.168.071.313.11.438.054.281.078.5.078.656 0 .094-.035.183-.11.265-.07.086-.171.141-.296.172-.313.094-.672.246-1.079.453-.406.2-.785.469-1.14.813-.363.344-.672.781-.922 1.312-.258.524-.391 1.133-.391 1.829 0 .73.118 1.386.344 1.968.219.586.531 1.09.938 1.516.398.418.871.746 1.421.984.555.231 1.157.344 1.813.344.992 0 1.934-.25 2.828-.75.899-.508 1.859-1.289 2.891-2.344l7.922-8.031c-.864-.531-1.766-.953-2.704-1.266-.937-.32-1.843-.535-2.718-.64-.157-.02-.274-.067-.36-.141-.093-.07-.14-.176-.14-.312v-1c1.125.031 2.289.25 3.484.656 1.188.398 2.328.965 3.422 1.703l5.25-5.359v1.593c0 .219-.02.403-.063.547-.05.137-.16.293-.328.469l-3.625 3.688c.625.543 1.203 1.136 1.735 1.781.523.648.976 1.351 1.359 2.109.375.75.672 1.559.891 2.422.207.856.312 1.758.312 2.703 0 .899-.148 1.781-.437 2.656-.301.875-.742 1.657-1.328 2.344-.582.688-1.297 1.246-2.141 1.672-.844.43-1.805.641-2.891.641-.863 0-1.687-.157-2.468-.469-.782-.313-1.5-.734-2.157-1.266-.656-.539-1.238-1.179-1.75-1.922-.519-.75-.941-1.554-1.265-2.421-.957.855-1.891 1.496-2.797 1.921-.906.418-1.875.625-2.906.625-.832 0-1.602-.148-2.313-.453-.719-.3-1.344-.734-1.875-1.297-.531-.562-.941-1.234-1.234-2.015-.301-.789-.453-1.676-.453-2.656zm19.109 8.203c.93 0 1.734-.176 2.422-.532.68-.351 1.25-.812 1.719-1.375.461-.562.804-1.187 1.031-1.875.23-.687.344-1.367.344-2.046 0-.832-.094-1.625-.282-2.375-.195-.75-.468-1.446-.812-2.094-.344-.656-.75-1.254-1.219-1.797-.469-.551-.984-1.055-1.547-1.516l-8.109 8.25c-.063.075-.125.141-.188.203.336.793.735 1.512 1.203 2.157.469.636.993 1.179 1.563 1.625.562.437 1.18.777 1.844 1.015.656.243 1.336.36 2.031.36zm0 0"/></symbol><symbol id="u" overflow="visible"><path d="m0-6.297v1.859h-25.453v-1.859zm0 0"/></symbol><symbol id="v" overflow="visible"><path d="m-22.359-16.078c.211.105.312.262.312.469 0 .156-.109.359-.328.609-.227.242-.477.574-.75 1-.27.418-.516.945-.734 1.578-.227.625-.344 1.399-.344 2.313 0 .929.133 1.742.39 2.437.262.699.622 1.289 1.079 1.766.461.468.992.828 1.593 1.078.594.25 1.219.375 1.875.375.868 0 1.578-.18 2.141-.547.562-.375 1.043-.859 1.437-1.453.399-.602.731-1.285 1-2.047.274-.758.543-1.539.813-2.344.262-.801.555-1.582.875-2.344.312-.757.711-1.437 1.187-2.031.481-.601 1.071-1.086 1.766-1.453.699-.375 1.574-.562 2.625-.562 1.063 0 2.07.187 3.016.562.937.367 1.758.899 2.453 1.594.687.687 1.234 1.539 1.64 2.547.395 1 .594 2.152.594 3.453 0 1.68-.297 3.121-.89 4.328-.594 1.211-1.407 2.273-2.438 3.187l-.781-.5c-.176-.144-.266-.316-.266-.515 0-.102.074-.238.219-.406.137-.164.309-.368.516-.61.211-.238.437-.523.687-.859.25-.344.481-.735.688-1.172.211-.445.386-.957.531-1.531.148-.571.219-1.227.219-1.969 0-1-.149-1.895-.454-2.688-.312-.789-.726-1.457-1.25-2-.531-.55-1.16-.968-1.89-1.25-.727-.289-1.504-.437-2.328-.437-.895 0-1.633.184-2.219.547-.582.367-1.066.851-1.453 1.453-.395.594-.723 1.273-.985 2.031-.269.762-.531 1.547-.781 2.36-.25.804-.531 1.586-.844 2.343-.312.762-.707 1.446-1.187 2.047-.488.594-1.094 1.074-1.813 1.438-.726.367-1.64.547-2.734.547-.851 0-1.676-.161-2.469-.485-.789-.32-1.488-.797-2.093-1.422-.602-.625-1.086-1.394-1.454-2.312-.363-.914-.546-1.961-.546-3.141 0-1.312.211-2.492.625-3.547.418-1.05 1.058-2.007 1.921-2.875zm0 0"/></symbol><symbol id="w" overflow="visible"><path d="m7.297-9.281c-.086.125-.172.226-.266.297-.086.062-.195.093-.328.093-.125 0-.262-.035-.406-.109-.137-.082-.297-.172-.484-.266-.18-.101-.383-.191-.61-.265-.23-.071-.492-.11-.781-.11-.512 0-.891.11-1.141.328-.242.211-.355.497-.343.86 0 .242.07.437.218.594.157.156.36.293.61.406.25.105.523.203.828.297.312.093.633.199.969.312.332.117.656.25.968.406.313.157.586.356.828.594.25.242.454.531.61.875s.238.758.25 1.235c.008.543-.078 1.046-.266 1.515-.18.469-.445.883-.797 1.235-.343.343-.777.617-1.297.812-.511.195-1.093.297-1.75.297-.367 0-.734-.039-1.109-.109-.375-.071-.746-.176-1.109-.313-.356-.133-.688-.297-1-.484-.305-.188-.575-.395-.813-.625l.781-1.266c.063-.094.145-.164.25-.219.102-.062.219-.093.344-.093.164 0 .328.054.485.156.164.094.347.203.546.328.207.125.446.242.719.344.27.093.586.14.953.14.489 0 .864-.101 1.125-.312.27-.219.399-.563.391-1.031 0-.27-.078-.489-.234-.657-.149-.175-.344-.32-.594-.437-.242-.113-.516-.211-.828-.297-.305-.082-.621-.176-.953-.281-.336-.102-.657-.227-.969-.375-.305-.157-.578-.36-.828-.61s-.453-.554-.61-.922c-.148-.375-.226-.832-.234-1.375-.012-.437.066-.863.234-1.281.176-.414.426-.785.75-1.109.332-.32.742-.578 1.235-.766.5-.195 1.07-.297 1.718-.297.352 0 .696.028 1.032.078.343.055.664.137.968.25.301.106.586.235.86.391.269.149.508.32.719.516zm0 0"/></symbol><symbol id="x" overflow="visible"><path d="m5.766-2.141c.363 0 .687-.054.968-.172.282-.125.516-.296.704-.515.195-.227.343-.5.437-.813.102-.32.156-.691.156-1.109l-.125-6.891h2.703l.125 6.891c.008.719-.101 1.375-.328 1.969-.218.593-.543 1.109-.968 1.547-.43.429-.95.761-1.563 1-.605.238-1.297.359-2.078.359-.774 0-1.469-.121-2.094-.359-.625-.239-1.156-.571-1.594-1-.437-.438-.777-.954-1.015-1.547-.242-.594-.367-1.25-.375-1.969l-.125-6.891h2.703l.125 6.891c0 .406.051.773.156 1.094.113.324.27.601.469.828.207.219.457.39.75.515.289.118.613.172.969.172zm0 0"/></symbol><symbol id="y" overflow="visible"><path d="m3.578-4.313.078 4.313h-2.703l-.203-11.641h3.797c.844 0 1.562.09 2.156.266.602.168 1.094.406 1.469.719.383.304.664.668.844 1.093.175.418.269.875.281 1.375 0 .375-.047.731-.141 1.063-.093.336-.242.648-.437.937-.188.282-.43.54-.719.766-.293.219-.621.402-.984.547.175.094.343.211.5.344.156.125.297.289.422.484l2.546 4.047h-2.437c-.461 0-.793-.172-1-.516l-1.984-3.375c-.094-.144-.2-.25-.313-.312-.117-.07-.277-.11-.484-.11zm-.031-1.859h1.094c.363 0 .675-.047.937-.141.258-.093.469-.218.625-.375.156-.164.27-.359.344-.578.07-.226.109-.472.109-.734-.011-.508-.187-.906-.531-1.188-.336-.289-.852-.437-1.547-.437h-1.094zm0 0"/></symbol><symbol id="z" overflow="visible"><path d="m.688-5.859h4.312l.047 2h-4.313zm0 0"/></symbol><symbol id="A" overflow="visible"><path d="m6.813-5.328c.113.211.222.422.328.64.101.219.203.446.297.672.082-.238.171-.468.265-.687s.195-.43.313-.641l2.875-5.89c.05-.094.101-.164.156-.219.062-.063.125-.102.187-.125.071-.031.149-.047.235-.047.094-.008.195-.016.312-.016h2.063l.203 11.641h-2.375l-.125-6.703c0-.32.008-.672.031-1.047l-2.984 5.984c-.094.188-.219.328-.375.422s-.34.141-.547.141h-.359c-.211 0-.403-.047-.579-.141-.168-.094-.296-.234-.39-.422l-3.203-6c.031.188.05.375.062.563.008.187.016.355.016.5l.125 6.703h-2.391l-.203-11.641h2.063c.125 0 .226.008.312.016.082 0 .16.016.234.047.071.023.133.062.188.125.062.055.117.125.172.219zm0 0"/></symbol><symbol id="B" overflow="visible"><path d="m8.25-11.641.031 2.078h-4.781l.047 2.719h3.672l.047 2h-3.672l.047 2.766h4.781l.031 2.078h-7.5l-.203-11.641zm0 0"/></symbol><symbol id="C" overflow="visible"><path d="m7.625-3.891c.008.606-.074 1.149-.25 1.625-.168.481-.414.891-.734 1.235-.325.336-.711.59-1.157.765-.449.18-.949.266-1.5.266h-2.828l-.14-7.766h2.828c.551 0 1.054.09 1.515.266.457.18.852.437 1.188.781.332.336.594.742.781 1.219.188.48.285 1.016.297 1.609zm-.578 0c-.012-.539-.102-1.019-.266-1.437-.156-.426-.375-.785-.656-1.078-.273-.301-.602-.524-.984-.672-.387-.156-.813-.235-1.282-.235h-2.265l.109 6.86h2.266c.469 0 .894-.078 1.281-.235.383-.156.707-.378.969-.671.269-.289.476-.645.625-1.063.144-.426.211-.914.203-1.469zm0 0"/></symbol><symbol id="D" overflow="visible"><path d="m1.469-5.469.094 5.469h-.516l-.094-5.469zm.203-1.875c0 .063-.016.125-.047.188-.023.054-.059.101-.109.14-.043.043-.094.078-.157.11-.054.023-.109.031-.171.031-.075 0-.141-.008-.204-.031-.054-.032-.101-.067-.14-.11-.043-.039-.078-.086-.11-.14-.023-.063-.031-.125-.031-.188 0-.07.008-.133.031-.187.02-.063.051-.114.094-.157.039-.05.086-.085.141-.109.062-.031.129-.047.203-.047.062 0 .117.016.172.047.062.024.113.059.156.109.051.043.094.094.125.157.031.054.047.117.047.187zm0 0"/></symbol><symbol id="E" overflow="visible"><path d="m1.094 0-.078-4.891-.782-.047c-.105-.007-.156-.054-.156-.14v-.219h.922l-.016-.687c0-.313.036-.582.11-.813.07-.238.179-.437.328-.594.144-.164.316-.285.516-.359.207-.082.437-.125.687-.125.113 0 .227.012.344.031.113.024.219.055.312.094v.25c-.011.055-.047.078-.109.078-.043 0-.106-.004-.188-.016-.074-.007-.164-.015-.265-.015-.18 0-.344.027-.5.078-.156.055-.293.137-.406.25-.106.117-.184.273-.235.469-.055.187-.078.418-.078.687l.016.672h1.765l.016.391h-1.766l.078 4.906zm0 0"/></symbol><symbol id="F" overflow="visible"><path d="m2.859-5.547c.301 0 .582.055.844.156.27.106.5.262.688.469.195.199.351.449.468.75.114.293.172.633.172 1.016.008.086.004.14-.015.172-.024.023-.059.031-.11.031h-3.953v.109c0 .406.051.766.156 1.078.102.313.243.575.422.782.176.211.391.371.641.484.258.105.539.156.844.156.281 0 .515-.031.703-.094.195-.062.363-.128.5-.203.144-.07.254-.14.328-.203.082-.062.144-.094.187-.094.039 0 .079.024.11.063l.14.172c-.093.117-.211.219-.343.312-.137.094-.293.18-.469.25-.18.063-.371.118-.578.157-.199.039-.403.062-.61.062-.375 0-.718-.062-1.031-.187-.305-.133-.57-.329-.797-.579-.218-.25-.39-.55-.515-.906-.125-.363-.196-.781-.203-1.25-.012-.394.035-.754.14-1.078.102-.332.258-.617.469-.859.207-.239.461-.426.766-.563.3-.133.648-.203 1.046-.203zm0 .391c-.281 0-.531.043-.75.125-.218.086-.414.211-.578.375-.156.168-.281.367-.375.593-.093.231-.164.493-.203.782h3.61c0-.289-.047-.551-.141-.782-.086-.238-.199-.437-.344-.593-.148-.164-.324-.289-.531-.375-.211-.082-.438-.125-.688-.125zm1.188-2.703-1.156 1.39c-.032.031-.063.059-.094.078-.031.012-.07.016-.109.016h-.313l.828-1.313c.039-.062.082-.101.125-.125.039-.031.11-.046.203-.046zm0 0"/></symbol><symbol id="G" overflow="visible"><path d="m.891 0-.094-5.469h.281c.051 0 .094.016.125.047.031.024.047.063.047.125l.063 1.156c.175-.445.406-.797.687-1.047.289-.25.648-.375 1.078-.375.164 0 .317.024.453.063.145.031.282.078.407.141l-.079.359c0 .062-.031.094-.093.094-.024 0-.059-.004-.11-.016-.043-.019-.093-.035-.156-.047-.055-.019-.125-.035-.219-.047-.086-.019-.183-.031-.297-.031-.418 0-.757.133-1.015.391-.262.25-.469.621-.625 1.109l.062 3.547zm0 0"/></symbol><symbol id="H" overflow="visible"><path d="m2.859-5.547c.301 0 .582.055.844.156.27.106.5.262.688.469.195.199.351.449.468.75.114.293.172.633.172 1.016.008.086.004.14-.015.172-.024.023-.059.031-.11.031h-3.953v.109c0 .406.051.766.156 1.078.102.313.243.575.422.782.176.211.391.371.641.484.258.105.539.156.844.156.281 0 .515-.031.703-.094.195-.062.363-.128.5-.203.144-.07.254-.14.328-.203.082-.062.144-.094.187-.094.039 0 .079.024.11.063l.14.172c-.093.117-.211.219-.343.312-.137.094-.293.18-.469.25-.18.063-.371.118-.578.157-.199.039-.403.062-.61.062-.375 0-.718-.062-1.031-.187-.305-.133-.57-.329-.797-.579-.218-.25-.39-.55-.515-.906-.125-.363-.196-.781-.203-1.25-.012-.394.035-.754.14-1.078.102-.332.258-.617.469-.859.207-.239.461-.426.766-.563.3-.133.648-.203 1.046-.203zm0 .391c-.281 0-.531.043-.75.125-.218.086-.414.211-.578.375-.156.168-.281.367-.375.593-.093.231-.164.493-.203.782h3.61c0-.289-.047-.551-.141-.782-.086-.238-.199-.437-.344-.593-.148-.164-.324-.289-.531-.375-.211-.082-.438-.125-.688-.125zm0 0"/></symbol><symbol id="I" overflow="visible"><path d="m.891 0-.094-5.469h.281c.094 0 .149.047.172.141l.063.828c.238-.313.519-.563.843-.75.332-.195.703-.297 1.11-.297.3 0 .566.047.797.141.226.093.421.23.578.406.156.18.273.398.359.656.082.25.125.531.125.844l.063 3.5h-.532l-.062-3.5c-.012-.508-.137-.91-.375-1.203-.242-.289-.602-.438-1.078-.438-.356 0-.684.094-.985.282-.304.187-.578.445-.828.765l.078 4.094zm0 0"/></symbol><symbol id="J" overflow="visible"><path d="m2.391.094c-.375 0-.672-.102-.891-.313-.211-.207-.312-.523-.312-.953l-.063-3.734h-.781c-.043 0-.078-.008-.11-.032-.031-.019-.046-.05-.046-.093v-.203l.937-.063.094-1.953c.008-.031.023-.055.047-.078.019-.031.05-.047.093-.047h.25l.032 2.078h1.718l.016.391h-1.719l.063 3.703c0 .156.015.293.047.406.039.106.097.195.172.266.07.062.156.109.25.14.093.032.191.047.296.047.133 0 .243-.015.329-.047.093-.039.175-.082.25-.125.07-.05.128-.093.171-.125.039-.039.071-.062.094-.062.031 0 .063.015.094.047l.156.234c-.137.156-.312.281-.531.375-.211.094-.43.141-.656.141zm0 0"/></symbol><symbol id="K" overflow="visible"><path d="m3.828-4.797c-.031.055-.074.078-.125.078-.043 0-.094-.019-.156-.062-.063-.039-.152-.086-.266-.141-.105-.062-.234-.113-.39-.156-.157-.051-.344-.078-.563-.078-.199 0-.383.031-.547.093-.156.055-.293.125-.406.219-.105.094-.187.203-.25.328-.062.125-.094.262-.094.407.008.168.055.308.141.421.094.118.207.215.344.297.144.086.312.157.5.219.187.055.375.109.562.172.188.055.367.117.547.187.188.075.352.165.5.266.145.106.258.234.344.391.094.156.14.343.14.562.008.242-.027.465-.109.672-.086.199-.203.375-.359.531-.157.149-.356.266-.594.36-.242.082-.512.125-.813.125-.386 0-.718-.063-1-.188-.281-.125-.539-.285-.765-.484l.125-.188c.019-.031.039-.05.062-.062.02-.008.051-.016.094-.016.051 0 .109.031.172.094.07.055.164.117.281.187.113.063.254.125.422.188.176.055.383.078.625.078.227 0 .426-.031.594-.094.176-.062.32-.144.437-.25.125-.113.211-.242.266-.39.062-.157.086-.317.078-.485 0-.175-.047-.32-.141-.437-.086-.125-.199-.227-.343-.313-.149-.093-.313-.164-.5-.218-.18-.063-.368-.118-.563-.172-.187-.063-.375-.125-.562-.188-.18-.07-.34-.16-.485-.265-.148-.114-.265-.243-.359-.391-.086-.156-.133-.348-.141-.578 0-.188.039-.367.125-.547.082-.188.196-.348.344-.484.156-.133.344-.239.563-.313.226-.082.484-.125.765-.125.332 0 .625.047.875.141.258.093.5.242.719.437zm0 0"/></symbol><symbol id="L" overflow="visible"/><symbol id="M" overflow="visible"><path d="m.891 0-.094-5.469h.281c.094 0 .149.047.172.141l.063.797c.101-.157.21-.297.328-.422.113-.125.238-.227.375-.313.144-.093.297-.16.453-.203.156-.051.316-.078.484-.078.395 0 .711.117.953.344.25.23.414.555.5.969.071-.227.16-.422.266-.579.113-.164.25-.3.406-.406.156-.113.32-.195.5-.25.188-.051.375-.078.563-.078.269 0 .507.047.718.141.219.086.407.215.563.39.164.18.289.399.375.657.082.25.125.539.125.859l.062 3.5h-.531l-.062-3.5c-.012-.531-.137-.938-.375-1.219-.231-.281-.559-.422-.985-.422-.187 0-.371.039-.547.11-.179.074-.328.179-.453.312-.125.137-.23.309-.312.516-.074.199-.11.433-.11.703l.063 3.5h-.516l-.062-3.5c-.012-.531-.125-.938-.344-1.219s-.531-.422-.937-.422c-.293 0-.563.09-.813.266-.25.18-.477.43-.672.75l.078 4.125zm0 0"/></symbol><symbol id="N" overflow="visible"><path d="m2.875-5.547c.395 0 .742.07 1.047.203.312.125.578.313.797.563.219.242.383.539.5.89.113.344.176.731.187 1.157.008.429-.039.812-.14 1.156-.106.344-.262.64-.469.89-.211.243-.469.43-.781.563-.305.133-.653.203-1.047.203-.387 0-.735-.07-1.047-.203-.313-.133-.578-.32-.797-.563-.219-.25-.387-.546-.5-.89-.117-.344-.18-.727-.187-1.156-.012-.426.035-.813.14-1.157.102-.351.258-.648.469-.89.207-.25.469-.438.781-.563.313-.133.66-.203 1.047-.203zm.094 5.203c.32 0 .601-.051.844-.156.238-.113.437-.273.593-.484.164-.207.285-.457.36-.75.082-.301.117-.633.109-1-.012-.364-.062-.692-.156-.985-.086-.301-.211-.554-.375-.765-.156-.207-.36-.368-.61-.485-.25-.113-.539-.172-.859-.172-.324 0-.605.059-.844.172-.242.117-.445.278-.609.485-.156.211-.277.464-.359.765-.075.293-.106.621-.094.985.008.367.054.699.14 1 .094.293.219.543.375.75.164.211.375.371.625.484.25.105.536.156.86.156zm0 0"/></symbol><symbol id="O" overflow="visible"><path d="m4.766 0c-.094 0-.149-.047-.157-.141l-.078-.859c-.242.324-.523.586-.843.781-.313.199-.672.297-1.079.297-.668 0-1.195-.234-1.578-.703-.375-.469-.574-1.164-.593-2.094-.012-.394.031-.765.125-1.109.101-.352.253-.656.453-.906.195-.258.441-.461.734-.61.289-.144.629-.219 1.016-.219.375 0 .695.075.968.219.27.137.508.336.719.594l-.062-3.234h.515l.141 7.984zm-2.016-.344c.363 0 .688-.094.969-.281.289-.188.551-.445.781-.781l-.047-2.891c-.219-.312-.461-.531-.719-.656-.261-.125-.554-.188-.875-.188-.312 0-.589.059-.828.172-.242.117-.445.281-.609.5-.156.211-.277.465-.359.766-.075.305-.106.633-.094.984.008.813.172 1.414.484 1.797.313.387.742.578 1.297.578zm0 0"/></symbol><symbol id="P" overflow="visible"><path d="m2.859-5.547c.301 0 .582.055.844.156.27.106.5.262.688.469.195.199.351.449.468.75.114.293.172.633.172 1.016.008.086.004.14-.015.172-.024.023-.059.031-.11.031h-3.953v.109c0 .406.051.766.156 1.078.102.313.243.575.422.782.176.211.391.371.641.484.258.105.539.156.844.156.281 0 .515-.031.703-.094.195-.062.363-.128.5-.203.144-.07.254-.14.328-.203.082-.062.144-.094.187-.094.039 0 .079.024.11.063l.14.172c-.093.117-.211.219-.343.312-.137.094-.293.18-.469.25-.18.063-.371.118-.578.157-.199.039-.403.062-.61.062-.375 0-.718-.062-1.031-.187-.305-.133-.57-.329-.797-.579-.218-.25-.39-.55-.515-.906-.125-.363-.196-.781-.203-1.25-.012-.394.035-.754.14-1.078.102-.332.258-.617.469-.859.207-.239.461-.426.766-.563.3-.133.648-.203 1.046-.203zm0 .391c-.281 0-.531.043-.75.125-.218.086-.414.211-.578.375-.156.168-.281.367-.375.593-.093.231-.164.493-.203.782h3.61c0-.289-.047-.551-.141-.782-.086-.238-.199-.437-.344-.593-.148-.164-.324-.289-.531-.375-.211-.082-.438-.125-.688-.125zm-.671-2.703c.082 0 .144.015.187.046.039.024.082.063.125.125l.891 1.313h-.282c-.054 0-.093-.004-.125-.016-.031-.019-.058-.047-.078-.078l-1.234-1.39zm0 0"/></symbol><symbol id="Q" overflow="visible"><path d="m1.422-7.984.141 7.984h-.516l-.141-7.984zm0 0"/></symbol><symbol id="R" overflow="visible"><path d="m1.172-8.109c.082.136.144.277.187.421.039.137.063.274.063.407 0 .281-.07.558-.203.828-.137.262-.309.5-.516.719l-.172-.11c-.023-.019-.031-.047-.031-.078 0-.019.008-.039.031-.062.133-.188.242-.375.328-.563.094-.187.141-.379.141-.578 0-.207-.074-.422-.219-.641-.011-.031-.015-.062-.015-.093 0-.051.023-.086.078-.11zm0 0"/></symbol><symbol id="S" overflow="visible"><path d="m4.375 0c-.105 0-.172-.051-.203-.156l-.094-.688c-.148.149-.293.278-.437.391-.149.117-.305.215-.469.297-.156.086-.328.148-.516.187-.179.039-.383.063-.609.063-.188 0-.371-.031-.547-.094-.18-.051-.336-.133-.469-.25-.136-.113-.246-.258-.328-.438-.086-.175-.125-.39-.125-.64-.012-.227.047-.442.172-.641.125-.195.328-.367.609-.515.282-.145.641-.258 1.079-.344.437-.094.968-.145 1.593-.156l-.015-.579c-.012-.5-.133-.882-.36-1.156-.218-.281-.543-.422-.968-.422-.262 0-.485.039-.672.11-.188.074-.344.156-.469.25-.125.086-.231.164-.313.234-.074.074-.136.109-.187.109-.074 0-.133-.031-.172-.093l-.094-.157c.282-.289.578-.507.891-.656.312-.144.664-.219 1.062-.219.289 0 .547.047.766.141.227.094.414.231.563.406.144.18.257.391.343.641.082.242.125.512.125.812l.063 3.563zm-2.187-.297c.207 0 .398-.019.578-.062.175-.039.336-.102.484-.188.145-.082.285-.18.422-.297.133-.113.266-.238.391-.375l-.032-1.422c-.523.024-.968.063-1.343.125-.375.063-.684.153-.922.266-.243.105-.418.234-.532.391-.117.148-.171.32-.171.515.007.18.046.336.109.469.062.137.144.25.25.344.101.086.219.148.344.187.132.031.273.047.422.047zm0 0"/></symbol><symbol id="T" overflow="visible"><path d="m.938 0-.141-7.984h.531l.063 3.468c.226-.32.504-.57.828-.75.32-.187.679-.281 1.078-.281.664 0 1.187.234 1.562.703.383.461.586 1.153.61 2.078.008.399-.039.774-.141 1.125-.094.344-.242.641-.437.891-.2.25-.446.453-.735.609-.293.145-.633.219-1.015.219-.387 0-.719-.074-1-.219-.274-.156-.512-.379-.719-.672l-.016.672c-.011.094-.058.141-.14.141zm2.203-5.141c-.356 0-.68.094-.969.282-.293.187-.555.449-.781.781l.062 2.89c.207.313.442.532.703.657.258.125.551.187.875.187.321 0 .602-.054.844-.172.238-.113.438-.273.594-.484.164-.219.285-.477.359-.781.07-.301.11-.629.11-.985-.012-.812-.172-1.41-.485-1.797-.312-.382-.75-.578-1.312-.578zm0 0"/></symbol><symbol id="U" overflow="visible"><path d="m1.188-5.469.062 3.5c.008.512.133.914.375 1.203.238.293.598.438 1.078.438.352 0 .68-.086.985-.266.3-.187.57-.441.812-.765l-.062-4.11h.515l.094 5.469h-.281c-.106 0-.157-.047-.157-.141l-.078-.812c-.25.312-.539.57-.859.765-.324.188-.688.282-1.094.282-.312 0-.586-.047-.812-.141-.219-.101-.407-.242-.563-.422-.156-.176-.277-.39-.359-.64-.086-.258-.125-.547-.125-.86l-.063-3.5zm0 0"/></symbol><symbol id="V" overflow="visible"><path d="m.922 1.938-.125-7.407h.281c.051 0 .086.012.11.031.031.024.05.059.062.11l.063.844c.226-.321.503-.582.828-.782.32-.195.687-.297 1.093-.297.676 0 1.204.235 1.579.704.375.468.57 1.168.593 2.093.008.399-.039.774-.14 1.125-.094.344-.243.641-.438.891-.187.25-.433.453-.734.609-.293.145-.633.219-1.016.219-.375 0-.699-.07-.969-.203-.273-.133-.511-.336-.718-.609l.047 2.672zm2.172-7.079c-.367 0-.696.102-.985.297-.293.188-.554.449-.781.781l.063 2.86c.207.324.441.547.703.672.258.125.554.187.89.187.313 0 .586-.054.829-.172.238-.113.437-.273.593-.484.164-.219.285-.477.36-.781.07-.301.109-.629.109-.985-.012-.812-.172-1.41-.484-1.797-.305-.382-.735-.578-1.297-.578zm0 0"/></symbol><symbol id="W" overflow="visible"><path d="m4.406-4.734c-.023.023-.043.039-.062.046-.012.012-.031.016-.063.016-.031 0-.078-.019-.14-.062-.063-.051-.153-.11-.266-.172-.117-.063-.25-.114-.406-.157-.156-.05-.352-.078-.578-.078-.313 0-.59.059-.828.172-.243.106-.446.266-.61.485-.168.211-.293.461-.375.75-.086.293-.121.625-.109 1 .008.386.062.73.156 1.031.094.293.223.543.391.75.164.199.367.351.609.453.238.105.5.156.781.156.27 0 .489-.031.657-.094.175-.062.32-.128.437-.203.113-.07.203-.14.266-.203.07-.062.129-.094.172-.094.039 0 .078.024.109.063l.141.172c-.086.117-.188.219-.313.312-.125.094-.273.18-.437.25-.157.063-.329.118-.516.157-.188.039-.387.062-.594.062-.344 0-.664-.062-.953-.187-.281-.133-.531-.321-.75-.563-.211-.238-.375-.531-.5-.875-.117-.351-.18-.75-.187-1.187-.012-.414.035-.797.14-1.141.102-.344.254-.641.453-.891.207-.25.461-.441.766-.578.312-.133.664-.203 1.062-.203.352 0 .664.059.938.172.281.105.523.258.734.453zm0 0"/></symbol><symbol id="X" overflow="visible"><path d="m1.328-7.984.078 4.859h.25c.051 0 .098-.004.141-.016.051-.007.101-.047.156-.109l2.172-2.078c.031-.039.066-.07.109-.094.051-.031.11-.047.172-.047h.453l-2.375 2.297c-.031.031-.062.063-.093.094-.032.031-.071.058-.11.078.063.031.114.07.157.109.039.043.082.09.125.141l2.578 2.75h-.453c-.055 0-.102-.008-.141-.031-.043-.02-.086-.051-.125-.094l-2.344-2.469c-.062-.062-.121-.101-.172-.125-.043-.019-.121-.031-.234-.031h-.25l.047 2.75h-.531l-.141-7.984zm0 0"/></symbol><symbol id="Y" overflow="visible"><path d="m2.594-5.563c.238 0 .457.032.656.094.207.063.395.149.563.25h1.39v.172c.008.094-.039.149-.14.156l-.829.063c.102.137.18.293.235.469.062.168.097.351.109.546 0 .274-.047.516-.14.735-.094.211-.227.39-.391.547-.168.148-.371.261-.609.343-.231.086-.493.125-.782.125-.312 0-.601-.046-.859-.14-.149.086-.266.187-.359.312-.086.125-.125.246-.125.36.007.156.066.277.171.359.114.086.258.149.438.188.187.031.394.054.625.062.226.012.461.027.703.047.238.012.473.031.703.062.238.032.445.09.625.172.188.086.336.2.453.344.114.149.172.344.172.594.008.226-.043.445-.156.656-.117.207-.277.391-.484.547-.211.164-.465.297-.766.391-.305.093-.649.14-1.031.14-.387 0-.727-.043-1.016-.125-.281-.074-.523-.179-.719-.312-.199-.125-.351-.278-.453-.453-.105-.18-.156-.368-.156-.563-.012-.293.078-.543.266-.75.187-.207.445-.367.781-.484-.188-.063-.336-.149-.438-.266-.105-.113-.164-.273-.172-.484 0-.082.008-.164.032-.25.031-.082.07-.164.125-.25.062-.082.129-.16.203-.235.082-.07.179-.132.297-.187-.262-.156-.469-.36-.625-.61-.149-.25-.219-.539-.219-.875-.012-.257.031-.492.125-.703.094-.218.223-.406.391-.562.164-.156.367-.274.609-.36.238-.082.504-.125.797-.125zm2.125 5.938c0-.18-.047-.32-.141-.422-.086-.101-.203-.18-.359-.234-.149-.063-.324-.102-.531-.125-.2-.032-.407-.051-.625-.063-.211-.008-.422-.019-.641-.031-.211-.008-.406-.031-.594-.063-.148.055-.277.118-.39.188-.106.074-.204.156-.297.25-.086.086-.153.176-.203.281-.043.114-.059.235-.047.36 0 .164.039.316.125.453.082.133.207.25.375.344.164.101.363.179.593.234.227.062.493.094.797.094.27 0 .524-.032.766-.094.25-.063.457-.152.625-.266.176-.105.312-.242.406-.406.102-.156.149-.324.141-.5zm-2.078-2.797c.238 0 .445-.031.625-.094.187-.07.343-.164.468-.281.125-.125.211-.269.266-.437.063-.164.094-.352.094-.563-.012-.207-.055-.394-.125-.562-.063-.164-.164-.305-.297-.422-.125-.125-.281-.219-.469-.282-.18-.07-.383-.109-.609-.109-.231 0-.438.039-.625.109-.18.063-.328.157-.453.282-.118.117-.211.258-.282.422-.062.168-.089.355-.078.562 0 .211.035.399.11.563.07.168.172.312.297.437.125.117.273.211.453.281.187.063.394.094.625.094zm0 0"/></symbol><symbol id="Z" overflow="visible"><path d="m1.813-3.125.062 3.125h-.562l-.141-7.766h2.016c.906 0 1.593.2 2.062.594.477.399.723.965.734 1.703 0 .344-.062.664-.187.953-.117.282-.293.528-.531.735-.231.199-.516.359-.86.484-.336.117-.715.172-1.14.172zm0-.453h1.453c.343 0 .648-.047.922-.141.269-.094.492-.222.671-.39.188-.176.329-.379.422-.61.094-.226.141-.476.141-.75-.012-.594-.203-1.051-.578-1.375-.367-.32-.914-.484-1.641-.484h-1.453zm0 0"/></symbol><symbol id="aa" overflow="visible"><path d="m.594-.469c0-.125.039-.234.125-.328.094-.094.207-.141.344-.141.156 0 .273.059.359.172.094.106.144.246.156.422 0 .149-.023.297-.062.453-.043.157-.102.305-.172.454-.063.156-.149.3-.25.437-.094.145-.199.273-.313.391l-.093-.078c-.032-.032-.047-.063-.047-.094 0-.024.004-.043.015-.063.008-.023.02-.039.032-.047.039-.043.085-.101.14-.171.063-.063.117-.149.172-.25.063-.094.109-.2.141-.313.039-.117.07-.242.093-.375-.023.008-.046.016-.078.016-.031 0-.062 0-.093 0-.137 0-.247-.039-.329-.125-.086-.094-.132-.211-.14-.36zm0 0"/></symbol><symbol id="ab" overflow="visible"><path d="m1.156 0-.14-7.766h2.234c.438 0 .82.043 1.156.125.332.086.602.215.813.391.207.168.363.375.469.625.113.242.175.516.187.828 0 .211-.039.406-.109.594-.063.187-.164.367-.297.531-.125.156-.289.297-.485.422-.199.117-.418.203-.656.266.613.093 1.086.296 1.422.609.332.312.504.73.516 1.25 0 .336-.059.633-.172.891-.117.261-.281.484-.5.671-.219.18-.492.321-.813.422-.324.094-.695.141-1.109.141zm.5-3.719.047 3.266h1.938c.687 0 1.203-.145 1.547-.438.351-.289.523-.707.515-1.25-.012-.238-.062-.457-.156-.656-.094-.195-.234-.363-.422-.5-.18-.133-.398-.238-.656-.312-.25-.071-.539-.11-.86-.11zm-.015-.422h1.687c.352 0 .656-.039.906-.125.258-.093.469-.211.625-.359.164-.156.286-.328.36-.516.07-.195.109-.394.109-.593-.012-.52-.187-.914-.531-1.188-.336-.269-.844-.406-1.531-.406h-1.672zm0 0"/></symbol><symbol id="ac" overflow="visible"><path d="m.484-3.484h2.563l.016.453h-2.563zm0 0"/></symbol><symbol id="ad" overflow="visible"><path d="m4.781-6.828c-.031.062-.078.094-.14.094-.043 0-.106-.032-.188-.094-.074-.07-.172-.149-.297-.235-.125-.082-.289-.156-.484-.218-.188-.071-.422-.11-.703-.11-.293 0-.547.043-.766.125-.211.075-.387.184-.531.328-.137.137-.242.297-.313.485-.074.18-.109.371-.109.578.008.262.07.48.188.656.113.168.265.313.453.438.187.117.394.215.625.297.226.086.468.168.718.25.25.074.489.164.719.265.238.094.445.215.625.36.188.148.336.328.453.546.125.211.188.477.188.797.008.325-.043.633-.156.922-.106.281-.262.531-.469.75-.199.211-.453.375-.766.5-.312.125-.664.188-1.047.188-.523 0-.968-.09-1.343-.266-.375-.187-.7-.437-.969-.75l.14-.25c.051-.051.102-.078.157-.078.031 0 .07.023.125.062.05.043.113.102.187.172.07.063.16.133.266.203.101.075.222.141.359.204.133.062.289.121.469.171.187.043.391.063.609.063.313 0 .582-.047.813-.141.238-.093.441-.218.609-.375.164-.164.289-.359.375-.578.082-.226.125-.469.125-.719-.012-.269-.074-.492-.187-.671-.118-.176-.266-.321-.453-.438-.188-.125-.399-.226-.625-.312-.231-.082-.469-.161-.719-.235-.242-.07-.481-.156-.719-.25-.242-.101-.453-.226-.641-.375-.179-.144-.328-.328-.453-.547-.117-.226-.179-.507-.187-.843 0-.258.047-.508.14-.75.094-.239.235-.454.422-.641.196-.188.43-.332.703-.438.282-.113.598-.171.954-.171.406 0 .769.07 1.093.203.321.125.617.32.891.578zm0 0"/></symbol><symbol id="ae" overflow="visible"><path d="m7 0h-.437c-.055 0-.094-.008-.125-.031-.032-.032-.059-.067-.079-.11l-.953-2.265h-3.828l-.859 2.265c-.012.032-.039.063-.078.094-.032.031-.075.047-.125.047h-.438l3.047-7.766h.563zm-5.25-2.828h3.484l-1.656-3.922c-.031-.063-.062-.129-.094-.203-.023-.082-.043-.172-.062-.266-.031.094-.063.184-.094.266-.023.074-.043.14-.062.203zm0 0"/></symbol><symbol id="af" overflow="visible"><path d="m2.906 0h-.468l-2.391-5.469h.406c.051 0 .094.016.125.047s.051.063.063.094l1.89 4.312c.032.086.055.164.078.235.02.074.039.152.063.234.008-.082.023-.16.047-.234.019-.082.047-.16.078-.235l1.734-4.312c.02-.039.047-.07.078-.094.032-.031.067-.047.11-.047h.406zm0 0"/></symbol><symbol id="ag" overflow="visible"><path d="m.578-.422c-.012-.07-.008-.141.016-.203.031-.063.066-.113.109-.156.051-.039.102-.078.156-.11.063-.031.129-.047.204-.047.07 0 .14.016.203.047.062.032.113.071.156.11.051.043.086.093.109.156.032.062.051.133.063.203 0 .074-.016.141-.047.203-.024.063-.059.117-.109.156-.043.043-.094.071-.157.094-.062.032-.133.047-.203.047-.137 0-.258-.047-.359-.141-.094-.093-.141-.21-.141-.359zm0 0"/></symbol><symbol id="ah" overflow="visible"><path d="m.891 0-.141-7.984h.516l.062 3.453c.25-.313.535-.555.86-.735.32-.187.679-.281 1.078-.281.3 0 .566.047.797.141.226.093.421.23.578.406.156.18.273.398.359.656.082.25.125.531.125.844l.063 3.5h-.532l-.062-3.5c-.012-.508-.137-.91-.375-1.203-.242-.289-.602-.438-1.078-.438-.356 0-.684.094-.985.282-.304.187-.578.445-.828.765l.078 4.094zm0 0"/></symbol><symbol id="ai" overflow="visible"><path d="m2.125-2.797-1.953-2.672h.5c.051 0 .086.012.109.031.032.024.051.047.063.079l1.656 2.328c.008-.063.035-.129.078-.203l1.469-2.11c.019-.039.039-.07.062-.094.032-.019.067-.031.11-.031h.484l-1.875 2.641 2.031 2.828h-.5c-.043 0-.078-.016-.109-.047s-.059-.062-.078-.094l-1.703-2.406c-.024.074-.047.137-.078.188l-1.547 2.234c-.031.031-.063.062-.094.094-.023.023-.055.031-.094.031h-.468zm0 0"/></symbol><symbol id="aj" overflow="visible"><path d="m1.703-.484h3.688l.015.484h-4.25l-.14-7.766h.562zm0 0"/></symbol><symbol id="ak" overflow="visible"><path d="m1.797-4.188h.469.172c.05-.007.097-.019.14-.031.039-.019.078-.039.11-.062.039-.032.082-.067.125-.11l3.078-3.218c.062-.063.113-.102.156-.125.051-.02.113-.032.187-.032h.454l-3.329 3.485c-.074.074-.136.133-.187.172-.055.043-.106.074-.156.093.07.024.14.059.203.11.062.043.125.101.187.172l3.641 3.734h-.453c-.094 0-.164-.008-.203-.031-.043-.032-.086-.067-.125-.11l-3.36-3.375c-.043-.031-.078-.062-.109-.093-.031-.032-.07-.055-.109-.079-.043-.019-.094-.035-.157-.046-.054-.008-.125-.016-.218-.016h-.5l.062 3.75h-.562l-.141-7.781h.562zm0 0"/></symbol><symbol id="al" overflow="visible"><path d="m2.109 1.75c-.023.051-.054.094-.093.125-.032.039-.078.063-.141.063h-.375l.938-2.141-2.407-5.266h.438c.051 0 .094.016.125.047s.051.063.062.094l1.922 4.25c.02.055.035.109.047.172.02.054.039.109.063.172.007-.063.023-.118.046-.172.02-.063.039-.117.063-.172l1.75-4.25c.008-.039.031-.07.062-.094.039-.031.082-.047.125-.047h.391zm0 0"/></symbol><symbol id="am" overflow="visible"><path d="m1.922 0h-.563l-.14-7.766h.562zm0 0"/></symbol><symbol id="an" overflow="visible"><path d="m1.813-3.516.062 3.516h-.562l-.141-7.766h1.984c.895 0 1.567.172 2.016.516.445.344.68.852.703 1.516 0 .304-.047.578-.141.828-.093.242-.234.453-.421.64-.188.18-.418.328-.688.453-.273.118-.578.196-.922.235.094.055.172.125.235.219l2.734 3.359h-.484c-.055 0-.106-.008-.157-.031-.043-.02-.078-.055-.109-.11l-2.563-3.156c-.062-.082-.132-.141-.203-.172-.062-.031-.172-.047-.328-.047zm0-.422h1.359c.344 0 .644-.035.906-.109.27-.082.5-.203.688-.359.187-.157.328-.336.422-.547.093-.219.14-.469.14-.75-.012-.551-.199-.957-.562-1.219-.368-.269-.899-.406-1.594-.406h-1.422zm0 0"/></symbol><symbol id="ao" overflow="visible"><path d="m6.781-1.313c.039 0 .071.016.094.047l.219.235c-.156.168-.328.324-.516.468-.187.137-.398.25-.625.344-.219.094-.465.168-.734.219-.274.063-.571.094-.891.094-.531 0-1.027-.094-1.484-.282-.449-.195-.84-.468-1.172-.812-.324-.344-.578-.758-.766-1.25-.179-.488-.273-1.035-.281-1.641-.012-.582.066-1.117.234-1.609.176-.488.426-.906.75-1.25.332-.352.727-.625 1.188-.813.469-.195.984-.296 1.547-.296.281 0 .535.023.765.062.239.043.461.106.672.188.207.074.399.171.578.296.188.118.364.247.532.391l-.157.25c-.023.043-.062.063-.125.063-.043 0-.089-.016-.14-.047-.055-.039-.121-.086-.203-.141-.086-.062-.184-.125-.297-.187-.106-.071-.235-.133-.391-.188-.156-.062-.336-.109-.531-.141-.199-.039-.43-.062-.688-.062-.468 0-.902.086-1.296.25-.399.156-.735.387-1.016.687-.281.305-.5.672-.656 1.11-.149.43-.215.906-.203 1.437.007.555.097 1.047.265 1.485.164.429.391.793.672 1.093.281.293.613.524 1 .688.383.156.797.234 1.234.234.282 0 .524-.015.735-.047.219-.039.414-.097.594-.171.187-.071.359-.161.515-.266.156-.113.313-.238.469-.375.019-.02.035-.035.047-.047.019-.008.039-.016.062-.016zm0 0"/></symbol><symbol id="ap" overflow="visible"><path d="m4.125-4.375v4.375h-3.047v-13.109h4.625c.914 0 1.707.117 2.375.343.664.219 1.211.524 1.641.907.426.375.738.824.937 1.343.207.524.313 1.086.313 1.688 0 .656-.106 1.262-.313 1.812-.211.543-.531 1.012-.968 1.407-.43.386-.977.687-1.641.906-.656.219-1.438.328-2.344.328zm0-2.297h1.578c.789 0 1.36-.187 1.703-.562.352-.383.532-.914.532-1.594 0-.289-.047-.563-.141-.813s-.234-.457-.422-.625c-.18-.175-.406-.312-.687-.406-.274-.101-.602-.156-.985-.156h-1.578zm0 0"/></symbol><symbol id="aq" overflow="visible"><path d="m5.078-9.469c.613 0 1.176.102 1.688.297.507.188.945.465 1.312.828.375.367.664.813.875 1.344.207.531.313 1.133.313 1.797 0 .219-.012.398-.032.531-.023.125-.058.231-.109.313-.043.074-.105.125-.187.156-.075.031-.18.047-.313.047h-5.375c.094.773.332 1.336.719 1.687.383.356.879.531 1.484.531.32 0 .598-.035.828-.109.239-.082.446-.172.625-.266.188-.101.352-.191.5-.265.157-.082.317-.125.485-.125.226 0 .398.086.515.25l.797 1c-.281.324-.59.59-.922.797-.336.211-.679.375-1.031.5-.355.117-.711.191-1.062.234-.344.039-.672.063-.985.063-.656 0-1.273-.106-1.844-.313-.574-.219-1.074-.535-1.5-.953-.429-.414-.765-.938-1.015-1.563s-.375-1.347-.375-2.171c0-.625.101-1.211.312-1.766.219-.563.524-1.051.922-1.469.395-.426.875-.758 1.438-1 .57-.25 1.218-.375 1.937-.375zm.047 1.922c-.531 0-.949.152-1.25.453-.305.305-.5.742-.594 1.313h3.485c0-.219-.032-.43-.094-.641-.055-.219-.149-.406-.281-.562-.125-.164-.293-.301-.5-.407-.211-.101-.465-.156-.766-.156zm0 0"/></symbol><symbol id="ar" overflow="visible"><path d="m1.078 0v-9.328h1.656c.133 0 .25.015.344.047.094.023.172.058.235.109.062.055.109.121.14.203.031.086.063.184.094.297l.156.875c.332-.531.711-.945 1.141-1.25.426-.301.89-.453 1.39-.453.426 0 .77.102 1.032.297l-.36 2.047c-.023.136-.07.23-.14.281-.075.043-.172.062-.297.062-.094 0-.215-.007-.36-.031-.136-.031-.308-.047-.515-.047-.731 0-1.309.391-1.735 1.172v5.719zm0 0"/></symbol><symbol id="as" overflow="visible"><path d="m4.375-9.484c.395 0 .766.043 1.109.125.352.074.68.183.985.328h2.812v1.015c0 .157-.047.282-.14.375-.086.086-.231.149-.438.188l-.687.156c.082.274.125.555.125.844 0 .469-.102.89-.297 1.265-.188.368-.453.68-.797.938-.336.262-.734.465-1.203.609-.461.137-.949.203-1.469.203-.305 0-.578-.015-.828-.046-.211.117-.313.25-.313.406s.082.273.25.344c.164.062.383.109.657.14.269.031.578.055.922.063.343 0 .691.023 1.046.062.364.031.719.09 1.063.172.351.074.664.199.937.375.27.168.489.399.657.688.164.293.25.664.25 1.109 0 .414-.106.82-.313 1.219-.199.406-.496.765-.89 1.078-.399.312-.887.562-1.469.75-.574.187-1.231.281-1.969.281-.742 0-1.375-.07-1.906-.203-.524-.137-.961-.32-1.313-.547-.355-.219-.617-.48-.781-.781-.168-.293-.25-.594-.25-.906 0-.418.125-.766.375-1.047.25-.282.594-.504 1.031-.672-.211-.133-.375-.313-.5-.531-.125-.219-.187-.489-.187-.813 0-.144.019-.289.062-.437.051-.157.129-.305.235-.454.101-.144.234-.281.39-.406.157-.133.344-.254.563-.359-.492-.25-.875-.586-1.156-1.016-.282-.426-.422-.922-.422-1.484 0-.469.097-.891.297-1.266.195-.375.468-.691.812-.953.352-.258.758-.457 1.219-.594.469-.144.976-.218 1.531-.218zm2.063 9.828c0-.156-.047-.278-.141-.36-.094-.093-.219-.164-.375-.218-.156-.051-.344-.086-.563-.11-.211-.031-.437-.051-.687-.062-.242-.008-.496-.02-.766-.032-.261-.007-.523-.031-.781-.062-.168.125-.309.262-.422.406-.117.145-.172.313-.172.5 0 .133.024.254.078.36.063.101.164.191.313.265.144.082.336.145.578.188.238.051.547.078.922.078.406 0 .734-.027.984-.078.258-.043.469-.106.625-.188.157-.086.258-.187.313-.312.062-.117.094-.242.094-.375zm-2.063-5.5c.457 0 .789-.114 1-.344.207-.227.313-.523.313-.891 0-.375-.106-.672-.313-.89-.211-.219-.543-.328-1-.328-.469 0-.809.109-1.016.328-.199.218-.296.515-.296.89 0 .18.019.344.062.5.051.149.129.278.234.391.114.105.254.187.422.25.164.062.364.094.594.094zm0 0"/></symbol><symbol id="at" overflow="visible"><path d="m5.234-9.469c.707 0 1.348.117 1.922.344.582.219 1.082.539 1.5.953.414.406.739.906.969 1.5.238.586.359 1.246.359 1.984 0 .75-.121 1.422-.359 2.016-.23.594-.555 1.102-.969 1.516-.418.418-.918.742-1.5.968-.574.219-1.215.329-1.922.329-.718 0-1.371-.11-1.953-.329-.586-.226-1.09-.55-1.515-.968-.418-.414-.743-.922-.969-1.516-.231-.594-.344-1.266-.344-2.016 0-.738.113-1.398.344-1.984.226-.594.551-1.094.969-1.5.425-.414.929-.734 1.515-.953.582-.227 1.235-.344 1.953-.344zm0 7.547c.645 0 1.118-.223 1.422-.672.301-.457.453-1.148.453-2.078 0-.914-.152-1.598-.453-2.047-.304-.457-.777-.687-1.422-.687-.656 0-1.14.23-1.453.687-.304.449-.453 1.133-.453 2.047 0 .93.149 1.621.453 2.078.313.449.797.672 1.453.672zm0 0"/></symbol><symbol id="au" overflow="visible"><path d="m3.953-13.469v13.469h-2.781v-13.469zm0 0"/></symbol><symbol id="av" overflow="visible"><path d="m7.516 0c-.262 0-.461-.035-.594-.109-.137-.071-.25-.223-.344-.454l-.187-.5c-.243.2-.469.372-.688.516-.211.149-.433.274-.672.375-.23.106-.476.18-.734.235-.262.05-.547.078-.859.078-.43 0-.821-.055-1.172-.157-.344-.113-.637-.281-.875-.5-.243-.218-.43-.484-.563-.797-.137-.32-.203-.691-.203-1.109 0-.332.082-.672.25-1.016.176-.351.469-.671.875-.953.414-.281.973-.515 1.672-.703.707-.195 1.594-.312 2.656-.344v-.39c0-.539-.117-.93-.344-1.172-.218-.25-.539-.375-.953-.375-.324 0-.593.039-.812.109-.211.075-.399.157-.563.25-.156.086-.312.164-.468.235-.157.074-.344.109-.563.109-.187 0-.352-.047-.484-.141-.137-.093-.246-.207-.328-.343l-.5-.875c.562-.5 1.187-.867 1.875-1.11.687-.238 1.421-.359 2.203-.359.562 0 1.066.094 1.515.281.457.18.844.434 1.157.766.32.324.566.711.734 1.156.164.449.25.938.25 1.469v5.828zm-3.203-1.703c.363 0 .679-.063.953-.188.269-.125.539-.328.812-.609v-1.297c-.555.024-1.012.07-1.375.141-.367.074-.652.168-.859.281-.211.105-.356.227-.438.359-.074.137-.109.289-.109.453 0 .313.082.54.25.672.176.125.43.188.766.188zm0 0"/></symbol><symbol id="aw" overflow="visible"><path d="m.609-1.578c0-.195.036-.375.11-.531.07-.164.176-.313.312-.438.133-.125.289-.223.469-.297.188-.07.395-.109.625-.109.27 0 .504.047.703.14.195.094.36.227.485.391.132.156.234.34.296.547.063.199.094.414.094.641 0 .304-.047.625-.14.968-.094.332-.243.672-.438 1.016-.187.344-.422.676-.703 1-.281.332-.606.633-.969.906l-.484-.437c-.063-.063-.117-.125-.156-.188-.032-.054-.047-.121-.047-.203 0-.062.019-.133.062-.203.051-.062.102-.121.156-.172.071-.074.157-.164.25-.265.102-.106.204-.219.297-.344.094-.125.18-.266.266-.422.082-.149.144-.305.187-.469-.218-.019-.414-.07-.578-.156-.168-.082-.308-.192-.422-.328-.117-.133-.211-.289-.281-.469-.062-.176-.094-.367-.094-.578zm0 0"/></symbol><symbol id="ax" overflow="visible"/><symbol id="ay" overflow="visible"><path d="m1.078 0v-13.109h4.828c.895 0 1.66.089 2.297.265.633.168 1.156.403 1.563.703.406.305.695.672.875 1.11.187.437.281.929.281 1.468 0 .293-.043.579-.125.86-.086.273-.219.527-.406.765-.18.243-.407.461-.688.657-.281.187-.621.355-1.015.5.863.211 1.5.554 1.906 1.031.414.469.625 1.07.625 1.797 0 .562-.11 1.086-.328 1.562-.211.481-.524.899-.938 1.25-.418.356-.933.637-1.547.844-.617.199-1.312.297-2.093.297zm3.047-5.563v3.266h2.141c.394 0 .718-.047.968-.141.258-.101.461-.234.61-.39.144-.164.242-.352.297-.563.05-.207.078-.414.078-.625 0-.238-.031-.453-.094-.64-.062-.196-.172-.36-.328-.485-.149-.132-.352-.238-.609-.312-.25-.07-.571-.11-.954-.11zm0-2.031h1.578c.332 0 .633-.019.906-.062.27-.051.5-.133.688-.25.187-.125.328-.289.422-.5.101-.207.156-.473.156-.797 0-.313-.043-.567-.125-.766-.074-.207-.195-.375-.359-.5-.157-.133-.36-.226-.61-.281-.25-.051-.543-.078-.875-.078h-1.781zm0 0"/></symbol><symbol id="az" overflow="visible"><path d="m3.953-9.328v9.328h-2.781v-9.328zm.328-2.547c0 .219-.047.43-.14.625-.086.187-.203.359-.36.516-.156.148-.34.261-.547.343-.211.086-.429.125-.656.125-.23 0-.445-.039-.64-.125-.2-.082-.375-.195-.532-.343-.156-.157-.277-.329-.359-.516-.086-.195-.125-.406-.125-.625 0-.227.039-.441.125-.641.082-.195.203-.367.359-.515.157-.157.332-.274.532-.36.195-.082.41-.125.64-.125.227 0 .445.043.656.125.207.086.391.203.547.36.157.148.274.32.36.515.093.2.14.414.14.641zm0 0"/></symbol><symbol id="aA" overflow="visible"><path d="m6.781-7.281c-.074.117-.152.199-.234.25-.086.043-.188.062-.313.062s-.257-.023-.39-.078c-.137-.062-.281-.125-.438-.187-.148-.071-.32-.133-.515-.188-.188-.062-.403-.094-.641-.094-.355 0-.633.071-.828.203-.188.137-.281.325-.281.563 0 .18.062.324.187.437.125.118.285.219.485.313.207.086.441.168.703.25.257.074.519.156.781.25.269.094.535.211.797.344.258.125.488.281.687.468.207.188.375.418.5.688.125.273.188.594.188.969 0 .461-.09.886-.266 1.281-.168.387-.418.719-.75 1-.324.281-.73.5-1.219.656-.492.157-1.054.235-1.687.235-.324 0-.649-.032-.969-.094-.312-.051-.621-.129-.922-.235-.293-.101-.562-.222-.812-.359-.25-.144-.465-.297-.641-.453l.641-1.031c.082-.125.176-.219.281-.282.102-.07.242-.109.422-.109.164 0 .312.039.437.109.125.075.258.153.407.235.156.086.332.164.531.234.207.074.461.11.766.11.218 0 .398-.02.546-.063.145-.051.266-.113.36-.187.094-.082.16-.172.203-.266.039-.094.062-.191.062-.297 0-.187-.062-.336-.187-.453-.125-.125-.293-.227-.5-.313-.211-.082-.445-.16-.703-.234-.262-.082-.528-.172-.797-.266-.262-.093-.524-.207-.781-.343-.262-.133-.496-.305-.703-.516-.211-.207-.375-.457-.5-.75-.125-.301-.188-.664-.188-1.094 0-.394.078-.769.234-1.125.157-.363.383-.679.688-.953.301-.269.68-.484 1.141-.64.468-.157 1.007-.235 1.625-.235.332 0 .656.031.968.094.321.062.617.148.891.25.281.105.535.23.766.375.226.148.425.309.593.484zm0 0"/></symbol><symbol id="aB" overflow="visible"><path d="m.906-6.594h4.844v2.25h-4.844zm0 0"/></symbol><symbol id="aC" overflow="visible"><path d="m13.266 0h-2.344c-.274 0-.492-.063-.656-.188-.168-.125-.289-.281-.36-.468l-.765-2.282h-4.985l-.781 2.282c-.055.168-.168.32-.344.453-.179.137-.39.203-.64.203h-2.375l5.078-13.109h3.109zm-8.407-5.016h3.579l-1.204-3.578c-.086-.226-.179-.492-.281-.797-.105-.312-.211-.648-.312-1.015-.094.367-.196.703-.297 1.015-.094.313-.188.586-.281.813zm0 0"/></symbol><symbol id="aD" overflow="visible"><path d="m3.688-9.328v5.922c0 .461.101.82.312 1.078.207.25.516.375.922.375.312 0 .598-.063.859-.188.27-.132.532-.312.782-.531v-6.656h2.796v9.328h-1.734c-.344 0-.574-.156-.687-.469l-.172-.531c-.18.168-.368.324-.563.469-.187.136-.39.258-.609.359-.219.094-.453.168-.703.219-.25.062-.528.094-.828.094-.512 0-.965-.09-1.36-.266-.387-.176-.715-.422-.984-.734-.274-.321-.477-.696-.61-1.125-.136-.438-.203-.911-.203-1.422v-5.922zm0 0"/></symbol><symbol id="aE" overflow="visible"><path d="m6.234 0h-2.531l-3.609-9.328h2.312c.196 0 .364.047.5.14.133.094.227.211.282.344l1.296 4.188c.094.343.188.679.282 1 .093.324.175.648.25.968.062-.32.14-.644.234-.968.094-.321.195-.657.313-1l1.343-4.188c.051-.133.141-.25.266-.344.133-.093.289-.14.469-.14h2.218zm0 0"/></symbol><symbol id="aF" overflow="visible"><path d="m1.078 0v-9.328h1.735c.164 0 .304.043.421.125.125.074.207.187.25.344l.172.546c.176-.164.36-.32.547-.468.195-.145.406-.266.625-.36.219-.101.453-.179.703-.234.258-.063.535-.094.828-.094.508 0 .961.09 1.36.266.394.18.726.422 1 .734.269.313.472.688.609 1.125.133.438.203.914.203 1.422v5.922h-2.781v-5.922c0-.457-.109-.812-.328-1.062-.211-.258-.516-.391-.922-.391-.305 0-.59.07-.859.203-.274.125-.532.305-.782.531v6.641zm0 0"/></symbol><symbol id="aG" overflow="visible"><path d="m4.359.141c-.449 0-.843-.063-1.187-.188-.336-.133-.617-.316-.844-.547-.23-.238-.406-.523-.531-.859-.117-.332-.172-.707-.172-1.125v-4.828h-.797c-.148 0-.273-.039-.375-.125-.094-.094-.14-.235-.14-.422v-1.078l1.484-.297.547-2.266c.07-.289.273-.437.609-.437h1.453v2.718h2.266v1.907h-2.266v4.64c0 .211.051.387.157.532.101.148.253.218.453.218.101 0 .187-.007.25-.031.07-.031.132-.055.187-.078.051-.031.098-.055.141-.078.051-.02.101-.031.156-.031.082 0 .148.023.203.062.051.043.102.106.156.188l.844 1.312c-.355.274-.758.477-1.203.609-.449.133-.914.204-1.391.204zm0 0"/></symbol><symbol id="aH" overflow="visible"><path d="m8.375-10.438c-.086.149-.18.258-.281.329-.094.062-.219.093-.375.093-.137 0-.289-.039-.453-.125-.157-.082-.34-.175-.547-.281-.199-.113-.43-.211-.688-.297-.25-.094-.543-.14-.875-.14-.562 0-.984.125-1.265.375-.282.242-.422.57-.422.984 0 .262.082.48.25.656.164.168.383.321.656.453.281.125.594.243.938.344.351.106.71.219 1.078.344.363.125.722.277 1.078.453.351.18.664.402.937.672.27.273.489.601.657.984.164.387.25.852.25 1.391 0 .605-.106 1.172-.313 1.703-.211.531-.516.996-.922 1.391-.398.386-.887.695-1.469.921-.586.219-1.246.329-1.984.329-.406 0-.824-.043-1.25-.125-.418-.082-.824-.196-1.219-.344-.398-.156-.773-.336-1.125-.547-.343-.219-.648-.453-.906-.703l.906-1.422c.063-.113.149-.203.266-.266.125-.062.254-.093.391-.093.175 0 .359.058.546.171.188.118.395.243.625.375.227.137.489.262.782.375.3.118.66.172 1.078.172.551 0 .976-.117 1.281-.359.301-.25.453-.633.453-1.156 0-.313-.086-.563-.25-.75-.168-.188-.387-.344-.656-.469-.274-.133-.586-.25-.938-.344-.343-.094-.699-.195-1.062-.312-.367-.114-.727-.254-1.078-.422-.344-.176-.653-.406-.922-.688-.274-.281-.496-.629-.672-1.047-.168-.414-.25-.929-.25-1.546 0-.489.098-.961.297-1.422.195-.469.488-.883.875-1.25.383-.375.851-.672 1.406-.891.563-.219 1.203-.328 1.922-.328.406 0 .797.031 1.172.094.383.062.742.156 1.078.281.344.125.66.277.953.453.301.168.57.356.813.563zm0 0"/></symbol><symbol id="aI" overflow="visible"><path d="m7.813-7.109c-.094.105-.18.187-.25.25-.075.054-.184.078-.329.078-.148 0-.277-.032-.39-.094-.106-.07-.227-.145-.36-.219-.136-.082-.296-.156-.484-.219-.187-.07-.418-.109-.687-.109-.344 0-.641.063-.891.188s-.461.308-.625.546c-.156.231-.277.516-.359.86-.075.336-.11.715-.11 1.14 0 .899.172 1.586.516 2.063.344.48.816.719 1.422.719.32 0 .578-.039.765-.125.196-.082.36-.172.485-.266.132-.101.254-.195.359-.281.113-.082.254-.125.422-.125.226 0 .398.086.516.25l.796 1c-.281.324-.586.59-.906.797-.312.211-.637.375-.969.5-.336.117-.671.191-1.015.234-.336.039-.656.063-.969.063-.574 0-1.121-.106-1.641-.313-.511-.219-.964-.531-1.359-.937-.398-.414-.711-.922-.937-1.516-.231-.602-.344-1.289-.344-2.063 0-.664.097-1.289.297-1.875.195-.593.492-1.101.89-1.531.395-.426.879-.758 1.453-1 .582-.25 1.254-.375 2.016-.375.727 0 1.367.121 1.922.36.551.23 1.051.57 1.5 1.015zm0 0"/></symbol><symbol id="aJ" overflow="visible"><path d="m1.078 0v-13.469h2.781v5.141c.352-.344.75-.617 1.188-.828.437-.207.953-.313 1.547-.313.488 0 .937.106 1.344.313.414.211.773.515 1.078.922.3.406.535.906.703 1.5.176.586.265 1.25.265 2 0 .699-.101 1.343-.296 1.937-.2.594-.477 1.109-.829 1.547-.343.437-.761.781-1.25 1.031-.492.239-1.031.36-1.625.36-.273 0-.515-.028-.734-.078-.219-.055-.422-.126-.609-.219-.18-.102-.344-.223-.5-.36-.157-.144-.305-.297-.438-.453l-.109.469c-.043.187-.121.32-.235.391-.105.074-.246.109-.421.109zm4.547-7.375c-.199 0-.383.023-.547.062-.168.043-.324.102-.469.172-.136.063-.265.153-.39.266-.117.117-.235.242-.36.375v3.969c.219.23.446.39.688.484.25.094.508.141.781.141.25 0 .485-.051.703-.157.219-.101.407-.265.563-.484.156-.226.281-.519.375-.875.094-.363.14-.801.14-1.312 0-.489-.039-.899-.109-1.235-.074-.344-.18-.617-.312-.828-.125-.207-.278-.351-.454-.437-.179-.094-.382-.141-.609-.141zm0 0"/></symbol><symbol id="aK" overflow="visible"><path d="m5.969-13.25c.582 0 1.094.09 1.531.266.445.168.82.39 1.125.671.313.282.551.606.719.969.176.367.285.742.328 1.125l-1.797.36c-.031 0-.059.007-.078.015-.024 0-.043 0-.063 0-.25 0-.437-.129-.562-.39-.137-.313-.297-.547-.484-.704-.18-.164-.418-.25-.719-.25-.211 0-.391.04-.547.11-.156.074-.289.18-.391.312-.105.125-.183.274-.234.438-.055.168-.078.34-.078.515 0 .157.008.309.031.454.031.148.078.293.141.437.062.149.144.297.25.453.113.156.257.324.437.5l3.235 3.422c.164-.363.296-.738.39-1.125.094-.394.16-.801.203-1.219.008-.164.063-.297.157-.39.101-.094.238-.141.406-.141h1.75c0 .875-.117 1.695-.344 2.453-.23.75-.562 1.446-1 2.078l2.75 2.891h-2.75c-.137 0-.262-.004-.375-.016-.105-.019-.203-.047-.297-.078-.094-.039-.183-.094-.265-.156-.086-.063-.172-.145-.266-.25l-.563-.594c-.574.399-1.199.703-1.875.922-.668.207-1.382.313-2.14.313-.531 0-1.047-.09-1.547-.266s-.945-.43-1.328-.766c-.387-.332-.703-.734-.953-1.203-.243-.476-.36-1.015-.36-1.609 0-.395.063-.766.188-1.11.125-.351.297-.679.515-.984.227-.312.493-.586.797-.828.313-.25.649-.469 1.016-.656-.281-.438-.484-.864-.609-1.282-.125-.425-.188-.835-.188-1.234 0-.469.082-.91.25-1.328.176-.414.426-.781.75-1.094.32-.312.723-.562 1.203-.75.477-.187 1.024-.281 1.641-.281zm-2.719 9.328c0 .293.039.559.125.797.094.23.219.43.375.594.164.168.359.297.578.39.227.094.485.141.766.141.394 0 .765-.051 1.109-.156.344-.102.664-.254.969-.453l-3.016-3.188c-.324.274-.558.57-.703.891-.137.312-.203.64-.203.984zm0 0"/></symbol><symbol id="aL" overflow="visible"><path d="m4.125-4.844v4.844h-3.047v-13.109h4.266c.945 0 1.754.101 2.422.296.664.2 1.207.477 1.625.829.425.343.734.757.922 1.234.195.469.296.98.296 1.531 0 .43-.058.828-.171 1.203-.118.375-.29.727-.516 1.047-.219.324-.496.61-.828.86-.324.25-.699.461-1.125.625.207.105.398.234.578.39.176.149.332.324.469.531l2.781 4.563h-2.75c-.512 0-.875-.191-1.094-.578l-2.187-3.797c-.094-.164-.203-.285-.328-.359-.125-.071-.309-.11-.547-.11zm0-2.094h1.219c.414 0 .765-.05 1.047-.156.289-.101.531-.25.718-.437.188-.188.321-.407.407-.657.082-.25.125-.519.125-.812 0-.57-.188-1.02-.563-1.344-.375-.32-.953-.484-1.734-.484h-1.219zm0 0"/></symbol><symbol id="aM" overflow="visible"><path d="m1.078 0v-9.328h1.735c.164 0 .304.043.421.125.125.074.207.187.25.344l.157.5c.156-.157.316-.301.484-.438.164-.133.348-.25.547-.344.195-.101.406-.179.625-.234.226-.063.476-.094.75-.094.562 0 1.023.149 1.391.438.375.293.656.679.843 1.156.157-.281.344-.52.563-.719.226-.207.472-.375.734-.5.258-.125.535-.219.828-.281.289-.063.582-.094.875-.094.532 0 1 .078 1.407.235.414.156.765.39 1.046.703.282.304.489.672.625 1.109.145.438.219.938.219 1.5v5.922h-2.781v-5.922c0-.969-.414-1.453-1.234-1.453-.387 0-.704.125-.954.375-.242.25-.359.609-.359 1.078v5.922h-2.797v-5.922c0-.531-.105-.906-.312-1.125-.211-.219-.516-.328-.922-.328-.25 0-.492.059-.719.172-.23.117-.445.265-.641.453v6.75zm0 0"/></symbol><g fill="#231f20"><use x="295.615877" xlink:href="#a" y="866.273436"/><use x="302.568777" xlink:href="#a" y="866.273436"/><use x="309.521677" xlink:href="#b" y="866.273436"/></g><g fill="#231f20"><use x="890.286041" xlink:href="#a" y="866.273436"/><use x="897.23894" xlink:href="#a" y="866.273436"/><use x="904.19184" xlink:href="#c" y="866.273436"/></g><g fill="#fff"><use x="70.740279" xlink:href="#d" y="630.655424"/><use x="70.740279" xlink:href="#e" y="607.027552"/><use x="70.740279" xlink:href="#f" y="578.256932"/><use x="70.740279" xlink:href="#f" y="559.591992"/><use x="70.740279" xlink:href="#g" y="540.927052"/><use x="70.740279" xlink:href="#d" y="520.607802"/><use x="70.740279" xlink:href="#h" y="496.97993"/><use x="70.740279" xlink:href="#i" y="475.437928"/><use x="70.740279" xlink:href="#e" y="463.92968"/><use x="70.740279" xlink:href="#j" y="435.15906"/><use x="70.740279" xlink:href="#k" y="407.970824"/></g><g fill="#fff"><use x="70.740279" xlink:href="#l" y="401.029911"/><use x="70.740279" xlink:href="#m" y="372.331218"/><use x="70.740279" xlink:href="#n" y="339.640601"/><use x="70.740279" xlink:href="#o" y="316.588141"/><use x="70.740279" xlink:href="#p" y="293.895315"/></g><use fill="#fff" x="70.740279" xlink:href="#q" y="271.238631"/><g fill="#fff"><use x="70.740279" xlink:href="#r" y="244.302138"/><use x="70.740279" xlink:href="#s" y="223.047842"/><use x="70.740279" xlink:href="#t" y="216.10693"/><use x="70.740279" xlink:href="#s" y="191.220344"/><use x="70.740279" xlink:href="#p" y="184.279432"/><use x="70.740279" xlink:href="#n" y="161.083119"/><use x="70.740279" xlink:href="#o" y="138.03066"/><use x="70.740279" xlink:href="#u" y="115.337833"/><use x="70.740279" xlink:href="#v" y="104.584814"/></g><g fill="#fff"><use x="135.802749" xlink:href="#w" y="108.186622"/><use x="144.465433" xlink:href="#x" y="108.186622"/><use x="156.068955" xlink:href="#y" y="108.186622"/><use x="166.697525" xlink:href="#z" y="108.186622"/><use x="172.611166" xlink:href="#A" y="108.186622"/><use x="187.619026" xlink:href="#B" y="108.186622"/><use x="196.649315" xlink:href="#w" y="108.186622"/><use x="205.312" xlink:href="#x" y="108.186622"/><use x="216.915522" xlink:href="#y" y="108.186622"/><use x="227.544092" xlink:href="#B" y="108.186622"/></g><g fill="#393536"><g><use x="639.336569" xlink:href="#C" y="684.845168"/><use x="647.687636" xlink:href="#D" y="684.845168"/></g><g><use x="650.302838" xlink:href="#E" y="684.845168"/><use x="653.841053" xlink:href="#E" y="684.845168"/><use x="657.379268" xlink:href="#F" y="684.845168"/><use x="662.994262" xlink:href="#G" y="684.845168"/><use x="667.356596" xlink:href="#H" y="684.845168"/><use x="672.971589" xlink:href="#I" y="684.845168"/><use x="678.916231" xlink:href="#J" y="684.845168"/></g><g><use x="682.839034" xlink:href="#K" y="684.845168"/><use x="687.56398" xlink:href="#L" y="684.845168"/></g><use x="690.83839" xlink:href="#M" y="684.845168"/><g><use x="699.585033" xlink:href="#N" y="684.845168"/><use x="705.529674" xlink:href="#O" y="684.845168"/><use x="711.529257" xlink:href="#P" y="684.845168"/><use x="717.14425" xlink:href="#Q" y="684.845168"/></g><g><use x="719.759453" xlink:href="#H" y="684.845168"/><use x="725.374447" xlink:href="#K" y="684.845168"/><use x="730.099392" xlink:href="#L" y="684.845168"/></g><g><use x="733.373802" xlink:href="#O" y="684.845168"/><use x="739.373384" xlink:href="#R" y="684.845168"/></g><use x="741.208355" xlink:href="#S" y="684.845168"/><g><use x="746.559532" xlink:href="#T" y="684.845168"/><use x="752.559114" xlink:href="#G" y="684.845168"/><use x="756.921448" xlink:href="#D" y="684.845168"/></g><g><use x="759.536651" xlink:href="#K" y="684.845168"/><use x="764.261596" xlink:href="#L" y="684.845168"/></g><g><use x="767.536105" xlink:href="#K" y="684.845168"/><use x="772.26105" xlink:href="#U" y="684.845168"/><use x="778.205691" xlink:href="#G" y="684.845168"/><use x="782.568025" xlink:href="#L" y="684.845168"/></g><use x="785.853423" xlink:href="#M" y="684.845168"/><g><use x="794.600067" xlink:href="#H" y="684.845168"/><use x="800.21506" xlink:href="#K" y="684.845168"/><use x="804.940006" xlink:href="#U" y="684.845168"/><use x="810.884647" xlink:href="#G" y="684.845168"/><use x="815.246981" xlink:href="#H" y="684.845168"/><use x="820.861974" xlink:href="#L" y="684.845168"/></g><g><use x="824.136582" xlink:href="#N" y="684.845168"/><use x="830.081223" xlink:href="#U" y="684.845168"/><use x="836.025864" xlink:href="#L" y="684.845168"/></g><g><use x="839.31136" xlink:href="#K" y="684.845168"/><use x="844.036306" xlink:href="#J" y="684.845168"/></g><use x="847.959011" xlink:href="#S" y="684.845168"/><g><use x="853.310287" xlink:href="#I" y="684.845168"/><use x="859.254928" xlink:href="#O" y="684.845168"/><use x="865.25451" xlink:href="#S" y="684.845168"/></g><g><use x="870.605786" xlink:href="#G" y="684.845168"/><use x="874.96812" xlink:href="#O" y="684.845168"/><use x="880.967702" xlink:href="#L" y="684.845168"/></g><g><use x="884.24221" xlink:href="#V" y="684.845168"/><use x="890.120922" xlink:href="#N" y="684.845168"/><use x="896.065563" xlink:href="#U" y="684.845168"/><use x="902.010204" xlink:href="#G" y="684.845168"/><use x="906.372537" xlink:href="#L" y="684.845168"/></g><g><use x="639.337579" xlink:href="#K" y="698.031463"/><use x="644.062525" xlink:href="#J" y="698.031463"/></g><g><use x="647.985372" xlink:href="#N" y="698.031463"/><use x="653.930013" xlink:href="#W" y="698.031463"/><use x="658.929665" xlink:href="#X" y="698.031463"/></g><g><use x="663.995214" xlink:href="#H" y="698.031463"/><use x="669.610208" xlink:href="#G" y="698.031463"/><use x="673.972541" xlink:href="#L" y="698.031463"/><use x="676.093273" xlink:href="#H" y="698.031463"/><use x="681.708266" xlink:href="#J" y="698.031463"/></g><g><use x="685.631015" xlink:href="#L" y="698.031463"/><use x="687.751747" xlink:href="#V" y="698.031463"/><use x="693.630458" xlink:href="#G" y="698.031463"/><use x="697.992792" xlink:href="#N" y="698.031463"/><use x="703.937433" xlink:href="#J" y="698.031463"/></g><g><use x="707.860237" xlink:href="#F" y="698.031463"/><use x="713.47523" xlink:href="#Y" y="698.031463"/></g><g><use x="719.02424" xlink:href="#H" y="698.031463"/><use x="724.639233" xlink:href="#G" y="698.031463"/><use x="729.001567" xlink:href="#L" y="698.031463"/><use x="731.122299" xlink:href="#Q" y="698.031463"/></g><g><use x="733.737402" xlink:href="#H" y="698.031463"/><use x="739.352396" xlink:href="#L" y="698.031463"/><use x="741.473127" xlink:href="#M" y="698.031463"/></g><use x="750.219771" xlink:href="#S" y="698.031463"/><use x="755.538082" xlink:href="#J" y="698.031463"/><g><use x="759.460886" xlink:href="#F" y="698.031463"/><use x="765.07588" xlink:href="#G" y="698.031463"/><use x="769.438213" xlink:href="#D" y="698.031463"/></g><g><use x="772.053416" xlink:href="#H" y="698.031463"/><use x="777.66841" xlink:href="#Q" y="698.031463"/></g><g><use x="780.283513" xlink:href="#L" y="698.031463"/><use x="782.404245" xlink:href="#O" y="698.031463"/><use x="788.403827" xlink:href="#H" y="698.031463"/><use x="794.018821" xlink:href="#L" y="698.031463"/><use x="796.139552" xlink:href="#V" y="698.031463"/><use x="802.018264" xlink:href="#D" y="698.031463"/></g><g><use x="804.633466" xlink:href="#K" y="698.031463"/><use x="809.358412" xlink:href="#W" y="698.031463"/><use x="814.358064" xlink:href="#D" y="698.031463"/></g><g><use x="816.973267" xlink:href="#I" y="698.031463"/><use x="822.917908" xlink:href="#H" y="698.031463"/></g><use x="106.627806" xlink:href="#Z" y="178.79208"/><g><use x="112.989968" xlink:href="#H" y="178.79208"/><use x="118.604962" xlink:href="#G" y="178.79208"/><use x="122.967295" xlink:href="#Y" y="178.79208"/></g><g><use x="128.516359" xlink:href="#N" y="178.79208"/><use x="134.461001" xlink:href="#Q" y="178.79208"/></g><use x="137.076203" xlink:href="#S" y="178.79208"/><g><use x="142.427479" xlink:href="#aa" y="178.79208"/><use x="144.603152" xlink:href="#L" y="178.79208"/></g><g><use x="146.987447" xlink:href="#ab" y="178.79208"/><use x="154.030913" xlink:href="#G" y="178.79208"/><use x="158.393246" xlink:href="#D" y="178.79208"/></g><g><use x="161.008449" xlink:href="#K" y="178.79208"/><use x="165.733395" xlink:href="#H" y="178.79208"/><use x="171.348388" xlink:href="#ac" y="178.79208"/><use x="175.007474" xlink:href="#ad" y="178.79208"/></g><g><use x="180.754327" xlink:href="#N" y="178.79208"/><use x="186.698968" xlink:href="#Q" y="178.79208"/></g><g><use x="189.314171" xlink:href="#H" y="178.79208"/><use x="194.929164" xlink:href="#D" y="178.79208"/></g><use x="197.511501" xlink:href="#Q" y="178.79208"/><g><use x="200.126703" xlink:href="#aa" y="178.79208"/><use x="202.302376" xlink:href="#L" y="178.79208"/></g><g><use x="204.697968" xlink:href="#ae" y="178.79208"/><use x="211.785386" xlink:href="#U" y="178.79208"/><use x="217.730027" xlink:href="#af" y="178.79208"/></g><g><use x="222.982596" xlink:href="#H" y="178.79208"/><use x="228.597589" xlink:href="#I" y="178.79208"/><use x="234.542231" xlink:href="#J" y="178.79208"/></g><g><use x="238.465034" xlink:href="#ag" y="178.79208"/><use x="240.640707" xlink:href="#ag" y="178.79208"/><use x="242.81638" xlink:href="#ag" y="178.79208"/><use x="244.992052" xlink:href="#L" y="178.79208"/></g><use x="247.376249" xlink:href="#S" y="178.79208"/><g><use x="252.727525" xlink:href="#U" y="178.79208"/><use x="258.672166" xlink:href="#J" y="178.79208"/></g><use x="262.595069" xlink:href="#S" y="178.79208"/><g><use x="267.946344" xlink:href="#I" y="178.79208"/><use x="273.890985" xlink:href="#J" y="178.79208"/></g><use x="277.813789" xlink:href="#L" y="178.79208"/><g><use x="280.198184" xlink:href="#O" y="178.79208"/><use x="286.197766" xlink:href="#R" y="178.79208"/></g><g><use x="287.901153" xlink:href="#N" y="178.79208"/><use x="293.845794" xlink:href="#U" y="178.79208"/><use x="299.790435" xlink:href="#af" y="178.79208"/><use x="305.141711" xlink:href="#G" y="178.79208"/></g><use x="309.24048" xlink:href="#S" y="178.79208"/><use x="314.591756" xlink:href="#Y" y="178.79208"/><g><use x="320.14082" xlink:href="#H" y="178.79208"/><use x="325.755814" xlink:href="#K" y="178.79208"/><use x="330.48076" xlink:href="#L" y="178.79208"/></g><g><use x="332.876143" xlink:href="#K" y="178.79208"/><use x="337.601088" xlink:href="#U" y="178.79208"/><use x="343.545729" xlink:href="#G" y="178.79208"/><use x="347.908063" xlink:href="#ac" y="178.79208"/><use x="351.567149" xlink:href="#M" y="178.79208"/></g><g><use x="360.313793" xlink:href="#H" y="178.79208"/><use x="365.928786" xlink:href="#K" y="178.79208"/><use x="370.653732" xlink:href="#U" y="178.79208"/><use x="376.598373" xlink:href="#G" y="178.79208"/><use x="380.960707" xlink:href="#H" y="178.79208"/><use x="386.575701" xlink:href="#L" y="178.79208"/></g><g><use x="388.971083" xlink:href="#V" y="178.79208"/><use x="394.849795" xlink:href="#N" y="178.79208"/><use x="400.794436" xlink:href="#U" y="178.79208"/><use x="406.739077" xlink:href="#G" y="178.79208"/><use x="411.101411" xlink:href="#L" y="178.79208"/></g><g><use x="413.507694" xlink:href="#ah" y="178.79208"/><use x="419.452335" xlink:href="#S" y="178.79208"/></g><g><use x="424.803611" xlink:href="#T" y="178.79208"/><use x="430.803193" xlink:href="#D" y="178.79208"/></g><use x="433.418395" xlink:href="#Q" y="178.79208"/><use x="436.033598" xlink:href="#Q" y="178.79208"/><g><use x="438.648702" xlink:href="#H" y="178.79208"/><use x="444.263695" xlink:href="#G" y="178.79208"/><use x="448.626029" xlink:href="#L" y="178.79208"/></g><use x="451.010324" xlink:href="#Q" y="178.79208"/><g><use x="453.625626" xlink:href="#H" y="178.79208"/><use x="459.24062" xlink:href="#K" y="178.79208"/><use x="463.965565" xlink:href="#L" y="178.79208"/></g><use x="466.36075" xlink:href="#H" y="178.79208"/><g><use x="471.645833" xlink:href="#ai" y="178.79208"/><use x="476.711414" xlink:href="#J" y="178.79208"/></g><g><use x="480.634119" xlink:href="#F" y="178.79208"/><use x="486.249113" xlink:href="#G" y="178.79208"/><use x="490.611446" xlink:href="#D" y="178.79208"/></g><g><use x="493.22655" xlink:href="#H" y="178.79208"/><use x="498.841544" xlink:href="#U" y="178.79208"/><use x="504.786185" xlink:href="#G" y="178.79208"/><use x="509.148519" xlink:href="#K" y="178.79208"/><use x="513.873464" xlink:href="#L" y="178.79208"/></g><g><use x="516.269155" xlink:href="#H" y="178.79208"/><use x="521.884148" xlink:href="#J" y="178.79208"/></g><use x="525.806853" xlink:href="#L" y="178.79208"/><use x="528.202544" xlink:href="#S" y="178.79208"/><use x="533.553819" xlink:href="#Y" y="178.79208"/><use x="539.102785" xlink:href="#G" y="178.79208"/><use x="543.179171" xlink:href="#S" y="178.79208"/><g><use x="548.530447" xlink:href="#I" y="178.79208"/><use x="554.475088" xlink:href="#O" y="178.79208"/><use x="560.47467" xlink:href="#D" y="178.79208"/></g><g><use x="563.089873" xlink:href="#G" y="178.79208"/><use x="567.452207" xlink:href="#L" y="178.79208"/></g><use x="106.628817" xlink:href="#Q" y="191.978375"/><g><use x="109.244019" xlink:href="#H" y="191.978375"/><use x="114.859013" xlink:href="#K" y="191.978375"/><use x="119.583959" xlink:href="#L" y="191.978375"/></g><g><use x="121.561931" xlink:href="#H" y="191.978375"/><use x="127.176925" xlink:href="#K" y="191.978375"/><use x="131.90187" xlink:href="#V" y="191.978375"/><use x="137.780582" xlink:href="#S" y="191.978375"/></g><g><use x="143.131869" xlink:href="#W" y="191.978375"/><use x="148.131521" xlink:href="#H" y="191.978375"/><use x="153.746514" xlink:href="#K" y="191.978375"/><use x="158.47146" xlink:href="#L" y="191.978375"/></g><g><use x="160.460168" xlink:href="#O" y="191.978375"/><use x="166.45975" xlink:href="#H" y="191.978375"/><use x="172.074744" xlink:href="#L" y="191.978375"/></g><g><use x="174.063781" xlink:href="#af" y="191.978375"/><use x="179.415057" xlink:href="#D" y="191.978375"/></g><g><use x="182.030259" xlink:href="#H" y="191.978375"/><use x="187.645253" xlink:href="#ag" y="191.978375"/><use x="189.820926" xlink:href="#L" y="191.978375"/></g><use x="191.798722" xlink:href="#aj" y="191.978375"/><g><use x="197.249057" xlink:href="#H" y="191.978375"/><use x="202.864051" xlink:href="#K" y="191.978375"/><use x="207.588997" xlink:href="#L" y="191.978375"/></g><g><use x="209.577847" xlink:href="#N" y="191.978375"/><use x="215.522488" xlink:href="#U" y="191.978375"/><use x="221.467129" xlink:href="#af" y="191.978375"/><use x="226.818405" xlink:href="#G" y="191.978375"/></g><use x="230.905879" xlink:href="#S" y="191.978375"/><use x="236.257154" xlink:href="#Y" y="191.978375"/><g><use x="241.806219" xlink:href="#H" y="191.978375"/><use x="247.421212" xlink:href="#K" y="191.978375"/><use x="252.146158" xlink:href="#L" y="191.978375"/></g><g><use x="254.123922" xlink:href="#ak" y="191.978375"/><use x="261.376164" xlink:href="#S" y="191.978375"/></g><use x="266.72744" xlink:href="#Q" y="191.978375"/><use x="269.342642" xlink:href="#Q" y="191.978375"/><use x="271.957845" xlink:href="#D" y="191.978375"/><g><use x="274.573047" xlink:href="#K" y="191.978375"/><use x="279.297993" xlink:href="#J" y="191.978375"/></g><g><use x="283.18803" xlink:href="#al" y="191.978375"/><use x="288.539306" xlink:href="#Q" y="191.978375"/></g><g><use x="291.154508" xlink:href="#H" y="191.978375"/><use x="296.769502" xlink:href="#L" y="191.978375"/></g><g><use x="298.75855" xlink:href="#K" y="191.978375"/><use x="303.483496" xlink:href="#R" y="191.978375"/></g><use x="305.318566" xlink:href="#S" y="191.978375"/><g><use x="310.669842" xlink:href="#O" y="191.978375"/><use x="316.669424" xlink:href="#S" y="191.978375"/></g><g><use x="322.0207" xlink:href="#V" y="191.978375"/><use x="327.899412" xlink:href="#J" y="191.978375"/></g><g><use x="331.822215" xlink:href="#H" y="191.978375"/><use x="337.437209" xlink:href="#I" y="191.978375"/><use x="343.38185" xlink:href="#J" y="191.978375"/></g><use x="347.304654" xlink:href="#L" y="191.978375"/><use x="349.271627" xlink:href="#S" y="191.978375"/><g><use x="354.622903" xlink:href="#U" y="191.978375"/><use x="360.567544" xlink:href="#ai" y="191.978375"/><use x="365.633125" xlink:href="#L" y="191.978375"/></g><g><use x="367.610888" xlink:href="#I" y="191.978375"/><use x="373.55553" xlink:href="#N" y="191.978375"/><use x="379.500171" xlink:href="#U" y="191.978375"/><use x="385.444812" xlink:href="#af" y="191.978375"/></g><g><use x="390.69738" xlink:href="#H" y="191.978375"/><use x="396.312374" xlink:href="#Q" y="191.978375"/></g><use x="398.927576" xlink:href="#Q" y="191.978375"/><g><use x="401.542779" xlink:href="#H" y="191.978375"/><use x="407.157773" xlink:href="#K" y="191.978375"/><use x="411.882718" xlink:href="#L" y="191.978375"/></g><g><use x="413.860778" xlink:href="#W" y="191.978375"/><use x="418.86043" xlink:href="#N" y="191.978375"/><use x="424.805071" xlink:href="#I" y="191.978375"/><use x="430.749712" xlink:href="#K" y="191.978375"/><use x="435.474658" xlink:href="#J" y="191.978375"/></g><g><use x="439.397462" xlink:href="#G" y="191.978375"/><use x="443.759796" xlink:href="#U" y="191.978375"/><use x="449.704437" xlink:href="#W" y="191.978375"/><use x="454.704089" xlink:href="#J" y="191.978375"/></g><use x="458.626892" xlink:href="#D" y="191.978375"/><g><use x="461.242095" xlink:href="#N" y="191.978375"/><use x="467.186736" xlink:href="#I" y="191.978375"/><use x="473.131377" xlink:href="#K" y="191.978375"/><use x="477.856323" xlink:href="#L" y="191.978375"/></g><g><use x="479.822988" xlink:href="#H" y="191.978375"/><use x="485.437982" xlink:href="#J" y="191.978375"/></g><use x="489.360786" xlink:href="#L" y="191.978375"/><use x="491.349636" xlink:href="#S" y="191.978375"/><g><use x="496.700912" xlink:href="#U" y="191.978375"/><use x="502.645553" xlink:href="#ai" y="191.978375"/><use x="507.711134" xlink:href="#L" y="191.978375"/></g><g><use x="509.688788" xlink:href="#G" y="191.978375"/><use x="514.051122" xlink:href="#F" y="191.978375"/><use x="519.666115" xlink:href="#I" y="191.978375"/><use x="525.610756" xlink:href="#N" y="191.978375"/></g><g><use x="531.456283" xlink:href="#af" y="191.978375"/><use x="536.807559" xlink:href="#S" y="191.978375"/></g><use x="542.158835" xlink:href="#J" y="191.978375"/><use x="546.081639" xlink:href="#D" y="191.978375"/><g><use x="548.696841" xlink:href="#N" y="191.978375"/><use x="554.641482" xlink:href="#I" y="191.978375"/><use x="560.586124" xlink:href="#K" y="191.978375"/><use x="565.311069" xlink:href="#ag" y="191.978375"/><use x="567.486742" xlink:href="#L" y="191.978375"/></g><g><use x="106.629827" xlink:href="#am" y="205.16467"/><use x="109.915313" xlink:href="#Q" y="205.16467"/></g><g><use x="112.530515" xlink:href="#K" y="205.16467"/><use x="117.255461" xlink:href="#L" y="205.16467"/></g><g><use x="119.705719" xlink:href="#K" y="205.16467"/><use x="124.430665" xlink:href="#H" y="205.16467"/><use x="130.045658" xlink:href="#L" y="205.16467"/></g><g><use x="132.507212" xlink:href="#O" y="205.16467"/><use x="138.506795" xlink:href="#F" y="205.16467"/><use x="144.121788" xlink:href="#W" y="205.16467"/><use x="149.12144" xlink:href="#Q" y="205.16467"/></g><use x="151.736643" xlink:href="#D" y="205.16467"/><g><use x="154.351845" xlink:href="#I" y="205.16467"/><use x="160.296486" xlink:href="#H" y="205.16467"/><use x="165.91148" xlink:href="#I" y="205.16467"/><use x="171.856121" xlink:href="#J" y="205.16467"/></g><use x="175.778925" xlink:href="#L" y="205.16467"/><g><use x="178.229359" xlink:href="#H" y="205.16467"/><use x="183.844352" xlink:href="#I" y="205.16467"/><use x="189.788993" xlink:href="#L" y="205.16467"/></g><g><use x="192.250218" xlink:href="#O" y="205.16467"/><use x="198.2498" xlink:href="#D" y="205.16467"/></g><g><use x="200.865003" xlink:href="#E" y="205.16467"/><use x="204.403218" xlink:href="#E" y="205.16467"/><use x="207.941433" xlink:href="#F" y="205.16467"/><use x="213.556427" xlink:href="#G" y="205.16467"/><use x="217.91876" xlink:href="#H" y="205.16467"/><use x="223.533754" xlink:href="#I" y="205.16467"/><use x="229.478395" xlink:href="#J" y="205.16467"/></g><g><use x="233.401199" xlink:href="#H" y="205.16467"/><use x="239.016193" xlink:href="#K" y="205.16467"/><use x="243.741138" xlink:href="#L" y="205.16467"/></g><g><use x="246.191682" xlink:href="#H" y="205.16467"/><use x="251.806676" xlink:href="#K" y="205.16467"/><use x="256.531621" xlink:href="#K" y="205.16467"/><use x="261.256567" xlink:href="#H" y="205.16467"/><use x="266.871561" xlink:href="#I" y="205.16467"/><use x="272.816202" xlink:href="#W" y="205.16467"/><use x="277.815854" xlink:href="#H" y="205.16467"/><use x="283.430848" xlink:href="#K" y="205.16467"/><use x="288.155793" xlink:href="#L" y="205.16467"/></g><g><use x="290.617018" xlink:href="#W" y="205.16467"/><use x="295.616669" xlink:href="#N" y="205.16467"/><use x="301.561311" xlink:href="#M" y="205.16467"/></g><use x="310.307954" xlink:href="#M" y="205.16467"/><g><use x="319.054598" xlink:href="#H" y="205.16467"/><use x="324.669592" xlink:href="#L" y="205.16467"/></g><use x="327.120135" xlink:href="#Q" y="205.16467"/><g><use x="329.735338" xlink:href="#H" y="205.16467"/><use x="335.350332" xlink:href="#L" y="205.16467"/></g><g><use x="337.811864" xlink:href="#C" y="205.16467"/><use x="346.162931" xlink:href="#N" y="205.16467"/><use x="352.107572" xlink:href="#U" y="205.16467"/><use x="358.052213" xlink:href="#Y" y="205.16467"/></g><use x="363.601277" xlink:href="#Q" y="205.16467"/><use x="366.216578" xlink:href="#S" y="205.16467"/><g><use x="371.567854" xlink:href="#K" y="205.16467"/><use x="376.2928" xlink:href="#aa" y="205.16467"/><use x="378.468473" xlink:href="#L" y="205.16467"/></g><use x="380.907819" xlink:href="#Q" y="205.16467"/><g><use x="383.523022" xlink:href="#H" y="205.16467"/><use x="389.138015" xlink:href="#L" y="205.16467"/></g><g><use x="391.588252" xlink:href="#an" y="205.16467"/><use x="398.521835" xlink:href="#H" y="205.16467"/><use x="404.136828" xlink:href="#O" y="205.16467"/><use x="410.136411" xlink:href="#L" y="205.16467"/></g><use x="412.597745" xlink:href="#ao" y="205.16467"/><g><use x="420.33347" xlink:href="#H" y="205.16467"/><use x="425.948464" xlink:href="#O" y="205.16467"/><use x="431.948046" xlink:href="#S" y="205.16467"/></g><use x="437.299322" xlink:href="#G" y="205.16467"/><g><use x="440.958375" xlink:href="#ag" y="205.16467"/><use x="443.134047" xlink:href="#ag" y="205.16467"/><use x="445.30972" xlink:href="#ag" y="205.16467"/><use x="447.485393" xlink:href="#aa" y="205.16467"/><use x="449.661066" xlink:href="#L" y="205.16467"/></g><g><use x="452.100313" xlink:href="#K" y="205.16467"/><use x="456.825259" xlink:href="#U" y="205.16467"/><use x="462.7699" xlink:href="#T" y="205.16467"/><use x="468.769482" xlink:href="#Q" y="205.16467"/></g><use x="471.384685" xlink:href="#D" y="205.16467"/><use x="473.999887" xlink:href="#M" y="205.16467"/><use x="482.746531" xlink:href="#S" y="205.16467"/><g><use x="488.097807" xlink:href="#I" y="205.16467"/><use x="494.042448" xlink:href="#J" y="205.16467"/></g><use x="497.965252" xlink:href="#L" y="205.16467"/><use x="500.404401" xlink:href="#Q" y="205.16467"/><g><use x="503.019603" xlink:href="#H" y="205.16467"/><use x="508.634597" xlink:href="#K" y="205.16467"/><use x="513.359543" xlink:href="#L" y="205.16467"/></g><g><use x="515.820767" xlink:href="#V" y="205.16467"/><use x="521.699479" xlink:href="#D" y="205.16467"/></g><g><use x="524.314681" xlink:href="#K" y="205.16467"/><use x="529.039627" xlink:href="#D" y="205.16467"/></g><g><use x="531.654829" xlink:href="#W" y="205.16467"/><use x="536.654481" xlink:href="#I" y="205.16467"/><use x="542.599122" xlink:href="#H" y="205.16467"/><use x="548.214116" xlink:href="#K" y="205.16467"/><use x="552.939062" xlink:href="#L" y="205.16467"/></g><use x="555.389606" xlink:href="#L" y="205.16467"/><g><use x="557.851039" xlink:href="#H" y="205.16467"/><use x="563.466032" xlink:href="#J" y="205.16467"/></g><use x="567.388836" xlink:href="#L" y="205.16467"/><g><use x="106.630837" xlink:href="#V" y="218.350965"/><use x="112.509549" xlink:href="#H" y="218.350965"/><use x="118.124543" xlink:href="#G" y="218.350965"/><use x="122.486876" xlink:href="#M" y="218.350965"/></g><g><use x="131.23352" xlink:href="#H" y="218.350965"/><use x="136.848514" xlink:href="#J" y="218.350965"/></g><use x="140.771318" xlink:href="#J" y="218.350965"/><use x="144.694132" xlink:href="#S" y="218.350965"/><g><use x="150.045408" xlink:href="#I" y="218.350965"/><use x="155.990049" xlink:href="#J" y="218.350965"/></g><g><use x="159.879789" xlink:href="#L" y="218.350965"/><use x="162.000521" xlink:href="#O" y="218.350965"/><use x="168.000103" xlink:href="#R" y="218.350965"/></g><use x="169.834975" xlink:href="#S" y="218.350965"/><use x="175.186251" xlink:href="#J" y="218.350965"/><use x="179.109055" xlink:href="#J" y="218.350965"/><g><use x="183.031859" xlink:href="#F" y="218.350965"/><use x="188.646853" xlink:href="#I" y="218.350965"/><use x="194.591494" xlink:href="#U" y="218.350965"/><use x="200.536135" xlink:href="#H" y="218.350965"/><use x="206.151128" xlink:href="#G" y="218.350965"/><use x="210.513462" xlink:href="#L" y="218.350965"/><use x="212.634194" xlink:href="#Q" y="218.350965"/></g><use x="215.249495" xlink:href="#S" y="218.350965"/><g><use x="220.600771" xlink:href="#L" y="218.350965"/><use x="222.721502" xlink:href="#K" y="218.350965"/><use x="227.446448" xlink:href="#U" y="218.350965"/><use x="233.391089" xlink:href="#G" y="218.350965"/><use x="237.753423" xlink:href="#H" y="218.350965"/></g><g><use x="243.016529" xlink:href="#ai" y="218.350965"/><use x="248.08211" xlink:href="#V" y="218.350965"/><use x="253.960822" xlink:href="#N" y="218.350965"/><use x="259.905463" xlink:href="#K" y="218.350965"/><use x="264.630409" xlink:href="#D" y="218.350965"/></g><use x="267.24571" xlink:href="#J" y="218.350965"/><use x="271.168514" xlink:href="#D" y="218.350965"/><g><use x="273.783716" xlink:href="#N" y="218.350965"/><use x="279.728357" xlink:href="#I" y="218.350965"/><use x="285.672999" xlink:href="#L" y="218.350965"/><use x="287.79373" xlink:href="#K" y="218.350965"/><use x="292.518676" xlink:href="#N" y="218.350965"/><use x="298.463317" xlink:href="#Q" y="218.350965"/></g><use x="301.078519" xlink:href="#S" y="218.350965"/><use x="306.39683" xlink:href="#D" y="218.350965"/><g><use x="309.012033" xlink:href="#G" y="218.350965"/><use x="313.374367" xlink:href="#H" y="218.350965"/><use x="318.98936" xlink:href="#L" y="218.350965"/><use x="321.110092" xlink:href="#H" y="218.350965"/><use x="326.725085" xlink:href="#I" y="218.350965"/><use x="332.669727" xlink:href="#L" y="218.350965"/><use x="334.790458" xlink:href="#F" y="218.350965"/><use x="340.405452" xlink:href="#J" y="218.350965"/></g><g><use x="344.328255" xlink:href="#F" y="218.350965"/><use x="349.943249" xlink:href="#ag" y="218.350965"/></g><g><use x="106.631848" xlink:href="#am" y="231.537259"/><use x="109.917333" xlink:href="#Q" y="231.537259"/></g><g><use x="112.532536" xlink:href="#K" y="231.537259"/><use x="117.257482" xlink:href="#L" y="231.537259"/><use x="119.378213" xlink:href="#V" y="231.537259"/><use x="125.256925" xlink:href="#H" y="231.537259"/><use x="130.871918" xlink:href="#U" y="231.537259"/><use x="136.816559" xlink:href="#af" y="231.537259"/></g><g><use x="142.068985" xlink:href="#H" y="231.537259"/><use x="147.683979" xlink:href="#I" y="231.537259"/><use x="153.62862" xlink:href="#J" y="231.537259"/></g><g><use x="157.551423" xlink:href="#L" y="231.537259"/><use x="159.672155" xlink:href="#V" y="231.537259"/><use x="165.550867" xlink:href="#G" y="231.537259"/><use x="169.9132" xlink:href="#N" y="231.537259"/><use x="175.857841" xlink:href="#Q" y="231.537259"/></g><g><use x="178.473044" xlink:href="#N" y="231.537259"/><use x="184.417685" xlink:href="#I" y="231.537259"/><use x="190.362326" xlink:href="#Y" y="231.537259"/></g><g><use x="195.91139" xlink:href="#H" y="231.537259"/><use x="201.526384" xlink:href="#G" y="231.537259"/><use x="205.888717" xlink:href="#L" y="231.537259"/><use x="208.009449" xlink:href="#Q" y="231.537259"/></g><g><use x="210.591885" xlink:href="#R" y="231.537259"/><use x="212.767557" xlink:href="#ah" y="231.537259"/><use x="218.712198" xlink:href="#S" y="231.537259"/></g><g><use x="224.063474" xlink:href="#T" y="231.537259"/><use x="230.063056" xlink:href="#D" y="231.537259"/></g><use x="232.678259" xlink:href="#J" y="231.537259"/><use x="236.601063" xlink:href="#S" y="231.537259"/><use x="241.952339" xlink:href="#J" y="231.537259"/><use x="245.842079" xlink:href="#D" y="231.537259"/><g><use x="248.457281" xlink:href="#N" y="231.537259"/><use x="254.401922" xlink:href="#I" y="231.537259"/><use x="260.346563" xlink:href="#L" y="231.537259"/><use x="262.467295" xlink:href="#N" y="231.537259"/><use x="268.411936" xlink:href="#U" y="231.537259"/><use x="274.356577" xlink:href="#L" y="231.537259"/><use x="276.477308" xlink:href="#G" y="231.537259"/><use x="280.839642" xlink:href="#H" y="231.537259"/><use x="286.454636" xlink:href="#K" y="231.537259"/><use x="291.179582" xlink:href="#J" y="231.537259"/></g><g><use x="295.102385" xlink:href="#H" y="231.537259"/><use x="300.717379" xlink:href="#G" y="231.537259"/><use x="305.079713" xlink:href="#L" y="231.537259"/><use x="307.200444" xlink:href="#S" y="231.537259"/></g><g><use x="312.55172" xlink:href="#U" y="231.537259"/><use x="318.496361" xlink:href="#J" y="231.537259"/></g><g><use x="322.419165" xlink:href="#N" y="231.537259"/><use x="328.363806" xlink:href="#I" y="231.537259"/><use x="334.308447" xlink:href="#N" y="231.537259"/><use x="340.253088" xlink:href="#M" y="231.537259"/></g><g><use x="348.999732" xlink:href="#H" y="231.537259"/><use x="354.614726" xlink:href="#K" y="231.537259"/><use x="359.339671" xlink:href="#ag" y="231.537259"/></g></g><use fill="#654e1b" x="108.26568" xlink:href="#ap" y="145.67285"/><g fill="#654e1b"><use x="119.468151" xlink:href="#aq" y="145.67285"/><use x="129.250162" xlink:href="#ar" y="145.67285"/><use x="136.676578" xlink:href="#as" y="145.67285"/><use x="146.080974" xlink:href="#at" y="145.67285"/><use x="156.510324" xlink:href="#au" y="145.67285"/><use x="161.635091" xlink:href="#av" y="145.67285"/><use x="171.327194" xlink:href="#aw" y="145.67285"/><use x="175.57086" xlink:href="#ax" y="145.67285"/><use x="179.041316" xlink:href="#ay" y="145.67285"/><use x="190.83727" xlink:href="#ar" y="145.67285"/><use x="198.263687" xlink:href="#az" y="145.67285"/><use x="203.388453" xlink:href="#aA" y="145.67285"/><use x="211.300374" xlink:href="#aq" y="145.67285"/><use x="221.082385" xlink:href="#aB" y="145.67285"/><use x="227.735591" xlink:href="#aA" y="145.67285"/><use x="235.647511" xlink:href="#at" y="145.67285"/><use x="246.076861" xlink:href="#au" y="145.67285"/><use x="251.201628" xlink:href="#aq" y="145.67285"/><use x="260.983639" xlink:href="#az" y="145.67285"/><use x="266.108405" xlink:href="#au" y="145.67285"/><use x="271.233172" xlink:href="#aw" y="145.67285"/><use x="275.476839" xlink:href="#ax" y="145.67285"/><use x="278.947295" xlink:href="#aC" y="145.67285"/><use x="292.199762" xlink:href="#aD" y="145.67285"/><use x="302.629111" xlink:href="#aE" y="145.67285"/></g><g fill="#654e1b"><use x="312.213306" xlink:href="#aq" y="145.67285"/><use x="321.995317" xlink:href="#aF" y="145.67285"/><use x="332.424667" xlink:href="#aG" y="145.67285"/></g><g fill="#654e1b"><use x="638.371232" xlink:href="#aH" y="145.67285"/><use x="648.11728" xlink:href="#aG" y="145.67285"/><use x="655.309935" xlink:href="#ar" y="145.67285"/><use x="662.736351" xlink:href="#aD" y="145.67285"/><use x="673.165701" xlink:href="#aI" y="145.67285"/><use x="681.904777" xlink:href="#aG" y="145.67285"/><use x="689.097432" xlink:href="#aD" y="145.67285"/><use x="699.526782" xlink:href="#ar" y="145.67285"/><use x="706.953198" xlink:href="#aq" y="145.67285"/><use x="716.735209" xlink:href="#aA" y="145.67285"/><use x="724.647129" xlink:href="#ax" y="145.67285"/><use x="728.117586" xlink:href="#av" y="145.67285"/></g><use fill="#654e1b" x="737.450127" xlink:href="#aE" y="145.67285"/><g fill="#654e1b"><use x="747.034628" xlink:href="#aq" y="145.67285"/><use x="756.816639" xlink:href="#aI" y="145.67285"/><use x="765.555715" xlink:href="#ax" y="145.67285"/><use x="769.026171" xlink:href="#aI" y="145.67285"/><use x="777.765247" xlink:href="#av" y="145.67285"/><use x="787.457349" xlink:href="#aF" y="145.67285"/><use x="797.886699" xlink:href="#az" y="145.67285"/><use x="803.011466" xlink:href="#aA" y="145.67285"/><use x="810.923386" xlink:href="#aA" y="145.67285"/><use x="818.835307" xlink:href="#aq" y="145.67285"/></g><g fill="#4e461e"><use x="638.371232" xlink:href="#aC" y="642.28243"/><use x="651.623699" xlink:href="#aJ" y="642.28243"/><use x="662.053049" xlink:href="#ar" y="642.28243"/><use x="669.479465" xlink:href="#az" y="642.28243"/><use x="674.604232" xlink:href="#aA" y="642.28243"/><use x="682.516153" xlink:href="#ax" y="642.28243"/><use x="685.986609" xlink:href="#aK" y="642.28243"/><use x="698.987333" xlink:href="#ax" y="642.28243"/><use x="702.457789" xlink:href="#aL" y="642.28243"/><use x="714.415578" xlink:href="#av" y="642.28243"/><use x="724.10768" xlink:href="#aF" y="642.28243"/><use x="734.53703" xlink:href="#as" y="642.28243"/><use x="743.941427" xlink:href="#aq" y="642.28243"/><use x="753.723437" xlink:href="#aM" y="642.28243"/><use x="769.205627" xlink:href="#aq" y="642.28243"/><use x="778.987638" xlink:href="#aF" y="642.28243"/><use x="789.416988" xlink:href="#aG" y="642.28243"/></g></svg>