<svg preserveAspectRatio="none" height="901.3803pt" viewBox="0 0 1207.6 901.38" width="1207.6pt" xmlns="http://www.w3.org/2000/svg" xmlns:xlink="http://www.w3.org/1999/xlink"><symbol id="a" overflow="visible"><path d="m1.859-.438h1.938v-6.89c0-.133.004-.274.016-.422l-1.86 1.656c-.043.031-.094.047-.156.047-.063 0-.117-.019-.156-.062l-.172-.25 2.453-2.157h.453v8.078h1.844v.438h-4.36zm0 0"/></symbol><symbol id="b" overflow="visible"><path d="m3.609-8.578c.321 0 .629.047.922.14.289.094.547.243.766.438.226.187.41.43.547.719.133.281.203.609.203.984 0 .324-.055.625-.156.906-.094.274-.227.532-.391.782-.168.25-.367.496-.594.734-.218.242-.449.48-.687.719l-2.656 2.718c.125-.031.253-.054.39-.078.133-.019.274-.031.422-.031h3.656c.063 0 .114.024.157.063.039.043.062.093.062.156v.328h-5.484v-.203c0-.039.007-.082.031-.125.031-.051.062-.094.094-.125l2.89-2.938c.239-.238.457-.472.657-.703.207-.226.382-.457.531-.687.156-.227.273-.461.359-.703.082-.25.125-.516.125-.797 0-.301-.055-.567-.156-.797-.106-.238-.246-.43-.422-.578-.168-.145-.367-.254-.594-.328-.218-.071-.453-.11-.703-.11-.273 0-.523.043-.75.125-.219.086-.418.199-.594.344-.168.148-.308.324-.421.531-.118.199-.2.418-.25.656-.032.137-.11.204-.235.204-.012 0-.023 0-.031 0-.012 0-.024 0-.031 0l-.282-.047c.039-.364.133-.688.282-.969.156-.289.347-.531.578-.719.226-.195.492-.347.797-.453.3-.101.625-.156.968-.156zm0 0"/></symbol><symbol id="c" overflow="visible"><path d="m3.672-8.578c.32 0 .625.047.906.14.289.086.547.219.766.407.219.179.39.402.515.672.125.261.188.57.188.921 0 .282-.043.532-.125.75-.086.219-.203.415-.359.579-.149.168-.325.308-.532.421-.199.118-.418.204-.656.266.625.117 1.094.356 1.406.719.321.367.485.824.485 1.375 0 .344-.075.668-.219.969-.137.293-.324.546-.563.765-.242.219-.527.391-.859.516-.336.113-.695.172-1.078.172-.492 0-.899-.063-1.219-.188-.312-.133-.574-.304-.781-.515-.211-.207-.375-.438-.5-.688-.117-.258-.211-.519-.281-.781l.234-.094c.051-.019.098-.031.141-.031.039 0 .082.012.125.031.039.024.07.059.093.109l.032.125c.031.075.066.165.109.266.039.106.098.215.172.328.07.117.156.231.25.344.101.117.226.219.375.312.156.086.332.157.531.219.207.055.442.078.703.078.364 0 .68-.054.953-.172.27-.125.493-.281.672-.468.176-.188.313-.395.407-.625.093-.227.14-.446.14-.657 0-.257-.043-.5-.125-.718-.086-.227-.226-.422-.422-.578-.187-.164-.437-.297-.75-.391-.312-.094-.699-.141-1.156-.141v-.422c.363-.007.688-.054.969-.14.281-.094.515-.219.703-.375.187-.156.328-.336.422-.547.094-.219.14-.457.14-.719 0-.301-.054-.562-.156-.781-.094-.219-.226-.398-.39-.547-.168-.144-.368-.25-.594-.312-.219-.071-.449-.11-.688-.11-.273 0-.523.043-.75.125-.218.086-.418.199-.593.344-.168.137-.309.309-.422.516-.118.199-.203.421-.266.671-.031.137-.105.204-.219.204-.031 0-.054 0-.062 0l-.297-.047c.051-.364.148-.688.297-.969.144-.289.332-.531.562-.719.227-.195.492-.347.797-.453.301-.101.625-.156.969-.156zm0 0"/></symbol><symbol id="d" overflow="visible"><path d="m5.141-2.891h1.562v.313c0 .043-.015.078-.047.109-.023.024-.062.031-.125.031h-1.39v2.438h-.516v-2.438h-3.984c-.063 0-.11-.007-.141-.031-.031-.031-.055-.066-.062-.109l-.063-.281 4.266-5.625h.5zm-.516-4.437c0-.07 0-.145 0-.219.008-.07.02-.148.031-.234l-3.656 4.89h3.625zm0 0"/></symbol><symbol id="e" overflow="visible"><path d="m7.031-8.781c-.074.117-.148.199-.218.25-.075.054-.168.078-.282.078-.105 0-.226-.035-.359-.11-.125-.082-.274-.164-.438-.25-.168-.093-.367-.175-.593-.25-.219-.082-.477-.125-.766-.125-.523 0-.914.118-1.172.344-.262.231-.39.531-.39.906 0 .243.07.438.218.594.145.156.332.293.563.406.226.118.488.219.781.313.301.094.602.195.906.297.313.105.614.23.907.375.3.148.566.328.796.547.227.218.414.492.563.812.144.313.219.699.219 1.156 0 .493-.09.954-.266 1.391-.168.43-.418.805-.75 1.125-.324.324-.727.578-1.203.766-.469.187-1.008.281-1.609.281-.344 0-.688-.039-1.032-.109-.343-.071-.679-.172-1-.297-.312-.125-.609-.27-.89-.438-.282-.176-.528-.375-.735-.594l.657-1.062c.062-.082.132-.148.218-.203.094-.051.192-.078.297-.078.125 0 .258.054.406.156.157.094.332.203.532.328.195.117.422.227.672.328.257.106.57.156.937.156.52 0 .922-.117 1.203-.359.289-.238.438-.598.438-1.078 0-.27-.075-.488-.219-.656-.137-.176-.32-.321-.547-.438-.23-.113-.496-.211-.797-.297-.293-.082-.594-.172-.906-.265-.305-.102-.606-.223-.906-.36-.293-.144-.555-.332-.782-.562-.23-.227-.418-.508-.562-.844-.137-.344-.203-.769-.203-1.281 0-.395.078-.781.234-1.156.156-.383.391-.723.703-1.016.313-.301.692-.539 1.141-.719.445-.176.969-.265 1.562-.265.645 0 1.243.101 1.797.296.563.2 1.035.481 1.422.844zm0 0"/></symbol><symbol id="f" overflow="visible"><path d="m8.547-2.672c.125 0 .226.043.312.125l.891.953c-.437.563-.984.992-1.641 1.281-.656.293-1.433.438-2.328.438-.812 0-1.547-.141-2.203-.422-.648-.281-1.199-.664-1.656-1.156-.449-.488-.797-1.07-1.047-1.75-.242-.688-.359-1.43-.359-2.235 0-.539.054-1.05.172-1.531.125-.488.296-.937.515-1.344.227-.414.5-.785.813-1.109.32-.332.679-.613 1.078-.844.394-.238.828-.414 1.297-.531.476-.125.984-.187 1.515-.187.407 0 .785.039 1.141.109.351.062.687.156 1 .281.312.125.598.278.859.453.258.18.492.371.703.578l-.75 1.032c-.054.074-.117.136-.187.187-.063.043-.152.063-.266.063-.125 0-.25-.039-.375-.125-.117-.082-.265-.176-.453-.282-.18-.101-.402-.195-.672-.281-.261-.094-.593-.14-1-.14-.461 0-.883.086-1.265.25-.375.168-.7.406-.969.718-.274.313-.484.7-.641 1.157-.148.449-.218.964-.218 1.546 0 .586.078 1.106.234 1.563.164.461.391.844.672 1.156.289.313.625.555 1 .719.375.156.773.234 1.203.234.258 0 .492-.007.703-.031.207-.019.398-.062.578-.125.176-.062.344-.141.5-.234.156-.094.313-.211.469-.36.051-.039.109-.078.172-.109.062-.031.129-.047.203-.047zm0 0"/></symbol><symbol id="g" overflow="visible"><path d="m6.875-4.125-1.172-3.328c-.074-.176-.152-.379-.234-.61-.074-.238-.141-.492-.203-.765-.075.281-.153.543-.235.781-.074.231-.148.434-.218.609l-1.157 3.313zm3.781 4.125h-1.75c-.199 0-.359-.047-.484-.141-.117-.093-.203-.211-.266-.359l-.734-2.063h-4.328l-.735 2.063c-.054.125-.14.242-.265.344-.125.105-.281.156-.469.156h-1.766l4.25-10.875h2.297zm0 0"/></symbol><symbol id="h" overflow="visible"><path d="m10.453-10.875v10.875h-1.156c-.18 0-.328-.023-.453-.078-.117-.063-.231-.16-.344-.297l-5.422-6.906c.02.179.031.355.031.531.008.168.016.324.016.469v6.281h-1.984v-10.875h1.187c.094 0 .172.008.235.016.07.011.132.031.187.062.051.024.102.059.156.109.051.043.11.102.172.172l5.453 6.922c-.023-.187-.039-.367-.047-.547-.011-.175-.015-.347-.015-.515v-6.219zm0 0"/></symbol><symbol id="i" overflow="visible"><path d="m3.406-9.109v2.796h3.625v1.704h-3.625v2.843h4.657v1.766h-6.922v-10.875h6.922v1.766zm0 0"/></symbol><symbol id="j" overflow="visible"><path d="m8.734-10.047c0 .117-.023.234-.062.359-.043.118-.094.219-.156.313l-5.375 7.609h5.437v1.766h-8.312v-.875c0-.102.015-.207.047-.313.031-.101.082-.195.156-.281l5.375-7.64h-5.203v-1.766h8.093zm0 0"/></symbol><symbol id="k" overflow="visible"><path d="m2.563-4.266v4.266h-.766v-10.609h2.734c1.239 0 2.176.277 2.813.828.633.543.953 1.32.953 2.328 0 .461-.09.887-.266 1.281-.168.387-.418.719-.75 1-.324.281-.718.508-1.187.672-.461.156-.981.234-1.563.234zm0-.625h1.968c.469 0 .883-.062 1.25-.187.375-.133.692-.317.953-.547.258-.227.457-.5.594-.813.133-.312.203-.648.203-1.015 0-.813-.25-1.438-.75-1.875-.5-.445-1.25-.672-2.25-.672h-1.968zm0 0"/></symbol><symbol id="l" overflow="visible"><path d="m11.031-5.297c0 .813-.125 1.555-.375 2.219-.242.668-.586 1.242-1.031 1.719-.449.468-.98.836-1.594 1.093-.617.25-1.304.375-2.062.375-.742 0-1.422-.125-2.047-.375-.617-.257-1.149-.625-1.594-1.093-.449-.477-.797-1.051-1.047-1.719-.242-.664-.359-1.406-.359-2.219 0-.82.117-1.566.359-2.234.25-.664.598-1.235 1.047-1.703.445-.469.977-.832 1.594-1.094.625-.258 1.305-.391 2.047-.391.758 0 1.445.133 2.062.391.614.25 1.145.617 1.594 1.094.445.468.789 1.039 1.031 1.703.25.668.375 1.414.375 2.234zm-.797 0c0-.738-.105-1.406-.312-2-.199-.594-.484-1.094-.859-1.5s-.825-.719-1.344-.937c-.524-.219-1.106-.329-1.75-.329-.625 0-1.199.11-1.719.329-.523.218-.977.531-1.359.937-.375.406-.668.906-.875 1.5-.211.594-.313 1.262-.313 2 0 .742.102 1.406.313 2 .207.586.5 1.078.875 1.484.382.407.836.719 1.359.938.52.219 1.094.328 1.719.328.644 0 1.226-.109 1.75-.328.519-.219.969-.531 1.344-.938.375-.406.66-.898.859-1.484.207-.594.312-1.258.312-2zm0 0"/></symbol><symbol id="m" overflow="visible"><path d="m5.484-.547c.508 0 .969-.086 1.375-.266.407-.175.743-.421 1.016-.734.281-.312.492-.68.641-1.109.156-.426.234-.891.234-1.391v-6.562h.75v6.562c0 .586-.094 1.133-.281 1.641-.18.511-.446.953-.797 1.328-.344.375-.766.672-1.266.89-.492.208-1.047.313-1.672.313-.617 0-1.171-.105-1.671-.313-.493-.218-.915-.515-1.266-.89-.344-.375-.609-.817-.797-1.328-.187-.508-.281-1.055-.281-1.641v-6.562h.781v6.562c0 .492.07.949.219 1.375.144.43.351.797.625 1.109.281.313.625.563 1.031.75.406.18.859.266 1.359.266zm0 0"/></symbol><symbol id="n" overflow="visible"><path d="m2.563-4.797v4.797h-.766v-10.609h2.703c1.227 0 2.145.242 2.75.718.602.469.906 1.164.906 2.078 0 .407-.074.778-.218 1.11-.137.336-.336.625-.594.875-.262.25-.578.461-.953.625-.368.168-.782.273-1.25.312.113.086.222.188.328.313l3.64 4.578h-.671c-.075 0-.141-.016-.204-.047-.054-.031-.109-.078-.171-.141l-3.391-4.312c-.086-.102-.18-.176-.281-.219-.094-.051-.243-.078-.438-.078zm0-.562h1.843c.469 0 .883-.055 1.25-.172.375-.114.692-.274.953-.485.258-.207.457-.457.594-.75.133-.3.203-.632.203-1 0-.757-.25-1.32-.75-1.687-.492-.363-1.211-.547-2.156-.547h-1.937zm0 0"/></symbol><symbol id="o" overflow="visible"/><symbol id="p" overflow="visible"><path d="m2.344-.656h5.015v.656h-5.781v-10.609h.766zm0 0"/></symbol><symbol id="q" overflow="visible"><path d="m6.703-9.313c-.055.086-.121.125-.203.125-.062 0-.148-.046-.25-.14-.105-.094-.246-.192-.422-.297-.168-.113-.387-.219-.656-.313-.262-.093-.586-.14-.969-.14-.375 0-.715.058-1.015.172-.293.105-.54.25-.735.437-.187.188-.336.406-.437.656-.106.25-.157.512-.157.782 0 .367.071.668.219.906.156.23.36.43.61.594.25.168.531.308.843.422.321.105.649.214.985.328.332.105.656.226.968.359.321.137.61.305.86.5.25.199.445.445.594.734.156.293.234.657.234 1.094 0 .449-.078.871-.234 1.266-.149.387-.368.726-.657 1.015-.293.293-.648.524-1.062.688-.418.164-.899.25-1.438.25-.699 0-1.304-.125-1.812-.375-.5-.25-.938-.586-1.313-1.016l.203-.328c.063-.07.133-.109.219-.109.039 0 .094.031.156.094.071.054.157.125.25.218.102.086.223.18.36.282.144.105.312.199.5.281.187.086.398.156.64.219.239.062.508.093.813.093.414 0 .789-.062 1.125-.187.332-.133.609-.313.828-.531.227-.219.398-.477.516-.782.125-.3.187-.625.187-.968 0-.375-.078-.68-.234-.922-.149-.239-.344-.438-.594-.594-.25-.164-.539-.305-.859-.422-.313-.113-.637-.223-.969-.328-.336-.102-.664-.219-.984-.344-.313-.133-.594-.301-.844-.5-.25-.195-.453-.445-.61-.75-.148-.312-.218-.691-.218-1.14 0-.352.066-.692.203-1.016.133-.332.332-.625.594-.875.257-.258.578-.461.953-.609.382-.157.82-.235 1.312-.235.551 0 1.047.09 1.485.266.437.168.832.433 1.187.797zm0 0"/></symbol><symbol id="r" overflow="visible"><path d="m10.5-5.297c0 .813-.125 1.547-.375 2.203-.242.656-.586 1.215-1.031 1.672-.449.461-.981.813-1.594 1.063-.617.242-1.305.359-2.062.359h-3.86v-10.609h3.86c.757 0 1.445.125 2.062.375.613.242 1.145.593 1.594 1.062.445.461.789 1.016 1.031 1.672.25.648.375 1.383.375 2.203zm-.797 0c0-.738-.105-1.398-.312-1.984-.2-.582-.485-1.071-.86-1.469-.375-.395-.828-.695-1.359-.906-.524-.219-1.102-.328-1.734-.328h-3.094v9.359h3.094c.632 0 1.21-.102 1.734-.313.531-.207.984-.507 1.359-.906.375-.406.66-.894.86-1.469.207-.582.312-1.242.312-1.984zm0 0"/></symbol><symbol id="s" overflow="visible"><path d="m7.922-10.609v.64h-5.578v4.297h4.64v.609h-4.64v4.422h5.578v.641h-6.344v-10.609zm0 0"/></symbol><symbol id="t" overflow="visible"><path d="m7.922-10.609v.64h-5.578v4.297h4.64v.609h-4.64v4.422h5.578v.641h-6.344v-10.609zm-.938-2.657-2.187 1.625c-.055.032-.102.059-.141.078-.043.012-.093.016-.156.016h-.516l1.704-1.547c.062-.062.125-.101.187-.125.063-.031.148-.047.266-.047zm0 0"/></symbol><symbol id="u" overflow="visible"><path d="m9.547 0h-.594c-.062 0-.121-.016-.172-.047-.043-.039-.074-.094-.093-.156l-1.25-3.078h-5.219l-1.235 3.078c-.023.055-.058.101-.109.14-.055.043-.109.063-.172.063h-.594l4.344-10.609h.766zm-7.094-3.844h4.75l-2.156-5.359c-.043-.082-.078-.176-.109-.281-.032-.114-.071-.235-.11-.36-.031.125-.07.246-.109.36-.031.105-.063.199-.094.281zm0 0"/></symbol><symbol id="v" overflow="visible"><path d="m2.625 0h-.781v-10.609h.781zm0 0"/></symbol><symbol id="w" overflow="visible"><path d="m8.5-10.609v.656h-3.734v9.953h-.75v-9.953h-3.75v-.656zm0 0"/></symbol><symbol id="x" overflow="visible"><path d="m1.953-10.609c.063 0 .113.011.156.031.039.023.082.062.125.125l6.875 9.172c-.023-.145-.031-.285-.031-.422v-8.906h.672v10.609h-.359c-.118 0-.211-.051-.282-.156l-6.89-9.188c.008.149.015.289.015.422v8.922h-.656v-10.609zm0 0"/></symbol><symbol id="y" overflow="visible"><path d="m3.844-7.234h.5c.414 0 .719-.129.906-.391l3.109-4.172c.145-.195.305-.332.485-.406.176-.082.394-.125.656-.125h2.203l-3.922 5.062c-.261.325-.527.559-.797.703.196.075.375.18.532.313.164.125.32.293.468.5l4.032 5.75h-2.282c-.148 0-.273-.008-.375-.031-.105-.02-.199-.051-.281-.094-.074-.039-.14-.086-.203-.141-.055-.062-.105-.132-.156-.218l-3.172-4.438c-.106-.144-.231-.25-.375-.312-.149-.071-.356-.11-.625-.11h-.703v5.344h-2.547v-12.328h2.547zm0 0"/></symbol><symbol id="z" overflow="visible"><path d="m7.813-4.672-1.329-3.781c-.086-.195-.171-.426-.265-.688-.086-.269-.164-.562-.235-.875-.086.325-.171.621-.265.891-.086.262-.168.492-.25.687l-1.313 3.766zm4.281 4.672h-1.985c-.218 0-.402-.051-.546-.156-.137-.102-.235-.239-.297-.407l-.828-2.343h-4.922l-.828 2.343c-.055.149-.153.278-.297.391-.137.117-.313.172-.532.172h-2l4.813-12.328h2.609zm0 0"/></symbol><symbol id="A" overflow="visible"><path d="m8.609-2.078v2.078h-7.312v-12.328h2.547v10.25zm0 0"/></symbol><symbol id="B" overflow="visible"><path d="m3.859 0h-2.562v-12.328h2.562zm0 0"/></symbol><symbol id="C" overflow="visible"><path d="m7.969-9.969c-.086.137-.168.235-.25.297-.086.055-.188.078-.313.078s-.261-.039-.406-.125c-.148-.082-.32-.176-.516-.281-.187-.102-.406-.195-.656-.281-.25-.094-.543-.141-.875-.141-.586 0-1.027.137-1.328.406-.293.262-.437.602-.437 1.016 0 .281.078.512.234.687.164.18.379.336.641.469.269.125.57.242.906.344.332.094.672.203 1.015.328.352.125.696.274 1.032.438.343.156.644.359.906.609.258.25.469.559.625.922.164.355.25.793.25 1.312 0 .555-.102 1.075-.297 1.563-.187.492-.469.918-.844 1.281-.367.367-.82.656-1.359.875-.543.207-1.156.313-1.844.313-.387 0-.777-.043-1.172-.125-.386-.082-.761-.192-1.125-.329-.355-.144-.695-.316-1.015-.515-.313-.195-.586-.414-.813-.656l.735-1.204c.062-.093.144-.164.25-.218.101-.063.21-.094.328-.094.156 0 .316.059.484.172.164.105.359.226.578.359.227.137.488.262.781.375.289.117.641.172 1.047.172.594 0 1.051-.133 1.375-.406.321-.27.485-.676.485-1.219 0-.312-.086-.562-.25-.75-.157-.187-.368-.344-.625-.469-.262-.132-.559-.25-.891-.343-.336-.094-.68-.196-1.031-.313-.344-.113-.684-.25-1.016-.406-.336-.164-.633-.379-.89-.641-.262-.258-.477-.582-.641-.969-.156-.382-.234-.859-.234-1.421 0-.457.085-.899.265-1.329.176-.437.442-.82.797-1.156.352-.332.785-.597 1.297-.797.508-.207 1.098-.312 1.766-.312.738 0 1.421.117 2.046.344.633.23 1.172.546 1.61.953zm0 0"/></symbol><symbol id="D" overflow="visible"><path d="m10.016-10.266h-3.61v10.266h-2.547v-10.266h-3.609v-2.062h9.766zm0 0"/></symbol><symbol id="E" overflow="visible"><path d="m6.875-4.734v4.734h-2.547v-4.734l-4.469-7.594h2.235c.219 0 .394.055.531.156.133.106.242.242.328.406l2.016 3.891c.133.262.254.508.359.734.113.219.211.446.297.672.082-.226.176-.457.281-.687.102-.227.219-.469.344-.719l2.016-3.891c.062-.132.16-.257.297-.375.132-.125.312-.187.531-.187h2.265zm0 0"/></symbol><symbol id="F" overflow="visible"><path d="m3.859-10.328v3.172h4.11v1.922h-4.11v3.234h5.282v2h-7.844v-12.328h7.844v2zm0 0"/></symbol><g fill="#231f20"><g><use x="295.615877" xlink:href="#a" y="866.273436"/><use x="302.568777" xlink:href="#b" y="866.273436"/><use x="309.521677" xlink:href="#c" y="866.273436"/></g><g><use x="890.286041" xlink:href="#a" y="866.273436"/><use x="897.23894" xlink:href="#b" y="866.273436"/><use x="904.19184" xlink:href="#d" y="866.273436"/></g><use x="886.555605" xlink:href="#e" y="779.28624"/><use x="899.007889" xlink:href="#f" y="779.28624"/><use x="913.078715" xlink:href="#g" y="779.28624"/><use x="927.793584" xlink:href="#h" y="779.28624"/><use x="943.587456" xlink:href="#h" y="779.28624"/><use x="959.366537" xlink:href="#i" y="779.28624"/><use x="972.163574" xlink:href="#j" y="779.28624"/><g><use x="886.555605" xlink:href="#k" y="798.266191"/><use x="895.456516" xlink:href="#l" y="798.266191"/><use x="907.414305" xlink:href="#m" y="798.266191"/><use x="918.413073" xlink:href="#n" y="798.266191"/><use x="927.868418" xlink:href="#o" y="798.266191"/></g><g><use x="941.699743" xlink:href="#k" y="798.266191"/><use x="950.600654" xlink:href="#p" y="798.266191"/><use x="958.272819" xlink:href="#m" y="798.266191"/><use x="969.271588" xlink:href="#q" y="798.266191"/></g><use x="977.10839" xlink:href="#o" y="798.266191"/><g><use x="990.939841" xlink:href="#r" y="798.266191"/><use x="1002.328211" xlink:href="#s" y="798.266191"/><use x="1011.184168" xlink:href="#o" y="798.266191"/></g><use x="886.555605" xlink:href="#n" y="817.246142"/><use x="898.138687" xlink:href="#t" y="817.246142"/><use x="909.137275" xlink:href="#u" y="817.246142"/><use x="920.930442" xlink:href="#p" y="817.246142"/><use x="930.74524" xlink:href="#v" y="817.246142"/><use x="937.353701" xlink:href="#q" y="817.246142"/><use x="947.333435" xlink:href="#u" y="817.246142"/><use x="958.27249" xlink:href="#w" y="817.246142"/><use x="969.166275" xlink:href="#v" y="817.246142"/><use x="975.789527" xlink:href="#l" y="817.246142"/><use x="989.875248" xlink:href="#x" y="817.246142"/><use x="1003.346401" xlink:href="#q" y="817.246142"/><use x="1011.183309" xlink:href="#o" y="817.246142"/></g><use fill="#89d02d" x="886.555605" xlink:href="#y" y="836.227093"/><use fill="#89d02d" x="901.414918" xlink:href="#z" y="836.227093"/><use fill="#89d02d" x="916.393414" xlink:href="#A" y="836.227093"/><use fill="#89d02d" x="928.314989" xlink:href="#A" y="836.227093"/><use fill="#89d02d" x="940.236564" xlink:href="#B" y="836.227093"/><use fill="#89d02d" x="948.438907" xlink:href="#C" y="836.227093"/><use fill="#89d02d" x="960.853174" xlink:href="#D" y="836.227093"/><use fill="#89d02d" x="974.167197" xlink:href="#E" y="836.227093"/><use fill="#89d02d" x="988.39847" xlink:href="#A" y="836.227093"/><use fill="#89d02d" x="1000.320045" xlink:href="#F" y="836.227093"/></svg>