<svg preserveAspectRatio="none" height="901.3803pt" viewBox="0 0 1207.6 901.38" width="1207.6pt" xmlns="http://www.w3.org/2000/svg" xmlns:xlink="http://www.w3.org/1999/xlink"><symbol id="a" overflow="visible"><path d="m3.594.063c-.586 0-1.11-.157-1.578-.469-.461-.313-.821-.754-1.078-1.328-.25-.582-.375-1.27-.375-2.063 0-.789.125-1.473.375-2.047.257-.582.617-1.031 1.078-1.344.468-.312.992-.468 1.578-.468.582 0 1.101.156 1.562.468.457.313.817.762 1.078 1.344.258.574.391 1.258.391 2.047 0 .793-.133 1.481-.391 2.063-.261.574-.621 1.015-1.078 1.328-.461.312-.98.469-1.562.469zm0-.719c.437 0 .82-.117 1.156-.36.344-.25.609-.609.797-1.078.187-.469.281-1.035.281-1.703 0-.664-.094-1.234-.281-1.703-.188-.469-.453-.82-.797-1.063-.336-.25-.719-.375-1.156-.375-.449 0-.84.125-1.172.375-.336.243-.594.594-.781 1.063-.188.469-.282 1.039-.282 1.703 0 .668.094 1.234.282 1.703.187.469.445.828.781 1.078.332.243.723.36 1.172.36zm0 0"/></symbol><symbol id="b" overflow="visible"><path d="m3.703-4.547c.5 0 .942.094 1.328.281.383.188.688.453.907.797.218.344.328.746.328 1.203 0 .461-.118.868-.344 1.219-.219.356-.527.633-.922.828-.398.188-.84.282-1.328.282-1 0-1.774-.329-2.313-.985-.531-.664-.796-1.601-.796-2.812 0-.844.144-1.555.437-2.141.289-.582.695-1.023 1.219-1.328.519-.301 1.125-.453 1.812-.453.75 0 1.348.136 1.797.406l-.312.641c-.356-.239-.844-.36-1.469-.36-.844 0-1.508.266-1.984.797-.469.531-.704 1.305-.704 2.313 0 .179.008.382.032.609.187-.406.484-.723.89-.953.414-.227.891-.344 1.422-.344zm-.062 3.953c.55 0 1-.148 1.343-.453.344-.301.516-.703.516-1.203s-.172-.895-.516-1.188c-.343-.289-.808-.437-1.39-.437-.387 0-.727.074-1.016.219-.293.136-.523.336-.687.593-.168.25-.25.532-.25.844 0 .281.078.547.234.797s.383.453.688.609c.3.149.66.219 1.078.219zm0 0"/></symbol><symbol id="c" overflow="visible"/><symbol id="d" overflow="visible"><path d="m2.922-7.656c1.008 0 1.781.336 2.312 1 .539.656.813 1.59.813 2.797 0 .843-.149 1.562-.438 2.156-.293.586-.699 1.027-1.218 1.328-.524.293-1.133.438-1.828.438-.75 0-1.352-.133-1.797-.407l.312-.625c.363.231.86.344 1.485.344.832 0 1.488-.266 1.968-.797.477-.531.719-1.301.719-2.312 0-.188-.012-.391-.031-.61-.188.406-.492.727-.906.953-.407.231-.883.344-1.422.344-.5 0-.946-.094-1.328-.281-.387-.188-.688-.453-.907-.797-.211-.344-.312-.742-.312-1.203 0-.457.109-.863.328-1.219.226-.351.535-.625.922-.812.394-.196.836-.297 1.328-.297zm.094 3.953c.382 0 .722-.07 1.015-.219.289-.144.52-.344.688-.594.164-.257.25-.547.25-.859 0-.281-.078-.539-.235-.781-.156-.25-.386-.453-.687-.61-.305-.156-.668-.234-1.094-.234-.543 0-.984.152-1.328.453-.344.305-.516.703-.516 1.203s.172.903.516 1.203c.344.293.805.438 1.391.438zm0 0"/></symbol><symbol id="e" overflow="visible"><path d="m4.906-3.984c.477.168.844.414 1.094.734.258.312.391.695.391 1.141 0 .437-.121.824-.36 1.156-.23.324-.57.574-1.015.75-.45.18-.969.266-1.563.266-.918 0-1.637-.192-2.156-.579-.524-.394-.781-.925-.781-1.593 0-.457.125-.844.375-1.157.25-.312.613-.55 1.093-.718-.386-.145-.683-.36-.89-.641-.199-.289-.297-.633-.297-1.031 0-.614.238-1.098.719-1.453.476-.364 1.125-.547 1.937-.547.531 0 .992.086 1.391.25.406.156.719.39.937.703.227.305.344.652.344 1.047 0 .398-.105.742-.312 1.031-.211.281-.512.496-.907.641zm-3.328-1.641c0 .418.16.75.485 1 .332.242.796.359 1.39.359.582 0 1.039-.117 1.375-.359.332-.25.5-.578.5-.984 0-.426-.172-.766-.515-1.016-.336-.25-.79-.375-1.36-.375-.586 0-1.043.125-1.375.375-.336.25-.5.586-.5 1zm1.875 5.031c.664 0 1.188-.133 1.563-.406.382-.281.578-.656.578-1.125s-.196-.836-.578-1.109c-.375-.27-.899-.407-1.563-.407-.668 0-1.195.137-1.578.407-.375.273-.562.64-.562 1.109 0 .48.187.855.562 1.125.375.273.898.406 1.578.406zm0 0"/></symbol><symbol id="f" overflow="visible"><path d="m2.672-7.594v7.594h-.781v-6.891h-1.797v-.703zm0 0"/></symbol><symbol id="g" overflow="visible"><path d="m5.922-7.594v.563l-3.172 7.031h-.859l3.125-6.891h-3.907v1.422h-.765v-2.125zm0 0"/></symbol><symbol id="h" overflow="visible"><path d="m3.141-4.344c.8.055 1.406.274 1.812.656.414.387.625.891.625 1.516 0 .43-.105.813-.312 1.156-.211.336-.524.602-.938.797-.406.188-.906.282-1.5.282-.555 0-1.074-.086-1.562-.266-.481-.176-.871-.41-1.172-.703l.39-.625c.25.261.582.476 1 .64.414.157.864.235 1.344.235.625 0 1.102-.133 1.438-.407.343-.269.515-.64.515-1.109 0-.476-.172-.848-.515-1.109-.336-.27-.844-.407-1.532-.407h-.546v-.578l2.109-2.625h-3.891v-.703h4.891v.563zm0 0"/></symbol><symbol id="i" overflow="visible"><path d="m7.016-2h-1.516v2h-.781v-2h-4.281v-.563l4.015-5.031h.875l-3.89 4.906h3.296v-1.765h.766v1.765h1.516zm0 0"/></symbol><symbol id="j" overflow="visible"><path d="m5.75-.688v.688h-5.328v-.547l3.156-3.094c.395-.394.66-.734.797-1.015.145-.282.219-.567.219-.86 0-.445-.156-.797-.469-1.047-.305-.25-.742-.375-1.312-.375-.887 0-1.575.282-2.063.844l-.562-.484c.3-.344.679-.61 1.14-.797.457-.188.977-.281 1.563-.281.769 0 1.379.183 1.828.547.457.367.687.867.687 1.5 0 .398-.09.777-.265 1.14-.18.356-.508.766-.985 1.235l-2.578 2.546zm0 0"/></symbol><symbol id="k" overflow="visible"><path d="m5.016-6.469c-.043.063-.09.11-.141.141-.043.031-.094.047-.156.047-.063 0-.141-.024-.235-.078-.086-.063-.187-.129-.312-.204-.125-.07-.274-.132-.438-.187-.168-.063-.371-.094-.609-.094-.219 0-.414.028-.578.078-.156.055-.293.133-.406.235-.118.093-.2.211-.25.343-.055.125-.078.266-.078.422 0 .2.05.368.156.5.101.137.238.25.406.344.176.094.375.18.594.25.219.063.441.137.672.219.226.074.453.164.672.265.218.106.41.235.578.391.175.156.316.352.422.578.101.219.156.492.156.813 0 .343-.059.668-.172.968-.117.305-.289.571-.516.797-.23.231-.511.414-.843.547-.325.125-.7.188-1.125.188-.25 0-.497-.028-.735-.078-.23-.051-.453-.118-.672-.204-.218-.093-.422-.203-.609-.328-.188-.125-.356-.265-.5-.422l.375-.609c.031-.051.07-.086.125-.109.051-.032.101-.047.156-.047.082 0 .176.043.281.125.102.074.223.156.36.25.144.086.316.168.515.25.207.074.454.109.735.109.457 0 .812-.109 1.062-.328.25-.226.375-.539.375-.937 0-.219-.054-.395-.156-.532-.105-.144-.246-.265-.422-.359-.168-.094-.359-.172-.578-.234-.219-.063-.445-.129-.672-.204-.23-.07-.453-.156-.672-.25-.218-.101-.418-.234-.593-.39-.168-.164-.305-.367-.407-.61-.105-.238-.156-.535-.156-.89 0-.281.051-.551.156-.813.114-.257.274-.492.485-.703.218-.207.476-.367.781-.484.312-.125.672-.188 1.078-.188.445 0 .852.075 1.219.219.375.137.695.336.969.594zm0 0"/></symbol><symbol id="l" overflow="visible"><path d="m5.797-1.031v1.031h-4.875v-7.813h4.875v1.032h-3.594v2.359h2.875v.984h-2.875v2.407zm0 0"/></symbol><symbol id="m" overflow="visible"><path d="m3.188-4.063c.289 0 .546-.035.765-.109.219-.07.399-.172.547-.297.145-.125.25-.273.313-.453.07-.176.109-.367.109-.578 0-.426-.141-.75-.422-.969-.281-.226-.711-.344-1.281-.344h-1.016v2.75zm3.687 4.063h-1.141c-.218 0-.382-.086-.484-.266l-1.828-2.625c-.063-.093-.133-.156-.203-.187-.063-.039-.168-.063-.313-.063h-.703v3.141h-1.281v-7.813h2.297c.519 0 .961.055 1.328.157.375.105.68.258.922.453.238.199.414.433.531.703.113.273.172.574.172.906 0 .274-.043.528-.125.766-.086.23-.203.437-.359.625-.157.187-.352.355-.579.5-.218.148-.468.258-.75.328.157.094.289.227.407.391zm0 0"/></symbol><symbol id="n" overflow="visible"><path d="m7.453-7.813-3.156 7.813h-1.141l-3.172-7.813h1.016c.113 0 .203.032.266.094.07.055.125.121.156.203l2.016 5.094c.101.281.203.609.296.984.039-.187.082-.363.125-.531.051-.164.102-.316.157-.453l2-5.094c.031-.07.082-.14.156-.203.07-.062.16-.094.266-.094zm0 0"/></symbol><symbol id="o" overflow="visible"><path d="m2.203 0h-1.281v-7.813h1.281zm0 0"/></symbol><symbol id="p" overflow="visible"><path d="m6.344-1.734c.07 0 .133.027.187.078l.5.547c-.312.386-.703.683-1.172.89-.461.211-1.011.313-1.656.313-.574 0-1.09-.098-1.547-.297-.461-.195-.855-.473-1.187-.828-.324-.352-.574-.774-.75-1.266-.18-.488-.266-1.023-.266-1.609 0-.582.094-1.117.281-1.61.188-.488.446-.91.782-1.265.343-.352.75-.625 1.218-.813.477-.195 1-.297 1.563-.297.562 0 1.055.094 1.484.282.438.179.817.418 1.141.718l-.422.594c-.031.043-.07.078-.109.109-.032.024-.086.032-.157.032-.074 0-.156-.032-.25-.094-.093-.07-.214-.145-.359-.219-.137-.082-.312-.156-.531-.219-.211-.07-.477-.109-.797-.109-.375 0-.719.07-1.031.203-.313.125-.586.313-.813.563-.219.25-.39.554-.515.906-.125.355-.188.762-.188 1.219 0 .461.063.871.188 1.234.132.356.316.656.546.906.227.25.493.446.797.578.313.125.645.188 1 .188.219 0 .41-.008.578-.031.176-.032.336-.071.485-.125.144-.051.281-.114.406-.188.125-.082.25-.179.375-.297.07-.062.145-.093.219-.093zm0 0"/></symbol><symbol id="q" overflow="visible"/><symbol id="r" overflow="visible"><path d="m8.266-3.906c0 .586-.094 1.121-.282 1.609-.187.481-.453.899-.796 1.25-.344.356-.758.633-1.235.828-.48.199-1.012.297-1.594.297-.586 0-1.117-.098-1.593-.297-.481-.195-.891-.472-1.235-.828-.343-.351-.609-.769-.797-1.25-.187-.488-.281-1.023-.281-1.609 0-.571.094-1.102.281-1.594.188-.488.454-.91.797-1.266.344-.351.754-.629 1.235-.828.476-.195 1.007-.297 1.593-.297.582 0 1.114.102 1.594.297.477.199.891.477 1.235.828.343.356.609.778.796 1.266.188.492.282 1.023.282 1.594zm-1.297 0c0-.446-.063-.848-.188-1.203-.117-.364-.289-.664-.515-.907-.231-.25-.508-.441-.828-.578-.313-.133-.672-.203-1.079-.203-.398 0-.757.07-1.078.203-.324.137-.601.328-.828.578-.23.243-.406.543-.531.907-.117.355-.172.757-.172 1.203 0 .461.055.867.172 1.218.125.356.301.657.531.907.227.25.504.445.828.578.321.125.68.187 1.078.187.407 0 .766-.062 1.079-.187.32-.133.597-.328.828-.578.226-.25.398-.551.515-.907.125-.351.188-.757.188-1.218zm0 0"/></symbol><symbol id="s" overflow="visible"><path d="m9.234-7.813v7.813h-1.125v-5.344c0-.094.004-.191.016-.297.008-.101.02-.207.031-.312l-2.515 4.64c-.094.188-.246.282-.453.282h-.172c-.211 0-.36-.094-.453-.282l-2.547-4.64c.007.105.015.211.015.312.008.106.016.203.016.297v5.344h-1.125v-7.813h.953c.113 0 .203.012.266.032.062.023.113.086.156.187l2.516 4.531c.05.106.097.215.14.329.051.117.098.23.141.343.039-.113.086-.226.14-.343.051-.114.102-.223.157-.329l2.468-4.531c.051-.101.102-.164.157-.187.062-.02.148-.032.265-.032zm0 0"/></symbol><symbol id="t" overflow="visible"><path d="m5.063-2.922-1.079-2.859c-.086-.219-.171-.5-.265-.844-.043.18-.09.34-.141.484-.043.137-.086.258-.125.36l-1.062 2.859zm2.39 2.922h-.969c-.117 0-.211-.023-.281-.078-.062-.063-.117-.133-.156-.219l-.641-1.719h-3.375l-.64 1.719c-.032.074-.086.141-.157.203-.074.063-.164.094-.265.094h-.985l3.094-7.813h1.281zm0 0"/></symbol><symbol id="u" overflow="visible"><path d="m5.438-1.063v1.063h-4.516v-7.813h1.281v6.75zm0 0"/></symbol><symbol id="v" overflow="visible"><path d="m7.781-3.906c0 .586-.093 1.117-.281 1.593-.187.481-.453.891-.797 1.235s-.758.609-1.234.797c-.481.187-1.012.281-1.594.281h-2.953v-7.813h2.953c.582 0 1.113.102 1.594.297.476.188.89.453 1.234.797s.61.758.797 1.235c.188.48.281 1.007.281 1.578zm-1.297 0c0-.446-.062-.848-.187-1.203-.117-.364-.289-.664-.516-.907-.23-.25-.508-.437-.828-.562-.312-.133-.672-.203-1.078-.203h-1.672v5.75h1.672c.406 0 .766-.063 1.078-.188.32-.133.598-.32.828-.562.227-.25.399-.551.516-.907.125-.351.187-.757.187-1.218zm0 0"/></symbol><symbol id="w" overflow="visible"><path d="m7.391-7.813v7.813h-.641c-.105 0-.195-.016-.266-.047-.062-.039-.125-.098-.187-.172l-4.281-5.515c.007.105.015.211.015.312.008.106.016.199.016.281v5.141h-1.125v-7.813h.672c.051 0 .094.008.125.016.039 0 .078.012.109.031.031.012.063.032.094.063s.062.07.094.109l4.297 5.516c-.012-.113-.024-.223-.032-.328 0-.114 0-.219 0-.313v-5.094zm0 0"/></symbol><symbol id="x" overflow="visible"><path d="m6.297-6.75h-2.438v6.75h-1.25v-6.75h-2.453v-1.063h6.141zm0 0"/></symbol><symbol id="y" overflow="visible"><path d="m2.203-6.781v2.5h3.047v1.015h-3.047v3.266h-1.281v-7.813h4.875v1.032zm0 0"/></symbol><symbol id="z" overflow="visible"><path d="m2.594-3.734c-.336.187-.578.414-.735.671-.156.262-.234.543-.234.844 0 .219.035.414.109.578.082.168.188.309.313.422.125.117.269.203.437.266.176.062.352.094.532.094.351 0 .675-.055.968-.172.289-.125.551-.289.782-.5zm5.125 3.734h-1.125c-.063 0-.121 0-.172 0-.043-.008-.086-.023-.125-.047-.043-.019-.086-.039-.125-.062-.043-.032-.086-.071-.125-.125l-.641-.657c-.343.305-.734.543-1.172.719-.437.176-.914.266-1.421.266-.293 0-.586-.055-.875-.157-.282-.101-.54-.25-.766-.437-.219-.188-.399-.414-.531-.688-.137-.281-.203-.593-.203-.937 0-.25.035-.484.109-.703.082-.219.195-.422.344-.61.144-.187.316-.359.515-.515.207-.156.43-.285.672-.391-.211-.269-.359-.535-.453-.797-.094-.257-.141-.523-.141-.797 0-.269.047-.519.141-.75.094-.238.234-.445.422-.625.187-.175.41-.316.672-.421.269-.102.57-.157.906-.157.313 0 .586.047.828.141.238.094.445.219.625.375.176.156.313.34.406.547.102.211.164.422.188.64l-.734.157c-.063.011-.125 0-.188-.032-.055-.031-.094-.082-.125-.156-.031-.094-.074-.187-.125-.281-.055-.094-.121-.176-.203-.25-.074-.07-.168-.129-.281-.172-.118-.051-.246-.078-.391-.078-.156 0-.305.031-.437.094-.137.054-.25.125-.344.218-.086.094-.153.204-.203.329-.055.125-.078.261-.078.406 0 .117.007.23.031.344.031.105.07.214.125.328.062.105.133.215.219.328.093.117.203.234.328.359l2.156 2.219c.125-.238.223-.484.297-.734.082-.258.133-.52.156-.782.008-.082.035-.144.078-.187.051-.039.11-.063.172-.063h.734c-.011.45-.086.883-.218 1.297-.125.418-.309.805-.547 1.156zm0 0"/></symbol><symbol id="A" overflow="visible"><path d="m7.313-3.844v3.094c-.774.562-1.672.844-2.704.844-.636 0-1.211-.098-1.718-.297-.512-.195-.95-.473-1.313-.828-.355-.352-.633-.774-.828-1.266-.199-.488-.297-1.023-.297-1.609 0-.582.094-1.117.281-1.61.188-.488.457-.91.813-1.265.351-.352.773-.625 1.266-.813.5-.195 1.054-.297 1.671-.297.313 0 .602.028.875.078.27.043.52.11.75.204.227.086.442.187.641.312.195.117.375.25.531.406l-.359.578c-.055.094-.125.153-.219.172-.094.024-.195 0-.297-.062-.105-.063-.215-.125-.328-.188-.117-.07-.25-.14-.406-.203-.156-.062-.336-.109-.531-.14-.2-.039-.434-.063-.703-.063-.407 0-.778.07-1.11.203-.336.137-.621.328-.859.578-.231.25-.406.559-.531.922-.125.356-.188.75-.188 1.188 0 .468.063.886.188 1.25.132.367.328.679.578.937.25.25.547.446.89.578.352.137.742.203 1.172.203.32 0 .61-.031.86-.093.25-.071.492-.172.734-.297v-1.547h-1.094c-.074 0-.137-.02-.187-.063-.055-.05-.078-.113-.078-.187v-.719zm0 0"/></symbol><symbol id="B" overflow="visible"><path d="m1.75-3.906c0 .461.063.867.188 1.218.125.356.296.657.515.907.227.25.504.445.828.578.321.125.68.187 1.078.187.407 0 .77-.062 1.094-.187.32-.133.594-.328.813-.578.226-.25.398-.551.515-.907.125-.351.188-.757.188-1.218 0-.446-.063-.848-.188-1.203-.117-.364-.289-.664-.515-.907-.219-.25-.493-.441-.813-.578-.324-.133-.687-.203-1.094-.203-.398 0-.757.07-1.078.203-.324.137-.601.328-.828.578-.219.243-.39.543-.515.907-.125.355-.188.757-.188 1.203zm6.906 5.469h-1.047c-.156 0-.296-.024-.421-.063-.118-.043-.219-.117-.313-.219l-1.25-1.375c-.398.114-.82.172-1.266.172-.586 0-1.117-.098-1.593-.297-.469-.195-.875-.472-1.219-.828-.344-.351-.617-.769-.813-1.25-.187-.488-.281-1.023-.281-1.609 0-.571.094-1.102.281-1.594.196-.488.469-.91.813-1.266.344-.351.75-.629 1.219-.828.476-.195 1.007-.297 1.593-.297.594 0 1.129.102 1.61.297.476.199.883.477 1.219.828.343.356.609.778.796 1.266.188.492.282 1.023.282 1.594 0 .367-.039.711-.11 1.031-.074.324-.179.625-.312.906-.137.274-.305.528-.5.766-.199.23-.43.433-.688.609zm0 0"/></symbol><symbol id="C" overflow="visible"><path d="m4-1.031c.301 0 .57-.047.813-.141.238-.101.437-.242.593-.422.164-.187.289-.406.375-.656.094-.258.141-.539.141-.844v-4.719h1.266v4.719c0 .461-.075.887-.219 1.281-.149.387-.36.719-.641 1-.273.282-.605.508-1 .672-.387.157-.828.235-1.328.235-.492 0-.934-.078-1.328-.235-.387-.164-.719-.39-1-.672-.274-.281-.481-.613-.625-1-.149-.394-.219-.82-.219-1.281v-4.719h1.266v4.704c0 .312.039.601.125.859.094.25.219.469.375.656.164.18.367.321.609.422.238.094.504.141.797.141zm0 0"/></symbol><symbol id="D" overflow="visible"><path d="m-.016-7.484h1.032c.101 0 .187.027.25.078.07.054.125.117.156.187l1.516 4.828c.039.18.078.352.109.516.039.156.07.324.094.5.039-.176.086-.344.14-.5.051-.164.098-.336.141-.516l1.5-4.859c.019-.07.062-.129.125-.172.062-.051.141-.078.234-.078h.578c.094 0 .172.027.235.078.062.043.109.102.14.172l1.625 4.859c.063.168.114.336.157.5.039.168.082.336.125.5.019-.164.05-.336.093-.515.039-.176.079-.336.11-.485l1.39-4.828c.02-.07.063-.133.125-.187.071-.051.157-.078.25-.078h.985l-2.297 7.484h-1.031c-.137 0-.227-.082-.266-.25l-1.75-5.078c-.043-.113-.078-.227-.109-.344-.032-.113-.059-.226-.078-.344-.032.118-.059.235-.079.36-.011.117-.039.226-.078.328l-1.578 5.078c-.062.168-.168.25-.312.25h-.985zm0 0"/></symbol><symbol id="E" overflow="visible"><path d="m.641-.813c0-.125.019-.242.062-.359.039-.113.098-.211.172-.297.082-.082.18-.148.297-.203.113-.051.234-.078.359-.078.133 0 .254.027.36.078.113.055.211.121.297.203.082.086.148.184.203.297.05.117.078.234.078.359 0 .137-.024.262-.063.375-.043.106-.105.2-.187.282-.086.086-.184.148-.297.187-.106.051-.227.078-.359.078-.125 0-.247-.027-.36-.078-.117-.039-.215-.101-.297-.187-.074-.082-.136-.176-.187-.282-.055-.113-.078-.238-.078-.375zm0 0"/></symbol><symbol id="F" overflow="visible"><path d="m2.422-7.484.125 7.484h-1.313l-.125-7.484zm.25-2.36c0 .137-.027.262-.078.375-.043.106-.11.203-.203.297-.086.086-.184.152-.297.203-.117.043-.235.063-.36.063s-.246-.02-.359-.063c-.105-.051-.203-.117-.297-.203-.086-.094-.156-.191-.219-.297-.054-.113-.078-.238-.078-.375 0-.125.02-.242.063-.359.051-.113.117-.211.203-.297.094-.094.191-.16.297-.203.113-.051.234-.078.359-.078s.242.027.36.078c.113.043.21.109.296.203.094.086.164.184.219.297.063.117.094.234.094.359zm0 0"/></symbol><symbol id="G" overflow="visible"><path d="m1.078 0-.125-7.484h.781c.188 0 .305.089.36.265l.125.813c.312-.352.664-.641 1.062-.86.395-.226.852-.343 1.375-.343.414 0 .782.07 1.094.203.32.136.586.328.797.578.219.25.383.555.5.906.113.344.176.731.187 1.156l.079 4.766h-1.313l-.078-4.766c-.012-.562-.152-1-.422-1.312-.262-.32-.656-.485-1.187-.485-.399 0-.762.094-1.094.282-.336.187-.641.445-.922.765l.094 5.516zm0 0"/></symbol><symbol id="H" overflow="visible"><path d="m3.969-7.609c.539 0 1.035.093 1.484.281.445.18.828.437 1.141.781.312.336.554.742.734 1.219.176.469.27.996.281 1.578.008.594-.07 1.133-.234 1.609-.156.469-.387.871-.687 1.203-.293.336-.665.594-1.11.782-.437.176-.93.265-1.469.265-.554 0-1.046-.089-1.484-.265-.437-.188-.82-.446-1.141-.782-.324-.332-.574-.734-.75-1.203-.168-.476-.257-1.015-.265-1.609-.012-.582.062-1.109.219-1.578.156-.477.382-.883.687-1.219.313-.344.68-.601 1.109-.781.438-.188.93-.281 1.485-.281zm.125 6.687c.738 0 1.285-.242 1.64-.734.352-.5.524-1.192.516-2.078-.023-.895-.219-1.594-.594-2.094-.367-.5-.918-.75-1.656-.75-.375 0-.703.07-.984.203-.274.125-.496.309-.672.547-.18.242-.313.539-.406.89-.086.356-.122.758-.11 1.204.008.437.063.836.156 1.187.102.344.25.637.438.875.187.242.414.43.687.563.282.125.61.187.985.187zm0 0"/></symbol><symbol id="I" overflow="visible"><path d="m5.25-6.25c-.055.105-.141.156-.266.156-.074 0-.156-.023-.25-.078-.093-.051-.211-.109-.343-.172-.137-.07-.297-.133-.485-.187-.187-.063-.414-.094-.672-.094-.218 0-.418.031-.593.094-.18.054-.328.133-.453.234-.125.094-.219.211-.282.344-.062.125-.093.265-.093.422 0 .187.054.351.171.484.114.125.258.234.438.328.187.094.394.18.625.25.238.063.476.137.719.219.25.086.488.18.718.281.239.094.446.215.625.36.188.148.336.328.454.546.113.219.171.477.171.766.008.344-.043.668-.156.969-.117.293-.293.547-.531.765-.242.211-.539.375-.891.5-.343.126-.746.188-1.203.188-.523 0-.996-.086-1.422-.25-.418-.176-.781-.398-1.093-.672l.312-.5c.031-.062.07-.109.125-.141.051-.039.125-.062.219-.062.082 0 .176.039.281.109.102.075.223.153.359.235.145.086.317.164.516.234.207.063.457.094.75.094.258 0 .484-.031.672-.094.195-.07.359-.164.484-.281.125-.113.211-.242.266-.391.062-.144.094-.301.094-.469-.012-.207-.075-.378-.188-.515-.105-.133-.25-.25-.437-.344-.18-.094-.387-.176-.625-.25-.243-.07-.485-.144-.735-.219-.242-.082-.48-.175-.718-.281-.231-.101-.438-.226-.625-.375-.188-.156-.34-.344-.454-.562-.117-.227-.171-.504-.171-.829-.012-.281.039-.55.156-.812.125-.27.297-.504.515-.703.219-.195.489-.352.813-.469.332-.125.707-.187 1.125-.187.5 0 .945.078 1.344.234.394.156.734.371 1.015.641zm0 0"/></symbol><symbol id="J" overflow="visible"><path d="m3.344.125c-.586 0-1.043-.164-1.375-.5-.324-.332-.492-.805-.5-1.422l-.078-4.594h-.891c-.086 0-.152-.019-.203-.062-.055-.051-.078-.125-.078-.219l-.016-.531 1.219-.156.266-2.313c.007-.07.039-.129.093-.172.051-.051.117-.078.203-.078h.672l.047 2.578h2.141l.015.953h-2.14l.078 4.5c0 .313.078.547.234.703.157.157.352.235.594.235.133 0 .254-.02.359-.063.102-.039.192-.082.266-.125.07-.039.133-.078.188-.109.05-.039.097-.063.14-.063.063 0 .125.043.188.125l.375.625c-.219.211-.493.375-.813.5-.312.126-.64.188-.984.188zm0 0"/></symbol><symbol id="K" overflow="visible"><path d="m3.313 2.203c-.043.102-.094.18-.157.235-.062.062-.168.093-.312.093h-.969l1.313-2.969-3.204-7.046h1.125c.114 0 .204.031.266.093.07.055.117.11.141.172l2.093 4.719c.039.117.079.227.11.328.039.106.07.215.094.328.039-.113.07-.222.093-.328.032-.101.071-.211.125-.328l1.86-4.719c.031-.07.082-.133.156-.187.07-.051.148-.078.234-.078h1.047zm0 0"/></symbol><symbol id="L" overflow="visible"><path d="m1.078 0-.125-7.484h.75c.145 0 .242.027.297.078.051.054.086.148.109.281l.11 1.172c.25-.52.554-.926.922-1.219.375-.301.816-.453 1.328-.453.207 0 .394.027.562.078.176.043.332.106.469.188l-.141.984c-.043.125-.121.187-.234.187-.074 0-.184-.019-.328-.062-.137-.051-.336-.078-.594-.078-.461 0-.84.137-1.14.406-.305.262-.555.649-.75 1.156l.078 4.766zm0 0"/></symbol><symbol id="M" overflow="visible"><path d="m3.906-7.609c.446 0 .864.078 1.25.234.383.148.719.367 1 .656.282.281.5.633.657 1.047.156.406.238.883.25 1.422.007.199-.008.336-.047.406-.043.074-.125.11-.25.11h-4.985c.02.468.094.882.219 1.234.125.344.289.637.5.875.219.23.469.402.75.516.289.117.613.171.969.171.32 0 .601-.035.844-.109.238-.07.441-.148.609-.234.164-.094.305-.176.422-.25.113-.082.219-.125.312-.125.102 0 .188.043.25.125l.375.484c-.156.199-.351.371-.578.516-.219.148-.461.265-.719.359-.261.094-.531.164-.812.203-.274.051-.543.078-.813.078-.511 0-.984-.089-1.421-.265-.438-.176-.825-.43-1.157-.766-.324-.344-.578-.758-.765-1.25-.18-.5-.274-1.07-.282-1.719-.011-.519.055-1.004.204-1.453.156-.457.378-.851.671-1.187.289-.332.649-.594 1.079-.782.437-.195.925-.296 1.468-.296zm.063.968c-.637 0-1.137.188-1.5.563-.356.367-.574.871-.656 1.515h4.078c-.012-.3-.059-.578-.141-.828-.086-.257-.215-.476-.391-.656-.168-.187-.371-.332-.609-.437-.23-.102-.492-.157-.781-.157zm0 0"/></symbol><symbol id="N" overflow="visible"><path d="m1.375 0-.109-6.359-.828-.094c-.106-.031-.196-.07-.266-.125-.063-.051-.102-.125-.109-.219v-.547h1.187l-.016-.719c-.011-.425.039-.804.157-1.14.113-.332.281-.613.5-.844.218-.226.484-.398.797-.516.32-.125.679-.187 1.078-.187.332 0 .64.055.922.156l-.016.656c0 .094-.043.153-.125.172-.074.024-.184.032-.328.032h-.235c-.218 0-.421.031-.609.093-.187.055-.344.149-.469.282-.125.136-.226.312-.297.531-.074.219-.105.484-.093.797l.015.687h2.157l.015.953h-2.109l.109 6.391zm0 0"/></symbol><symbol id="O" overflow="visible"><path d="m1.672-2v2h-1.063v-5.688h1.86c.375 0 .703.047.984.141.281.086.508.203.688.359.175.157.304.352.39.579.094.218.141.464.141.734 0 .273-.047.523-.141.75-.093.23-.234.43-.422.594-.179.168-.406.297-.687.39-.274.094-.59.141-.953.141zm0-.828h.797c.187 0 .351-.024.5-.078.144-.051.265-.117.359-.203.094-.094.16-.204.203-.329.051-.132.078-.281.078-.437s-.027-.297-.078-.422c-.043-.125-.109-.226-.203-.312-.094-.082-.215-.145-.359-.188-.149-.051-.313-.078-.5-.078h-.797zm0 0"/></symbol><symbol id="P" overflow="visible"><path d="m1.672-2.219v2.219h-1.063v-5.688h1.735c.383 0 .719.043 1 .125.281.075.508.184.687.329.176.148.305.32.391.515.082.199.125.418.125.656 0 .2-.031.387-.094.563-.055.168-.137.32-.25.453-.105.137-.234.258-.39.359-.157.106-.336.196-.532.266.133.074.25.18.344.313l1.438 2.109h-.954c-.093 0-.179-.016-.25-.047-.062-.039-.117-.098-.156-.172l-1.187-1.812c-.055-.071-.106-.117-.157-.141-.054-.031-.132-.047-.234-.047zm0-.765h.656c.195 0 .367-.024.516-.079.156-.05.281-.117.375-.203.094-.082.16-.187.203-.312.051-.125.078-.258.078-.406 0-.282-.094-.5-.281-.657-.188-.156-.481-.234-.875-.234h-.672zm0 0"/></symbol><symbol id="Q" overflow="visible"><path d="m4.172-5.688v.844h-2.531v1.578h1.984v.813h-1.984v1.609h2.531v.844h-3.594v-5.688zm-.234-1.359-1.157.844c-.031.023-.062.043-.093.062-.024.012-.047.024-.079.032-.023 0-.046.007-.078.015-.023 0-.054 0-.093 0h-.75l.765-.797c.031-.031.055-.054.078-.078.032-.019.063-.035.094-.047.031-.019.063-.031.094-.031h.14zm0 0"/></symbol><symbol id="R" overflow="visible"><path d="m3.625-4.656c-.031.054-.07.093-.109.125-.032.023-.075.031-.125.031-.055 0-.118-.02-.188-.063-.062-.039-.14-.082-.234-.125-.086-.05-.188-.097-.313-.14-.117-.039-.25-.063-.406-.063-.148 0-.277.024-.391.063-.105.031-.199.078-.281.14-.074.063-.133.141-.172.235-.031.086-.047.18-.047.281 0 .125.036.234.11.328.082.094.179.172.297.235.125.062.265.121.422.171.156.043.316.094.484.157.164.054.328.117.484.187.157.074.297.168.422.281.125.118.223.258.297.422.07.168.109.371.109.61 0 .261-.046.508-.14.734-.086.219-.211.414-.375.578-.168.168-.375.297-.625.391-.242.094-.516.141-.828.141-.188 0-.371-.024-.547-.063-.168-.031-.336-.078-.5-.141-.156-.062-.309-.14-.453-.234-.137-.094-.262-.195-.375-.313l.312-.5c.02-.039.051-.07.094-.093.039-.032.086-.047.141-.047.062 0 .128.031.203.094.082.054.175.109.281.171.101.063.223.125.359.188.145.055.317.078.516.078.301 0 .535-.07.703-.219.164-.144.25-.351.25-.625 0-.144-.043-.265-.125-.359-.074-.094-.172-.172-.297-.234-.125-.063-.265-.114-.422-.157-.156-.05-.32-.101-.484-.156-.156-.051-.313-.113-.469-.187-.156-.071-.297-.164-.422-.282-.125-.125-.226-.273-.297-.453-.074-.176-.109-.394-.109-.656 0-.207.039-.41.125-.609.082-.196.203-.368.359-.516.157-.156.348-.273.579-.359.226-.094.492-.141.796-.141.332 0 .641.055.922.156.289.106.535.25.735.438zm0 0"/></symbol><symbol id="S" overflow="visible"><path d="m4.172-5.688v.844h-2.531v1.578h1.984v.813h-1.984v1.609h2.531v.844h-3.594v-5.688zm0 0"/></symbol><symbol id="T" overflow="visible"><path d="m1.125-5.688h.125c.031 0 .055.012.078.032.031.011.055.027.078.047.02.023.047.046.078.078l2.985 3.812c-.012-.094-.016-.179-.016-.265 0-.094 0-.176 0-.25v-3.454h.922v5.688h-.547c-.086 0-.152-.008-.203-.031-.055-.032-.105-.082-.156-.157l-2.985-3.781c.008.086.016.168.016.25.008.086.016.156.016.219v3.5h-.938v-5.688zm0 0"/></symbol><symbol id="U" overflow="visible"><path d="m4.484-1.344c.063 0 .114.024.157.063l.422.453c-.243.293-.528.515-.86.672-.336.148-.742.219-1.219.219-.418 0-.796-.071-1.14-.219-.336-.145-.621-.344-.86-.594-.242-.258-.421-.566-.546-.922-.125-.363-.188-.754-.188-1.172 0-.426.066-.816.203-1.172.145-.363.344-.672.594-.922.258-.257.566-.457.922-.593.363-.145.765-.219 1.203-.219.414 0 .781.07 1.094.203.32.137.597.313.828.531l-.36.485c-.023.031-.046.062-.078.093-.031.024-.078.032-.14.032-.063 0-.125-.02-.188-.063-.062-.051-.14-.101-.234-.156-.094-.063-.219-.113-.375-.156-.149-.051-.336-.078-.563-.078-.273 0-.523.046-.75.14-.218.094-.414.231-.578.406-.156.168-.281.375-.375.625-.086.25-.125.532-.125.844 0 .324.039.61.125.86.094.242.219.449.375.625.156.168.336.296.547.39.207.094.438.141.688.141.132 0 .257-.004.375-.016.125-.019.234-.047.328-.078.101-.039.195-.086.281-.141.094-.05.18-.117.266-.203.019-.019.046-.035.078-.047.031-.019.062-.031.093-.031zm0 0"/></symbol><symbol id="V" overflow="visible"/><symbol id="W" overflow="visible"><path d="m2.859-.859c.207 0 .391-.032.547-.094.164-.07.305-.164.422-.281.113-.125.195-.274.25-.454.063-.175.094-.375.094-.593v-3.407h1.062v3.407c0 .336-.058.648-.171.937-.106.293-.262.543-.469.75-.211.211-.461.371-.75.485-.293.113-.621.172-.985.172-.367 0-.695-.059-.984-.172-.293-.114-.543-.274-.75-.485-.199-.207-.352-.457-.453-.75-.106-.289-.156-.601-.156-.937v-3.407h1.047v3.407c0 .218.031.418.093.593.063.168.145.313.25.438.114.125.25.227.407.297.164.062.347.094.546.094zm0 0"/></symbol><symbol id="X" overflow="visible"><path d="m4.594-5.688v.86h-1.719v4.828h-1.062v-4.828h-1.719v-.86zm0 0"/></symbol><symbol id="Y" overflow="visible"><path d="m6.031-2.844c0 .418-.07.805-.203 1.156-.137.356-.336.665-.594.922-.25.262-.554.465-.906.61-.355.148-.746.219-1.172.219-.429 0-.824-.071-1.187-.219-.356-.145-.656-.348-.906-.61-.25-.257-.45-.566-.594-.922-.137-.351-.203-.738-.203-1.156 0-.414.066-.801.203-1.156.144-.363.344-.672.594-.922.25-.258.55-.461.906-.609.363-.145.758-.219 1.187-.219.426 0 .817.074 1.172.219.352.148.656.351.906.609.258.25.457.559.594.922.133.355.203.742.203 1.156zm-1.078 0c0-.312-.043-.594-.125-.844-.086-.25-.203-.457-.359-.625-.156-.175-.344-.312-.563-.406-.218-.094-.468-.14-.75-.14-.281 0-.539.046-.765.14-.219.094-.407.231-.563.406-.156.168-.277.375-.359.625-.086.25-.125.532-.125.844 0 .313.039.594.125.844.082.242.203.449.359.625.156.168.344.297.563.391.226.093.484.14.765.14.282 0 .532-.047.75-.14.219-.094.407-.223.563-.391.156-.176.273-.383.359-.625.082-.25.125-.531.125-.844zm0 0"/></symbol><symbol id="Z" overflow="visible"><path d="m1.641-.875h2.265v.875h-3.328v-5.688h1.063zm0 0"/></symbol><symbol id="aa" overflow="visible"><path d="m5.578 0h-.812c-.094 0-.172-.02-.235-.063-.054-.05-.093-.109-.125-.171l-.422-1.172h-2.359l-.422 1.172c-.023.054-.062.105-.125.156-.062.055-.14.078-.234.078h-.813l2.235-5.688h1.078zm-3.687-2.156h1.812l-.687-1.891c-.032-.082-.071-.18-.11-.297-.031-.113-.07-.238-.109-.375-.031.137-.07.262-.109.375-.032.117-.063.219-.094.313zm0 0"/></symbol><symbol id="ab" overflow="visible"><path d="m1.766 0h-1.063v-5.688h1.063zm0 0"/></symbol><symbol id="ac" overflow="visible"><path d="m5.625-2.844c0 .418-.07.805-.203 1.156-.137.344-.336.641-.594.891-.25.25-.555.449-.906.594-.356.137-.746.203-1.172.203h-2.172v-5.688h2.172c.426 0 .816.075 1.172.219.351.137.656.328.906.578.258.25.457.555.594.907.133.343.203.726.203 1.14zm-1.078 0c0-.312-.043-.594-.125-.844-.086-.25-.203-.457-.359-.625-.157-.175-.344-.304-.563-.39-.219-.094-.469-.141-.75-.141h-1.109v4h1.109c.281 0 .531-.047.75-.14.219-.094.406-.223.563-.391.156-.176.273-.383.359-.625.082-.25.125-.531.125-.844zm0 0"/></symbol><symbol id="ad" overflow="visible"><path d="m2.672-4.625v1.625h1.531v.719h-1.531v1.625h-.797v-1.625h-1.516v-.719h1.516v-1.625zm0 0"/></symbol><symbol id="ae" overflow="visible"><path d="m3.188-.781c.238 0 .445-.02.625-.063.175-.039.343-.101.5-.187v-1.032h-.704c-.074 0-.132-.015-.171-.046-.032-.039-.047-.086-.047-.141v-.609h1.89v2.312c-.148.106-.297.199-.453.281-.156.075-.324.137-.5.188-.18.043-.371.074-.578.094-.199.031-.414.047-.641.047-.418 0-.804-.071-1.156-.219-.344-.145-.648-.344-.906-.594-.25-.258-.449-.566-.594-.922-.137-.363-.203-.754-.203-1.172 0-.426.066-.816.203-1.172.133-.363.328-.672.578-.922.258-.257.571-.457.938-.593.375-.145.785-.219 1.234-.219.469 0 .867.07 1.203.203.344.137.633.313.875.531l-.312.485c-.063.093-.141.14-.235.14-.062 0-.132-.019-.203-.062-.086-.051-.172-.098-.265-.141-.086-.051-.18-.094-.282-.125-.105-.039-.226-.07-.359-.094-.137-.031-.289-.046-.453-.046-.281 0-.539.046-.766.14-.23.094-.422.231-.578.406-.156.18-.281.391-.375.641-.086.25-.125.527-.125.828 0 .324.047.617.141.875.094.25.219.465.375.641.164.18.363.312.594.406.226.094.476.141.75.141zm0 0"/></symbol><symbol id="af" overflow="visible"><path d="m3.438-2.359c.039.086.078.171.109.265.039.086.082.172.125.266.031-.094.066-.188.109-.281.039-.094.082-.18.125-.266l1.688-3.156c.019-.032.039-.055.062-.078.02-.032.047-.051.078-.063.032-.008.063-.016.094-.016h.125.797v5.688h-.937v-3.672c0-.07 0-.148 0-.234.007-.082.019-.164.031-.25l-1.719 3.234c-.043.074-.094.133-.156.172-.063.043-.137.062-.219.062h-.156c-.086 0-.156-.019-.219-.062-.062-.039-.117-.098-.156-.172l-1.735-3.234c.008.086.016.168.016.25.008.086.016.164.016.234v3.672h-.938v-5.688h.797.109c.039 0 .071.008.094.016.031.012.055.031.078.063.032.023.055.046.078.078zm0 0"/></symbol><symbol id="ag" overflow="visible"><path d="m6.031-2.844c0 .25-.027.496-.078.735-.055.23-.133.449-.234.656-.094.199-.215.383-.36.547-.136.168-.293.32-.468.453l1.437 1.562h-.875c-.125 0-.242-.015-.344-.046-.093-.032-.183-.094-.265-.188l-.844-.922c-.137.043-.277.067-.422.078-.137.02-.277.032-.422.032-.429 0-.824-.071-1.187-.219-.356-.145-.656-.348-.906-.61-.25-.257-.45-.566-.594-.922-.137-.351-.203-.738-.203-1.156 0-.414.066-.801.203-1.156.144-.363.344-.672.594-.922.25-.258.55-.461.906-.609.363-.145.758-.219 1.187-.219.426 0 .817.074 1.172.219.352.148.656.351.906.609.258.25.457.559.594.922.133.355.203.742.203 1.156zm-1.078 0c0-.312-.043-.594-.125-.844-.086-.25-.203-.457-.359-.625-.156-.175-.344-.312-.563-.406-.218-.094-.468-.14-.75-.14-.281 0-.539.046-.765.14-.219.094-.407.231-.563.406-.156.168-.277.375-.359.625-.086.25-.125.532-.125.844 0 .313.039.594.125.844.082.242.203.449.359.625.156.168.344.297.563.391.226.093.484.14.765.14.282 0 .532-.047.75-.14.219-.094.407-.223.563-.391.156-.176.273-.383.359-.625.082-.25.125-.531.125-.844zm0 0"/></symbol><symbol id="ah" overflow="visible"><path d="m1.063-.734h1.156v-3.313c0-.125 0-.258 0-.406l-.813.687c-.031.032-.07.055-.109.063-.031.012-.063.015-.094.015-.055 0-.105-.007-.156-.031-.043-.031-.074-.054-.094-.078l-.297-.422 1.735-1.484h.797v4.969h1.015v.734h-3.14zm0 0"/></symbol><symbol id="ai" overflow="visible"><path d="m4.375-2.844c0 .492-.059.922-.172 1.297-.105.367-.25.668-.437.906-.188.243-.414.418-.672.532-.25.113-.524.172-.813.172-.304 0-.578-.059-.828-.172-.25-.114-.469-.289-.656-.532-.188-.238-.336-.539-.438-.906-.105-.375-.156-.805-.156-1.297 0-.5.051-.929.156-1.297.102-.363.25-.664.438-.906.187-.238.406-.414.656-.531.25-.113.524-.172.828-.172.289 0 .563.059.813.172.258.117.484.293.672.531.187.242.332.543.437.906.113.368.172.797.172 1.297zm-1.016 0c0-.414-.031-.758-.093-1.031-.055-.27-.133-.484-.235-.641-.105-.156-.226-.265-.359-.328-.125-.07-.258-.109-.391-.109-.148 0-.289.039-.422.109-.125.063-.242.172-.343.328-.094.157-.172.371-.235.641-.054.273-.078.617-.078 1.031 0 .406.024.746.078 1.016.063.273.141.492.235.656.101.156.218.266.343.328.133.063.274.094.422.094.133 0 .266-.031.391-.094.133-.062.254-.172.359-.328.102-.164.18-.383.235-.656.062-.27.093-.61.093-1.016zm0 0"/></symbol><symbol id="aj" overflow="visible"><path d="m4.172-5.688v.844h-2.531v1.672h2.125v.859h-2.125v2.313h-1.063v-5.688zm0 0"/></symbol><symbol id="ak" overflow="visible"><path d="m1.672-3.313h.25c.094 0 .172-.007.234-.031.071-.031.129-.078.172-.14l1.578-1.985c.063-.082.129-.14.203-.172.071-.031.164-.047.282-.047h.906l-1.922 2.36c-.055.074-.109.137-.172.187-.055.055-.109.094-.172.125.082.032.16.078.235.141.07.055.14.121.203.203l1.984 2.672h-.937c-.137 0-.235-.016-.297-.047-.055-.039-.102-.094-.141-.156l-1.625-2.11c-.055-.062-.109-.109-.172-.14-.062-.031-.156-.047-.281-.047h-.328v2.5h-1.063v-5.703h1.063zm0 0"/></symbol><symbol id="al" overflow="visible"><path d="m5.375 0h-1.062v-2.484h-2.672v2.484h-1.063v-5.688h1.063v2.438h2.672v-2.438h1.062zm0 0"/></symbol><symbol id="am" overflow="visible"><path d="m.016-5.688h.859c.094 0 .164.024.219.063.062.043.101.102.125.172l1.344 3.469c.039.117.082.242.125.375.039.136.082.277.125.421.05-.3.125-.566.218-.796l1.328-3.469c.032-.063.071-.113.125-.156.063-.051.141-.079.235-.079h.859l-2.312 5.688h-.953zm0 0"/></symbol><symbol id="an" overflow="visible"><path d="m2.453-1.313h3.422v1.313h-5.016v-8.547h1.594zm0 0"/></symbol><symbol id="ao" overflow="visible"><path d="m8.375 0h-1.219c-.148 0-.265-.031-.359-.094-.086-.07-.141-.16-.172-.265l-.641-1.75h-3.546l-.641 1.75c-.031.093-.094.179-.188.25-.093.074-.211.109-.343.109h-1.235l3.36-8.547h1.625zm-5.531-3.234h2.734l-1.047-2.844c-.054-.125-.109-.27-.172-.438-.054-.175-.105-.363-.156-.562-.055.199-.105.387-.156.562-.055.18-.106.328-.156.453zm0 0"/></symbol><symbol id="ap" overflow="visible"/><symbol id="aq" overflow="visible"><path d="m2.5-3.344v3.344h-1.578v-8.547h2.609c.582 0 1.078.063 1.485.188.414.117.757.281 1.031.5.269.211.461.464.578.765.125.305.188.637.188 1 0 .293-.043.571-.125.828-.086.25-.211.481-.375.688-.157.211-.356.39-.594.547-.231.156-.492.281-.781.375.195.117.367.281.515.5l2.141 3.156h-1.438c-.136 0-.25-.023-.343-.078-.094-.063-.18-.141-.25-.235l-1.797-2.75c-.063-.101-.137-.175-.219-.218-.086-.039-.203-.063-.359-.063zm0-1.14h1c.301 0 .563-.036.781-.11.227-.07.41-.176.547-.312.145-.133.254-.289.328-.469.071-.176.11-.375.11-.594 0-.437-.149-.769-.438-1-.281-.238-.715-.359-1.297-.359h-1.031zm0 0"/></symbol><symbol id="ar" overflow="visible"><path d="m6.25-8.547v1.266h-3.781v2.359h2.984v1.234h-2.984v2.422h3.781v1.266h-5.391v-8.547zm-.328-2.047-1.75 1.281c-.043.032-.086.059-.125.079-.031.023-.07.039-.109.046-.032.012-.071.024-.11.032-.043 0-.094 0-.156 0h-1.141l1.157-1.203c.05-.039.097-.079.14-.11.039-.031.082-.054.125-.078.039-.019.086-.031.141-.031.051-.008.117-.016.203-.016zm0 0"/></symbol><symbol id="as" overflow="visible"><path d="m6.25-8.547v1.266h-3.781v2.531h3.203v1.266h-3.203v3.484h-1.61v-8.547zm0 0"/></symbol><symbol id="at" overflow="visible"><path d="m6.25-8.547v1.266h-3.781v2.359h2.984v1.234h-2.984v2.422h3.781v1.266h-5.391v-8.547zm0 0"/></symbol><symbol id="au" overflow="visible"><path d="m1.703-8.547c.063 0 .117.008.172.016.051 0 .094.011.125.031.039.012.078.039.109.078.039.031.082.074.125.125l4.485 5.719c-.024-.133-.039-.27-.047-.406 0-.133 0-.258 0-.375v-5.188h1.406v8.547h-.828c-.125 0-.23-.02-.312-.063-.086-.039-.165-.109-.235-.203l-4.469-5.703c.008.125.016.25.016.375.008.125.016.242.016.344v5.25h-1.407v-8.547zm0 0"/></symbol><symbol id="av" overflow="visible"><path d="m6.734-2.016c.094 0 .172.032.235.094l.625.688c-.344.429-.774.757-1.281.984-.512.23-1.122.344-1.829.344-.636 0-1.211-.11-1.718-.328-.5-.219-.934-.52-1.297-.907-.356-.382-.633-.843-.828-1.375-.188-.539-.282-1.129-.282-1.765 0-.633.102-1.219.313-1.75.219-.539.519-1.004.906-1.391.395-.383.86-.68 1.391-.891.539-.218 1.133-.328 1.781-.328.633 0 1.188.106 1.656.313.477.199.891.465 1.235.797l-.532.734c-.031.055-.074.094-.125.125-.054.031-.121.047-.203.047-.093 0-.187-.031-.281-.094-.094-.07-.215-.148-.359-.234-.149-.082-.336-.16-.563-.235-.219-.07-.496-.109-.828-.109-.406 0-.781.074-1.125.219-.336.137-.621.336-.859.594-.243.261-.43.578-.563.953-.137.375-.203.793-.203 1.25 0 .492.066.922.203 1.297.133.367.317.679.547.937.227.262.5.461.813.594.32.137.664.203 1.031.203.219 0 .41-.008.578-.031.176-.032.336-.071.484-.125.157-.051.297-.114.422-.188.133-.082.266-.179.391-.297.039-.039.082-.07.125-.093.051-.02.097-.032.14-.032zm0 0"/></symbol><symbol id="aw" overflow="visible"><path d="m2.656 0h-1.593v-8.547h1.593zm0 0"/></symbol><symbol id="ax" overflow="visible"><path d="m5.453-7c-.055.094-.109.156-.172.187-.054.032-.117.047-.187.047-.086 0-.18-.023-.281-.078-.094-.062-.211-.129-.344-.203-.125-.082-.281-.148-.469-.203-.18-.063-.387-.094-.625-.094-.219 0-.414.028-.578.078-.168.055-.309.125-.422.219-.105.094-.187.211-.25.344-.055.125-.078.265-.078.422 0 .211.055.383.172.515.113.125.258.243.437.344.188.094.399.18.641.25.238.074.476.152.719.234.25.086.488.184.718.297.239.118.454.262.641.438.188.168.332.375.438.625.113.242.171.543.171.906 0 .387-.07.746-.203 1.078-.125.336-.32.625-.578.875-.25.25-.558.449-.922.594-.367.145-.789.219-1.265.219-.274 0-.539-.028-.797-.078-.262-.051-.516-.125-.766-.219-.242-.102-.465-.223-.672-.36-.211-.144-.398-.3-.562-.468l.453-.766c.039-.051.094-.094.156-.125.063-.039.129-.062.203-.062.102 0 .211.043.328.125.114.074.25.164.407.265.156.094.336.184.547.266.207.086.457.125.75.125.457 0 .812-.102 1.062-.313.25-.218.375-.531.375-.937 0-.227-.059-.41-.172-.547-.117-.145-.265-.266-.453-.359-.18-.094-.387-.172-.625-.235-.242-.07-.484-.144-.734-.219-.243-.082-.481-.179-.719-.296-.231-.114-.438-.258-.625-.438-.188-.176-.34-.394-.453-.656-.106-.27-.156-.598-.156-.985 0-.312.054-.613.171-.906.125-.301.305-.566.547-.797.239-.226.532-.41.875-.547.352-.132.754-.203 1.203-.203.5 0 .961.078 1.391.235.426.156.789.375 1.094.656zm0 0"/></symbol><symbol id="ay" overflow="visible"><path d="m4.313-1.281c.3 0 .57-.051.812-.157.25-.101.457-.242.625-.421.164-.188.289-.411.375-.672.094-.27.141-.571.141-.907v-5.109h1.593v5.109c0 .512-.086.985-.25 1.422-.168.43-.406.797-.718 1.11-.305.312-.672.558-1.11.734-.437.176-.929.266-1.468.266-.555 0-1.047-.09-1.485-.266-.437-.176-.812-.422-1.125-.734-.305-.313-.539-.68-.703-1.11-.156-.437-.234-.91-.234-1.422v-5.109h1.593v5.109c0 .336.039.633.125.891.094.262.219.484.375.672.164.187.368.336.61.437.25.106.531.157.844.157zm0 0"/></symbol><symbol id="az" overflow="visible"><path d="m8.453-4.281c0 .636-.105 1.215-.312 1.734-.211.524-.508.977-.891 1.359-.375.375-.828.668-1.359.875-.532.211-1.121.313-1.766.313h-3.266v-8.547h3.266c.645 0 1.234.106 1.766.313.531.211.984.5 1.359.875.383.375.68.828.891 1.359.207.523.312 1.094.312 1.719zm-1.625 0c0-.469-.062-.883-.187-1.25-.125-.375-.309-.692-.547-.953-.231-.258-.512-.457-.844-.594-.336-.133-.711-.203-1.125-.203h-1.656v6.015h1.656c.414 0 .789-.066 1.125-.203.332-.133.613-.332.844-.594.238-.257.422-.578.547-.953s.187-.797.187-1.265zm0 0"/></symbol><symbol id="aA" overflow="visible"><path d="m2.5-3.016v3.016h-1.578v-8.547h2.781c.57 0 1.067.07 1.485.203.414.125.757.313 1.031.563.269.242.469.527.594.859.132.336.203.699.203 1.094 0 .418-.071.797-.203 1.14-.137.344-.344.641-.625.891-.274.25-.618.445-1.032.578-.418.137-.902.203-1.453.203zm0-1.234h1.203c.289 0 .547-.035.766-.109.219-.071.394-.176.531-.313.145-.133.25-.301.313-.5.07-.195.109-.414.109-.656 0-.227-.039-.43-.109-.61-.063-.187-.168-.343-.313-.468-.137-.133-.312-.239-.531-.313-.219-.07-.477-.109-.766-.109h-1.203zm0 0"/></symbol><symbol id="aB" overflow="visible"><path d="m9.063-4.281c0 .636-.106 1.218-.313 1.75-.211.531-.508.996-.891 1.39-.375.387-.828.688-1.359.907-.531.218-1.121.328-1.766.328-.648 0-1.234-.11-1.765-.328-.531-.219-.992-.52-1.375-.907-.387-.394-.684-.859-.891-1.39-.211-.532-.312-1.114-.312-1.75 0-.625.101-1.203.312-1.735.207-.531.504-.988.891-1.375.383-.394.844-.703 1.375-.922.531-.218 1.117-.328 1.765-.328.645 0 1.235.11 1.766.328.531.219.984.528 1.359.922.383.387.68.844.891 1.375.207.532.313 1.11.313 1.735zm-1.625 0c0-.469-.063-.883-.188-1.25-.125-.375-.309-.692-.547-.953-.23-.258-.512-.457-.844-.594-.336-.145-.711-.219-1.125-.219-.418 0-.793.074-1.125.219-.336.137-.621.336-.859.594-.23.261-.414.578-.547.953-.125.367-.187.781-.187 1.25 0 .468.062.89.187 1.265.133.375.317.696.547.953.238.262.523.461.859.594.332.137.707.203 1.125.203.414 0 .789-.066 1.125-.203.332-.133.614-.332.844-.594.238-.257.422-.578.547-.953s.188-.797.188-1.265zm0 0"/></symbol><g fill="#41c0f0"><use x="564.8178" xlink:href="#a" y="656.621572"/><use x="571.991596" xlink:href="#b" y="656.621572"/><use x="578.591055" xlink:href="#c" y="656.621572"/><use x="581.430231" xlink:href="#d" y="656.621572"/><use x="588.02969" xlink:href="#e" y="656.621572"/><use x="594.943409" xlink:href="#c" y="656.621572"/><use x="597.782585" xlink:href="#f" y="656.621572"/><use x="601.694579" xlink:href="#g" y="656.621572"/><use x="608.077307" xlink:href="#c" y="656.621572"/><use x="610.916483" xlink:href="#a" y="656.621572"/></g><g fill="#41c0f0"><use x="617.982055" xlink:href="#h" y="656.621572"/><use x="624.093869" xlink:href="#c" y="656.621572"/><use x="626.933045" xlink:href="#f" y="656.621572"/><use x="630.845039" xlink:href="#i" y="656.621572"/></g><g fill="#41c0f0"><use x="561.783886" xlink:href="#a" y="694.678408"/><use x="568.957682" xlink:href="#b" y="694.678408"/><use x="575.557141" xlink:href="#c" y="694.678408"/><use x="578.396317" xlink:href="#a" y="694.678408"/><use x="585.570113" xlink:href="#d" y="694.678408"/><use x="592.169572" xlink:href="#c" y="694.678408"/><use x="595.008748" xlink:href="#d" y="694.678408"/><use x="601.608207" xlink:href="#e" y="694.678408"/><use x="608.521926" xlink:href="#c" y="694.678408"/><use x="611.361102" xlink:href="#b" y="694.678408"/><use x="617.960561" xlink:href="#d" y="694.678408"/><use x="624.560019" xlink:href="#c" y="694.678408"/><use x="627.399196" xlink:href="#j" y="694.678408"/></g><use fill="#41c0f0" x="633.50959" xlink:href="#b" y="694.678408"/><use fill="#fff" x="537.509575" xlink:href="#k" y="641.61389"/><use fill="#fff" x="543.957224" xlink:href="#l" y="641.61389"/><use fill="#fff" x="550.730014" xlink:href="#m" y="641.61389"/><use fill="#fff" x="557.9362" xlink:href="#n" y="641.61389"/><use fill="#fff" x="565.901151" xlink:href="#o" y="641.61389"/><use fill="#fff" x="569.563948" xlink:href="#p" y="641.61389"/><use fill="#fff" x="577.301342" xlink:href="#l" y="641.61389"/><use fill="#fff" x="584.085218" xlink:href="#q" y="641.61389"/><use fill="#fff" x="587.325249" xlink:href="#p" y="641.61389"/><use fill="#fff" x="594.910747" xlink:href="#r" y="641.61389"/><use fill="#fff" x="604.15427" xlink:href="#s" y="641.61389"/><use fill="#fff" x="614.849847" xlink:href="#s" y="641.61389"/><use fill="#fff" x="625.545522" xlink:href="#l" y="641.61389"/><use fill="#fff" x="632.329299" xlink:href="#m" y="641.61389"/><use fill="#fff" x="639.654807" xlink:href="#p" y="641.61389"/><use fill="#fff" x="647.392299" xlink:href="#o" y="641.61389"/><use fill="#fff" x="651.044108" xlink:href="#t" y="641.61389"/><use fill="#fff" x="659.019754" xlink:href="#u" y="641.61389"/><use fill="#fff" x="490.187109" xlink:href="#k" y="677.568171"/><use fill="#fff" x="496.634661" xlink:href="#l" y="677.568171"/><use fill="#fff" x="503.418439" xlink:href="#m" y="677.568171"/><use fill="#fff" x="510.614027" xlink:href="#n" y="677.568171"/><use fill="#fff" x="518.578978" xlink:href="#o" y="677.568171"/><use fill="#fff" x="522.241775" xlink:href="#p" y="677.568171"/><use fill="#fff" x="529.979267" xlink:href="#l" y="677.568171"/><use fill="#fff" x="536.763045" xlink:href="#q" y="677.568171"/><use fill="#fff" x="539.634524" xlink:href="#t" y="677.568171"/><use fill="#fff" x="547.610073" xlink:href="#v" y="677.568171"/><use fill="#fff" x="556.376831" xlink:href="#s" y="677.568171"/><use fill="#fff" x="567.083397" xlink:href="#o" y="677.568171"/><use fill="#fff" x="570.735206" xlink:href="#w" y="677.568171"/><use fill="#fff" x="579.588667" xlink:href="#o" y="677.568171"/><use fill="#fff" x="583.240476" xlink:href="#k" y="677.568171"/><use fill="#fff" x="589.688126" xlink:href="#x" y="677.568171"/><use fill="#fff" x="596.66681" xlink:href="#m" y="677.568171"/><use fill="#fff" x="604.122323" xlink:href="#t" y="677.568171"/><use fill="#fff" x="611.33939" xlink:href="#x" y="677.568171"/><use fill="#fff" x="618.317976" xlink:href="#o" y="677.568171"/><use fill="#fff" x="621.991566" xlink:href="#y" y="677.568171"/><use fill="#fff" x="628.406858" xlink:href="#q" y="677.568171"/><use fill="#fff" x="631.65778" xlink:href="#z" y="677.568171"/><use fill="#fff" x="639.980348" xlink:href="#q" y="677.568171"/><use fill="#fff" x="643.209488" xlink:href="#u" y="677.568171"/><use fill="#fff" x="649.017803" xlink:href="#r" y="677.568171"/><use fill="#fff" x="658.283204" xlink:href="#A" y="677.568171"/><use fill="#fff" x="666.703345" xlink:href="#o" y="677.568171"/><use fill="#fff" x="670.366142" xlink:href="#k" y="677.568171"/><use fill="#fff" x="676.802792" xlink:href="#x" y="677.568171"/><use fill="#fff" x="683.792269" xlink:href="#o" y="677.568171"/><use fill="#fff" x="687.444078" xlink:href="#B" y="677.568171"/><use fill="#fff" x="696.698492" xlink:href="#C" y="677.568171"/><g fill="#fff"><use x="705.248725" xlink:href="#l" y="677.568171"/><use x="711.490578" xlink:href="#q" y="677.568171"/></g><g fill="#16a5c2"><use x="544.867516" xlink:href="#D" y="820.458934"/><use x="556.185843" xlink:href="#D" y="820.458934"/><use x="567.50417" xlink:href="#D" y="820.458934"/></g><g fill="#16a5c2"><use x="578.379088" xlink:href="#E" y="820.458934"/><use x="581.511575" xlink:href="#F" y="820.458934"/><use x="585.294201" xlink:href="#G" y="820.458934"/><use x="593.509593" xlink:href="#G" y="820.458934"/><use x="601.724984" xlink:href="#H" y="820.458934"/><use x="609.940375" xlink:href="#I" y="820.458934"/><use x="616.353109" xlink:href="#J" y="820.458934"/><use x="621.864513" xlink:href="#K" y="820.458934"/><use x="629.429766" xlink:href="#L" y="820.458934"/><use x="635.384447" xlink:href="#M" y="820.458934"/><use x="643.12701" xlink:href="#E" y="820.458934"/><use x="646.259498" xlink:href="#N" y="820.458934"/><use x="651.23897" xlink:href="#L" y="820.458934"/></g><g fill="#fff"><use x="357.331447" xlink:href="#O" y="555.180313"/><use x="362.020575" xlink:href="#P" y="555.180313"/><use x="366.953615" xlink:href="#Q" y="555.180313"/><use x="371.232968" xlink:href="#R" y="555.180313"/><use x="375.228517" xlink:href="#S" y="555.180313"/><use x="379.499572" xlink:href="#T" y="555.180313"/><use x="385.236746" xlink:href="#U" y="555.180313"/><use x="390.280295" xlink:href="#S" y="555.180313"/><use x="394.559546" xlink:href="#V" y="555.180313"/><use x="395.859747" xlink:href="#R" y="555.180313"/><use x="399.847503" xlink:href="#W" y="555.180313"/><g><use x="405.348126" xlink:href="#P" y="555.180313"/><use x="410.509907" xlink:href="#V" y="555.180313"/></g><use x="353.525064" xlink:href="#X" y="564.637811"/><use x="357.678178" xlink:href="#Y" y="564.637811"/><use x="363.746518" xlink:href="#W" y="564.637811"/><use x="369.254943" xlink:href="#X" y="564.637811"/><use x="373.715344" xlink:href="#S" y="564.637811"/><use x="378.002389" xlink:href="#V" y="564.637811"/><use x="379.294796" xlink:href="#Z" y="564.637811"/><use x="383.140418" xlink:href="#aa" y="564.637811"/><use x="388.507189" xlink:href="#V" y="564.637811"/><use x="389.7917" xlink:href="#U" y="564.637811"/><use x="394.835351" xlink:href="#Y" y="564.637811"/><use x="400.903494" xlink:href="#P" y="564.637811"/><use x="405.844927" xlink:href="#R" y="564.637811"/><use x="409.840374" xlink:href="#S" y="564.637811"/><use x="438.501643" xlink:href="#R" y="555.093373"/><use x="442.489296" xlink:href="#Q" y="555.093373"/><use x="446.768649" xlink:href="#Z" y="555.093373"/><use x="450.606375" xlink:href="#S" y="555.093373"/><use x="454.877532" xlink:href="#U" y="555.093373"/><use x="459.928977" xlink:href="#X" y="555.093373"/><use x="464.389379" xlink:href="#ab" y="555.093373"/><use x="466.635337" xlink:href="#Y" y="555.093373"/><use x="472.711376" xlink:href="#T" y="555.093373"/><use x="478.440252" xlink:href="#V" y="555.093373"/><use x="479.724865" xlink:href="#ac" y="555.093373"/><use x="485.383202" xlink:href="#S" y="555.093373"/><use x="489.654359" xlink:href="#R" y="555.093373"/><use x="493.657703" xlink:href="#V" y="555.093373"/><g><use x="494.942317" xlink:href="#ad" y="555.093373"/><use x="499.513054" xlink:href="#V" y="555.093373"/></g><use x="432.015102" xlink:href="#ae" y="564.550871"/><use x="437.484321" xlink:href="#P" y="564.550871"/><use x="442.41736" xlink:href="#aa" y="564.550871"/><use x="447.784131" xlink:href="#T" y="564.550871"/><use x="453.51311" xlink:href="#ac" y="564.550871"/><use x="459.163652" xlink:href="#S" y="564.550871"/><use x="463.443006" xlink:href="#R" y="564.550871"/><use x="467.438555" xlink:href="#V" y="564.550871"/><use x="468.723066" xlink:href="#af" y="564.550871"/><use x="475.815567" xlink:href="#aa" y="564.550871"/><use x="481.190132" xlink:href="#P" y="564.550871"/><use x="485.926409" xlink:href="#ag" y="564.550871"/><use x="491.986458" xlink:href="#W" y="564.550871"/><use x="497.487081" xlink:href="#S" y="564.550871"/><use x="501.766434" xlink:href="#R" y="564.550871"/><use x="538.94159" xlink:href="#ad" y="555.093373"/><use x="543.283689" xlink:href="#V" y="555.093373"/><use x="544.576096" xlink:href="#ac" y="555.093373"/><use x="550.234433" xlink:href="#S" y="555.093373"/><use x="554.50559" xlink:href="#V" y="555.093373"/><use x="555.797998" xlink:href="#ah" y="555.093373"/><use x="560.140191" xlink:href="#ai" y="555.093373"/><use x="564.482289" xlink:href="#V" y="555.093373"/><use x="565.774696" xlink:href="#ai" y="555.093373"/><use x="570.116889" xlink:href="#ai" y="555.093373"/><g><use x="574.458988" xlink:href="#ai" y="555.093373"/><use x="579.029725" xlink:href="#V" y="555.093373"/></g><use x="517.347436" xlink:href="#P" y="564.550871"/><use x="522.273084" xlink:href="#Q" y="564.550871"/><use x="526.552334" xlink:href="#aj" y="564.550871"/><use x="530.736892" xlink:href="#Q" y="564.550871"/><use x="535.007947" xlink:href="#P" y="564.550871"/><use x="539.949182" xlink:href="#S" y="564.550871"/><use x="544.236329" xlink:href="#T" y="564.550871"/><use x="549.957513" xlink:href="#U" y="564.550871"/><use x="555.000968" xlink:href="#S" y="564.550871"/><use x="559.280321" xlink:href="#R" y="564.550871"/><use x="563.268077" xlink:href="#V" y="564.550871"/><use x="564.568278" xlink:href="#S" y="564.550871"/><use x="568.847529" xlink:href="#T" y="564.550871"/><use x="574.576507" xlink:href="#V" y="564.550871"/><use x="575.861121" xlink:href="#R" y="564.550871"/><use x="579.85667" xlink:href="#X" y="564.550871"/><use x="584.009785" xlink:href="#Y" y="564.550871"/><use x="590.078124" xlink:href="#U" y="564.550871"/><g><use x="595.129373" xlink:href="#ak" y="564.550871"/><use x="600.630019" xlink:href="#V" y="564.550871"/></g><use x="697.963263" xlink:href="#aa" y="555.093373"/><use x="703.125075" xlink:href="#U" y="555.093373"/><use x="708.176426" xlink:href="#U" y="555.093373"/><use x="713.219975" xlink:href="#Y" y="555.093373"/><use x="719.288118" xlink:href="#af" y="555.093373"/><use x="726.39671" xlink:href="#O" y="555.093373"/><use x="730.478757" xlink:href="#aa" y="555.093373"/><use x="735.632776" xlink:href="#ae" y="555.093373"/><use x="741.101798" xlink:href="#T" y="555.093373"/><use x="746.839066" xlink:href="#S" y="555.093373"/><use x="751.118317" xlink:href="#af" y="555.093373"/><use x="758.218619" xlink:href="#S" y="555.093373"/><use x="762.49787" xlink:href="#T" y="555.093373"/><g><use x="768.219054" xlink:href="#X" y="555.093373"/><use x="772.908" xlink:href="#V" y="555.093373"/></g><use x="713.638486" xlink:href="#X" y="564.550871"/><use x="718.099392" xlink:href="#S" y="564.550871"/><use x="722.378642" xlink:href="#U" y="564.550871"/><use x="727.422191" xlink:href="#al" y="564.550871"/><use x="733.15946" xlink:href="#T" y="564.550871"/><use x="738.880644" xlink:href="#ab" y="564.550871"/><use x="741.126602" xlink:href="#ag" y="564.550871"/><use x="747.194848" xlink:href="#W" y="564.550871"/><use x="752.711066" xlink:href="#S" y="564.550871"/><use x="804.015352" xlink:href="#R" y="556.181624"/><use x="808.010799" xlink:href="#S" y="556.181624"/><use x="812.281956" xlink:href="#P" y="556.181624"/><use x="817.214996" xlink:href="#am" y="556.181624"/><use x="822.581767" xlink:href="#ab" y="556.181624"/><use x="824.827827" xlink:href="#U" y="556.181624"/><use x="829.879178" xlink:href="#S" y="556.181624"/><use x="834.150233" xlink:href="#R" y="556.181624"/><use x="838.382121" xlink:href="#V" y="556.181624"/><use x="789.175554" xlink:href="#O" y="565.639122"/><use x="793.872279" xlink:href="#P" y="565.639122"/><use x="798.608753" xlink:href="#Y" y="565.639122"/><use x="804.676895" xlink:href="#aj" y="565.639122"/><use x="808.861351" xlink:href="#S" y="565.639122"/><use x="813.140704" xlink:href="#R" y="565.639122"/><use x="817.128357" xlink:href="#R" y="565.639122"/><use x="821.123907" xlink:href="#ab" y="565.639122"/><use x="823.377659" xlink:href="#Y" y="565.639122"/><use x="829.453698" xlink:href="#T" y="565.639122"/><use x="835.182676" xlink:href="#T" y="565.639122"/><use x="840.911654" xlink:href="#S" y="565.639122"/><use x="845.182709" xlink:href="#Z" y="565.639122"/><use x="849.028331" xlink:href="#R" y="565.639122"/><use x="625.614003" xlink:href="#Z" y="555.093373"/><use x="629.459624" xlink:href="#ab" y="555.093373"/><use x="631.697789" xlink:href="#am" y="555.093373"/><use x="637.06456" xlink:href="#P" y="555.093373"/><use x="641.997701" xlink:href="#aa" y="555.093373"/><use x="647.364472" xlink:href="#ab" y="555.093373"/><use x="649.610533" xlink:href="#R" y="555.093373"/><use x="653.60598" xlink:href="#Y" y="555.093373"/><g><use x="659.674123" xlink:href="#T" y="555.093373"/><use x="665.631843" xlink:href="#V" y="555.093373"/></g></g><use fill="#41c0f0" x="462.526126" xlink:href="#an" y="417.214165"/><use fill="#41c0f0" x="470.056753" xlink:href="#ao" y="417.214165"/><use fill="#41c0f0" x="479.868813" xlink:href="#ap" y="417.214165"/><use fill="#fff" x="483.568659" xlink:href="#aq" y="417.214165"/><use fill="#fff" x="492.73061" xlink:href="#ar" y="417.214165"/><use fill="#fff" x="500.911346" xlink:href="#as" y="417.214165"/><use fill="#fff" x="508.950278" xlink:href="#ar" y="417.214165"/><use fill="#fff" x="517.13092" xlink:href="#aq" y="417.214165"/><use fill="#fff" x="526.281179" xlink:href="#at" y="417.214165"/><use fill="#fff" x="534.450128" xlink:href="#au" y="417.214165"/><use fill="#fff" x="544.794196" xlink:href="#av" y="417.214165"/><use fill="#fff" x="554.133475" xlink:href="#at" y="417.214165"/><use fill="#41c0f0" x="562.394466" xlink:href="#ap" y="417.214165"/><use fill="#41c0f0" x="566.094807" xlink:href="#aw" y="417.214165"/><use fill="#41c0f0" x="571.225405" xlink:href="#au" y="417.214165"/><use fill="#41c0f0" x="581.581271" xlink:href="#ax" y="417.214165"/><use fill="#41c0f0" x="589.324633" xlink:href="#ay" y="417.214165"/><use fill="#41c0f0" x="599.337688" xlink:href="#an" y="417.214165"/><use fill="#41c0f0" x="606.868315" xlink:href="#ao" y="417.214165"/><use fill="#41c0f0" x="616.680268" xlink:href="#aw" y="417.214165"/><use fill="#41c0f0" x="621.810961" xlink:href="#aq" y="417.214165"/><use fill="#41c0f0" x="630.972912" xlink:href="#at" y="417.214165"/><use fill="#41c0f0" x="639.165742" xlink:href="#ap" y="417.214165"/><use fill="#41c0f0" x="642.865988" xlink:href="#az" y="417.214165"/><use fill="#41c0f0" x="653.115681" xlink:href="#at" y="417.214165"/><use fill="#41c0f0" x="661.284524" xlink:href="#ap" y="417.214165"/><use fill="#41c0f0" x="664.984865" xlink:href="#an" y="417.214165"/><use fill="#41c0f0" x="672.515492" xlink:href="#ao" y="417.214165"/><use fill="#41c0f0" x="682.327551" xlink:href="#ap" y="417.214165"/><use fill="#41c0f0" x="686.027798" xlink:href="#aA" y="417.214165"/><use fill="#41c0f0" x="694.835093" xlink:href="#aw" y="417.214165"/><use fill="#41c0f0" x="699.965691" xlink:href="#ax" y="417.214165"/><use fill="#41c0f0" x="707.720839" xlink:href="#av" y="417.214165"/><use fill="#41c0f0" x="717.048332" xlink:href="#aw" y="417.214165"/><use fill="#41c0f0" x="722.167333" xlink:href="#au" y="417.214165"/><use fill="#41c0f0" x="732.535186" xlink:href="#at" y="417.214165"/><use fill="#41c0f0" x="739.309083" xlink:href="#ap" y="417.214165"/><use fill="#41c0f0" x="506.525876" xlink:href="#aA" y="431.991006"/><use fill="#41c0f0" x="515.332876" xlink:href="#aB" y="431.991006"/><use fill="#41c0f0" x="526.197271" xlink:href="#ay" y="431.991006"/><use fill="#41c0f0" x="536.210231" xlink:href="#aq" y="431.991006"/><use fill="#41c0f0" x="545.360585" xlink:href="#ap" y="431.991006"/><use fill="#41c0f0" x="549.060926" xlink:href="#an" y="431.991006"/><use fill="#41c0f0" x="556.591553" xlink:href="#at" y="431.991006"/><use fill="#41c0f0" x="564.772194" xlink:href="#ax" y="431.991006"/><use fill="#41c0f0" x="572.527343" xlink:href="#ap" y="431.991006"/><use fill="#fff" x="576.259934" xlink:href="#aA" y="431.990006"/><use fill="#fff" x="585.067134" xlink:href="#aq" y="431.990006"/><use fill="#fff" x="593.945384" xlink:href="#aB" y="431.990006"/><use fill="#fff" x="604.797792" xlink:href="#as" y="431.990006"/><use fill="#fff" x="612.848416" xlink:href="#at" y="431.990006"/><use fill="#fff" x="621.017259" xlink:href="#ax" y="431.990006"/><use fill="#fff" x="628.784099" xlink:href="#ax" y="431.990006"/><use fill="#fff" x="636.527556" xlink:href="#aw" y="431.990006"/><use fill="#fff" x="641.66994" xlink:href="#aB" y="431.990006"/><use fill="#fff" x="652.534336" xlink:href="#au" y="431.990006"/><use fill="#fff" x="662.890095" xlink:href="#au" y="431.990006"/><use fill="#fff" x="673.24576" xlink:href="#at" y="431.990006"/><use fill="#fff" x="681.438589" xlink:href="#an" y="431.990006"/><use fill="#fff" x="688.957135" xlink:href="#ax" y="431.990006"/></svg>