<?xml version="1.0" encoding="utf-8"?>
<svg version="1.1" id="Layer_1" xmlns="http://www.w3.org/2000/svg" xmlns:xlink="http://www.w3.org/1999/xlink" x="0px" y="0px"
	 viewBox="0 0 126.3 85.4" style="enable-background:new 0 0 126.3 85.4;" xml:space="preserve">
<style type="text/css">
	.st0{fill:none;stroke:#FFFFFF;stroke-width:3;stroke-miterlimit:10;}
	.st1{fill:#FFFFFF;}
	.st2{opacity:0.5;fill:#FFFFFF;}
</style>
<g>
	<path class="st0" d="M35.4,1.5c5.1,0,9.2,4.1,9.2,9.2c0,5.1-4.1,9.2-9.2,9.2c-5.1,0-9.2-4.1-9.2-9.2C26.2,5.6,30.3,1.5,35.4,1.5z"
		/>
	<path class="st1" d="M12.6,8.8l5.4-7c1.1-1.1,2.8-1.1,3.9,0c1.1,1.1,0.9,2.1,0,3.9l-2.7,5l2.7,5c1,1.6,1.1,2.8,0,3.9
		c-1.1,1.1-2.8,1.1-3.9,0l-5.3-6.9c0,0-0.9-1-0.9-1.9C11.8,9.8,12.6,8.8,12.6,8.8z"/>
	<path class="st2" d="M0.8,8.8l5.4-7C7.2,0.8,9,0.8,10,1.9C11.1,3,11,4,10,5.7l-2.7,5l2.7,5c1,1.6,1.1,2.8,0,3.9
		c-1.1,1.1-2.8,1.1-3.9,0l-5.3-6.9c0,0-0.9-1-0.9-1.9C0,9.8,0.8,8.8,0.8,8.8z"/>
</g>
<g>
	<path class="st1" d="M59,10.7c0,0.9-0.9,1.9-0.9,1.9l-5.3,6.9c-1.1,1.1-2.8,1.1-3.9,0c-1.1-1.1-1-2.2,0-3.9l2.7-5l-2.7-5
		C48,4,47.9,3,49,1.9c1.1-1.1,2.8-1.1,3.9,0l5.4,7C58.2,8.8,59,9.8,59,10.7z"/>
	<path class="st2" d="M70.8,10.7c0,0.9-0.9,1.9-0.9,1.9l-5.3,6.9c-1.1,1.1-2.8,1.1-3.9,0c-1.1-1.1-1-2.2,0-3.9l2.7-5l-2.7-5
		c-0.9-1.7-1.1-2.8,0-3.9c1.1-1.1,2.8-1.1,3.9,0l5.4,7C70,8.8,70.8,9.8,70.8,10.7z"/>
</g>
<path class="st1" d="M72.9,69.4c6.2,1,8.1,1.1,12.7,2.5c4.6,1.3,18.1,13.4,18.1,13.4s11.7,1.1,17.4-5.7c5.7-6.8,5.2-15.7,5.2-15.7
	s-9.8-7.3-15.5-15.7c-5.6-8.4-13.5-24.1-16.2-25.3c-2.7-1.2-2.6,0-4.6-0.2c-1.9-0.2-5.4-2.3-7.1-2.6c-1.7-0.2-4.5,2.7-5.9,2.6
	c-1.5-0.1-6.8-2.2-8.8,0c-2,2.2-2.1,2.6-2.8,2.6c-0.7,0-2.5-1.1-4-2.4c-1.5-1.2-10.6-6.3-13.7-8.1c-3.1-1.8-9-6.9-11.4-5.2
	c-3.4,2.4-2,5.5-0.9,6.4c1.2,0.9,10.9,7.7,15.3,12.5c4.4,4.7,9.5,8.9,15.1,18.1c1.1,1.8,0.8,3.8,0.3,3.5c-0.6-0.3-5-2.8-5.4-3.6
	c-0.5-0.8-1.7-5.3-2.4-6.4c-0.7-1.1-3.4-4.9-7.5-4.4c-4.2,0.5-1.5,3.4-0.7,5.5c0.8,2.1,2.5,13.1,4.5,15c2,1.8,8.4,6.2,10.1,8.1
	C66.4,66.1,68.6,68.7,72.9,69.4z"/>
</svg>
