<?xml version="1.0" encoding="utf-8"?>
<svg version="1.1" id="Calque_1" xmlns="http://www.w3.org/2000/svg" xmlns:xlink="http://www.w3.org/1999/xlink" x="0px" y="0px"
	 viewBox="0 0 126 84.2" style="enable-background:new 0 0 126 84.2;" xml:space="preserve">
<style type="text/css">
	.st0{fill:#FFFFFF;}
	.st1{fill:none;stroke:#FFFFFF;stroke-width:3;stroke-miterlimit:10;}
	.st2{opacity:0.5;fill:#FFFFFF;enable-background:new    ;}
</style>
<path class="st0" d="M60.5,68.2c6.2,1,8.1,1.1,12.7,2.5c4.6,1.3,18.1,13.4,18.1,13.4s11.7,1.1,17.4-5.7c5.7-6.8,5.2-15.7,5.2-15.7
	s-9.8-7.3-15.4-15.7c-5.6-8.4-13.5-24.1-16.2-25.3c-2.7-1.2-2.6,0-4.6-0.2c-1.9-0.2-5.4-2.3-7.1-2.6c-1.7-0.2-4.5,2.7-5.9,2.6
	c-1.5-0.1-6.8-2.2-8.8,0s-2.1,2.6-2.8,2.6s-2.5-1.1-4-2.4c-1.5-1.2-10.6-6.3-13.7-8.1s-9-6.9-11.4-5.2c-3.4,2.4-2,5.5-0.9,6.4
	c1.2,0.9,10.9,7.7,15.3,12.5c4.4,4.7,9.5,8.9,15.1,18.1c1.1,1.8,0.8,3.8,0.3,3.5c-0.6-0.3-5-2.8-5.4-3.6c-0.5-0.8-1.7-5.3-2.4-6.4
	c-0.7-1.1-3.4-4.9-7.5-4.4c-4.2,0.5-1.5,3.4-0.7,5.5s2.5,13.1,4.5,15c2,1.8,8.4,6.2,10.1,8.1C54,64.9,56.1,67.5,60.5,68.2z"/>
<g>
	<path class="st1" d="M13.5,10.7c0-5.1,4.1-9.2,9.2-9.2s9.2,4.1,9.2,9.2s-4.1,9.2-9.2,9.2C17.6,20,13.5,15.8,13.5,10.7z"/>
	<path class="st0" d="M20.8,33.5l-7-5.4c-1.1-1.1-1.1-2.8,0-3.9s2.1-0.9,3.9,0l5,2.7l5-2.7c1.6-1,2.8-1.1,3.9,0s1.1,2.8,0,3.9
		l-6.9,5.3c0,0-1,0.9-1.9,0.9C21.8,34.3,20.8,33.5,20.8,33.5z"/>
	<path class="st2" d="M20.8,45.3l-7-5.4c-1.1-1.1-1.1-2.8,0-3.9c1.2-1,2.2-0.8,3.9,0.1l5,2.7l5-2.7c1.6-1,2.8-1.1,3.9,0
		s1.1,2.8,0,3.9l-6.9,5.3c0,0-1,0.9-1.9,0.9C21.8,46.1,20.8,45.3,20.8,45.3z"/>
</g>
</svg>
